<svg xmlns="http://www.w3.org/2000/svg" xmlns:xlink="http://www.w3.org/1999/xlink" width="603" zoomAndPan="magnify" viewBox="0 0 452.25 205.499994" height="274" preserveAspectRatio="xMidYMid meet" version="1.0"><defs><g/><clipPath id="7ba94fa362"><path d="M 0.976562 26.035156 L 451.328125 26.035156 L 451.328125 204.851562 L 0.976562 204.851562 Z M 0.976562 26.035156 " clip-rule="nonzero"/></clipPath><clipPath id="29bb175710"><path d="M 10.703125 26.035156 L 441.367188 26.035156 C 443.949219 26.035156 446.421875 27.0625 448.246094 28.886719 C 450.070312 30.710938 451.09375 33.183594 451.09375 35.761719 L 451.09375 194.972656 C 451.09375 197.554688 450.070312 200.027344 448.246094 201.851562 C 446.421875 203.675781 443.949219 204.699219 441.367188 204.699219 L 10.703125 204.699219 C 8.125 204.699219 5.648438 203.675781 3.828125 201.851562 C 2.003906 200.027344 0.976562 197.554688 0.976562 194.972656 L 0.976562 35.761719 C 0.976562 33.183594 2.003906 30.710938 3.828125 28.886719 C 5.648438 27.0625 8.125 26.035156 10.703125 26.035156 Z M 10.703125 26.035156 " clip-rule="nonzero"/></clipPath><clipPath id="6e0287ba93"><path d="M 18.605469 140.117188 L 255.574219 140.117188 L 255.574219 190.964844 L 18.605469 190.964844 Z M 18.605469 140.117188 " clip-rule="nonzero"/></clipPath><clipPath id="890aeb1ae4"><path d="M 25.339844 140.117188 L 248.710938 140.117188 C 252.429688 140.117188 255.445312 143.128906 255.445312 146.847656 L 255.445312 184.230469 C 255.445312 187.949219 252.429688 190.964844 248.710938 190.964844 L 25.339844 190.964844 C 21.621094 190.964844 18.605469 187.949219 18.605469 184.230469 L 18.605469 146.847656 C 18.605469 143.128906 21.621094 140.117188 25.339844 140.117188 Z M 25.339844 140.117188 " clip-rule="nonzero"/></clipPath><clipPath id="085c385ba2"><path d="M 18.625 140.117188 L 255.78125 140.117188 L 255.78125 190.992188 L 18.625 190.992188 Z M 18.625 140.117188 " clip-rule="nonzero"/></clipPath><clipPath id="6cc6781b6a"><path d="M 25.355469 140.117188 L 248.691406 140.117188 C 252.410156 140.117188 255.425781 143.128906 255.425781 146.847656 L 255.425781 184.222656 C 255.425781 187.941406 252.410156 190.957031 248.691406 190.957031 L 25.355469 190.957031 C 21.636719 190.957031 18.625 187.941406 18.625 184.222656 L 18.625 146.847656 C 18.625 143.128906 21.636719 140.117188 25.355469 140.117188 Z M 25.355469 140.117188 " clip-rule="nonzero"/></clipPath><clipPath id="10f126be8a"><path d="M 131.800781 50.921875 L 229.0625 50.921875 L 229.0625 124.992188 L 131.800781 124.992188 Z M 131.800781 50.921875 " clip-rule="nonzero"/></clipPath><clipPath id="fc2483284d"><path d="M 180.429688 50.921875 C 153.574219 50.921875 131.800781 67.542969 131.800781 88.042969 C 131.800781 108.546875 153.574219 125.167969 180.429688 125.167969 C 207.289062 125.167969 229.058594 108.546875 229.058594 88.042969 C 229.058594 67.542969 207.289062 50.921875 180.429688 50.921875 Z M 180.429688 50.921875 " clip-rule="nonzero"/></clipPath></defs><g clip-path="url(#7ba94fa362)"><g clip-path="url(#29bb175710)"><path stroke-linecap="butt" transform="matrix(0.74818, 0, 0, 0.74818, 0.977587, 26.036488)" fill="none" stroke-linejoin="miter" d="M 12.998936 -0.00177998 L 588.61489 -0.00177998 C 592.065975 -0.00177998 595.370872 1.371345 597.809082 3.809555 C 600.247292 6.247765 601.615196 9.552662 601.615196 12.998526 L 601.615196 225.796304 C 601.615196 229.247389 600.247292 232.552286 597.809082 234.990496 C 595.370872 237.428706 592.065975 238.79661 588.61489 238.79661 L 12.998936 238.79661 C 9.553072 238.79661 6.242954 237.428706 3.809965 234.990496 C 1.371755 232.552286 -0.00136955 229.247389 -0.00136955 225.796304 L -0.00136955 12.998526 C -0.00136955 9.552662 1.371755 6.247765 3.809965 3.809555 C 6.242954 1.371345 9.553072 -0.00177998 12.998936 -0.00177998 Z M 12.998936 -0.00177998 " stroke="#9b0e34" stroke-width="8" stroke-opacity="1" stroke-miterlimit="4"/></g></g><path fill="#ffffff" d="M 17.597656 6.945312 L 264.203125 6.945312 C 266.519531 6.945312 268.738281 7.867188 270.375 9.503906 C 272.011719 11.140625 272.933594 13.359375 272.933594 15.675781 L 272.933594 33.132812 C 272.933594 35.449219 272.011719 37.667969 270.375 39.304688 C 268.738281 40.941406 266.519531 41.863281 264.203125 41.863281 L 17.597656 41.863281 C 12.777344 41.863281 8.867188 37.953125 8.867188 33.132812 L 8.867188 15.675781 C 8.867188 10.855469 12.777344 6.945312 17.597656 6.945312 Z M 17.597656 6.945312 " fill-opacity="1" fill-rule="nonzero"/><g fill="#9b0e34" fill-opacity="1"><g transform="translate(16.848082, 32.63448)"><g><path d="M 8.5625 -9.359375 C 8.5625 -10.023438 8.367188 -10.539062 7.984375 -10.90625 C 7.597656 -11.269531 7.019531 -11.453125 6.25 -11.453125 L 4.796875 -11.453125 L 4.796875 -7.1875 L 6.328125 -7.1875 C 7.046875 -7.1875 7.597656 -7.375 7.984375 -7.75 C 8.367188 -8.125 8.5625 -8.660156 8.5625 -9.359375 Z M 11.828125 -9.375 C 11.828125 -8.488281 11.625 -7.707031 11.21875 -7.03125 C 10.820312 -6.351562 10.238281 -5.828125 9.46875 -5.453125 C 8.695312 -5.085938 7.773438 -4.90625 6.703125 -4.90625 L 4.796875 -4.90625 L 4.796875 0 L 1.546875 0 L 1.546875 -13.734375 L 6.609375 -13.734375 C 8.296875 -13.734375 9.585938 -13.359375 10.484375 -12.609375 C 11.378906 -11.867188 11.828125 -10.789062 11.828125 -9.375 Z M 11.828125 -9.375 "/></g></g></g><g fill="#9b0e34" fill-opacity="1"><g transform="translate(29.098632, 32.63448)"><g><path d="M 14.21875 -6.921875 C 14.21875 -4.679688 13.632812 -2.9375 12.46875 -1.6875 C 11.3125 -0.4375 9.671875 0.1875 7.546875 0.1875 C 5.410156 0.1875 3.769531 -0.421875 2.625 -1.640625 C 1.488281 -2.867188 0.921875 -4.628906 0.921875 -6.921875 C 0.921875 -9.179688 1.488281 -10.914062 2.625 -12.125 C 3.769531 -13.332031 5.414062 -13.9375 7.5625 -13.9375 C 9.707031 -13.9375 11.351562 -13.332031 12.5 -12.125 C 13.644531 -10.914062 14.21875 -9.179688 14.21875 -6.921875 Z M 10.921875 -6.921875 C 10.921875 -9.898438 9.800781 -11.390625 7.5625 -11.390625 C 6.445312 -11.390625 5.609375 -11.023438 5.046875 -10.296875 C 4.484375 -9.578125 4.203125 -8.453125 4.203125 -6.921875 C 4.203125 -3.867188 5.316406 -2.34375 7.546875 -2.34375 C 8.691406 -2.34375 9.539062 -2.707031 10.09375 -3.4375 C 10.644531 -4.175781 10.921875 -5.335938 10.921875 -6.921875 Z M 10.921875 -6.921875 "/></g></g></g><g fill="#9b0e34" fill-opacity="1"><g transform="translate(44.221926, 32.63448)"><g><path d="M 8.5625 -9.359375 C 8.5625 -10.023438 8.367188 -10.539062 7.984375 -10.90625 C 7.597656 -11.269531 7.019531 -11.453125 6.25 -11.453125 L 4.796875 -11.453125 L 4.796875 -7.1875 L 6.328125 -7.1875 C 7.046875 -7.1875 7.597656 -7.375 7.984375 -7.75 C 8.367188 -8.125 8.5625 -8.660156 8.5625 -9.359375 Z M 11.828125 -9.375 C 11.828125 -8.488281 11.625 -7.707031 11.21875 -7.03125 C 10.820312 -6.351562 10.238281 -5.828125 9.46875 -5.453125 C 8.695312 -5.085938 7.773438 -4.90625 6.703125 -4.90625 L 4.796875 -4.90625 L 4.796875 0 L 1.546875 0 L 1.546875 -13.734375 L 6.609375 -13.734375 C 8.296875 -13.734375 9.585938 -13.359375 10.484375 -12.609375 C 11.378906 -11.867188 11.828125 -10.789062 11.828125 -9.375 Z M 11.828125 -9.375 "/></g></g></g><g fill="#9b0e34" fill-opacity="1"><g transform="translate(56.472476, 32.63448)"><g><path d="M 13 -5.328125 C 13 -3.503906 12.507812 -2.128906 11.53125 -1.203125 C 10.550781 -0.273438 9.09375 0.1875 7.15625 0.1875 C 5.257812 0.1875 3.828125 -0.265625 2.859375 -1.171875 C 1.898438 -2.078125 1.421875 -3.425781 1.421875 -5.21875 L 1.421875 -13.734375 L 4.671875 -13.734375 L 4.671875 -5.421875 C 4.671875 -4.335938 4.890625 -3.550781 5.328125 -3.0625 C 5.773438 -2.582031 6.421875 -2.34375 7.265625 -2.34375 C 8.117188 -2.34375 8.75 -2.597656 9.15625 -3.109375 C 9.5625 -3.617188 9.765625 -4.429688 9.765625 -5.546875 L 9.765625 -13.734375 L 13 -13.734375 Z M 13 -5.328125 "/></g></g></g><g fill="#9b0e34" fill-opacity="1"><g transform="translate(70.894625, 32.63448)"><g><path d="M 1.546875 0 L 1.546875 -13.734375 L 4.8125 -13.734375 L 4.8125 -2.53125 L 9.859375 -2.53125 L 9.859375 0 Z M 1.546875 0 "/></g></g></g><g fill="#9b0e34" fill-opacity="1"><g transform="translate(81.090432, 32.63448)"><g><path d="M 10.609375 0 L 9.484375 -3.3125 L 4.484375 -3.3125 L 3.375 0 L 0.15625 0 L 5.078125 -13.734375 L 8.890625 -13.734375 L 13.828125 0 Z M 6.96875 -11.390625 C 6.820312 -10.742188 6.644531 -10.097656 6.4375 -9.453125 L 5.1875 -5.703125 L 8.8125 -5.703125 L 7.5625 -9.453125 C 7.351562 -10.097656 7.171875 -10.742188 7.015625 -11.390625 Z M 6.96875 -11.390625 "/></g></g></g><g fill="#9b0e34" fill-opacity="1"><g transform="translate(95.113319, 32.63448)"><g><path d="M 7.46875 -11.15625 L 7.46875 0 L 4.21875 0 L 4.21875 -11.15625 L 0.28125 -11.15625 L 0.28125 -13.734375 L 11.40625 -13.734375 L 11.40625 -11.15625 Z M 7.46875 -11.15625 "/></g></g></g><g fill="#9b0e34" fill-opacity="1"><g transform="translate(106.799059, 32.63448)"><g><path d="M 1.546875 0 L 1.546875 -13.734375 L 4.8125 -13.734375 L 4.8125 0 Z M 1.546875 0 "/></g></g></g><g fill="#9b0e34" fill-opacity="1"><g transform="translate(113.119096, 32.63448)"><g><path d="M 14.21875 -6.921875 C 14.21875 -4.679688 13.632812 -2.9375 12.46875 -1.6875 C 11.3125 -0.4375 9.671875 0.1875 7.546875 0.1875 C 5.410156 0.1875 3.769531 -0.421875 2.625 -1.640625 C 1.488281 -2.867188 0.921875 -4.628906 0.921875 -6.921875 C 0.921875 -9.179688 1.488281 -10.914062 2.625 -12.125 C 3.769531 -13.332031 5.414062 -13.9375 7.5625 -13.9375 C 9.707031 -13.9375 11.351562 -13.332031 12.5 -12.125 C 13.644531 -10.914062 14.21875 -9.179688 14.21875 -6.921875 Z M 10.921875 -6.921875 C 10.921875 -9.898438 9.800781 -11.390625 7.5625 -11.390625 C 6.445312 -11.390625 5.609375 -11.023438 5.046875 -10.296875 C 4.484375 -9.578125 4.203125 -8.453125 4.203125 -6.921875 C 4.203125 -3.867188 5.316406 -2.34375 7.546875 -2.34375 C 8.691406 -2.34375 9.539062 -2.707031 10.09375 -3.4375 C 10.644531 -4.175781 10.921875 -5.335938 10.921875 -6.921875 Z M 10.921875 -6.921875 "/></g></g></g><g fill="#9b0e34" fill-opacity="1"><g transform="translate(128.24239, 32.63448)"><g><path d="M 10.28125 0 L 4.328125 -10.234375 C 4.398438 -8.910156 4.4375 -8.070312 4.4375 -7.71875 L 4.4375 0 L 1.546875 0 L 1.546875 -13.734375 L 5.421875 -13.734375 L 11.453125 -3.40625 C 11.429688 -3.6875 11.40625 -4.046875 11.375 -4.484375 C 11.351562 -4.921875 11.34375 -5.46875 11.34375 -6.125 L 11.34375 -13.734375 L 14.21875 -13.734375 L 14.21875 0 Z M 10.28125 0 "/></g></g></g><g fill="#9b0e34" fill-opacity="1"><g transform="translate(149.500697, 32.63448)"><g><path d="M 10.65625 -4.015625 C 10.65625 -2.660156 10.207031 -1.617188 9.3125 -0.890625 C 8.425781 -0.171875 7.15625 0.1875 5.5 0.1875 C 4.039062 0.1875 2.890625 -0.117188 2.046875 -0.734375 C 1.203125 -1.359375 0.65625 -2.34375 0.40625 -3.6875 L 3.4375 -4.171875 C 3.53125 -3.546875 3.773438 -3.0625 4.171875 -2.71875 C 4.566406 -2.382812 5.078125 -2.21875 5.703125 -2.21875 C 6.910156 -2.21875 7.515625 -2.753906 7.515625 -3.828125 C 7.515625 -4.160156 7.429688 -4.4375 7.265625 -4.65625 C 7.109375 -4.875 6.894531 -5.054688 6.625 -5.203125 C 6.351562 -5.347656 6.046875 -5.46875 5.703125 -5.5625 C 5.359375 -5.664062 5.003906 -5.765625 4.640625 -5.859375 C 3.878906 -6.078125 3.332031 -6.257812 3 -6.40625 C 2.675781 -6.5625 2.378906 -6.738281 2.109375 -6.9375 C 1.847656 -7.144531 1.625 -7.390625 1.4375 -7.671875 C 1.25 -7.960938 1.101562 -8.300781 1 -8.6875 C 0.894531 -9.082031 0.84375 -9.53125 0.84375 -10.03125 C 0.84375 -11.28125 1.25 -12.242188 2.0625 -12.921875 C 2.882812 -13.597656 4.046875 -13.9375 5.546875 -13.9375 C 6.941406 -13.9375 8.003906 -13.660156 8.734375 -13.109375 C 9.472656 -12.566406 9.984375 -11.660156 10.265625 -10.390625 L 7.15625 -10.015625 C 7.082031 -10.523438 6.898438 -10.925781 6.609375 -11.21875 C 6.316406 -11.507812 5.953125 -11.65625 5.515625 -11.65625 C 5.054688 -11.65625 4.6875 -11.519531 4.40625 -11.25 C 4.125 -10.976562 3.984375 -10.632812 3.984375 -10.21875 C 3.984375 -9.820312 4.109375 -9.5 4.359375 -9.25 C 4.617188 -9 5.015625 -8.789062 5.546875 -8.625 L 7.515625 -8.046875 C 8.640625 -7.710938 9.441406 -7.222656 9.921875 -6.578125 C 10.410156 -5.941406 10.65625 -5.085938 10.65625 -4.015625 Z M 10.65625 -4.015625 "/></g></g></g><g fill="#9b0e34" fill-opacity="1"><g transform="translate(160.680054, 32.63448)"><g><path d="M 1.546875 0 L 1.546875 -13.734375 L 4.8125 -13.734375 L 4.8125 0 Z M 1.546875 0 "/></g></g></g><g fill="#9b0e34" fill-opacity="1"><g transform="translate(167.000091, 32.63448)"><g><path d="M 11.671875 0 L 0.4375 0 L 0.4375 -2.25 L 7.484375 -11.171875 L 1.203125 -11.171875 L 1.203125 -13.734375 L 11.109375 -13.734375 L 11.109375 -11.5 L 4.078125 -2.53125 L 11.671875 -2.53125 Z M 11.671875 0 "/></g></g></g><g fill="#9b0e34" fill-opacity="1"><g transform="translate(179.104569, 32.63448)"><g><path d="M 1.546875 0 L 1.546875 -13.734375 L 9.6875 -13.734375 L 9.6875 -11.171875 L 4.8125 -11.171875 L 4.8125 -8.1875 L 9.078125 -8.1875 L 9.078125 -5.703125 L 4.8125 -5.703125 L 4.8125 -2.53125 L 10.078125 -2.53125 L 10.078125 0 Z M 1.546875 0 "/></g></g></g><g fill="#9b0e34" fill-opacity="1"><g transform="translate(189.719115, 32.63448)"><g/></g></g><g fill="#9b0e34" fill-opacity="1"><g transform="translate(195.221151, 32.63448)"><g><path d="M 14.671875 0 L 14.671875 -7.953125 C 14.671875 -8.441406 14.675781 -8.929688 14.6875 -9.421875 C 14.707031 -9.910156 14.722656 -10.398438 14.734375 -10.890625 C 14.597656 -10.503906 14.460938 -10.109375 14.328125 -9.703125 C 14.203125 -9.304688 14.0625 -8.910156 13.90625 -8.515625 L 10.71875 0 L 8.453125 0 L 5.171875 -8.515625 C 4.859375 -9.328125 4.59375 -10.117188 4.375 -10.890625 C 4.382812 -10.398438 4.394531 -9.910156 4.40625 -9.421875 C 4.425781 -8.941406 4.4375 -8.460938 4.4375 -7.984375 L 4.4375 0 L 1.546875 0 L 1.546875 -13.734375 L 5.90625 -13.734375 L 8.203125 -7.78125 C 8.484375 -7.050781 8.769531 -6.257812 9.0625 -5.40625 C 9.363281 -4.5625 9.535156 -4.015625 9.578125 -3.765625 C 10.078125 -5.210938 10.570312 -6.582031 11.0625 -7.875 L 13.234375 -13.734375 L 17.5625 -13.734375 L 17.5625 0 Z M 14.671875 0 "/></g></g></g><g fill="#9b0e34" fill-opacity="1"><g transform="translate(214.307847, 32.63448)"><g><path d="M 14.21875 -6.921875 C 14.21875 -4.679688 13.632812 -2.9375 12.46875 -1.6875 C 11.3125 -0.4375 9.671875 0.1875 7.546875 0.1875 C 5.410156 0.1875 3.769531 -0.421875 2.625 -1.640625 C 1.488281 -2.867188 0.921875 -4.628906 0.921875 -6.921875 C 0.921875 -9.179688 1.488281 -10.914062 2.625 -12.125 C 3.769531 -13.332031 5.414062 -13.9375 7.5625 -13.9375 C 9.707031 -13.9375 11.351562 -13.332031 12.5 -12.125 C 13.644531 -10.914062 14.21875 -9.179688 14.21875 -6.921875 Z M 10.921875 -6.921875 C 10.921875 -9.898438 9.800781 -11.390625 7.5625 -11.390625 C 6.445312 -11.390625 5.609375 -11.023438 5.046875 -10.296875 C 4.484375 -9.578125 4.203125 -8.453125 4.203125 -6.921875 C 4.203125 -3.867188 5.316406 -2.34375 7.546875 -2.34375 C 8.691406 -2.34375 9.539062 -2.707031 10.09375 -3.4375 C 10.644531 -4.175781 10.921875 -5.335938 10.921875 -6.921875 Z M 10.921875 -6.921875 "/></g></g></g><g fill="#9b0e34" fill-opacity="1"><g transform="translate(229.431129, 32.63448)"><g><path d="M 10.5 -6.953125 C 10.5 -8.328125 10.148438 -9.375 9.453125 -10.09375 C 8.765625 -10.820312 7.765625 -11.1875 6.453125 -11.1875 L 4.796875 -11.1875 L 4.796875 -2.53125 L 6.828125 -2.53125 C 7.960938 -2.53125 8.859375 -2.921875 9.515625 -3.703125 C 10.171875 -4.484375 10.5 -5.566406 10.5 -6.953125 Z M 13.78125 -6.953125 C 13.78125 -5.535156 13.503906 -4.300781 12.953125 -3.25 C 12.398438 -2.195312 11.617188 -1.390625 10.609375 -0.828125 C 9.597656 -0.273438 8.425781 0 7.09375 0 L 1.546875 0 L 1.546875 -13.734375 L 6.515625 -13.734375 C 8.828125 -13.734375 10.613281 -13.144531 11.875 -11.96875 C 13.144531 -10.789062 13.78125 -9.117188 13.78125 -6.953125 Z M 13.78125 -6.953125 "/></g></g></g><g fill="#9b0e34" fill-opacity="1"><g transform="translate(244.135684, 32.63448)"><g><path d="M 1.546875 0 L 1.546875 -13.734375 L 9.6875 -13.734375 L 9.6875 -11.171875 L 4.8125 -11.171875 L 4.8125 -8.1875 L 9.078125 -8.1875 L 9.078125 -5.703125 L 4.8125 -5.703125 L 4.8125 -2.53125 L 10.078125 -2.53125 L 10.078125 0 Z M 1.546875 0 "/></g></g></g><g fill="#9b0e34" fill-opacity="1"><g transform="translate(254.75023, 32.63448)"><g><path d="M 1.546875 0 L 1.546875 -13.734375 L 4.8125 -13.734375 L 4.8125 -2.53125 L 9.859375 -2.53125 L 9.859375 0 Z M 1.546875 0 "/></g></g></g><g clip-path="url(#6e0287ba93)"><g clip-path="url(#890aeb1ae4)"><path fill="#9b0e34" d="M 18.605469 140.117188 L 255.375 140.117188 L 255.375 190.964844 L 18.605469 190.964844 Z M 18.605469 140.117188 " fill-opacity="1" fill-rule="nonzero"/></g></g><g clip-path="url(#085c385ba2)"><g clip-path="url(#6cc6781b6a)"><path stroke-linecap="butt" transform="matrix(0.74818, 0, 0, 0.74818, 18.624033, 140.115254)" fill="none" stroke-linejoin="miter" d="M 8.997085 0.00258451 L 307.502885 0.00258451 C 312.473283 0.00258451 316.5039 4.02798 316.5039 8.998378 L 316.5039 58.952964 C 316.5039 63.923362 312.473283 67.953978 307.502885 67.953978 L 8.997085 67.953978 C 4.026688 67.953978 0.001292 63.923362 0.001292 58.952964 L 0.001292 8.998378 C 0.001292 4.02798 4.026688 0.00258451 8.997085 0.00258451 Z M 8.997085 0.00258451 " stroke="#9b0e34" stroke-width="8" stroke-opacity="1" stroke-miterlimit="4"/></g></g><g fill="#ffffff" fill-opacity="1"><g transform="translate(55.145525, 169.133282)"><g><path d="M 6.125 0.171875 C 4.4375 0.171875 3.128906 -0.382812 2.203125 -1.5 C 1.285156 -2.625 0.828125 -4.203125 0.828125 -6.234375 C 0.828125 -8.265625 1.269531 -9.820312 2.15625 -10.90625 C 3.050781 -11.988281 4.347656 -12.53125 6.046875 -12.53125 C 7.203125 -12.53125 8.160156 -12.265625 8.921875 -11.734375 C 9.691406 -11.203125 10.304688 -10.320312 10.765625 -9.09375 L 8.25 -8.25 C 8.050781 -8.90625 7.769531 -9.398438 7.40625 -9.734375 C 7.050781 -10.078125 6.628906 -10.25 6.140625 -10.25 C 5.367188 -10.25 4.78125 -9.910156 4.375 -9.234375 C 3.976562 -8.554688 3.78125 -7.554688 3.78125 -6.234375 C 3.78125 -4.929688 3.976562 -3.914062 4.375 -3.1875 C 4.78125 -2.46875 5.359375 -2.109375 6.109375 -2.109375 C 6.554688 -2.109375 6.953125 -2.273438 7.296875 -2.609375 C 7.640625 -2.953125 7.9375 -3.507812 8.1875 -4.28125 L 10.8125 -3.359375 C 10.332031 -2.109375 9.707031 -1.207031 8.9375 -0.65625 C 8.164062 -0.101562 7.226562 0.171875 6.125 0.171875 Z M 6.125 0.171875 "/></g></g><g transform="translate(66.350683, 169.133282)"><g><path d="M 10.34375 -4.5625 C 10.34375 -3.082031 9.910156 -1.921875 9.046875 -1.078125 C 8.191406 -0.242188 6.988281 0.171875 5.4375 0.171875 C 3.9375 0.171875 2.757812 -0.25 1.90625 -1.09375 C 1.050781 -1.945312 0.625 -3.101562 0.625 -4.5625 C 0.625 -6.007812 1.050781 -7.148438 1.90625 -7.984375 C 2.757812 -8.816406 3.953125 -9.234375 5.484375 -9.234375 C 7.035156 -9.234375 8.234375 -8.828125 9.078125 -8.015625 C 9.921875 -7.210938 10.34375 -6.0625 10.34375 -4.5625 Z M 7.4375 -4.5625 C 7.4375 -6.40625 6.800781 -7.328125 5.53125 -7.328125 C 4.207031 -7.328125 3.546875 -6.40625 3.546875 -4.5625 C 3.546875 -3.644531 3.703125 -2.945312 4.015625 -2.46875 C 4.335938 -1.988281 4.804688 -1.75 5.421875 -1.75 C 6.097656 -1.75 6.601562 -1.976562 6.9375 -2.4375 C 7.269531 -2.894531 7.4375 -3.601562 7.4375 -4.5625 Z M 7.4375 -4.5625 "/></g></g><g transform="translate(77.32788, 169.133282)"><g><path d="M 1.15625 0 L 1.15625 -12.75 L 3.9375 -12.75 L 3.9375 0 Z M 1.15625 0 "/></g></g><g transform="translate(82.430699, 169.133282)"><g><path d="M 10.34375 -4.5625 C 10.34375 -3.082031 9.910156 -1.921875 9.046875 -1.078125 C 8.191406 -0.242188 6.988281 0.171875 5.4375 0.171875 C 3.9375 0.171875 2.757812 -0.25 1.90625 -1.09375 C 1.050781 -1.945312 0.625 -3.101562 0.625 -4.5625 C 0.625 -6.007812 1.050781 -7.148438 1.90625 -7.984375 C 2.757812 -8.816406 3.953125 -9.234375 5.484375 -9.234375 C 7.035156 -9.234375 8.234375 -8.828125 9.078125 -8.015625 C 9.921875 -7.210938 10.34375 -6.0625 10.34375 -4.5625 Z M 7.4375 -4.5625 C 7.4375 -6.40625 6.800781 -7.328125 5.53125 -7.328125 C 4.207031 -7.328125 3.546875 -6.40625 3.546875 -4.5625 C 3.546875 -3.644531 3.703125 -2.945312 4.015625 -2.46875 C 4.335938 -1.988281 4.804688 -1.75 5.421875 -1.75 C 6.097656 -1.75 6.601562 -1.976562 6.9375 -2.4375 C 7.269531 -2.894531 7.4375 -3.601562 7.4375 -4.5625 Z M 7.4375 -4.5625 "/></g></g><g transform="translate(93.407896, 169.133282)"><g><path d="M 7.03125 0 L 7.03125 -4.9375 C 7.03125 -6.40625 6.570312 -7.140625 5.65625 -7.140625 C 5.132812 -7.140625 4.71875 -6.898438 4.40625 -6.421875 C 4.09375 -5.953125 3.9375 -5.316406 3.9375 -4.515625 L 3.9375 0 L 1.15625 0 L 1.15625 -6.890625 C 1.15625 -7.453125 1.125 -8.171875 1.0625 -9.046875 L 3.75 -9.046875 C 3.75 -8.972656 3.753906 -8.859375 3.765625 -8.703125 C 3.785156 -8.554688 3.800781 -8.394531 3.8125 -8.21875 C 3.820312 -8.039062 3.832031 -7.859375 3.84375 -7.671875 C 3.851562 -7.484375 3.859375 -7.3125 3.859375 -7.15625 L 3.890625 -7.15625 C 4.222656 -7.882812 4.625 -8.410156 5.09375 -8.734375 C 5.570312 -9.066406 6.144531 -9.234375 6.8125 -9.234375 C 7.800781 -9.234375 8.546875 -8.925781 9.046875 -8.3125 C 9.554688 -7.707031 9.8125 -6.796875 9.8125 -5.578125 L 9.8125 0 Z M 7.03125 0 "/></g></g><g transform="translate(104.271112, 169.133282)"><g><path d="M 2.09375 3.984375 C 1.675781 3.984375 1.1875 3.9375 0.625 3.84375 L 0.625 1.875 C 0.695312 1.882812 0.835938 1.898438 1.046875 1.921875 C 1.253906 1.953125 1.414062 1.96875 1.53125 1.96875 C 1.957031 1.96875 2.316406 1.84375 2.609375 1.59375 C 2.898438 1.351562 3.164062 0.957031 3.40625 0.40625 L 3.59375 0 L -0.09375 -9.046875 L 2.84375 -9.046875 L 4.375 -4.40625 C 4.46875 -4.101562 4.671875 -3.378906 4.984375 -2.234375 C 5.054688 -2.503906 5.128906 -2.765625 5.203125 -3.015625 C 5.273438 -3.273438 5.347656 -3.535156 5.421875 -3.796875 L 6.9375 -9.046875 L 9.875 -9.046875 L 6.34375 0.359375 C 6 1.265625 5.632812 1.972656 5.25 2.484375 C 4.875 3.003906 4.441406 3.382812 3.953125 3.625 C 3.460938 3.863281 2.84375 3.984375 2.09375 3.984375 Z M 2.09375 3.984375 "/></g></g><g transform="translate(113.93315, 169.133282)"><g/></g><g transform="translate(118.886917, 169.133282)"><g><path d="M 0.625 -4.484375 C 0.625 -6.015625 0.960938 -7.191406 1.640625 -8.015625 C 2.328125 -8.835938 3.296875 -9.25 4.546875 -9.25 C 6.691406 -9.25 7.929688 -8.1875 8.265625 -6.0625 L 5.53125 -5.84375 C 5.5 -6.3125 5.390625 -6.675781 5.203125 -6.9375 C 5.023438 -7.195312 4.804688 -7.328125 4.546875 -7.328125 C 4.148438 -7.328125 3.863281 -7.109375 3.6875 -6.671875 C 3.507812 -6.234375 3.421875 -5.535156 3.421875 -4.578125 C 3.421875 -3.609375 3.519531 -2.894531 3.71875 -2.4375 C 3.925781 -1.976562 4.203125 -1.75 4.546875 -1.75 C 5.117188 -1.75 5.472656 -2.296875 5.609375 -3.390625 L 8.265625 -3.140625 C 8.140625 -2.046875 7.765625 -1.21875 7.140625 -0.65625 C 6.515625 -0.101562 5.660156 0.171875 4.578125 0.171875 C 3.316406 0.171875 2.34375 -0.238281 1.65625 -1.0625 C 0.96875 -1.882812 0.625 -3.023438 0.625 -4.484375 Z M 0.625 -4.484375 "/></g></g><g transform="translate(127.505595, 169.133282)"><g><path d="M 3.5625 -3.953125 C 3.625 -3.148438 3.785156 -2.554688 4.046875 -2.171875 C 4.304688 -1.785156 4.6875 -1.59375 5.1875 -1.59375 C 5.5 -1.59375 5.773438 -1.691406 6.015625 -1.890625 C 6.265625 -2.097656 6.519531 -2.488281 6.78125 -3.0625 L 8.984375 -2.109375 C 8.554688 -1.441406 8.164062 -0.960938 7.8125 -0.671875 C 7.457031 -0.390625 7.039062 -0.175781 6.5625 -0.03125 C 6.09375 0.101562 5.53125 0.171875 4.875 0.171875 C 3.519531 0.171875 2.476562 -0.234375 1.75 -1.046875 C 1.019531 -1.867188 0.65625 -3.039062 0.65625 -4.5625 C 0.65625 -6.070312 1.019531 -7.226562 1.75 -8.03125 C 2.488281 -8.832031 3.582031 -9.234375 5.03125 -9.234375 C 6.363281 -9.234375 7.375 -8.796875 8.0625 -7.921875 C 8.757812 -7.054688 9.109375 -5.773438 9.109375 -4.078125 L 9.109375 -3.953125 Z M 4.96875 -7.5 C 4.582031 -7.5 4.265625 -7.34375 4.015625 -7.03125 C 3.765625 -6.71875 3.617188 -6.222656 3.578125 -5.546875 L 6.25 -5.546875 C 6.195312 -6.234375 6.070312 -6.726562 5.875 -7.03125 C 5.675781 -7.34375 5.375 -7.5 4.96875 -7.5 Z M 4.96875 -7.5 "/></g></g><g transform="translate(137.220239, 169.133282)"><g><path d="M 7.03125 0 L 7.03125 -4.9375 C 7.03125 -6.40625 6.570312 -7.140625 5.65625 -7.140625 C 5.132812 -7.140625 4.71875 -6.898438 4.40625 -6.421875 C 4.09375 -5.953125 3.9375 -5.316406 3.9375 -4.515625 L 3.9375 0 L 1.15625 0 L 1.15625 -6.890625 C 1.15625 -7.453125 1.125 -8.171875 1.0625 -9.046875 L 3.75 -9.046875 C 3.75 -8.972656 3.753906 -8.859375 3.765625 -8.703125 C 3.785156 -8.554688 3.800781 -8.394531 3.8125 -8.21875 C 3.820312 -8.039062 3.832031 -7.859375 3.84375 -7.671875 C 3.851562 -7.484375 3.859375 -7.3125 3.859375 -7.15625 L 3.890625 -7.15625 C 4.222656 -7.882812 4.625 -8.410156 5.09375 -8.734375 C 5.570312 -9.066406 6.144531 -9.234375 6.8125 -9.234375 C 7.800781 -9.234375 8.546875 -8.925781 9.046875 -8.3125 C 9.554688 -7.707031 9.8125 -6.796875 9.8125 -5.578125 L 9.8125 0 Z M 7.03125 0 "/></g></g><g transform="translate(148.083455, 169.133282)"><g><path d="M 7.5 -2.6875 C 7.5 -1.78125 7.179688 -1.078125 6.546875 -0.578125 C 5.921875 -0.078125 5.0625 0.171875 3.96875 0.171875 C 2.789062 0.171875 1.941406 -0.00390625 1.421875 -0.359375 C 0.910156 -0.710938 0.5625 -1.300781 0.375 -2.125 L 2.703125 -2.46875 C 2.804688 -1.820312 3.207031 -1.5 3.90625 -1.5 C 4.207031 -1.5 4.453125 -1.566406 4.640625 -1.703125 C 4.835938 -1.835938 4.9375 -2.050781 4.9375 -2.34375 C 4.9375 -2.5625 4.878906 -2.742188 4.765625 -2.890625 C 4.660156 -3.046875 4.492188 -3.179688 4.265625 -3.296875 C 4.046875 -3.410156 3.640625 -3.554688 3.046875 -3.734375 C 2.378906 -3.929688 1.898438 -4.140625 1.609375 -4.359375 C 1.316406 -4.578125 1.09375 -4.851562 0.9375 -5.1875 C 0.78125 -5.519531 0.703125 -5.9375 0.703125 -6.4375 C 0.703125 -7.320312 0.988281 -8.007812 1.5625 -8.5 C 2.132812 -8.988281 2.945312 -9.234375 4 -9.234375 C 5.019531 -9.234375 5.785156 -9.050781 6.296875 -8.6875 C 6.816406 -8.320312 7.140625 -7.765625 7.265625 -7.015625 L 4.921875 -6.78125 C 4.878906 -7.050781 4.785156 -7.242188 4.640625 -7.359375 C 4.492188 -7.472656 4.296875 -7.53125 4.046875 -7.53125 C 3.503906 -7.53125 3.234375 -7.28125 3.234375 -6.78125 C 3.234375 -6.507812 3.34375 -6.285156 3.5625 -6.109375 C 3.78125 -5.929688 4.25 -5.742188 4.96875 -5.546875 C 5.695312 -5.335938 6.210938 -5.117188 6.515625 -4.890625 C 6.828125 -4.660156 7.066406 -4.363281 7.234375 -4 C 7.410156 -3.644531 7.5 -3.207031 7.5 -2.6875 Z M 7.5 -2.6875 "/></g></g><g transform="translate(155.98318, 169.133282)"><g><path d="M 3.828125 -9.046875 L 3.828125 -4.109375 C 3.828125 -2.640625 4.285156 -1.90625 5.203125 -1.90625 C 5.710938 -1.90625 6.125 -2.140625 6.4375 -2.609375 C 6.75 -3.085938 6.90625 -3.722656 6.90625 -4.515625 L 6.90625 -9.046875 L 9.703125 -9.046875 L 9.703125 -2.15625 C 9.703125 -1.789062 9.707031 -1.375 9.71875 -0.90625 C 9.738281 -0.4375 9.757812 -0.132812 9.78125 0 L 7.109375 0 C 7.085938 -0.125 7.0625 -0.40625 7.03125 -0.84375 C 7.007812 -1.289062 7 -1.640625 7 -1.890625 L 6.953125 -1.890625 C 6.617188 -1.148438 6.21875 -0.617188 5.75 -0.296875 C 5.28125 0.0234375 4.710938 0.1875 4.046875 0.1875 C 3.054688 0.1875 2.304688 -0.113281 1.796875 -0.71875 C 1.285156 -1.332031 1.03125 -2.25 1.03125 -3.46875 L 1.03125 -9.046875 Z M 3.828125 -9.046875 "/></g></g><g transform="translate(166.846396, 169.133282)"><g><path d="M 7.5 -2.6875 C 7.5 -1.78125 7.179688 -1.078125 6.546875 -0.578125 C 5.921875 -0.078125 5.0625 0.171875 3.96875 0.171875 C 2.789062 0.171875 1.941406 -0.00390625 1.421875 -0.359375 C 0.910156 -0.710938 0.5625 -1.300781 0.375 -2.125 L 2.703125 -2.46875 C 2.804688 -1.820312 3.207031 -1.5 3.90625 -1.5 C 4.207031 -1.5 4.453125 -1.566406 4.640625 -1.703125 C 4.835938 -1.835938 4.9375 -2.050781 4.9375 -2.34375 C 4.9375 -2.5625 4.878906 -2.742188 4.765625 -2.890625 C 4.660156 -3.046875 4.492188 -3.179688 4.265625 -3.296875 C 4.046875 -3.410156 3.640625 -3.554688 3.046875 -3.734375 C 2.378906 -3.929688 1.898438 -4.140625 1.609375 -4.359375 C 1.316406 -4.578125 1.09375 -4.851562 0.9375 -5.1875 C 0.78125 -5.519531 0.703125 -5.9375 0.703125 -6.4375 C 0.703125 -7.320312 0.988281 -8.007812 1.5625 -8.5 C 2.132812 -8.988281 2.945312 -9.234375 4 -9.234375 C 5.019531 -9.234375 5.785156 -9.050781 6.296875 -8.6875 C 6.816406 -8.320312 7.140625 -7.765625 7.265625 -7.015625 L 4.921875 -6.78125 C 4.878906 -7.050781 4.785156 -7.242188 4.640625 -7.359375 C 4.492188 -7.472656 4.296875 -7.53125 4.046875 -7.53125 C 3.503906 -7.53125 3.234375 -7.28125 3.234375 -6.78125 C 3.234375 -6.507812 3.34375 -6.285156 3.5625 -6.109375 C 3.78125 -5.929688 4.25 -5.742188 4.96875 -5.546875 C 5.695312 -5.335938 6.210938 -5.117188 6.515625 -4.890625 C 6.828125 -4.660156 7.066406 -4.363281 7.234375 -4 C 7.410156 -3.644531 7.5 -3.207031 7.5 -2.6875 Z M 7.5 -2.6875 "/></g></g><g transform="translate(174.74612, 169.133282)"><g/></g><g transform="translate(179.699887, 169.133282)"><g><path d="M 3.53125 -4.5 C 3.53125 -3.550781 3.675781 -2.851562 3.96875 -2.40625 C 4.269531 -1.957031 4.71875 -1.734375 5.3125 -1.734375 C 5.914062 -1.734375 6.378906 -1.976562 6.703125 -2.46875 C 7.023438 -2.96875 7.1875 -3.671875 7.1875 -4.578125 C 7.1875 -5.453125 7.03125 -6.125 6.71875 -6.59375 C 6.40625 -7.070312 5.941406 -7.3125 5.328125 -7.3125 C 4.722656 -7.3125 4.269531 -7.085938 3.96875 -6.640625 C 3.675781 -6.191406 3.53125 -5.476562 3.53125 -4.5 Z M 0.625 -4.5 C 0.625 -6.03125 0.945312 -7.195312 1.59375 -8 C 2.238281 -8.8125 3.175781 -9.21875 4.40625 -9.21875 C 5.695312 -9.21875 6.617188 -8.671875 7.171875 -7.578125 L 7.203125 -7.578125 C 7.171875 -8.015625 7.15625 -8.539062 7.15625 -9.15625 L 7.15625 -12.75 L 9.953125 -12.75 L 9.953125 -2.109375 C 9.953125 -1.484375 9.976562 -0.78125 10.03125 0 L 7.296875 0 C 7.265625 -0.0820312 7.234375 -0.300781 7.203125 -0.65625 C 7.171875 -1.019531 7.15625 -1.296875 7.15625 -1.484375 L 7.125 -1.484375 C 6.601562 -0.390625 5.65625 0.15625 4.28125 0.15625 C 3.082031 0.15625 2.171875 -0.238281 1.546875 -1.03125 C 0.929688 -1.832031 0.625 -2.988281 0.625 -4.5 Z M 0.625 -4.5 "/></g></g><g transform="translate(190.817368, 169.133282)"><g><path d="M 4.421875 -1.5625 C 4.847656 -1.5625 5.195312 -1.773438 5.46875 -2.203125 C 5.738281 -2.628906 5.875 -3.144531 5.875 -3.75 L 5.875 -4.234375 L 4.984375 -4.203125 C 4.410156 -4.171875 4.007812 -4.039062 3.78125 -3.8125 C 3.550781 -3.59375 3.4375 -3.265625 3.4375 -2.828125 C 3.4375 -2.429688 3.515625 -2.117188 3.671875 -1.890625 C 3.835938 -1.671875 4.085938 -1.5625 4.421875 -1.5625 Z M 8.625 0 L 5.953125 0 L 5.859375 -1.328125 C 5.585938 -0.785156 5.253906 -0.398438 4.859375 -0.171875 C 4.472656 0.0546875 3.9375 0.171875 3.25 0.171875 C 2.382812 0.171875 1.710938 -0.0664062 1.234375 -0.546875 C 0.765625 -1.035156 0.53125 -1.71875 0.53125 -2.59375 C 0.53125 -4.46875 1.703125 -5.4375 4.046875 -5.5 L 5.859375 -5.5625 L 5.859375 -6.015625 C 5.859375 -6.578125 5.785156 -6.988281 5.640625 -7.25 C 5.492188 -7.507812 5.253906 -7.640625 4.921875 -7.640625 C 4.609375 -7.640625 4.367188 -7.554688 4.203125 -7.390625 C 4.046875 -7.222656 3.929688 -6.953125 3.859375 -6.578125 L 1.171875 -6.921875 C 1.367188 -7.742188 1.773438 -8.332031 2.390625 -8.6875 C 3.015625 -9.050781 3.875 -9.234375 4.96875 -9.234375 C 6.15625 -9.234375 7.0625 -8.953125 7.6875 -8.390625 C 8.3125 -7.835938 8.625 -7.015625 8.625 -5.921875 Z M 8.625 0 "/></g></g><g transform="translate(200.479406, 169.133282)"><g><path d="M 4.0625 0.171875 C 3.269531 0.171875 2.648438 -0.0546875 2.203125 -0.515625 C 1.765625 -0.972656 1.546875 -1.609375 1.546875 -2.421875 L 1.546875 -7.15625 L 0.28125 -7.15625 L 0.28125 -9.046875 L 1.609375 -9.046875 L 2.46875 -11.3125 L 4.3125 -11.3125 L 4.3125 -9.046875 L 6.421875 -9.046875 L 6.421875 -7.15625 L 4.3125 -7.15625 L 4.3125 -3.109375 C 4.3125 -2.210938 4.679688 -1.765625 5.421875 -1.765625 C 5.796875 -1.765625 6.160156 -1.800781 6.515625 -1.875 L 6.515625 -0.140625 C 5.953125 -0.00390625 5.492188 0.078125 5.140625 0.109375 C 4.785156 0.148438 4.425781 0.171875 4.0625 0.171875 Z M 4.0625 0.171875 "/></g></g><g transform="translate(207.467286, 169.133282)"><g><path d="M 4.421875 -1.5625 C 4.847656 -1.5625 5.195312 -1.773438 5.46875 -2.203125 C 5.738281 -2.628906 5.875 -3.144531 5.875 -3.75 L 5.875 -4.234375 L 4.984375 -4.203125 C 4.410156 -4.171875 4.007812 -4.039062 3.78125 -3.8125 C 3.550781 -3.59375 3.4375 -3.265625 3.4375 -2.828125 C 3.4375 -2.429688 3.515625 -2.117188 3.671875 -1.890625 C 3.835938 -1.671875 4.085938 -1.5625 4.421875 -1.5625 Z M 8.625 0 L 5.953125 0 L 5.859375 -1.328125 C 5.585938 -0.785156 5.253906 -0.398438 4.859375 -0.171875 C 4.472656 0.0546875 3.9375 0.171875 3.25 0.171875 C 2.382812 0.171875 1.710938 -0.0664062 1.234375 -0.546875 C 0.765625 -1.035156 0.53125 -1.71875 0.53125 -2.59375 C 0.53125 -4.46875 1.703125 -5.4375 4.046875 -5.5 L 5.859375 -5.5625 L 5.859375 -6.015625 C 5.859375 -6.578125 5.785156 -6.988281 5.640625 -7.25 C 5.492188 -7.507812 5.253906 -7.640625 4.921875 -7.640625 C 4.609375 -7.640625 4.367188 -7.554688 4.203125 -7.390625 C 4.046875 -7.222656 3.929688 -6.953125 3.859375 -6.578125 L 1.171875 -6.921875 C 1.367188 -7.742188 1.773438 -8.332031 2.390625 -8.6875 C 3.015625 -9.050781 3.875 -9.234375 4.96875 -9.234375 C 6.15625 -9.234375 7.0625 -8.953125 7.6875 -8.390625 C 8.3125 -7.835938 8.625 -7.015625 8.625 -5.921875 Z M 8.625 0 "/></g></g></g><g clip-path="url(#10f126be8a)"><g clip-path="url(#fc2483284d)"><path stroke-linecap="butt" transform="matrix(0.74818, 0, 0, 0.74818, 131.802446, 50.921309)" fill="none" stroke-linejoin="miter" d="M 64.994079 0.000756431 C 29.099662 0.000756431 -0.00222524 22.216137 -0.00222524 49.615977 C -0.00222524 77.021038 29.099662 99.236418 64.994079 99.236418 C 100.893717 99.236418 129.990383 77.021038 129.990383 49.615977 C 129.990383 22.216137 100.893717 0.000756431 64.994079 0.000756431 Z M 64.994079 0.000756431 " stroke="#9b0e34" stroke-width="8" stroke-opacity="1" stroke-miterlimit="4"/></g></g><g fill="#000000" fill-opacity="1"><g transform="translate(155.481118, 105.097805)"><g><path d="M 18.59375 -8.34375 L 22.109375 -25.203125 L 26.9375 -25.203125 L 21.6875 0 L 16.828125 0 L 10.03125 -16.9375 L 6.484375 0 L 1.65625 0 L 6.9375 -25.203125 L 11.765625 -25.203125 Z M 18.59375 -8.34375 "/></g></g></g><g fill="#000000" fill-opacity="1"><g transform="translate(180.051129, 108.738466)"><g><path d="M 8.546875 -17.03125 C 9.523438 -17.03125 10.375 -16.835938 11.09375 -16.453125 C 11.8125 -16.066406 12.363281 -15.535156 12.75 -14.859375 C 13.144531 -14.191406 13.34375 -13.421875 13.34375 -12.546875 C 13.34375 -11.554688 13.03125 -10.722656 12.40625 -10.046875 C 11.789062 -9.367188 11.128906 -8.910156 10.421875 -8.671875 C 11.160156 -8.253906 11.691406 -7.742188 12.015625 -7.140625 C 12.335938 -6.546875 12.5 -5.941406 12.5 -5.328125 C 12.5 -4.398438 12.238281 -3.503906 11.71875 -2.640625 C 11.195312 -1.773438 10.476562 -1.070312 9.5625 -0.53125 C 8.65625 0 7.640625 0.265625 6.515625 0.265625 C 5.054688 0.265625 3.863281 -0.140625 2.9375 -0.953125 C 2.019531 -1.765625 1.457031 -2.921875 1.25 -4.421875 L 4.421875 -4.8125 C 4.554688 -3.988281 4.785156 -3.382812 5.109375 -3 C 5.429688 -2.613281 5.898438 -2.421875 6.515625 -2.421875 C 7.285156 -2.421875 7.921875 -2.679688 8.421875 -3.203125 C 8.921875 -3.722656 9.171875 -4.367188 9.171875 -5.140625 C 9.171875 -5.847656 8.960938 -6.40625 8.546875 -6.8125 C 8.140625 -7.21875 7.601562 -7.421875 6.9375 -7.421875 L 6.390625 -7.34375 L 6.96875 -10.109375 C 7.0625 -10.097656 7.191406 -10.09375 7.359375 -10.09375 C 8.179688 -10.09375 8.828125 -10.304688 9.296875 -10.734375 C 9.765625 -11.171875 10 -11.796875 10 -12.609375 C 10 -13.160156 9.84375 -13.585938 9.53125 -13.890625 C 9.226562 -14.203125 8.820312 -14.359375 8.3125 -14.359375 C 7.8125 -14.359375 7.378906 -14.175781 7.015625 -13.8125 C 6.648438 -13.445312 6.359375 -12.851562 6.140625 -12.03125 L 3.109375 -12.65625 C 3.578125 -14.125 4.269531 -15.21875 5.1875 -15.9375 C 6.113281 -16.664062 7.234375 -17.03125 8.546875 -17.03125 Z M 8.546875 -17.03125 "/></g></g></g><g fill="#000000" fill-opacity="1"><g transform="translate(193.219755, 108.738466)"><g><path d="M 7.21875 -12.265625 L 9.265625 -12.265625 L 8.734375 -9.859375 L 6.703125 -9.859375 L 5.609375 -4.53125 C 5.453125 -3.832031 5.375 -3.347656 5.375 -3.078125 C 5.375 -2.796875 5.457031 -2.585938 5.625 -2.453125 C 5.800781 -2.316406 6.082031 -2.25 6.46875 -2.25 C 6.71875 -2.25 7.082031 -2.28125 7.5625 -2.34375 L 7.03125 0.125 C 6.632812 0.21875 6.078125 0.265625 5.359375 0.265625 C 3.066406 0.265625 1.921875 -0.570312 1.921875 -2.25 C 1.921875 -2.582031 2.003906 -3.210938 2.171875 -4.140625 L 2.296875 -4.6875 L 3.390625 -9.859375 L 1.78125 -9.859375 L 2.296875 -12.265625 L 3.90625 -12.265625 L 4.3125 -14.234375 L 8.09375 -16.53125 Z M 7.21875 -12.265625 "/></g></g></g><g fill="#000000" fill-opacity="1"><g transform="translate(201.106716, 108.738466)"><g><path d="M 8.5 -12.546875 C 9.9375 -12.546875 11.085938 -12.171875 11.953125 -11.421875 C 12.828125 -10.671875 13.320312 -9.679688 13.4375 -8.453125 L 10.25 -8.125 C 10.144531 -9.40625 9.492188 -10.046875 8.296875 -10.046875 C 7.597656 -10.046875 6.984375 -9.785156 6.453125 -9.265625 C 5.921875 -8.753906 5.507812 -8.082031 5.21875 -7.25 C 4.925781 -6.425781 4.78125 -5.554688 4.78125 -4.640625 C 4.78125 -3.878906 4.945312 -3.300781 5.28125 -2.90625 C 5.625 -2.519531 6.070312 -2.328125 6.625 -2.328125 C 7.1875 -2.328125 7.707031 -2.519531 8.1875 -2.90625 C 8.664062 -3.300781 9.039062 -3.878906 9.3125 -4.640625 L 12.546875 -4.09375 C 12.023438 -2.6875 11.25 -1.601562 10.21875 -0.84375 C 9.195312 -0.09375 7.992188 0.28125 6.609375 0.28125 C 4.992188 0.28125 3.726562 -0.191406 2.8125 -1.140625 C 1.894531 -2.085938 1.4375 -3.34375 1.4375 -4.90625 C 1.4375 -6.375 1.738281 -7.6875 2.34375 -8.84375 C 2.945312 -10.007812 3.78125 -10.914062 4.84375 -11.5625 C 5.90625 -12.21875 7.125 -12.546875 8.5 -12.546875 Z M 8.5 -12.546875 "/></g></g></g><g fill="#000000" fill-opacity="1"><g transform="translate(162.700962, 86.180064)"><g><path d="M 15.875 -9.390625 L 12.046875 -9.390625 L 9.359375 -16.015625 L 6.6875 -9.390625 L 2.796875 -9.390625 L 7.90625 -20.21875 L 10.90625 -20.21875 Z M 15.875 -9.390625 "/></g></g></g><path stroke-linecap="round" transform="matrix(-0.604847, 0.440378, -0.440378, -0.604847, 131.659679, 107.876482)" fill="none" stroke-linejoin="miter" d="M 1.497252 1.499441 L 52.57429 1.501139 " stroke="#000000" stroke-width="3" stroke-opacity="1" stroke-miterlimit="4"/><path stroke-linecap="round" transform="matrix(-0.604847, 0.440378, -0.440378, -0.604847, 131.659679, 107.876482)" fill-opacity="1" fill="#000000" fill-rule="nonzero" stroke-linejoin="round" d="M 54.074862 -2.999163 L 60.074455 1.498199 L 54.07816 5.999576 Z M 54.074862 -2.999163 " stroke="#000000" stroke-width="3" stroke-opacity="1" stroke-miterlimit="4"/></svg>