<svg xmlns="http://www.w3.org/2000/svg" xmlns:xlink="http://www.w3.org/1999/xlink" width="1039" zoomAndPan="magnify" viewBox="0 0 779.25 467.249995" height="623" preserveAspectRatio="xMidYMid meet" version="1.0"><defs><g/><clipPath id="b2cd8d84a1"><path d="M 38.328125 0 L 623.882812 0 L 623.882812 466.253906 L 38.328125 466.253906 Z M 38.328125 0 " clip-rule="nonzero"/></clipPath><clipPath id="aab30154e5"><path d="M 48.0625 0 L 613.988281 0 C 616.570312 0 619.046875 1.027344 620.871094 2.851562 C 622.695312 4.675781 623.722656 7.152344 623.722656 9.734375 L 623.722656 456.496094 C 623.722656 459.078125 622.695312 461.554688 620.871094 463.382812 C 619.046875 465.207031 616.570312 466.230469 613.988281 466.230469 L 48.0625 466.230469 C 45.480469 466.230469 43.003906 465.207031 41.179688 463.382812 C 39.355469 461.554688 38.328125 459.078125 38.328125 456.496094 L 38.328125 9.734375 C 38.328125 7.152344 39.355469 4.675781 41.179688 2.851562 C 43.003906 1.027344 45.480469 0 48.0625 0 Z M 48.0625 0 " clip-rule="nonzero"/></clipPath><clipPath id="600f7be475"><path d="M 72.84375 339.625 L 187.410156 339.625 L 187.410156 456.4375 L 72.84375 456.4375 Z M 72.84375 339.625 " clip-rule="nonzero"/></clipPath><clipPath id="b4a42bda9f"><path d="M 130.226562 339.625 C 98.535156 339.625 72.84375 365.710938 72.84375 397.890625 C 72.84375 430.070312 98.535156 456.15625 130.226562 456.15625 C 161.917969 456.15625 187.605469 430.070312 187.605469 397.890625 C 187.605469 365.710938 161.917969 339.625 130.226562 339.625 Z M 130.226562 339.625 " clip-rule="nonzero"/></clipPath><clipPath id="7dce3338b3"><path d="M 0.25 362 L 79 362 L 79 401 L 0.25 401 Z M 0.25 362 " clip-rule="nonzero"/></clipPath><clipPath id="90c4c29b27"><path d="M 253.953125 114.046875 L 355.789062 114.046875 L 355.789062 176.195312 L 253.953125 176.195312 Z M 253.953125 114.046875 " clip-rule="nonzero"/></clipPath><clipPath id="85b0743812"><path d="M 304.800781 114.046875 C 276.71875 114.046875 253.953125 127.992188 253.953125 145.191406 C 253.953125 162.390625 276.71875 176.335938 304.800781 176.335938 C 332.882812 176.335938 355.648438 162.390625 355.648438 145.191406 C 355.648438 127.992188 332.882812 114.046875 304.800781 114.046875 Z M 304.800781 114.046875 " clip-rule="nonzero"/></clipPath><clipPath id="bd8390b4fa"><path d="M 253.953125 179.5625 L 355.789062 179.5625 L 355.789062 241.714844 L 253.953125 241.714844 Z M 253.953125 179.5625 " clip-rule="nonzero"/></clipPath><clipPath id="b90a6a37bb"><path d="M 304.800781 179.5625 C 276.71875 179.5625 253.953125 193.507812 253.953125 210.707031 C 253.953125 227.910156 276.71875 241.851562 304.800781 241.851562 C 332.882812 241.851562 355.648438 227.910156 355.648438 210.707031 C 355.648438 193.507812 332.882812 179.5625 304.800781 179.5625 Z M 304.800781 179.5625 " clip-rule="nonzero"/></clipPath><clipPath id="1011f1950f"><path d="M 254.316406 243.363281 L 356.152344 243.363281 L 356.152344 305.511719 L 254.316406 305.511719 Z M 254.316406 243.363281 " clip-rule="nonzero"/></clipPath><clipPath id="a7852613c5"><path d="M 305.164062 243.363281 C 277.082031 243.363281 254.316406 257.304688 254.316406 274.507812 C 254.316406 291.707031 277.082031 305.652344 305.164062 305.652344 C 333.246094 305.652344 356.011719 291.707031 356.011719 274.507812 C 356.011719 257.304688 333.246094 243.363281 305.164062 243.363281 Z M 305.164062 243.363281 " clip-rule="nonzero"/></clipPath><clipPath id="0d4e762d71"><path d="M 488.578125 173.308594 L 594.90625 173.308594 L 594.90625 244.441406 L 488.578125 244.441406 Z M 488.578125 173.308594 " clip-rule="nonzero"/></clipPath><clipPath id="04bb1ae8b3"><path d="M 541.621094 173.308594 C 512.328125 173.308594 488.578125 189.277344 488.578125 208.972656 C 488.578125 228.671875 512.328125 244.640625 541.621094 244.640625 C 570.917969 244.640625 594.664062 228.671875 594.664062 208.972656 C 594.664062 189.277344 570.917969 173.308594 541.621094 173.308594 Z M 541.621094 173.308594 " clip-rule="nonzero"/></clipPath></defs><g clip-path="url(#b2cd8d84a1)"><g clip-path="url(#aab30154e5)"><path stroke-linecap="butt" transform="matrix(0.748798, 0, 0, 0.748798, 38.328644, 0.00000998397)" fill="none" stroke-linejoin="miter" d="M 12.999308 -0.0000133333 L 768.778289 -0.0000133333 C 772.226524 -0.0000133333 775.533908 1.371977 777.970104 3.808173 C 780.4063 6.244369 781.778291 9.551753 781.778291 12.999988 L 781.778291 609.638501 C 781.778291 613.086736 780.4063 616.39412 777.970104 618.835533 C 775.533908 621.271729 772.226524 622.638503 768.778289 622.638503 L 12.999308 622.638503 C 9.551073 622.638503 6.243689 621.271729 3.807493 618.835533 C 1.371297 616.39412 -0.000693355 613.086736 -0.000693355 609.638501 L -0.000693355 12.999988 C -0.000693355 9.551753 1.371297 6.244369 3.807493 3.808173 C 6.243689 1.371977 9.551073 -0.0000133333 12.999308 -0.0000133333 Z M 12.999308 -0.0000133333 " stroke="#60941a" stroke-width="8" stroke-opacity="1" stroke-miterlimit="4"/></g></g><path fill="#ffffff" d="M 559.210938 154.789062 L 559.210938 115.328125 C 559.210938 110.21875 563.347656 106.082031 568.457031 106.082031 L 703.019531 106.082031 C 708.125 106.082031 712.265625 110.21875 712.265625 115.328125 L 712.265625 117.800781 C 712.265625 122.90625 716.40625 127.046875 721.511719 127.046875 L 739.265625 127.046875 C 744.371094 127.046875 748.511719 131.1875 748.511719 136.292969 L 748.511719 154.789062 C 748.511719 159.894531 744.371094 164.035156 739.265625 164.035156 L 568.457031 164.035156 C 563.347656 164.035156 559.210938 159.894531 559.210938 154.789062 Z M 559.210938 154.789062 " fill-opacity="1" fill-rule="nonzero"/><g fill="#60941a" fill-opacity="1"><g transform="translate(567.743094, 132.811035)"><g><path d="M 9.15625 -10.015625 C 9.15625 -10.710938 8.945312 -11.257812 8.53125 -11.65625 C 8.125 -12.050781 7.503906 -12.25 6.671875 -12.25 L 5.125 -12.25 L 5.125 -7.671875 L 6.765625 -7.671875 C 7.535156 -7.671875 8.125 -7.875 8.53125 -8.28125 C 8.945312 -8.6875 9.15625 -9.265625 9.15625 -10.015625 Z M 12.640625 -10.03125 C 12.640625 -9.082031 12.425781 -8.242188 12 -7.515625 C 11.570312 -6.796875 10.945312 -6.238281 10.125 -5.84375 C 9.300781 -5.445312 8.316406 -5.25 7.171875 -5.25 L 5.125 -5.25 L 5.125 0 L 1.640625 0 L 1.640625 -14.671875 L 7.0625 -14.671875 C 8.863281 -14.671875 10.242188 -14.269531 11.203125 -13.46875 C 12.160156 -12.675781 12.640625 -11.53125 12.640625 -10.03125 Z M 12.640625 -10.03125 "/></g></g></g><g fill="#60941a" fill-opacity="1"><g transform="translate(580.844627, 132.811035)"><g><path d="M 15.1875 -7.40625 C 15.1875 -5 14.566406 -3.128906 13.328125 -1.796875 C 12.085938 -0.460938 10.335938 0.203125 8.078125 0.203125 C 5.785156 0.203125 4.03125 -0.453125 2.8125 -1.765625 C 1.59375 -3.078125 0.984375 -4.957031 0.984375 -7.40625 C 0.984375 -9.820312 1.59375 -11.671875 2.8125 -12.953125 C 4.03125 -14.242188 5.789062 -14.890625 8.09375 -14.890625 C 10.382812 -14.890625 12.140625 -14.242188 13.359375 -12.953125 C 14.578125 -11.671875 15.1875 -9.820312 15.1875 -7.40625 Z M 11.671875 -7.40625 C 11.671875 -10.582031 10.476562 -12.171875 8.09375 -12.171875 C 6.894531 -12.171875 5.992188 -11.785156 5.390625 -11.015625 C 4.796875 -10.242188 4.5 -9.039062 4.5 -7.40625 C 4.5 -4.132812 5.691406 -2.5 8.078125 -2.5 C 9.296875 -2.5 10.195312 -2.890625 10.78125 -3.671875 C 11.375 -4.460938 11.671875 -5.707031 11.671875 -7.40625 Z M 11.671875 -7.40625 "/></g></g></g><g fill="#60941a" fill-opacity="1"><g transform="translate(597.018463, 132.811035)"><g><path d="M 9.15625 -10.015625 C 9.15625 -10.710938 8.945312 -11.257812 8.53125 -11.65625 C 8.125 -12.050781 7.503906 -12.25 6.671875 -12.25 L 5.125 -12.25 L 5.125 -7.671875 L 6.765625 -7.671875 C 7.535156 -7.671875 8.125 -7.875 8.53125 -8.28125 C 8.945312 -8.6875 9.15625 -9.265625 9.15625 -10.015625 Z M 12.640625 -10.03125 C 12.640625 -9.082031 12.425781 -8.242188 12 -7.515625 C 11.570312 -6.796875 10.945312 -6.238281 10.125 -5.84375 C 9.300781 -5.445312 8.316406 -5.25 7.171875 -5.25 L 5.125 -5.25 L 5.125 0 L 1.640625 0 L 1.640625 -14.671875 L 7.0625 -14.671875 C 8.863281 -14.671875 10.242188 -14.269531 11.203125 -13.46875 C 12.160156 -12.675781 12.640625 -11.53125 12.640625 -10.03125 Z M 12.640625 -10.03125 "/></g></g></g><g fill="#60941a" fill-opacity="1"><g transform="translate(610.119995, 132.811035)"><g><path d="M 13.90625 -5.703125 C 13.90625 -3.753906 13.378906 -2.28125 12.328125 -1.28125 C 11.273438 -0.289062 9.71875 0.203125 7.65625 0.203125 C 5.625 0.203125 4.09375 -0.28125 3.0625 -1.25 C 2.03125 -2.21875 1.515625 -3.660156 1.515625 -5.578125 L 1.515625 -14.671875 L 5 -14.671875 L 5 -5.796875 C 5 -4.640625 5.234375 -3.800781 5.703125 -3.28125 C 6.179688 -2.757812 6.867188 -2.5 7.765625 -2.5 C 8.679688 -2.5 9.351562 -2.769531 9.78125 -3.3125 C 10.21875 -3.863281 10.4375 -4.734375 10.4375 -5.921875 L 10.4375 -14.671875 L 13.90625 -14.671875 Z M 13.90625 -5.703125 "/></g></g></g><g fill="#60941a" fill-opacity="1"><g transform="translate(625.543982, 132.811035)"><g><path d="M 1.640625 0 L 1.640625 -14.671875 L 5.140625 -14.671875 L 5.140625 -2.703125 L 10.546875 -2.703125 L 10.546875 0 Z M 1.640625 0 "/></g></g></g><g fill="#60941a" fill-opacity="1"><g transform="translate(636.448045, 132.811035)"><g><path d="M 11.34375 0 L 10.140625 -3.546875 L 4.796875 -3.546875 L 3.609375 0 L 0.171875 0 L 5.4375 -14.671875 L 9.515625 -14.671875 L 14.78125 0 Z M 7.453125 -12.171875 C 7.296875 -11.484375 7.109375 -10.796875 6.890625 -10.109375 L 5.546875 -6.109375 L 9.421875 -6.109375 L 8.078125 -10.109375 C 7.859375 -10.796875 7.664062 -11.484375 7.5 -12.171875 Z M 7.453125 -12.171875 "/></g></g></g><g fill="#60941a" fill-opacity="1"><g transform="translate(651.445029, 132.811035)"><g><path d="M 7.984375 -11.921875 L 7.984375 0 L 4.515625 0 L 4.515625 -11.921875 L 0.296875 -11.921875 L 0.296875 -14.671875 L 12.1875 -14.671875 L 12.1875 -11.921875 Z M 7.984375 -11.921875 "/></g></g></g><g fill="#60941a" fill-opacity="1"><g transform="translate(663.942516, 132.811035)"><g><path d="M 1.640625 0 L 1.640625 -14.671875 L 5.140625 -14.671875 L 5.140625 0 Z M 1.640625 0 "/></g></g></g><g fill="#60941a" fill-opacity="1"><g transform="translate(670.701579, 132.811035)"><g><path d="M 15.1875 -7.40625 C 15.1875 -5 14.566406 -3.128906 13.328125 -1.796875 C 12.085938 -0.460938 10.335938 0.203125 8.078125 0.203125 C 5.785156 0.203125 4.03125 -0.453125 2.8125 -1.765625 C 1.59375 -3.078125 0.984375 -4.957031 0.984375 -7.40625 C 0.984375 -9.820312 1.59375 -11.671875 2.8125 -12.953125 C 4.03125 -14.242188 5.789062 -14.890625 8.09375 -14.890625 C 10.382812 -14.890625 12.140625 -14.242188 13.359375 -12.953125 C 14.578125 -11.671875 15.1875 -9.820312 15.1875 -7.40625 Z M 11.671875 -7.40625 C 11.671875 -10.582031 10.476562 -12.171875 8.09375 -12.171875 C 6.894531 -12.171875 5.992188 -11.785156 5.390625 -11.015625 C 4.796875 -10.242188 4.5 -9.039062 4.5 -7.40625 C 4.5 -4.132812 5.691406 -2.5 8.078125 -2.5 C 9.296875 -2.5 10.195312 -2.890625 10.78125 -3.671875 C 11.375 -4.460938 11.671875 -5.707031 11.671875 -7.40625 Z M 11.671875 -7.40625 "/></g></g></g><g fill="#60941a" fill-opacity="1"><g transform="translate(686.875415, 132.811035)"><g><path d="M 10.984375 0 L 4.640625 -10.9375 C 4.703125 -9.519531 4.734375 -8.628906 4.734375 -8.265625 L 4.734375 0 L 1.640625 0 L 1.640625 -14.671875 L 5.796875 -14.671875 L 12.25 -3.640625 C 12.226562 -3.941406 12.203125 -4.320312 12.171875 -4.78125 C 12.140625 -5.25 12.125 -5.835938 12.125 -6.546875 L 12.125 -14.671875 L 15.203125 -14.671875 L 15.203125 0 Z M 10.984375 0 "/></g></g></g><g fill="#60941a" fill-opacity="1"><g transform="translate(567.743094, 153.77738)"><g><path d="M 9.15625 -10.015625 C 9.15625 -10.710938 8.945312 -11.257812 8.53125 -11.65625 C 8.125 -12.050781 7.503906 -12.25 6.671875 -12.25 L 5.125 -12.25 L 5.125 -7.671875 L 6.765625 -7.671875 C 7.535156 -7.671875 8.125 -7.875 8.53125 -8.28125 C 8.945312 -8.6875 9.15625 -9.265625 9.15625 -10.015625 Z M 12.640625 -10.03125 C 12.640625 -9.082031 12.425781 -8.242188 12 -7.515625 C 11.570312 -6.796875 10.945312 -6.238281 10.125 -5.84375 C 9.300781 -5.445312 8.316406 -5.25 7.171875 -5.25 L 5.125 -5.25 L 5.125 0 L 1.640625 0 L 1.640625 -14.671875 L 7.0625 -14.671875 C 8.863281 -14.671875 10.242188 -14.269531 11.203125 -13.46875 C 12.160156 -12.675781 12.640625 -11.53125 12.640625 -10.03125 Z M 12.640625 -10.03125 "/></g></g></g><g fill="#60941a" fill-opacity="1"><g transform="translate(580.844627, 153.77738)"><g><path d="M 9.578125 -10.21875 C 9.578125 -10.863281 9.363281 -11.363281 8.9375 -11.71875 C 8.519531 -12.070312 7.910156 -12.25 7.109375 -12.25 L 5.125 -12.25 L 5.125 -8.078125 L 7.203125 -8.078125 C 7.941406 -8.078125 8.519531 -8.265625 8.9375 -8.640625 C 9.363281 -9.023438 9.578125 -9.550781 9.578125 -10.21875 Z M 13.0625 -10.234375 C 13.0625 -9.203125 12.789062 -8.332031 12.25 -7.625 C 11.707031 -6.914062 10.941406 -6.398438 9.953125 -6.078125 L 13.84375 0 L 9.953125 0 L 6.703125 -5.671875 L 5.125 -5.671875 L 5.125 0 L 1.640625 0 L 1.640625 -14.671875 L 7.484375 -14.671875 C 9.285156 -14.671875 10.664062 -14.285156 11.625 -13.515625 C 12.582031 -12.753906 13.0625 -11.660156 13.0625 -10.234375 Z M 13.0625 -10.234375 "/></g></g></g><g fill="#60941a" fill-opacity="1"><g transform="translate(594.768915, 153.77738)"><g><path d="M 15.1875 -7.40625 C 15.1875 -5 14.566406 -3.128906 13.328125 -1.796875 C 12.085938 -0.460938 10.335938 0.203125 8.078125 0.203125 C 5.785156 0.203125 4.03125 -0.453125 2.8125 -1.765625 C 1.59375 -3.078125 0.984375 -4.957031 0.984375 -7.40625 C 0.984375 -9.820312 1.59375 -11.671875 2.8125 -12.953125 C 4.03125 -14.242188 5.789062 -14.890625 8.09375 -14.890625 C 10.382812 -14.890625 12.140625 -14.242188 13.359375 -12.953125 C 14.578125 -11.671875 15.1875 -9.820312 15.1875 -7.40625 Z M 11.671875 -7.40625 C 11.671875 -10.582031 10.476562 -12.171875 8.09375 -12.171875 C 6.894531 -12.171875 5.992188 -11.785156 5.390625 -11.015625 C 4.796875 -10.242188 4.5 -9.039062 4.5 -7.40625 C 4.5 -4.132812 5.691406 -2.5 8.078125 -2.5 C 9.296875 -2.5 10.195312 -2.890625 10.78125 -3.671875 C 11.375 -4.460938 11.671875 -5.707031 11.671875 -7.40625 Z M 11.671875 -7.40625 "/></g></g></g><g fill="#60941a" fill-opacity="1"><g transform="translate(610.942752, 153.77738)"><g><path d="M 7.265625 0.203125 C 5.265625 0.203125 3.71875 -0.457031 2.625 -1.78125 C 1.53125 -3.113281 0.984375 -4.988281 0.984375 -7.40625 C 0.984375 -9.820312 1.507812 -11.671875 2.5625 -12.953125 C 3.625 -14.242188 5.164062 -14.890625 7.1875 -14.890625 C 8.5625 -14.890625 9.703125 -14.570312 10.609375 -13.9375 C 11.515625 -13.3125 12.238281 -12.269531 12.78125 -10.8125 L 9.796875 -9.8125 C 9.566406 -10.582031 9.238281 -11.164062 8.8125 -11.5625 C 8.382812 -11.96875 7.878906 -12.171875 7.296875 -12.171875 C 6.378906 -12.171875 5.679688 -11.769531 5.203125 -10.96875 C 4.734375 -10.164062 4.5 -8.976562 4.5 -7.40625 C 4.5 -5.851562 4.734375 -4.644531 5.203125 -3.78125 C 5.679688 -2.925781 6.367188 -2.5 7.265625 -2.5 C 7.796875 -2.5 8.265625 -2.703125 8.671875 -3.109375 C 9.078125 -3.515625 9.429688 -4.175781 9.734375 -5.09375 L 12.84375 -3.984375 C 12.269531 -2.503906 11.523438 -1.4375 10.609375 -0.78125 C 9.703125 -0.125 8.585938 0.203125 7.265625 0.203125 Z M 7.265625 0.203125 "/></g></g></g><g fill="#60941a" fill-opacity="1"><g transform="translate(624.252575, 153.77738)"><g><path d="M 1.640625 0 L 1.640625 -14.671875 L 10.359375 -14.671875 L 10.359375 -11.9375 L 5.140625 -11.9375 L 5.140625 -8.75 L 9.703125 -8.75 L 9.703125 -6.109375 L 5.140625 -6.109375 L 5.140625 -2.703125 L 10.78125 -2.703125 L 10.78125 0 Z M 1.640625 0 "/></g></g></g><g fill="#60941a" fill-opacity="1"><g transform="translate(635.604459, 153.77738)"><g><path d="M 11.375 -4.296875 C 11.375 -2.847656 10.898438 -1.734375 9.953125 -0.953125 C 9.015625 -0.179688 7.65625 0.203125 5.875 0.203125 C 4.320312 0.203125 3.09375 -0.128906 2.1875 -0.796875 C 1.28125 -1.460938 0.695312 -2.515625 0.4375 -3.953125 L 3.671875 -4.453125 C 3.773438 -3.785156 4.035156 -3.269531 4.453125 -2.90625 C 4.878906 -2.539062 5.429688 -2.359375 6.109375 -2.359375 C 7.398438 -2.359375 8.046875 -2.9375 8.046875 -4.09375 C 8.046875 -4.457031 7.957031 -4.753906 7.78125 -4.984375 C 7.601562 -5.210938 7.367188 -5.40625 7.078125 -5.5625 C 6.796875 -5.71875 6.46875 -5.847656 6.09375 -5.953125 C 5.726562 -6.054688 5.351562 -6.160156 4.96875 -6.265625 C 4.15625 -6.492188 3.570312 -6.6875 3.21875 -6.84375 C 2.863281 -7.007812 2.546875 -7.203125 2.265625 -7.421875 C 1.984375 -7.640625 1.738281 -7.898438 1.53125 -8.203125 C 1.332031 -8.515625 1.175781 -8.878906 1.0625 -9.296875 C 0.957031 -9.710938 0.90625 -10.1875 0.90625 -10.71875 C 0.90625 -12.050781 1.34375 -13.078125 2.21875 -13.796875 C 3.09375 -14.523438 4.328125 -14.890625 5.921875 -14.890625 C 7.421875 -14.890625 8.5625 -14.597656 9.34375 -14.015625 C 10.132812 -13.429688 10.675781 -12.460938 10.96875 -11.109375 L 7.65625 -10.703125 C 7.582031 -11.253906 7.390625 -11.679688 7.078125 -11.984375 C 6.765625 -12.296875 6.367188 -12.453125 5.890625 -12.453125 C 5.398438 -12.453125 5.003906 -12.304688 4.703125 -12.015625 C 4.410156 -11.734375 4.265625 -11.367188 4.265625 -10.921875 C 4.265625 -10.503906 4.398438 -10.160156 4.671875 -9.890625 C 4.941406 -9.617188 5.363281 -9.398438 5.9375 -9.234375 L 8.046875 -8.609375 C 9.242188 -8.253906 10.097656 -7.734375 10.609375 -7.046875 C 11.117188 -6.359375 11.375 -5.441406 11.375 -4.296875 Z M 11.375 -4.296875 "/></g></g></g><g fill="#60941a" fill-opacity="1"><g transform="translate(647.560388, 153.77738)"><g><path d="M 11.375 -4.296875 C 11.375 -2.847656 10.898438 -1.734375 9.953125 -0.953125 C 9.015625 -0.179688 7.65625 0.203125 5.875 0.203125 C 4.320312 0.203125 3.09375 -0.128906 2.1875 -0.796875 C 1.28125 -1.460938 0.695312 -2.515625 0.4375 -3.953125 L 3.671875 -4.453125 C 3.773438 -3.785156 4.035156 -3.269531 4.453125 -2.90625 C 4.878906 -2.539062 5.429688 -2.359375 6.109375 -2.359375 C 7.398438 -2.359375 8.046875 -2.9375 8.046875 -4.09375 C 8.046875 -4.457031 7.957031 -4.753906 7.78125 -4.984375 C 7.601562 -5.210938 7.367188 -5.40625 7.078125 -5.5625 C 6.796875 -5.71875 6.46875 -5.847656 6.09375 -5.953125 C 5.726562 -6.054688 5.351562 -6.160156 4.96875 -6.265625 C 4.15625 -6.492188 3.570312 -6.6875 3.21875 -6.84375 C 2.863281 -7.007812 2.546875 -7.203125 2.265625 -7.421875 C 1.984375 -7.640625 1.738281 -7.898438 1.53125 -8.203125 C 1.332031 -8.515625 1.175781 -8.878906 1.0625 -9.296875 C 0.957031 -9.710938 0.90625 -10.1875 0.90625 -10.71875 C 0.90625 -12.050781 1.34375 -13.078125 2.21875 -13.796875 C 3.09375 -14.523438 4.328125 -14.890625 5.921875 -14.890625 C 7.421875 -14.890625 8.5625 -14.597656 9.34375 -14.015625 C 10.132812 -13.429688 10.675781 -12.460938 10.96875 -11.109375 L 7.65625 -10.703125 C 7.582031 -11.253906 7.390625 -11.679688 7.078125 -11.984375 C 6.765625 -12.296875 6.367188 -12.453125 5.890625 -12.453125 C 5.398438 -12.453125 5.003906 -12.304688 4.703125 -12.015625 C 4.410156 -11.734375 4.265625 -11.367188 4.265625 -10.921875 C 4.265625 -10.503906 4.398438 -10.160156 4.671875 -9.890625 C 4.941406 -9.617188 5.363281 -9.398438 5.9375 -9.234375 L 8.046875 -8.609375 C 9.242188 -8.253906 10.097656 -7.734375 10.609375 -7.046875 C 11.117188 -6.359375 11.375 -5.441406 11.375 -4.296875 Z M 11.375 -4.296875 "/></g></g></g><g fill="#60941a" fill-opacity="1"><g transform="translate(659.516317, 153.77738)"><g/></g></g><g fill="#60941a" fill-opacity="1"><g transform="translate(665.400556, 153.77738)"><g><path d="M 15.6875 0 L 15.6875 -8.515625 C 15.6875 -9.035156 15.691406 -9.554688 15.703125 -10.078125 C 15.710938 -10.597656 15.726562 -11.117188 15.75 -11.640625 C 15.601562 -11.222656 15.457031 -10.800781 15.3125 -10.375 C 15.175781 -9.945312 15.03125 -9.523438 14.875 -9.109375 L 11.453125 0 L 9.03125 0 L 5.53125 -9.109375 C 5.1875 -9.972656 4.898438 -10.816406 4.671875 -11.640625 C 4.691406 -11.117188 4.707031 -10.597656 4.71875 -10.078125 C 4.726562 -9.566406 4.734375 -9.050781 4.734375 -8.53125 L 4.734375 0 L 1.640625 0 L 1.640625 -14.671875 L 6.328125 -14.671875 L 8.765625 -8.328125 C 9.078125 -7.535156 9.390625 -6.6875 9.703125 -5.78125 C 10.015625 -4.875 10.191406 -4.289062 10.234375 -4.03125 C 10.765625 -5.582031 11.289062 -7.046875 11.8125 -8.421875 L 14.140625 -14.671875 L 18.765625 -14.671875 L 18.765625 0 Z M 15.6875 0 "/></g></g></g><g fill="#60941a" fill-opacity="1"><g transform="translate(685.813118, 153.77738)"><g><path d="M 15.1875 -7.40625 C 15.1875 -5 14.566406 -3.128906 13.328125 -1.796875 C 12.085938 -0.460938 10.335938 0.203125 8.078125 0.203125 C 5.785156 0.203125 4.03125 -0.453125 2.8125 -1.765625 C 1.59375 -3.078125 0.984375 -4.957031 0.984375 -7.40625 C 0.984375 -9.820312 1.59375 -11.671875 2.8125 -12.953125 C 4.03125 -14.242188 5.789062 -14.890625 8.09375 -14.890625 C 10.382812 -14.890625 12.140625 -14.242188 13.359375 -12.953125 C 14.578125 -11.671875 15.1875 -9.820312 15.1875 -7.40625 Z M 11.671875 -7.40625 C 11.671875 -10.582031 10.476562 -12.171875 8.09375 -12.171875 C 6.894531 -12.171875 5.992188 -11.785156 5.390625 -11.015625 C 4.796875 -10.242188 4.5 -9.039062 4.5 -7.40625 C 4.5 -4.132812 5.691406 -2.5 8.078125 -2.5 C 9.296875 -2.5 10.195312 -2.890625 10.78125 -3.671875 C 11.375 -4.460938 11.671875 -5.707031 11.671875 -7.40625 Z M 11.671875 -7.40625 "/></g></g></g><g fill="#60941a" fill-opacity="1"><g transform="translate(701.986954, 153.77738)"><g><path d="M 11.21875 -7.421875 C 11.21875 -8.898438 10.847656 -10.023438 10.109375 -10.796875 C 9.367188 -11.578125 8.296875 -11.96875 6.890625 -11.96875 L 5.125 -11.96875 L 5.125 -2.703125 L 7.296875 -2.703125 C 8.515625 -2.703125 9.472656 -3.117188 10.171875 -3.953125 C 10.867188 -4.796875 11.21875 -5.953125 11.21875 -7.421875 Z M 14.71875 -7.421875 C 14.71875 -5.921875 14.421875 -4.609375 13.828125 -3.484375 C 13.242188 -2.359375 12.410156 -1.492188 11.328125 -0.890625 C 10.253906 -0.296875 9.003906 0 7.578125 0 L 1.640625 0 L 1.640625 -14.671875 L 6.953125 -14.671875 C 9.429688 -14.671875 11.34375 -14.039062 12.6875 -12.78125 C 14.039062 -11.53125 14.71875 -9.742188 14.71875 -7.421875 Z M 14.71875 -7.421875 "/></g></g></g><g fill="#60941a" fill-opacity="1"><g transform="translate(717.712958, 153.77738)"><g><path d="M 1.640625 0 L 1.640625 -14.671875 L 10.359375 -14.671875 L 10.359375 -11.9375 L 5.140625 -11.9375 L 5.140625 -8.75 L 9.703125 -8.75 L 9.703125 -6.109375 L 5.140625 -6.109375 L 5.140625 -2.703125 L 10.78125 -2.703125 L 10.78125 0 Z M 1.640625 0 "/></g></g></g><g fill="#60941a" fill-opacity="1"><g transform="translate(729.064842, 153.77738)"><g><path d="M 1.640625 0 L 1.640625 -14.671875 L 5.140625 -14.671875 L 5.140625 -2.703125 L 10.546875 -2.703125 L 10.546875 0 Z M 1.640625 0 "/></g></g></g><g clip-path="url(#600f7be475)"><g clip-path="url(#b4a42bda9f)"><path stroke-linecap="butt" transform="matrix(0.748798, 0, 0, 0.748798, 72.844431, 339.624263)" fill="none" stroke-linejoin="miter" d="M 76.632321 0.000984126 C 34.309285 0.000984126 -0.000909462 34.838065 -0.000909462 77.813187 C -0.000909462 120.78831 34.309285 155.62539 76.632321 155.62539 C 118.955357 155.62539 153.260335 120.78831 153.260335 77.813187 C 153.260335 34.838065 118.955357 0.000984126 76.632321 0.000984126 Z M 76.632321 0.000984126 " stroke="#60941a" stroke-width="8" stroke-opacity="1" stroke-miterlimit="4"/></g></g><g fill="#000000" fill-opacity="1"><g transform="translate(101.749571, 409.27304)"><g><path d="M 18.609375 -8.34375 L 22.125 -25.234375 L 26.953125 -25.234375 L 21.703125 0 L 16.84375 0 L 10.046875 -16.953125 L 6.484375 0 L 1.65625 0 L 6.9375 -25.234375 L 11.765625 -25.234375 Z M 18.609375 -8.34375 "/></g></g></g><g fill="#000000" fill-opacity="1"><g transform="translate(126.867408, 412.916701)"><g><path d="M 8.015625 -12.5625 C 10.929688 -12.5625 12.632812 -11.492188 13.125 -9.359375 L 10.046875 -8.8125 C 9.679688 -9.78125 8.828125 -10.265625 7.484375 -10.265625 C 6.890625 -10.265625 6.414062 -10.164062 6.0625 -9.96875 C 5.71875 -9.769531 5.546875 -9.515625 5.546875 -9.203125 C 5.546875 -8.878906 5.65625 -8.632812 5.875 -8.46875 C 6.09375 -8.300781 6.414062 -8.15625 6.84375 -8.03125 C 8.113281 -7.6875 9.117188 -7.351562 9.859375 -7.03125 C 10.597656 -6.71875 11.179688 -6.320312 11.609375 -5.84375 C 12.035156 -5.363281 12.25 -4.757812 12.25 -4.03125 C 12.25 -3.269531 12.035156 -2.5625 11.609375 -1.90625 C 11.179688 -1.25 10.550781 -0.71875 9.71875 -0.3125 C 8.882812 0.0820312 7.863281 0.28125 6.65625 0.28125 C 3.320312 0.28125 1.289062 -0.957031 0.5625 -3.4375 L 3.796875 -3.953125 C 4.066406 -3.304688 4.410156 -2.832031 4.828125 -2.53125 C 5.242188 -2.226562 5.832031 -2.078125 6.59375 -2.078125 C 7.25 -2.078125 7.796875 -2.207031 8.234375 -2.46875 C 8.679688 -2.738281 8.90625 -3.0625 8.90625 -3.4375 C 8.90625 -3.769531 8.753906 -4.019531 8.453125 -4.1875 C 8.160156 -4.363281 7.632812 -4.5625 6.875 -4.78125 C 5.832031 -5.113281 5 -5.425781 4.375 -5.71875 C 3.757812 -6.007812 3.28125 -6.382812 2.9375 -6.84375 C 2.59375 -7.300781 2.421875 -7.890625 2.421875 -8.609375 C 2.421875 -9.347656 2.640625 -10.015625 3.078125 -10.609375 C 3.523438 -11.210938 4.171875 -11.6875 5.015625 -12.03125 C 5.859375 -12.382812 6.859375 -12.5625 8.015625 -12.5625 Z M 8.015625 -12.5625 "/></g></g></g><g fill="#000000" fill-opacity="1"><g transform="translate(140.046921, 412.916701)"><g><path d="M 7.234375 -12.28125 L 9.265625 -12.28125 L 8.75 -9.859375 L 6.703125 -9.859375 L 5.625 -4.53125 C 5.457031 -3.832031 5.375 -3.347656 5.375 -3.078125 C 5.375 -2.796875 5.460938 -2.585938 5.640625 -2.453125 C 5.816406 -2.316406 6.09375 -2.25 6.46875 -2.25 C 6.71875 -2.25 7.082031 -2.28125 7.5625 -2.34375 L 7.046875 0.125 C 6.648438 0.21875 6.085938 0.265625 5.359375 0.265625 C 3.066406 0.265625 1.921875 -0.570312 1.921875 -2.25 C 1.921875 -2.582031 2.007812 -3.210938 2.1875 -4.140625 L 2.296875 -4.6875 L 3.390625 -9.859375 L 1.78125 -9.859375 L 2.296875 -12.28125 L 3.90625 -12.28125 L 4.3125 -14.25 L 8.109375 -16.546875 Z M 7.234375 -12.28125 "/></g></g></g><g fill="#000000" fill-opacity="1"><g transform="translate(147.940401, 412.916701)"><g><path d="M 8.515625 -12.5625 C 9.953125 -12.5625 11.101562 -12.1875 11.96875 -11.4375 C 12.84375 -10.6875 13.332031 -9.695312 13.4375 -8.46875 L 10.265625 -8.125 C 10.148438 -9.40625 9.492188 -10.046875 8.296875 -10.046875 C 7.597656 -10.046875 6.984375 -9.789062 6.453125 -9.28125 C 5.929688 -8.769531 5.519531 -8.097656 5.21875 -7.265625 C 4.925781 -6.429688 4.78125 -5.554688 4.78125 -4.640625 C 4.78125 -3.890625 4.953125 -3.316406 5.296875 -2.921875 C 5.640625 -2.523438 6.085938 -2.328125 6.640625 -2.328125 C 7.191406 -2.328125 7.707031 -2.523438 8.1875 -2.921875 C 8.664062 -3.316406 9.039062 -3.890625 9.3125 -4.640625 L 12.5625 -4.09375 C 12.039062 -2.6875 11.265625 -1.601562 10.234375 -0.84375 C 9.210938 -0.09375 8.003906 0.28125 6.609375 0.28125 C 5.003906 0.28125 3.742188 -0.191406 2.828125 -1.140625 C 1.910156 -2.085938 1.453125 -3.34375 1.453125 -4.90625 C 1.453125 -6.375 1.75 -7.6875 2.34375 -8.84375 C 2.945312 -10.007812 3.78125 -10.921875 4.84375 -11.578125 C 5.914062 -12.234375 7.140625 -12.5625 8.515625 -12.5625 Z M 8.515625 -12.5625 "/></g></g></g><g clip-path="url(#7dce3338b3)"><path stroke-linecap="round" transform="matrix(-0.72945, -0.16912, 0.16912, -0.72945, 66.433543, 389.515301)" fill="none" stroke-linejoin="miter" d="M 1.49893 1.499532 L 80.690159 1.5019 " stroke="#000000" stroke-width="3" stroke-opacity="1" stroke-miterlimit="4"/></g><path stroke-linecap="round" transform="matrix(-0.72945, -0.16912, 0.16912, -0.72945, 66.433543, 389.515301)" fill-opacity="1" fill="#000000" fill-rule="nonzero" stroke-linejoin="round" d="M 82.189765 -3.001306 L 88.191642 1.497755 L 82.188406 6.000871 Z M 82.189765 -3.001306 " stroke="#000000" stroke-width="3" stroke-opacity="1" stroke-miterlimit="4"/><g clip-path="url(#90c4c29b27)"><g clip-path="url(#85b0743812)"><path stroke-linecap="butt" transform="matrix(0.748798, 0, 0, 0.748798, 253.953193, 114.047807)" fill="none" stroke-linejoin="miter" d="M 67.905611 -0.001245 C 30.4028 -0.001245 -0.0000909646 18.622351 -0.0000909646 41.591454 C -0.0000909646 64.560556 30.4028 83.184153 67.905611 83.184153 C 105.408422 83.184153 135.811313 64.560556 135.811313 41.591454 C 135.811313 18.622351 105.408422 -0.001245 67.905611 -0.001245 Z M 67.905611 -0.001245 " stroke="#60941a" stroke-width="8" stroke-opacity="1" stroke-miterlimit="4"/></g></g><g fill="#000000" fill-opacity="1"><g transform="translate(278.626731, 153.056143)"><g><path d="M 14.265625 -25.65625 C 17.085938 -25.65625 19.335938 -24.992188 21.015625 -23.671875 C 22.691406 -22.359375 23.613281 -20.484375 23.78125 -18.046875 L 18.8125 -17.796875 C 18.582031 -20.285156 17.046875 -21.53125 14.203125 -21.53125 C 12.859375 -21.53125 11.859375 -21.296875 11.203125 -20.828125 C 10.546875 -20.359375 10.21875 -19.710938 10.21875 -18.890625 C 10.21875 -18.296875 10.421875 -17.773438 10.828125 -17.328125 C 11.242188 -16.890625 11.753906 -16.515625 12.359375 -16.203125 C 12.972656 -15.898438 13.859375 -15.515625 15.015625 -15.046875 C 16.492188 -14.429688 17.707031 -13.847656 18.65625 -13.296875 C 19.601562 -12.742188 20.410156 -12.003906 21.078125 -11.078125 C 21.753906 -10.148438 22.09375 -9.003906 22.09375 -7.640625 C 22.09375 -6.160156 21.691406 -4.8125 20.890625 -3.59375 C 20.097656 -2.375 18.945312 -1.398438 17.4375 -0.671875 C 15.9375 0.0546875 14.148438 0.421875 12.078125 0.421875 C 8.910156 0.421875 6.46875 -0.28125 4.75 -1.6875 C 3.039062 -3.101562 2.1875 -5.226562 2.1875 -8.0625 L 2.1875 -8.171875 L 7.125 -8.421875 C 7.164062 -7.359375 7.320312 -6.503906 7.59375 -5.859375 C 7.863281 -5.210938 8.347656 -4.722656 9.046875 -4.390625 C 9.753906 -4.066406 10.765625 -3.90625 12.078125 -3.90625 C 13.703125 -3.90625 14.921875 -4.1875 15.734375 -4.75 C 16.546875 -5.320312 16.953125 -6.078125 16.953125 -7.015625 C 16.953125 -7.597656 16.785156 -8.085938 16.453125 -8.484375 C 16.128906 -8.890625 15.609375 -9.273438 14.890625 -9.640625 C 14.171875 -10.003906 13.046875 -10.515625 11.515625 -11.171875 C 10.179688 -11.734375 9.078125 -12.296875 8.203125 -12.859375 C 7.335938 -13.421875 6.628906 -14.128906 6.078125 -14.984375 C 5.523438 -15.847656 5.25 -16.914062 5.25 -18.1875 C 5.25 -19.664062 5.59375 -20.960938 6.28125 -22.078125 C 6.976562 -23.191406 8.007812 -24.066406 9.375 -24.703125 C 10.738281 -25.335938 12.367188 -25.65625 14.265625 -25.65625 Z M 14.265625 -25.65625 "/></g></g></g><g fill="#000000" fill-opacity="1"><g transform="translate(299.788319, 157.196718)"><g><path d="M 8.859375 -17.046875 C 10.296875 -17.046875 11.441406 -16.535156 12.296875 -15.515625 C 13.148438 -14.492188 13.578125 -13.046875 13.578125 -11.171875 C 13.578125 -9.722656 13.320312 -8.109375 12.8125 -6.328125 C 12.3125 -4.546875 11.507812 -3 10.40625 -1.6875 C 9.3125 -0.375 7.945312 0.28125 6.3125 0.28125 C 4.757812 0.28125 3.582031 -0.257812 2.78125 -1.34375 C 1.988281 -2.4375 1.59375 -3.828125 1.59375 -5.515625 C 1.59375 -7.304688 1.882812 -9.09375 2.46875 -10.875 C 3.0625 -12.664062 3.910156 -14.140625 5.015625 -15.296875 C 6.128906 -16.460938 7.410156 -17.046875 8.859375 -17.046875 Z M 5.546875 -9.625 C 5.304688 -8.675781 5.125 -7.71875 5 -6.75 C 4.875 -5.789062 4.8125 -5.148438 4.8125 -4.828125 C 4.8125 -3.203125 5.34375 -2.390625 6.40625 -2.390625 C 7.019531 -2.390625 7.53125 -2.625 7.9375 -3.09375 C 8.351562 -3.570312 8.722656 -4.265625 9.046875 -5.171875 C 9.367188 -5.972656 9.625 -6.863281 9.8125 -7.84375 C 10 -8.820312 10.132812 -9.695312 10.21875 -10.46875 C 10.3125 -11.25 10.359375 -11.75 10.359375 -11.96875 C 10.359375 -12.695312 10.222656 -13.273438 9.953125 -13.703125 C 9.679688 -14.140625 9.285156 -14.359375 8.765625 -14.359375 C 7.410156 -14.359375 6.335938 -12.78125 5.546875 -9.625 Z M 5.546875 -9.625 "/></g></g></g><g fill="#000000" fill-opacity="1"><g transform="translate(312.967832, 157.196718)"><g><path d="M 7.234375 -12.28125 L 9.265625 -12.28125 L 8.75 -9.859375 L 6.703125 -9.859375 L 5.625 -4.53125 C 5.457031 -3.832031 5.375 -3.347656 5.375 -3.078125 C 5.375 -2.796875 5.460938 -2.585938 5.640625 -2.453125 C 5.816406 -2.316406 6.09375 -2.25 6.46875 -2.25 C 6.71875 -2.25 7.082031 -2.28125 7.5625 -2.34375 L 7.046875 0.125 C 6.648438 0.21875 6.085938 0.265625 5.359375 0.265625 C 3.066406 0.265625 1.921875 -0.570312 1.921875 -2.25 C 1.921875 -2.582031 2.007812 -3.210938 2.1875 -4.140625 L 2.296875 -4.6875 L 3.390625 -9.859375 L 1.78125 -9.859375 L 2.296875 -12.28125 L 3.90625 -12.28125 L 4.3125 -14.25 L 8.109375 -16.546875 Z M 7.234375 -12.28125 "/></g></g></g><g fill="#000000" fill-opacity="1"><g transform="translate(320.861312, 157.196718)"><g><path d="M 8.515625 -12.5625 C 9.953125 -12.5625 11.101562 -12.1875 11.96875 -11.4375 C 12.84375 -10.6875 13.332031 -9.695312 13.4375 -8.46875 L 10.265625 -8.125 C 10.148438 -9.40625 9.492188 -10.046875 8.296875 -10.046875 C 7.597656 -10.046875 6.984375 -9.789062 6.453125 -9.28125 C 5.929688 -8.769531 5.519531 -8.097656 5.21875 -7.265625 C 4.925781 -6.429688 4.78125 -5.554688 4.78125 -4.640625 C 4.78125 -3.890625 4.953125 -3.316406 5.296875 -2.921875 C 5.640625 -2.523438 6.085938 -2.328125 6.640625 -2.328125 C 7.191406 -2.328125 7.707031 -2.523438 8.1875 -2.921875 C 8.664062 -3.316406 9.039062 -3.890625 9.3125 -4.640625 L 12.5625 -4.09375 C 12.039062 -2.6875 11.265625 -1.601562 10.234375 -0.84375 C 9.210938 -0.09375 8.003906 0.28125 6.609375 0.28125 C 5.003906 0.28125 3.742188 -0.191406 2.828125 -1.140625 C 1.910156 -2.085938 1.453125 -3.34375 1.453125 -4.90625 C 1.453125 -6.375 1.75 -7.6875 2.34375 -8.84375 C 2.945312 -10.007812 3.78125 -10.921875 4.84375 -11.578125 C 5.914062 -12.234375 7.140625 -12.5625 8.515625 -12.5625 Z M 8.515625 -12.5625 "/></g></g></g><path stroke-linecap="round" transform="matrix(-0.335062, 0.669651, -0.669651, -0.335062, 255.811032, 160.75889)" fill="none" stroke-linejoin="miter" d="M 1.500696 1.49857 L 265.381326 1.501017 " stroke="#000000" stroke-width="3" stroke-opacity="1" stroke-miterlimit="4"/><path stroke-linecap="round" transform="matrix(-0.335062, 0.669651, -0.669651, -0.335062, 255.811032, 160.75889)" fill-opacity="1" fill="#000000" fill-rule="nonzero" stroke-linejoin="round" d="M 266.880159 -2.999718 L 272.881845 1.498898 L 266.880368 6.000905 Z M 266.880159 -2.999718 " stroke="#000000" stroke-width="3" stroke-opacity="1" stroke-miterlimit="4"/><path stroke-linecap="round" transform="matrix(0.507528, -0.550558, 0.550558, 0.507528, 344.82583, 122.234935)" fill="none" stroke-linejoin="miter" d="M 1.499541 1.502428 L 82.184045 1.501671 " stroke="#000000" stroke-width="3" stroke-opacity="1" stroke-miterlimit="4"/><path stroke-linecap="round" transform="matrix(0.507528, -0.550558, 0.550558, 0.507528, 344.82583, 122.234935)" fill-opacity="1" fill="#000000" fill-rule="nonzero" stroke-linejoin="round" d="M 83.681423 -3.00051 L 89.682169 1.500183 L 83.684563 6.000247 Z M 83.681423 -3.00051 " stroke="#000000" stroke-width="3" stroke-opacity="1" stroke-miterlimit="4"/><path stroke-linecap="round" transform="matrix(0.712812, 0.229341, -0.229341, 0.712812, 359.306971, 144.955741)" fill="none" stroke-linejoin="miter" d="M 1.498092 1.498112 L 175.495958 1.50005 " stroke="#000000" stroke-width="3" stroke-opacity="1" stroke-miterlimit="4"/><path stroke-linecap="round" transform="matrix(0.712812, 0.229341, -0.229341, 0.712812, 359.306971, 144.955741)" fill-opacity="1" fill="#000000" fill-rule="nonzero" stroke-linejoin="round" d="M 176.996499 -2.999617 L 182.992447 1.499344 L 176.993019 5.999754 Z M 176.996499 -2.999617 " stroke="#000000" stroke-width="3" stroke-opacity="1" stroke-miterlimit="4"/><g clip-path="url(#bd8390b4fa)"><g clip-path="url(#b90a6a37bb)"><path stroke-linecap="butt" transform="matrix(0.748798, 0, 0, 0.748798, 253.953193, 179.564338)" fill="none" stroke-linejoin="miter" d="M 67.905611 -0.00245514 C 30.4028 -0.00245514 -0.0000909646 18.621141 -0.0000909646 41.590244 C -0.0000909646 64.564563 30.4028 83.182943 67.905611 83.182943 C 105.408422 83.182943 135.811313 64.564563 135.811313 41.590244 C 135.811313 18.621141 105.408422 -0.00245514 67.905611 -0.00245514 Z M 67.905611 -0.00245514 " stroke="#60941a" stroke-width="8" stroke-opacity="1" stroke-miterlimit="4"/></g></g><g fill="#000000" fill-opacity="1"><g transform="translate(278.288573, 219.86595)"><g><path d="M 14.265625 -25.65625 C 17.085938 -25.65625 19.335938 -24.992188 21.015625 -23.671875 C 22.691406 -22.359375 23.613281 -20.484375 23.78125 -18.046875 L 18.8125 -17.796875 C 18.582031 -20.285156 17.046875 -21.53125 14.203125 -21.53125 C 12.859375 -21.53125 11.859375 -21.296875 11.203125 -20.828125 C 10.546875 -20.359375 10.21875 -19.710938 10.21875 -18.890625 C 10.21875 -18.296875 10.421875 -17.773438 10.828125 -17.328125 C 11.242188 -16.890625 11.753906 -16.515625 12.359375 -16.203125 C 12.972656 -15.898438 13.859375 -15.515625 15.015625 -15.046875 C 16.492188 -14.429688 17.707031 -13.847656 18.65625 -13.296875 C 19.601562 -12.742188 20.410156 -12.003906 21.078125 -11.078125 C 21.753906 -10.148438 22.09375 -9.003906 22.09375 -7.640625 C 22.09375 -6.160156 21.691406 -4.8125 20.890625 -3.59375 C 20.097656 -2.375 18.945312 -1.398438 17.4375 -0.671875 C 15.9375 0.0546875 14.148438 0.421875 12.078125 0.421875 C 8.910156 0.421875 6.46875 -0.28125 4.75 -1.6875 C 3.039062 -3.101562 2.1875 -5.226562 2.1875 -8.0625 L 2.1875 -8.171875 L 7.125 -8.421875 C 7.164062 -7.359375 7.320312 -6.503906 7.59375 -5.859375 C 7.863281 -5.210938 8.347656 -4.722656 9.046875 -4.390625 C 9.753906 -4.066406 10.765625 -3.90625 12.078125 -3.90625 C 13.703125 -3.90625 14.921875 -4.1875 15.734375 -4.75 C 16.546875 -5.320312 16.953125 -6.078125 16.953125 -7.015625 C 16.953125 -7.597656 16.785156 -8.085938 16.453125 -8.484375 C 16.128906 -8.890625 15.609375 -9.273438 14.890625 -9.640625 C 14.171875 -10.003906 13.046875 -10.515625 11.515625 -11.171875 C 10.179688 -11.734375 9.078125 -12.296875 8.203125 -12.859375 C 7.335938 -13.421875 6.628906 -14.128906 6.078125 -14.984375 C 5.523438 -15.847656 5.25 -16.914062 5.25 -18.1875 C 5.25 -19.664062 5.59375 -20.960938 6.28125 -22.078125 C 6.976562 -23.191406 8.007812 -24.066406 9.375 -24.703125 C 10.738281 -25.335938 12.367188 -25.65625 14.265625 -25.65625 Z M 14.265625 -25.65625 "/></g></g></g><g fill="#000000" fill-opacity="1"><g transform="translate(299.450162, 224.006525)"><g><path d="M 10.125 -17.046875 L 12.140625 -17.046875 L 8.5625 0 L 5.21875 0 L 7.6875 -11.734375 C 6.957031 -11.253906 6.15625 -10.835938 5.28125 -10.484375 C 4.414062 -10.128906 3.601562 -9.875 2.84375 -9.71875 L 3.453125 -12.6875 C 6.273438 -13.863281 8.5 -15.316406 10.125 -17.046875 Z M 10.125 -17.046875 "/></g></g></g><g fill="#000000" fill-opacity="1"><g transform="translate(312.629674, 224.006525)"><g><path d="M 7.234375 -12.28125 L 9.265625 -12.28125 L 8.75 -9.859375 L 6.703125 -9.859375 L 5.625 -4.53125 C 5.457031 -3.832031 5.375 -3.347656 5.375 -3.078125 C 5.375 -2.796875 5.460938 -2.585938 5.640625 -2.453125 C 5.816406 -2.316406 6.09375 -2.25 6.46875 -2.25 C 6.71875 -2.25 7.082031 -2.28125 7.5625 -2.34375 L 7.046875 0.125 C 6.648438 0.21875 6.085938 0.265625 5.359375 0.265625 C 3.066406 0.265625 1.921875 -0.570312 1.921875 -2.25 C 1.921875 -2.582031 2.007812 -3.210938 2.1875 -4.140625 L 2.296875 -4.6875 L 3.390625 -9.859375 L 1.78125 -9.859375 L 2.296875 -12.28125 L 3.90625 -12.28125 L 4.3125 -14.25 L 8.109375 -16.546875 Z M 7.234375 -12.28125 "/></g></g></g><g fill="#000000" fill-opacity="1"><g transform="translate(320.523155, 224.006525)"><g><path d="M 8.515625 -12.5625 C 9.953125 -12.5625 11.101562 -12.1875 11.96875 -11.4375 C 12.84375 -10.6875 13.332031 -9.695312 13.4375 -8.46875 L 10.265625 -8.125 C 10.148438 -9.40625 9.492188 -10.046875 8.296875 -10.046875 C 7.597656 -10.046875 6.984375 -9.789062 6.453125 -9.28125 C 5.929688 -8.769531 5.519531 -8.097656 5.21875 -7.265625 C 4.925781 -6.429688 4.78125 -5.554688 4.78125 -4.640625 C 4.78125 -3.890625 4.953125 -3.316406 5.296875 -2.921875 C 5.640625 -2.523438 6.085938 -2.328125 6.640625 -2.328125 C 7.191406 -2.328125 7.707031 -2.523438 8.1875 -2.921875 C 8.664062 -3.316406 9.039062 -3.890625 9.3125 -4.640625 L 12.5625 -4.09375 C 12.039062 -2.6875 11.265625 -1.601562 10.234375 -0.84375 C 9.210938 -0.09375 8.003906 0.28125 6.609375 0.28125 C 5.003906 0.28125 3.742188 -0.191406 2.828125 -1.140625 C 1.910156 -2.085938 1.453125 -3.34375 1.453125 -4.90625 C 1.453125 -6.375 1.75 -7.6875 2.34375 -8.84375 C 2.945312 -10.007812 3.78125 -10.921875 4.84375 -11.578125 C 5.914062 -12.234375 7.140625 -12.5625 8.515625 -12.5625 Z M 8.515625 -12.5625 "/></g></g></g><path stroke-linecap="round" transform="matrix(-0.375421, 0.647887, -0.647887, -0.375421, 254.34795, 223.705091)" fill="none" stroke-linejoin="miter" d="M 1.499739 1.500904 L 197.104925 1.499755 " stroke="#000000" stroke-width="3" stroke-opacity="1" stroke-miterlimit="4"/><path stroke-linecap="round" transform="matrix(-0.375421, 0.647887, -0.647887, -0.375421, 254.34795, 223.705091)" fill-opacity="1" fill="#000000" fill-rule="nonzero" stroke-linejoin="round" d="M 198.604223 -2.998608 L 204.605683 1.500469 L 198.604792 6.002681 Z M 198.604223 -2.998608 " stroke="#000000" stroke-width="3" stroke-opacity="1" stroke-miterlimit="4"/><path stroke-linecap="round" transform="matrix(0.340654, -0.666823, 0.666823, 0.340654, 349.21838, 191.275993)" fill="none" stroke-linejoin="miter" d="M 1.502413 1.500076 L 157.026776 1.500717 " stroke="#000000" stroke-width="3" stroke-opacity="1" stroke-miterlimit="4"/><path stroke-linecap="round" transform="matrix(0.340654, -0.666823, 0.666823, 0.340654, 349.21838, 191.275993)" fill-opacity="1" fill="#000000" fill-rule="nonzero" stroke-linejoin="round" d="M 158.522984 -3.001043 L 164.525246 1.501169 L 158.528532 5.999869 Z M 158.522984 -3.001043 " stroke="#000000" stroke-width="3" stroke-opacity="1" stroke-miterlimit="4"/><path stroke-linecap="round" transform="matrix(0.748571, -0.0184224, 0.0184224, 0.748571, 357.407772, 206.469457)" fill="none" stroke-linejoin="miter" d="M 1.500385 1.502315 L 161.205735 1.498104 " stroke="#000000" stroke-width="3" stroke-opacity="1" stroke-miterlimit="4"/><path stroke-linecap="round" transform="matrix(0.748571, -0.0184224, 0.0184224, 0.748571, 357.407772, 206.469457)" fill-opacity="1" fill="#000000" fill-rule="nonzero" stroke-linejoin="round" d="M 162.704487 -2.99969 L 168.704347 1.500006 L 162.702127 6.001772 Z M 162.704487 -2.99969 " stroke="#000000" stroke-width="3" stroke-opacity="1" stroke-miterlimit="4"/><g clip-path="url(#1011f1950f)"><g clip-path="url(#a7852613c5)"><path stroke-linecap="butt" transform="matrix(0.748798, 0, 0, 0.748798, 254.31519, 243.362063)" fill="none" stroke-linejoin="miter" d="M 67.907327 0.00162699 C 30.404516 0.00162699 0.00162475 18.620007 0.00162475 41.594326 C 0.00162475 64.563428 30.404516 83.187025 67.907327 83.187025 C 105.410138 83.187025 135.813028 64.563428 135.813028 41.594326 C 135.813028 18.620007 105.410138 0.00162699 67.907327 0.00162699 Z M 67.907327 0.00162699 " stroke="#60941a" stroke-width="8" stroke-opacity="1" stroke-miterlimit="4"/></g></g><g fill="#000000" fill-opacity="1"><g transform="translate(277.570283, 282.370403)"><g><path d="M 14.265625 -25.65625 C 17.085938 -25.65625 19.335938 -24.992188 21.015625 -23.671875 C 22.691406 -22.359375 23.613281 -20.484375 23.78125 -18.046875 L 18.8125 -17.796875 C 18.582031 -20.285156 17.046875 -21.53125 14.203125 -21.53125 C 12.859375 -21.53125 11.859375 -21.296875 11.203125 -20.828125 C 10.546875 -20.359375 10.21875 -19.710938 10.21875 -18.890625 C 10.21875 -18.296875 10.421875 -17.773438 10.828125 -17.328125 C 11.242188 -16.890625 11.753906 -16.515625 12.359375 -16.203125 C 12.972656 -15.898438 13.859375 -15.515625 15.015625 -15.046875 C 16.492188 -14.429688 17.707031 -13.847656 18.65625 -13.296875 C 19.601562 -12.742188 20.410156 -12.003906 21.078125 -11.078125 C 21.753906 -10.148438 22.09375 -9.003906 22.09375 -7.640625 C 22.09375 -6.160156 21.691406 -4.8125 20.890625 -3.59375 C 20.097656 -2.375 18.945312 -1.398438 17.4375 -0.671875 C 15.9375 0.0546875 14.148438 0.421875 12.078125 0.421875 C 8.910156 0.421875 6.46875 -0.28125 4.75 -1.6875 C 3.039062 -3.101562 2.1875 -5.226562 2.1875 -8.0625 L 2.1875 -8.171875 L 7.125 -8.421875 C 7.164062 -7.359375 7.320312 -6.503906 7.59375 -5.859375 C 7.863281 -5.210938 8.347656 -4.722656 9.046875 -4.390625 C 9.753906 -4.066406 10.765625 -3.90625 12.078125 -3.90625 C 13.703125 -3.90625 14.921875 -4.1875 15.734375 -4.75 C 16.546875 -5.320312 16.953125 -6.078125 16.953125 -7.015625 C 16.953125 -7.597656 16.785156 -8.085938 16.453125 -8.484375 C 16.128906 -8.890625 15.609375 -9.273438 14.890625 -9.640625 C 14.171875 -10.003906 13.046875 -10.515625 11.515625 -11.171875 C 10.179688 -11.734375 9.078125 -12.296875 8.203125 -12.859375 C 7.335938 -13.421875 6.628906 -14.128906 6.078125 -14.984375 C 5.523438 -15.847656 5.25 -16.914062 5.25 -18.1875 C 5.25 -19.664062 5.59375 -20.960938 6.28125 -22.078125 C 6.976562 -23.191406 8.007812 -24.066406 9.375 -24.703125 C 10.738281 -25.335938 12.367188 -25.65625 14.265625 -25.65625 Z M 14.265625 -25.65625 "/></g></g></g><g fill="#000000" fill-opacity="1"><g transform="translate(298.731872, 286.510995)"><g><path d="M 8.484375 -17.046875 C 9.523438 -17.046875 10.429688 -16.847656 11.203125 -16.453125 C 11.984375 -16.054688 12.570312 -15.515625 12.96875 -14.828125 C 13.375 -14.140625 13.578125 -13.359375 13.578125 -12.484375 C 13.578125 -11.648438 13.382812 -10.863281 13 -10.125 C 12.625 -9.394531 12.160156 -8.734375 11.609375 -8.140625 C 11.054688 -7.546875 10.304688 -6.816406 9.359375 -5.953125 C 8.660156 -5.304688 8.101562 -4.769531 7.6875 -4.34375 C 7.269531 -3.925781 6.878906 -3.488281 6.515625 -3.03125 L 12.421875 -3.03125 L 11.78125 0 L 1.46875 0 C 1.59375 -0.9375 1.863281 -1.785156 2.28125 -2.546875 C 2.707031 -3.316406 3.210938 -4.023438 3.796875 -4.671875 C 4.390625 -5.316406 5.21875 -6.140625 6.28125 -7.140625 C 7.351562 -8.148438 8.15625 -8.929688 8.6875 -9.484375 C 9.21875 -10.046875 9.628906 -10.570312 9.921875 -11.0625 C 10.210938 -11.550781 10.359375 -12.035156 10.359375 -12.515625 C 10.359375 -13.054688 10.195312 -13.507812 9.875 -13.875 C 9.550781 -14.25 9.117188 -14.4375 8.578125 -14.4375 C 7.984375 -14.4375 7.503906 -14.203125 7.140625 -13.734375 C 6.773438 -13.265625 6.5 -12.582031 6.3125 -11.6875 L 3.03125 -12.15625 C 3.28125 -13.71875 3.882812 -14.921875 4.84375 -15.765625 C 5.800781 -16.617188 7.015625 -17.046875 8.484375 -17.046875 Z M 8.484375 -17.046875 "/></g></g></g><g fill="#000000" fill-opacity="1"><g transform="translate(311.911384, 286.510995)"><g><path d="M 7.234375 -12.28125 L 9.265625 -12.28125 L 8.75 -9.859375 L 6.703125 -9.859375 L 5.625 -4.53125 C 5.457031 -3.832031 5.375 -3.347656 5.375 -3.078125 C 5.375 -2.796875 5.460938 -2.585938 5.640625 -2.453125 C 5.816406 -2.316406 6.09375 -2.25 6.46875 -2.25 C 6.71875 -2.25 7.082031 -2.28125 7.5625 -2.34375 L 7.046875 0.125 C 6.648438 0.21875 6.085938 0.265625 5.359375 0.265625 C 3.066406 0.265625 1.921875 -0.570312 1.921875 -2.25 C 1.921875 -2.582031 2.007812 -3.210938 2.1875 -4.140625 L 2.296875 -4.6875 L 3.390625 -9.859375 L 1.78125 -9.859375 L 2.296875 -12.28125 L 3.90625 -12.28125 L 4.3125 -14.25 L 8.109375 -16.546875 Z M 7.234375 -12.28125 "/></g></g></g><g fill="#000000" fill-opacity="1"><g transform="translate(319.804865, 286.510995)"><g><path d="M 8.515625 -12.5625 C 9.953125 -12.5625 11.101562 -12.1875 11.96875 -11.4375 C 12.84375 -10.6875 13.332031 -9.695312 13.4375 -8.46875 L 10.265625 -8.125 C 10.148438 -9.40625 9.492188 -10.046875 8.296875 -10.046875 C 7.597656 -10.046875 6.984375 -9.789062 6.453125 -9.28125 C 5.929688 -8.769531 5.519531 -8.097656 5.21875 -7.265625 C 4.925781 -6.429688 4.78125 -5.554688 4.78125 -4.640625 C 4.78125 -3.890625 4.953125 -3.316406 5.296875 -2.921875 C 5.640625 -2.523438 6.085938 -2.328125 6.640625 -2.328125 C 7.191406 -2.328125 7.707031 -2.523438 8.1875 -2.921875 C 8.664062 -3.316406 9.039062 -3.890625 9.3125 -4.640625 L 12.5625 -4.09375 C 12.039062 -2.6875 11.265625 -1.601562 10.234375 -0.84375 C 9.210938 -0.09375 8.003906 0.28125 6.609375 0.28125 C 5.003906 0.28125 3.742188 -0.191406 2.828125 -1.140625 C 1.910156 -2.085938 1.453125 -3.34375 1.453125 -4.90625 C 1.453125 -6.375 1.75 -7.6875 2.34375 -8.84375 C 2.945312 -10.007812 3.78125 -10.921875 4.84375 -11.578125 C 5.914062 -12.234375 7.140625 -12.5625 8.515625 -12.5625 Z M 8.515625 -12.5625 "/></g></g></g><g clip-path="url(#0d4e762d71)"><g clip-path="url(#04bb1ae8b3)"><path stroke-linecap="butt" transform="matrix(0.748798, 0, 0, 0.748798, 488.579543, 173.307006)" fill="none" stroke-linejoin="miter" d="M 70.835586 0.00212065 C 31.715602 0.00212065 -0.00189364 21.327963 -0.00189364 47.630531 C -0.00189364 73.938316 31.715602 95.264158 70.835586 95.264158 C 109.960786 95.264158 141.673065 73.938316 141.673065 47.630531 C 141.673065 21.327963 109.960786 0.00212065 70.835586 0.00212065 Z M 70.835586 0.00212065 " stroke="#60941a" stroke-width="8" stroke-opacity="1" stroke-miterlimit="4"/></g></g><g fill="#000000" fill-opacity="1"><g transform="translate(512.265882, 222.913016)"><g><path d="M 14.875 -7.546875 L 23.46875 -25.234375 L 30.9375 -25.234375 L 25.65625 0 L 20.921875 0 L 25.890625 -20.921875 L 15.921875 0 L 11 0 L 10.078125 -21.03125 L 6.09375 0 L 1.40625 0 L 6.6875 -25.234375 L 14.09375 -25.234375 Z M 14.875 -7.546875 "/></g></g></g><g fill="#000000" fill-opacity="1"><g transform="translate(540.646717, 227.053594)"><g><path d="M 8.015625 -12.5625 C 10.929688 -12.5625 12.632812 -11.492188 13.125 -9.359375 L 10.046875 -8.8125 C 9.679688 -9.78125 8.828125 -10.265625 7.484375 -10.265625 C 6.890625 -10.265625 6.414062 -10.164062 6.0625 -9.96875 C 5.71875 -9.769531 5.546875 -9.515625 5.546875 -9.203125 C 5.546875 -8.878906 5.65625 -8.632812 5.875 -8.46875 C 6.09375 -8.300781 6.414062 -8.15625 6.84375 -8.03125 C 8.113281 -7.6875 9.117188 -7.351562 9.859375 -7.03125 C 10.597656 -6.71875 11.179688 -6.320312 11.609375 -5.84375 C 12.035156 -5.363281 12.25 -4.757812 12.25 -4.03125 C 12.25 -3.269531 12.035156 -2.5625 11.609375 -1.90625 C 11.179688 -1.25 10.550781 -0.71875 9.71875 -0.3125 C 8.882812 0.0820312 7.863281 0.28125 6.65625 0.28125 C 3.320312 0.28125 1.289062 -0.957031 0.5625 -3.4375 L 3.796875 -3.953125 C 4.066406 -3.304688 4.410156 -2.832031 4.828125 -2.53125 C 5.242188 -2.226562 5.832031 -2.078125 6.59375 -2.078125 C 7.25 -2.078125 7.796875 -2.207031 8.234375 -2.46875 C 8.679688 -2.738281 8.90625 -3.0625 8.90625 -3.4375 C 8.90625 -3.769531 8.753906 -4.019531 8.453125 -4.1875 C 8.160156 -4.363281 7.632812 -4.5625 6.875 -4.78125 C 5.832031 -5.113281 5 -5.425781 4.375 -5.71875 C 3.757812 -6.007812 3.28125 -6.382812 2.9375 -6.84375 C 2.59375 -7.300781 2.421875 -7.890625 2.421875 -8.609375 C 2.421875 -9.347656 2.640625 -10.015625 3.078125 -10.609375 C 3.523438 -11.210938 4.171875 -11.6875 5.015625 -12.03125 C 5.859375 -12.382812 6.859375 -12.5625 8.015625 -12.5625 Z M 8.015625 -12.5625 "/></g></g></g><g fill="#000000" fill-opacity="1"><g transform="translate(553.82623, 227.053594)"><g><path d="M 7.234375 -12.28125 L 9.265625 -12.28125 L 8.75 -9.859375 L 6.703125 -9.859375 L 5.625 -4.53125 C 5.457031 -3.832031 5.375 -3.347656 5.375 -3.078125 C 5.375 -2.796875 5.460938 -2.585938 5.640625 -2.453125 C 5.816406 -2.316406 6.09375 -2.25 6.46875 -2.25 C 6.71875 -2.25 7.082031 -2.28125 7.5625 -2.34375 L 7.046875 0.125 C 6.648438 0.21875 6.085938 0.265625 5.359375 0.265625 C 3.066406 0.265625 1.921875 -0.570312 1.921875 -2.25 C 1.921875 -2.582031 2.007812 -3.210938 2.1875 -4.140625 L 2.296875 -4.6875 L 3.390625 -9.859375 L 1.78125 -9.859375 L 2.296875 -12.28125 L 3.90625 -12.28125 L 4.3125 -14.25 L 8.109375 -16.546875 Z M 7.234375 -12.28125 "/></g></g></g><g fill="#000000" fill-opacity="1"><g transform="translate(561.71971, 227.053594)"><g><path d="M 8.515625 -12.5625 C 9.953125 -12.5625 11.101562 -12.1875 11.96875 -11.4375 C 12.84375 -10.6875 13.332031 -9.695312 13.4375 -8.46875 L 10.265625 -8.125 C 10.148438 -9.40625 9.492188 -10.046875 8.296875 -10.046875 C 7.597656 -10.046875 6.984375 -9.789062 6.453125 -9.28125 C 5.929688 -8.769531 5.519531 -8.097656 5.21875 -7.265625 C 4.925781 -6.429688 4.78125 -5.554688 4.78125 -4.640625 C 4.78125 -3.890625 4.953125 -3.316406 5.296875 -2.921875 C 5.640625 -2.523438 6.085938 -2.328125 6.640625 -2.328125 C 7.191406 -2.328125 7.707031 -2.523438 8.1875 -2.921875 C 8.664062 -3.316406 9.039062 -3.890625 9.3125 -4.640625 L 12.5625 -4.09375 C 12.039062 -2.6875 11.265625 -1.601562 10.234375 -0.84375 C 9.210938 -0.09375 8.003906 0.28125 6.609375 0.28125 C 5.003906 0.28125 3.742188 -0.191406 2.828125 -1.140625 C 1.910156 -2.085938 1.453125 -3.34375 1.453125 -4.90625 C 1.453125 -6.375 1.75 -7.6875 2.34375 -8.84375 C 2.945312 -10.007812 3.78125 -10.921875 4.84375 -11.578125 C 5.914062 -12.234375 7.140625 -12.5625 8.515625 -12.5625 Z M 8.515625 -12.5625 "/></g></g></g><path stroke-linecap="round" transform="matrix(-0.474495, 0.57927, -0.57927, -0.474495, 253.384984, 287.666893)" fill="none" stroke-linejoin="miter" d="M 1.499873 1.4995 L 132.118092 1.497634 " stroke="#000000" stroke-width="3" stroke-opacity="1" stroke-miterlimit="4"/><path stroke-linecap="round" transform="matrix(-0.474495, 0.57927, -0.57927, -0.474495, 253.384984, 287.666893)" fill-opacity="1" fill="#000000" fill-rule="nonzero" stroke-linejoin="round" d="M 133.618233 -3.001721 L 139.617195 1.498168 L 133.620382 5.998963 Z M 133.618233 -3.001721 " stroke="#000000" stroke-width="3" stroke-opacity="1" stroke-miterlimit="4"/><path stroke-linecap="round" transform="matrix(0.295602, -0.687981, 0.687981, 0.295602, 348.278609, 256.656036)" fill="none" stroke-linejoin="miter" d="M 1.501261 1.499347 L 240.113308 1.500864 " stroke="#000000" stroke-width="3" stroke-opacity="1" stroke-miterlimit="4"/><path stroke-linecap="round" transform="matrix(0.295602, -0.687981, 0.687981, 0.295602, 348.278609, 256.656036)" fill-opacity="1" fill="#000000" fill-rule="nonzero" stroke-linejoin="round" d="M 241.614749 -2.999509 L 247.614588 1.50284 L 241.614842 5.999834 Z M 241.614749 -2.999509 " stroke="#000000" stroke-width="3" stroke-opacity="1" stroke-miterlimit="4"/><path stroke-linecap="round" transform="matrix(0.714214, -0.224936, 0.224936, 0.714214, 355.910001, 262.475659)" fill="none" stroke-linejoin="miter" d="M 1.501474 1.50237 L 174.490931 1.498849 " stroke="#000000" stroke-width="3" stroke-opacity="1" stroke-miterlimit="4"/><path stroke-linecap="round" transform="matrix(0.714214, -0.224936, 0.224936, 0.714214, 355.910001, 262.475659)" fill-opacity="1" fill="#000000" fill-rule="nonzero" stroke-linejoin="round" d="M 175.990037 -3.000609 L 181.989671 1.49778 L 175.988076 6.001234 Z M 175.990037 -3.000609 " stroke="#000000" stroke-width="3" stroke-opacity="1" stroke-miterlimit="4"/></svg>