<svg xmlns="http://www.w3.org/2000/svg" xmlns:xlink="http://www.w3.org/1999/xlink" width="295" zoomAndPan="magnify" viewBox="0 0 221.25 619.500004" height="826" preserveAspectRatio="xMidYMid meet" version="1.0"><defs><g/><clipPath id="18c7af1b6f"><path d="M 20.59375 34.894531 L 214.933594 34.894531 L 214.933594 388.445312 L 20.59375 388.445312 Z M 20.59375 34.894531 " clip-rule="nonzero"/></clipPath><clipPath id="58c20b2741"><path d="M 30.3125 34.894531 L 205.5 34.894531 C 208.074219 34.894531 210.546875 35.917969 212.371094 37.738281 C 214.191406 39.5625 215.214844 42.035156 215.214844 44.609375 L 215.214844 378.808594 C 215.214844 381.382812 214.191406 383.855469 212.371094 385.679688 C 210.546875 387.5 208.074219 388.523438 205.5 388.523438 L 30.3125 388.523438 C 27.734375 388.523438 25.261719 387.5 23.441406 385.679688 C 21.617188 383.855469 20.59375 381.382812 20.59375 378.808594 L 20.59375 44.609375 C 20.59375 42.035156 21.617188 39.5625 23.441406 37.738281 C 25.261719 35.917969 27.734375 34.894531 30.3125 34.894531 Z M 30.3125 34.894531 " clip-rule="nonzero"/></clipPath><clipPath id="7b4c0b7a25"><path d="M 34.230469 66.796875 L 203.726562 66.796875 L 203.726562 124.574219 L 34.230469 124.574219 Z M 34.230469 66.796875 " clip-rule="nonzero"/></clipPath><clipPath id="3a67d8ca55"><path d="M 40.957031 66.796875 L 196.84375 66.796875 C 200.558594 66.796875 203.570312 69.808594 203.570312 73.523438 L 203.570312 117.84375 C 203.570312 121.5625 200.558594 124.574219 196.84375 124.574219 L 40.957031 124.574219 C 37.242188 124.574219 34.230469 121.5625 34.230469 117.84375 L 34.230469 73.523438 C 34.230469 69.808594 37.242188 66.796875 40.957031 66.796875 Z M 40.957031 66.796875 " clip-rule="nonzero"/></clipPath><clipPath id="324ec6cdcb"><path d="M 34.230469 66.796875 L 203.902344 66.796875 L 203.902344 124.351562 L 34.230469 124.351562 Z M 34.230469 66.796875 " clip-rule="nonzero"/></clipPath><clipPath id="ac2731ef8c"><path d="M 40.957031 66.796875 L 196.839844 66.796875 C 200.554688 66.796875 203.566406 69.808594 203.566406 73.523438 L 203.566406 117.84375 C 203.566406 121.558594 200.554688 124.570312 196.839844 124.570312 L 40.957031 124.570312 C 37.242188 124.570312 34.230469 121.558594 34.230469 117.84375 L 34.230469 73.523438 C 34.230469 69.808594 37.242188 66.796875 40.957031 66.796875 Z M 40.957031 66.796875 " clip-rule="nonzero"/></clipPath><clipPath id="06474526ba"><path d="M 39.757812 186.980469 L 142.15625 186.980469 L 142.15625 255.601562 L 39.757812 255.601562 Z M 39.757812 186.980469 " clip-rule="nonzero"/></clipPath><clipPath id="4ed0c9a484"><path d="M 91.132812 186.980469 C 62.757812 186.980469 39.757812 202.304688 39.757812 221.210938 C 39.757812 240.117188 62.757812 255.445312 91.132812 255.445312 C 119.503906 255.445312 142.503906 240.117188 142.503906 221.210938 C 142.503906 202.304688 119.503906 186.980469 91.132812 186.980469 Z M 91.132812 186.980469 " clip-rule="nonzero"/></clipPath><clipPath id="14dbe6c415"><path d="M 71.628906 298.789062 L 174.03125 298.789062 L 174.03125 367.410156 L 71.628906 367.410156 Z M 71.628906 298.789062 " clip-rule="nonzero"/></clipPath><clipPath id="2d092c9f95"><path d="M 123.003906 298.789062 C 94.632812 298.789062 71.628906 314.113281 71.628906 333.019531 C 71.628906 351.925781 94.632812 367.25 123.003906 367.25 C 151.378906 367.25 174.378906 351.925781 174.378906 333.019531 C 174.378906 314.113281 151.378906 298.789062 123.003906 298.789062 Z M 123.003906 298.789062 " clip-rule="nonzero"/></clipPath><clipPath id="e94f642b6f"><path d="M 85 361 L 133 361 L 133 618.203125 L 85 618.203125 Z M 85 361 " clip-rule="nonzero"/></clipPath><clipPath id="c5fe743830"><path d="M 0 422.910156 L 97.171875 422.910156 L 97.171875 491.53125 L 0 491.53125 Z M 0 422.910156 " clip-rule="nonzero"/></clipPath><clipPath id="90600a6419"><path d="M 48.585938 422.910156 C 21.753906 422.910156 0 438.238281 0 457.144531 C 0 476.046875 21.753906 491.375 48.585938 491.375 C 75.417969 491.375 97.167969 476.046875 97.167969 457.144531 C 97.167969 438.238281 75.417969 422.910156 48.585938 422.910156 Z M 48.585938 422.910156 " clip-rule="nonzero"/></clipPath><clipPath id="583a18c1e8"><path d="M 47 481 L 91 481 L 91 618.203125 L 47 618.203125 Z M 47 481 " clip-rule="nonzero"/></clipPath></defs><g clip-path="url(#18c7af1b6f)"><g clip-path="url(#58c20b2741)"><path stroke-linecap="butt" transform="matrix(0.747466, 0, 0, 0.747466, 20.59414, 34.893756)" fill="none" stroke-linejoin="miter" d="M 13.001738 0.00103767 L 247.376889 0.00103767 C 250.820816 0.00103767 254.128867 1.370247 256.569404 3.805558 C 259.004714 6.246094 260.373923 9.554145 260.373923 12.998072 L 260.373923 460.107554 C 260.373923 463.551481 259.004714 466.859532 256.569404 469.300069 C 254.128867 471.735379 250.820816 473.104588 247.376889 473.104588 L 13.001738 473.104588 C 9.552585 473.104588 6.244534 471.735379 3.809223 469.300069 C 1.368687 466.859532 -0.000522423 463.551481 -0.000522423 460.107554 L -0.000522423 12.998072 C -0.000522423 9.554145 1.368687 6.246094 3.809223 3.805558 C 6.244534 1.370247 9.552585 0.00103767 13.001738 0.00103767 Z M 13.001738 0.00103767 " stroke="#004aad" stroke-width="8" stroke-opacity="1" stroke-miterlimit="4"/></g></g><path fill="#ffffff" d="M 75.089844 53.332031 L 75.089844 51.339844 C 75.089844 46.523438 71.1875 42.621094 66.371094 42.621094 L 44.953125 42.621094 C 40.136719 42.621094 36.234375 38.714844 36.234375 33.898438 L 36.234375 16.457031 C 36.234375 11.640625 40.136719 7.738281 44.953125 7.738281 L 190.851562 7.738281 C 193.164062 7.738281 195.382812 8.65625 197.015625 10.292969 C 198.652344 11.925781 199.570312 14.144531 199.570312 16.457031 L 199.570312 33.898438 C 199.570312 36.210938 198.652344 38.429688 197.015625 40.066406 C 195.382812 41.699219 193.164062 42.621094 190.851562 42.621094 L 169.421875 42.621094 C 167.109375 42.621094 164.890625 43.539062 163.257812 45.171875 C 161.621094 46.808594 160.703125 49.027344 160.703125 51.339844 L 160.703125 53.332031 C 160.703125 55.644531 159.785156 57.863281 158.148438 59.5 C 156.511719 61.136719 154.296875 62.054688 151.980469 62.054688 L 83.8125 62.054688 C 78.996094 62.054688 75.089844 58.148438 75.089844 53.332031 Z M 75.089844 53.332031 " fill-opacity="1" fill-rule="nonzero"/><g fill="#004aad" fill-opacity="1"><g transform="translate(44.206975, 33.400683)"><g><path d="M 8.9375 -9.546875 C 8.9375 -10.148438 8.738281 -10.613281 8.34375 -10.9375 C 7.957031 -11.269531 7.390625 -11.4375 6.640625 -11.4375 L 4.78125 -11.4375 L 4.78125 -7.546875 L 6.71875 -7.546875 C 7.414062 -7.546875 7.957031 -7.722656 8.34375 -8.078125 C 8.738281 -8.429688 8.9375 -8.921875 8.9375 -9.546875 Z M 12.203125 -9.5625 C 12.203125 -8.59375 11.945312 -7.773438 11.4375 -7.109375 C 10.9375 -6.453125 10.222656 -5.976562 9.296875 -5.6875 L 12.9375 0 L 9.296875 0 L 6.265625 -5.296875 L 4.78125 -5.296875 L 4.78125 0 L 1.53125 0 L 1.53125 -13.703125 L 6.984375 -13.703125 C 8.671875 -13.703125 9.960938 -13.34375 10.859375 -12.625 C 11.753906 -11.914062 12.203125 -10.894531 12.203125 -9.5625 Z M 12.203125 -9.5625 "/></g></g></g><g fill="#004aad" fill-opacity="1"><g transform="translate(57.214422, 33.400683)"><g><path d="M 1.53125 0 L 1.53125 -13.703125 L 9.671875 -13.703125 L 9.671875 -11.15625 L 4.8125 -11.15625 L 4.8125 -8.171875 L 9.0625 -8.171875 L 9.0625 -5.703125 L 4.8125 -5.703125 L 4.8125 -2.53125 L 10.0625 -2.53125 L 10.0625 0 Z M 1.53125 0 "/></g></g></g><g fill="#004aad" fill-opacity="1"><g transform="translate(67.818848, 33.400683)"><g><path d="M 8.546875 -9.34375 C 8.546875 -10.007812 8.351562 -10.523438 7.96875 -10.890625 C 7.582031 -11.253906 7.003906 -11.4375 6.234375 -11.4375 L 4.78125 -11.4375 L 4.78125 -7.171875 L 6.3125 -7.171875 C 7.03125 -7.171875 7.582031 -7.359375 7.96875 -7.734375 C 8.351562 -8.109375 8.546875 -8.644531 8.546875 -9.34375 Z M 11.8125 -9.375 C 11.8125 -8.476562 11.609375 -7.691406 11.203125 -7.015625 C 10.804688 -6.347656 10.222656 -5.828125 9.453125 -5.453125 C 8.679688 -5.085938 7.757812 -4.90625 6.6875 -4.90625 L 4.78125 -4.90625 L 4.78125 0 L 1.53125 0 L 1.53125 -13.703125 L 6.59375 -13.703125 C 8.28125 -13.703125 9.570312 -13.332031 10.46875 -12.59375 C 11.363281 -11.851562 11.8125 -10.78125 11.8125 -9.375 Z M 11.8125 -9.375 "/></g></g></g><g fill="#004aad" fill-opacity="1"><g transform="translate(80.057717, 33.400683)"><g><path d="M 8.9375 -9.546875 C 8.9375 -10.148438 8.738281 -10.613281 8.34375 -10.9375 C 7.957031 -11.269531 7.390625 -11.4375 6.640625 -11.4375 L 4.78125 -11.4375 L 4.78125 -7.546875 L 6.71875 -7.546875 C 7.414062 -7.546875 7.957031 -7.722656 8.34375 -8.078125 C 8.738281 -8.429688 8.9375 -8.921875 8.9375 -9.546875 Z M 12.203125 -9.5625 C 12.203125 -8.59375 11.945312 -7.773438 11.4375 -7.109375 C 10.9375 -6.453125 10.222656 -5.976562 9.296875 -5.6875 L 12.9375 0 L 9.296875 0 L 6.265625 -5.296875 L 4.78125 -5.296875 L 4.78125 0 L 1.53125 0 L 1.53125 -13.703125 L 6.984375 -13.703125 C 8.671875 -13.703125 9.960938 -13.34375 10.859375 -12.625 C 11.753906 -11.914062 12.203125 -10.894531 12.203125 -9.5625 Z M 12.203125 -9.5625 "/></g></g></g><g fill="#004aad" fill-opacity="1"><g transform="translate(93.065164, 33.400683)"><g><path d="M 14.1875 -6.921875 C 14.1875 -4.671875 13.601562 -2.921875 12.4375 -1.671875 C 11.28125 -0.429688 9.644531 0.1875 7.53125 0.1875 C 5.40625 0.1875 3.769531 -0.421875 2.625 -1.640625 C 1.488281 -2.867188 0.921875 -4.628906 0.921875 -6.921875 C 0.921875 -9.171875 1.488281 -10.894531 2.625 -12.09375 C 3.769531 -13.300781 5.414062 -13.90625 7.5625 -13.90625 C 9.695312 -13.90625 11.332031 -13.300781 12.46875 -12.09375 C 13.613281 -10.894531 14.1875 -9.171875 14.1875 -6.921875 Z M 10.90625 -6.921875 C 10.90625 -9.890625 9.789062 -11.375 7.5625 -11.375 C 6.4375 -11.375 5.59375 -11.007812 5.03125 -10.28125 C 4.476562 -9.5625 4.203125 -8.441406 4.203125 -6.921875 C 4.203125 -3.859375 5.3125 -2.328125 7.53125 -2.328125 C 8.675781 -2.328125 9.523438 -2.691406 10.078125 -3.421875 C 10.628906 -4.160156 10.90625 -5.328125 10.90625 -6.921875 Z M 10.90625 -6.921875 "/></g></g></g><g fill="#004aad" fill-opacity="1"><g transform="translate(108.174038, 33.400683)"><g><path d="M 10.484375 -6.9375 C 10.484375 -8.3125 10.132812 -9.359375 9.4375 -10.078125 C 8.75 -10.804688 7.75 -11.171875 6.4375 -11.171875 L 4.78125 -11.171875 L 4.78125 -2.53125 L 6.8125 -2.53125 C 7.945312 -2.53125 8.84375 -2.921875 9.5 -3.703125 C 10.15625 -4.484375 10.484375 -5.5625 10.484375 -6.9375 Z M 13.75 -6.9375 C 13.75 -5.53125 13.472656 -4.300781 12.921875 -3.25 C 12.367188 -2.195312 11.585938 -1.390625 10.578125 -0.828125 C 9.578125 -0.273438 8.410156 0 7.078125 0 L 1.53125 0 L 1.53125 -13.703125 L 6.5 -13.703125 C 8.8125 -13.703125 10.597656 -13.113281 11.859375 -11.9375 C 13.117188 -10.769531 13.75 -9.101562 13.75 -6.9375 Z M 13.75 -6.9375 "/></g></g></g><g fill="#004aad" fill-opacity="1"><g transform="translate(122.864572, 33.400683)"><g><path d="M 12.984375 -5.328125 C 12.984375 -3.503906 12.492188 -2.128906 11.515625 -1.203125 C 10.535156 -0.273438 9.082031 0.1875 7.15625 0.1875 C 5.25 0.1875 3.816406 -0.265625 2.859375 -1.171875 C 1.898438 -2.078125 1.421875 -3.421875 1.421875 -5.203125 L 1.421875 -13.703125 L 4.671875 -13.703125 L 4.671875 -5.421875 C 4.671875 -4.335938 4.890625 -3.550781 5.328125 -3.0625 C 5.765625 -2.570312 6.40625 -2.328125 7.25 -2.328125 C 8.101562 -2.328125 8.734375 -2.582031 9.140625 -3.09375 C 9.546875 -3.613281 9.75 -4.425781 9.75 -5.53125 L 9.75 -13.703125 L 12.984375 -13.703125 Z M 12.984375 -5.328125 "/></g></g></g><g fill="#004aad" fill-opacity="1"><g transform="translate(137.27297, 33.400683)"><g><path d="M 6.796875 0.1875 C 4.921875 0.1875 3.472656 -0.429688 2.453125 -1.671875 C 1.429688 -2.910156 0.921875 -4.660156 0.921875 -6.921875 C 0.921875 -9.171875 1.410156 -10.894531 2.390625 -12.09375 C 3.378906 -13.300781 4.820312 -13.90625 6.71875 -13.90625 C 8 -13.90625 9.0625 -13.609375 9.90625 -13.015625 C 10.757812 -12.429688 11.441406 -11.457031 11.953125 -10.09375 L 9.15625 -9.15625 C 8.9375 -9.882812 8.625 -10.4375 8.21875 -10.8125 C 7.820312 -11.1875 7.351562 -11.375 6.8125 -11.375 C 5.957031 -11.375 5.304688 -10.992188 4.859375 -10.234375 C 4.421875 -9.484375 4.203125 -8.378906 4.203125 -6.921875 C 4.203125 -5.472656 4.421875 -4.34375 4.859375 -3.53125 C 5.304688 -2.726562 5.945312 -2.328125 6.78125 -2.328125 C 7.28125 -2.328125 7.71875 -2.515625 8.09375 -2.890625 C 8.476562 -3.273438 8.804688 -3.894531 9.078125 -4.75 L 12 -3.71875 C 11.46875 -2.34375 10.773438 -1.347656 9.921875 -0.734375 C 9.066406 -0.117188 8.023438 0.1875 6.796875 0.1875 Z M 6.796875 0.1875 "/></g></g></g><g fill="#004aad" fill-opacity="1"><g transform="translate(149.706416, 33.400683)"><g><path d="M 7.46875 -11.140625 L 7.46875 0 L 4.21875 0 L 4.21875 -11.140625 L 0.28125 -11.140625 L 0.28125 -13.703125 L 11.390625 -13.703125 L 11.390625 -11.140625 Z M 7.46875 -11.140625 "/></g></g></g><g fill="#004aad" fill-opacity="1"><g transform="translate(161.381013, 33.400683)"><g><path d="M 1.53125 0 L 1.53125 -13.703125 L 4.8125 -13.703125 L 4.8125 0 Z M 1.53125 0 "/></g></g></g><g fill="#004aad" fill-opacity="1"><g transform="translate(167.695024, 33.400683)"><g><path d="M 8.28125 0 L 5.015625 0 L 0 -13.703125 L 3.34375 -13.703125 L 6 -5.171875 C 6.175781 -4.597656 6.316406 -4.085938 6.421875 -3.640625 C 6.523438 -3.203125 6.613281 -2.84375 6.6875 -2.5625 C 6.8125 -3.238281 7.023438 -4.078125 7.328125 -5.078125 L 9.96875 -13.703125 L 13.3125 -13.703125 Z M 8.28125 0 "/></g></g></g><g fill="#004aad" fill-opacity="1"><g transform="translate(180.984607, 33.400683)"><g><path d="M 1.53125 0 L 1.53125 -13.703125 L 9.671875 -13.703125 L 9.671875 -11.15625 L 4.8125 -11.15625 L 4.8125 -8.171875 L 9.0625 -8.171875 L 9.0625 -5.703125 L 4.8125 -5.703125 L 4.8125 -2.53125 L 10.0625 -2.53125 L 10.0625 0 Z M 1.53125 0 "/></g></g></g><g fill="#004aad" fill-opacity="1"><g transform="translate(83.063538, 52.834804)"><g><path d="M 14.65625 0 L 14.65625 -7.953125 C 14.65625 -8.429688 14.660156 -8.914062 14.671875 -9.40625 C 14.679688 -9.894531 14.691406 -10.382812 14.703125 -10.875 C 14.566406 -10.488281 14.429688 -10.09375 14.296875 -9.6875 C 14.171875 -9.289062 14.035156 -8.894531 13.890625 -8.5 L 10.703125 0 L 8.4375 0 L 5.171875 -8.5 C 4.847656 -9.3125 4.582031 -10.101562 4.375 -10.875 C 4.382812 -10.382812 4.394531 -9.898438 4.40625 -9.421875 C 4.414062 -8.941406 4.421875 -8.457031 4.421875 -7.96875 L 4.421875 0 L 1.53125 0 L 1.53125 -13.703125 L 5.90625 -13.703125 L 8.1875 -7.765625 C 8.476562 -7.035156 8.769531 -6.25 9.0625 -5.40625 C 9.351562 -4.5625 9.519531 -4.015625 9.5625 -3.765625 C 10.0625 -5.210938 10.554688 -6.582031 11.046875 -7.875 L 13.203125 -13.703125 L 17.53125 -13.703125 L 17.53125 0 Z M 14.65625 0 "/></g></g></g><g fill="#004aad" fill-opacity="1"><g transform="translate(102.132046, 52.834804)"><g><path d="M 14.1875 -6.921875 C 14.1875 -4.671875 13.601562 -2.921875 12.4375 -1.671875 C 11.28125 -0.429688 9.644531 0.1875 7.53125 0.1875 C 5.40625 0.1875 3.769531 -0.421875 2.625 -1.640625 C 1.488281 -2.867188 0.921875 -4.628906 0.921875 -6.921875 C 0.921875 -9.171875 1.488281 -10.894531 2.625 -12.09375 C 3.769531 -13.300781 5.414062 -13.90625 7.5625 -13.90625 C 9.695312 -13.90625 11.332031 -13.300781 12.46875 -12.09375 C 13.613281 -10.894531 14.1875 -9.171875 14.1875 -6.921875 Z M 10.90625 -6.921875 C 10.90625 -9.890625 9.789062 -11.375 7.5625 -11.375 C 6.4375 -11.375 5.59375 -11.007812 5.03125 -10.28125 C 4.476562 -9.5625 4.203125 -8.441406 4.203125 -6.921875 C 4.203125 -3.859375 5.3125 -2.328125 7.53125 -2.328125 C 8.675781 -2.328125 9.523438 -2.691406 10.078125 -3.421875 C 10.628906 -4.160156 10.90625 -5.328125 10.90625 -6.921875 Z M 10.90625 -6.921875 "/></g></g></g><g fill="#004aad" fill-opacity="1"><g transform="translate(117.24092, 52.834804)"><g><path d="M 10.484375 -6.9375 C 10.484375 -8.3125 10.132812 -9.359375 9.4375 -10.078125 C 8.75 -10.804688 7.75 -11.171875 6.4375 -11.171875 L 4.78125 -11.171875 L 4.78125 -2.53125 L 6.8125 -2.53125 C 7.945312 -2.53125 8.84375 -2.921875 9.5 -3.703125 C 10.15625 -4.484375 10.484375 -5.5625 10.484375 -6.9375 Z M 13.75 -6.9375 C 13.75 -5.53125 13.472656 -4.300781 12.921875 -3.25 C 12.367188 -2.195312 11.585938 -1.390625 10.578125 -0.828125 C 9.578125 -0.273438 8.410156 0 7.078125 0 L 1.53125 0 L 1.53125 -13.703125 L 6.5 -13.703125 C 8.8125 -13.703125 10.597656 -13.113281 11.859375 -11.9375 C 13.117188 -10.769531 13.75 -9.101562 13.75 -6.9375 Z M 13.75 -6.9375 "/></g></g></g><g fill="#004aad" fill-opacity="1"><g transform="translate(131.931454, 52.834804)"><g><path d="M 1.53125 0 L 1.53125 -13.703125 L 9.671875 -13.703125 L 9.671875 -11.15625 L 4.8125 -11.15625 L 4.8125 -8.171875 L 9.0625 -8.171875 L 9.0625 -5.703125 L 4.8125 -5.703125 L 4.8125 -2.53125 L 10.0625 -2.53125 L 10.0625 0 Z M 1.53125 0 "/></g></g></g><g fill="#004aad" fill-opacity="1"><g transform="translate(142.53588, 52.834804)"><g><path d="M 1.53125 0 L 1.53125 -13.703125 L 4.8125 -13.703125 L 4.8125 -2.53125 L 9.84375 -2.53125 L 9.84375 0 Z M 1.53125 0 "/></g></g></g><g clip-path="url(#7b4c0b7a25)"><g clip-path="url(#3a67d8ca55)"><path fill="#004aad" d="M 34.230469 66.796875 L 203.5 66.796875 L 203.5 124.574219 L 34.230469 124.574219 Z M 34.230469 66.796875 " fill-opacity="1" fill-rule="nonzero"/></g></g><g clip-path="url(#324ec6cdcb)"><g clip-path="url(#ac2731ef8c)"><path stroke-linecap="butt" transform="matrix(0.747466, 0, 0, 0.747466, 34.229301, 66.795613)" fill="none" stroke-linejoin="miter" d="M 9.000715 0.00168885 L 217.549028 0.00168885 C 222.518944 0.00168885 226.548181 4.030926 226.548181 9.000842 L 226.548181 68.294912 C 226.548181 73.264827 222.518944 77.294065 217.549028 77.294065 L 9.000715 77.294065 C 4.030799 77.294065 0.00156169 73.264827 0.00156169 68.294912 L 0.00156169 9.000842 C 0.00156169 4.030926 4.030799 0.00168885 9.000715 0.00168885 Z M 9.000715 0.00168885 " stroke="#004aad" stroke-width="8" stroke-opacity="1" stroke-miterlimit="4"/></g></g><g fill="#ffffff" fill-opacity="1"><g transform="translate(79.732269, 93.437936)"><g><path d="M 4.328125 -10.03125 L 4.328125 -6.859375 L 8.546875 -6.859375 L 8.546875 -4.640625 L 4.328125 -4.640625 L 4.328125 0 L 1.390625 0 L 1.390625 -12.34375 L 8.75 -12.34375 L 8.75 -10.03125 Z M 4.328125 -10.03125 "/></g></g></g><g fill="#ffffff" fill-opacity="1"><g transform="translate(89.114815, 93.437936)"><g><path d="M 1.15625 0 L 1.15625 -12.734375 L 3.9375 -12.734375 L 3.9375 0 Z M 1.15625 0 "/></g></g></g><g fill="#ffffff" fill-opacity="1"><g transform="translate(94.266586, 93.437936)"><g><path d="M 3.5625 -3.953125 C 3.625 -3.148438 3.785156 -2.554688 4.046875 -2.171875 C 4.304688 -1.785156 4.6875 -1.59375 5.1875 -1.59375 C 5.5 -1.59375 5.773438 -1.691406 6.015625 -1.890625 C 6.265625 -2.097656 6.519531 -2.488281 6.78125 -3.0625 L 8.96875 -2.109375 C 8.539062 -1.441406 8.148438 -0.960938 7.796875 -0.671875 C 7.441406 -0.390625 7.03125 -0.175781 6.5625 -0.03125 C 6.09375 0.101562 5.53125 0.171875 4.875 0.171875 C 3.519531 0.171875 2.472656 -0.234375 1.734375 -1.046875 C 1.003906 -1.867188 0.640625 -3.035156 0.640625 -4.546875 C 0.640625 -6.066406 1.007812 -7.222656 1.75 -8.015625 C 2.488281 -8.816406 3.582031 -9.21875 5.03125 -9.21875 C 6.363281 -9.21875 7.375 -8.785156 8.0625 -7.921875 C 8.75 -7.054688 9.09375 -5.773438 9.09375 -4.078125 L 9.09375 -3.953125 Z M 4.953125 -7.5 C 4.578125 -7.5 4.265625 -7.335938 4.015625 -7.015625 C 3.765625 -6.703125 3.617188 -6.210938 3.578125 -5.546875 L 6.25 -5.546875 C 6.195312 -6.222656 6.070312 -6.71875 5.875 -7.03125 C 5.675781 -7.34375 5.367188 -7.5 4.953125 -7.5 Z M 4.953125 -7.5 "/></g></g></g><g fill="#ffffff" fill-opacity="1"><g transform="translate(104.025787, 93.437936)"><g><path d="M 3.53125 -4.5 C 3.53125 -3.550781 3.675781 -2.847656 3.96875 -2.390625 C 4.269531 -1.941406 4.71875 -1.71875 5.3125 -1.71875 C 5.914062 -1.71875 6.378906 -1.96875 6.703125 -2.46875 C 7.023438 -2.96875 7.1875 -3.671875 7.1875 -4.578125 C 7.1875 -5.453125 7.03125 -6.125 6.71875 -6.59375 C 6.40625 -7.0625 5.941406 -7.296875 5.328125 -7.296875 C 4.722656 -7.296875 4.269531 -7.070312 3.96875 -6.625 C 3.675781 -6.175781 3.53125 -5.46875 3.53125 -4.5 Z M 0.625 -4.5 C 0.625 -6.019531 0.945312 -7.179688 1.59375 -7.984375 C 2.238281 -8.796875 3.175781 -9.203125 4.40625 -9.203125 C 5.6875 -9.203125 6.609375 -8.65625 7.171875 -7.5625 L 7.203125 -7.5625 C 7.171875 -8 7.15625 -8.523438 7.15625 -9.140625 L 7.15625 -12.734375 L 9.9375 -12.734375 L 9.9375 -2.109375 C 9.9375 -1.484375 9.96875 -0.78125 10.03125 0 L 7.296875 0 C 7.265625 -0.0820312 7.234375 -0.300781 7.203125 -0.65625 C 7.171875 -1.019531 7.15625 -1.296875 7.15625 -1.484375 L 7.125 -1.484375 C 6.601562 -0.390625 5.65625 0.15625 4.28125 0.15625 C 3.082031 0.15625 2.171875 -0.238281 1.546875 -1.03125 C 0.929688 -1.832031 0.625 -2.988281 0.625 -4.5 Z M 0.625 -4.5 "/></g></g></g><g fill="#ffffff" fill-opacity="1"><g transform="translate(115.186484, 93.437936)"><g><path d="M 0.625 -4.625 C 0.625 -6.132812 0.953125 -7.273438 1.609375 -8.046875 C 2.273438 -8.816406 3.238281 -9.203125 4.5 -9.203125 C 5.082031 -9.203125 5.609375 -9.0625 6.078125 -8.78125 C 6.554688 -8.507812 6.925781 -8.097656 7.1875 -7.546875 L 7.21875 -7.546875 C 7.21875 -7.734375 7.226562 -8 7.25 -8.34375 C 7.28125 -8.695312 7.316406 -8.925781 7.359375 -9.03125 L 10.015625 -9.03125 C 9.960938 -8.570312 9.9375 -7.878906 9.9375 -6.953125 L 9.9375 -0.265625 C 9.9375 1.085938 9.53125 2.128906 8.71875 2.859375 C 7.914062 3.597656 6.765625 3.96875 5.265625 3.96875 C 2.773438 3.96875 1.367188 3.117188 1.046875 1.421875 L 3.796875 1.015625 C 3.984375 1.765625 4.507812 2.140625 5.375 2.140625 C 6.59375 2.140625 7.203125 1.335938 7.203125 -0.265625 L 7.203125 -1 C 7.203125 -1.125 7.203125 -1.253906 7.203125 -1.390625 C 7.203125 -1.535156 7.207031 -1.671875 7.21875 -1.796875 L 7.1875 -1.796875 C 6.625 -0.628906 5.664062 -0.046875 4.3125 -0.046875 C 3.113281 -0.046875 2.195312 -0.429688 1.5625 -1.203125 C 0.9375 -1.972656 0.625 -3.113281 0.625 -4.625 Z M 3.53125 -4.625 C 3.53125 -2.851562 4.125 -1.96875 5.3125 -1.96875 C 5.914062 -1.96875 6.375 -2.195312 6.6875 -2.65625 C 7.007812 -3.125 7.171875 -3.789062 7.171875 -4.65625 C 7.171875 -5.488281 7.015625 -6.132812 6.703125 -6.59375 C 6.390625 -7.0625 5.929688 -7.296875 5.328125 -7.296875 C 4.128906 -7.296875 3.53125 -6.40625 3.53125 -4.625 Z M 3.53125 -4.625 "/></g></g></g><g fill="#ffffff" fill-opacity="1"><g transform="translate(126.34718, 93.437936)"><g><path d="M 1.15625 -10.65625 L 1.15625 -12.734375 L 3.921875 -12.734375 L 3.921875 -10.65625 Z M 1.15625 0 L 1.15625 -9.03125 L 3.9375 -9.03125 L 3.9375 0 Z M 1.15625 0 "/></g></g></g><g fill="#ffffff" fill-opacity="1"><g transform="translate(131.49895, 93.437936)"><g><path d="M 7.03125 0 L 7.03125 -4.9375 C 7.03125 -6.40625 6.570312 -7.140625 5.65625 -7.140625 C 5.132812 -7.140625 4.71875 -6.898438 4.40625 -6.421875 C 4.09375 -5.953125 3.9375 -5.316406 3.9375 -4.515625 L 3.9375 0 L 1.15625 0 L 1.15625 -6.890625 C 1.15625 -7.441406 1.125 -8.15625 1.0625 -9.03125 L 3.734375 -9.03125 C 3.742188 -8.957031 3.753906 -8.847656 3.765625 -8.703125 C 3.785156 -8.554688 3.800781 -8.390625 3.8125 -8.203125 C 3.820312 -8.023438 3.832031 -7.84375 3.84375 -7.65625 C 3.851562 -7.476562 3.859375 -7.3125 3.859375 -7.15625 L 3.890625 -7.15625 C 4.222656 -7.882812 4.625 -8.410156 5.09375 -8.734375 C 5.570312 -9.054688 6.144531 -9.21875 6.8125 -9.21875 C 7.789062 -9.21875 8.535156 -8.914062 9.046875 -8.3125 C 9.554688 -7.707031 9.8125 -6.796875 9.8125 -5.578125 L 9.8125 0 Z M 7.03125 0 "/></g></g></g><g fill="#ffffff" fill-opacity="1"><g transform="translate(142.405625, 93.437936)"><g><path d="M 0.625 -4.625 C 0.625 -6.132812 0.953125 -7.273438 1.609375 -8.046875 C 2.273438 -8.816406 3.238281 -9.203125 4.5 -9.203125 C 5.082031 -9.203125 5.609375 -9.0625 6.078125 -8.78125 C 6.554688 -8.507812 6.925781 -8.097656 7.1875 -7.546875 L 7.21875 -7.546875 C 7.21875 -7.734375 7.226562 -8 7.25 -8.34375 C 7.28125 -8.695312 7.316406 -8.925781 7.359375 -9.03125 L 10.015625 -9.03125 C 9.960938 -8.570312 9.9375 -7.878906 9.9375 -6.953125 L 9.9375 -0.265625 C 9.9375 1.085938 9.53125 2.128906 8.71875 2.859375 C 7.914062 3.597656 6.765625 3.96875 5.265625 3.96875 C 2.773438 3.96875 1.367188 3.117188 1.046875 1.421875 L 3.796875 1.015625 C 3.984375 1.765625 4.507812 2.140625 5.375 2.140625 C 6.59375 2.140625 7.203125 1.335938 7.203125 -0.265625 L 7.203125 -1 C 7.203125 -1.125 7.203125 -1.253906 7.203125 -1.390625 C 7.203125 -1.535156 7.207031 -1.671875 7.21875 -1.796875 L 7.1875 -1.796875 C 6.625 -0.628906 5.664062 -0.046875 4.3125 -0.046875 C 3.113281 -0.046875 2.195312 -0.429688 1.5625 -1.203125 C 0.9375 -1.972656 0.625 -3.113281 0.625 -4.625 Z M 3.53125 -4.625 C 3.53125 -2.851562 4.125 -1.96875 5.3125 -1.96875 C 5.914062 -1.96875 6.375 -2.195312 6.6875 -2.65625 C 7.007812 -3.125 7.171875 -3.789062 7.171875 -4.65625 C 7.171875 -5.488281 7.015625 -6.132812 6.703125 -6.59375 C 6.390625 -7.0625 5.929688 -7.296875 5.328125 -7.296875 C 4.128906 -7.296875 3.53125 -6.40625 3.53125 -4.625 Z M 3.53125 -4.625 "/></g></g></g><g fill="#ffffff" fill-opacity="1"><g transform="translate(64.420891, 111.377125)"><g><path d="M 7.484375 -2.6875 C 7.484375 -1.78125 7.171875 -1.078125 6.546875 -0.578125 C 5.921875 -0.078125 5.0625 0.171875 3.96875 0.171875 C 2.789062 0.171875 1.941406 -0.00390625 1.421875 -0.359375 C 0.898438 -0.710938 0.550781 -1.300781 0.375 -2.125 L 2.703125 -2.46875 C 2.804688 -1.820312 3.207031 -1.5 3.90625 -1.5 C 4.207031 -1.5 4.453125 -1.566406 4.640625 -1.703125 C 4.835938 -1.835938 4.9375 -2.050781 4.9375 -2.34375 C 4.9375 -2.550781 4.878906 -2.734375 4.765625 -2.890625 C 4.660156 -3.046875 4.492188 -3.179688 4.265625 -3.296875 C 4.046875 -3.410156 3.640625 -3.554688 3.046875 -3.734375 C 2.378906 -3.929688 1.898438 -4.140625 1.609375 -4.359375 C 1.316406 -4.578125 1.09375 -4.851562 0.9375 -5.1875 C 0.78125 -5.519531 0.703125 -5.9375 0.703125 -6.4375 C 0.703125 -7.3125 0.988281 -7.992188 1.5625 -8.484375 C 2.132812 -8.972656 2.945312 -9.21875 4 -9.21875 C 5.019531 -9.21875 5.785156 -9.035156 6.296875 -8.671875 C 6.816406 -8.304688 7.132812 -7.75 7.25 -7 L 4.921875 -6.78125 C 4.878906 -7.050781 4.785156 -7.242188 4.640625 -7.359375 C 4.492188 -7.472656 4.296875 -7.53125 4.046875 -7.53125 C 3.503906 -7.53125 3.234375 -7.28125 3.234375 -6.78125 C 3.234375 -6.507812 3.34375 -6.285156 3.5625 -6.109375 C 3.78125 -5.929688 4.242188 -5.742188 4.953125 -5.546875 C 5.679688 -5.335938 6.203125 -5.113281 6.515625 -4.875 C 6.828125 -4.644531 7.066406 -4.351562 7.234375 -4 C 7.398438 -3.644531 7.484375 -3.207031 7.484375 -2.6875 Z M 7.484375 -2.6875 "/></g></g></g><g fill="#ffffff" fill-opacity="1"><g transform="translate(72.366901, 111.377125)"><g><path d="M 3.8125 -9.03125 L 3.8125 -4.109375 C 3.8125 -2.640625 4.269531 -1.90625 5.1875 -1.90625 C 5.707031 -1.90625 6.125 -2.140625 6.4375 -2.609375 C 6.75 -3.078125 6.90625 -3.710938 6.90625 -4.515625 L 6.90625 -9.03125 L 9.6875 -9.03125 L 9.6875 -2.15625 C 9.6875 -1.789062 9.695312 -1.375 9.71875 -0.90625 C 9.738281 -0.4375 9.757812 -0.132812 9.78125 0 L 7.109375 0 C 7.085938 -0.125 7.0625 -0.40625 7.03125 -0.84375 C 7 -1.289062 6.984375 -1.640625 6.984375 -1.890625 L 6.953125 -1.890625 C 6.617188 -1.148438 6.210938 -0.617188 5.734375 -0.296875 C 5.265625 0.0234375 4.695312 0.1875 4.03125 0.1875 C 3.050781 0.1875 2.304688 -0.113281 1.796875 -0.71875 C 1.285156 -1.332031 1.03125 -2.242188 1.03125 -3.453125 L 1.03125 -9.03125 Z M 3.8125 -9.03125 "/></g></g></g><g fill="#ffffff" fill-opacity="1"><g transform="translate(83.273578, 111.377125)"><g><path d="M 0.625 -4.484375 C 0.625 -6.003906 0.960938 -7.175781 1.640625 -8 C 2.328125 -8.820312 3.289062 -9.234375 4.53125 -9.234375 C 6.6875 -9.234375 7.929688 -8.175781 8.265625 -6.0625 L 5.53125 -5.828125 C 5.5 -6.304688 5.390625 -6.675781 5.203125 -6.9375 C 5.023438 -7.195312 4.804688 -7.328125 4.546875 -7.328125 C 4.148438 -7.328125 3.863281 -7.109375 3.6875 -6.671875 C 3.507812 -6.234375 3.421875 -5.535156 3.421875 -4.578125 C 3.421875 -3.609375 3.519531 -2.894531 3.71875 -2.4375 C 3.925781 -1.976562 4.203125 -1.75 4.546875 -1.75 C 5.117188 -1.75 5.46875 -2.296875 5.59375 -3.390625 L 8.265625 -3.140625 C 8.140625 -2.046875 7.757812 -1.21875 7.125 -0.65625 C 6.5 -0.101562 5.648438 0.171875 4.578125 0.171875 C 3.316406 0.171875 2.34375 -0.238281 1.65625 -1.0625 C 0.96875 -1.882812 0.625 -3.023438 0.625 -4.484375 Z M 0.625 -4.484375 "/></g></g></g><g fill="#ffffff" fill-opacity="1"><g transform="translate(91.937857, 111.377125)"><g><path d="M 0.625 -4.484375 C 0.625 -6.003906 0.960938 -7.175781 1.640625 -8 C 2.328125 -8.820312 3.289062 -9.234375 4.53125 -9.234375 C 6.6875 -9.234375 7.929688 -8.175781 8.265625 -6.0625 L 5.53125 -5.828125 C 5.5 -6.304688 5.390625 -6.675781 5.203125 -6.9375 C 5.023438 -7.195312 4.804688 -7.328125 4.546875 -7.328125 C 4.148438 -7.328125 3.863281 -7.109375 3.6875 -6.671875 C 3.507812 -6.234375 3.421875 -5.535156 3.421875 -4.578125 C 3.421875 -3.609375 3.519531 -2.894531 3.71875 -2.4375 C 3.925781 -1.976562 4.203125 -1.75 4.546875 -1.75 C 5.117188 -1.75 5.46875 -2.296875 5.59375 -3.390625 L 8.265625 -3.140625 C 8.140625 -2.046875 7.757812 -1.21875 7.125 -0.65625 C 6.5 -0.101562 5.648438 0.171875 4.578125 0.171875 C 3.316406 0.171875 2.34375 -0.238281 1.65625 -1.0625 C 0.96875 -1.882812 0.625 -3.023438 0.625 -4.484375 Z M 0.625 -4.484375 "/></g></g></g><g fill="#ffffff" fill-opacity="1"><g transform="translate(100.602134, 111.377125)"><g><path d="M 3.5625 -3.953125 C 3.625 -3.148438 3.785156 -2.554688 4.046875 -2.171875 C 4.304688 -1.785156 4.6875 -1.59375 5.1875 -1.59375 C 5.5 -1.59375 5.773438 -1.691406 6.015625 -1.890625 C 6.265625 -2.097656 6.519531 -2.488281 6.78125 -3.0625 L 8.96875 -2.109375 C 8.539062 -1.441406 8.148438 -0.960938 7.796875 -0.671875 C 7.441406 -0.390625 7.03125 -0.175781 6.5625 -0.03125 C 6.09375 0.101562 5.53125 0.171875 4.875 0.171875 C 3.519531 0.171875 2.472656 -0.234375 1.734375 -1.046875 C 1.003906 -1.867188 0.640625 -3.035156 0.640625 -4.546875 C 0.640625 -6.066406 1.007812 -7.222656 1.75 -8.015625 C 2.488281 -8.816406 3.582031 -9.21875 5.03125 -9.21875 C 6.363281 -9.21875 7.375 -8.785156 8.0625 -7.921875 C 8.75 -7.054688 9.09375 -5.773438 9.09375 -4.078125 L 9.09375 -3.953125 Z M 4.953125 -7.5 C 4.578125 -7.5 4.265625 -7.335938 4.015625 -7.015625 C 3.765625 -6.703125 3.617188 -6.210938 3.578125 -5.546875 L 6.25 -5.546875 C 6.195312 -6.222656 6.070312 -6.71875 5.875 -7.03125 C 5.675781 -7.34375 5.367188 -7.5 4.953125 -7.5 Z M 4.953125 -7.5 "/></g></g></g><g fill="#ffffff" fill-opacity="1"><g transform="translate(110.361331, 111.377125)"><g><path d="M 7.484375 -2.6875 C 7.484375 -1.78125 7.171875 -1.078125 6.546875 -0.578125 C 5.921875 -0.078125 5.0625 0.171875 3.96875 0.171875 C 2.789062 0.171875 1.941406 -0.00390625 1.421875 -0.359375 C 0.898438 -0.710938 0.550781 -1.300781 0.375 -2.125 L 2.703125 -2.46875 C 2.804688 -1.820312 3.207031 -1.5 3.90625 -1.5 C 4.207031 -1.5 4.453125 -1.566406 4.640625 -1.703125 C 4.835938 -1.835938 4.9375 -2.050781 4.9375 -2.34375 C 4.9375 -2.550781 4.878906 -2.734375 4.765625 -2.890625 C 4.660156 -3.046875 4.492188 -3.179688 4.265625 -3.296875 C 4.046875 -3.410156 3.640625 -3.554688 3.046875 -3.734375 C 2.378906 -3.929688 1.898438 -4.140625 1.609375 -4.359375 C 1.316406 -4.578125 1.09375 -4.851562 0.9375 -5.1875 C 0.78125 -5.519531 0.703125 -5.9375 0.703125 -6.4375 C 0.703125 -7.3125 0.988281 -7.992188 1.5625 -8.484375 C 2.132812 -8.972656 2.945312 -9.21875 4 -9.21875 C 5.019531 -9.21875 5.785156 -9.035156 6.296875 -8.671875 C 6.816406 -8.304688 7.132812 -7.75 7.25 -7 L 4.921875 -6.78125 C 4.878906 -7.050781 4.785156 -7.242188 4.640625 -7.359375 C 4.492188 -7.472656 4.296875 -7.53125 4.046875 -7.53125 C 3.503906 -7.53125 3.234375 -7.28125 3.234375 -6.78125 C 3.234375 -6.507812 3.34375 -6.285156 3.5625 -6.109375 C 3.78125 -5.929688 4.242188 -5.742188 4.953125 -5.546875 C 5.679688 -5.335938 6.203125 -5.113281 6.515625 -4.875 C 6.828125 -4.644531 7.066406 -4.351562 7.234375 -4 C 7.398438 -3.644531 7.484375 -3.207031 7.484375 -2.6875 Z M 7.484375 -2.6875 "/></g></g></g><g fill="#ffffff" fill-opacity="1"><g transform="translate(118.30734, 111.377125)"><g><path d="M 7.484375 -2.6875 C 7.484375 -1.78125 7.171875 -1.078125 6.546875 -0.578125 C 5.921875 -0.078125 5.0625 0.171875 3.96875 0.171875 C 2.789062 0.171875 1.941406 -0.00390625 1.421875 -0.359375 C 0.898438 -0.710938 0.550781 -1.300781 0.375 -2.125 L 2.703125 -2.46875 C 2.804688 -1.820312 3.207031 -1.5 3.90625 -1.5 C 4.207031 -1.5 4.453125 -1.566406 4.640625 -1.703125 C 4.835938 -1.835938 4.9375 -2.050781 4.9375 -2.34375 C 4.9375 -2.550781 4.878906 -2.734375 4.765625 -2.890625 C 4.660156 -3.046875 4.492188 -3.179688 4.265625 -3.296875 C 4.046875 -3.410156 3.640625 -3.554688 3.046875 -3.734375 C 2.378906 -3.929688 1.898438 -4.140625 1.609375 -4.359375 C 1.316406 -4.578125 1.09375 -4.851562 0.9375 -5.1875 C 0.78125 -5.519531 0.703125 -5.9375 0.703125 -6.4375 C 0.703125 -7.3125 0.988281 -7.992188 1.5625 -8.484375 C 2.132812 -8.972656 2.945312 -9.21875 4 -9.21875 C 5.019531 -9.21875 5.785156 -9.035156 6.296875 -8.671875 C 6.816406 -8.304688 7.132812 -7.75 7.25 -7 L 4.921875 -6.78125 C 4.878906 -7.050781 4.785156 -7.242188 4.640625 -7.359375 C 4.492188 -7.472656 4.296875 -7.53125 4.046875 -7.53125 C 3.503906 -7.53125 3.234375 -7.28125 3.234375 -6.78125 C 3.234375 -6.507812 3.34375 -6.285156 3.5625 -6.109375 C 3.78125 -5.929688 4.242188 -5.742188 4.953125 -5.546875 C 5.679688 -5.335938 6.203125 -5.113281 6.515625 -4.875 C 6.828125 -4.644531 7.066406 -4.351562 7.234375 -4 C 7.398438 -3.644531 7.484375 -3.207031 7.484375 -2.6875 Z M 7.484375 -2.6875 "/></g></g></g><g fill="#ffffff" fill-opacity="1"><g transform="translate(126.253348, 111.377125)"><g/></g></g><g fill="#ffffff" fill-opacity="1"><g transform="translate(131.256208, 111.377125)"><g><path d="M 3.53125 -4.5 C 3.53125 -3.550781 3.675781 -2.847656 3.96875 -2.390625 C 4.269531 -1.941406 4.71875 -1.71875 5.3125 -1.71875 C 5.914062 -1.71875 6.378906 -1.96875 6.703125 -2.46875 C 7.023438 -2.96875 7.1875 -3.671875 7.1875 -4.578125 C 7.1875 -5.453125 7.03125 -6.125 6.71875 -6.59375 C 6.40625 -7.0625 5.941406 -7.296875 5.328125 -7.296875 C 4.722656 -7.296875 4.269531 -7.070312 3.96875 -6.625 C 3.675781 -6.175781 3.53125 -5.46875 3.53125 -4.5 Z M 0.625 -4.5 C 0.625 -6.019531 0.945312 -7.179688 1.59375 -7.984375 C 2.238281 -8.796875 3.175781 -9.203125 4.40625 -9.203125 C 5.6875 -9.203125 6.609375 -8.65625 7.171875 -7.5625 L 7.203125 -7.5625 C 7.171875 -8 7.15625 -8.523438 7.15625 -9.140625 L 7.15625 -12.734375 L 9.9375 -12.734375 L 9.9375 -2.109375 C 9.9375 -1.484375 9.96875 -0.78125 10.03125 0 L 7.296875 0 C 7.265625 -0.0820312 7.234375 -0.300781 7.203125 -0.65625 C 7.171875 -1.019531 7.15625 -1.296875 7.15625 -1.484375 L 7.125 -1.484375 C 6.601562 -0.390625 5.65625 0.15625 4.28125 0.15625 C 3.082031 0.15625 2.171875 -0.238281 1.546875 -1.03125 C 0.929688 -1.832031 0.625 -2.988281 0.625 -4.5 Z M 0.625 -4.5 "/></g></g></g><g fill="#ffffff" fill-opacity="1"><g transform="translate(142.416905, 111.377125)"><g><path d="M 4.421875 -1.5625 C 4.847656 -1.5625 5.195312 -1.773438 5.46875 -2.203125 C 5.738281 -2.628906 5.875 -3.144531 5.875 -3.75 L 5.875 -4.234375 L 4.96875 -4.203125 C 4.394531 -4.171875 3.992188 -4.039062 3.765625 -3.8125 C 3.546875 -3.59375 3.4375 -3.257812 3.4375 -2.8125 C 3.4375 -2.425781 3.515625 -2.117188 3.671875 -1.890625 C 3.835938 -1.671875 4.085938 -1.5625 4.421875 -1.5625 Z M 8.625 0 L 5.953125 0 L 5.859375 -1.328125 C 5.585938 -0.785156 5.253906 -0.398438 4.859375 -0.171875 C 4.472656 0.0546875 3.9375 0.171875 3.25 0.171875 C 2.375 0.171875 1.703125 -0.0664062 1.234375 -0.546875 C 0.765625 -1.035156 0.53125 -1.710938 0.53125 -2.578125 C 0.53125 -4.453125 1.703125 -5.421875 4.046875 -5.484375 L 5.859375 -5.546875 L 5.859375 -6.015625 C 5.859375 -6.578125 5.785156 -6.984375 5.640625 -7.234375 C 5.492188 -7.492188 5.253906 -7.625 4.921875 -7.625 C 4.609375 -7.625 4.367188 -7.539062 4.203125 -7.375 C 4.046875 -7.207031 3.929688 -6.9375 3.859375 -6.5625 L 1.171875 -6.90625 C 1.367188 -7.726562 1.773438 -8.316406 2.390625 -8.671875 C 3.015625 -9.035156 3.867188 -9.21875 4.953125 -9.21875 C 6.148438 -9.21875 7.0625 -8.941406 7.6875 -8.390625 C 8.3125 -7.835938 8.625 -7.015625 8.625 -5.921875 Z M 8.625 0 "/></g></g></g><g fill="#ffffff" fill-opacity="1"><g transform="translate(152.123546, 111.377125)"><g><path d="M 4.0625 0.171875 C 3.269531 0.171875 2.648438 -0.0546875 2.203125 -0.515625 C 1.765625 -0.972656 1.546875 -1.609375 1.546875 -2.421875 L 1.546875 -7.15625 L 0.28125 -7.15625 L 0.28125 -9.03125 L 1.609375 -9.03125 L 2.46875 -11.296875 L 4.3125 -11.296875 L 4.3125 -9.03125 L 6.40625 -9.03125 L 6.40625 -7.15625 L 4.3125 -7.15625 L 4.3125 -3.09375 C 4.3125 -2.207031 4.679688 -1.765625 5.421875 -1.765625 C 5.785156 -1.765625 6.148438 -1.796875 6.515625 -1.859375 L 6.515625 -0.140625 C 5.953125 -0.00390625 5.492188 0.078125 5.140625 0.109375 C 4.785156 0.148438 4.425781 0.171875 4.0625 0.171875 Z M 4.0625 0.171875 "/></g></g></g><g fill="#ffffff" fill-opacity="1"><g transform="translate(159.15858, 111.377125)"><g><path d="M 4.421875 -1.5625 C 4.847656 -1.5625 5.195312 -1.773438 5.46875 -2.203125 C 5.738281 -2.628906 5.875 -3.144531 5.875 -3.75 L 5.875 -4.234375 L 4.96875 -4.203125 C 4.394531 -4.171875 3.992188 -4.039062 3.765625 -3.8125 C 3.546875 -3.59375 3.4375 -3.257812 3.4375 -2.8125 C 3.4375 -2.425781 3.515625 -2.117188 3.671875 -1.890625 C 3.835938 -1.671875 4.085938 -1.5625 4.421875 -1.5625 Z M 8.625 0 L 5.953125 0 L 5.859375 -1.328125 C 5.585938 -0.785156 5.253906 -0.398438 4.859375 -0.171875 C 4.472656 0.0546875 3.9375 0.171875 3.25 0.171875 C 2.375 0.171875 1.703125 -0.0664062 1.234375 -0.546875 C 0.765625 -1.035156 0.53125 -1.710938 0.53125 -2.578125 C 0.53125 -4.453125 1.703125 -5.421875 4.046875 -5.484375 L 5.859375 -5.546875 L 5.859375 -6.015625 C 5.859375 -6.578125 5.785156 -6.984375 5.640625 -7.234375 C 5.492188 -7.492188 5.253906 -7.625 4.921875 -7.625 C 4.609375 -7.625 4.367188 -7.539062 4.203125 -7.375 C 4.046875 -7.207031 3.929688 -6.9375 3.859375 -6.5625 L 1.171875 -6.90625 C 1.367188 -7.726562 1.773438 -8.316406 2.390625 -8.671875 C 3.015625 -9.035156 3.867188 -9.21875 4.953125 -9.21875 C 6.148438 -9.21875 7.0625 -8.941406 7.6875 -8.390625 C 8.3125 -7.835938 8.625 -7.015625 8.625 -5.921875 Z M 8.625 0 "/></g></g></g><g clip-path="url(#06474526ba)"><g clip-path="url(#4ed0c9a484)"><path stroke-linecap="butt" transform="matrix(0.747466, 0, 0, 0.747466, 39.757985, 186.980547)" fill="none" stroke-linejoin="miter" d="M 68.731979 -0.000105301 C 30.770393 -0.000105301 -0.000231349 20.501451 -0.000231349 45.795239 C -0.000231349 71.089027 30.770393 91.595808 68.731979 91.595808 C 106.688339 91.595808 137.458964 71.089027 137.458964 45.795239 C 137.458964 20.501451 106.688339 -0.000105301 68.731979 -0.000105301 Z M 68.731979 -0.000105301 " stroke="#004aad" stroke-width="8" stroke-opacity="1" stroke-miterlimit="4"/></g></g><g fill="#000000" fill-opacity="1"><g transform="translate(73.627259, 235.092886)"><g><path d="M 23.3125 -20.96875 L 10.875 -20.96875 L 9.609375 -14.953125 L 21.765625 -14.953125 L 20.890625 -10.734375 L 8.71875 -10.734375 L 6.46875 0 L 1.296875 0 L 6.578125 -25.1875 L 24.203125 -25.1875 Z M 23.3125 -20.96875 "/></g></g></g><g fill="#000000" fill-opacity="1"><g transform="translate(91.01387, 239.226068)"><g><path d="M 7.21875 -12.265625 L 9.25 -12.265625 L 8.734375 -9.84375 L 6.703125 -9.84375 L 5.609375 -4.515625 C 5.453125 -3.828125 5.375 -3.347656 5.375 -3.078125 C 5.375 -2.796875 5.457031 -2.585938 5.625 -2.453125 C 5.800781 -2.316406 6.082031 -2.25 6.46875 -2.25 C 6.71875 -2.25 7.078125 -2.28125 7.546875 -2.34375 L 7.03125 0.125 C 6.632812 0.21875 6.070312 0.265625 5.34375 0.265625 C 3.0625 0.265625 1.921875 -0.570312 1.921875 -2.25 C 1.921875 -2.582031 2.003906 -3.210938 2.171875 -4.140625 L 2.296875 -4.6875 L 3.390625 -9.84375 L 1.78125 -9.84375 L 2.296875 -12.265625 L 3.90625 -12.265625 L 4.3125 -14.234375 L 8.09375 -16.515625 Z M 7.21875 -12.265625 "/></g></g></g><g fill="#000000" fill-opacity="1"><g transform="translate(98.89331, 239.226068)"><g><path d="M 8.5 -12.546875 C 9.9375 -12.546875 11.085938 -12.171875 11.953125 -11.421875 C 12.816406 -10.671875 13.304688 -9.679688 13.421875 -8.453125 L 10.25 -8.125 C 10.132812 -9.394531 9.476562 -10.03125 8.28125 -10.03125 C 7.59375 -10.03125 6.984375 -9.773438 6.453125 -9.265625 C 5.921875 -8.753906 5.507812 -8.082031 5.21875 -7.25 C 4.925781 -6.425781 4.78125 -5.554688 4.78125 -4.640625 C 4.78125 -3.878906 4.945312 -3.300781 5.28125 -2.90625 C 5.625 -2.507812 6.070312 -2.3125 6.625 -2.3125 C 7.175781 -2.3125 7.691406 -2.507812 8.171875 -2.90625 C 8.660156 -3.300781 9.035156 -3.878906 9.296875 -4.640625 L 12.546875 -4.09375 C 12.023438 -2.6875 11.25 -1.601562 10.21875 -0.84375 C 9.195312 -0.09375 7.992188 0.28125 6.609375 0.28125 C 4.992188 0.28125 3.726562 -0.191406 2.8125 -1.140625 C 1.894531 -2.085938 1.4375 -3.34375 1.4375 -4.90625 C 1.4375 -6.363281 1.738281 -7.671875 2.34375 -8.828125 C 2.945312 -9.992188 3.78125 -10.90625 4.84375 -11.5625 C 5.90625 -12.21875 7.125 -12.546875 8.5 -12.546875 Z M 8.5 -12.546875 "/></g></g></g><g fill="#000000" fill-opacity="1"><g transform="translate(79.455612, 216.193176)"><g><path d="M 15.875 -9.375 L 12.046875 -9.375 L 9.359375 -16.015625 L 6.6875 -9.375 L 2.796875 -9.375 L 7.90625 -20.203125 L 10.90625 -20.203125 Z M 15.875 -9.375 "/></g></g></g><path stroke-linecap="round" transform="matrix(0.193458, -0.721997, 0.721997, 0.193458, 92.841885, 185.427746)" fill="none" stroke-linejoin="miter" d="M 1.497621 1.500327 L 58.603504 1.499298 " stroke="#000000" stroke-width="3" stroke-opacity="1" stroke-miterlimit="4"/><path stroke-linecap="round" transform="matrix(0.193458, -0.721997, 0.721997, 0.193458, 92.841885, 185.427746)" fill-opacity="1" fill="#000000" fill-rule="nonzero" stroke-linejoin="round" d="M 60.103556 -2.998268 L 66.10308 1.50244 L 60.106582 5.998319 Z M 60.103556 -2.998268 " stroke="#000000" stroke-width="3" stroke-opacity="1" stroke-miterlimit="4"/><g clip-path="url(#14dbe6c415)"><g clip-path="url(#2d092c9f95)"><path stroke-linecap="butt" transform="matrix(0.747466, 0, 0, 0.747466, 71.630677, 298.788407)" fill="none" stroke-linejoin="miter" d="M 68.729841 0.000876308 C 30.773482 0.000876308 -0.00236921 20.502432 -0.00236921 45.79622 C -0.00236921 71.090008 30.773482 91.591564 68.729841 91.591564 C 106.691427 91.591564 137.462052 71.090008 137.462052 45.79622 C 137.462052 20.502432 106.691427 0.000876308 68.729841 0.000876308 Z M 68.729841 0.000876308 " stroke="#004aad" stroke-width="8" stroke-opacity="1" stroke-miterlimit="4"/></g></g><g fill="#000000" fill-opacity="1"><g transform="translate(108.354896, 347.70204)"><g><path d="M 23.3125 -20.96875 L 10.875 -20.96875 L 9.609375 -14.953125 L 21.765625 -14.953125 L 20.890625 -10.734375 L 8.71875 -10.734375 L 6.46875 0 L 1.296875 0 L 6.578125 -25.1875 L 24.203125 -25.1875 Z M 23.3125 -20.96875 "/></g></g></g><g fill="#000000" fill-opacity="1"><g transform="translate(125.741505, 351.835236)"><g><path d="M 7.21875 -12.265625 L 9.25 -12.265625 L 8.734375 -9.84375 L 6.703125 -9.84375 L 5.609375 -4.515625 C 5.453125 -3.828125 5.375 -3.347656 5.375 -3.078125 C 5.375 -2.796875 5.457031 -2.585938 5.625 -2.453125 C 5.800781 -2.316406 6.082031 -2.25 6.46875 -2.25 C 6.71875 -2.25 7.078125 -2.28125 7.546875 -2.34375 L 7.03125 0.125 C 6.632812 0.21875 6.070312 0.265625 5.34375 0.265625 C 3.0625 0.265625 1.921875 -0.570312 1.921875 -2.25 C 1.921875 -2.582031 2.003906 -3.210938 2.171875 -4.140625 L 2.296875 -4.6875 L 3.390625 -9.84375 L 1.78125 -9.84375 L 2.296875 -12.265625 L 3.90625 -12.265625 L 4.3125 -14.234375 L 8.09375 -16.515625 Z M 7.21875 -12.265625 "/></g></g></g><g fill="#000000" fill-opacity="1"><g transform="translate(133.620946, 351.835236)"><g><path d="M 8.5 -12.546875 C 9.9375 -12.546875 11.085938 -12.171875 11.953125 -11.421875 C 12.816406 -10.671875 13.304688 -9.679688 13.421875 -8.453125 L 10.25 -8.125 C 10.132812 -9.394531 9.476562 -10.03125 8.28125 -10.03125 C 7.59375 -10.03125 6.984375 -9.773438 6.453125 -9.265625 C 5.921875 -8.753906 5.507812 -8.082031 5.21875 -7.25 C 4.925781 -6.425781 4.78125 -5.554688 4.78125 -4.640625 C 4.78125 -3.878906 4.945312 -3.300781 5.28125 -2.90625 C 5.625 -2.507812 6.070312 -2.3125 6.625 -2.3125 C 7.175781 -2.3125 7.691406 -2.507812 8.171875 -2.90625 C 8.660156 -3.300781 9.035156 -3.878906 9.296875 -4.640625 L 12.546875 -4.09375 C 12.023438 -2.6875 11.25 -1.601562 10.21875 -0.84375 C 9.195312 -0.09375 7.992188 0.28125 6.609375 0.28125 C 4.992188 0.28125 3.726562 -0.191406 2.8125 -1.140625 C 1.894531 -2.085938 1.4375 -3.34375 1.4375 -4.90625 C 1.4375 -6.363281 1.738281 -7.671875 2.34375 -8.828125 C 2.945312 -9.992188 3.78125 -10.90625 4.84375 -11.5625 C 5.90625 -12.21875 7.125 -12.546875 8.5 -12.546875 Z M 8.5 -12.546875 "/></g></g></g><path stroke-linecap="round" transform="matrix(-0.314109, -0.678263, 0.678263, -0.314109, 124.882036, 295.0608)" fill="none" stroke-linejoin="miter" d="M 1.501543 1.502807 L 44.367413 1.502378 " stroke="#000000" stroke-width="3" stroke-opacity="1" stroke-miterlimit="4"/><path stroke-linecap="round" transform="matrix(-0.314109, -0.678263, 0.678263, -0.314109, 124.882036, 295.0608)" fill-opacity="1" fill="#000000" fill-rule="nonzero" stroke-linejoin="round" d="M 45.864619 -2.999046 L 51.868153 1.497475 L 45.867588 5.998188 Z M 45.864619 -2.999046 " stroke="#000000" stroke-width="3" stroke-opacity="1" stroke-miterlimit="4"/><g clip-path="url(#e94f642b6f)"><path stroke-linecap="round" transform="matrix(-0.0678726, 0.744378, -0.744378, -0.0678726, 120.643831, 372.732113)" fill="none" stroke-linejoin="miter" d="M 1.498924 1.49966 L 320.284245 1.499562 " stroke="#000000" stroke-width="3" stroke-opacity="1" stroke-miterlimit="4"/></g><path stroke-linecap="round" transform="matrix(-0.0678726, 0.744378, -0.744378, -0.0678726, 120.643831, 372.732113)" fill-opacity="1" fill="#000000" fill-rule="nonzero" stroke-linejoin="round" d="M 321.784305 -2.998026 L 327.783022 1.498019 L 321.786252 6.001547 Z M 321.784305 -2.998026 " stroke="#000000" stroke-width="3" stroke-opacity="1" stroke-miterlimit="4"/><g clip-path="url(#c5fe743830)"><g clip-path="url(#90600a6419)"><path stroke-linecap="butt" transform="matrix(0.747466, 0, 0, 0.747466, 0.00178756, 422.911064)" fill="none" stroke-linejoin="miter" d="M 64.998463 -0.00121381 C 29.101143 -0.00121381 -0.00239149 20.505568 -0.00239149 45.799356 C -0.00239149 71.087918 29.101143 91.5947 64.998463 91.5947 C 100.895783 91.5947 129.994091 71.087918 129.994091 45.799356 C 129.994091 20.505568 100.895783 -0.00121381 64.998463 -0.00121381 Z M 64.998463 -0.00121381 " stroke="#004aad" stroke-width="8" stroke-opacity="1" stroke-miterlimit="4"/></g></g><g fill="#000000" fill-opacity="1"><g transform="translate(32.359676, 469.928217)"><g><path d="M 6.828125 8.4375 L 8.609375 0.171875 C 6.546875 -0.109375 4.851562 -0.929688 3.53125 -2.296875 C 2.207031 -3.671875 1.546875 -5.539062 1.546875 -7.90625 C 1.546875 -10.46875 2.097656 -12.644531 3.203125 -14.4375 C 4.304688 -16.226562 5.816406 -17.9375 7.734375 -19.5625 L 11.109375 -16.640625 C 9.773438 -15.296875 8.726562 -13.941406 7.96875 -12.578125 C 7.207031 -11.222656 6.828125 -9.726562 6.828125 -8.09375 C 6.828125 -6.84375 7.066406 -5.875 7.546875 -5.1875 C 8.023438 -4.5 8.648438 -4.0625 9.421875 -3.875 L 11.328125 -12.734375 C 11.816406 -14.984375 12.628906 -16.679688 13.765625 -17.828125 C 14.898438 -18.984375 16.523438 -19.5625 18.640625 -19.5625 C 20.796875 -19.5625 22.445312 -18.890625 23.59375 -17.546875 C 24.75 -16.210938 25.328125 -14.421875 25.328125 -12.171875 C 25.328125 -9.753906 24.84375 -7.628906 23.875 -5.796875 C 22.914062 -3.972656 21.550781 -2.523438 19.78125 -1.453125 C 18.007812 -0.390625 15.90625 0.195312 13.46875 0.3125 L 11.8125 8.4375 Z M 14.34375 -3.90625 C 15.6875 -4.113281 16.78125 -4.660156 17.625 -5.546875 C 18.46875 -6.441406 19.085938 -7.519531 19.484375 -8.78125 C 19.878906 -10.050781 20.078125 -11.332031 20.078125 -12.625 C 20.078125 -13.519531 19.953125 -14.253906 19.703125 -14.828125 C 19.460938 -15.398438 19.050781 -15.6875 18.46875 -15.6875 C 18.019531 -15.6875 17.59375 -15.457031 17.1875 -15 C 16.789062 -14.539062 16.476562 -13.757812 16.25 -12.65625 Z M 14.34375 -3.90625 "/></g></g></g><g fill="#000000" fill-opacity="1"><g transform="translate(51.380048, 482.283558)"><g><path d="M 8 -12.546875 C 10.914062 -12.546875 12.617188 -11.476562 13.109375 -9.34375 L 10.03125 -8.8125 C 9.675781 -9.769531 8.828125 -10.25 7.484375 -10.25 C 6.878906 -10.25 6.40625 -10.148438 6.0625 -9.953125 C 5.71875 -9.753906 5.546875 -9.5 5.546875 -9.1875 C 5.546875 -8.875 5.65625 -8.632812 5.875 -8.46875 C 6.09375 -8.300781 6.414062 -8.15625 6.84375 -8.03125 C 8.101562 -7.675781 9.101562 -7.34375 9.84375 -7.03125 C 10.582031 -6.71875 11.164062 -6.316406 11.59375 -5.828125 C 12.019531 -5.347656 12.234375 -4.75 12.234375 -4.03125 C 12.234375 -3.269531 12.019531 -2.5625 11.59375 -1.90625 C 11.164062 -1.25 10.535156 -0.71875 9.703125 -0.3125 C 8.867188 0.0820312 7.851562 0.28125 6.65625 0.28125 C 3.320312 0.28125 1.289062 -0.957031 0.5625 -3.4375 L 3.78125 -3.953125 C 4.050781 -3.304688 4.394531 -2.832031 4.8125 -2.53125 C 5.226562 -2.226562 5.816406 -2.078125 6.578125 -2.078125 C 7.242188 -2.078125 7.796875 -2.207031 8.234375 -2.46875 C 8.679688 -2.726562 8.90625 -3.050781 8.90625 -3.4375 C 8.90625 -3.757812 8.753906 -4.007812 8.453125 -4.1875 C 8.148438 -4.363281 7.617188 -4.5625 6.859375 -4.78125 C 5.816406 -5.113281 4.988281 -5.425781 4.375 -5.71875 C 3.757812 -6.007812 3.28125 -6.382812 2.9375 -6.84375 C 2.59375 -7.300781 2.421875 -7.882812 2.421875 -8.59375 C 2.421875 -9.332031 2.640625 -10 3.078125 -10.59375 C 3.515625 -11.195312 4.15625 -11.671875 5 -12.015625 C 5.84375 -12.367188 6.84375 -12.546875 8 -12.546875 Z M 8 -12.546875 "/></g></g></g><g clip-path="url(#583a18c1e8)"><path stroke-linecap="round" transform="matrix(0.118537, 0.738007, -0.738007, 0.118537, 61.14979, 492.850219)" fill="none" stroke-linejoin="miter" d="M 1.501836 1.50278 L 152.902512 1.499122 " stroke="#000000" stroke-width="3" stroke-opacity="1" stroke-miterlimit="4"/></g><path stroke-linecap="round" transform="matrix(0.118537, 0.738007, -0.738007, 0.118537, 61.14979, 492.850219)" fill-opacity="1" fill="#000000" fill-rule="nonzero" stroke-linejoin="round" d="M 154.40358 -3.002281 L 160.402156 1.502189 L 154.402498 6.000886 Z M 154.40358 -3.002281 " stroke="#000000" stroke-width="3" stroke-opacity="1" stroke-miterlimit="4"/></svg>