<svg xmlns="http://www.w3.org/2000/svg" xmlns:xlink="http://www.w3.org/1999/xlink" width="278" zoomAndPan="magnify" viewBox="0 0 208.5 228.749994" height="305" preserveAspectRatio="xMidYMid meet" version="1.0"><defs><g/><clipPath id="181f1f5eb1"><path d="M 11.144531 0.148438 L 196.308594 0.148438 L 196.308594 227.984375 L 11.144531 227.984375 Z M 11.144531 0.148438 " clip-rule="nonzero"/></clipPath><clipPath id="78ce70bb64"><path d="M 22.367188 0.148438 L 185.085938 0.148438 C 191.28125 0.148438 196.308594 5.171875 196.308594 11.371094 L 196.308594 216.609375 C 196.308594 222.808594 191.28125 227.832031 185.085938 227.832031 L 22.367188 227.832031 C 16.171875 227.832031 11.144531 222.808594 11.144531 216.609375 L 11.144531 11.371094 C 11.144531 5.171875 16.171875 0.148438 22.367188 0.148438 Z M 22.367188 0.148438 " clip-rule="nonzero"/></clipPath></defs><g clip-path="url(#181f1f5eb1)"><g clip-path="url(#78ce70bb64)"><path fill="#f6ccae" d="M 11.144531 0.148438 L 196.308594 0.148438 L 196.308594 227.984375 L 11.144531 227.984375 Z M 11.144531 0.148438 " fill-opacity="1" fill-rule="nonzero"/></g></g><path fill="#ffffff" d="M 48.0625 11.792969 L 159.363281 11.792969 C 161.632812 11.792969 163.808594 12.695312 165.414062 14.296875 C 167.019531 15.902344 167.921875 18.078125 167.921875 20.347656 L 167.921875 37.460938 C 167.921875 39.730469 167.019531 41.90625 165.414062 43.511719 C 163.808594 45.117188 161.632812 46.015625 159.363281 46.015625 L 48.0625 46.015625 C 43.339844 46.015625 39.507812 42.1875 39.507812 37.460938 L 39.507812 20.347656 C 39.507812 15.621094 43.339844 11.792969 48.0625 11.792969 Z M 48.0625 11.792969 " fill-opacity="1" fill-rule="nonzero"/><g fill="#000000" fill-opacity="1"><g transform="translate(47.863294, 36.864414)"><g><path d="M 10.265625 0 L 9.46875 -4.546875 L 3.25 -4.546875 L 0.609375 0 L -1.59375 0 L 7.3125 -14.953125 L 9.453125 -14.953125 L 12.34375 0 Z M 6.578125 -10.34375 L 4.125 -6.125 L 9.21875 -6.125 L 8.484375 -10.359375 C 8.398438 -10.804688 8.335938 -11.257812 8.296875 -11.71875 C 8.253906 -12.175781 8.210938 -12.734375 8.171875 -13.390625 L 8.125 -13.390625 C 7.71875 -12.429688 7.203125 -11.414062 6.578125 -10.34375 Z M 6.578125 -10.34375 "/></g></g></g><g fill="#000000" fill-opacity="1"><g transform="translate(61.789475, 36.864414)"><g><path d="M 3.75 -9.609375 C 4.28125 -10.128906 4.820312 -10.5 5.375 -10.71875 C 5.9375 -10.945312 6.523438 -11.0625 7.140625 -11.0625 C 8.378906 -11.0625 9.332031 -10.671875 10 -9.890625 C 10.664062 -9.117188 11 -8.035156 11 -6.640625 C 11 -5.316406 10.738281 -4.128906 10.21875 -3.078125 C 9.707031 -2.035156 8.988281 -1.21875 8.0625 -0.625 C 7.144531 -0.0390625 6.109375 0.25 4.953125 0.25 C 4.203125 0.25 3.566406 0.0976562 3.046875 -0.203125 C 2.535156 -0.503906 2.148438 -0.914062 1.890625 -1.4375 L 1.84375 -1.4375 L 1.546875 0 L -0.171875 0 L 3.015625 -14.953125 L 4.84375 -14.953125 L 3.703125 -9.609375 Z M 6.765625 -9.5625 C 6.003906 -9.5625 5.296875 -9.332031 4.640625 -8.875 C 3.984375 -8.414062 3.460938 -7.773438 3.078125 -6.953125 C 2.691406 -6.140625 2.5 -5.21875 2.5 -4.1875 C 2.5 -3.25 2.707031 -2.523438 3.125 -2.015625 C 3.539062 -1.503906 4.148438 -1.25 4.953125 -1.25 C 5.710938 -1.25 6.40625 -1.476562 7.03125 -1.9375 C 7.664062 -2.40625 8.160156 -3.046875 8.515625 -3.859375 C 8.878906 -4.679688 9.0625 -5.609375 9.0625 -6.640625 C 9.0625 -7.546875 8.863281 -8.257812 8.46875 -8.78125 C 8.082031 -9.300781 7.515625 -9.5625 6.765625 -9.5625 Z M 6.765625 -9.5625 "/></g></g></g><g fill="#000000" fill-opacity="1"><g transform="translate(73.727666, 36.864414)"><g><path d="M 2.40625 -3.75 C 2.34375 -3.46875 2.3125 -3.191406 2.3125 -2.921875 C 2.3125 -1.867188 2.847656 -1.34375 3.921875 -1.34375 C 4.941406 -1.34375 5.773438 -1.613281 6.421875 -2.15625 C 7.066406 -2.695312 7.519531 -3.578125 7.78125 -4.796875 L 9.0625 -10.828125 L 10.90625 -10.828125 L 8.59375 0 L 6.890625 0 L 7.21875 -1.515625 C 6.75 -0.960938 6.1875 -0.53125 5.53125 -0.21875 C 4.882812 0.09375 4.210938 0.25 3.515625 0.25 C 2.503906 0.25 1.742188 -0.00390625 1.234375 -0.515625 C 0.722656 -1.023438 0.46875 -1.726562 0.46875 -2.625 C 0.46875 -3.019531 0.515625 -3.421875 0.609375 -3.828125 L 2.078125 -10.828125 L 3.921875 -10.828125 Z M 2.40625 -3.75 "/></g></g></g><g fill="#000000" fill-opacity="1"><g transform="translate(85.339621, 36.864414)"><g><path d="M 8.328125 -7.078125 C 8.390625 -7.359375 8.421875 -7.632812 8.421875 -7.90625 C 8.421875 -8.957031 7.882812 -9.484375 6.8125 -9.484375 C 5.789062 -9.484375 4.953125 -9.210938 4.296875 -8.671875 C 3.648438 -8.128906 3.203125 -7.25 2.953125 -6.03125 L 1.65625 0 L -0.171875 0 L 2.125 -10.828125 L 3.84375 -10.828125 L 3.515625 -9.3125 C 3.984375 -9.851562 4.539062 -10.28125 5.1875 -10.59375 C 5.832031 -10.90625 6.507812 -11.0625 7.21875 -11.0625 C 8.226562 -11.0625 8.988281 -10.804688 9.5 -10.296875 C 10.007812 -9.785156 10.265625 -9.082031 10.265625 -8.1875 C 10.265625 -7.800781 10.21875 -7.398438 10.125 -6.984375 L 8.65625 0 L 6.8125 0 Z M 8.328125 -7.078125 "/></g></g></g><g fill="#000000" fill-opacity="1"><g transform="translate(96.951577, 36.864414)"><g><path d="M 7.21875 0 L 7.484375 -1.234375 L 7.453125 -1.234375 C 7.035156 -0.753906 6.515625 -0.382812 5.890625 -0.125 C 5.265625 0.125 4.648438 0.25 4.046875 0.25 C 2.765625 0.25 1.785156 -0.140625 1.109375 -0.921875 C 0.441406 -1.703125 0.109375 -2.800781 0.109375 -4.21875 C 0.109375 -5.488281 0.363281 -6.644531 0.875 -7.6875 C 1.394531 -8.726562 2.101562 -9.550781 3 -10.15625 C 3.90625 -10.757812 4.90625 -11.0625 6 -11.0625 C 6.71875 -11.0625 7.320312 -10.914062 7.8125 -10.625 C 8.3125 -10.34375 8.726562 -9.941406 9.0625 -9.421875 L 9.09375 -9.421875 L 10.28125 -14.953125 L 12.125 -14.953125 L 8.9375 0 Z M 6.015625 -9.5625 C 5.222656 -9.5625 4.523438 -9.320312 3.921875 -8.84375 C 3.316406 -8.363281 2.84375 -7.71875 2.5 -6.90625 C 2.164062 -6.09375 2 -5.195312 2 -4.21875 C 2 -3.238281 2.203125 -2.5 2.609375 -2 C 3.015625 -1.5 3.597656 -1.25 4.359375 -1.25 C 5.179688 -1.25 5.90625 -1.476562 6.53125 -1.9375 C 7.164062 -2.394531 7.648438 -3.019531 7.984375 -3.8125 C 8.328125 -4.601562 8.5 -5.488281 8.5 -6.46875 C 8.5 -7.4375 8.28125 -8.191406 7.84375 -8.734375 C 7.414062 -9.285156 6.804688 -9.5625 6.015625 -9.5625 Z M 6.015625 -9.5625 "/></g></g></g><g fill="#000000" fill-opacity="1"><g transform="translate(108.889767, 36.864414)"><g><path d="M 8.359375 -1.203125 C 8.359375 -0.835938 8.414062 -0.4375 8.53125 0 L 6.625 0 C 6.582031 -0.15625 6.550781 -0.304688 6.53125 -0.453125 C 6.507812 -0.609375 6.507812 -0.90625 6.53125 -1.34375 C 5.90625 -0.800781 5.28125 -0.398438 4.65625 -0.140625 C 4.039062 0.117188 3.414062 0.25 2.78125 0.25 C 1.769531 0.25 1 0.015625 0.46875 -0.453125 C -0.0625 -0.921875 -0.328125 -1.570312 -0.328125 -2.40625 C -0.328125 -3.425781 0.0351562 -4.253906 0.765625 -4.890625 C 1.492188 -5.535156 2.691406 -5.984375 4.359375 -6.234375 C 5.867188 -6.453125 6.941406 -6.660156 7.578125 -6.859375 C 7.703125 -7.398438 7.765625 -7.816406 7.765625 -8.109375 C 7.765625 -8.628906 7.601562 -9 7.28125 -9.21875 C 6.96875 -9.445312 6.46875 -9.5625 5.78125 -9.5625 C 5 -9.5625 4.367188 -9.398438 3.890625 -9.078125 C 3.421875 -8.753906 3.039062 -8.226562 2.75 -7.5 L 1.015625 -7.765625 C 1.441406 -8.910156 2.039062 -9.742188 2.8125 -10.265625 C 3.59375 -10.796875 4.609375 -11.0625 5.859375 -11.0625 C 7.128906 -11.0625 8.066406 -10.828125 8.671875 -10.359375 C 9.273438 -9.898438 9.578125 -9.195312 9.578125 -8.25 C 9.578125 -7.863281 9.523438 -7.40625 9.421875 -6.875 L 8.6875 -3.421875 C 8.46875 -2.429688 8.359375 -1.691406 8.359375 -1.203125 Z M 4.125 -4.6875 C 3.226562 -4.53125 2.578125 -4.273438 2.171875 -3.921875 C 1.773438 -3.566406 1.578125 -3.097656 1.578125 -2.515625 C 1.578125 -2.097656 1.71875 -1.769531 2 -1.53125 C 2.28125 -1.300781 2.691406 -1.1875 3.234375 -1.1875 C 3.773438 -1.1875 4.367188 -1.359375 5.015625 -1.703125 C 5.460938 -1.941406 5.820312 -2.195312 6.09375 -2.46875 C 6.375 -2.75 6.597656 -3.082031 6.765625 -3.46875 C 6.929688 -3.851562 7.082031 -4.367188 7.21875 -5.015625 L 7.296875 -5.40625 C 7.128906 -5.332031 6.738281 -5.226562 6.125 -5.09375 C 5.507812 -4.957031 4.84375 -4.820312 4.125 -4.6875 Z M 4.125 -4.6875 "/></g></g></g><g fill="#000000" fill-opacity="1"><g transform="translate(119.808472, 36.864414)"><g><path d="M 8.328125 -7.078125 C 8.390625 -7.359375 8.421875 -7.632812 8.421875 -7.90625 C 8.421875 -8.957031 7.882812 -9.484375 6.8125 -9.484375 C 5.789062 -9.484375 4.953125 -9.210938 4.296875 -8.671875 C 3.648438 -8.128906 3.203125 -7.25 2.953125 -6.03125 L 1.65625 0 L -0.171875 0 L 2.125 -10.828125 L 3.84375 -10.828125 L 3.515625 -9.3125 C 3.984375 -9.851562 4.539062 -10.28125 5.1875 -10.59375 C 5.832031 -10.90625 6.507812 -11.0625 7.21875 -11.0625 C 8.226562 -11.0625 8.988281 -10.804688 9.5 -10.296875 C 10.007812 -9.785156 10.265625 -9.082031 10.265625 -8.1875 C 10.265625 -7.800781 10.21875 -7.398438 10.125 -6.984375 L 8.65625 0 L 6.8125 0 Z M 8.328125 -7.078125 "/></g></g></g><g fill="#000000" fill-opacity="1"><g transform="translate(131.420427, 36.864414)"><g><path d="M 6.15625 -9.5625 C 5.34375 -9.5625 4.625 -9.347656 4 -8.921875 C 3.382812 -8.503906 2.898438 -7.898438 2.546875 -7.109375 C 2.203125 -6.328125 2.03125 -5.398438 2.03125 -4.328125 C 2.03125 -3.398438 2.242188 -2.65625 2.671875 -2.09375 C 3.109375 -1.53125 3.726562 -1.25 4.53125 -1.25 C 5.3125 -1.25 6 -1.492188 6.59375 -1.984375 C 7.195312 -2.472656 7.648438 -3.140625 7.953125 -3.984375 L 9.71875 -3.6875 C 9.28125 -2.445312 8.617188 -1.476562 7.734375 -0.78125 C 6.847656 -0.09375 5.726562 0.25 4.375 0.25 C 3 0.25 1.941406 -0.144531 1.203125 -0.9375 C 0.472656 -1.726562 0.109375 -2.847656 0.109375 -4.296875 C 0.109375 -5.609375 0.367188 -6.78125 0.890625 -7.8125 C 1.421875 -8.84375 2.148438 -9.640625 3.078125 -10.203125 C 4.003906 -10.773438 5.039062 -11.0625 6.1875 -11.0625 C 7.457031 -11.0625 8.4375 -10.75 9.125 -10.125 C 9.820312 -9.507812 10.226562 -8.6875 10.34375 -7.65625 L 8.546875 -7.390625 C 8.429688 -8.117188 8.1875 -8.660156 7.8125 -9.015625 C 7.4375 -9.378906 6.882812 -9.5625 6.15625 -9.5625 Z M 6.15625 -9.5625 "/></g></g></g><g fill="#000000" fill-opacity="1"><g transform="translate(142.359522, 36.864414)"><g><path d="M 2.015625 -4.015625 C 2.015625 -3.128906 2.238281 -2.445312 2.6875 -1.96875 C 3.132812 -1.488281 3.769531 -1.25 4.59375 -1.25 C 5.28125 -1.25 5.914062 -1.453125 6.5 -1.859375 C 7.082031 -2.273438 7.546875 -2.816406 7.890625 -3.484375 L 9.65625 -3.21875 C 9.195312 -2.101562 8.523438 -1.242188 7.640625 -0.640625 C 6.765625 -0.046875 5.738281 0.25 4.5625 0.25 C 3.09375 0.25 1.976562 -0.128906 1.21875 -0.890625 C 0.46875 -1.660156 0.09375 -2.726562 0.09375 -4.09375 C 0.09375 -5.351562 0.347656 -6.507812 0.859375 -7.5625 C 1.378906 -8.625 2.117188 -9.472656 3.078125 -10.109375 C 4.046875 -10.742188 5.140625 -11.0625 6.359375 -11.0625 C 7.191406 -11.0625 7.914062 -10.90625 8.53125 -10.59375 C 9.144531 -10.28125 9.617188 -9.820312 9.953125 -9.21875 C 10.296875 -8.613281 10.46875 -7.878906 10.46875 -7.015625 C 10.46875 -6.484375 10.398438 -5.921875 10.265625 -5.328125 L 10.1875 -4.953125 L 2.09375 -4.953125 C 2.039062 -4.585938 2.015625 -4.273438 2.015625 -4.015625 Z M 8.59375 -7.03125 C 8.59375 -7.851562 8.390625 -8.476562 7.984375 -8.90625 C 7.578125 -9.34375 6.988281 -9.5625 6.21875 -9.5625 C 5.664062 -9.5625 5.140625 -9.441406 4.640625 -9.203125 C 4.140625 -8.972656 3.695312 -8.625 3.3125 -8.15625 C 2.9375 -7.6875 2.644531 -7.117188 2.4375 -6.453125 L 8.5625 -6.453125 C 8.582031 -6.660156 8.59375 -6.851562 8.59375 -7.03125 Z M 8.59375 -7.03125 "/></g></g></g><g fill="#000000" fill-opacity="1"><g transform="translate(153.813339, 36.864414)"><g/></g></g></svg>