<svg xmlns="http://www.w3.org/2000/svg" xmlns:xlink="http://www.w3.org/1999/xlink" width="290" zoomAndPan="magnify" viewBox="0 0 217.5 224.249992" height="299" preserveAspectRatio="xMidYMid meet" version="1.0"><defs><g/><clipPath id="b2abbe8b26"><path d="M 0.113281 0 L 216.558594 0 L 216.558594 223 L 0.113281 223 Z M 0.113281 0 " clip-rule="nonzero"/></clipPath><clipPath id="b66f68d763"><path d="M 11.324219 0 L 205.347656 0 C 211.539062 0 216.558594 5.019531 216.558594 11.210938 L 216.558594 211.640625 C 216.558594 217.832031 211.539062 222.855469 205.347656 222.855469 L 11.324219 222.855469 C 5.132812 222.855469 0.113281 217.832031 0.113281 211.640625 L 0.113281 11.210938 C 0.113281 5.019531 5.132812 0 11.324219 0 Z M 11.324219 0 " clip-rule="nonzero"/></clipPath></defs><g clip-path="url(#b2abbe8b26)"><g clip-path="url(#b66f68d763)"><path fill="#f6ccae" d="M 0.113281 0 L 216.558594 0 L 216.558594 223.210938 L 0.113281 223.210938 Z M 0.113281 0 " fill-opacity="1" fill-rule="nonzero"/></g></g><path fill="#ffffff" d="M 42.761719 7.015625 L 171.152344 7.015625 C 173.417969 7.015625 175.59375 7.917969 177.195312 9.519531 C 178.796875 11.121094 179.699219 13.296875 179.699219 15.5625 L 179.699219 32.660156 C 179.699219 34.925781 178.796875 37.101562 177.195312 38.703125 C 175.59375 40.308594 173.417969 41.207031 171.152344 41.207031 L 42.761719 41.207031 C 38.039062 41.207031 34.214844 37.382812 34.214844 32.660156 L 34.214844 15.5625 C 34.214844 10.84375 38.039062 7.015625 42.761719 7.015625 Z M 42.761719 7.015625 " fill-opacity="1" fill-rule="nonzero"/><g fill="#000000" fill-opacity="1"><g transform="translate(42.561006, 32.064659)"><g><path d="M 10.25 0 L 9.46875 -4.546875 L 3.234375 -4.546875 L 0.59375 0 L -1.59375 0 L 7.296875 -14.9375 L 9.4375 -14.9375 L 12.328125 0 Z M 6.5625 -10.328125 L 4.125 -6.109375 L 9.203125 -6.109375 L 8.46875 -10.34375 C 8.394531 -10.789062 8.332031 -11.242188 8.28125 -11.703125 C 8.238281 -12.160156 8.195312 -12.71875 8.15625 -13.375 L 8.125 -13.375 C 7.707031 -12.414062 7.1875 -11.398438 6.5625 -10.328125 Z M 6.5625 -10.328125 "/></g></g></g><g fill="#000000" fill-opacity="1"><g transform="translate(56.474051, 32.064659)"><g><path d="M 3.75 -9.59375 C 4.269531 -10.113281 4.804688 -10.484375 5.359375 -10.703125 C 5.921875 -10.929688 6.507812 -11.046875 7.125 -11.046875 C 8.375 -11.046875 9.328125 -10.65625 9.984375 -9.875 C 10.648438 -9.101562 10.984375 -8.019531 10.984375 -6.625 C 10.984375 -5.3125 10.722656 -4.128906 10.203125 -3.078125 C 9.691406 -2.035156 8.972656 -1.21875 8.046875 -0.625 C 7.128906 -0.0390625 6.09375 0.25 4.9375 0.25 C 4.1875 0.25 3.550781 0.0976562 3.03125 -0.203125 C 2.519531 -0.503906 2.140625 -0.914062 1.890625 -1.4375 L 1.84375 -1.4375 L 1.53125 0 L -0.171875 0 L 3 -14.9375 L 4.84375 -14.9375 L 3.703125 -9.59375 Z M 6.765625 -9.546875 C 5.992188 -9.546875 5.28125 -9.316406 4.625 -8.859375 C 3.976562 -8.398438 3.460938 -7.757812 3.078125 -6.9375 C 2.691406 -6.125 2.5 -5.207031 2.5 -4.1875 C 2.5 -3.238281 2.703125 -2.507812 3.109375 -2 C 3.523438 -1.5 4.132812 -1.25 4.9375 -1.25 C 5.707031 -1.25 6.40625 -1.476562 7.03125 -1.9375 C 7.65625 -2.40625 8.144531 -3.046875 8.5 -3.859375 C 8.863281 -4.679688 9.046875 -5.601562 9.046875 -6.625 C 9.046875 -7.539062 8.847656 -8.253906 8.453125 -8.765625 C 8.066406 -9.285156 7.503906 -9.546875 6.765625 -9.546875 Z M 6.765625 -9.546875 "/></g></g></g><g fill="#000000" fill-opacity="1"><g transform="translate(68.400981, 32.064659)"><g><path d="M 2.40625 -3.734375 C 2.34375 -3.460938 2.3125 -3.1875 2.3125 -2.90625 C 2.3125 -1.851562 2.84375 -1.328125 3.90625 -1.328125 C 4.925781 -1.328125 5.757812 -1.597656 6.40625 -2.140625 C 7.0625 -2.691406 7.515625 -3.570312 7.765625 -4.78125 L 9.046875 -10.8125 L 10.890625 -10.8125 L 8.59375 0 L 6.875 0 L 7.203125 -1.5 C 6.734375 -0.957031 6.175781 -0.53125 5.53125 -0.21875 C 4.882812 0.09375 4.210938 0.25 3.515625 0.25 C 2.503906 0.25 1.742188 -0.00390625 1.234375 -0.515625 C 0.722656 -1.023438 0.46875 -1.726562 0.46875 -2.625 C 0.46875 -3.007812 0.507812 -3.410156 0.59375 -3.828125 L 2.078125 -10.8125 L 3.90625 -10.8125 Z M 2.40625 -3.734375 "/></g></g></g><g fill="#000000" fill-opacity="1"><g transform="translate(80.001983, 32.064659)"><g><path d="M 8.3125 -7.0625 C 8.375 -7.34375 8.40625 -7.617188 8.40625 -7.890625 C 8.40625 -8.941406 7.867188 -9.46875 6.796875 -9.46875 C 5.773438 -9.46875 4.941406 -9.195312 4.296875 -8.65625 C 3.648438 -8.113281 3.195312 -7.234375 2.9375 -6.015625 L 1.65625 0 L -0.171875 0 L 2.125 -10.8125 L 3.84375 -10.8125 L 3.515625 -9.296875 C 3.984375 -9.835938 4.539062 -10.265625 5.1875 -10.578125 C 5.832031 -10.890625 6.503906 -11.046875 7.203125 -11.046875 C 8.210938 -11.046875 8.972656 -10.789062 9.484375 -10.28125 C 9.992188 -9.769531 10.25 -9.066406 10.25 -8.171875 C 10.25 -7.785156 10.203125 -7.390625 10.109375 -6.984375 L 8.640625 0 L 6.796875 0 Z M 8.3125 -7.0625 "/></g></g></g><g fill="#000000" fill-opacity="1"><g transform="translate(91.602985, 32.064659)"><g><path d="M 7.21875 0 L 7.46875 -1.234375 L 7.4375 -1.234375 C 7.019531 -0.753906 6.5 -0.382812 5.875 -0.125 C 5.257812 0.125 4.644531 0.25 4.03125 0.25 C 2.757812 0.25 1.785156 -0.140625 1.109375 -0.921875 C 0.441406 -1.703125 0.109375 -2.800781 0.109375 -4.21875 C 0.109375 -5.476562 0.363281 -6.628906 0.875 -7.671875 C 1.394531 -8.710938 2.101562 -9.535156 3 -10.140625 C 3.894531 -10.742188 4.890625 -11.046875 5.984375 -11.046875 C 6.703125 -11.046875 7.3125 -10.90625 7.8125 -10.625 C 8.3125 -10.34375 8.722656 -9.9375 9.046875 -9.40625 L 9.078125 -9.40625 L 10.265625 -14.9375 L 12.09375 -14.9375 L 8.921875 0 Z M 6.015625 -9.546875 C 5.222656 -9.546875 4.519531 -9.304688 3.90625 -8.828125 C 3.300781 -8.359375 2.832031 -7.710938 2.5 -6.890625 C 2.164062 -6.078125 2 -5.1875 2 -4.21875 C 2 -3.238281 2.203125 -2.5 2.609375 -2 C 3.015625 -1.5 3.597656 -1.25 4.359375 -1.25 C 5.171875 -1.25 5.890625 -1.476562 6.515625 -1.9375 C 7.148438 -2.394531 7.640625 -3.015625 7.984375 -3.796875 C 8.328125 -4.585938 8.5 -5.472656 8.5 -6.453125 C 8.5 -7.421875 8.28125 -8.175781 7.84375 -8.71875 C 7.40625 -9.269531 6.796875 -9.546875 6.015625 -9.546875 Z M 6.015625 -9.546875 "/></g></g></g><g fill="#000000" fill-opacity="1"><g transform="translate(103.529915, 32.064659)"><g><path d="M 8.34375 -1.203125 C 8.34375 -0.835938 8.40625 -0.4375 8.53125 0 L 6.609375 0 C 6.566406 -0.15625 6.535156 -0.304688 6.515625 -0.453125 C 6.492188 -0.609375 6.492188 -0.898438 6.515625 -1.328125 C 5.890625 -0.796875 5.269531 -0.398438 4.65625 -0.140625 C 4.039062 0.117188 3.410156 0.25 2.765625 0.25 C 1.765625 0.25 1 0.015625 0.46875 -0.453125 C -0.0625 -0.921875 -0.328125 -1.570312 -0.328125 -2.40625 C -0.328125 -3.425781 0.0351562 -4.253906 0.765625 -4.890625 C 1.492188 -5.523438 2.691406 -5.96875 4.359375 -6.21875 C 5.859375 -6.4375 6.925781 -6.644531 7.5625 -6.84375 C 7.6875 -7.382812 7.75 -7.800781 7.75 -8.09375 C 7.75 -8.613281 7.585938 -8.984375 7.265625 -9.203125 C 6.953125 -9.429688 6.453125 -9.546875 5.765625 -9.546875 C 4.992188 -9.546875 4.367188 -9.382812 3.890625 -9.0625 C 3.421875 -8.738281 3.039062 -8.210938 2.75 -7.484375 L 1.015625 -7.765625 C 1.441406 -8.898438 2.039062 -9.726562 2.8125 -10.25 C 3.59375 -10.78125 4.601562 -11.046875 5.84375 -11.046875 C 7.125 -11.046875 8.0625 -10.8125 8.65625 -10.34375 C 9.257812 -9.882812 9.5625 -9.179688 9.5625 -8.234375 C 9.5625 -7.847656 9.507812 -7.390625 9.40625 -6.859375 L 8.671875 -3.421875 C 8.453125 -2.429688 8.34375 -1.691406 8.34375 -1.203125 Z M 4.109375 -4.6875 C 3.222656 -4.53125 2.578125 -4.269531 2.171875 -3.90625 C 1.773438 -3.550781 1.578125 -3.085938 1.578125 -2.515625 C 1.578125 -2.097656 1.71875 -1.769531 2 -1.53125 C 2.28125 -1.300781 2.691406 -1.1875 3.234375 -1.1875 C 3.765625 -1.1875 4.351562 -1.359375 5 -1.703125 C 5.445312 -1.941406 5.804688 -2.195312 6.078125 -2.46875 C 6.359375 -2.738281 6.582031 -3.066406 6.75 -3.453125 C 6.914062 -3.835938 7.070312 -4.359375 7.21875 -5.015625 L 7.296875 -5.390625 C 7.117188 -5.328125 6.722656 -5.222656 6.109375 -5.078125 C 5.492188 -4.941406 4.828125 -4.8125 4.109375 -4.6875 Z M 4.109375 -4.6875 "/></g></g></g><g fill="#000000" fill-opacity="1"><g transform="translate(114.43832, 32.064659)"><g><path d="M 8.3125 -7.0625 C 8.375 -7.34375 8.40625 -7.617188 8.40625 -7.890625 C 8.40625 -8.941406 7.867188 -9.46875 6.796875 -9.46875 C 5.773438 -9.46875 4.941406 -9.195312 4.296875 -8.65625 C 3.648438 -8.113281 3.195312 -7.234375 2.9375 -6.015625 L 1.65625 0 L -0.171875 0 L 2.125 -10.8125 L 3.84375 -10.8125 L 3.515625 -9.296875 C 3.984375 -9.835938 4.539062 -10.265625 5.1875 -10.578125 C 5.832031 -10.890625 6.503906 -11.046875 7.203125 -11.046875 C 8.210938 -11.046875 8.972656 -10.789062 9.484375 -10.28125 C 9.992188 -9.769531 10.25 -9.066406 10.25 -8.171875 C 10.25 -7.785156 10.203125 -7.390625 10.109375 -6.984375 L 8.640625 0 L 6.796875 0 Z M 8.3125 -7.0625 "/></g></g></g><g fill="#000000" fill-opacity="1"><g transform="translate(126.039322, 32.064659)"><g><path d="M 6.140625 -9.546875 C 5.328125 -9.546875 4.609375 -9.335938 3.984375 -8.921875 C 3.367188 -8.503906 2.890625 -7.898438 2.546875 -7.109375 C 2.203125 -6.316406 2.03125 -5.390625 2.03125 -4.328125 C 2.03125 -3.398438 2.242188 -2.65625 2.671875 -2.09375 C 3.109375 -1.53125 3.722656 -1.25 4.515625 -1.25 C 5.296875 -1.25 5.984375 -1.492188 6.578125 -1.984375 C 7.179688 -2.472656 7.632812 -3.140625 7.9375 -3.984375 L 9.703125 -3.6875 C 9.265625 -2.445312 8.601562 -1.476562 7.71875 -0.78125 C 6.832031 -0.09375 5.71875 0.25 4.375 0.25 C 3 0.25 1.941406 -0.144531 1.203125 -0.9375 C 0.472656 -1.726562 0.109375 -2.84375 0.109375 -4.28125 C 0.109375 -5.601562 0.367188 -6.773438 0.890625 -7.796875 C 1.421875 -8.828125 2.148438 -9.625 3.078125 -10.1875 C 4.003906 -10.757812 5.039062 -11.046875 6.1875 -11.046875 C 7.445312 -11.046875 8.421875 -10.734375 9.109375 -10.109375 C 9.804688 -9.492188 10.210938 -8.671875 10.328125 -7.640625 L 8.53125 -7.375 C 8.414062 -8.101562 8.171875 -8.644531 7.796875 -9 C 7.421875 -9.363281 6.867188 -9.546875 6.140625 -9.546875 Z M 6.140625 -9.546875 "/></g></g></g><g fill="#000000" fill-opacity="1"><g transform="translate(136.968097, 32.064659)"><g><path d="M 2 -4 C 2 -3.125 2.222656 -2.445312 2.671875 -1.96875 C 3.128906 -1.488281 3.765625 -1.25 4.578125 -1.25 C 5.273438 -1.25 5.910156 -1.453125 6.484375 -1.859375 C 7.066406 -2.265625 7.53125 -2.804688 7.875 -3.484375 L 9.640625 -3.203125 C 9.191406 -2.097656 8.523438 -1.242188 7.640625 -0.640625 C 6.765625 -0.046875 5.734375 0.25 4.546875 0.25 C 3.085938 0.25 1.976562 -0.128906 1.21875 -0.890625 C 0.46875 -1.648438 0.09375 -2.71875 0.09375 -4.09375 C 0.09375 -5.34375 0.347656 -6.492188 0.859375 -7.546875 C 1.378906 -8.609375 2.117188 -9.457031 3.078125 -10.09375 C 4.035156 -10.726562 5.125 -11.046875 6.34375 -11.046875 C 7.175781 -11.046875 7.898438 -10.890625 8.515625 -10.578125 C 9.128906 -10.265625 9.601562 -9.804688 9.9375 -9.203125 C 10.28125 -8.597656 10.453125 -7.863281 10.453125 -7 C 10.453125 -6.476562 10.382812 -5.914062 10.25 -5.3125 L 10.171875 -4.9375 L 2.09375 -4.9375 C 2.03125 -4.582031 2 -4.269531 2 -4 Z M 8.59375 -7.03125 C 8.59375 -7.84375 8.382812 -8.460938 7.96875 -8.890625 C 7.5625 -9.328125 6.976562 -9.546875 6.21875 -9.546875 C 5.664062 -9.546875 5.140625 -9.425781 4.640625 -9.1875 C 4.140625 -8.957031 3.695312 -8.609375 3.3125 -8.140625 C 2.925781 -7.671875 2.632812 -7.109375 2.4375 -6.453125 L 8.5625 -6.453125 C 8.582031 -6.648438 8.59375 -6.84375 8.59375 -7.03125 Z M 8.59375 -7.03125 "/></g></g></g><g fill="#000000" fill-opacity="1"><g transform="translate(148.41111, 32.064659)"><g/></g></g><g fill="#000000" fill-opacity="1"><g transform="translate(154.145411, 32.064659)"><g/></g></g><g fill="#000000" fill-opacity="1"><g transform="translate(159.879712, 32.064659)"><g/></g></g><g fill="#000000" fill-opacity="1"><g transform="translate(165.614012, 32.064659)"><g/></g></g><g fill="#000000" fill-opacity="1"><g transform="translate(148.309395, 33.835926)"><g><path d="M 3.828125 -6.484375 L 4.90625 -6.484375 L 4.625 -5.21875 L 3.546875 -5.21875 L 2.96875 -2.390625 C 2.882812 -2.023438 2.84375 -1.769531 2.84375 -1.625 C 2.84375 -1.476562 2.890625 -1.367188 2.984375 -1.296875 C 3.078125 -1.222656 3.222656 -1.1875 3.421875 -1.1875 C 3.554688 -1.1875 3.75 -1.203125 4 -1.234375 L 3.71875 0.0625 C 3.507812 0.113281 3.210938 0.140625 2.828125 0.140625 C 1.617188 0.140625 1.015625 -0.300781 1.015625 -1.1875 C 1.015625 -1.363281 1.0625 -1.695312 1.15625 -2.1875 L 1.21875 -2.484375 L 1.796875 -5.21875 L 0.9375 -5.21875 L 1.21875 -6.484375 L 2.0625 -6.484375 L 2.28125 -7.53125 L 4.28125 -8.75 Z M 3.828125 -6.484375 "/></g></g></g><g fill="#000000" fill-opacity="1"><g transform="translate(154.003945, 34.885784)"><g><path d="M 5.203125 -3.40625 L 5.203125 -0.78125 L 3.640625 -0.78125 L 3.640625 -3.40625 L 1.078125 -3.40625 L 1.078125 -4.9375 L 3.640625 -4.9375 L 3.640625 -7.5625 L 5.203125 -7.5625 L 5.203125 -4.9375 L 7.765625 -4.9375 L 7.765625 -3.40625 Z M 5.203125 -3.40625 "/></g></g></g><g fill="#000000" fill-opacity="1"><g transform="translate(162.866064, 34.885784)"><g><path d="M 0.703125 0 L 0.703125 -1.5625 L 2.96875 -1.5625 L 2.96875 -6.921875 L 0.90625 -5.640625 L 0.90625 -7.21875 L 3.0625 -8.625 L 4.90625 -8.625 L 4.90625 -1.5625 L 6.84375 -1.5625 L 6.84375 0 Z M 0.703125 0 "/></g></g></g></svg>