<svg xmlns="http://www.w3.org/2000/svg" xmlns:xlink="http://www.w3.org/1999/xlink" width="1363" zoomAndPan="magnify" viewBox="0 0 1022.25 179.249993" height="239" preserveAspectRatio="xMidYMid meet" version="1.0"><defs><g/><clipPath id="f961592cc1"><path d="M 7.847656 22.535156 L 39.960938 22.535156 L 39.960938 159.210938 L 7.847656 159.210938 Z M 7.847656 22.535156 " clip-rule="nonzero"/></clipPath><clipPath id="b3a66653ba"><path d="M 58.40625 22.535156 L 90.355469 22.535156 L 90.355469 159.210938 L 58.40625 159.210938 Z M 58.40625 22.535156 " clip-rule="nonzero"/></clipPath><clipPath id="c83b9f53ba"><path d="M 897.878906 17.207031 L 929.996094 17.207031 L 929.996094 153.882812 L 897.878906 153.882812 Z M 897.878906 17.207031 " clip-rule="nonzero"/></clipPath><clipPath id="d2de34d2d5"><path d="M 948.4375 17.207031 L 980.390625 17.207031 L 980.390625 153.882812 L 948.4375 153.882812 Z M 948.4375 17.207031 " clip-rule="nonzero"/></clipPath><clipPath id="05d1db11f4"><path d="M 251.410156 18.023438 L 283.527344 18.023438 L 283.527344 154.703125 L 251.410156 154.703125 Z M 251.410156 18.023438 " clip-rule="nonzero"/></clipPath><clipPath id="5ad133ad04"><path d="M 781.339844 20.351562 L 813.292969 20.351562 L 813.292969 157.027344 L 781.339844 157.027344 Z M 781.339844 20.351562 " clip-rule="nonzero"/></clipPath></defs><g clip-path="url(#f961592cc1)"><path fill="#000000" d="M 39.890625 25.839844 L 39.890625 23 C 34.132812 22.890625 27.667969 22.78125 20.578125 22.671875 C 18.8125 22.644531 16.992188 22.617188 15.171875 22.589844 C 14.246094 22.589844 13.324219 22.5625 12.375 22.5625 C 11.585938 22.5625 10.796875 22.5625 9.984375 22.535156 C 9.546875 22.535156 9.113281 22.535156 8.652344 22.535156 L 7.945312 22.535156 L 7.945312 23.164062 C 7.945312 24.664062 7.972656 26.167969 7.972656 27.699219 C 7.972656 28.683594 7.972656 29.664062 7.972656 30.648438 C 7.972656 32.644531 7.972656 34.667969 7.972656 36.714844 C 7.945312 53.109375 7.945312 71.472656 7.917969 90.875 C 7.945312 110.246094 7.945312 128.609375 7.972656 145.03125 C 7.972656 147.078125 7.972656 149.101562 7.972656 151.097656 C 7.972656 152.082031 7.972656 153.0625 7.972656 154.046875 C 7.972656 155.578125 7.945312 157.082031 7.945312 158.582031 L 7.945312 159.210938 L 8.652344 159.210938 C 9.085938 159.210938 9.519531 159.210938 9.984375 159.210938 C 10.769531 159.210938 11.558594 159.210938 12.375 159.183594 C 13.324219 159.183594 14.246094 159.15625 15.171875 159.15625 C 17.019531 159.128906 18.8125 159.101562 20.578125 159.074219 C 27.640625 158.964844 34.132812 158.855469 39.890625 158.746094 L 39.890625 155.90625 C 34.132812 155.796875 27.667969 155.6875 20.578125 155.578125 C 18.8125 155.550781 16.992188 155.523438 15.171875 155.496094 C 14.246094 155.496094 13.324219 155.46875 12.375 155.46875 L 11.75 155.46875 C 11.75 155.46875 11.75 155.441406 11.75 155.414062 L 11.777344 155.195312 L 11.777344 154.867188 C 11.777344 154.621094 11.777344 154.375 11.804688 154.128906 C 11.832031 153.144531 11.855469 152.164062 11.855469 151.179688 C 11.882812 149.183594 11.9375 147.160156 11.964844 145.113281 C 12.238281 128.691406 12.347656 110.328125 12.347656 90.925781 C 12.347656 71.527344 12.238281 53.164062 11.964844 36.742188 C 11.9375 34.695312 11.882812 32.671875 11.855469 30.675781 C 11.832031 29.691406 11.804688 28.683594 11.804688 27.726562 C 11.804688 27.480469 11.804688 27.234375 11.777344 26.988281 L 11.777344 26.660156 L 11.75 26.441406 C 11.75 26.414062 11.75 26.386719 11.75 26.386719 L 12.375 26.386719 C 13.324219 26.386719 14.246094 26.359375 15.171875 26.359375 C 17.019531 26.332031 18.8125 26.304688 20.578125 26.277344 C 27.667969 26.058594 34.132812 25.949219 39.890625 25.839844 Z M 39.890625 25.839844 " fill-opacity="1" fill-rule="nonzero"/></g><g fill="#000000" fill-opacity="1"><g transform="translate(23.631711, 79.188868)"><g><path d="M 25.859375 0 L 10.90625 -25.765625 C 11.070312 -22.410156 11.15625 -20.300781 11.15625 -19.4375 L 11.15625 0 L 3.875 0 L 3.875 -34.546875 L 13.65625 -34.546875 L 28.828125 -8.578125 C 28.773438 -9.285156 28.71875 -10.1875 28.65625 -11.28125 C 28.59375 -12.375 28.5625 -13.753906 28.5625 -15.421875 L 28.5625 -34.546875 L 35.796875 -34.546875 L 35.796875 0 Z M 25.859375 0 "/></g></g></g><g fill="#000000" fill-opacity="1"><g transform="translate(60.68783, 84.457253)"><g><path d="M 1.21875 0 L 1.21875 -2.71875 L 5.171875 -2.71875 L 5.171875 -12.015625 L 1.578125 -9.8125 L 1.578125 -12.546875 L 5.3125 -14.984375 L 8.546875 -14.984375 L 8.546875 -2.71875 L 11.90625 -2.71875 L 11.90625 0 Z M 1.21875 0 "/></g></g></g><g fill="#000000" fill-opacity="1"><g transform="translate(23.986581, 139.138533)"><g><path d="M 25.859375 0 L 10.90625 -25.765625 C 11.070312 -22.410156 11.15625 -20.300781 11.15625 -19.4375 L 11.15625 0 L 3.875 0 L 3.875 -34.546875 L 13.65625 -34.546875 L 28.828125 -8.578125 C 28.773438 -9.285156 28.71875 -10.1875 28.65625 -11.28125 C 28.59375 -12.375 28.5625 -13.753906 28.5625 -15.421875 L 28.5625 -34.546875 L 35.796875 -34.546875 L 35.796875 0 Z M 25.859375 0 "/></g></g></g><g fill="#000000" fill-opacity="1"><g transform="translate(61.042698, 144.406919)"><g><path d="M 0.703125 0 L 0.703125 -2.34375 C 1.109375 -3.21875 1.632812 -4.039062 2.28125 -4.8125 C 2.9375 -5.59375 3.78125 -6.382812 4.8125 -7.1875 C 5.925781 -8.050781 6.640625 -8.632812 6.953125 -8.9375 C 7.273438 -9.25 7.523438 -9.554688 7.703125 -9.859375 C 7.878906 -10.160156 7.96875 -10.476562 7.96875 -10.8125 C 7.96875 -11.382812 7.8125 -11.804688 7.5 -12.078125 C 7.1875 -12.359375 6.765625 -12.5 6.234375 -12.5 C 5.617188 -12.5 5.15625 -12.34375 4.84375 -12.03125 C 4.53125 -11.726562 4.328125 -11.257812 4.234375 -10.625 L 0.84375 -10.78125 C 1.019531 -12.238281 1.554688 -13.335938 2.453125 -14.078125 C 3.359375 -14.828125 4.578125 -15.203125 6.109375 -15.203125 C 7.773438 -15.203125 9.070312 -14.828125 10 -14.078125 C 10.9375 -13.328125 11.40625 -12.28125 11.40625 -10.9375 C 11.40625 -10.289062 11.273438 -9.703125 11.015625 -9.171875 C 10.765625 -8.640625 10.410156 -8.132812 9.953125 -7.65625 C 9.503906 -7.175781 8.769531 -6.566406 7.75 -5.828125 C 6.988281 -5.273438 6.328125 -4.75 5.765625 -4.25 C 5.210938 -3.75 4.800781 -3.253906 4.53125 -2.765625 L 11.640625 -2.765625 L 11.640625 0 Z M 0.703125 0 "/></g></g></g><g fill="#000000" fill-opacity="1"><g transform="translate(713.546754, 135.357202)"><g><path d="M 20.328125 -31.359375 L 20.328125 -4.375 C 22.523438 -4.59375 24.140625 -5.210938 25.171875 -6.234375 C 26.210938 -7.253906 26.734375 -9.0625 26.734375 -11.65625 C 26.734375 -13.46875 26.578125 -15.253906 26.265625 -17.015625 C 25.960938 -18.785156 25.582031 -20.632812 25.125 -22.5625 L 30.8125 -22.5625 C 31.863281 -18.78125 32.390625 -15.128906 32.390625 -11.609375 C 32.390625 -8.773438 31.851562 -6.503906 30.78125 -4.796875 C 29.707031 -3.085938 28.257812 -1.832031 26.4375 -1.03125 C 24.625 -0.226562 22.585938 0.238281 20.328125 0.375 L 20.328125 9.921875 L 14.625 9.921875 L 14.625 0.375 C 12.34375 0.289062 10.316406 -0.132812 8.546875 -0.90625 C 6.785156 -1.675781 5.398438 -2.894531 4.390625 -4.5625 C 3.390625 -6.226562 2.890625 -8.441406 2.890625 -11.203125 L 2.890625 -22.5625 L 8.765625 -22.5625 L 8.765625 -11.03125 C 8.765625 -8.6875 9.1875 -7.023438 10.03125 -6.046875 C 10.882812 -5.066406 12.414062 -4.5 14.625 -4.34375 L 14.625 -31.359375 Z M 20.328125 -31.359375 "/></g></g></g><g fill="#000000" fill-opacity="1"><g transform="translate(748.124445, 135.357202)"><g/></g></g><g fill="#000000" fill-opacity="1"><g transform="translate(759.521396, 135.357202)"><g><path d="M 14.0625 -10.125 C 14.0625 -6.34375 13.5 -2.957031 12.375 0.03125 C 11.25 3.019531 9.40625 6.066406 6.84375 9.171875 L 0.390625 9.171875 C 2.941406 6.023438 4.796875 2.96875 5.953125 0 C 7.117188 -2.96875 7.703125 -6.332031 7.703125 -10.09375 C 7.703125 -13.800781 7.125 -17.144531 5.96875 -20.125 C 4.8125 -23.101562 2.953125 -26.171875 0.390625 -29.328125 L 6.84375 -29.328125 C 9.445312 -26.148438 11.300781 -23.085938 12.40625 -20.140625 C 13.507812 -17.191406 14.0625 -13.851562 14.0625 -10.125 Z M 14.0625 -10.125 "/></g></g></g><g fill="#000000" fill-opacity="1"><g transform="translate(914.069315, 72.520232)"><g><path d="M 25.859375 0 L 10.90625 -25.765625 C 11.070312 -22.410156 11.15625 -20.300781 11.15625 -19.4375 L 11.15625 0 L 3.875 0 L 3.875 -34.546875 L 13.65625 -34.546875 L 28.828125 -8.578125 C 28.773438 -9.285156 28.71875 -10.1875 28.65625 -11.28125 C 28.59375 -12.375 28.5625 -13.753906 28.5625 -15.421875 L 28.5625 -34.546875 L 35.796875 -34.546875 L 35.796875 0 Z M 25.859375 0 "/></g></g></g><g fill="#000000" fill-opacity="1"><g transform="translate(951.125402, 77.788611)"><g><path d="M 1.21875 0 L 1.21875 -2.71875 L 5.171875 -2.71875 L 5.171875 -12.015625 L 1.578125 -9.8125 L 1.578125 -12.546875 L 5.3125 -14.984375 L 8.546875 -14.984375 L 8.546875 -2.71875 L 11.90625 -2.71875 L 11.90625 0 Z M 1.21875 0 "/></g></g></g><g fill="#000000" fill-opacity="1"><g transform="translate(914.424135, 132.469896)"><g><path d="M 25.859375 0 L 10.90625 -25.765625 C 11.070312 -22.410156 11.15625 -20.300781 11.15625 -19.4375 L 11.15625 0 L 3.875 0 L 3.875 -34.546875 L 13.65625 -34.546875 L 28.828125 -8.578125 C 28.773438 -9.285156 28.71875 -10.1875 28.65625 -11.28125 C 28.59375 -12.375 28.5625 -13.753906 28.5625 -15.421875 L 28.5625 -34.546875 L 35.796875 -34.546875 L 35.796875 0 Z M 25.859375 0 "/></g></g></g><g fill="#000000" fill-opacity="1"><g transform="translate(951.480221, 137.738286)"><g><path d="M 0.703125 0 L 0.703125 -2.34375 C 1.109375 -3.21875 1.632812 -4.039062 2.28125 -4.8125 C 2.9375 -5.59375 3.78125 -6.382812 4.8125 -7.1875 C 5.925781 -8.050781 6.640625 -8.632812 6.953125 -8.9375 C 7.273438 -9.25 7.523438 -9.554688 7.703125 -9.859375 C 7.878906 -10.160156 7.96875 -10.476562 7.96875 -10.8125 C 7.96875 -11.382812 7.8125 -11.804688 7.5 -12.078125 C 7.1875 -12.359375 6.765625 -12.5 6.234375 -12.5 C 5.617188 -12.5 5.15625 -12.34375 4.84375 -12.03125 C 4.53125 -11.726562 4.328125 -11.257812 4.234375 -10.625 L 0.84375 -10.78125 C 1.019531 -12.238281 1.554688 -13.335938 2.453125 -14.078125 C 3.359375 -14.828125 4.578125 -15.203125 6.109375 -15.203125 C 7.773438 -15.203125 9.070312 -14.828125 10 -14.078125 C 10.9375 -13.328125 11.40625 -12.28125 11.40625 -10.9375 C 11.40625 -10.289062 11.273438 -9.703125 11.015625 -9.171875 C 10.765625 -8.640625 10.410156 -8.132812 9.953125 -7.65625 C 9.503906 -7.175781 8.769531 -6.566406 7.75 -5.828125 C 6.988281 -5.273438 6.328125 -4.75 5.765625 -4.25 C 5.210938 -3.75 4.800781 -3.253906 4.53125 -2.765625 L 11.640625 -2.765625 L 11.640625 0 Z M 0.703125 0 "/></g></g></g><g clip-path="url(#b3a66653ba)"><path fill="#000000" d="M 58.476562 25.839844 L 58.476562 23 C 64.234375 22.890625 70.699219 22.78125 77.789062 22.671875 C 79.554688 22.644531 81.375 22.617188 83.195312 22.589844 C 84.117188 22.589844 85.042969 22.5625 85.992188 22.5625 C 86.78125 22.5625 87.570312 22.5625 88.382812 22.535156 C 88.816406 22.535156 89.253906 22.535156 89.714844 22.535156 L 90.421875 22.535156 L 90.421875 23.164062 C 90.421875 24.664062 90.394531 26.167969 90.394531 27.699219 C 90.394531 28.683594 90.394531 29.664062 90.394531 30.648438 C 90.394531 32.644531 90.394531 34.667969 90.394531 36.714844 C 90.421875 53.109375 90.421875 71.472656 90.449219 90.875 C 90.421875 110.246094 90.421875 128.609375 90.394531 145.03125 C 90.394531 147.078125 90.394531 149.101562 90.394531 151.097656 C 90.394531 152.082031 90.394531 153.0625 90.394531 154.046875 C 90.394531 155.578125 90.421875 157.082031 90.421875 158.582031 L 90.421875 159.210938 L 89.714844 159.210938 C 89.28125 159.210938 88.84375 159.210938 88.382812 159.210938 C 87.597656 159.210938 86.808594 159.210938 85.992188 159.183594 C 85.042969 159.183594 84.117188 159.15625 83.195312 159.15625 C 81.347656 159.128906 79.554688 159.101562 77.789062 159.074219 C 70.726562 158.964844 64.234375 158.855469 58.476562 158.746094 L 58.476562 155.90625 C 64.234375 155.796875 70.699219 155.6875 77.789062 155.578125 C 79.554688 155.550781 81.375 155.523438 83.195312 155.496094 C 84.117188 155.496094 85.042969 155.46875 85.992188 155.46875 L 86.617188 155.46875 C 86.617188 155.46875 86.617188 155.441406 86.617188 155.414062 L 86.589844 155.195312 L 86.589844 154.867188 C 86.589844 154.621094 86.589844 154.375 86.5625 154.128906 C 86.535156 153.144531 86.507812 152.164062 86.507812 151.179688 C 86.480469 149.183594 86.429688 147.160156 86.402344 145.113281 C 86.128906 128.691406 86.019531 110.328125 86.019531 90.925781 C 86.019531 71.527344 86.128906 53.164062 86.402344 36.742188 C 86.429688 34.695312 86.480469 32.671875 86.507812 30.675781 C 86.535156 29.691406 86.5625 28.683594 86.5625 27.726562 C 86.5625 27.480469 86.5625 27.234375 86.589844 26.988281 L 86.589844 26.660156 L 86.617188 26.441406 C 86.617188 26.414062 86.617188 26.386719 86.617188 26.386719 L 85.992188 26.386719 C 85.042969 26.386719 84.117188 26.359375 83.195312 26.359375 C 81.347656 26.332031 79.554688 26.304688 77.789062 26.277344 C 70.699219 26.058594 64.234375 25.949219 58.476562 25.839844 Z M 58.476562 25.839844 " fill-opacity="1" fill-rule="nonzero"/></g><g clip-path="url(#c83b9f53ba)"><path fill="#000000" d="M 929.921875 20.511719 L 929.921875 17.667969 C 924.164062 17.558594 917.699219 17.449219 910.609375 17.339844 C 908.84375 17.3125 907.023438 17.285156 905.203125 17.261719 C 904.28125 17.261719 903.355469 17.234375 902.40625 17.234375 C 901.617188 17.234375 900.832031 17.234375 900.015625 17.207031 C 899.582031 17.207031 899.148438 17.207031 898.683594 17.207031 L 897.980469 17.207031 L 897.980469 17.832031 C 897.980469 19.335938 898.007812 20.839844 898.007812 22.371094 C 898.007812 23.351562 898.007812 24.335938 898.007812 25.320312 C 898.007812 27.316406 898.007812 29.335938 898.007812 31.386719 C 897.980469 47.78125 897.980469 66.144531 897.953125 85.542969 C 897.980469 104.917969 897.980469 123.28125 898.007812 139.703125 C 898.007812 141.75 898.007812 143.773438 898.007812 145.769531 C 898.007812 146.75 898.007812 147.734375 898.007812 148.71875 C 898.007812 150.25 897.980469 151.75 897.980469 153.253906 L 897.980469 153.882812 L 898.683594 153.882812 C 899.121094 153.882812 899.554688 153.882812 900.015625 153.882812 C 900.804688 153.882812 901.589844 153.882812 902.40625 153.855469 C 903.355469 153.855469 904.28125 153.828125 905.203125 153.828125 C 907.050781 153.800781 908.84375 153.773438 910.609375 153.746094 C 917.671875 153.636719 924.164062 153.527344 929.921875 153.417969 L 929.921875 150.578125 C 924.164062 150.46875 917.699219 150.359375 910.609375 150.25 C 908.84375 150.222656 907.023438 150.195312 905.203125 150.167969 C 904.28125 150.167969 903.355469 150.140625 902.40625 150.140625 L 901.78125 150.140625 C 901.78125 150.140625 901.78125 150.113281 901.78125 150.085938 L 901.808594 149.867188 L 901.808594 149.539062 C 901.808594 149.292969 901.808594 149.046875 901.835938 148.800781 C 901.863281 147.816406 901.890625 146.832031 901.890625 145.851562 C 901.917969 143.855469 901.972656 141.832031 902 139.785156 C 902.269531 123.363281 902.378906 105 902.378906 85.597656 C 902.378906 66.199219 902.269531 47.835938 902 31.414062 C 901.972656 29.363281 901.917969 27.34375 901.890625 25.347656 C 901.863281 24.363281 901.835938 23.351562 901.835938 22.398438 C 901.835938 22.152344 901.835938 21.90625 901.808594 21.660156 L 901.808594 21.332031 L 901.78125 21.113281 C 901.78125 21.085938 901.78125 21.058594 901.78125 21.058594 L 902.40625 21.058594 C 903.355469 21.058594 904.28125 21.03125 905.203125 21.03125 C 907.050781 21.003906 908.84375 20.976562 910.609375 20.949219 C 917.699219 20.730469 924.164062 20.621094 929.921875 20.511719 Z M 929.921875 20.511719 " fill-opacity="1" fill-rule="nonzero"/></g><g clip-path="url(#d2de34d2d5)"><path fill="#000000" d="M 948.511719 20.511719 L 948.511719 17.667969 C 954.269531 17.558594 960.734375 17.449219 967.824219 17.339844 C 969.589844 17.3125 971.410156 17.285156 973.230469 17.261719 C 974.152344 17.261719 975.074219 17.234375 976.027344 17.234375 C 976.8125 17.234375 977.601562 17.234375 978.417969 17.207031 C 978.851562 17.207031 979.285156 17.207031 979.746094 17.207031 L 980.453125 17.207031 L 980.453125 17.832031 C 980.453125 19.335938 980.425781 20.839844 980.425781 22.371094 C 980.425781 23.351562 980.425781 24.335938 980.425781 25.320312 C 980.425781 27.316406 980.425781 29.335938 980.425781 31.386719 C 980.453125 47.78125 980.453125 66.144531 980.480469 85.542969 C 980.453125 104.917969 980.453125 123.28125 980.425781 139.703125 C 980.425781 141.75 980.425781 143.773438 980.425781 145.769531 C 980.425781 146.75 980.425781 147.734375 980.425781 148.71875 C 980.425781 150.25 980.453125 151.75 980.453125 153.253906 L 980.453125 153.882812 L 979.746094 153.882812 C 979.3125 153.882812 978.878906 153.882812 978.417969 153.882812 C 977.628906 153.882812 976.839844 153.882812 976.027344 153.855469 C 975.074219 153.855469 974.152344 153.828125 973.230469 153.828125 C 971.382812 153.800781 969.589844 153.773438 967.824219 153.746094 C 960.761719 153.636719 954.269531 153.527344 948.511719 153.417969 L 948.511719 150.578125 C 954.269531 150.46875 960.734375 150.359375 967.824219 150.25 C 969.589844 150.222656 971.410156 150.195312 973.230469 150.167969 C 974.152344 150.167969 975.074219 150.140625 976.027344 150.140625 L 976.652344 150.140625 C 976.652344 150.140625 976.652344 150.113281 976.652344 150.085938 L 976.625 149.867188 L 976.625 149.539062 C 976.625 149.292969 976.625 149.046875 976.597656 148.800781 C 976.570312 147.816406 976.542969 146.832031 976.542969 145.851562 C 976.515625 143.855469 976.460938 141.832031 976.433594 139.785156 C 976.164062 123.363281 976.054688 105 976.054688 85.597656 C 976.054688 66.199219 976.164062 47.835938 976.433594 31.414062 C 976.460938 29.363281 976.515625 27.34375 976.542969 25.347656 C 976.570312 24.363281 976.597656 23.351562 976.597656 22.398438 C 976.597656 22.152344 976.597656 21.90625 976.625 21.660156 L 976.625 21.332031 L 976.652344 21.113281 C 976.652344 21.085938 976.652344 21.058594 976.652344 21.058594 L 976.027344 21.058594 C 975.074219 21.058594 974.152344 21.03125 973.230469 21.03125 C 971.382812 21.003906 969.589844 20.976562 967.824219 20.949219 C 960.734375 20.730469 954.269531 20.621094 948.511719 20.511719 Z M 948.511719 20.511719 " fill-opacity="1" fill-rule="nonzero"/></g><g clip-path="url(#05d1db11f4)"><path fill="#000000" d="M 283.453125 21.332031 L 283.453125 18.488281 C 277.695312 18.378906 271.230469 18.269531 264.140625 18.160156 C 262.375 18.132812 260.554688 18.105469 258.734375 18.078125 C 257.8125 18.078125 256.886719 18.050781 255.9375 18.050781 C 255.148438 18.050781 254.363281 18.050781 253.546875 18.023438 C 253.113281 18.023438 252.675781 18.023438 252.214844 18.023438 L 251.507812 18.023438 L 251.507812 18.652344 C 251.507812 20.15625 251.535156 21.660156 251.535156 23.1875 C 251.535156 24.171875 251.535156 25.15625 251.535156 26.140625 C 251.535156 28.132812 251.535156 30.15625 251.535156 32.207031 C 251.507812 48.601562 251.507812 66.960938 251.480469 86.363281 C 251.507812 105.738281 251.507812 124.097656 251.535156 140.519531 C 251.535156 142.570312 251.535156 144.59375 251.535156 146.585938 C 251.535156 147.570312 251.535156 148.554688 251.535156 149.539062 C 251.535156 151.066406 251.507812 152.570312 251.507812 154.074219 L 251.507812 154.703125 L 252.214844 154.703125 C 252.648438 154.703125 253.085938 154.703125 253.546875 154.703125 C 254.335938 154.703125 255.121094 154.703125 255.9375 154.675781 C 256.886719 154.675781 257.8125 154.648438 258.734375 154.648438 C 260.582031 154.621094 262.375 154.59375 264.140625 154.566406 C 271.203125 154.457031 277.695312 154.347656 283.453125 154.238281 L 283.453125 151.394531 C 277.695312 151.285156 271.230469 151.175781 264.140625 151.066406 C 262.375 151.039062 260.554688 151.011719 258.734375 150.984375 C 257.8125 150.984375 256.886719 150.957031 255.9375 150.957031 L 255.3125 150.957031 C 255.3125 150.957031 255.3125 150.929688 255.3125 150.902344 L 255.339844 150.6875 L 255.339844 150.359375 C 255.339844 150.113281 255.339844 149.867188 255.367188 149.621094 C 255.394531 148.636719 255.421875 147.652344 255.421875 146.667969 C 255.449219 144.675781 255.503906 142.652344 255.53125 140.601562 C 255.800781 124.179688 255.910156 105.820312 255.910156 86.417969 C 255.910156 67.015625 255.800781 48.65625 255.53125 32.234375 C 255.503906 30.183594 255.449219 28.160156 255.421875 26.167969 C 255.394531 25.183594 255.367188 24.171875 255.367188 23.214844 C 255.367188 22.96875 255.367188 22.722656 255.339844 22.476562 L 255.339844 22.148438 L 255.3125 21.933594 C 255.3125 21.90625 255.3125 21.878906 255.3125 21.878906 L 255.9375 21.878906 C 256.886719 21.878906 257.8125 21.851562 258.734375 21.851562 C 260.582031 21.824219 262.375 21.796875 264.140625 21.769531 C 271.230469 21.550781 277.695312 21.441406 283.453125 21.332031 Z M 283.453125 21.332031 " fill-opacity="1" fill-rule="nonzero"/></g><g clip-path="url(#5ad133ad04)"><path fill="#000000" d="M 781.410156 23.65625 L 781.410156 20.816406 C 787.171875 20.707031 793.636719 20.597656 800.726562 20.488281 C 802.492188 20.460938 804.308594 20.433594 806.128906 20.40625 C 807.054688 20.40625 807.976562 20.378906 808.929688 20.378906 C 809.714844 20.378906 810.503906 20.378906 811.316406 20.351562 C 811.753906 20.351562 812.1875 20.351562 812.648438 20.351562 L 813.355469 20.351562 L 813.355469 20.980469 C 813.355469 22.480469 813.328125 23.984375 813.328125 25.515625 C 813.328125 26.5 813.328125 27.480469 813.328125 28.464844 C 813.328125 30.460938 813.328125 32.484375 813.328125 34.53125 C 813.355469 50.925781 813.355469 69.289062 813.382812 88.6875 C 813.355469 108.0625 813.355469 126.425781 813.328125 142.847656 C 813.328125 144.894531 813.328125 146.917969 813.328125 148.914062 C 813.328125 149.898438 813.328125 150.878906 813.328125 151.863281 C 813.328125 153.394531 813.355469 154.898438 813.355469 156.398438 L 813.355469 157.027344 L 812.648438 157.027344 C 812.214844 157.027344 811.78125 157.027344 811.316406 157.027344 C 810.53125 157.027344 809.742188 157.027344 808.929688 157 C 807.976562 157 807.054688 156.972656 806.128906 156.972656 C 804.28125 156.945312 802.492188 156.917969 800.726562 156.890625 C 793.664062 156.78125 787.171875 156.671875 781.410156 156.5625 L 781.410156 153.722656 C 787.171875 153.613281 793.636719 153.503906 800.726562 153.394531 C 802.492188 153.367188 804.308594 153.339844 806.128906 153.3125 C 807.054688 153.3125 807.976562 153.285156 808.929688 153.285156 L 809.550781 153.285156 C 809.550781 153.285156 809.550781 153.257812 809.550781 153.230469 L 809.527344 153.011719 L 809.527344 152.683594 C 809.527344 152.4375 809.527344 152.191406 809.5 151.945312 C 809.472656 150.960938 809.445312 149.980469 809.445312 148.996094 C 809.417969 147 809.363281 144.976562 809.335938 142.929688 C 809.0625 126.507812 808.957031 108.144531 808.957031 88.742188 C 808.957031 69.34375 809.0625 50.980469 809.335938 34.558594 C 809.363281 32.507812 809.417969 30.488281 809.445312 28.492188 C 809.472656 27.507812 809.5 26.5 809.5 25.542969 C 809.5 25.296875 809.5 25.050781 809.527344 24.804688 L 809.527344 24.476562 L 809.550781 24.257812 C 809.550781 24.230469 809.550781 24.203125 809.550781 24.203125 L 808.929688 24.203125 C 807.976562 24.203125 807.054688 24.175781 806.128906 24.175781 C 804.28125 24.148438 802.492188 24.121094 800.726562 24.09375 C 793.636719 23.875 787.171875 23.765625 781.410156 23.65625 Z M 781.410156 23.65625 " fill-opacity="1" fill-rule="nonzero"/></g><g fill="#000000" fill-opacity="1"><g transform="translate(103.759554, 155.892494)"><g><path d="M 9.8125 -16.671875 L 12.578125 -16.671875 L 11.875 -13.390625 L 9.109375 -13.390625 L 7.625 -6.140625 C 7.40625 -5.203125 7.296875 -4.550781 7.296875 -4.1875 C 7.296875 -3.800781 7.414062 -3.515625 7.65625 -3.328125 C 7.894531 -3.148438 8.269531 -3.0625 8.78125 -3.0625 C 9.125 -3.0625 9.617188 -3.101562 10.265625 -3.1875 L 9.5625 0.15625 C 9.019531 0.289062 8.253906 0.359375 7.265625 0.359375 C 4.160156 0.359375 2.609375 -0.78125 2.609375 -3.0625 C 2.609375 -3.507812 2.722656 -4.363281 2.953125 -5.625 L 3.125 -6.375 L 4.59375 -13.390625 L 2.40625 -13.390625 L 3.125 -16.671875 L 5.3125 -16.671875 L 5.859375 -19.328125 L 11 -22.453125 Z M 9.8125 -16.671875 "/></g></g></g><g fill="#000000" fill-opacity="1"><g transform="translate(119.642032, 155.900501)"><g><path d="M 13.359375 -8.75 L 13.359375 -2 L 9.359375 -2 L 9.359375 -8.75 L 2.78125 -8.75 L 2.78125 -12.671875 L 9.359375 -12.671875 L 9.359375 -19.40625 L 13.359375 -19.40625 L 13.359375 -12.671875 L 19.953125 -12.671875 L 19.953125 -8.75 Z M 13.359375 -8.75 "/></g></g></g><g fill="#000000" fill-opacity="1"><g transform="translate(142.376799, 155.900501)"><g><path d="M 1.8125 0 L 1.8125 -4.015625 L 7.640625 -4.015625 L 7.640625 -17.75 L 2.328125 -14.484375 L 2.328125 -18.53125 L 7.859375 -22.140625 L 12.609375 -22.140625 L 12.609375 -4.015625 L 17.578125 -4.015625 L 17.578125 0 Z M 1.8125 0 "/></g></g></g><g fill="#000000" fill-opacity="1"><g transform="translate(284.692102, 68.743325)"><g><path d="M 1.1875 -10.125 C 1.1875 -13.851562 1.734375 -17.1875 2.828125 -20.125 C 3.929688 -23.070312 5.789062 -26.140625 8.40625 -29.328125 L 14.859375 -29.328125 C 12.304688 -26.179688 10.445312 -23.117188 9.28125 -20.140625 C 8.125 -17.171875 7.546875 -13.820312 7.546875 -10.09375 C 7.546875 -6.363281 8.125 -3.003906 9.28125 -0.015625 C 10.445312 2.960938 12.304688 6.023438 14.859375 9.171875 L 8.40625 9.171875 C 5.820312 6.046875 3.972656 2.992188 2.859375 0.015625 C 1.742188 -2.953125 1.1875 -6.332031 1.1875 -10.125 Z M 1.1875 -10.125 "/></g></g></g><g fill="#000000" fill-opacity="1"><g transform="translate(299.941828, 68.743325)"><g><path d="M 2.3125 0 L 2.3125 -5.171875 L 9.796875 -5.171875 L 9.796875 -22.796875 L 2.984375 -18.59375 L 2.984375 -23.796875 L 10.09375 -28.421875 L 16.203125 -28.421875 L 16.203125 -5.171875 L 22.578125 -5.171875 L 22.578125 0 Z M 2.3125 0 "/></g></g></g><g fill="#000000" fill-opacity="1"><g transform="translate(323.703968, 68.743325)"><g><path d="M 2.5 -7.8125 L 2.5 -13.359375 L 14.203125 -13.359375 L 14.203125 -7.8125 Z M 2.5 -7.8125 "/></g></g></g><g fill="#000000" fill-opacity="1"><g transform="translate(340.406049, 68.743325)"><g><path d="M 20.328125 -31.359375 L 20.328125 -4.375 C 22.523438 -4.59375 24.140625 -5.210938 25.171875 -6.234375 C 26.210938 -7.253906 26.734375 -9.0625 26.734375 -11.65625 C 26.734375 -13.46875 26.578125 -15.253906 26.265625 -17.015625 C 25.960938 -18.785156 25.582031 -20.632812 25.125 -22.5625 L 30.8125 -22.5625 C 31.863281 -18.78125 32.390625 -15.128906 32.390625 -11.609375 C 32.390625 -8.773438 31.851562 -6.503906 30.78125 -4.796875 C 29.707031 -3.085938 28.257812 -1.832031 26.4375 -1.03125 C 24.625 -0.226562 22.585938 0.238281 20.328125 0.375 L 20.328125 9.921875 L 14.625 9.921875 L 14.625 0.375 C 12.34375 0.289062 10.316406 -0.132812 8.546875 -0.90625 C 6.785156 -1.675781 5.398438 -2.894531 4.390625 -4.5625 C 3.390625 -6.226562 2.890625 -8.441406 2.890625 -11.203125 L 2.890625 -22.5625 L 8.765625 -22.5625 L 8.765625 -11.03125 C 8.765625 -8.6875 9.1875 -7.023438 10.03125 -6.046875 C 10.882812 -5.066406 12.414062 -4.5 14.625 -4.34375 L 14.625 -31.359375 Z M 20.328125 -31.359375 "/></g></g></g><g fill="#000000" fill-opacity="1"><g transform="translate(374.98374, 68.743325)"><g/></g></g><g fill="#000000" fill-opacity="1"><g transform="translate(386.380692, 68.743325)"><g><path d="M 14.0625 -10.125 C 14.0625 -6.34375 13.5 -2.957031 12.375 0.03125 C 11.25 3.019531 9.40625 6.066406 6.84375 9.171875 L 0.390625 9.171875 C 2.941406 6.023438 4.796875 2.96875 5.953125 0 C 7.117188 -2.96875 7.703125 -6.332031 7.703125 -10.09375 C 7.703125 -13.800781 7.125 -17.144531 5.96875 -20.125 C 4.8125 -23.101562 2.953125 -26.171875 0.390625 -29.328125 L 6.84375 -29.328125 C 9.445312 -26.148438 11.300781 -23.085938 12.40625 -20.140625 C 13.507812 -17.191406 14.0625 -13.851562 14.0625 -10.125 Z M 14.0625 -10.125 "/></g></g></g><g fill="#000000" fill-opacity="1"><g transform="translate(401.642861, 68.743325)"><g/></g></g><g fill="#000000" fill-opacity="1"><g transform="translate(370.931242, 85.343819)"><g><path d="M 1.21875 0 L 1.21875 -2.71875 L 5.171875 -2.71875 L 5.171875 -12.015625 L 1.578125 -9.8125 L 1.578125 -12.546875 L 5.3125 -14.984375 L 8.546875 -14.984375 L 8.546875 -2.71875 L 11.90625 -2.71875 L 11.90625 0 Z M 1.21875 0 "/></g></g></g><g fill="#000000" fill-opacity="1"><g transform="translate(541.051892, 70.247828)"><g><path d="M 27.375 -24.609375 L 12.75 -24.609375 L 11.265625 -17.546875 L 25.546875 -17.546875 L 24.515625 -12.59375 L 10.234375 -12.59375 L 7.59375 0 L 1.53125 0 L 7.71875 -29.5625 L 28.40625 -29.5625 Z M 27.375 -24.609375 "/></g></g></g><g fill="#000000" fill-opacity="1"><g transform="translate(428.338611, 70.247828)"><g><path d="M 16.71875 -30.046875 C 20.019531 -30.046875 22.65625 -29.273438 24.625 -27.734375 C 26.59375 -26.191406 27.671875 -23.992188 27.859375 -21.140625 L 22.046875 -20.84375 C 21.765625 -23.757812 19.960938 -25.21875 16.640625 -25.21875 C 15.066406 -25.21875 13.894531 -24.941406 13.125 -24.390625 C 12.351562 -23.847656 11.96875 -23.09375 11.96875 -22.125 C 11.96875 -21.4375 12.207031 -20.832031 12.6875 -20.3125 C 13.175781 -19.789062 13.773438 -19.347656 14.484375 -18.984375 C 15.203125 -18.628906 16.234375 -18.175781 17.578125 -17.625 C 19.316406 -16.90625 20.742188 -16.222656 21.859375 -15.578125 C 22.972656 -14.929688 23.921875 -14.066406 24.703125 -12.984375 C 25.492188 -11.898438 25.890625 -10.554688 25.890625 -8.953125 C 25.890625 -7.222656 25.421875 -5.640625 24.484375 -4.203125 C 23.546875 -2.773438 22.195312 -1.632812 20.4375 -0.78125 C 18.675781 0.0703125 16.582031 0.5 14.15625 0.5 C 10.445312 0.5 7.585938 -0.320312 5.578125 -1.96875 C 3.566406 -3.625 2.5625 -6.117188 2.5625 -9.453125 L 2.5625 -9.578125 L 8.34375 -9.859375 C 8.394531 -8.628906 8.578125 -7.632812 8.890625 -6.875 C 9.210938 -6.113281 9.785156 -5.539062 10.609375 -5.15625 C 11.429688 -4.769531 12.613281 -4.578125 14.15625 -4.578125 C 16.0625 -4.578125 17.488281 -4.90625 18.4375 -5.5625 C 19.382812 -6.226562 19.859375 -7.113281 19.859375 -8.21875 C 19.859375 -8.90625 19.664062 -9.484375 19.28125 -9.953125 C 18.894531 -10.421875 18.28125 -10.867188 17.4375 -11.296875 C 16.601562 -11.722656 15.289062 -12.320312 13.5 -13.09375 C 11.925781 -13.75 10.628906 -14.40625 9.609375 -15.0625 C 8.597656 -15.726562 7.769531 -16.5625 7.125 -17.5625 C 6.476562 -18.570312 6.15625 -19.816406 6.15625 -21.296875 C 6.15625 -23.035156 6.5625 -24.554688 7.375 -25.859375 C 8.1875 -27.171875 9.390625 -28.195312 10.984375 -28.9375 C 12.578125 -29.675781 14.488281 -30.046875 16.71875 -30.046875 Z M 16.71875 -30.046875 "/></g></g></g><g fill="#000000" fill-opacity="1"><g transform="translate(411.131906, 62.714074)"><g><path d="M 7.453125 0 L 5.3125 -3.328125 L 3.15625 0 L -0.046875 0 L 3.640625 -5.015625 L 0.125 -9.734375 L 3.375 -9.734375 L 5.3125 -6.5 L 7.25 -9.734375 L 10.515625 -9.734375 L 7 -5.046875 L 10.734375 0 Z M 7.453125 0 "/></g></g></g><g fill="#000000" fill-opacity="1"><g transform="translate(455.211961, 76.02922)"><g><path d="M 1.21875 0 L 1.21875 -2.71875 L 5.171875 -2.71875 L 5.171875 -12.015625 L 1.578125 -9.8125 L 1.578125 -12.546875 L 5.3125 -14.984375 L 8.546875 -14.984375 L 8.546875 -2.71875 L 11.90625 -2.71875 L 11.90625 0 Z M 1.21875 0 "/></g></g></g><g fill="#000000" fill-opacity="1"><g transform="translate(573.558994, 61.298112)"><g><path d="M 7.453125 0 L 5.3125 -3.328125 L 3.15625 0 L -0.046875 0 L 3.640625 -5.015625 L 0.125 -9.734375 L 3.375 -9.734375 L 5.3125 -6.5 L 7.25 -9.734375 L 10.515625 -9.734375 L 7 -5.046875 L 10.734375 0 Z M 7.453125 0 "/></g></g></g><g fill="#000000" fill-opacity="1"><g transform="translate(585.705234, 68.754685)"><g><path d="M 16.71875 -30.046875 C 20.019531 -30.046875 22.65625 -29.273438 24.625 -27.734375 C 26.59375 -26.191406 27.671875 -23.992188 27.859375 -21.140625 L 22.046875 -20.84375 C 21.765625 -23.757812 19.960938 -25.21875 16.640625 -25.21875 C 15.066406 -25.21875 13.894531 -24.941406 13.125 -24.390625 C 12.351562 -23.847656 11.96875 -23.09375 11.96875 -22.125 C 11.96875 -21.4375 12.207031 -20.832031 12.6875 -20.3125 C 13.175781 -19.789062 13.773438 -19.347656 14.484375 -18.984375 C 15.203125 -18.628906 16.234375 -18.175781 17.578125 -17.625 C 19.316406 -16.90625 20.742188 -16.222656 21.859375 -15.578125 C 22.972656 -14.929688 23.921875 -14.066406 24.703125 -12.984375 C 25.492188 -11.898438 25.890625 -10.554688 25.890625 -8.953125 C 25.890625 -7.222656 25.421875 -5.640625 24.484375 -4.203125 C 23.546875 -2.773438 22.195312 -1.632812 20.4375 -0.78125 C 18.675781 0.0703125 16.582031 0.5 14.15625 0.5 C 10.445312 0.5 7.585938 -0.320312 5.578125 -1.96875 C 3.566406 -3.625 2.5625 -6.117188 2.5625 -9.453125 L 2.5625 -9.578125 L 8.34375 -9.859375 C 8.394531 -8.628906 8.578125 -7.632812 8.890625 -6.875 C 9.210938 -6.113281 9.785156 -5.539062 10.609375 -5.15625 C 11.429688 -4.769531 12.613281 -4.578125 14.15625 -4.578125 C 16.0625 -4.578125 17.488281 -4.90625 18.4375 -5.5625 C 19.382812 -6.226562 19.859375 -7.113281 19.859375 -8.21875 C 19.859375 -8.90625 19.664062 -9.484375 19.28125 -9.953125 C 18.894531 -10.421875 18.28125 -10.867188 17.4375 -11.296875 C 16.601562 -11.722656 15.289062 -12.320312 13.5 -13.09375 C 11.925781 -13.75 10.628906 -14.40625 9.609375 -15.0625 C 8.597656 -15.726562 7.769531 -16.5625 7.125 -17.5625 C 6.476562 -18.570312 6.15625 -19.816406 6.15625 -21.296875 C 6.15625 -23.035156 6.5625 -24.554688 7.375 -25.859375 C 8.1875 -27.171875 9.390625 -28.195312 10.984375 -28.9375 C 12.578125 -29.675781 14.488281 -30.046875 16.71875 -30.046875 Z M 16.71875 -30.046875 "/></g></g></g><g fill="#000000" fill-opacity="1"><g transform="translate(610.91868, 81.203319)"><g><path d="M 11.703125 -7.5 C 11.703125 -4.957031 11.242188 -3.035156 10.328125 -1.734375 C 9.421875 -0.429688 8.054688 0.21875 6.234375 0.21875 C 4.410156 0.21875 3.050781 -0.421875 2.15625 -1.703125 C 1.257812 -2.984375 0.8125 -4.914062 0.8125 -7.5 C 0.8125 -9.289062 1.003906 -10.753906 1.390625 -11.890625 C 1.785156 -13.023438 2.367188 -13.859375 3.140625 -14.390625 C 3.921875 -14.929688 4.972656 -15.203125 6.296875 -15.203125 C 8.171875 -15.203125 9.539062 -14.566406 10.40625 -13.296875 C 11.269531 -12.035156 11.703125 -10.101562 11.703125 -7.5 Z M 8.3125 -7.5 C 8.3125 -8.78125 8.25 -9.785156 8.125 -10.515625 C 8 -11.242188 7.789062 -11.769531 7.5 -12.09375 C 7.21875 -12.425781 6.816406 -12.59375 6.296875 -12.59375 C 5.753906 -12.59375 5.332031 -12.429688 5.03125 -12.109375 C 4.726562 -11.785156 4.515625 -11.265625 4.390625 -10.546875 C 4.265625 -9.828125 4.203125 -8.8125 4.203125 -7.5 C 4.203125 -6.238281 4.269531 -5.242188 4.40625 -4.515625 C 4.539062 -3.785156 4.753906 -3.253906 5.046875 -2.921875 C 5.335938 -2.585938 5.738281 -2.421875 6.25 -2.421875 C 7 -2.421875 7.53125 -2.796875 7.84375 -3.546875 C 8.15625 -4.304688 8.3125 -5.625 8.3125 -7.5 Z M 8.3125 -7.5 "/></g></g></g><g fill="#000000" fill-opacity="1"><g transform="translate(623.32976, 62.714074)"><g><path d="M 7.453125 0 L 5.3125 -3.328125 L 3.15625 0 L -0.046875 0 L 3.640625 -5.015625 L 0.125 -9.734375 L 3.375 -9.734375 L 5.3125 -6.5 L 7.25 -9.734375 L 10.515625 -9.734375 L 7 -5.046875 L 10.734375 0 Z M 7.453125 0 "/></g></g></g><g fill="#000000" fill-opacity="1"><g transform="translate(724.802745, 81.454396)"><g><path d="M 11.703125 -7.5 C 11.703125 -4.957031 11.242188 -3.035156 10.328125 -1.734375 C 9.421875 -0.429688 8.054688 0.21875 6.234375 0.21875 C 4.410156 0.21875 3.050781 -0.421875 2.15625 -1.703125 C 1.257812 -2.984375 0.8125 -4.914062 0.8125 -7.5 C 0.8125 -9.289062 1.003906 -10.753906 1.390625 -11.890625 C 1.785156 -13.023438 2.367188 -13.859375 3.140625 -14.390625 C 3.921875 -14.929688 4.972656 -15.203125 6.296875 -15.203125 C 8.171875 -15.203125 9.539062 -14.566406 10.40625 -13.296875 C 11.269531 -12.035156 11.703125 -10.101562 11.703125 -7.5 Z M 8.3125 -7.5 C 8.3125 -8.78125 8.25 -9.785156 8.125 -10.515625 C 8 -11.242188 7.789062 -11.769531 7.5 -12.09375 C 7.21875 -12.425781 6.816406 -12.59375 6.296875 -12.59375 C 5.753906 -12.59375 5.332031 -12.429688 5.03125 -12.109375 C 4.726562 -11.785156 4.515625 -11.265625 4.390625 -10.546875 C 4.265625 -9.828125 4.203125 -8.8125 4.203125 -7.5 C 4.203125 -6.238281 4.269531 -5.242188 4.40625 -4.515625 C 4.539062 -3.785156 4.753906 -3.253906 5.046875 -2.921875 C 5.335938 -2.585938 5.738281 -2.421875 6.25 -2.421875 C 7 -2.421875 7.53125 -2.796875 7.84375 -3.546875 C 8.15625 -4.304688 8.3125 -5.625 8.3125 -7.5 Z M 8.3125 -7.5 "/></g></g></g><g fill="#000000" fill-opacity="1"><g transform="translate(323.30507, 132.990092)"><g><path d="M 20.328125 -31.359375 L 20.328125 -4.375 C 22.523438 -4.59375 24.140625 -5.210938 25.171875 -6.234375 C 26.210938 -7.253906 26.734375 -9.0625 26.734375 -11.65625 C 26.734375 -13.46875 26.578125 -15.253906 26.265625 -17.015625 C 25.960938 -18.785156 25.582031 -20.632812 25.125 -22.5625 L 30.8125 -22.5625 C 31.863281 -18.78125 32.390625 -15.128906 32.390625 -11.609375 C 32.390625 -8.773438 31.851562 -6.503906 30.78125 -4.796875 C 29.707031 -3.085938 28.257812 -1.832031 26.4375 -1.03125 C 24.625 -0.226562 22.585938 0.238281 20.328125 0.375 L 20.328125 9.921875 L 14.625 9.921875 L 14.625 0.375 C 12.34375 0.289062 10.316406 -0.132812 8.546875 -0.90625 C 6.785156 -1.675781 5.398438 -2.894531 4.390625 -4.5625 C 3.390625 -6.226562 2.890625 -8.441406 2.890625 -11.203125 L 2.890625 -22.5625 L 8.765625 -22.5625 L 8.765625 -11.03125 C 8.765625 -8.6875 9.1875 -7.023438 10.03125 -6.046875 C 10.882812 -5.066406 12.414062 -4.5 14.625 -4.34375 L 14.625 -31.359375 Z M 20.328125 -31.359375 "/></g></g></g><g fill="#000000" fill-opacity="1"><g transform="translate(355.59679, 147.075067)"><g><path d="M 1.21875 0 L 1.21875 -2.71875 L 5.171875 -2.71875 L 5.171875 -12.015625 L 1.578125 -9.8125 L 1.578125 -12.546875 L 5.3125 -14.984375 L 8.546875 -14.984375 L 8.546875 -2.71875 L 11.90625 -2.71875 L 11.90625 0 Z M 1.21875 0 "/></g></g></g><g fill="#000000" fill-opacity="1"><g transform="translate(374.224293, 126.918785)"><g><path d="M 7.453125 0 L 5.3125 -3.328125 L 3.15625 0 L -0.046875 0 L 3.640625 -5.015625 L 0.125 -9.734375 L 3.375 -9.734375 L 5.3125 -6.5 L 7.25 -9.734375 L 10.515625 -9.734375 L 7 -5.046875 L 10.734375 0 Z M 7.453125 0 "/></g></g></g><g fill="#000000" fill-opacity="1"><g transform="translate(391.903024, 138.852767)"><g><path d="M 16.71875 -30.046875 C 20.019531 -30.046875 22.65625 -29.273438 24.625 -27.734375 C 26.59375 -26.191406 27.671875 -23.992188 27.859375 -21.140625 L 22.046875 -20.84375 C 21.765625 -23.757812 19.960938 -25.21875 16.640625 -25.21875 C 15.066406 -25.21875 13.894531 -24.941406 13.125 -24.390625 C 12.351562 -23.847656 11.96875 -23.09375 11.96875 -22.125 C 11.96875 -21.4375 12.207031 -20.832031 12.6875 -20.3125 C 13.175781 -19.789062 13.773438 -19.347656 14.484375 -18.984375 C 15.203125 -18.628906 16.234375 -18.175781 17.578125 -17.625 C 19.316406 -16.90625 20.742188 -16.222656 21.859375 -15.578125 C 22.972656 -14.929688 23.921875 -14.066406 24.703125 -12.984375 C 25.492188 -11.898438 25.890625 -10.554688 25.890625 -8.953125 C 25.890625 -7.222656 25.421875 -5.640625 24.484375 -4.203125 C 23.546875 -2.773438 22.195312 -1.632812 20.4375 -0.78125 C 18.675781 0.0703125 16.582031 0.5 14.15625 0.5 C 10.445312 0.5 7.585938 -0.320312 5.578125 -1.96875 C 3.566406 -3.625 2.5625 -6.117188 2.5625 -9.453125 L 2.5625 -9.578125 L 8.34375 -9.859375 C 8.394531 -8.628906 8.578125 -7.632812 8.890625 -6.875 C 9.210938 -6.113281 9.785156 -5.539062 10.609375 -5.15625 C 11.429688 -4.769531 12.613281 -4.578125 14.15625 -4.578125 C 16.0625 -4.578125 17.488281 -4.90625 18.4375 -5.5625 C 19.382812 -6.226562 19.859375 -7.113281 19.859375 -8.21875 C 19.859375 -8.90625 19.664062 -9.484375 19.28125 -9.953125 C 18.894531 -10.421875 18.28125 -10.867188 17.4375 -11.296875 C 16.601562 -11.722656 15.289062 -12.320312 13.5 -13.09375 C 11.925781 -13.75 10.628906 -14.40625 9.609375 -15.0625 C 8.597656 -15.726562 7.769531 -16.5625 7.125 -17.5625 C 6.476562 -18.570312 6.15625 -19.816406 6.15625 -21.296875 C 6.15625 -23.035156 6.5625 -24.554688 7.375 -25.859375 C 8.1875 -27.171875 9.390625 -28.195312 10.984375 -28.9375 C 12.578125 -29.675781 14.488281 -30.046875 16.71875 -30.046875 Z M 16.71875 -30.046875 "/></g></g></g><g fill="#000000" fill-opacity="1"><g transform="translate(419.693194, 147.075067)"><g><path d="M 1.21875 0 L 1.21875 -2.71875 L 5.171875 -2.71875 L 5.171875 -12.015625 L 1.578125 -9.8125 L 1.578125 -12.546875 L 5.3125 -14.984375 L 8.546875 -14.984375 L 8.546875 -2.71875 L 11.90625 -2.71875 L 11.90625 0 Z M 1.21875 0 "/></g></g></g><g fill="#000000" fill-opacity="1"><g transform="translate(516.646595, 135.215663)"><g><path d="M 16.71875 -30.046875 C 20.019531 -30.046875 22.65625 -29.273438 24.625 -27.734375 C 26.59375 -26.191406 27.671875 -23.992188 27.859375 -21.140625 L 22.046875 -20.84375 C 21.765625 -23.757812 19.960938 -25.21875 16.640625 -25.21875 C 15.066406 -25.21875 13.894531 -24.941406 13.125 -24.390625 C 12.351562 -23.847656 11.96875 -23.09375 11.96875 -22.125 C 11.96875 -21.4375 12.207031 -20.832031 12.6875 -20.3125 C 13.175781 -19.789062 13.773438 -19.347656 14.484375 -18.984375 C 15.203125 -18.628906 16.234375 -18.175781 17.578125 -17.625 C 19.316406 -16.90625 20.742188 -16.222656 21.859375 -15.578125 C 22.972656 -14.929688 23.921875 -14.066406 24.703125 -12.984375 C 25.492188 -11.898438 25.890625 -10.554688 25.890625 -8.953125 C 25.890625 -7.222656 25.421875 -5.640625 24.484375 -4.203125 C 23.546875 -2.773438 22.195312 -1.632812 20.4375 -0.78125 C 18.675781 0.0703125 16.582031 0.5 14.15625 0.5 C 10.445312 0.5 7.585938 -0.320312 5.578125 -1.96875 C 3.566406 -3.625 2.5625 -6.117188 2.5625 -9.453125 L 2.5625 -9.578125 L 8.34375 -9.859375 C 8.394531 -8.628906 8.578125 -7.632812 8.890625 -6.875 C 9.210938 -6.113281 9.785156 -5.539062 10.609375 -5.15625 C 11.429688 -4.769531 12.613281 -4.578125 14.15625 -4.578125 C 16.0625 -4.578125 17.488281 -4.90625 18.4375 -5.5625 C 19.382812 -6.226562 19.859375 -7.113281 19.859375 -8.21875 C 19.859375 -8.90625 19.664062 -9.484375 19.28125 -9.953125 C 18.894531 -10.421875 18.28125 -10.867188 17.4375 -11.296875 C 16.601562 -11.722656 15.289062 -12.320312 13.5 -13.09375 C 11.925781 -13.75 10.628906 -14.40625 9.609375 -15.0625 C 8.597656 -15.726562 7.769531 -16.5625 7.125 -17.5625 C 6.476562 -18.570312 6.15625 -19.816406 6.15625 -21.296875 C 6.15625 -23.035156 6.5625 -24.554688 7.375 -25.859375 C 8.1875 -27.171875 9.390625 -28.195312 10.984375 -28.9375 C 12.578125 -29.675781 14.488281 -30.046875 16.71875 -30.046875 Z M 16.71875 -30.046875 "/></g></g></g><g fill="#000000" fill-opacity="1"><g transform="translate(542.80065, 149.243791)"><g><path d="M 1.21875 0 L 1.21875 -2.71875 L 5.171875 -2.71875 L 5.171875 -12.015625 L 1.578125 -9.8125 L 1.578125 -12.546875 L 5.3125 -14.984375 L 8.546875 -14.984375 L 8.546875 -2.71875 L 11.90625 -2.71875 L 11.90625 0 Z M 1.21875 0 "/></g></g></g><g fill="#000000" fill-opacity="1"><g transform="translate(556.490129, 129.147252)"><g><path d="M 8.015625 -5.25 L 8.015625 -1.203125 L 5.625 -1.203125 L 5.625 -5.25 L 1.671875 -5.25 L 1.671875 -7.609375 L 5.625 -7.609375 L 5.625 -11.65625 L 8.015625 -11.65625 L 8.015625 -7.609375 L 11.984375 -7.609375 L 11.984375 -5.25 Z M 8.015625 -5.25 "/></g></g></g><g fill="#000000" fill-opacity="1"><g transform="translate(593.81338, 137.52436)"><g><path d="M 27.375 -24.609375 L 12.75 -24.609375 L 11.265625 -17.546875 L 25.546875 -17.546875 L 24.515625 -12.59375 L 10.234375 -12.59375 L 7.59375 0 L 1.53125 0 L 7.71875 -29.5625 L 28.40625 -29.5625 Z M 27.375 -24.609375 "/></g></g></g><g fill="#000000" fill-opacity="1"><g transform="translate(650.482689, 137.52436)"><g><path d="M 16.71875 -30.046875 C 20.019531 -30.046875 22.65625 -29.273438 24.625 -27.734375 C 26.59375 -26.191406 27.671875 -23.992188 27.859375 -21.140625 L 22.046875 -20.84375 C 21.765625 -23.757812 19.960938 -25.21875 16.640625 -25.21875 C 15.066406 -25.21875 13.894531 -24.941406 13.125 -24.390625 C 12.351562 -23.847656 11.96875 -23.09375 11.96875 -22.125 C 11.96875 -21.4375 12.207031 -20.832031 12.6875 -20.3125 C 13.175781 -19.789062 13.773438 -19.347656 14.484375 -18.984375 C 15.203125 -18.628906 16.234375 -18.175781 17.578125 -17.625 C 19.316406 -16.90625 20.742188 -16.222656 21.859375 -15.578125 C 22.972656 -14.929688 23.921875 -14.066406 24.703125 -12.984375 C 25.492188 -11.898438 25.890625 -10.554688 25.890625 -8.953125 C 25.890625 -7.222656 25.421875 -5.640625 24.484375 -4.203125 C 23.546875 -2.773438 22.195312 -1.632812 20.4375 -0.78125 C 18.675781 0.0703125 16.582031 0.5 14.15625 0.5 C 10.445312 0.5 7.585938 -0.320312 5.578125 -1.96875 C 3.566406 -3.625 2.5625 -6.117188 2.5625 -9.453125 L 2.5625 -9.578125 L 8.34375 -9.859375 C 8.394531 -8.628906 8.578125 -7.632812 8.890625 -6.875 C 9.210938 -6.113281 9.785156 -5.539062 10.609375 -5.15625 C 11.429688 -4.769531 12.613281 -4.578125 14.15625 -4.578125 C 16.0625 -4.578125 17.488281 -4.90625 18.4375 -5.5625 C 19.382812 -6.226562 19.859375 -7.113281 19.859375 -8.21875 C 19.859375 -8.90625 19.664062 -9.484375 19.28125 -9.953125 C 18.894531 -10.421875 18.28125 -10.867188 17.4375 -11.296875 C 16.601562 -11.722656 15.289062 -12.320312 13.5 -13.09375 C 11.925781 -13.75 10.628906 -14.40625 9.609375 -15.0625 C 8.597656 -15.726562 7.769531 -16.5625 7.125 -17.5625 C 6.476562 -18.570312 6.15625 -19.816406 6.15625 -21.296875 C 6.15625 -23.035156 6.5625 -24.554688 7.375 -25.859375 C 8.1875 -27.171875 9.390625 -28.195312 10.984375 -28.9375 C 12.578125 -29.675781 14.488281 -30.046875 16.71875 -30.046875 Z M 16.71875 -30.046875 "/></g></g></g><g fill="#000000" fill-opacity="1"><g transform="translate(677.685332, 145.30482)"><g><path d="M 11.703125 -7.5 C 11.703125 -4.957031 11.242188 -3.035156 10.328125 -1.734375 C 9.421875 -0.429688 8.054688 0.21875 6.234375 0.21875 C 4.410156 0.21875 3.050781 -0.421875 2.15625 -1.703125 C 1.257812 -2.984375 0.8125 -4.914062 0.8125 -7.5 C 0.8125 -9.289062 1.003906 -10.753906 1.390625 -11.890625 C 1.785156 -13.023438 2.367188 -13.859375 3.140625 -14.390625 C 3.921875 -14.929688 4.972656 -15.203125 6.296875 -15.203125 C 8.171875 -15.203125 9.539062 -14.566406 10.40625 -13.296875 C 11.269531 -12.035156 11.703125 -10.101562 11.703125 -7.5 Z M 8.3125 -7.5 C 8.3125 -8.78125 8.25 -9.785156 8.125 -10.515625 C 8 -11.242188 7.789062 -11.769531 7.5 -12.09375 C 7.21875 -12.425781 6.816406 -12.59375 6.296875 -12.59375 C 5.753906 -12.59375 5.332031 -12.429688 5.03125 -12.109375 C 4.726562 -11.785156 4.515625 -11.265625 4.390625 -10.546875 C 4.265625 -9.828125 4.203125 -8.8125 4.203125 -7.5 C 4.203125 -6.238281 4.269531 -5.242188 4.40625 -4.515625 C 4.539062 -3.785156 4.753906 -3.253906 5.046875 -2.921875 C 5.335938 -2.585938 5.738281 -2.421875 6.25 -2.421875 C 7 -2.421875 7.53125 -2.796875 7.84375 -3.546875 C 8.15625 -4.304688 8.3125 -5.625 8.3125 -7.5 Z M 8.3125 -7.5 "/></g></g></g><g fill="#000000" fill-opacity="1"><g transform="translate(632.358127, 131.804296)"><g><path d="M 7.453125 0 L 5.3125 -3.328125 L 3.15625 0 L -0.046875 0 L 3.640625 -5.015625 L 0.125 -9.734375 L 3.375 -9.734375 L 5.3125 -6.5 L 7.25 -9.734375 L 10.515625 -9.734375 L 7 -5.046875 L 10.734375 0 Z M 7.453125 0 "/></g></g></g><g fill="#000000" fill-opacity="1"><g transform="translate(698.015915, 133.305434)"><g><path d="M 7.453125 0 L 5.3125 -3.328125 L 3.15625 0 L -0.046875 0 L 3.640625 -5.015625 L 0.125 -9.734375 L 3.375 -9.734375 L 5.3125 -6.5 L 7.25 -9.734375 L 10.515625 -9.734375 L 7 -5.046875 L 10.734375 0 Z M 7.453125 0 "/></g></g></g><g fill="#000000" fill-opacity="1"><g transform="translate(743.343096, 149.740141)"><g><path d="M 11.703125 -7.5 C 11.703125 -4.957031 11.242188 -3.035156 10.328125 -1.734375 C 9.421875 -0.429688 8.054688 0.21875 6.234375 0.21875 C 4.410156 0.21875 3.050781 -0.421875 2.15625 -1.703125 C 1.257812 -2.984375 0.8125 -4.914062 0.8125 -7.5 C 0.8125 -9.289062 1.003906 -10.753906 1.390625 -11.890625 C 1.785156 -13.023438 2.367188 -13.859375 3.140625 -14.390625 C 3.921875 -14.929688 4.972656 -15.203125 6.296875 -15.203125 C 8.171875 -15.203125 9.539062 -14.566406 10.40625 -13.296875 C 11.269531 -12.035156 11.703125 -10.101562 11.703125 -7.5 Z M 8.3125 -7.5 C 8.3125 -8.78125 8.25 -9.785156 8.125 -10.515625 C 8 -11.242188 7.789062 -11.769531 7.5 -12.09375 C 7.21875 -12.425781 6.816406 -12.59375 6.296875 -12.59375 C 5.753906 -12.59375 5.332031 -12.429688 5.03125 -12.109375 C 4.726562 -11.785156 4.515625 -11.265625 4.390625 -10.546875 C 4.265625 -9.828125 4.203125 -8.8125 4.203125 -7.5 C 4.203125 -6.238281 4.269531 -5.242188 4.40625 -4.515625 C 4.539062 -3.785156 4.753906 -3.253906 5.046875 -2.921875 C 5.335938 -2.585938 5.738281 -2.421875 6.25 -2.421875 C 7 -2.421875 7.53125 -2.796875 7.84375 -3.546875 C 8.15625 -4.304688 8.3125 -5.625 8.3125 -7.5 Z M 8.3125 -7.5 "/></g></g></g><g fill="#000000" fill-opacity="1"><g transform="translate(574.257493, 130.26922)"><g><path d="M 1.1875 -10.125 C 1.1875 -13.851562 1.734375 -17.1875 2.828125 -20.125 C 3.929688 -23.070312 5.789062 -26.140625 8.40625 -29.328125 L 14.859375 -29.328125 C 12.304688 -26.179688 10.445312 -23.117188 9.28125 -20.140625 C 8.125 -17.171875 7.546875 -13.820312 7.546875 -10.09375 C 7.546875 -6.363281 8.125 -3.003906 9.28125 -0.015625 C 10.445312 2.960938 12.304688 6.023438 14.859375 9.171875 L 8.40625 9.171875 C 5.820312 6.046875 3.972656 2.992188 2.859375 0.015625 C 1.742188 -2.953125 1.1875 -6.332031 1.1875 -10.125 Z M 1.1875 -10.125 "/></g></g></g><g fill="#000000" fill-opacity="1"><g transform="translate(640.983707, 68.11597)"><g><path d="M 1.1875 -10.125 C 1.1875 -13.851562 1.734375 -17.1875 2.828125 -20.125 C 3.929688 -23.070312 5.789062 -26.140625 8.40625 -29.328125 L 14.859375 -29.328125 C 12.304688 -26.179688 10.445312 -23.117188 9.28125 -20.140625 C 8.125 -17.171875 7.546875 -13.820312 7.546875 -10.09375 C 7.546875 -6.363281 8.125 -3.003906 9.28125 -0.015625 C 10.445312 2.960938 12.304688 6.023438 14.859375 9.171875 L 8.40625 9.171875 C 5.820312 6.046875 3.972656 2.992188 2.859375 0.015625 C 1.742188 -2.953125 1.1875 -6.332031 1.1875 -10.125 Z M 1.1875 -10.125 "/></g></g></g><g fill="#000000" fill-opacity="1"><g transform="translate(656.233433, 68.11597)"><g><path d="M 2.3125 0 L 2.3125 -5.171875 L 9.796875 -5.171875 L 9.796875 -22.796875 L 2.984375 -18.59375 L 2.984375 -23.796875 L 10.09375 -28.421875 L 16.203125 -28.421875 L 16.203125 -5.171875 L 22.578125 -5.171875 L 22.578125 0 Z M 2.3125 0 "/></g></g></g><g fill="#000000" fill-opacity="1"><g transform="translate(679.995572, 68.11597)"><g><path d="M 2.5 -7.8125 L 2.5 -13.359375 L 14.203125 -13.359375 L 14.203125 -7.8125 Z M 2.5 -7.8125 "/></g></g></g><g fill="#000000" fill-opacity="1"><g transform="translate(696.697654, 68.11597)"><g><path d="M 20.328125 -31.359375 L 20.328125 -4.375 C 22.523438 -4.59375 24.140625 -5.210938 25.171875 -6.234375 C 26.210938 -7.253906 26.734375 -9.0625 26.734375 -11.65625 C 26.734375 -13.46875 26.578125 -15.253906 26.265625 -17.015625 C 25.960938 -18.785156 25.582031 -20.632812 25.125 -22.5625 L 30.8125 -22.5625 C 31.863281 -18.78125 32.390625 -15.128906 32.390625 -11.609375 C 32.390625 -8.773438 31.851562 -6.503906 30.78125 -4.796875 C 29.707031 -3.085938 28.257812 -1.832031 26.4375 -1.03125 C 24.625 -0.226562 22.585938 0.238281 20.328125 0.375 L 20.328125 9.921875 L 14.625 9.921875 L 14.625 0.375 C 12.34375 0.289062 10.316406 -0.132812 8.546875 -0.90625 C 6.785156 -1.675781 5.398438 -2.894531 4.390625 -4.5625 C 3.390625 -6.226562 2.890625 -8.441406 2.890625 -11.203125 L 2.890625 -22.5625 L 8.765625 -22.5625 L 8.765625 -11.03125 C 8.765625 -8.6875 9.1875 -7.023438 10.03125 -6.046875 C 10.882812 -5.066406 12.414062 -4.5 14.625 -4.34375 L 14.625 -31.359375 Z M 20.328125 -31.359375 "/></g></g></g><g fill="#000000" fill-opacity="1"><g transform="translate(731.275345, 68.11597)"><g/></g></g><g fill="#000000" fill-opacity="1"><g transform="translate(742.672296, 68.11597)"><g><path d="M 14.0625 -10.125 C 14.0625 -6.34375 13.5 -2.957031 12.375 0.03125 C 11.25 3.019531 9.40625 6.066406 6.84375 9.171875 L 0.390625 9.171875 C 2.941406 6.023438 4.796875 2.96875 5.953125 0 C 7.117188 -2.96875 7.703125 -6.332031 7.703125 -10.09375 C 7.703125 -13.800781 7.125 -17.144531 5.96875 -20.125 C 4.8125 -23.101562 2.953125 -26.171875 0.390625 -29.328125 L 6.84375 -29.328125 C 9.445312 -26.148438 11.300781 -23.085938 12.40625 -20.140625 C 13.507812 -17.191406 14.0625 -13.851562 14.0625 -10.125 Z M 14.0625 -10.125 "/></g></g></g><g fill="#000000" fill-opacity="1"><g transform="translate(757.934465, 68.11597)"><g/></g></g><g fill="#000000" fill-opacity="1"><g transform="translate(185.261052, 103.234936)"><g><path d="M 2.78125 -13.125 L 2.78125 -17.046875 L 19.953125 -17.046875 L 19.953125 -13.125 Z M 2.78125 -4.234375 L 2.78125 -8.171875 L 19.953125 -8.171875 L 19.953125 -4.234375 Z M 2.78125 -4.234375 "/></g></g></g><g fill="#000000" fill-opacity="1"><g transform="translate(831.343378, 103.234936)"><g><path d="M 12.40625 0 L 8.84375 -5.53125 L 5.265625 0 L -0.078125 0 L 6.046875 -8.359375 L 0.21875 -16.21875 L 5.625 -16.21875 L 8.84375 -10.8125 L 12.0625 -16.21875 L 17.5 -16.21875 L 11.640625 -8.40625 L 17.859375 0 Z M 12.40625 0 "/></g></g></g><g fill="#000000" fill-opacity="1"><g transform="translate(994.78606, 150.934439)"><g><path d="M 9.8125 -16.671875 L 12.578125 -16.671875 L 11.875 -13.390625 L 9.109375 -13.390625 L 7.625 -6.140625 C 7.40625 -5.203125 7.296875 -4.550781 7.296875 -4.1875 C 7.296875 -3.800781 7.414062 -3.515625 7.65625 -3.328125 C 7.894531 -3.148438 8.269531 -3.0625 8.78125 -3.0625 C 9.125 -3.0625 9.617188 -3.101562 10.265625 -3.1875 L 9.5625 0.15625 C 9.019531 0.289062 8.253906 0.359375 7.265625 0.359375 C 4.160156 0.359375 2.609375 -0.78125 2.609375 -3.0625 C 2.609375 -3.507812 2.722656 -4.363281 2.953125 -5.625 L 3.125 -6.375 L 4.59375 -13.390625 L 2.40625 -13.390625 L 3.125 -16.671875 L 5.3125 -16.671875 L 5.859375 -19.328125 L 11 -22.453125 Z M 9.8125 -16.671875 "/></g></g></g></svg>