<svg xmlns="http://www.w3.org/2000/svg" xmlns:xlink="http://www.w3.org/1999/xlink" width="444" zoomAndPan="magnify" viewBox="0 0 333 110.249996" height="147" preserveAspectRatio="xMidYMid meet" version="1.0"><defs><g/><clipPath id="b4188af1ea"><path d="M 1.125 45 L 331.875 45 L 331.875 109.503906 L 1.125 109.503906 Z M 1.125 45 " clip-rule="nonzero"/></clipPath><clipPath id="d6436188a8"><path d="M 307 75 L 331.875 75 L 331.875 109 L 307 109 Z M 307 75 " clip-rule="nonzero"/></clipPath></defs><g fill="#000000" fill-opacity="1"><g transform="translate(97.579038, 59.436412)"><g><path d="M 20.65625 -31.859375 L 20.65625 -4.453125 C 22.882812 -4.671875 24.523438 -5.296875 25.578125 -6.328125 C 26.628906 -7.367188 27.15625 -9.203125 27.15625 -11.828125 C 27.15625 -13.679688 27 -15.503906 26.6875 -17.296875 C 26.382812 -19.085938 25.992188 -20.960938 25.515625 -22.921875 L 31.3125 -22.921875 C 32.375 -19.085938 32.90625 -15.378906 32.90625 -11.796875 C 32.90625 -8.910156 32.359375 -6.597656 31.265625 -4.859375 C 30.171875 -3.128906 28.703125 -1.859375 26.859375 -1.046875 C 25.015625 -0.234375 22.945312 0.238281 20.65625 0.375 L 20.65625 10.078125 L 14.859375 10.078125 L 14.859375 0.375 C 12.535156 0.289062 10.476562 -0.140625 8.6875 -0.921875 C 6.894531 -1.703125 5.488281 -2.9375 4.46875 -4.625 C 3.445312 -6.320312 2.9375 -8.570312 2.9375 -11.375 L 2.9375 -22.921875 L 8.890625 -22.921875 L 8.890625 -11.203125 C 8.890625 -8.828125 9.320312 -7.140625 10.1875 -6.140625 C 11.0625 -5.148438 12.617188 -4.570312 14.859375 -4.40625 L 14.859375 -31.859375 Z M 20.65625 -31.859375 "/></g></g></g><g fill="#000000" fill-opacity="1"><g transform="translate(132.703535, 59.436412)"><g/></g></g><g fill="#000000" fill-opacity="1"><g transform="translate(132.343211, 75.123841)"><g><path d="M 1.015625 0 L 1.015625 -2.28125 L 4.3125 -2.28125 L 4.3125 -10.046875 L 1.3125 -8.1875 L 1.3125 -10.484375 L 4.4375 -12.53125 L 7.140625 -12.53125 L 7.140625 -2.28125 L 9.953125 -2.28125 L 9.953125 0 Z M 1.015625 0 "/></g></g></g><g fill="#000000" fill-opacity="1"><g transform="translate(150.932596, 53.071777)"><g><path d="M 9.734375 0 L 6.9375 -4.328125 L 4.125 0 L -0.0625 0 L 4.734375 -6.546875 L 0.171875 -12.703125 L 4.40625 -12.703125 L 6.9375 -8.46875 L 9.453125 -12.703125 L 13.71875 -12.703125 L 9.125 -6.59375 L 14 0 Z M 9.734375 0 "/></g></g></g><g fill="#000000" fill-opacity="1"><g transform="translate(174.630515, 65.536151)"><g><path d="M 17 -30.546875 C 20.351562 -30.546875 23.03125 -29.765625 25.03125 -28.203125 C 27.03125 -26.640625 28.128906 -24.398438 28.328125 -21.484375 L 22.40625 -21.1875 C 22.125 -24.15625 20.289062 -25.640625 16.90625 -25.640625 C 15.3125 -25.640625 14.125 -25.359375 13.34375 -24.796875 C 12.5625 -24.242188 12.171875 -23.476562 12.171875 -22.5 C 12.171875 -21.800781 12.414062 -21.179688 12.90625 -20.640625 C 13.394531 -20.109375 14.003906 -19.660156 14.734375 -19.296875 C 15.460938 -18.941406 16.507812 -18.484375 17.875 -17.921875 C 19.632812 -17.191406 21.082031 -16.5 22.21875 -15.84375 C 23.351562 -15.1875 24.316406 -14.304688 25.109375 -13.203125 C 25.910156 -12.097656 26.3125 -10.734375 26.3125 -9.109375 C 26.3125 -7.347656 25.832031 -5.738281 24.875 -4.28125 C 23.925781 -2.820312 22.554688 -1.660156 20.765625 -0.796875 C 18.984375 0.0664062 16.859375 0.5 14.390625 0.5 C 10.617188 0.5 7.710938 -0.335938 5.671875 -2.015625 C 3.628906 -3.691406 2.609375 -6.222656 2.609375 -9.609375 L 2.609375 -9.734375 L 8.484375 -10.03125 C 8.535156 -8.769531 8.722656 -7.753906 9.046875 -6.984375 C 9.367188 -6.210938 9.945312 -5.628906 10.78125 -5.234375 C 11.625 -4.847656 12.828125 -4.65625 14.390625 -4.65625 C 16.328125 -4.65625 17.773438 -4.988281 18.734375 -5.65625 C 19.703125 -6.332031 20.1875 -7.234375 20.1875 -8.359375 C 20.1875 -9.054688 19.988281 -9.640625 19.59375 -10.109375 C 19.207031 -10.585938 18.585938 -11.039062 17.734375 -11.46875 C 16.878906 -11.90625 15.539062 -12.515625 13.71875 -13.296875 C 12.125 -13.972656 10.804688 -14.644531 9.765625 -15.3125 C 8.734375 -15.988281 7.890625 -16.835938 7.234375 -17.859375 C 6.578125 -18.878906 6.25 -20.144531 6.25 -21.65625 C 6.25 -23.414062 6.660156 -24.957031 7.484375 -26.28125 C 8.316406 -27.613281 9.539062 -28.65625 11.15625 -29.40625 C 12.78125 -30.164062 14.726562 -30.546875 17 -30.546875 Z M 17 -30.546875 "/></g></g></g><g fill="#000000" fill-opacity="1"><g transform="translate(201.378981, 76.612924)"><g><path d="M 1.015625 0 L 1.015625 -2.28125 L 4.3125 -2.28125 L 4.3125 -10.046875 L 1.3125 -8.1875 L 1.3125 -10.484375 L 4.4375 -12.53125 L 7.140625 -12.53125 L 7.140625 -2.28125 L 9.953125 -2.28125 L 9.953125 0 Z M 1.015625 0 "/></g></g></g><g clip-path="url(#b4188af1ea)"><path stroke-linecap="butt" transform="matrix(0.74493, -0.00167968, 0.00167968, 0.74493, 1.15272, 88.789546)" fill="none" stroke-linejoin="miter" d="M -0.00241907 5.500069 L 438.272553 5.502467 " stroke="#000000" stroke-width="11" stroke-opacity="1" stroke-miterlimit="4"/></g><g clip-path="url(#d6436188a8)"><path stroke-linecap="round" transform="matrix(0.74493, -0.00167968, 0.00167968, 0.74493, 1.15272, 88.789546)" fill="none" stroke-linejoin="round" d="M 416.270168 -11.00212 L 438.272553 5.502467 L 416.274406 22.002229 " stroke="#000000" stroke-width="11" stroke-opacity="1" stroke-miterlimit="4"/></g></svg>