<svg xmlns="http://www.w3.org/2000/svg" xmlns:xlink="http://www.w3.org/1999/xlink" width="437" zoomAndPan="magnify" viewBox="0 0 327.75 302.250004" height="403" preserveAspectRatio="xMidYMid meet" version="1.0"><defs><g/><clipPath id="d0b15af0bd"><path d="M 0.28125 0 L 327.21875 0 L 327.21875 301.296875 L 0.28125 301.296875 Z M 0.28125 0 " clip-rule="nonzero"/></clipPath><clipPath id="d448591ea0"><path d="M 163.703125 0 C 73.449219 0 0.28125 67.449219 0.28125 150.648438 C 0.28125 233.847656 73.449219 301.296875 163.703125 301.296875 C 253.960938 301.296875 327.128906 233.847656 327.128906 150.648438 C 327.128906 67.449219 253.960938 0 163.703125 0 Z M 163.703125 0 " clip-rule="nonzero"/></clipPath><clipPath id="11ef8c0f94"><path d="M 0.28125 0 L 327.21875 0 L 327.21875 301.5 L 0.28125 301.5 Z M 0.28125 0 " clip-rule="nonzero"/></clipPath><clipPath id="c454d403a8"><path d="M 163.703125 0 C 73.449219 0 0.28125 67.445312 0.28125 150.644531 C 0.28125 233.84375 73.449219 301.292969 163.703125 301.292969 C 253.957031 301.292969 327.125 233.84375 327.125 150.644531 C 327.125 67.445312 253.957031 0 163.703125 0 Z M 163.703125 0 " clip-rule="nonzero"/></clipPath></defs><g clip-path="url(#d0b15af0bd)"><g clip-path="url(#d448591ea0)"><path fill="#66a8e2" d="M 0.28125 0 L 327.46875 0 L 327.46875 301.296875 L 0.28125 301.296875 Z M 0.28125 0 " fill-opacity="1" fill-rule="nonzero"/></g></g><g clip-path="url(#11ef8c0f94)"><g clip-path="url(#c454d403a8)"><path stroke-linecap="butt" transform="matrix(0.748144, 0, 0, 0.748144, 0.282272, 0.00000997525)" fill="none" stroke-linejoin="miter" d="M 218.435157 -0.0000133333 C 97.798006 -0.0000133333 -0.00136645 90.150217 -0.00136645 201.357777 C -0.00136645 312.565338 97.798006 402.72079 218.435157 402.72079 C 339.072309 402.72079 436.871681 312.565338 436.871681 201.357777 C 436.871681 90.150217 339.072309 -0.0000133333 218.435157 -0.0000133333 Z M 218.435157 -0.0000133333 " stroke="#447eb0" stroke-width="10" stroke-opacity="1" stroke-miterlimit="4"/></g></g><g fill="#000000" fill-opacity="1"><g transform="translate(73.911045, 161.812298)"><g><path d="M 0.9375 -7.96875 C 0.9375 -10.90625 1.367188 -13.53125 2.234375 -15.84375 C 3.097656 -18.164062 4.5625 -20.578125 6.625 -23.078125 L 11.703125 -23.078125 C 9.691406 -20.609375 8.226562 -18.203125 7.3125 -15.859375 C 6.394531 -13.523438 5.9375 -10.882812 5.9375 -7.9375 C 5.9375 -5.007812 6.394531 -2.367188 7.3125 -0.015625 C 8.226562 2.335938 9.691406 4.75 11.703125 7.21875 L 6.625 7.21875 C 4.59375 4.757812 3.132812 2.359375 2.25 0.015625 C 1.375 -2.328125 0.9375 -4.988281 0.9375 -7.96875 Z M 0.9375 -7.96875 "/></g></g></g><g fill="#000000" fill-opacity="1"><g transform="translate(85.912089, 161.812298)"><g><path d="M 17.296875 0 L 15.46875 -5.390625 L 7.296875 -5.390625 L 5.5 0 L 0.25 0 L 8.28125 -22.375 L 14.5 -22.375 L 22.53125 0 Z M 11.375 -18.5625 C 11.125 -17.507812 10.832031 -16.460938 10.5 -15.421875 L 8.453125 -9.296875 L 14.375 -9.296875 L 12.328125 -15.421875 C 11.984375 -16.460938 11.6875 -17.507812 11.4375 -18.5625 Z M 11.375 -18.5625 "/></g></g></g><g fill="#000000" fill-opacity="1"><g transform="translate(108.77122, 161.812298)"><g><path d="M 18.96875 -8.28125 C 18.96875 -5.539062 18.382812 -3.425781 17.21875 -1.9375 C 16.0625 -0.457031 14.378906 0.28125 12.171875 0.28125 C 10.984375 0.28125 9.957031 0.0234375 9.09375 -0.484375 C 8.238281 -0.992188 7.585938 -1.734375 7.140625 -2.703125 L 7.078125 -2.703125 C 7.078125 -2.242188 7.046875 -1.707031 6.984375 -1.09375 C 6.921875 -0.488281 6.875 -0.125 6.84375 0 L 1.9375 0 C 2.039062 -1.40625 2.09375 -2.675781 2.09375 -3.8125 L 2.09375 -23.078125 L 7.140625 -23.078125 L 7.140625 -16.328125 C 7.140625 -15.878906 7.128906 -15.429688 7.109375 -14.984375 C 7.097656 -14.546875 7.085938 -14.101562 7.078125 -13.65625 L 7.140625 -13.65625 C 8.054688 -15.695312 9.757812 -16.71875 12.25 -16.71875 C 14.4375 -16.71875 16.101562 -16.007812 17.25 -14.59375 C 18.394531 -13.175781 18.96875 -11.070312 18.96875 -8.28125 Z M 13.703125 -8.28125 C 13.703125 -10.007812 13.429688 -11.28125 12.890625 -12.09375 C 12.347656 -12.90625 11.546875 -13.3125 10.484375 -13.3125 C 9.378906 -13.3125 8.535156 -12.859375 7.953125 -11.953125 C 7.367188 -11.054688 7.078125 -9.789062 7.078125 -8.15625 C 7.078125 -6.53125 7.359375 -5.289062 7.921875 -4.4375 C 8.492188 -3.582031 9.335938 -3.15625 10.453125 -3.15625 C 11.566406 -3.15625 12.382812 -3.578125 12.90625 -4.421875 C 13.4375 -5.273438 13.703125 -6.5625 13.703125 -8.28125 Z M 13.703125 -8.28125 "/></g></g></g><g fill="#000000" fill-opacity="1"><g transform="translate(128.931704, 161.812298)"><g><path d="M 6.921875 -16.390625 L 6.921875 -7.453125 C 6.921875 -4.773438 7.753906 -3.4375 9.421875 -3.4375 C 10.347656 -3.4375 11.09375 -3.863281 11.65625 -4.71875 C 12.226562 -5.582031 12.515625 -6.738281 12.515625 -8.1875 L 12.515625 -16.390625 L 17.5625 -16.390625 L 17.5625 -3.90625 C 17.5625 -3.238281 17.578125 -2.484375 17.609375 -1.640625 C 17.648438 -0.796875 17.6875 -0.25 17.71875 0 L 12.875 0 C 12.84375 -0.21875 12.800781 -0.726562 12.75 -1.53125 C 12.695312 -2.34375 12.671875 -2.96875 12.671875 -3.40625 L 12.609375 -3.40625 C 12.003906 -2.082031 11.269531 -1.128906 10.40625 -0.546875 C 9.550781 0.0351562 8.519531 0.328125 7.3125 0.328125 C 5.53125 0.328125 4.175781 -0.21875 3.25 -1.3125 C 2.332031 -2.414062 1.875 -4.066406 1.875 -6.265625 L 1.875 -16.390625 Z M 6.921875 -16.390625 "/></g></g></g><g fill="#000000" fill-opacity="1"><g transform="translate(148.600091, 161.812298)"><g><path d="M 12.734375 0 L 12.734375 -8.9375 C 12.734375 -11.601562 11.898438 -12.9375 10.234375 -12.9375 C 9.304688 -12.9375 8.554688 -12.507812 7.984375 -11.65625 C 7.421875 -10.800781 7.140625 -9.644531 7.140625 -8.1875 L 7.140625 0 L 2.09375 0 L 2.09375 -12.484375 C 2.09375 -13.492188 2.039062 -14.796875 1.9375 -16.390625 L 6.78125 -16.390625 C 6.789062 -16.242188 6.804688 -16.035156 6.828125 -15.765625 C 6.859375 -15.503906 6.882812 -15.210938 6.90625 -14.890625 C 6.925781 -14.566406 6.941406 -14.234375 6.953125 -13.890625 C 6.972656 -13.554688 6.984375 -13.25 6.984375 -12.96875 L 7.046875 -12.96875 C 7.648438 -14.289062 8.378906 -15.242188 9.234375 -15.828125 C 10.097656 -16.421875 11.132812 -16.71875 12.34375 -16.71875 C 14.125 -16.71875 15.472656 -16.164062 16.390625 -15.0625 C 17.316406 -13.96875 17.78125 -12.316406 17.78125 -10.109375 L 17.78125 0 Z M 12.734375 0 "/></g></g></g><g fill="#000000" fill-opacity="1"><g transform="translate(168.268478, 161.812298)"><g><path d="M 6.390625 -8.15625 C 6.390625 -6.4375 6.660156 -5.164062 7.203125 -4.34375 C 7.742188 -3.53125 8.550781 -3.125 9.625 -3.125 C 10.71875 -3.125 11.554688 -3.570312 12.140625 -4.46875 C 12.722656 -5.375 13.015625 -6.644531 13.015625 -8.28125 C 13.015625 -9.875 12.726562 -11.097656 12.15625 -11.953125 C 11.59375 -12.804688 10.757812 -13.234375 9.65625 -13.234375 C 8.550781 -13.234375 7.726562 -12.828125 7.1875 -12.015625 C 6.65625 -11.203125 6.390625 -9.914062 6.390625 -8.15625 Z M 1.140625 -8.15625 C 1.140625 -10.914062 1.722656 -13.023438 2.890625 -14.484375 C 4.066406 -15.953125 5.765625 -16.6875 7.984375 -16.6875 C 10.316406 -16.6875 11.984375 -15.695312 12.984375 -13.71875 L 13.046875 -13.71875 C 12.992188 -14.507812 12.96875 -15.460938 12.96875 -16.578125 L 12.96875 -23.078125 L 18.015625 -23.078125 L 18.015625 -3.8125 C 18.015625 -2.675781 18.066406 -1.40625 18.171875 0 L 13.21875 0 C 13.15625 -0.15625 13.097656 -0.554688 13.046875 -1.203125 C 12.992188 -1.859375 12.96875 -2.359375 12.96875 -2.703125 L 12.90625 -2.703125 C 11.96875 -0.710938 10.25 0.28125 7.75 0.28125 C 5.59375 0.28125 3.953125 -0.4375 2.828125 -1.875 C 1.703125 -3.320312 1.140625 -5.414062 1.140625 -8.15625 Z M 1.140625 -8.15625 "/></g></g></g><g fill="#000000" fill-opacity="1"><g transform="translate(188.397213, 161.812298)"><g><path d="M 8 -2.828125 C 8.78125 -2.828125 9.414062 -3.210938 9.90625 -3.984375 C 10.394531 -4.753906 10.640625 -5.691406 10.640625 -6.796875 L 10.640625 -7.671875 L 9.015625 -7.609375 C 7.984375 -7.554688 7.257812 -7.320312 6.84375 -6.90625 C 6.425781 -6.5 6.21875 -5.898438 6.21875 -5.109375 C 6.21875 -4.398438 6.363281 -3.84375 6.65625 -3.4375 C 6.957031 -3.03125 7.40625 -2.828125 8 -2.828125 Z M 15.625 0 L 10.78125 0 L 10.625 -2.40625 C 10.125 -1.425781 9.519531 -0.726562 8.8125 -0.3125 C 8.113281 0.101562 7.140625 0.3125 5.890625 0.3125 C 4.316406 0.3125 3.097656 -0.125 2.234375 -1 C 1.378906 -1.875 0.953125 -3.101562 0.953125 -4.6875 C 0.953125 -8.082031 3.078125 -9.835938 7.328125 -9.953125 L 10.625 -10.0625 L 10.625 -10.890625 C 10.625 -11.921875 10.488281 -12.664062 10.21875 -13.125 C 9.957031 -13.59375 9.523438 -13.828125 8.921875 -13.828125 C 8.347656 -13.828125 7.914062 -13.675781 7.625 -13.375 C 7.332031 -13.070312 7.125 -12.582031 7 -11.90625 L 2.125 -12.53125 C 2.476562 -14.019531 3.21875 -15.085938 4.34375 -15.734375 C 5.46875 -16.390625 7.015625 -16.71875 8.984375 -16.71875 C 11.140625 -16.71875 12.785156 -16.210938 13.921875 -15.203125 C 15.054688 -14.203125 15.625 -12.710938 15.625 -10.734375 Z M 15.625 0 "/></g></g></g><g fill="#000000" fill-opacity="1"><g transform="translate(205.890798, 161.812298)"><g><path d="M 12.734375 0 L 12.734375 -8.9375 C 12.734375 -11.601562 11.898438 -12.9375 10.234375 -12.9375 C 9.304688 -12.9375 8.554688 -12.507812 7.984375 -11.65625 C 7.421875 -10.800781 7.140625 -9.644531 7.140625 -8.1875 L 7.140625 0 L 2.09375 0 L 2.09375 -12.484375 C 2.09375 -13.492188 2.039062 -14.796875 1.9375 -16.390625 L 6.78125 -16.390625 C 6.789062 -16.242188 6.804688 -16.035156 6.828125 -15.765625 C 6.859375 -15.503906 6.882812 -15.210938 6.90625 -14.890625 C 6.925781 -14.566406 6.941406 -14.234375 6.953125 -13.890625 C 6.972656 -13.554688 6.984375 -13.25 6.984375 -12.96875 L 7.046875 -12.96875 C 7.648438 -14.289062 8.378906 -15.242188 9.234375 -15.828125 C 10.097656 -16.421875 11.132812 -16.71875 12.34375 -16.71875 C 14.125 -16.71875 15.472656 -16.164062 16.390625 -15.0625 C 17.316406 -13.96875 17.78125 -12.316406 17.78125 -10.109375 L 17.78125 0 Z M 12.734375 0 "/></g></g></g><g fill="#000000" fill-opacity="1"><g transform="translate(225.559185, 161.812298)"><g><path d="M 1.140625 -8.125 C 1.140625 -10.882812 1.753906 -13.007812 2.984375 -14.5 C 4.222656 -16 5.96875 -16.75 8.21875 -16.75 C 12.113281 -16.75 14.363281 -14.828125 14.96875 -10.984375 L 10.015625 -10.578125 C 9.960938 -11.429688 9.769531 -12.09375 9.4375 -12.5625 C 9.113281 -13.03125 8.710938 -13.265625 8.234375 -13.265625 C 7.515625 -13.265625 6.992188 -12.867188 6.671875 -12.078125 C 6.359375 -11.296875 6.203125 -10.03125 6.203125 -8.28125 C 6.203125 -6.539062 6.382812 -5.25 6.75 -4.40625 C 7.113281 -3.570312 7.609375 -3.15625 8.234375 -3.15625 C 9.273438 -3.15625 9.910156 -4.148438 10.140625 -6.140625 L 14.96875 -5.703125 C 14.75 -3.722656 14.066406 -2.222656 12.921875 -1.203125 C 11.785156 -0.191406 10.238281 0.3125 8.28125 0.3125 C 6.007812 0.3125 4.25 -0.429688 3 -1.921875 C 1.757812 -3.410156 1.140625 -5.476562 1.140625 -8.125 Z M 1.140625 -8.125 "/></g></g></g><g fill="#000000" fill-opacity="1"><g transform="translate(241.163727, 161.812298)"><g><path d="M 6.453125 -7.15625 C 6.566406 -5.707031 6.859375 -4.632812 7.328125 -3.9375 C 7.804688 -3.238281 8.5 -2.890625 9.40625 -2.890625 C 9.957031 -2.890625 10.457031 -3.070312 10.90625 -3.4375 C 11.351562 -3.8125 11.8125 -4.515625 12.28125 -5.546875 L 16.265625 -3.828125 C 15.484375 -2.617188 14.769531 -1.753906 14.125 -1.234375 C 13.488281 -0.710938 12.742188 -0.320312 11.890625 -0.0625 C 11.046875 0.1875 10.03125 0.3125 8.84375 0.3125 C 6.375 0.3125 4.476562 -0.425781 3.15625 -1.90625 C 1.832031 -3.382812 1.171875 -5.5 1.171875 -8.25 C 1.171875 -11 1.835938 -13.097656 3.171875 -14.546875 C 4.515625 -15.992188 6.492188 -16.71875 9.109375 -16.71875 C 11.523438 -16.71875 13.359375 -15.929688 14.609375 -14.359375 C 15.867188 -12.785156 16.5 -10.457031 16.5 -7.375 L 16.5 -7.15625 Z M 8.984375 -13.59375 C 8.296875 -13.59375 7.722656 -13.304688 7.265625 -12.734375 C 6.816406 -12.160156 6.554688 -11.265625 6.484375 -10.046875 L 11.3125 -10.046875 C 11.21875 -11.285156 10.988281 -12.1875 10.625 -12.75 C 10.269531 -13.3125 9.722656 -13.59375 8.984375 -13.59375 Z M 8.984375 -13.59375 "/></g></g></g><g fill="#000000" fill-opacity="1"><g transform="translate(73.057104, 206.054589)"><g><path d="M 18.734375 -8.25 C 18.734375 -5.582031 17.953125 -3.488281 16.390625 -1.96875 C 14.828125 -0.445312 12.648438 0.3125 9.859375 0.3125 C 7.128906 0.3125 4.992188 -0.453125 3.453125 -1.984375 C 1.910156 -3.523438 1.140625 -5.613281 1.140625 -8.25 C 1.140625 -10.875 1.910156 -12.941406 3.453125 -14.453125 C 5.003906 -15.960938 7.164062 -16.71875 9.9375 -16.71875 C 12.75 -16.71875 14.914062 -15.988281 16.4375 -14.53125 C 17.96875 -13.082031 18.734375 -10.988281 18.734375 -8.25 Z M 13.46875 -8.25 C 13.46875 -11.59375 12.316406 -13.265625 10.015625 -13.265625 C 7.617188 -13.265625 6.421875 -11.59375 6.421875 -8.25 C 6.421875 -6.59375 6.707031 -5.328125 7.28125 -4.453125 C 7.863281 -3.585938 8.710938 -3.15625 9.828125 -3.15625 C 11.054688 -3.15625 11.96875 -3.570312 12.5625 -4.40625 C 13.164062 -5.25 13.46875 -6.53125 13.46875 -8.25 Z M 13.46875 -8.25 "/></g></g></g><g fill="#000000" fill-opacity="1"><g transform="translate(92.931848, 206.054589)"><g><path d="M 8.5 -12.96875 L 8.5 0 L 3.46875 0 L 3.46875 -12.96875 L 0.609375 -12.96875 L 0.609375 -16.390625 L 3.46875 -16.390625 L 3.46875 -18.46875 C 3.46875 -20.03125 3.894531 -21.222656 4.75 -22.046875 C 5.613281 -22.867188 6.988281 -23.28125 8.875 -23.28125 C 10.382812 -23.28125 11.585938 -23.191406 12.484375 -23.015625 L 12.484375 -20.03125 C 12.035156 -20.1875 11.300781 -20.265625 10.28125 -20.265625 C 9.65625 -20.265625 9.203125 -20.101562 8.921875 -19.78125 C 8.640625 -19.457031 8.5 -18.878906 8.5 -18.046875 L 8.5 -16.390625 L 12.234375 -16.390625 L 12.234375 -12.96875 Z M 8.5 -12.96875 "/></g></g></g><g fill="#000000" fill-opacity="1"><g transform="translate(105.393259, 206.054589)"><g/></g></g><g fill="#000000" fill-opacity="1"><g transform="translate(114.362303, 206.054589)"><g><path d="M 18.96875 -8.28125 C 18.96875 -5.539062 18.382812 -3.425781 17.21875 -1.9375 C 16.0625 -0.457031 14.378906 0.28125 12.171875 0.28125 C 10.984375 0.28125 9.957031 0.0234375 9.09375 -0.484375 C 8.238281 -0.992188 7.585938 -1.734375 7.140625 -2.703125 L 7.078125 -2.703125 C 7.078125 -2.242188 7.046875 -1.707031 6.984375 -1.09375 C 6.921875 -0.488281 6.875 -0.125 6.84375 0 L 1.9375 0 C 2.039062 -1.40625 2.09375 -2.675781 2.09375 -3.8125 L 2.09375 -23.078125 L 7.140625 -23.078125 L 7.140625 -16.328125 C 7.140625 -15.878906 7.128906 -15.429688 7.109375 -14.984375 C 7.097656 -14.546875 7.085938 -14.101562 7.078125 -13.65625 L 7.140625 -13.65625 C 8.054688 -15.695312 9.757812 -16.71875 12.25 -16.71875 C 14.4375 -16.71875 16.101562 -16.007812 17.25 -14.59375 C 18.394531 -13.175781 18.96875 -11.070312 18.96875 -8.28125 Z M 13.703125 -8.28125 C 13.703125 -10.007812 13.429688 -11.28125 12.890625 -12.09375 C 12.347656 -12.90625 11.546875 -13.3125 10.484375 -13.3125 C 9.378906 -13.3125 8.535156 -12.859375 7.953125 -11.953125 C 7.367188 -11.054688 7.078125 -9.789062 7.078125 -8.15625 C 7.078125 -6.53125 7.359375 -5.289062 7.921875 -4.4375 C 8.492188 -3.582031 9.335938 -3.15625 10.453125 -3.15625 C 11.566406 -3.15625 12.382812 -3.578125 12.90625 -4.421875 C 13.4375 -5.273438 13.703125 -6.5625 13.703125 -8.28125 Z M 13.703125 -8.28125 "/></g></g></g><g fill="#000000" fill-opacity="1"><g transform="translate(134.522787, 206.054589)"><g><path d="M 10.78125 -12.8125 C 9.707031 -12.8125 8.828125 -12.3125 8.140625 -11.3125 C 7.453125 -10.320312 7.109375 -9.035156 7.109375 -7.453125 L 7.109375 0 L 2.09375 0 L 2.09375 -12.328125 C 2.09375 -13.679688 2.050781 -15.035156 1.96875 -16.390625 L 6.78125 -16.390625 C 6.90625 -14.460938 6.96875 -13.226562 6.96875 -12.6875 L 7.03125 -12.6875 C 7.519531 -14.132812 8.09375 -15.164062 8.75 -15.78125 C 9.414062 -16.40625 10.257812 -16.71875 11.28125 -16.71875 C 11.800781 -16.71875 12.242188 -16.628906 12.609375 -16.453125 L 12.609375 -12.625 C 12.035156 -12.75 11.425781 -12.8125 10.78125 -12.8125 Z M 10.78125 -12.8125 "/></g></g></g><g fill="#000000" fill-opacity="1"><g transform="translate(147.46043, 206.054589)"><g><path d="M 6.453125 -7.15625 C 6.566406 -5.707031 6.859375 -4.632812 7.328125 -3.9375 C 7.804688 -3.238281 8.5 -2.890625 9.40625 -2.890625 C 9.957031 -2.890625 10.457031 -3.070312 10.90625 -3.4375 C 11.351562 -3.8125 11.8125 -4.515625 12.28125 -5.546875 L 16.265625 -3.828125 C 15.484375 -2.617188 14.769531 -1.753906 14.125 -1.234375 C 13.488281 -0.710938 12.742188 -0.320312 11.890625 -0.0625 C 11.046875 0.1875 10.03125 0.3125 8.84375 0.3125 C 6.375 0.3125 4.476562 -0.425781 3.15625 -1.90625 C 1.832031 -3.382812 1.171875 -5.5 1.171875 -8.25 C 1.171875 -11 1.835938 -13.097656 3.171875 -14.546875 C 4.515625 -15.992188 6.492188 -16.71875 9.109375 -16.71875 C 11.523438 -16.71875 13.359375 -15.929688 14.609375 -14.359375 C 15.867188 -12.785156 16.5 -10.457031 16.5 -7.375 L 16.5 -7.15625 Z M 8.984375 -13.59375 C 8.296875 -13.59375 7.722656 -13.304688 7.265625 -12.734375 C 6.816406 -12.160156 6.554688 -11.265625 6.484375 -10.046875 L 11.3125 -10.046875 C 11.21875 -11.285156 10.988281 -12.1875 10.625 -12.75 C 10.269531 -13.3125 9.722656 -13.59375 8.984375 -13.59375 Z M 8.984375 -13.59375 "/></g></g></g><g fill="#000000" fill-opacity="1"><g transform="translate(165.049261, 206.054589)"><g><path d="M 6.453125 -7.15625 C 6.566406 -5.707031 6.859375 -4.632812 7.328125 -3.9375 C 7.804688 -3.238281 8.5 -2.890625 9.40625 -2.890625 C 9.957031 -2.890625 10.457031 -3.070312 10.90625 -3.4375 C 11.351562 -3.8125 11.8125 -4.515625 12.28125 -5.546875 L 16.265625 -3.828125 C 15.484375 -2.617188 14.769531 -1.753906 14.125 -1.234375 C 13.488281 -0.710938 12.742188 -0.320312 11.890625 -0.0625 C 11.046875 0.1875 10.03125 0.3125 8.84375 0.3125 C 6.375 0.3125 4.476562 -0.425781 3.15625 -1.90625 C 1.832031 -3.382812 1.171875 -5.5 1.171875 -8.25 C 1.171875 -11 1.835938 -13.097656 3.171875 -14.546875 C 4.515625 -15.992188 6.492188 -16.71875 9.109375 -16.71875 C 11.523438 -16.71875 13.359375 -15.929688 14.609375 -14.359375 C 15.867188 -12.785156 16.5 -10.457031 16.5 -7.375 L 16.5 -7.15625 Z M 8.984375 -13.59375 C 8.296875 -13.59375 7.722656 -13.304688 7.265625 -12.734375 C 6.816406 -12.160156 6.554688 -11.265625 6.484375 -10.046875 L 11.3125 -10.046875 C 11.21875 -11.285156 10.988281 -12.1875 10.625 -12.75 C 10.269531 -13.3125 9.722656 -13.59375 8.984375 -13.59375 Z M 8.984375 -13.59375 "/></g></g></g><g fill="#000000" fill-opacity="1"><g transform="translate(182.638093, 206.054589)"><g><path d="M 6.390625 -8.15625 C 6.390625 -6.4375 6.660156 -5.164062 7.203125 -4.34375 C 7.742188 -3.53125 8.550781 -3.125 9.625 -3.125 C 10.71875 -3.125 11.554688 -3.570312 12.140625 -4.46875 C 12.722656 -5.375 13.015625 -6.644531 13.015625 -8.28125 C 13.015625 -9.875 12.726562 -11.097656 12.15625 -11.953125 C 11.59375 -12.804688 10.757812 -13.234375 9.65625 -13.234375 C 8.550781 -13.234375 7.726562 -12.828125 7.1875 -12.015625 C 6.65625 -11.203125 6.390625 -9.914062 6.390625 -8.15625 Z M 1.140625 -8.15625 C 1.140625 -10.914062 1.722656 -13.023438 2.890625 -14.484375 C 4.066406 -15.953125 5.765625 -16.6875 7.984375 -16.6875 C 10.316406 -16.6875 11.984375 -15.695312 12.984375 -13.71875 L 13.046875 -13.71875 C 12.992188 -14.507812 12.96875 -15.460938 12.96875 -16.578125 L 12.96875 -23.078125 L 18.015625 -23.078125 L 18.015625 -3.8125 C 18.015625 -2.675781 18.066406 -1.40625 18.171875 0 L 13.21875 0 C 13.15625 -0.15625 13.097656 -0.554688 13.046875 -1.203125 C 12.992188 -1.859375 12.96875 -2.359375 12.96875 -2.703125 L 12.90625 -2.703125 C 11.96875 -0.710938 10.25 0.28125 7.75 0.28125 C 5.59375 0.28125 3.953125 -0.4375 2.828125 -1.875 C 1.703125 -3.320312 1.140625 -5.414062 1.140625 -8.15625 Z M 1.140625 -8.15625 "/></g></g></g><g fill="#000000" fill-opacity="1"><g transform="translate(202.766828, 206.054589)"><g><path d="M 6.453125 -7.15625 C 6.566406 -5.707031 6.859375 -4.632812 7.328125 -3.9375 C 7.804688 -3.238281 8.5 -2.890625 9.40625 -2.890625 C 9.957031 -2.890625 10.457031 -3.070312 10.90625 -3.4375 C 11.351562 -3.8125 11.8125 -4.515625 12.28125 -5.546875 L 16.265625 -3.828125 C 15.484375 -2.617188 14.769531 -1.753906 14.125 -1.234375 C 13.488281 -0.710938 12.742188 -0.320312 11.890625 -0.0625 C 11.046875 0.1875 10.03125 0.3125 8.84375 0.3125 C 6.375 0.3125 4.476562 -0.425781 3.15625 -1.90625 C 1.832031 -3.382812 1.171875 -5.5 1.171875 -8.25 C 1.171875 -11 1.835938 -13.097656 3.171875 -14.546875 C 4.515625 -15.992188 6.492188 -16.71875 9.109375 -16.71875 C 11.523438 -16.71875 13.359375 -15.929688 14.609375 -14.359375 C 15.867188 -12.785156 16.5 -10.457031 16.5 -7.375 L 16.5 -7.15625 Z M 8.984375 -13.59375 C 8.296875 -13.59375 7.722656 -13.304688 7.265625 -12.734375 C 6.816406 -12.160156 6.554688 -11.265625 6.484375 -10.046875 L 11.3125 -10.046875 C 11.21875 -11.285156 10.988281 -12.1875 10.625 -12.75 C 10.269531 -13.3125 9.722656 -13.59375 8.984375 -13.59375 Z M 8.984375 -13.59375 "/></g></g></g><g fill="#000000" fill-opacity="1"><g transform="translate(220.355659, 206.054589)"><g><path d="M 10.78125 -12.8125 C 9.707031 -12.8125 8.828125 -12.3125 8.140625 -11.3125 C 7.453125 -10.320312 7.109375 -9.035156 7.109375 -7.453125 L 7.109375 0 L 2.09375 0 L 2.09375 -12.328125 C 2.09375 -13.679688 2.050781 -15.035156 1.96875 -16.390625 L 6.78125 -16.390625 C 6.90625 -14.460938 6.96875 -13.226562 6.96875 -12.6875 L 7.03125 -12.6875 C 7.519531 -14.132812 8.09375 -15.164062 8.75 -15.78125 C 9.414062 -16.40625 10.257812 -16.71875 11.28125 -16.71875 C 11.800781 -16.71875 12.242188 -16.628906 12.609375 -16.453125 L 12.609375 -12.625 C 12.035156 -12.75 11.425781 -12.8125 10.78125 -12.8125 Z M 10.78125 -12.8125 "/></g></g></g><g fill="#000000" fill-opacity="1"><g transform="translate(233.293302, 206.054589)"><g><path d="M 13.578125 -4.875 C 13.578125 -3.226562 13.003906 -1.953125 11.859375 -1.046875 C 10.722656 -0.140625 9.164062 0.3125 7.1875 0.3125 C 5.0625 0.3125 3.523438 -0.00390625 2.578125 -0.640625 C 1.640625 -1.285156 1.007812 -2.351562 0.6875 -3.84375 L 4.90625 -4.46875 C 5.082031 -3.3125 5.804688 -2.734375 7.078125 -2.734375 C 7.628906 -2.734375 8.078125 -2.851562 8.421875 -3.09375 C 8.773438 -3.34375 8.953125 -3.726562 8.953125 -4.25 C 8.953125 -4.632812 8.847656 -4.960938 8.640625 -5.234375 C 8.441406 -5.515625 8.140625 -5.757812 7.734375 -5.96875 C 7.335938 -6.175781 6.597656 -6.441406 5.515625 -6.765625 C 4.316406 -7.117188 3.453125 -7.492188 2.921875 -7.890625 C 2.390625 -8.296875 1.976562 -8.796875 1.6875 -9.390625 C 1.40625 -9.992188 1.265625 -10.753906 1.265625 -11.671875 C 1.265625 -13.253906 1.78125 -14.488281 2.8125 -15.375 C 3.851562 -16.269531 5.332031 -16.71875 7.25 -16.71875 C 9.09375 -16.71875 10.484375 -16.382812 11.421875 -15.71875 C 12.359375 -15.0625 12.929688 -14.054688 13.140625 -12.703125 L 8.921875 -12.28125 C 8.835938 -12.769531 8.664062 -13.117188 8.40625 -13.328125 C 8.144531 -13.546875 7.785156 -13.65625 7.328125 -13.65625 C 6.347656 -13.65625 5.859375 -13.195312 5.859375 -12.28125 C 5.859375 -11.789062 6.054688 -11.382812 6.453125 -11.0625 C 6.847656 -10.75 7.691406 -10.410156 8.984375 -10.046875 C 10.304688 -9.671875 11.25 -9.269531 11.8125 -8.84375 C 12.375 -8.425781 12.804688 -7.894531 13.109375 -7.25 C 13.421875 -6.601562 13.578125 -5.8125 13.578125 -4.875 Z M 13.578125 -4.875 "/></g></g></g><g fill="#000000" fill-opacity="1"><g transform="translate(247.596143, 206.054589)"><g><path d="M 11.0625 -7.96875 C 11.0625 -5 10.617188 -2.335938 9.734375 0.015625 C 8.859375 2.378906 7.40625 4.78125 5.375 7.21875 L 0.296875 7.21875 C 2.304688 4.75 3.769531 2.34375 4.6875 0 C 5.601562 -2.34375 6.0625 -4.988281 6.0625 -7.9375 C 6.0625 -10.863281 5.601562 -13.5 4.6875 -15.84375 C 3.78125 -18.1875 2.316406 -20.597656 0.296875 -23.078125 L 5.375 -23.078125 C 7.4375 -20.585938 8.898438 -18.179688 9.765625 -15.859375 C 10.628906 -13.535156 11.0625 -10.90625 11.0625 -7.96875 Z M 11.0625 -7.96875 "/></g></g></g><g fill="#000000" fill-opacity="1"><g transform="translate(136.281292, 120.940102)"><g><path d="M 28.609375 0 L 12.0625 -28.5 C 12.25 -24.789062 12.34375 -22.457031 12.34375 -21.5 L 12.34375 0 L 4.28125 0 L 4.28125 -38.203125 L 15.109375 -38.203125 L 31.890625 -9.484375 C 31.835938 -10.265625 31.773438 -11.257812 31.703125 -12.46875 C 31.628906 -13.6875 31.59375 -15.21875 31.59375 -17.0625 L 31.59375 -38.203125 L 39.59375 -38.203125 L 39.59375 0 Z M 28.609375 0 "/></g></g></g><g fill="#000000" fill-opacity="1"><g transform="translate(178.765208, 126.767424)"><g><path d="M 0.78125 0 L 0.78125 -2.59375 C 1.226562 -3.5625 1.8125 -4.472656 2.53125 -5.328125 C 3.25 -6.191406 4.175781 -7.066406 5.3125 -7.953125 C 6.550781 -8.910156 7.34375 -9.554688 7.6875 -9.890625 C 8.039062 -10.234375 8.316406 -10.570312 8.515625 -10.90625 C 8.710938 -11.238281 8.8125 -11.585938 8.8125 -11.953125 C 8.8125 -12.585938 8.640625 -13.054688 8.296875 -13.359375 C 7.953125 -13.671875 7.484375 -13.828125 6.890625 -13.828125 C 6.210938 -13.828125 5.695312 -13.65625 5.34375 -13.3125 C 5 -12.96875 4.78125 -12.445312 4.6875 -11.75 L 0.9375 -11.921875 C 1.125 -13.535156 1.71875 -14.753906 2.71875 -15.578125 C 3.71875 -16.410156 5.0625 -16.828125 6.75 -16.828125 C 8.59375 -16.828125 10.03125 -16.410156 11.0625 -15.578125 C 12.09375 -14.742188 12.609375 -13.582031 12.609375 -12.09375 C 12.609375 -11.382812 12.46875 -10.734375 12.1875 -10.140625 C 11.90625 -9.554688 11.515625 -9 11.015625 -8.46875 C 10.515625 -7.9375 9.703125 -7.265625 8.578125 -6.453125 C 7.734375 -5.835938 7 -5.253906 6.375 -4.703125 C 5.757812 -4.148438 5.304688 -3.601562 5.015625 -3.0625 L 12.875 -3.0625 L 12.875 0 Z M 0.78125 0 "/></g></g></g></svg>