<svg xmlns="http://www.w3.org/2000/svg" xmlns:xlink="http://www.w3.org/1999/xlink" width="827" zoomAndPan="magnify" viewBox="0 0 620.25 230.249992" height="307" preserveAspectRatio="xMidYMid meet" version="1.0"><defs><g/><clipPath id="47bba38cbd"><path d="M 0.632812 0 L 618 0 L 618 229.382812 L 0.632812 229.382812 Z M 0.632812 0 " clip-rule="nonzero"/></clipPath><clipPath id="fd84188762"><path d="M 11.847656 0 L 606.984375 0 C 613.175781 0 618.199219 5.019531 618.199219 11.214844 L 618.199219 218.167969 C 618.199219 224.359375 613.175781 229.382812 606.984375 229.382812 L 11.847656 229.382812 C 5.652344 229.382812 0.632812 224.359375 0.632812 218.167969 L 0.632812 11.214844 C 0.632812 5.019531 5.652344 0 11.847656 0 Z M 11.847656 0 " clip-rule="nonzero"/></clipPath></defs><g clip-path="url(#47bba38cbd)"><g clip-path="url(#fd84188762)"><path fill="#fff2cc" d="M 0.632812 0 L 617.992188 0 L 617.992188 229.382812 L 0.632812 229.382812 Z M 0.632812 0 " fill-opacity="1" fill-rule="nonzero"/></g></g><path fill="#ffffff" d="M 72.484375 11.632812 L 533.65625 11.632812 C 538.375 11.632812 542.203125 15.460938 542.203125 20.183594 L 542.203125 37.28125 C 542.203125 42 538.375 45.828125 533.65625 45.828125 L 72.484375 45.828125 C 67.761719 45.828125 63.9375 42 63.9375 37.28125 L 63.9375 20.183594 C 63.9375 15.460938 67.761719 11.632812 72.484375 11.632812 Z M 72.484375 11.632812 " fill-opacity="1" fill-rule="nonzero"/><g fill="#000000" fill-opacity="1"><g transform="translate(72.284209, 36.684047)"><g><path d="M 8.359375 -13.15625 L 5.5625 0 L 3.578125 0 L 6.390625 -13.15625 L 1.625 -13.15625 L 2 -14.9375 L 13.5 -14.9375 L 13.125 -13.15625 Z M 8.359375 -13.15625 "/></g></g></g><g fill="#000000" fill-opacity="1"><g transform="translate(84.609427, 36.684047)"><g><path d="M 6.0625 -9.171875 C 5.257812 -9.171875 4.585938 -8.867188 4.046875 -8.265625 C 3.503906 -7.671875 3.113281 -6.835938 2.875 -5.765625 L 1.65625 0 L -0.171875 0 L 2.125 -10.8125 L 3.84375 -10.8125 L 3.5 -9.171875 C 3.863281 -9.671875 4.203125 -10.050781 4.515625 -10.3125 C 4.835938 -10.582031 5.148438 -10.769531 5.453125 -10.875 C 5.765625 -10.988281 6.117188 -11.046875 6.515625 -11.046875 C 6.828125 -11.046875 7.113281 -11.003906 7.375 -10.921875 C 7.632812 -10.847656 7.898438 -10.722656 8.171875 -10.546875 L 7.28125 -8.859375 C 6.925781 -9.066406 6.519531 -9.171875 6.0625 -9.171875 Z M 6.0625 -9.171875 "/></g></g></g><g fill="#000000" fill-opacity="1"><g transform="translate(92.136984, 36.684047)"><g><path d="M 8.34375 -1.203125 C 8.34375 -0.835938 8.40625 -0.4375 8.53125 0 L 6.609375 0 C 6.566406 -0.15625 6.535156 -0.304688 6.515625 -0.453125 C 6.492188 -0.609375 6.492188 -0.898438 6.515625 -1.328125 C 5.890625 -0.796875 5.269531 -0.398438 4.65625 -0.140625 C 4.039062 0.117188 3.410156 0.25 2.765625 0.25 C 1.765625 0.25 1 0.015625 0.46875 -0.453125 C -0.0625 -0.921875 -0.328125 -1.570312 -0.328125 -2.40625 C -0.328125 -3.425781 0.0351562 -4.253906 0.765625 -4.890625 C 1.492188 -5.523438 2.691406 -5.96875 4.359375 -6.21875 C 5.859375 -6.4375 6.925781 -6.644531 7.5625 -6.84375 C 7.6875 -7.382812 7.75 -7.800781 7.75 -8.09375 C 7.75 -8.613281 7.585938 -8.984375 7.265625 -9.203125 C 6.953125 -9.429688 6.453125 -9.546875 5.765625 -9.546875 C 4.992188 -9.546875 4.367188 -9.382812 3.890625 -9.0625 C 3.421875 -8.738281 3.039062 -8.210938 2.75 -7.484375 L 1.015625 -7.765625 C 1.441406 -8.898438 2.039062 -9.726562 2.8125 -10.25 C 3.59375 -10.78125 4.601562 -11.046875 5.84375 -11.046875 C 7.125 -11.046875 8.0625 -10.8125 8.65625 -10.34375 C 9.257812 -9.882812 9.5625 -9.179688 9.5625 -8.234375 C 9.5625 -7.847656 9.507812 -7.390625 9.40625 -6.859375 L 8.671875 -3.421875 C 8.453125 -2.429688 8.34375 -1.691406 8.34375 -1.203125 Z M 4.109375 -4.6875 C 3.222656 -4.53125 2.578125 -4.269531 2.171875 -3.90625 C 1.773438 -3.550781 1.578125 -3.085938 1.578125 -2.515625 C 1.578125 -2.097656 1.71875 -1.769531 2 -1.53125 C 2.28125 -1.300781 2.691406 -1.1875 3.234375 -1.1875 C 3.765625 -1.1875 4.351562 -1.359375 5 -1.703125 C 5.445312 -1.941406 5.804688 -2.195312 6.078125 -2.46875 C 6.359375 -2.738281 6.582031 -3.066406 6.75 -3.453125 C 6.914062 -3.835938 7.070312 -4.359375 7.21875 -5.015625 L 7.296875 -5.390625 C 7.117188 -5.328125 6.722656 -5.222656 6.109375 -5.078125 C 5.492188 -4.941406 4.828125 -4.8125 4.109375 -4.6875 Z M 4.109375 -4.6875 "/></g></g></g><g fill="#000000" fill-opacity="1"><g transform="translate(103.046337, 36.684047)"><g><path d="M 8.3125 -7.0625 C 8.375 -7.34375 8.40625 -7.617188 8.40625 -7.890625 C 8.40625 -8.941406 7.867188 -9.46875 6.796875 -9.46875 C 5.773438 -9.46875 4.941406 -9.195312 4.296875 -8.65625 C 3.648438 -8.113281 3.195312 -7.234375 2.9375 -6.015625 L 1.65625 0 L -0.171875 0 L 2.125 -10.8125 L 3.84375 -10.8125 L 3.515625 -9.296875 C 3.984375 -9.835938 4.539062 -10.265625 5.1875 -10.578125 C 5.832031 -10.890625 6.503906 -11.046875 7.203125 -11.046875 C 8.210938 -11.046875 8.972656 -10.789062 9.484375 -10.28125 C 9.992188 -9.769531 10.25 -9.066406 10.25 -8.171875 C 10.25 -7.785156 10.203125 -7.390625 10.109375 -6.984375 L 8.640625 0 L 6.796875 0 Z M 8.3125 -7.0625 "/></g></g></g><g fill="#000000" fill-opacity="1"><g transform="translate(114.648347, 36.684047)"><g><path d="M 5.09375 -9.546875 C 4.363281 -9.546875 3.796875 -9.390625 3.390625 -9.078125 C 2.984375 -8.773438 2.78125 -8.375 2.78125 -7.875 C 2.78125 -7.5 2.945312 -7.195312 3.28125 -6.96875 C 3.613281 -6.738281 4.15625 -6.554688 4.90625 -6.421875 C 5.695312 -6.285156 6.34375 -6.101562 6.84375 -5.875 C 7.34375 -5.65625 7.722656 -5.335938 7.984375 -4.921875 C 8.253906 -4.515625 8.390625 -3.972656 8.390625 -3.296875 C 8.390625 -2.703125 8.207031 -2.132812 7.84375 -1.59375 C 7.476562 -1.050781 6.941406 -0.609375 6.234375 -0.265625 C 5.523438 0.078125 4.691406 0.25 3.734375 0.25 C 2.347656 0.25 1.335938 -0.0390625 0.703125 -0.625 C 0.0664062 -1.207031 -0.257812 -2.066406 -0.28125 -3.203125 L 1.59375 -3.5 C 1.613281 -2.75 1.796875 -2.1875 2.140625 -1.8125 C 2.484375 -1.4375 3.046875 -1.25 3.828125 -1.25 C 4.347656 -1.25 4.804688 -1.332031 5.203125 -1.5 C 5.597656 -1.675781 5.898438 -1.910156 6.109375 -2.203125 C 6.316406 -2.503906 6.421875 -2.835938 6.421875 -3.203125 C 6.421875 -3.628906 6.25 -3.96875 5.90625 -4.21875 C 5.570312 -4.476562 5 -4.671875 4.1875 -4.796875 C 3.101562 -4.960938 2.285156 -5.257812 1.734375 -5.6875 C 1.191406 -6.125 0.921875 -6.78125 0.921875 -7.65625 C 0.921875 -8.289062 1.097656 -8.867188 1.453125 -9.390625 C 1.804688 -9.910156 2.304688 -10.316406 2.953125 -10.609375 C 3.597656 -10.898438 4.332031 -11.046875 5.15625 -11.046875 C 7.613281 -11.046875 8.882812 -10.050781 8.96875 -8.0625 L 7.125 -7.78125 C 7.082031 -8.40625 6.90625 -8.851562 6.59375 -9.125 C 6.28125 -9.40625 5.78125 -9.546875 5.09375 -9.546875 Z M 5.09375 -9.546875 "/></g></g></g><g fill="#000000" fill-opacity="1"><g transform="translate(124.579831, 36.684047)"><g><path d="M 2.5625 -12.859375 L 3 -14.9375 L 4.84375 -14.9375 L 4.390625 -12.859375 Z M -0.171875 0 L 2.125 -10.8125 L 3.96875 -10.8125 L 1.65625 0 Z M -0.171875 0 "/></g></g></g><g fill="#000000" fill-opacity="1"><g transform="translate(129.245078, 36.684047)"><g><path d="M 6.28125 -10.8125 L 5.984375 -9.390625 L 3.9375 -9.390625 L 2.53125 -2.84375 C 2.46875 -2.550781 2.4375 -2.3125 2.4375 -2.125 C 2.4375 -1.863281 2.5 -1.6875 2.625 -1.59375 C 2.757812 -1.5 2.972656 -1.453125 3.265625 -1.453125 C 3.492188 -1.453125 3.84375 -1.5 4.3125 -1.59375 L 4.234375 -0.0625 C 3.691406 0.0625 3.226562 0.125 2.84375 0.125 C 2 0.125 1.40625 -0.0234375 1.0625 -0.328125 C 0.726562 -0.640625 0.5625 -1.082031 0.5625 -1.65625 C 0.5625 -1.875 0.578125 -2.109375 0.609375 -2.359375 C 0.648438 -2.609375 0.710938 -2.925781 0.796875 -3.3125 L 2.09375 -9.390625 L 0.546875 -9.390625 L 0.859375 -10.8125 L 2.390625 -10.8125 L 2.921875 -13.296875 L 5.046875 -14.609375 L 4.234375 -10.8125 Z M 6.28125 -10.8125 "/></g></g></g><g fill="#000000" fill-opacity="1"><g transform="translate(135.316012, 36.684047)"><g><path d="M 2.5625 -12.859375 L 3 -14.9375 L 4.84375 -14.9375 L 4.390625 -12.859375 Z M -0.171875 0 L 2.125 -10.8125 L 3.96875 -10.8125 L 1.65625 0 Z M -0.171875 0 "/></g></g></g><g fill="#000000" fill-opacity="1"><g transform="translate(139.98126, 36.684047)"><g><path d="M 0.109375 -4.296875 C 0.109375 -5.628906 0.363281 -6.804688 0.875 -7.828125 C 1.394531 -8.859375 2.113281 -9.648438 3.03125 -10.203125 C 3.945312 -10.765625 4.976562 -11.046875 6.125 -11.046875 C 7.019531 -11.046875 7.804688 -10.863281 8.484375 -10.5 C 9.160156 -10.144531 9.6875 -9.617188 10.0625 -8.921875 C 10.4375 -8.234375 10.625 -7.421875 10.625 -6.484375 C 10.625 -5.140625 10.359375 -3.957031 9.828125 -2.9375 C 9.304688 -1.925781 8.582031 -1.140625 7.65625 -0.578125 C 6.738281 -0.0234375 5.710938 0.25 4.578125 0.25 C 3.703125 0.25 2.925781 0.078125 2.25 -0.265625 C 1.570312 -0.617188 1.046875 -1.140625 0.671875 -1.828125 C 0.296875 -2.515625 0.109375 -3.335938 0.109375 -4.296875 Z M 6.015625 -9.546875 C 5.285156 -9.546875 4.613281 -9.332031 4 -8.90625 C 3.394531 -8.476562 2.910156 -7.863281 2.546875 -7.0625 C 2.179688 -6.257812 2 -5.320312 2 -4.25 C 2 -3.613281 2.109375 -3.070312 2.328125 -2.625 C 2.554688 -2.175781 2.867188 -1.832031 3.265625 -1.59375 C 3.660156 -1.363281 4.125 -1.25 4.65625 -1.25 C 5.425781 -1.25 6.117188 -1.472656 6.734375 -1.921875 C 7.359375 -2.367188 7.84375 -2.992188 8.1875 -3.796875 C 8.539062 -4.597656 8.71875 -5.515625 8.71875 -6.546875 C 8.71875 -7.503906 8.472656 -8.242188 7.984375 -8.765625 C 7.492188 -9.285156 6.835938 -9.546875 6.015625 -9.546875 Z M 6.015625 -9.546875 "/></g></g></g><g fill="#000000" fill-opacity="1"><g transform="translate(151.583269, 36.684047)"><g><path d="M 8.3125 -7.0625 C 8.375 -7.34375 8.40625 -7.617188 8.40625 -7.890625 C 8.40625 -8.941406 7.867188 -9.46875 6.796875 -9.46875 C 5.773438 -9.46875 4.941406 -9.195312 4.296875 -8.65625 C 3.648438 -8.113281 3.195312 -7.234375 2.9375 -6.015625 L 1.65625 0 L -0.171875 0 L 2.125 -10.8125 L 3.84375 -10.8125 L 3.515625 -9.296875 C 3.984375 -9.835938 4.539062 -10.265625 5.1875 -10.578125 C 5.832031 -10.890625 6.503906 -11.046875 7.203125 -11.046875 C 8.210938 -11.046875 8.972656 -10.789062 9.484375 -10.28125 C 9.992188 -9.769531 10.25 -9.066406 10.25 -8.171875 C 10.25 -7.785156 10.203125 -7.390625 10.109375 -6.984375 L 8.640625 0 L 6.796875 0 Z M 8.3125 -7.0625 "/></g></g></g><g fill="#000000" fill-opacity="1"><g transform="translate(163.185279, 36.684047)"><g/></g></g><g fill="#000000" fill-opacity="1"><g transform="translate(168.920078, 36.684047)"><g><path d="M 2.359375 -2.8125 C 2.359375 -1.71875 2.472656 -0.554688 2.703125 0.671875 C 2.941406 1.910156 3.296875 3.144531 3.765625 4.375 L 2.359375 4.375 C 2.035156 3.769531 1.734375 3.03125 1.453125 2.15625 C 1.171875 1.28125 0.941406 0.378906 0.765625 -0.546875 C 0.597656 -1.472656 0.515625 -2.320312 0.515625 -3.09375 C 0.515625 -5.226562 1.007812 -7.316406 2 -9.359375 C 3 -11.398438 4.503906 -13.34375 6.515625 -15.1875 L 7.90625 -15.1875 C 6.394531 -13.394531 5.238281 -11.820312 4.4375 -10.46875 C 3.644531 -9.125 3.097656 -7.863281 2.796875 -6.6875 C 2.503906 -5.519531 2.359375 -4.226562 2.359375 -2.8125 Z M 2.359375 -2.8125 "/></g></g></g><g fill="#000000" fill-opacity="1"><g transform="translate(175.867018, 36.684047)"><g><path d="M 5.09375 -9.546875 C 4.363281 -9.546875 3.796875 -9.390625 3.390625 -9.078125 C 2.984375 -8.773438 2.78125 -8.375 2.78125 -7.875 C 2.78125 -7.5 2.945312 -7.195312 3.28125 -6.96875 C 3.613281 -6.738281 4.15625 -6.554688 4.90625 -6.421875 C 5.695312 -6.285156 6.34375 -6.101562 6.84375 -5.875 C 7.34375 -5.65625 7.722656 -5.335938 7.984375 -4.921875 C 8.253906 -4.515625 8.390625 -3.972656 8.390625 -3.296875 C 8.390625 -2.703125 8.207031 -2.132812 7.84375 -1.59375 C 7.476562 -1.050781 6.941406 -0.609375 6.234375 -0.265625 C 5.523438 0.078125 4.691406 0.25 3.734375 0.25 C 2.347656 0.25 1.335938 -0.0390625 0.703125 -0.625 C 0.0664062 -1.207031 -0.257812 -2.066406 -0.28125 -3.203125 L 1.59375 -3.5 C 1.613281 -2.75 1.796875 -2.1875 2.140625 -1.8125 C 2.484375 -1.4375 3.046875 -1.25 3.828125 -1.25 C 4.347656 -1.25 4.804688 -1.332031 5.203125 -1.5 C 5.597656 -1.675781 5.898438 -1.910156 6.109375 -2.203125 C 6.316406 -2.503906 6.421875 -2.835938 6.421875 -3.203125 C 6.421875 -3.628906 6.25 -3.96875 5.90625 -4.21875 C 5.570312 -4.476562 5 -4.671875 4.1875 -4.796875 C 3.101562 -4.960938 2.285156 -5.257812 1.734375 -5.6875 C 1.191406 -6.125 0.921875 -6.78125 0.921875 -7.65625 C 0.921875 -8.289062 1.097656 -8.867188 1.453125 -9.390625 C 1.804688 -9.910156 2.304688 -10.316406 2.953125 -10.609375 C 3.597656 -10.898438 4.332031 -11.046875 5.15625 -11.046875 C 7.613281 -11.046875 8.882812 -10.050781 8.96875 -8.0625 L 7.125 -7.78125 C 7.082031 -8.40625 6.90625 -8.851562 6.59375 -9.125 C 6.28125 -9.40625 5.78125 -9.546875 5.09375 -9.546875 Z M 5.09375 -9.546875 "/></g></g></g><g fill="#000000" fill-opacity="1"><g transform="translate(185.798503, 36.684047)"><g><path d="M 2.40625 -3.734375 C 2.34375 -3.460938 2.3125 -3.1875 2.3125 -2.90625 C 2.3125 -1.851562 2.84375 -1.328125 3.90625 -1.328125 C 4.925781 -1.328125 5.757812 -1.597656 6.40625 -2.140625 C 7.0625 -2.691406 7.515625 -3.570312 7.765625 -4.78125 L 9.046875 -10.8125 L 10.890625 -10.8125 L 8.59375 0 L 6.875 0 L 7.203125 -1.5 C 6.734375 -0.957031 6.175781 -0.53125 5.53125 -0.21875 C 4.882812 0.09375 4.210938 0.25 3.515625 0.25 C 2.503906 0.25 1.742188 -0.00390625 1.234375 -0.515625 C 0.722656 -1.023438 0.46875 -1.726562 0.46875 -2.625 C 0.46875 -3.007812 0.507812 -3.410156 0.59375 -3.828125 L 2.078125 -10.8125 L 3.90625 -10.8125 Z M 2.40625 -3.734375 "/></g></g></g><g fill="#000000" fill-opacity="1"><g transform="translate(197.400512, 36.684047)"><g><path d="M 6.0625 -9.171875 C 5.257812 -9.171875 4.585938 -8.867188 4.046875 -8.265625 C 3.503906 -7.671875 3.113281 -6.835938 2.875 -5.765625 L 1.65625 0 L -0.171875 0 L 2.125 -10.8125 L 3.84375 -10.8125 L 3.5 -9.171875 C 3.863281 -9.671875 4.203125 -10.050781 4.515625 -10.3125 C 4.835938 -10.582031 5.148438 -10.769531 5.453125 -10.875 C 5.765625 -10.988281 6.117188 -11.046875 6.515625 -11.046875 C 6.828125 -11.046875 7.113281 -11.003906 7.375 -10.921875 C 7.632812 -10.847656 7.898438 -10.722656 8.171875 -10.546875 L 7.28125 -8.859375 C 6.925781 -9.066406 6.519531 -9.171875 6.0625 -9.171875 Z M 6.0625 -9.171875 "/></g></g></g><g fill="#000000" fill-opacity="1"><g transform="translate(204.92807, 36.684047)"><g><path d="M 3.90625 -2.15625 L 3.953125 -2.15625 C 4.222656 -2.726562 4.59375 -3.414062 5.0625 -4.21875 L 8.84375 -10.8125 L 10.78125 -10.8125 L 4.40625 0 L 2.6875 0 L 0.875 -10.8125 L 2.75 -10.8125 L 3.671875 -4.59375 C 3.785156 -3.78125 3.863281 -2.96875 3.90625 -2.15625 Z M 3.90625 -2.15625 "/></g></g></g><g fill="#000000" fill-opacity="1"><g transform="translate(215.175317, 36.684047)"><g><path d="M 2.5625 -12.859375 L 3 -14.9375 L 4.84375 -14.9375 L 4.390625 -12.859375 Z M -0.171875 0 L 2.125 -10.8125 L 3.96875 -10.8125 L 1.65625 0 Z M -0.171875 0 "/></g></g></g><g fill="#000000" fill-opacity="1"><g transform="translate(219.840564, 36.684047)"><g><path d="M 3.90625 -2.15625 L 3.953125 -2.15625 C 4.222656 -2.726562 4.59375 -3.414062 5.0625 -4.21875 L 8.84375 -10.8125 L 10.78125 -10.8125 L 4.40625 0 L 2.6875 0 L 0.875 -10.8125 L 2.75 -10.8125 L 3.671875 -4.59375 C 3.785156 -3.78125 3.863281 -2.96875 3.90625 -2.15625 Z M 3.90625 -2.15625 "/></g></g></g><g fill="#000000" fill-opacity="1"><g transform="translate(230.087811, 36.684047)"><g><path d="M 8.34375 -1.203125 C 8.34375 -0.835938 8.40625 -0.4375 8.53125 0 L 6.609375 0 C 6.566406 -0.15625 6.535156 -0.304688 6.515625 -0.453125 C 6.492188 -0.609375 6.492188 -0.898438 6.515625 -1.328125 C 5.890625 -0.796875 5.269531 -0.398438 4.65625 -0.140625 C 4.039062 0.117188 3.410156 0.25 2.765625 0.25 C 1.765625 0.25 1 0.015625 0.46875 -0.453125 C -0.0625 -0.921875 -0.328125 -1.570312 -0.328125 -2.40625 C -0.328125 -3.425781 0.0351562 -4.253906 0.765625 -4.890625 C 1.492188 -5.523438 2.691406 -5.96875 4.359375 -6.21875 C 5.859375 -6.4375 6.925781 -6.644531 7.5625 -6.84375 C 7.6875 -7.382812 7.75 -7.800781 7.75 -8.09375 C 7.75 -8.613281 7.585938 -8.984375 7.265625 -9.203125 C 6.953125 -9.429688 6.453125 -9.546875 5.765625 -9.546875 C 4.992188 -9.546875 4.367188 -9.382812 3.890625 -9.0625 C 3.421875 -8.738281 3.039062 -8.210938 2.75 -7.484375 L 1.015625 -7.765625 C 1.441406 -8.898438 2.039062 -9.726562 2.8125 -10.25 C 3.59375 -10.78125 4.601562 -11.046875 5.84375 -11.046875 C 7.125 -11.046875 8.0625 -10.8125 8.65625 -10.34375 C 9.257812 -9.882812 9.5625 -9.179688 9.5625 -8.234375 C 9.5625 -7.847656 9.507812 -7.390625 9.40625 -6.859375 L 8.671875 -3.421875 C 8.453125 -2.429688 8.34375 -1.691406 8.34375 -1.203125 Z M 4.109375 -4.6875 C 3.222656 -4.53125 2.578125 -4.269531 2.171875 -3.90625 C 1.773438 -3.550781 1.578125 -3.085938 1.578125 -2.515625 C 1.578125 -2.097656 1.71875 -1.769531 2 -1.53125 C 2.28125 -1.300781 2.691406 -1.1875 3.234375 -1.1875 C 3.765625 -1.1875 4.351562 -1.359375 5 -1.703125 C 5.445312 -1.941406 5.804688 -2.195312 6.078125 -2.46875 C 6.359375 -2.738281 6.582031 -3.066406 6.75 -3.453125 C 6.914062 -3.835938 7.070312 -4.359375 7.21875 -5.015625 L 7.296875 -5.390625 C 7.117188 -5.328125 6.722656 -5.222656 6.109375 -5.078125 C 5.492188 -4.941406 4.828125 -4.8125 4.109375 -4.6875 Z M 4.109375 -4.6875 "/></g></g></g><g fill="#000000" fill-opacity="1"><g transform="translate(240.997164, 36.684047)"><g><path d="M -0.171875 0 L 3 -14.9375 L 4.84375 -14.9375 L 1.65625 0 Z M -0.171875 0 "/></g></g></g><g fill="#000000" fill-opacity="1"><g transform="translate(245.662411, 36.684047)"><g><path d="M -0.25 3.046875 L -0.671875 2.265625 C -0.210938 2.054688 0.144531 1.769531 0.40625 1.40625 C 0.675781 1.039062 0.875 0.570312 1 0 L -0.125 0 L 0.359375 -2.296875 L 2.65625 -2.296875 L 2.15625 0.0625 C 2 0.789062 1.710938 1.40625 1.296875 1.90625 C 0.878906 2.414062 0.363281 2.796875 -0.25 3.046875 Z M -0.25 3.046875 "/></g></g></g><g fill="#000000" fill-opacity="1"><g transform="translate(250.87771, 36.684047)"><g/></g></g><g fill="#000000" fill-opacity="1"><g transform="translate(256.612509, 36.684047)"><g><path d="M 5.09375 -9.546875 C 4.363281 -9.546875 3.796875 -9.390625 3.390625 -9.078125 C 2.984375 -8.773438 2.78125 -8.375 2.78125 -7.875 C 2.78125 -7.5 2.945312 -7.195312 3.28125 -6.96875 C 3.613281 -6.738281 4.15625 -6.554688 4.90625 -6.421875 C 5.695312 -6.285156 6.34375 -6.101562 6.84375 -5.875 C 7.34375 -5.65625 7.722656 -5.335938 7.984375 -4.921875 C 8.253906 -4.515625 8.390625 -3.972656 8.390625 -3.296875 C 8.390625 -2.703125 8.207031 -2.132812 7.84375 -1.59375 C 7.476562 -1.050781 6.941406 -0.609375 6.234375 -0.265625 C 5.523438 0.078125 4.691406 0.25 3.734375 0.25 C 2.347656 0.25 1.335938 -0.0390625 0.703125 -0.625 C 0.0664062 -1.207031 -0.257812 -2.066406 -0.28125 -3.203125 L 1.59375 -3.5 C 1.613281 -2.75 1.796875 -2.1875 2.140625 -1.8125 C 2.484375 -1.4375 3.046875 -1.25 3.828125 -1.25 C 4.347656 -1.25 4.804688 -1.332031 5.203125 -1.5 C 5.597656 -1.675781 5.898438 -1.910156 6.109375 -2.203125 C 6.316406 -2.503906 6.421875 -2.835938 6.421875 -3.203125 C 6.421875 -3.628906 6.25 -3.96875 5.90625 -4.21875 C 5.570312 -4.476562 5 -4.671875 4.1875 -4.796875 C 3.101562 -4.960938 2.285156 -5.257812 1.734375 -5.6875 C 1.191406 -6.125 0.921875 -6.78125 0.921875 -7.65625 C 0.921875 -8.289062 1.097656 -8.867188 1.453125 -9.390625 C 1.804688 -9.910156 2.304688 -10.316406 2.953125 -10.609375 C 3.597656 -10.898438 4.332031 -11.046875 5.15625 -11.046875 C 7.613281 -11.046875 8.882812 -10.050781 8.96875 -8.0625 L 7.125 -7.78125 C 7.082031 -8.40625 6.90625 -8.851562 6.59375 -9.125 C 6.28125 -9.40625 5.78125 -9.546875 5.09375 -9.546875 Z M 5.09375 -9.546875 "/></g></g></g><g fill="#000000" fill-opacity="1"><g transform="translate(266.543993, 36.684047)"><g><path d="M 6.28125 -10.8125 L 5.984375 -9.390625 L 3.9375 -9.390625 L 2.53125 -2.84375 C 2.46875 -2.550781 2.4375 -2.3125 2.4375 -2.125 C 2.4375 -1.863281 2.5 -1.6875 2.625 -1.59375 C 2.757812 -1.5 2.972656 -1.453125 3.265625 -1.453125 C 3.492188 -1.453125 3.84375 -1.5 4.3125 -1.59375 L 4.234375 -0.0625 C 3.691406 0.0625 3.226562 0.125 2.84375 0.125 C 2 0.125 1.40625 -0.0234375 1.0625 -0.328125 C 0.726562 -0.640625 0.5625 -1.082031 0.5625 -1.65625 C 0.5625 -1.875 0.578125 -2.109375 0.609375 -2.359375 C 0.648438 -2.609375 0.710938 -2.925781 0.796875 -3.3125 L 2.09375 -9.390625 L 0.546875 -9.390625 L 0.859375 -10.8125 L 2.390625 -10.8125 L 2.921875 -13.296875 L 5.046875 -14.609375 L 4.234375 -10.8125 Z M 6.28125 -10.8125 "/></g></g></g><g fill="#000000" fill-opacity="1"><g transform="translate(272.614927, 36.684047)"><g><path d="M 8.34375 -1.203125 C 8.34375 -0.835938 8.40625 -0.4375 8.53125 0 L 6.609375 0 C 6.566406 -0.15625 6.535156 -0.304688 6.515625 -0.453125 C 6.492188 -0.609375 6.492188 -0.898438 6.515625 -1.328125 C 5.890625 -0.796875 5.269531 -0.398438 4.65625 -0.140625 C 4.039062 0.117188 3.410156 0.25 2.765625 0.25 C 1.765625 0.25 1 0.015625 0.46875 -0.453125 C -0.0625 -0.921875 -0.328125 -1.570312 -0.328125 -2.40625 C -0.328125 -3.425781 0.0351562 -4.253906 0.765625 -4.890625 C 1.492188 -5.523438 2.691406 -5.96875 4.359375 -6.21875 C 5.859375 -6.4375 6.925781 -6.644531 7.5625 -6.84375 C 7.6875 -7.382812 7.75 -7.800781 7.75 -8.09375 C 7.75 -8.613281 7.585938 -8.984375 7.265625 -9.203125 C 6.953125 -9.429688 6.453125 -9.546875 5.765625 -9.546875 C 4.992188 -9.546875 4.367188 -9.382812 3.890625 -9.0625 C 3.421875 -8.738281 3.039062 -8.210938 2.75 -7.484375 L 1.015625 -7.765625 C 1.441406 -8.898438 2.039062 -9.726562 2.8125 -10.25 C 3.59375 -10.78125 4.601562 -11.046875 5.84375 -11.046875 C 7.125 -11.046875 8.0625 -10.8125 8.65625 -10.34375 C 9.257812 -9.882812 9.5625 -9.179688 9.5625 -8.234375 C 9.5625 -7.847656 9.507812 -7.390625 9.40625 -6.859375 L 8.671875 -3.421875 C 8.453125 -2.429688 8.34375 -1.691406 8.34375 -1.203125 Z M 4.109375 -4.6875 C 3.222656 -4.53125 2.578125 -4.269531 2.171875 -3.90625 C 1.773438 -3.550781 1.578125 -3.085938 1.578125 -2.515625 C 1.578125 -2.097656 1.71875 -1.769531 2 -1.53125 C 2.28125 -1.300781 2.691406 -1.1875 3.234375 -1.1875 C 3.765625 -1.1875 4.351562 -1.359375 5 -1.703125 C 5.445312 -1.941406 5.804688 -2.195312 6.078125 -2.46875 C 6.359375 -2.738281 6.582031 -3.066406 6.75 -3.453125 C 6.914062 -3.835938 7.070312 -4.359375 7.21875 -5.015625 L 7.296875 -5.390625 C 7.117188 -5.328125 6.722656 -5.222656 6.109375 -5.078125 C 5.492188 -4.941406 4.828125 -4.8125 4.109375 -4.6875 Z M 4.109375 -4.6875 "/></g></g></g><g fill="#000000" fill-opacity="1"><g transform="translate(283.524279, 36.684047)"><g><path d="M 11.09375 -10.8125 L 9 -0.921875 C 8.726562 0.347656 8.351562 1.367188 7.875 2.140625 C 7.394531 2.921875 6.789062 3.488281 6.0625 3.84375 C 5.34375 4.195312 4.46875 4.375 3.4375 4.375 C 2.5 4.375 1.738281 4.242188 1.15625 3.984375 C 0.570312 3.734375 0.148438 3.347656 -0.109375 2.828125 C -0.378906 2.316406 -0.523438 1.671875 -0.546875 0.890625 L 1.171875 1.171875 C 1.179688 2.304688 1.890625 2.875 3.296875 2.875 C 4.128906 2.875 4.804688 2.710938 5.328125 2.390625 C 5.859375 2.078125 6.265625 1.625 6.546875 1.03125 C 6.835938 0.445312 7.0625 -0.289062 7.21875 -1.1875 L 7.25 -1.359375 C 6.789062 -0.921875 6.296875 -0.582031 5.765625 -0.34375 C 5.242188 -0.113281 4.722656 0 4.203125 0 C 2.867188 0 1.859375 -0.394531 1.171875 -1.1875 C 0.484375 -1.988281 0.140625 -3.09375 0.140625 -4.5 C 0.140625 -5.625 0.367188 -6.6875 0.828125 -7.6875 C 1.296875 -8.695312 1.96875 -9.507812 2.84375 -10.125 C 3.726562 -10.738281 4.765625 -11.046875 5.953125 -11.046875 C 6.628906 -11.046875 7.226562 -10.898438 7.75 -10.609375 C 8.28125 -10.328125 8.707031 -9.910156 9.03125 -9.359375 L 9.0625 -9.359375 L 9.390625 -10.8125 Z M 5.921875 -9.546875 C 5.222656 -9.546875 4.578125 -9.332031 3.984375 -8.90625 C 3.390625 -8.476562 2.914062 -7.867188 2.5625 -7.078125 C 2.21875 -6.296875 2.046875 -5.40625 2.046875 -4.40625 C 2.046875 -3.488281 2.242188 -2.773438 2.640625 -2.265625 C 3.046875 -1.753906 3.625 -1.5 4.375 -1.5 C 5.175781 -1.5 5.882812 -1.726562 6.5 -2.1875 C 7.113281 -2.65625 7.585938 -3.28125 7.921875 -4.0625 C 8.253906 -4.851562 8.421875 -5.722656 8.421875 -6.671875 C 8.421875 -7.578125 8.203125 -8.28125 7.765625 -8.78125 C 7.335938 -9.289062 6.722656 -9.546875 5.921875 -9.546875 Z M 5.921875 -9.546875 "/></g></g></g><g fill="#000000" fill-opacity="1"><g transform="translate(295.330012, 36.684047)"><g><path d="M 2 -4 C 2 -3.125 2.222656 -2.445312 2.671875 -1.96875 C 3.128906 -1.488281 3.765625 -1.25 4.578125 -1.25 C 5.273438 -1.25 5.910156 -1.453125 6.484375 -1.859375 C 7.066406 -2.265625 7.53125 -2.804688 7.875 -3.484375 L 9.640625 -3.203125 C 9.191406 -2.097656 8.523438 -1.242188 7.640625 -0.640625 C 6.765625 -0.046875 5.734375 0.25 4.546875 0.25 C 3.085938 0.25 1.976562 -0.128906 1.21875 -0.890625 C 0.46875 -1.648438 0.09375 -2.71875 0.09375 -4.09375 C 0.09375 -5.34375 0.347656 -6.492188 0.859375 -7.546875 C 1.378906 -8.609375 2.117188 -9.457031 3.078125 -10.09375 C 4.035156 -10.726562 5.125 -11.046875 6.34375 -11.046875 C 7.175781 -11.046875 7.898438 -10.890625 8.515625 -10.578125 C 9.128906 -10.265625 9.601562 -9.804688 9.9375 -9.203125 C 10.28125 -8.597656 10.453125 -7.863281 10.453125 -7 C 10.453125 -6.476562 10.382812 -5.914062 10.25 -5.3125 L 10.171875 -4.9375 L 2.09375 -4.9375 C 2.03125 -4.582031 2 -4.269531 2 -4 Z M 8.59375 -7.03125 C 8.59375 -7.84375 8.382812 -8.460938 7.96875 -8.890625 C 7.5625 -9.328125 6.976562 -9.546875 6.21875 -9.546875 C 5.664062 -9.546875 5.140625 -9.425781 4.640625 -9.1875 C 4.140625 -8.957031 3.695312 -8.609375 3.3125 -8.140625 C 2.925781 -7.671875 2.632812 -7.109375 2.4375 -6.453125 L 8.5625 -6.453125 C 8.582031 -6.648438 8.59375 -6.84375 8.59375 -7.03125 Z M 8.59375 -7.03125 "/></g></g></g><g fill="#000000" fill-opacity="1"><g transform="translate(306.758849, 36.684047)"><g><path d="M 0.046875 -4.484375 L 0.421875 -6.328125 L 6.03125 -6.328125 L 5.640625 -4.484375 Z M 0.046875 -4.484375 "/></g></g></g><g fill="#000000" fill-opacity="1"><g transform="translate(313.70579, 36.684047)"><g><path d="M 6.28125 -10.8125 L 5.984375 -9.390625 L 3.9375 -9.390625 L 2.53125 -2.84375 C 2.46875 -2.550781 2.4375 -2.3125 2.4375 -2.125 C 2.4375 -1.863281 2.5 -1.6875 2.625 -1.59375 C 2.757812 -1.5 2.972656 -1.453125 3.265625 -1.453125 C 3.492188 -1.453125 3.84375 -1.5 4.3125 -1.59375 L 4.234375 -0.0625 C 3.691406 0.0625 3.226562 0.125 2.84375 0.125 C 2 0.125 1.40625 -0.0234375 1.0625 -0.328125 C 0.726562 -0.640625 0.5625 -1.082031 0.5625 -1.65625 C 0.5625 -1.875 0.578125 -2.109375 0.609375 -2.359375 C 0.648438 -2.609375 0.710938 -2.925781 0.796875 -3.3125 L 2.09375 -9.390625 L 0.546875 -9.390625 L 0.859375 -10.8125 L 2.390625 -10.8125 L 2.921875 -13.296875 L 5.046875 -14.609375 L 4.234375 -10.8125 Z M 6.28125 -10.8125 "/></g></g></g><g fill="#000000" fill-opacity="1"><g transform="translate(319.776724, 36.684047)"><g><path d="M 6.0625 -9.171875 C 5.257812 -9.171875 4.585938 -8.867188 4.046875 -8.265625 C 3.503906 -7.671875 3.113281 -6.835938 2.875 -5.765625 L 1.65625 0 L -0.171875 0 L 2.125 -10.8125 L 3.84375 -10.8125 L 3.5 -9.171875 C 3.863281 -9.671875 4.203125 -10.050781 4.515625 -10.3125 C 4.835938 -10.582031 5.148438 -10.769531 5.453125 -10.875 C 5.765625 -10.988281 6.117188 -11.046875 6.515625 -11.046875 C 6.828125 -11.046875 7.113281 -11.003906 7.375 -10.921875 C 7.632812 -10.847656 7.898438 -10.722656 8.171875 -10.546875 L 7.28125 -8.859375 C 6.925781 -9.066406 6.519531 -9.171875 6.0625 -9.171875 Z M 6.0625 -9.171875 "/></g></g></g><g fill="#000000" fill-opacity="1"><g transform="translate(327.304281, 36.684047)"><g><path d="M 8.34375 -1.203125 C 8.34375 -0.835938 8.40625 -0.4375 8.53125 0 L 6.609375 0 C 6.566406 -0.15625 6.535156 -0.304688 6.515625 -0.453125 C 6.492188 -0.609375 6.492188 -0.898438 6.515625 -1.328125 C 5.890625 -0.796875 5.269531 -0.398438 4.65625 -0.140625 C 4.039062 0.117188 3.410156 0.25 2.765625 0.25 C 1.765625 0.25 1 0.015625 0.46875 -0.453125 C -0.0625 -0.921875 -0.328125 -1.570312 -0.328125 -2.40625 C -0.328125 -3.425781 0.0351562 -4.253906 0.765625 -4.890625 C 1.492188 -5.523438 2.691406 -5.96875 4.359375 -6.21875 C 5.859375 -6.4375 6.925781 -6.644531 7.5625 -6.84375 C 7.6875 -7.382812 7.75 -7.800781 7.75 -8.09375 C 7.75 -8.613281 7.585938 -8.984375 7.265625 -9.203125 C 6.953125 -9.429688 6.453125 -9.546875 5.765625 -9.546875 C 4.992188 -9.546875 4.367188 -9.382812 3.890625 -9.0625 C 3.421875 -8.738281 3.039062 -8.210938 2.75 -7.484375 L 1.015625 -7.765625 C 1.441406 -8.898438 2.039062 -9.726562 2.8125 -10.25 C 3.59375 -10.78125 4.601562 -11.046875 5.84375 -11.046875 C 7.125 -11.046875 8.0625 -10.8125 8.65625 -10.34375 C 9.257812 -9.882812 9.5625 -9.179688 9.5625 -8.234375 C 9.5625 -7.847656 9.507812 -7.390625 9.40625 -6.859375 L 8.671875 -3.421875 C 8.453125 -2.429688 8.34375 -1.691406 8.34375 -1.203125 Z M 4.109375 -4.6875 C 3.222656 -4.53125 2.578125 -4.269531 2.171875 -3.90625 C 1.773438 -3.550781 1.578125 -3.085938 1.578125 -2.515625 C 1.578125 -2.097656 1.71875 -1.769531 2 -1.53125 C 2.28125 -1.300781 2.691406 -1.1875 3.234375 -1.1875 C 3.765625 -1.1875 4.351562 -1.359375 5 -1.703125 C 5.445312 -1.941406 5.804688 -2.195312 6.078125 -2.46875 C 6.359375 -2.738281 6.582031 -3.066406 6.75 -3.453125 C 6.914062 -3.835938 7.070312 -4.359375 7.21875 -5.015625 L 7.296875 -5.390625 C 7.117188 -5.328125 6.722656 -5.222656 6.109375 -5.078125 C 5.492188 -4.941406 4.828125 -4.8125 4.109375 -4.6875 Z M 4.109375 -4.6875 "/></g></g></g><g fill="#000000" fill-opacity="1"><g transform="translate(338.213649, 36.684047)"><g><path d="M 8.3125 -7.0625 C 8.375 -7.34375 8.40625 -7.617188 8.40625 -7.890625 C 8.40625 -8.941406 7.867188 -9.46875 6.796875 -9.46875 C 5.773438 -9.46875 4.941406 -9.195312 4.296875 -8.65625 C 3.648438 -8.113281 3.195312 -7.234375 2.9375 -6.015625 L 1.65625 0 L -0.171875 0 L 2.125 -10.8125 L 3.84375 -10.8125 L 3.515625 -9.296875 C 3.984375 -9.835938 4.539062 -10.265625 5.1875 -10.578125 C 5.832031 -10.890625 6.503906 -11.046875 7.203125 -11.046875 C 8.210938 -11.046875 8.972656 -10.789062 9.484375 -10.28125 C 9.992188 -9.769531 10.25 -9.066406 10.25 -8.171875 C 10.25 -7.785156 10.203125 -7.390625 10.109375 -6.984375 L 8.640625 0 L 6.796875 0 Z M 8.3125 -7.0625 "/></g></g></g><g fill="#000000" fill-opacity="1"><g transform="translate(349.815674, 36.684047)"><g><path d="M 5.09375 -9.546875 C 4.363281 -9.546875 3.796875 -9.390625 3.390625 -9.078125 C 2.984375 -8.773438 2.78125 -8.375 2.78125 -7.875 C 2.78125 -7.5 2.945312 -7.195312 3.28125 -6.96875 C 3.613281 -6.738281 4.15625 -6.554688 4.90625 -6.421875 C 5.695312 -6.285156 6.34375 -6.101562 6.84375 -5.875 C 7.34375 -5.65625 7.722656 -5.335938 7.984375 -4.921875 C 8.253906 -4.515625 8.390625 -3.972656 8.390625 -3.296875 C 8.390625 -2.703125 8.207031 -2.132812 7.84375 -1.59375 C 7.476562 -1.050781 6.941406 -0.609375 6.234375 -0.265625 C 5.523438 0.078125 4.691406 0.25 3.734375 0.25 C 2.347656 0.25 1.335938 -0.0390625 0.703125 -0.625 C 0.0664062 -1.207031 -0.257812 -2.066406 -0.28125 -3.203125 L 1.59375 -3.5 C 1.613281 -2.75 1.796875 -2.1875 2.140625 -1.8125 C 2.484375 -1.4375 3.046875 -1.25 3.828125 -1.25 C 4.347656 -1.25 4.804688 -1.332031 5.203125 -1.5 C 5.597656 -1.675781 5.898438 -1.910156 6.109375 -2.203125 C 6.316406 -2.503906 6.421875 -2.835938 6.421875 -3.203125 C 6.421875 -3.628906 6.25 -3.96875 5.90625 -4.21875 C 5.570312 -4.476562 5 -4.671875 4.1875 -4.796875 C 3.101562 -4.960938 2.285156 -5.257812 1.734375 -5.6875 C 1.191406 -6.125 0.921875 -6.78125 0.921875 -7.65625 C 0.921875 -8.289062 1.097656 -8.867188 1.453125 -9.390625 C 1.804688 -9.910156 2.304688 -10.316406 2.953125 -10.609375 C 3.597656 -10.898438 4.332031 -11.046875 5.15625 -11.046875 C 7.613281 -11.046875 8.882812 -10.050781 8.96875 -8.0625 L 7.125 -7.78125 C 7.082031 -8.40625 6.90625 -8.851562 6.59375 -9.125 C 6.28125 -9.40625 5.78125 -9.546875 5.09375 -9.546875 Z M 5.09375 -9.546875 "/></g></g></g><g fill="#000000" fill-opacity="1"><g transform="translate(359.747143, 36.684047)"><g><path d="M 2.5625 -12.859375 L 3 -14.9375 L 4.84375 -14.9375 L 4.390625 -12.859375 Z M -0.171875 0 L 2.125 -10.8125 L 3.96875 -10.8125 L 1.65625 0 Z M -0.171875 0 "/></g></g></g><g fill="#000000" fill-opacity="1"><g transform="translate(364.412406, 36.684047)"><g><path d="M 6.28125 -10.8125 L 5.984375 -9.390625 L 3.9375 -9.390625 L 2.53125 -2.84375 C 2.46875 -2.550781 2.4375 -2.3125 2.4375 -2.125 C 2.4375 -1.863281 2.5 -1.6875 2.625 -1.59375 C 2.757812 -1.5 2.972656 -1.453125 3.265625 -1.453125 C 3.492188 -1.453125 3.84375 -1.5 4.3125 -1.59375 L 4.234375 -0.0625 C 3.691406 0.0625 3.226562 0.125 2.84375 0.125 C 2 0.125 1.40625 -0.0234375 1.0625 -0.328125 C 0.726562 -0.640625 0.5625 -1.082031 0.5625 -1.65625 C 0.5625 -1.875 0.578125 -2.109375 0.609375 -2.359375 C 0.648438 -2.609375 0.710938 -2.925781 0.796875 -3.3125 L 2.09375 -9.390625 L 0.546875 -9.390625 L 0.859375 -10.8125 L 2.390625 -10.8125 L 2.921875 -13.296875 L 5.046875 -14.609375 L 4.234375 -10.8125 Z M 6.28125 -10.8125 "/></g></g></g><g fill="#000000" fill-opacity="1"><g transform="translate(370.483339, 36.684047)"><g><path d="M 2.5625 -12.859375 L 3 -14.9375 L 4.84375 -14.9375 L 4.390625 -12.859375 Z M -0.171875 0 L 2.125 -10.8125 L 3.96875 -10.8125 L 1.65625 0 Z M -0.171875 0 "/></g></g></g><g fill="#000000" fill-opacity="1"><g transform="translate(375.148572, 36.684047)"><g><path d="M 0.109375 -4.296875 C 0.109375 -5.628906 0.363281 -6.804688 0.875 -7.828125 C 1.394531 -8.859375 2.113281 -9.648438 3.03125 -10.203125 C 3.945312 -10.765625 4.976562 -11.046875 6.125 -11.046875 C 7.019531 -11.046875 7.804688 -10.863281 8.484375 -10.5 C 9.160156 -10.144531 9.6875 -9.617188 10.0625 -8.921875 C 10.4375 -8.234375 10.625 -7.421875 10.625 -6.484375 C 10.625 -5.140625 10.359375 -3.957031 9.828125 -2.9375 C 9.304688 -1.925781 8.582031 -1.140625 7.65625 -0.578125 C 6.738281 -0.0234375 5.710938 0.25 4.578125 0.25 C 3.703125 0.25 2.925781 0.078125 2.25 -0.265625 C 1.570312 -0.617188 1.046875 -1.140625 0.671875 -1.828125 C 0.296875 -2.515625 0.109375 -3.335938 0.109375 -4.296875 Z M 6.015625 -9.546875 C 5.285156 -9.546875 4.613281 -9.332031 4 -8.90625 C 3.394531 -8.476562 2.910156 -7.863281 2.546875 -7.0625 C 2.179688 -6.257812 2 -5.320312 2 -4.25 C 2 -3.613281 2.109375 -3.070312 2.328125 -2.625 C 2.554688 -2.175781 2.867188 -1.832031 3.265625 -1.59375 C 3.660156 -1.363281 4.125 -1.25 4.65625 -1.25 C 5.425781 -1.25 6.117188 -1.472656 6.734375 -1.921875 C 7.359375 -2.367188 7.84375 -2.992188 8.1875 -3.796875 C 8.539062 -4.597656 8.71875 -5.515625 8.71875 -6.546875 C 8.71875 -7.503906 8.472656 -8.242188 7.984375 -8.765625 C 7.492188 -9.285156 6.835938 -9.546875 6.015625 -9.546875 Z M 6.015625 -9.546875 "/></g></g></g><g fill="#000000" fill-opacity="1"><g transform="translate(386.750596, 36.684047)"><g><path d="M 8.3125 -7.0625 C 8.375 -7.34375 8.40625 -7.617188 8.40625 -7.890625 C 8.40625 -8.941406 7.867188 -9.46875 6.796875 -9.46875 C 5.773438 -9.46875 4.941406 -9.195312 4.296875 -8.65625 C 3.648438 -8.113281 3.195312 -7.234375 2.9375 -6.015625 L 1.65625 0 L -0.171875 0 L 2.125 -10.8125 L 3.84375 -10.8125 L 3.515625 -9.296875 C 3.984375 -9.835938 4.539062 -10.265625 5.1875 -10.578125 C 5.832031 -10.890625 6.503906 -11.046875 7.203125 -11.046875 C 8.210938 -11.046875 8.972656 -10.789062 9.484375 -10.28125 C 9.992188 -9.769531 10.25 -9.066406 10.25 -8.171875 C 10.25 -7.785156 10.203125 -7.390625 10.109375 -6.984375 L 8.640625 0 L 6.796875 0 Z M 8.3125 -7.0625 "/></g></g></g><g fill="#000000" fill-opacity="1"><g transform="translate(398.352621, 36.684047)"><g><path d="M 5.09375 -9.546875 C 4.363281 -9.546875 3.796875 -9.390625 3.390625 -9.078125 C 2.984375 -8.773438 2.78125 -8.375 2.78125 -7.875 C 2.78125 -7.5 2.945312 -7.195312 3.28125 -6.96875 C 3.613281 -6.738281 4.15625 -6.554688 4.90625 -6.421875 C 5.695312 -6.285156 6.34375 -6.101562 6.84375 -5.875 C 7.34375 -5.65625 7.722656 -5.335938 7.984375 -4.921875 C 8.253906 -4.515625 8.390625 -3.972656 8.390625 -3.296875 C 8.390625 -2.703125 8.207031 -2.132812 7.84375 -1.59375 C 7.476562 -1.050781 6.941406 -0.609375 6.234375 -0.265625 C 5.523438 0.078125 4.691406 0.25 3.734375 0.25 C 2.347656 0.25 1.335938 -0.0390625 0.703125 -0.625 C 0.0664062 -1.207031 -0.257812 -2.066406 -0.28125 -3.203125 L 1.59375 -3.5 C 1.613281 -2.75 1.796875 -2.1875 2.140625 -1.8125 C 2.484375 -1.4375 3.046875 -1.25 3.828125 -1.25 C 4.347656 -1.25 4.804688 -1.332031 5.203125 -1.5 C 5.597656 -1.675781 5.898438 -1.910156 6.109375 -2.203125 C 6.316406 -2.503906 6.421875 -2.835938 6.421875 -3.203125 C 6.421875 -3.628906 6.25 -3.96875 5.90625 -4.21875 C 5.570312 -4.476562 5 -4.671875 4.1875 -4.796875 C 3.101562 -4.960938 2.285156 -5.257812 1.734375 -5.6875 C 1.191406 -6.125 0.921875 -6.78125 0.921875 -7.65625 C 0.921875 -8.289062 1.097656 -8.867188 1.453125 -9.390625 C 1.804688 -9.910156 2.304688 -10.316406 2.953125 -10.609375 C 3.597656 -10.898438 4.332031 -11.046875 5.15625 -11.046875 C 7.613281 -11.046875 8.882812 -10.050781 8.96875 -8.0625 L 7.125 -7.78125 C 7.082031 -8.40625 6.90625 -8.851562 6.59375 -9.125 C 6.28125 -9.40625 5.78125 -9.546875 5.09375 -9.546875 Z M 5.09375 -9.546875 "/></g></g></g><g fill="#000000" fill-opacity="1"><g transform="translate(408.28409, 36.684047)"><g><path d="M -0.25 3.046875 L -0.671875 2.265625 C -0.210938 2.054688 0.144531 1.769531 0.40625 1.40625 C 0.675781 1.039062 0.875 0.570312 1 0 L -0.125 0 L 0.359375 -2.296875 L 2.65625 -2.296875 L 2.15625 0.0625 C 2 0.789062 1.710938 1.40625 1.296875 1.90625 C 0.878906 2.414062 0.363281 2.796875 -0.25 3.046875 Z M -0.25 3.046875 "/></g></g></g><g fill="#000000" fill-opacity="1"><g transform="translate(413.499389, 36.684047)"><g/></g></g><g fill="#000000" fill-opacity="1"><g transform="translate(419.234203, 36.684047)"><g><path d="M 2.03125 -1.375 L 1.96875 -1.375 L 0.78125 4.140625 L -1.046875 4.140625 L 2.125 -10.8125 L 3.84375 -10.8125 L 3.578125 -9.5625 L 3.609375 -9.5625 C 4.078125 -10.0625 4.585938 -10.429688 5.140625 -10.671875 C 5.703125 -10.921875 6.28125 -11.046875 6.875 -11.046875 C 7.6875 -11.046875 8.398438 -10.882812 9.015625 -10.5625 C 9.628906 -10.238281 10.101562 -9.738281 10.4375 -9.0625 C 10.78125 -8.394531 10.953125 -7.5625 10.953125 -6.5625 C 10.953125 -5.375 10.71875 -4.257812 10.25 -3.21875 C 9.78125 -2.175781 9.097656 -1.335938 8.203125 -0.703125 C 7.304688 -0.0664062 6.25 0.25 5.03125 0.25 C 4.300781 0.25 3.695312 0.109375 3.21875 -0.171875 C 2.738281 -0.453125 2.34375 -0.851562 2.03125 -1.375 Z M 6.578125 -9.546875 C 5.785156 -9.546875 5.082031 -9.304688 4.46875 -8.828125 C 3.863281 -8.359375 3.394531 -7.722656 3.0625 -6.921875 C 2.726562 -6.117188 2.5625 -5.257812 2.5625 -4.34375 C 2.5625 -3.363281 2.769531 -2.601562 3.1875 -2.0625 C 3.613281 -1.519531 4.210938 -1.25 4.984375 -1.25 C 5.742188 -1.25 6.429688 -1.472656 7.046875 -1.921875 C 7.660156 -2.367188 8.144531 -2.992188 8.5 -3.796875 C 8.863281 -4.609375 9.046875 -5.53125 9.046875 -6.5625 C 9.046875 -7.550781 8.832031 -8.296875 8.40625 -8.796875 C 7.988281 -9.296875 7.378906 -9.546875 6.578125 -9.546875 Z M 6.578125 -9.546875 "/></g></g></g><g fill="#000000" fill-opacity="1"><g transform="translate(431.162184, 36.684047)"><g><path d="M 6.0625 -9.171875 C 5.257812 -9.171875 4.585938 -8.867188 4.046875 -8.265625 C 3.503906 -7.671875 3.113281 -6.835938 2.875 -5.765625 L 1.65625 0 L -0.171875 0 L 2.125 -10.8125 L 3.84375 -10.8125 L 3.5 -9.171875 C 3.863281 -9.671875 4.203125 -10.050781 4.515625 -10.3125 C 4.835938 -10.582031 5.148438 -10.769531 5.453125 -10.875 C 5.765625 -10.988281 6.117188 -11.046875 6.515625 -11.046875 C 6.828125 -11.046875 7.113281 -11.003906 7.375 -10.921875 C 7.632812 -10.847656 7.898438 -10.722656 8.171875 -10.546875 L 7.28125 -8.859375 C 6.925781 -9.066406 6.519531 -9.171875 6.0625 -9.171875 Z M 6.0625 -9.171875 "/></g></g></g><g fill="#000000" fill-opacity="1"><g transform="translate(438.689757, 36.684047)"><g><path d="M 0.109375 -4.296875 C 0.109375 -5.628906 0.363281 -6.804688 0.875 -7.828125 C 1.394531 -8.859375 2.113281 -9.648438 3.03125 -10.203125 C 3.945312 -10.765625 4.976562 -11.046875 6.125 -11.046875 C 7.019531 -11.046875 7.804688 -10.863281 8.484375 -10.5 C 9.160156 -10.144531 9.6875 -9.617188 10.0625 -8.921875 C 10.4375 -8.234375 10.625 -7.421875 10.625 -6.484375 C 10.625 -5.140625 10.359375 -3.957031 9.828125 -2.9375 C 9.304688 -1.925781 8.582031 -1.140625 7.65625 -0.578125 C 6.738281 -0.0234375 5.710938 0.25 4.578125 0.25 C 3.703125 0.25 2.925781 0.078125 2.25 -0.265625 C 1.570312 -0.617188 1.046875 -1.140625 0.671875 -1.828125 C 0.296875 -2.515625 0.109375 -3.335938 0.109375 -4.296875 Z M 6.015625 -9.546875 C 5.285156 -9.546875 4.613281 -9.332031 4 -8.90625 C 3.394531 -8.476562 2.910156 -7.863281 2.546875 -7.0625 C 2.179688 -6.257812 2 -5.320312 2 -4.25 C 2 -3.613281 2.109375 -3.070312 2.328125 -2.625 C 2.554688 -2.175781 2.867188 -1.832031 3.265625 -1.59375 C 3.660156 -1.363281 4.125 -1.25 4.65625 -1.25 C 5.425781 -1.25 6.117188 -1.472656 6.734375 -1.921875 C 7.359375 -2.367188 7.84375 -2.992188 8.1875 -3.796875 C 8.539062 -4.597656 8.71875 -5.515625 8.71875 -6.546875 C 8.71875 -7.503906 8.472656 -8.242188 7.984375 -8.765625 C 7.492188 -9.285156 6.835938 -9.546875 6.015625 -9.546875 Z M 6.015625 -9.546875 "/></g></g></g><g fill="#000000" fill-opacity="1"><g transform="translate(450.291782, 36.684047)"><g><path d="M 7.21875 0 L 7.46875 -1.234375 L 7.4375 -1.234375 C 7.019531 -0.753906 6.5 -0.382812 5.875 -0.125 C 5.257812 0.125 4.644531 0.25 4.03125 0.25 C 2.757812 0.25 1.785156 -0.140625 1.109375 -0.921875 C 0.441406 -1.703125 0.109375 -2.800781 0.109375 -4.21875 C 0.109375 -5.476562 0.363281 -6.628906 0.875 -7.671875 C 1.394531 -8.710938 2.101562 -9.535156 3 -10.140625 C 3.894531 -10.742188 4.890625 -11.046875 5.984375 -11.046875 C 6.703125 -11.046875 7.3125 -10.90625 7.8125 -10.625 C 8.3125 -10.34375 8.722656 -9.9375 9.046875 -9.40625 L 9.078125 -9.40625 L 10.265625 -14.9375 L 12.09375 -14.9375 L 8.921875 0 Z M 6.015625 -9.546875 C 5.222656 -9.546875 4.519531 -9.304688 3.90625 -8.828125 C 3.300781 -8.359375 2.832031 -7.710938 2.5 -6.890625 C 2.164062 -6.078125 2 -5.1875 2 -4.21875 C 2 -3.238281 2.203125 -2.5 2.609375 -2 C 3.015625 -1.5 3.597656 -1.25 4.359375 -1.25 C 5.171875 -1.25 5.890625 -1.476562 6.515625 -1.9375 C 7.148438 -2.394531 7.640625 -3.015625 7.984375 -3.796875 C 8.328125 -4.585938 8.5 -5.472656 8.5 -6.453125 C 8.5 -7.421875 8.28125 -8.175781 7.84375 -8.71875 C 7.40625 -9.269531 6.796875 -9.546875 6.015625 -9.546875 Z M 6.015625 -9.546875 "/></g></g></g><g fill="#000000" fill-opacity="1"><g transform="translate(462.219763, 36.684047)"><g><path d="M 2.40625 -3.734375 C 2.34375 -3.460938 2.3125 -3.1875 2.3125 -2.90625 C 2.3125 -1.851562 2.84375 -1.328125 3.90625 -1.328125 C 4.925781 -1.328125 5.757812 -1.597656 6.40625 -2.140625 C 7.0625 -2.691406 7.515625 -3.570312 7.765625 -4.78125 L 9.046875 -10.8125 L 10.890625 -10.8125 L 8.59375 0 L 6.875 0 L 7.203125 -1.5 C 6.734375 -0.957031 6.175781 -0.53125 5.53125 -0.21875 C 4.882812 0.09375 4.210938 0.25 3.515625 0.25 C 2.503906 0.25 1.742188 -0.00390625 1.234375 -0.515625 C 0.722656 -1.023438 0.46875 -1.726562 0.46875 -2.625 C 0.46875 -3.007812 0.507812 -3.410156 0.59375 -3.828125 L 2.078125 -10.8125 L 3.90625 -10.8125 Z M 2.40625 -3.734375 "/></g></g></g><g fill="#000000" fill-opacity="1"><g transform="translate(473.821787, 36.684047)"><g><path d="M 6.140625 -9.546875 C 5.328125 -9.546875 4.609375 -9.335938 3.984375 -8.921875 C 3.367188 -8.503906 2.890625 -7.898438 2.546875 -7.109375 C 2.203125 -6.316406 2.03125 -5.390625 2.03125 -4.328125 C 2.03125 -3.398438 2.242188 -2.65625 2.671875 -2.09375 C 3.109375 -1.53125 3.722656 -1.25 4.515625 -1.25 C 5.296875 -1.25 5.984375 -1.492188 6.578125 -1.984375 C 7.179688 -2.472656 7.632812 -3.140625 7.9375 -3.984375 L 9.703125 -3.6875 C 9.265625 -2.445312 8.601562 -1.476562 7.71875 -0.78125 C 6.832031 -0.09375 5.71875 0.25 4.375 0.25 C 3 0.25 1.941406 -0.144531 1.203125 -0.9375 C 0.472656 -1.726562 0.109375 -2.84375 0.109375 -4.28125 C 0.109375 -5.601562 0.367188 -6.773438 0.890625 -7.796875 C 1.421875 -8.828125 2.148438 -9.625 3.078125 -10.1875 C 4.003906 -10.757812 5.039062 -11.046875 6.1875 -11.046875 C 7.445312 -11.046875 8.421875 -10.734375 9.109375 -10.109375 C 9.804688 -9.492188 10.210938 -8.671875 10.328125 -7.640625 L 8.53125 -7.375 C 8.414062 -8.101562 8.171875 -8.644531 7.796875 -9 C 7.421875 -9.363281 6.867188 -9.546875 6.140625 -9.546875 Z M 6.140625 -9.546875 "/></g></g></g><g fill="#000000" fill-opacity="1"><g transform="translate(484.751512, 36.684047)"><g><path d="M 6.28125 -10.8125 L 5.984375 -9.390625 L 3.9375 -9.390625 L 2.53125 -2.84375 C 2.46875 -2.550781 2.4375 -2.3125 2.4375 -2.125 C 2.4375 -1.863281 2.5 -1.6875 2.625 -1.59375 C 2.757812 -1.5 2.972656 -1.453125 3.265625 -1.453125 C 3.492188 -1.453125 3.84375 -1.5 4.3125 -1.59375 L 4.234375 -0.0625 C 3.691406 0.0625 3.226562 0.125 2.84375 0.125 C 2 0.125 1.40625 -0.0234375 1.0625 -0.328125 C 0.726562 -0.640625 0.5625 -1.082031 0.5625 -1.65625 C 0.5625 -1.875 0.578125 -2.109375 0.609375 -2.359375 C 0.648438 -2.609375 0.710938 -2.925781 0.796875 -3.3125 L 2.09375 -9.390625 L 0.546875 -9.390625 L 0.859375 -10.8125 L 2.390625 -10.8125 L 2.921875 -13.296875 L 5.046875 -14.609375 L 4.234375 -10.8125 Z M 6.28125 -10.8125 "/></g></g></g><g fill="#000000" fill-opacity="1"><g transform="translate(490.822446, 36.684047)"><g><path d="M 2.5625 -12.859375 L 3 -14.9375 L 4.84375 -14.9375 L 4.390625 -12.859375 Z M -0.171875 0 L 2.125 -10.8125 L 3.96875 -10.8125 L 1.65625 0 Z M -0.171875 0 "/></g></g></g><g fill="#000000" fill-opacity="1"><g transform="translate(495.487678, 36.684047)"><g><path d="M 3.90625 -2.15625 L 3.953125 -2.15625 C 4.222656 -2.726562 4.59375 -3.414062 5.0625 -4.21875 L 8.84375 -10.8125 L 10.78125 -10.8125 L 4.40625 0 L 2.6875 0 L 0.875 -10.8125 L 2.75 -10.8125 L 3.671875 -4.59375 C 3.785156 -3.78125 3.863281 -2.96875 3.90625 -2.15625 Z M 3.90625 -2.15625 "/></g></g></g><g fill="#000000" fill-opacity="1"><g transform="translate(505.73491, 36.684047)"><g><path d="M 2.5625 -12.859375 L 3 -14.9375 L 4.84375 -14.9375 L 4.390625 -12.859375 Z M -0.171875 0 L 2.125 -10.8125 L 3.96875 -10.8125 L 1.65625 0 Z M -0.171875 0 "/></g></g></g><g fill="#000000" fill-opacity="1"><g transform="translate(510.400173, 36.684047)"><g><path d="M 6.28125 -10.8125 L 5.984375 -9.390625 L 3.9375 -9.390625 L 2.53125 -2.84375 C 2.46875 -2.550781 2.4375 -2.3125 2.4375 -2.125 C 2.4375 -1.863281 2.5 -1.6875 2.625 -1.59375 C 2.757812 -1.5 2.972656 -1.453125 3.265625 -1.453125 C 3.492188 -1.453125 3.84375 -1.5 4.3125 -1.59375 L 4.234375 -0.0625 C 3.691406 0.0625 3.226562 0.125 2.84375 0.125 C 2 0.125 1.40625 -0.0234375 1.0625 -0.328125 C 0.726562 -0.640625 0.5625 -1.082031 0.5625 -1.65625 C 0.5625 -1.875 0.578125 -2.109375 0.609375 -2.359375 C 0.648438 -2.609375 0.710938 -2.925781 0.796875 -3.3125 L 2.09375 -9.390625 L 0.546875 -9.390625 L 0.859375 -10.8125 L 2.390625 -10.8125 L 2.921875 -13.296875 L 5.046875 -14.609375 L 4.234375 -10.8125 Z M 6.28125 -10.8125 "/></g></g></g><g fill="#000000" fill-opacity="1"><g transform="translate(516.471106, 36.684047)"><g><path d="M 4.0625 -2.046875 L 4.109375 -2.046875 C 4.367188 -2.660156 4.566406 -3.09375 4.703125 -3.34375 C 4.835938 -3.601562 5.132812 -4.128906 5.59375 -4.921875 L 9 -10.8125 L 10.96875 -10.8125 L 4.125 0.796875 C 3.570312 1.734375 3.085938 2.453125 2.671875 2.953125 C 2.265625 3.460938 1.851562 3.828125 1.4375 4.046875 C 1.03125 4.265625 0.578125 4.375 0.078125 4.375 C -0.117188 4.375 -0.363281 4.351562 -0.65625 4.3125 C -0.957031 4.269531 -1.210938 4.222656 -1.421875 4.171875 L -0.8125 2.625 C -0.550781 2.738281 -0.285156 2.796875 -0.015625 2.796875 C 0.273438 2.796875 0.546875 2.707031 0.796875 2.53125 C 1.054688 2.351562 1.335938 2.054688 1.640625 1.640625 C 1.941406 1.222656 2.328125 0.613281 2.796875 -0.1875 L 1.046875 -10.8125 L 2.90625 -10.8125 L 3.796875 -4.578125 C 3.898438 -3.890625 3.96875 -3.40625 4 -3.125 C 4.03125 -2.851562 4.050781 -2.492188 4.0625 -2.046875 Z M 4.0625 -2.046875 "/></g></g></g><g fill="#000000" fill-opacity="1"><g transform="translate(526.901703, 36.684047)"><g><path d="M 3.703125 -8 C 3.703125 -9.09375 3.582031 -10.253906 3.34375 -11.484375 C 3.113281 -12.722656 2.769531 -13.957031 2.3125 -15.1875 L 3.703125 -15.1875 C 4.035156 -14.570312 4.34375 -13.828125 4.625 -12.953125 C 4.90625 -12.085938 5.128906 -11.191406 5.296875 -10.265625 C 5.460938 -9.335938 5.546875 -8.484375 5.546875 -7.703125 C 5.546875 -5.566406 5.046875 -3.476562 4.046875 -1.4375 C 3.054688 0.601562 1.554688 2.539062 -0.453125 4.375 L -1.84375 4.375 C -0.375 2.632812 0.75 1.132812 1.53125 -0.125 C 2.3125 -1.382812 2.867188 -2.617188 3.203125 -3.828125 C 3.535156 -5.046875 3.703125 -6.4375 3.703125 -8 Z M 3.703125 -8 "/></g></g></g></svg>