<svg xmlns="http://www.w3.org/2000/svg" xmlns:xlink="http://www.w3.org/1999/xlink" width="926" zoomAndPan="magnify" viewBox="0 0 694.5 404.250001" height="539" preserveAspectRatio="xMidYMid meet" version="1.0"><defs><g/><clipPath id="a2b1ff7fba"><path d="M 175.128906 184.035156 L 693.164062 184.035156 L 693.164062 403.378906 L 175.128906 403.378906 Z M 175.128906 184.035156 " clip-rule="nonzero"/></clipPath><clipPath id="8771ebe208"><path d="M 184.859375 184.035156 L 683.648438 184.035156 C 686.230469 184.035156 688.703125 185.058594 690.527344 186.886719 C 692.355469 188.710938 693.378906 191.1875 693.378906 193.765625 L 693.378906 393.609375 C 693.378906 396.191406 692.355469 398.667969 690.527344 400.492188 C 688.703125 402.316406 686.230469 403.34375 683.648438 403.34375 L 184.859375 403.34375 C 182.28125 403.34375 179.804688 402.316406 177.980469 400.492188 C 176.15625 398.667969 175.128906 396.191406 175.128906 393.609375 L 175.128906 193.765625 C 175.128906 191.1875 176.15625 188.710938 177.980469 186.886719 C 179.804688 185.058594 182.28125 184.035156 184.859375 184.035156 Z M 184.859375 184.035156 " clip-rule="nonzero"/></clipPath><clipPath id="7c6050dd57"><path d="M 408.332031 340.054688 L 638.476562 340.054688 L 638.476562 390.929688 L 408.332031 390.929688 Z M 408.332031 340.054688 " clip-rule="nonzero"/></clipPath><clipPath id="7b93b35411"><path d="M 415.070312 340.054688 L 631.648438 340.054688 C 635.371094 340.054688 638.386719 343.070312 638.386719 346.789062 L 638.386719 384.195312 C 638.386719 387.914062 635.371094 390.929688 631.648438 390.929688 L 415.070312 390.929688 C 411.347656 390.929688 408.332031 387.914062 408.332031 384.195312 L 408.332031 346.789062 C 408.332031 343.070312 411.347656 340.054688 415.070312 340.054688 Z M 415.070312 340.054688 " clip-rule="nonzero"/></clipPath><clipPath id="f4398d85dd"><path d="M 408.347656 340.054688 L 638.15625 340.054688 L 638.15625 390.957031 L 408.347656 390.957031 Z M 408.347656 340.054688 " clip-rule="nonzero"/></clipPath><clipPath id="9574417e4d"><path d="M 415.082031 340.054688 L 631.628906 340.054688 C 635.347656 340.054688 638.363281 343.070312 638.363281 346.789062 L 638.363281 384.1875 C 638.363281 387.90625 635.347656 390.921875 631.628906 390.921875 L 415.082031 390.921875 C 411.363281 390.921875 408.347656 387.90625 408.347656 384.1875 L 408.347656 346.789062 C 408.347656 343.070312 411.363281 340.054688 415.082031 340.054688 Z M 415.082031 340.054688 " clip-rule="nonzero"/></clipPath><clipPath id="dfc38f2737"><path d="M 187.542969 247.214844 L 299.085938 247.214844 L 299.085938 325.816406 L 187.542969 325.816406 Z M 187.542969 247.214844 " clip-rule="nonzero"/></clipPath><clipPath id="f7f22d78b9"><path d="M 243.445312 247.214844 C 212.570312 247.214844 187.542969 264.800781 187.542969 286.5 C 187.542969 308.195312 212.570312 325.78125 243.445312 325.78125 C 274.316406 325.78125 299.34375 308.195312 299.34375 286.5 C 299.34375 264.800781 274.316406 247.214844 243.445312 247.214844 Z M 243.445312 247.214844 " clip-rule="nonzero"/></clipPath><clipPath id="843dd8706a"><path d="M 0.394531 274 L 196 274 L 196 311 L 0.394531 311 Z M 0.394531 274 " clip-rule="nonzero"/></clipPath><clipPath id="455492f73b"><path d="M 0.394531 293 L 8 293 L 8 303 L 0.394531 303 Z M 0.394531 293 " clip-rule="nonzero"/></clipPath><clipPath id="2f216a1c35"><path d="M 455.75 222.632812 L 566.542969 222.632812 L 566.542969 299.65625 L 455.75 299.65625 Z M 455.75 222.632812 " clip-rule="nonzero"/></clipPath><clipPath id="ce1befa19b"><path d="M 511.21875 222.632812 C 480.585938 222.632812 455.75 239.839844 455.75 261.066406 C 455.75 282.289062 480.585938 299.496094 511.21875 299.496094 C 541.855469 299.496094 566.691406 282.289062 566.691406 261.066406 C 566.691406 239.839844 541.855469 222.632812 511.21875 222.632812 Z M 511.21875 222.632812 " clip-rule="nonzero"/></clipPath><clipPath id="7504b5178b"><path d="M 582.652344 213.851562 L 665 213.851562 L 665 287.214844 L 582.652344 287.214844 Z M 582.652344 213.851562 " clip-rule="nonzero"/></clipPath><clipPath id="ce24dac139"><path d="M 623.878906 213.851562 C 601.109375 213.851562 582.652344 230.339844 582.652344 250.675781 C 582.652344 271.011719 601.109375 287.496094 623.878906 287.496094 C 646.644531 287.496094 665.101562 271.011719 665.101562 250.675781 C 665.101562 230.339844 646.644531 213.851562 623.878906 213.851562 Z M 623.878906 213.851562 " clip-rule="nonzero"/></clipPath></defs><g clip-path="url(#a2b1ff7fba)"><g clip-path="url(#8771ebe208)"><path stroke-linecap="butt" transform="matrix(0.748611, 0, 0, 0.748611, 175.129388, 184.034963)" fill="none" stroke-linejoin="miter" d="M 12.997386 0.000258381 L 679.2834 0.000258381 C 682.732496 0.000258381 686.035488 1.367374 688.472292 3.809396 C 690.914315 6.246201 692.28143 9.554411 692.28143 12.998288 L 692.28143 279.951006 C 692.28143 283.400102 690.914315 286.708312 688.472292 289.145116 C 686.035488 291.581921 682.732496 292.954254 679.2834 292.954254 L 12.997386 292.954254 C 9.553508 292.954254 6.245298 291.581921 3.808493 289.145116 C 1.371689 286.708312 -0.000644189 283.400102 -0.000644189 279.951006 L -0.000644189 12.998288 C -0.000644189 9.554411 1.371689 6.246201 3.808493 3.809396 C 6.245298 1.367374 9.553508 0.000258381 12.997386 0.000258381 Z M 12.997386 0.000258381 " stroke="#7257b0" stroke-width="8" stroke-opacity="1" stroke-miterlimit="4"/></g></g><path fill="#ffffff" d="M 485.726562 164.792969 L 655.320312 164.792969 C 657.636719 164.792969 659.859375 165.714844 661.496094 167.351562 C 663.136719 168.992188 664.054688 171.210938 664.054688 173.527344 L 664.054688 190.996094 C 664.054688 193.3125 663.136719 195.535156 661.496094 197.171875 C 659.859375 198.808594 657.636719 199.730469 655.320312 199.730469 L 485.726562 199.730469 C 480.902344 199.730469 476.992188 195.820312 476.992188 190.996094 L 476.992188 173.527344 C 476.992188 168.703125 480.902344 164.792969 485.726562 164.792969 Z M 485.726562 164.792969 " fill-opacity="1" fill-rule="nonzero"/><g fill="#7257b0" fill-opacity="1"><g transform="translate(484.977281, 190.496863)"><g><path d="M 10.65625 -4.015625 C 10.65625 -2.660156 10.207031 -1.617188 9.3125 -0.890625 C 8.425781 -0.171875 7.15625 0.1875 5.5 0.1875 C 4.039062 0.1875 2.890625 -0.117188 2.046875 -0.734375 C 1.203125 -1.359375 0.65625 -2.34375 0.40625 -3.6875 L 3.4375 -4.171875 C 3.53125 -3.546875 3.773438 -3.0625 4.171875 -2.71875 C 4.566406 -2.382812 5.078125 -2.21875 5.703125 -2.21875 C 6.910156 -2.21875 7.515625 -2.753906 7.515625 -3.828125 C 7.515625 -4.160156 7.429688 -4.4375 7.265625 -4.65625 C 7.109375 -4.875 6.894531 -5.054688 6.625 -5.203125 C 6.351562 -5.347656 6.046875 -5.46875 5.703125 -5.5625 C 5.359375 -5.664062 5.003906 -5.765625 4.640625 -5.859375 C 3.878906 -6.078125 3.332031 -6.257812 3 -6.40625 C 2.675781 -6.5625 2.378906 -6.738281 2.109375 -6.9375 C 1.847656 -7.144531 1.625 -7.390625 1.4375 -7.671875 C 1.25 -7.960938 1.101562 -8.300781 1 -8.6875 C 0.894531 -9.082031 0.84375 -9.53125 0.84375 -10.03125 C 0.84375 -11.28125 1.25 -12.242188 2.0625 -12.921875 C 2.882812 -13.597656 4.046875 -13.9375 5.546875 -13.9375 C 6.941406 -13.9375 8.003906 -13.660156 8.734375 -13.109375 C 9.472656 -12.566406 9.984375 -11.660156 10.265625 -10.390625 L 7.15625 -10.015625 C 7.082031 -10.523438 6.898438 -10.925781 6.609375 -11.21875 C 6.316406 -11.507812 5.953125 -11.65625 5.515625 -11.65625 C 5.054688 -11.65625 4.6875 -11.519531 4.40625 -11.25 C 4.125 -10.976562 3.984375 -10.632812 3.984375 -10.21875 C 3.984375 -9.820312 4.109375 -9.5 4.359375 -9.25 C 4.617188 -9 5.015625 -8.789062 5.546875 -8.625 L 7.515625 -8.046875 C 8.640625 -7.710938 9.441406 -7.222656 9.921875 -6.578125 C 10.410156 -5.941406 10.65625 -5.085938 10.65625 -4.015625 Z M 10.65625 -4.015625 "/></g></g></g><g fill="#7257b0" fill-opacity="1"><g transform="translate(496.163085, 190.496863)"><g><path d="M 13 -5.328125 C 13 -3.503906 12.507812 -2.128906 11.53125 -1.203125 C 10.550781 -0.273438 9.09375 0.1875 7.15625 0.1875 C 5.257812 0.1875 3.828125 -0.265625 2.859375 -1.171875 C 1.898438 -2.078125 1.421875 -3.425781 1.421875 -5.21875 L 1.421875 -13.734375 L 4.671875 -13.734375 L 4.671875 -5.421875 C 4.671875 -4.335938 4.890625 -3.550781 5.328125 -3.0625 C 5.773438 -2.582031 6.421875 -2.34375 7.265625 -2.34375 C 8.117188 -2.34375 8.75 -2.597656 9.15625 -3.109375 C 9.5625 -3.617188 9.765625 -4.429688 9.765625 -5.546875 L 9.765625 -13.734375 L 13 -13.734375 Z M 13 -5.328125 "/></g></g></g><g fill="#7257b0" fill-opacity="1"><g transform="translate(510.593553, 190.496863)"><g><path d="M 8.953125 -9.5625 C 8.953125 -10.164062 8.753906 -10.628906 8.359375 -10.953125 C 7.972656 -11.285156 7.40625 -11.453125 6.65625 -11.453125 L 4.796875 -11.453125 L 4.796875 -7.5625 L 6.734375 -7.5625 C 7.429688 -7.5625 7.972656 -7.738281 8.359375 -8.09375 C 8.753906 -8.445312 8.953125 -8.9375 8.953125 -9.5625 Z M 12.21875 -9.578125 C 12.21875 -8.609375 11.960938 -7.789062 11.453125 -7.125 C 10.953125 -6.46875 10.234375 -5.988281 9.296875 -5.6875 L 12.953125 0 L 9.296875 0 L 6.28125 -5.3125 L 4.796875 -5.3125 L 4.796875 0 L 1.546875 0 L 1.546875 -13.734375 L 7 -13.734375 C 8.6875 -13.734375 9.976562 -13.375 10.875 -12.65625 C 11.769531 -11.9375 12.21875 -10.910156 12.21875 -9.578125 Z M 12.21875 -9.578125 "/></g></g></g><g fill="#7257b0" fill-opacity="1"><g transform="translate(523.620923, 190.496863)"><g><path d="M 8.296875 0 L 5.03125 0 L 0 -13.734375 L 3.34375 -13.734375 L 6.015625 -5.1875 C 6.191406 -4.601562 6.332031 -4.085938 6.4375 -3.640625 C 6.539062 -3.203125 6.628906 -2.847656 6.703125 -2.578125 C 6.828125 -3.242188 7.039062 -4.078125 7.34375 -5.078125 L 9.984375 -13.734375 L 13.328125 -13.734375 Z M 8.296875 0 "/></g></g></g><g fill="#7257b0" fill-opacity="1"><g transform="translate(536.930862, 190.496863)"><g><path d="M 1.546875 0 L 1.546875 -13.734375 L 4.8125 -13.734375 L 4.8125 0 Z M 1.546875 0 "/></g></g></g><g fill="#7257b0" fill-opacity="1"><g transform="translate(543.254544, 190.496863)"><g><path d="M 8.296875 0 L 5.03125 0 L 0 -13.734375 L 3.34375 -13.734375 L 6.015625 -5.1875 C 6.191406 -4.601562 6.332031 -4.085938 6.4375 -3.640625 C 6.539062 -3.203125 6.628906 -2.847656 6.703125 -2.578125 C 6.828125 -3.242188 7.039062 -4.078125 7.34375 -5.078125 L 9.984375 -13.734375 L 13.328125 -13.734375 Z M 8.296875 0 "/></g></g></g><g fill="#7257b0" fill-opacity="1"><g transform="translate(556.564482, 190.496863)"><g><path d="M 10.609375 0 L 9.484375 -3.3125 L 4.484375 -3.3125 L 3.375 0 L 0.15625 0 L 5.078125 -13.734375 L 8.890625 -13.734375 L 13.828125 0 Z M 6.96875 -11.390625 C 6.820312 -10.742188 6.644531 -10.097656 6.4375 -9.453125 L 5.1875 -5.703125 L 8.8125 -5.703125 L 7.5625 -9.453125 C 7.351562 -10.097656 7.171875 -10.742188 7.015625 -11.390625 Z M 6.96875 -11.390625 "/></g></g></g><g fill="#7257b0" fill-opacity="1"><g transform="translate(570.595457, 190.496863)"><g><path d="M 1.546875 0 L 1.546875 -13.734375 L 4.8125 -13.734375 L 4.8125 -2.53125 L 9.859375 -2.53125 L 9.859375 0 Z M 1.546875 0 "/></g></g></g><g fill="#7257b0" fill-opacity="1"><g transform="translate(580.797145, 190.496863)"><g/></g></g><g fill="#7257b0" fill-opacity="1"><g transform="translate(586.302354, 190.496863)"><g><path d="M 14.671875 0 L 14.671875 -7.953125 C 14.671875 -8.441406 14.675781 -8.929688 14.6875 -9.421875 C 14.707031 -9.910156 14.722656 -10.398438 14.734375 -10.890625 C 14.597656 -10.503906 14.460938 -10.109375 14.328125 -9.703125 C 14.203125 -9.304688 14.0625 -8.910156 13.90625 -8.515625 L 10.71875 0 L 8.453125 0 L 5.171875 -8.515625 C 4.859375 -9.328125 4.59375 -10.117188 4.375 -10.890625 C 4.382812 -10.398438 4.394531 -9.910156 4.40625 -9.421875 C 4.425781 -8.941406 4.4375 -8.460938 4.4375 -7.984375 L 4.4375 0 L 1.546875 0 L 1.546875 -13.734375 L 5.90625 -13.734375 L 8.203125 -7.78125 C 8.484375 -7.050781 8.769531 -6.257812 9.0625 -5.40625 C 9.363281 -4.5625 9.535156 -4.015625 9.578125 -3.765625 C 10.078125 -5.210938 10.570312 -6.582031 11.0625 -7.875 L 13.234375 -13.734375 L 17.5625 -13.734375 L 17.5625 0 Z M 14.671875 0 "/></g></g></g><g fill="#7257b0" fill-opacity="1"><g transform="translate(605.40007, 190.496863)"><g><path d="M 14.21875 -6.921875 C 14.21875 -4.679688 13.632812 -2.9375 12.46875 -1.6875 C 11.3125 -0.4375 9.671875 0.1875 7.546875 0.1875 C 5.410156 0.1875 3.769531 -0.421875 2.625 -1.640625 C 1.488281 -2.867188 0.921875 -4.628906 0.921875 -6.921875 C 0.921875 -9.179688 1.488281 -10.914062 2.625 -12.125 C 3.769531 -13.332031 5.414062 -13.9375 7.5625 -13.9375 C 9.707031 -13.9375 11.351562 -13.332031 12.5 -12.125 C 13.644531 -10.914062 14.21875 -9.179688 14.21875 -6.921875 Z M 10.921875 -6.921875 C 10.921875 -9.898438 9.800781 -11.390625 7.5625 -11.390625 C 6.445312 -11.390625 5.609375 -11.023438 5.046875 -10.296875 C 4.484375 -9.578125 4.203125 -8.453125 4.203125 -6.921875 C 4.203125 -3.867188 5.316406 -2.34375 7.546875 -2.34375 C 8.691406 -2.34375 9.539062 -2.707031 10.09375 -3.4375 C 10.644531 -4.175781 10.921875 -5.335938 10.921875 -6.921875 Z M 10.921875 -6.921875 "/></g></g></g><g fill="#7257b0" fill-opacity="1"><g transform="translate(620.532086, 190.496863)"><g><path d="M 10.5 -6.953125 C 10.5 -8.328125 10.148438 -9.375 9.453125 -10.09375 C 8.765625 -10.820312 7.765625 -11.1875 6.453125 -11.1875 L 4.796875 -11.1875 L 4.796875 -2.53125 L 6.828125 -2.53125 C 7.960938 -2.53125 8.859375 -2.921875 9.515625 -3.703125 C 10.171875 -4.484375 10.5 -5.566406 10.5 -6.953125 Z M 13.78125 -6.953125 C 13.78125 -5.535156 13.503906 -4.300781 12.953125 -3.25 C 12.398438 -2.195312 11.617188 -1.390625 10.609375 -0.828125 C 9.597656 -0.273438 8.425781 0 7.09375 0 L 1.546875 0 L 1.546875 -13.734375 L 6.515625 -13.734375 C 8.828125 -13.734375 10.613281 -13.144531 11.875 -11.96875 C 13.144531 -10.789062 13.78125 -9.117188 13.78125 -6.953125 Z M 13.78125 -6.953125 "/></g></g></g><g fill="#7257b0" fill-opacity="1"><g transform="translate(635.245122, 190.496863)"><g><path d="M 1.546875 0 L 1.546875 -13.734375 L 9.6875 -13.734375 L 9.6875 -11.171875 L 4.8125 -11.171875 L 4.8125 -8.1875 L 9.078125 -8.1875 L 9.078125 -5.703125 L 4.8125 -5.703125 L 4.8125 -2.53125 L 10.078125 -2.53125 L 10.078125 0 Z M 1.546875 0 "/></g></g></g><g fill="#7257b0" fill-opacity="1"><g transform="translate(645.865791, 190.496863)"><g><path d="M 1.546875 0 L 1.546875 -13.734375 L 4.8125 -13.734375 L 4.8125 -2.53125 L 9.859375 -2.53125 L 9.859375 0 Z M 1.546875 0 "/></g></g></g><g clip-path="url(#7c6050dd57)"><g clip-path="url(#7b93b35411)"><path fill="#7257b0" d="M 408.332031 340.054688 L 638.476562 340.054688 L 638.476562 390.929688 L 408.332031 390.929688 Z M 408.332031 340.054688 " fill-opacity="1" fill-rule="nonzero"/></g></g><g clip-path="url(#f4398d85dd)"><g clip-path="url(#9574417e4d)"><path stroke-linecap="butt" transform="matrix(0.748611, 0, 0, 0.748611, 408.346288, 340.052852)" fill="none" stroke-linejoin="miter" d="M 8.997654 0.00245129 L 298.262507 0.00245129 C 303.23004 0.00245129 307.258333 4.030745 307.258333 8.998277 L 307.258333 58.955376 C 307.258333 63.922908 303.23004 67.951202 298.262507 67.951202 L 8.997654 67.951202 C 4.030121 67.951202 0.0018277 63.922908 0.0018277 58.955376 L 0.0018277 8.998277 C 0.0018277 4.030745 4.030121 0.00245129 8.997654 0.00245129 Z M 8.997654 0.00245129 " stroke="#7257b0" stroke-width="8" stroke-opacity="1" stroke-miterlimit="4"/></g></g><g fill="#ffffff" fill-opacity="1"><g transform="translate(435.182568, 372.324422)"><g><path d="M 13.21875 0 L 13.21875 -7.171875 C 13.21875 -7.609375 13.222656 -8.046875 13.234375 -8.484375 C 13.242188 -8.929688 13.253906 -9.375 13.265625 -9.8125 C 13.140625 -9.457031 13.019531 -9.097656 12.90625 -8.734375 C 12.789062 -8.378906 12.664062 -8.023438 12.53125 -7.671875 L 9.65625 0 L 7.609375 0 L 4.65625 -7.671875 C 4.375 -8.398438 4.132812 -9.113281 3.9375 -9.8125 C 3.945312 -9.375 3.957031 -8.9375 3.96875 -8.5 C 3.976562 -8.0625 3.984375 -7.625 3.984375 -7.1875 L 3.984375 0 L 1.390625 0 L 1.390625 -12.359375 L 5.328125 -12.359375 L 7.390625 -7.015625 C 7.648438 -6.347656 7.910156 -5.632812 8.171875 -4.875 C 8.429688 -4.113281 8.582031 -3.617188 8.625 -3.390625 C 9.070312 -4.703125 9.515625 -5.9375 9.953125 -7.09375 L 11.921875 -12.359375 L 15.8125 -12.359375 L 15.8125 0 Z M 13.21875 0 "/></g></g><g transform="translate(452.377229, 372.324422)"><g><path d="M 4.421875 -1.5625 C 4.859375 -1.5625 5.207031 -1.773438 5.46875 -2.203125 C 5.738281 -2.628906 5.875 -3.144531 5.875 -3.75 L 5.875 -4.234375 L 4.984375 -4.203125 C 4.410156 -4.171875 4.007812 -4.039062 3.78125 -3.8125 C 3.550781 -3.59375 3.4375 -3.265625 3.4375 -2.828125 C 3.4375 -2.429688 3.519531 -2.117188 3.6875 -1.890625 C 3.851562 -1.671875 4.097656 -1.5625 4.421875 -1.5625 Z M 8.640625 0 L 5.953125 0 L 5.875 -1.328125 C 5.59375 -0.785156 5.257812 -0.398438 4.875 -0.171875 C 4.488281 0.0546875 3.945312 0.171875 3.25 0.171875 C 2.382812 0.171875 1.710938 -0.0664062 1.234375 -0.546875 C 0.765625 -1.035156 0.53125 -1.71875 0.53125 -2.59375 C 0.53125 -4.46875 1.703125 -5.4375 4.046875 -5.5 L 5.875 -5.5625 L 5.875 -6.015625 C 5.875 -6.585938 5.800781 -7 5.65625 -7.25 C 5.507812 -7.507812 5.269531 -7.640625 4.9375 -7.640625 C 4.613281 -7.640625 4.367188 -7.554688 4.203125 -7.390625 C 4.046875 -7.222656 3.9375 -6.953125 3.875 -6.578125 L 1.171875 -6.921875 C 1.367188 -7.742188 1.773438 -8.332031 2.390625 -8.6875 C 3.015625 -9.050781 3.875 -9.234375 4.96875 -9.234375 C 6.15625 -9.234375 7.0625 -8.957031 7.6875 -8.40625 C 8.320312 -7.851562 8.640625 -7.03125 8.640625 -5.9375 Z M 8.640625 0 "/></g></g><g transform="translate(462.04484, 372.324422)"><g><path d="M 5.953125 -7.078125 C 5.367188 -7.078125 4.882812 -6.800781 4.5 -6.25 C 4.125 -5.707031 3.9375 -4.992188 3.9375 -4.109375 L 3.9375 0 L 1.15625 0 L 1.15625 -6.8125 C 1.15625 -7.5625 1.132812 -8.304688 1.09375 -9.046875 L 3.75 -9.046875 C 3.820312 -7.984375 3.859375 -7.304688 3.859375 -7.015625 L 3.890625 -7.015625 C 4.160156 -7.816406 4.476562 -8.382812 4.84375 -8.71875 C 5.207031 -9.0625 5.671875 -9.234375 6.234375 -9.234375 C 6.523438 -9.234375 6.769531 -9.1875 6.96875 -9.09375 L 6.96875 -6.96875 C 6.65625 -7.039062 6.316406 -7.078125 5.953125 -7.078125 Z M 5.953125 -7.078125 "/></g></g><g transform="translate(469.19466, 372.324422)"><g><path d="M 6.90625 0 L 4.71875 -3.578125 L 3.953125 -3.046875 L 3.953125 0 L 1.15625 0 L 1.15625 -12.75 L 3.953125 -12.75 L 3.953125 -5.296875 L 6.796875 -9.046875 L 9.84375 -9.046875 L 6.734375 -5.328125 L 10.09375 0 Z M 6.90625 0 "/></g></g><g transform="translate(479.2395, 372.324422)"><g><path d="M 1.09375 -3.390625 L 1.09375 -5.8125 L 6.171875 -5.8125 L 6.171875 -3.390625 Z M 1.09375 -3.390625 "/></g></g><g transform="translate(486.503367, 372.324422)"><g><path d="M 5.953125 -7.078125 C 5.367188 -7.078125 4.882812 -6.800781 4.5 -6.25 C 4.125 -5.707031 3.9375 -4.992188 3.9375 -4.109375 L 3.9375 0 L 1.15625 0 L 1.15625 -6.8125 C 1.15625 -7.5625 1.132812 -8.304688 1.09375 -9.046875 L 3.75 -9.046875 C 3.820312 -7.984375 3.859375 -7.304688 3.859375 -7.015625 L 3.890625 -7.015625 C 4.160156 -7.816406 4.476562 -8.382812 4.84375 -8.71875 C 5.207031 -9.0625 5.671875 -9.234375 6.234375 -9.234375 C 6.523438 -9.234375 6.769531 -9.1875 6.96875 -9.09375 L 6.96875 -6.96875 C 6.65625 -7.039062 6.316406 -7.078125 5.953125 -7.078125 Z M 5.953125 -7.078125 "/></g></g><g transform="translate(493.653188, 372.324422)"><g><path d="M 3.5625 -3.953125 C 3.625 -3.148438 3.785156 -2.554688 4.046875 -2.171875 C 4.316406 -1.785156 4.695312 -1.59375 5.1875 -1.59375 C 5.5 -1.59375 5.773438 -1.695312 6.015625 -1.90625 C 6.265625 -2.113281 6.523438 -2.5 6.796875 -3.0625 L 8.984375 -2.109375 C 8.554688 -1.441406 8.164062 -0.960938 7.8125 -0.671875 C 7.457031 -0.390625 7.046875 -0.175781 6.578125 -0.03125 C 6.109375 0.101562 5.546875 0.171875 4.890625 0.171875 C 3.523438 0.171875 2.476562 -0.234375 1.75 -1.046875 C 1.019531 -1.867188 0.65625 -3.039062 0.65625 -4.5625 C 0.65625 -6.070312 1.023438 -7.226562 1.765625 -8.03125 C 2.503906 -8.832031 3.59375 -9.234375 5.03125 -9.234375 C 6.363281 -9.234375 7.375 -8.800781 8.0625 -7.9375 C 8.757812 -7.070312 9.109375 -5.785156 9.109375 -4.078125 L 9.109375 -3.953125 Z M 4.96875 -7.515625 C 4.582031 -7.515625 4.265625 -7.351562 4.015625 -7.03125 C 3.765625 -6.71875 3.617188 -6.222656 3.578125 -5.546875 L 6.25 -5.546875 C 6.195312 -6.234375 6.070312 -6.734375 5.875 -7.046875 C 5.675781 -7.359375 5.375 -7.515625 4.96875 -7.515625 Z M 4.96875 -7.515625 "/></g></g><g transform="translate(503.373435, 372.324422)"><g><path d="M 0.625 -4.5 C 0.625 -6.019531 0.960938 -7.191406 1.640625 -8.015625 C 2.328125 -8.835938 3.296875 -9.25 4.546875 -9.25 C 6.703125 -9.25 7.945312 -8.191406 8.28125 -6.078125 L 5.53125 -5.84375 C 5.507812 -6.3125 5.40625 -6.675781 5.21875 -6.9375 C 5.039062 -7.195312 4.816406 -7.328125 4.546875 -7.328125 C 4.148438 -7.328125 3.863281 -7.109375 3.6875 -6.671875 C 3.519531 -6.242188 3.4375 -5.546875 3.4375 -4.578125 C 3.4375 -3.609375 3.535156 -2.894531 3.734375 -2.4375 C 3.929688 -1.976562 4.203125 -1.75 4.546875 -1.75 C 5.117188 -1.75 5.472656 -2.296875 5.609375 -3.390625 L 8.28125 -3.15625 C 8.15625 -2.0625 7.773438 -1.234375 7.140625 -0.671875 C 6.515625 -0.109375 5.660156 0.171875 4.578125 0.171875 C 3.316406 0.171875 2.34375 -0.238281 1.65625 -1.0625 C 0.96875 -1.882812 0.625 -3.03125 0.625 -4.5 Z M 0.625 -4.5 "/></g></g><g transform="translate(511.997084, 372.324422)"><g><path d="M 4.421875 -1.5625 C 4.859375 -1.5625 5.207031 -1.773438 5.46875 -2.203125 C 5.738281 -2.628906 5.875 -3.144531 5.875 -3.75 L 5.875 -4.234375 L 4.984375 -4.203125 C 4.410156 -4.171875 4.007812 -4.039062 3.78125 -3.8125 C 3.550781 -3.59375 3.4375 -3.265625 3.4375 -2.828125 C 3.4375 -2.429688 3.519531 -2.117188 3.6875 -1.890625 C 3.851562 -1.671875 4.097656 -1.5625 4.421875 -1.5625 Z M 8.640625 0 L 5.953125 0 L 5.875 -1.328125 C 5.59375 -0.785156 5.257812 -0.398438 4.875 -0.171875 C 4.488281 0.0546875 3.945312 0.171875 3.25 0.171875 C 2.382812 0.171875 1.710938 -0.0664062 1.234375 -0.546875 C 0.765625 -1.035156 0.53125 -1.71875 0.53125 -2.59375 C 0.53125 -4.46875 1.703125 -5.4375 4.046875 -5.5 L 5.875 -5.5625 L 5.875 -6.015625 C 5.875 -6.585938 5.800781 -7 5.65625 -7.25 C 5.507812 -7.507812 5.269531 -7.640625 4.9375 -7.640625 C 4.613281 -7.640625 4.367188 -7.554688 4.203125 -7.390625 C 4.046875 -7.222656 3.9375 -6.953125 3.875 -6.578125 L 1.171875 -6.921875 C 1.367188 -7.742188 1.773438 -8.332031 2.390625 -8.6875 C 3.015625 -9.050781 3.875 -9.234375 4.96875 -9.234375 C 6.15625 -9.234375 7.0625 -8.957031 7.6875 -8.40625 C 8.320312 -7.851562 8.640625 -7.03125 8.640625 -5.9375 Z M 8.640625 0 "/></g></g><g transform="translate(521.664694, 372.324422)"><g><path d="M 10.5 -4.578125 C 10.5 -3.046875 10.171875 -1.875 9.515625 -1.0625 C 8.867188 -0.25 7.914062 0.15625 6.65625 0.15625 C 6.007812 0.15625 5.453125 0.015625 4.984375 -0.265625 C 4.523438 -0.554688 4.175781 -0.957031 3.9375 -1.46875 L 3.890625 -1.46875 C 3.921875 -1.226562 3.9375 -0.707031 3.9375 0.09375 L 3.9375 3.8125 L 1.15625 3.8125 L 1.15625 -6.953125 C 1.15625 -7.578125 1.125 -8.273438 1.0625 -9.046875 L 3.75 -9.046875 C 3.789062 -8.921875 3.828125 -8.679688 3.859375 -8.328125 C 3.890625 -7.972656 3.90625 -7.710938 3.90625 -7.546875 L 3.9375 -7.546875 C 4.457031 -8.671875 5.40625 -9.234375 6.78125 -9.234375 C 7.988281 -9.234375 8.910156 -8.835938 9.546875 -8.046875 C 10.179688 -7.253906 10.5 -6.097656 10.5 -4.578125 Z M 7.578125 -4.578125 C 7.578125 -5.535156 7.425781 -6.238281 7.125 -6.6875 C 6.820312 -7.132812 6.378906 -7.359375 5.796875 -7.359375 C 5.179688 -7.359375 4.710938 -7.109375 4.390625 -6.609375 C 4.066406 -6.117188 3.90625 -5.421875 3.90625 -4.515625 C 3.90625 -3.617188 4.0625 -2.929688 4.375 -2.453125 C 4.695312 -1.984375 5.160156 -1.75 5.765625 -1.75 C 6.378906 -1.75 6.832031 -1.972656 7.125 -2.421875 C 7.425781 -2.878906 7.578125 -3.597656 7.578125 -4.578125 Z M 7.578125 -4.578125 "/></g></g><g transform="translate(532.806133, 372.324422)"><g><path d="M 4.0625 0.171875 C 3.269531 0.171875 2.648438 -0.0546875 2.203125 -0.515625 C 1.765625 -0.972656 1.546875 -1.609375 1.546875 -2.421875 L 1.546875 -7.171875 L 0.28125 -7.171875 L 0.28125 -9.046875 L 1.609375 -9.046875 L 2.46875 -11.3125 L 4.3125 -11.3125 L 4.3125 -9.046875 L 6.421875 -9.046875 L 6.421875 -7.171875 L 4.3125 -7.171875 L 4.3125 -3.109375 C 4.3125 -2.210938 4.6875 -1.765625 5.4375 -1.765625 C 5.800781 -1.765625 6.164062 -1.800781 6.53125 -1.875 L 6.53125 -0.140625 C 5.957031 -0.00390625 5.492188 0.078125 5.140625 0.109375 C 4.785156 0.148438 4.425781 0.171875 4.0625 0.171875 Z M 4.0625 0.171875 "/></g></g><g transform="translate(539.798043, 372.324422)"><g><path d="M 3.828125 -9.046875 L 3.828125 -4.109375 C 3.828125 -2.640625 4.285156 -1.90625 5.203125 -1.90625 C 5.710938 -1.90625 6.125 -2.140625 6.4375 -2.609375 C 6.75 -3.085938 6.90625 -3.726562 6.90625 -4.53125 L 6.90625 -9.046875 L 9.703125 -9.046875 L 9.703125 -2.15625 C 9.703125 -1.789062 9.710938 -1.375 9.734375 -0.90625 C 9.753906 -0.4375 9.773438 -0.132812 9.796875 0 L 7.109375 0 C 7.097656 -0.125 7.078125 -0.40625 7.046875 -0.84375 C 7.015625 -1.289062 7 -1.640625 7 -1.890625 L 6.96875 -1.890625 C 6.632812 -1.160156 6.226562 -0.628906 5.75 -0.296875 C 5.28125 0.0234375 4.710938 0.1875 4.046875 0.1875 C 3.054688 0.1875 2.304688 -0.113281 1.796875 -0.71875 C 1.285156 -1.332031 1.03125 -2.25 1.03125 -3.46875 L 1.03125 -9.046875 Z M 3.828125 -9.046875 "/></g></g><g transform="translate(550.667525, 372.324422)"><g><path d="M 5.953125 -7.078125 C 5.367188 -7.078125 4.882812 -6.800781 4.5 -6.25 C 4.125 -5.707031 3.9375 -4.992188 3.9375 -4.109375 L 3.9375 0 L 1.15625 0 L 1.15625 -6.8125 C 1.15625 -7.5625 1.132812 -8.304688 1.09375 -9.046875 L 3.75 -9.046875 C 3.820312 -7.984375 3.859375 -7.304688 3.859375 -7.015625 L 3.890625 -7.015625 C 4.160156 -7.816406 4.476562 -8.382812 4.84375 -8.71875 C 5.207031 -9.0625 5.671875 -9.234375 6.234375 -9.234375 C 6.523438 -9.234375 6.769531 -9.1875 6.96875 -9.09375 L 6.96875 -6.96875 C 6.65625 -7.039062 6.316406 -7.078125 5.953125 -7.078125 Z M 5.953125 -7.078125 "/></g></g><g transform="translate(557.817346, 372.324422)"><g><path d="M 3.5625 -3.953125 C 3.625 -3.148438 3.785156 -2.554688 4.046875 -2.171875 C 4.316406 -1.785156 4.695312 -1.59375 5.1875 -1.59375 C 5.5 -1.59375 5.773438 -1.695312 6.015625 -1.90625 C 6.265625 -2.113281 6.523438 -2.5 6.796875 -3.0625 L 8.984375 -2.109375 C 8.554688 -1.441406 8.164062 -0.960938 7.8125 -0.671875 C 7.457031 -0.390625 7.046875 -0.175781 6.578125 -0.03125 C 6.109375 0.101562 5.546875 0.171875 4.890625 0.171875 C 3.523438 0.171875 2.476562 -0.234375 1.75 -1.046875 C 1.019531 -1.867188 0.65625 -3.039062 0.65625 -4.5625 C 0.65625 -6.070312 1.023438 -7.226562 1.765625 -8.03125 C 2.503906 -8.832031 3.59375 -9.234375 5.03125 -9.234375 C 6.363281 -9.234375 7.375 -8.800781 8.0625 -7.9375 C 8.757812 -7.070312 9.109375 -5.785156 9.109375 -4.078125 L 9.109375 -3.953125 Z M 4.96875 -7.515625 C 4.582031 -7.515625 4.265625 -7.351562 4.015625 -7.03125 C 3.765625 -6.71875 3.617188 -6.222656 3.578125 -5.546875 L 6.25 -5.546875 C 6.195312 -6.234375 6.070312 -6.734375 5.875 -7.046875 C 5.675781 -7.359375 5.375 -7.515625 4.96875 -7.515625 Z M 4.96875 -7.515625 "/></g></g><g transform="translate(567.537593, 372.324422)"><g/></g><g transform="translate(572.494218, 372.324422)"><g><path d="M 3.53125 -4.515625 C 3.53125 -3.554688 3.679688 -2.851562 3.984375 -2.40625 C 4.285156 -1.957031 4.726562 -1.734375 5.3125 -1.734375 C 5.925781 -1.734375 6.390625 -1.976562 6.703125 -2.46875 C 7.023438 -2.96875 7.1875 -3.671875 7.1875 -4.578125 C 7.1875 -5.453125 7.03125 -6.125 6.71875 -6.59375 C 6.40625 -7.070312 5.941406 -7.3125 5.328125 -7.3125 C 4.722656 -7.3125 4.269531 -7.085938 3.96875 -6.640625 C 3.675781 -6.191406 3.53125 -5.484375 3.53125 -4.515625 Z M 0.625 -4.515625 C 0.625 -6.035156 0.945312 -7.195312 1.59375 -8 C 2.25 -8.8125 3.1875 -9.21875 4.40625 -9.21875 C 5.695312 -9.21875 6.617188 -8.671875 7.171875 -7.578125 L 7.21875 -7.578125 C 7.1875 -8.015625 7.171875 -8.539062 7.171875 -9.15625 L 7.171875 -12.75 L 9.953125 -12.75 L 9.953125 -2.109375 C 9.953125 -1.484375 9.984375 -0.78125 10.046875 0 L 7.3125 0 C 7.269531 -0.0820312 7.234375 -0.300781 7.203125 -0.65625 C 7.179688 -1.019531 7.171875 -1.296875 7.171875 -1.484375 L 7.140625 -1.484375 C 6.617188 -0.390625 5.664062 0.15625 4.28125 0.15625 C 3.082031 0.15625 2.171875 -0.238281 1.546875 -1.03125 C 0.929688 -1.832031 0.625 -2.992188 0.625 -4.515625 Z M 0.625 -4.515625 "/></g></g><g transform="translate(583.61811, 372.324422)"><g><path d="M 4.421875 -1.5625 C 4.859375 -1.5625 5.207031 -1.773438 5.46875 -2.203125 C 5.738281 -2.628906 5.875 -3.144531 5.875 -3.75 L 5.875 -4.234375 L 4.984375 -4.203125 C 4.410156 -4.171875 4.007812 -4.039062 3.78125 -3.8125 C 3.550781 -3.59375 3.4375 -3.265625 3.4375 -2.828125 C 3.4375 -2.429688 3.519531 -2.117188 3.6875 -1.890625 C 3.851562 -1.671875 4.097656 -1.5625 4.421875 -1.5625 Z M 8.640625 0 L 5.953125 0 L 5.875 -1.328125 C 5.59375 -0.785156 5.257812 -0.398438 4.875 -0.171875 C 4.488281 0.0546875 3.945312 0.171875 3.25 0.171875 C 2.382812 0.171875 1.710938 -0.0664062 1.234375 -0.546875 C 0.765625 -1.035156 0.53125 -1.71875 0.53125 -2.59375 C 0.53125 -4.46875 1.703125 -5.4375 4.046875 -5.5 L 5.875 -5.5625 L 5.875 -6.015625 C 5.875 -6.585938 5.800781 -7 5.65625 -7.25 C 5.507812 -7.507812 5.269531 -7.640625 4.9375 -7.640625 C 4.613281 -7.640625 4.367188 -7.554688 4.203125 -7.390625 C 4.046875 -7.222656 3.9375 -6.953125 3.875 -6.578125 L 1.171875 -6.921875 C 1.367188 -7.742188 1.773438 -8.332031 2.390625 -8.6875 C 3.015625 -9.050781 3.875 -9.234375 4.96875 -9.234375 C 6.15625 -9.234375 7.0625 -8.957031 7.6875 -8.40625 C 8.320312 -7.851562 8.640625 -7.03125 8.640625 -5.9375 Z M 8.640625 0 "/></g></g><g transform="translate(593.285721, 372.324422)"><g><path d="M 4.0625 0.171875 C 3.269531 0.171875 2.648438 -0.0546875 2.203125 -0.515625 C 1.765625 -0.972656 1.546875 -1.609375 1.546875 -2.421875 L 1.546875 -7.171875 L 0.28125 -7.171875 L 0.28125 -9.046875 L 1.609375 -9.046875 L 2.46875 -11.3125 L 4.3125 -11.3125 L 4.3125 -9.046875 L 6.421875 -9.046875 L 6.421875 -7.171875 L 4.3125 -7.171875 L 4.3125 -3.109375 C 4.3125 -2.210938 4.6875 -1.765625 5.4375 -1.765625 C 5.800781 -1.765625 6.164062 -1.800781 6.53125 -1.875 L 6.53125 -0.140625 C 5.957031 -0.00390625 5.492188 0.078125 5.140625 0.109375 C 4.785156 0.148438 4.425781 0.171875 4.0625 0.171875 Z M 4.0625 0.171875 "/></g></g><g transform="translate(600.277631, 372.324422)"><g><path d="M 4.421875 -1.5625 C 4.859375 -1.5625 5.207031 -1.773438 5.46875 -2.203125 C 5.738281 -2.628906 5.875 -3.144531 5.875 -3.75 L 5.875 -4.234375 L 4.984375 -4.203125 C 4.410156 -4.171875 4.007812 -4.039062 3.78125 -3.8125 C 3.550781 -3.59375 3.4375 -3.265625 3.4375 -2.828125 C 3.4375 -2.429688 3.519531 -2.117188 3.6875 -1.890625 C 3.851562 -1.671875 4.097656 -1.5625 4.421875 -1.5625 Z M 8.640625 0 L 5.953125 0 L 5.875 -1.328125 C 5.59375 -0.785156 5.257812 -0.398438 4.875 -0.171875 C 4.488281 0.0546875 3.945312 0.171875 3.25 0.171875 C 2.382812 0.171875 1.710938 -0.0664062 1.234375 -0.546875 C 0.765625 -1.035156 0.53125 -1.71875 0.53125 -2.59375 C 0.53125 -4.46875 1.703125 -5.4375 4.046875 -5.5 L 5.875 -5.5625 L 5.875 -6.015625 C 5.875 -6.585938 5.800781 -7 5.65625 -7.25 C 5.507812 -7.507812 5.269531 -7.640625 4.9375 -7.640625 C 4.613281 -7.640625 4.367188 -7.554688 4.203125 -7.390625 C 4.046875 -7.222656 3.9375 -6.953125 3.875 -6.578125 L 1.171875 -6.921875 C 1.367188 -7.742188 1.773438 -8.332031 2.390625 -8.6875 C 3.015625 -9.050781 3.875 -9.234375 4.96875 -9.234375 C 6.15625 -9.234375 7.0625 -8.957031 7.6875 -8.40625 C 8.320312 -7.851562 8.640625 -7.03125 8.640625 -5.9375 Z M 8.640625 0 "/></g></g></g><g clip-path="url(#dfc38f2737)"><g clip-path="url(#f7f22d78b9)"><path stroke-linecap="butt" transform="matrix(0.748611, 0, 0, 0.748611, 187.544125, 247.214286)" fill="none" stroke-linejoin="miter" d="M 74.673208 0.00074477 C 33.430161 0.00074477 -0.00154415 23.492166 -0.00154415 52.478139 C -0.00154415 81.458893 33.430161 104.950315 74.673208 104.950315 C 115.911037 104.950315 149.342743 81.458893 149.342743 52.478139 C 149.342743 23.492166 115.911037 0.00074477 74.673208 0.00074477 Z M 74.673208 0.00074477 " stroke="#7257b0" stroke-width="8" stroke-opacity="1" stroke-miterlimit="4"/></g></g><g fill="#000000" fill-opacity="1"><g transform="translate(217.135403, 300.546423)"><g><path d="M 14.265625 -25.65625 C 17.085938 -25.65625 19.335938 -24.992188 21.015625 -23.671875 C 22.691406 -22.359375 23.613281 -20.484375 23.78125 -18.046875 L 18.8125 -17.796875 C 18.582031 -20.285156 17.046875 -21.53125 14.203125 -21.53125 C 12.859375 -21.53125 11.859375 -21.296875 11.203125 -20.828125 C 10.546875 -20.359375 10.21875 -19.710938 10.21875 -18.890625 C 10.21875 -18.296875 10.421875 -17.773438 10.828125 -17.328125 C 11.242188 -16.890625 11.753906 -16.515625 12.359375 -16.203125 C 12.972656 -15.898438 13.859375 -15.515625 15.015625 -15.046875 C 16.492188 -14.429688 17.707031 -13.847656 18.65625 -13.296875 C 19.601562 -12.742188 20.410156 -12.003906 21.078125 -11.078125 C 21.753906 -10.148438 22.09375 -9.003906 22.09375 -7.640625 C 22.09375 -6.160156 21.691406 -4.8125 20.890625 -3.59375 C 20.097656 -2.375 18.945312 -1.398438 17.4375 -0.671875 C 15.9375 0.0546875 14.148438 0.421875 12.078125 0.421875 C 8.910156 0.421875 6.46875 -0.28125 4.75 -1.6875 C 3.039062 -3.101562 2.1875 -5.226562 2.1875 -8.0625 L 2.1875 -8.171875 L 7.125 -8.421875 C 7.164062 -7.359375 7.320312 -6.503906 7.59375 -5.859375 C 7.863281 -5.210938 8.347656 -4.722656 9.046875 -4.390625 C 9.753906 -4.066406 10.765625 -3.90625 12.078125 -3.90625 C 13.703125 -3.90625 14.921875 -4.1875 15.734375 -4.75 C 16.546875 -5.320312 16.953125 -6.078125 16.953125 -7.015625 C 16.953125 -7.597656 16.785156 -8.085938 16.453125 -8.484375 C 16.128906 -8.890625 15.609375 -9.273438 14.890625 -9.640625 C 14.171875 -10.003906 13.046875 -10.515625 11.515625 -11.171875 C 10.179688 -11.734375 9.078125 -12.296875 8.203125 -12.859375 C 7.335938 -13.421875 6.628906 -14.128906 6.078125 -14.984375 C 5.523438 -15.847656 5.25 -16.914062 5.25 -18.1875 C 5.25 -19.664062 5.59375 -20.960938 6.28125 -22.078125 C 6.976562 -23.191406 8.007812 -24.066406 9.375 -24.703125 C 10.738281 -25.335938 12.367188 -25.65625 14.265625 -25.65625 Z M 14.265625 -25.65625 "/></g></g></g><g fill="#000000" fill-opacity="1"><g transform="translate(238.291708, 304.685918)"><g><path d="M 8.5625 -17.046875 C 9.539062 -17.046875 10.390625 -16.847656 11.109375 -16.453125 C 11.828125 -16.066406 12.378906 -15.535156 12.765625 -14.859375 C 13.148438 -14.191406 13.34375 -13.425781 13.34375 -12.5625 C 13.34375 -11.5625 13.035156 -10.722656 12.421875 -10.046875 C 11.804688 -9.367188 11.140625 -8.910156 10.421875 -8.671875 C 11.171875 -8.265625 11.707031 -7.757812 12.03125 -7.15625 C 12.351562 -6.550781 12.515625 -5.941406 12.515625 -5.328125 C 12.515625 -4.398438 12.253906 -3.503906 11.734375 -2.640625 C 11.210938 -1.773438 10.492188 -1.070312 9.578125 -0.53125 C 8.660156 0 7.640625 0.265625 6.515625 0.265625 C 5.066406 0.265625 3.878906 -0.140625 2.953125 -0.953125 C 2.023438 -1.773438 1.457031 -2.9375 1.25 -4.4375 L 4.4375 -4.8125 C 4.5625 -3.988281 4.785156 -3.382812 5.109375 -3 C 5.429688 -2.613281 5.898438 -2.421875 6.515625 -2.421875 C 7.296875 -2.421875 7.929688 -2.679688 8.421875 -3.203125 C 8.921875 -3.722656 9.171875 -4.367188 9.171875 -5.140625 C 9.171875 -5.847656 8.960938 -6.40625 8.546875 -6.8125 C 8.140625 -7.21875 7.601562 -7.421875 6.9375 -7.421875 L 6.40625 -7.34375 L 6.96875 -10.125 C 7.0625 -10.101562 7.195312 -10.09375 7.375 -10.09375 C 8.195312 -10.09375 8.835938 -10.3125 9.296875 -10.75 C 9.765625 -11.1875 10 -11.804688 10 -12.609375 C 10 -13.160156 9.84375 -13.585938 9.53125 -13.890625 C 9.226562 -14.203125 8.820312 -14.359375 8.3125 -14.359375 C 7.8125 -14.359375 7.378906 -14.175781 7.015625 -13.8125 C 6.648438 -13.457031 6.359375 -12.867188 6.140625 -12.046875 L 3.109375 -12.65625 C 3.578125 -14.125 4.273438 -15.222656 5.203125 -15.953125 C 6.128906 -16.679688 7.25 -17.046875 8.5625 -17.046875 Z M 8.5625 -17.046875 "/></g></g></g><g fill="#000000" fill-opacity="1"><g transform="translate(251.46793, 304.685918)"><g><path d="M 7.234375 -12.28125 L 9.265625 -12.28125 L 8.75 -9.859375 L 6.703125 -9.859375 L 5.625 -4.53125 C 5.457031 -3.832031 5.375 -3.347656 5.375 -3.078125 C 5.375 -2.796875 5.460938 -2.585938 5.640625 -2.453125 C 5.816406 -2.316406 6.09375 -2.25 6.46875 -2.25 C 6.71875 -2.25 7.082031 -2.28125 7.5625 -2.34375 L 7.046875 0.125 C 6.648438 0.21875 6.085938 0.265625 5.359375 0.265625 C 3.066406 0.265625 1.921875 -0.570312 1.921875 -2.25 C 1.921875 -2.582031 2.007812 -3.210938 2.1875 -4.140625 L 2.296875 -4.6875 L 3.390625 -9.859375 L 1.78125 -9.859375 L 2.296875 -12.28125 L 3.90625 -12.28125 L 4.3125 -14.25 L 8.109375 -16.546875 Z M 7.234375 -12.28125 "/></g></g></g><g fill="#000000" fill-opacity="1"><g transform="translate(259.35944, 304.685918)"><g><path d="M 8.515625 -12.5625 C 9.953125 -12.5625 11.101562 -12.1875 11.96875 -11.4375 C 12.84375 -10.6875 13.332031 -9.695312 13.4375 -8.46875 L 10.265625 -8.125 C 10.148438 -9.40625 9.492188 -10.046875 8.296875 -10.046875 C 7.597656 -10.046875 6.984375 -9.789062 6.453125 -9.28125 C 5.929688 -8.769531 5.519531 -8.097656 5.21875 -7.265625 C 4.925781 -6.429688 4.78125 -5.554688 4.78125 -4.640625 C 4.78125 -3.890625 4.953125 -3.316406 5.296875 -2.921875 C 5.640625 -2.523438 6.085938 -2.328125 6.640625 -2.328125 C 7.191406 -2.328125 7.707031 -2.523438 8.1875 -2.921875 C 8.664062 -3.316406 9.039062 -3.890625 9.3125 -4.640625 L 12.5625 -4.09375 C 12.039062 -2.6875 11.265625 -1.601562 10.234375 -0.84375 C 9.210938 -0.09375 8.003906 0.28125 6.609375 0.28125 C 5.003906 0.28125 3.742188 -0.191406 2.828125 -1.140625 C 1.910156 -2.085938 1.453125 -3.34375 1.453125 -4.90625 C 1.453125 -6.375 1.75 -7.6875 2.34375 -8.84375 C 2.945312 -10.007812 3.78125 -10.921875 4.84375 -11.578125 C 5.914062 -12.234375 7.140625 -12.5625 8.515625 -12.5625 Z M 8.515625 -12.5625 "/></g></g></g><g clip-path="url(#843dd8706a)"><path stroke-linecap="round" transform="matrix(-0.747145, 0.0468241, -0.0468241, -0.747145, 184.180535, 288.089798)" fill="none" stroke-linejoin="miter" d="M 1.501711 1.500446 L 236.521206 1.501338 " stroke="#000000" stroke-width="3" stroke-opacity="1" stroke-miterlimit="4"/></g><path fill="#000000" d="M 6.488281 301.476562 L 1.792969 298.394531 L 6.066406 294.75 Z M 6.488281 301.476562 " fill-opacity="1" fill-rule="nonzero"/><g clip-path="url(#455492f73b)"><path stroke-linecap="round" transform="matrix(-0.747145, 0.0468241, -0.0468241, -0.747145, 184.180535, 288.089798)" fill="none" stroke-linejoin="round" d="M 238.016294 -3.000581 L 244.018535 1.50066 L 238.016717 6.002464 Z M 238.016294 -3.000581 " stroke="#000000" stroke-width="3" stroke-opacity="1" stroke-miterlimit="4"/></g><path stroke-linecap="round" transform="matrix(0.744522, -0.0781387, 0.0781387, 0.744522, 303.110286, 279.352481)" fill="none" stroke-linejoin="miter" d="M 1.499368 1.499271 L 185.079705 1.500588 " stroke="#000000" stroke-width="3" stroke-opacity="1" stroke-miterlimit="4"/><path stroke-linecap="round" transform="matrix(0.744522, -0.0781387, 0.0781387, 0.744522, 303.110286, 279.352481)" fill-opacity="1" fill="#000000" fill-rule="nonzero" stroke-linejoin="round" d="M 186.580491 -3.000932 L 192.582379 1.501007 L 186.579989 6.002276 Z M 186.580491 -3.000932 " stroke="#000000" stroke-width="3" stroke-opacity="1" stroke-miterlimit="4"/><path stroke-linecap="round" transform="matrix(0.316564, -0.678385, 0.678385, 0.316564, 278.307105, 248.554564)" fill="none" stroke-linejoin="miter" d="M 1.500846 1.501452 L 123.716733 1.498981 " stroke="#000000" stroke-width="3" stroke-opacity="1" stroke-miterlimit="4"/><path stroke-linecap="round" transform="matrix(0.316564, -0.678385, 0.678385, 0.316564, 278.307105, 248.554564)" fill-opacity="1" fill="#000000" fill-rule="nonzero" stroke-linejoin="round" d="M 125.215738 -3.00091 L 131.214811 1.50101 L 125.212735 6.000503 Z M 125.215738 -3.00091 " stroke="#000000" stroke-width="3" stroke-opacity="1" stroke-miterlimit="4"/><path stroke-linecap="round" transform="matrix(0.00810734, -0.748567, 0.748567, 0.00810734, 242.326518, 241.671699)" fill="none" stroke-linejoin="miter" d="M 1.498 1.49923 L 313.797745 1.498335 " stroke="#000000" stroke-width="3" stroke-opacity="1" stroke-miterlimit="4"/><path stroke-linecap="round" transform="matrix(0.00810734, -0.748567, 0.748567, 0.00810734, 242.326518, 241.671699)" fill-opacity="1" fill="#000000" fill-rule="nonzero" stroke-linejoin="round" d="M 315.298857 -3.000445 L 321.29647 1.500613 L 315.2972 6.001145 Z M 315.298857 -3.000445 " stroke="#000000" stroke-width="3" stroke-opacity="1" stroke-miterlimit="4"/><g clip-path="url(#2f216a1c35)"><g clip-path="url(#ce1befa19b)"><path stroke-linecap="butt" transform="matrix(0.748611, 0, 0, 0.748611, 455.749875, 222.634637)" fill="none" stroke-linejoin="miter" d="M 74.095717 -0.00243673 C 33.176189 -0.00243673 0.000167075 22.982838 0.000167075 51.337431 C 0.000167075 79.686806 33.176189 102.67208 74.095717 102.67208 C 115.020464 102.67208 148.196485 79.686806 148.196485 51.337431 C 148.196485 22.982838 115.020464 -0.00243673 74.095717 -0.00243673 Z M 74.095717 -0.00243673 " stroke="#7257b0" stroke-width="8" stroke-opacity="1" stroke-miterlimit="4"/></g></g><g fill="#000000" fill-opacity="1"><g transform="translate(484.977281, 269.948393)"><g><path d="M 6.828125 8.453125 L 8.625 0.171875 C 6.5625 -0.109375 4.863281 -0.9375 3.53125 -2.3125 C 2.207031 -3.6875 1.546875 -5.554688 1.546875 -7.921875 C 1.546875 -10.484375 2.097656 -12.660156 3.203125 -14.453125 C 4.304688 -16.253906 5.820312 -17.96875 7.75 -19.59375 L 11.140625 -16.671875 C 9.796875 -15.328125 8.738281 -13.972656 7.96875 -12.609375 C 7.207031 -11.253906 6.828125 -9.753906 6.828125 -8.109375 C 6.828125 -6.859375 7.066406 -5.882812 7.546875 -5.1875 C 8.035156 -4.5 8.664062 -4.0625 9.4375 -3.875 L 11.34375 -12.75 C 11.832031 -15.007812 12.644531 -16.710938 13.78125 -17.859375 C 14.925781 -19.015625 16.554688 -19.59375 18.671875 -19.59375 C 20.835938 -19.59375 22.492188 -18.921875 23.640625 -17.578125 C 24.796875 -16.242188 25.375 -14.445312 25.375 -12.1875 C 25.375 -9.769531 24.890625 -7.644531 23.921875 -5.8125 C 22.960938 -3.976562 21.59375 -2.523438 19.8125 -1.453125 C 18.039062 -0.390625 15.9375 0.195312 13.5 0.3125 L 11.84375 8.453125 Z M 14.375 -3.90625 C 15.71875 -4.125 16.8125 -4.675781 17.65625 -5.5625 C 18.5 -6.457031 19.117188 -7.539062 19.515625 -8.8125 C 19.921875 -10.082031 20.125 -11.363281 20.125 -12.65625 C 20.125 -13.539062 20 -14.269531 19.75 -14.84375 C 19.5 -15.425781 19.082031 -15.71875 18.5 -15.71875 C 18.050781 -15.71875 17.625 -15.488281 17.21875 -15.03125 C 16.820312 -14.570312 16.507812 -13.789062 16.28125 -12.6875 Z M 14.375 -3.90625 "/></g></g></g><g fill="#000000" fill-opacity="1"><g transform="translate(504.026762, 282.322656)"><g><path d="M 8.5625 -17.046875 C 9.539062 -17.046875 10.390625 -16.847656 11.109375 -16.453125 C 11.828125 -16.066406 12.378906 -15.535156 12.765625 -14.859375 C 13.148438 -14.191406 13.34375 -13.425781 13.34375 -12.5625 C 13.34375 -11.5625 13.035156 -10.722656 12.421875 -10.046875 C 11.804688 -9.367188 11.140625 -8.910156 10.421875 -8.671875 C 11.171875 -8.265625 11.707031 -7.757812 12.03125 -7.15625 C 12.351562 -6.550781 12.515625 -5.941406 12.515625 -5.328125 C 12.515625 -4.398438 12.253906 -3.503906 11.734375 -2.640625 C 11.210938 -1.773438 10.492188 -1.070312 9.578125 -0.53125 C 8.660156 0 7.640625 0.265625 6.515625 0.265625 C 5.066406 0.265625 3.878906 -0.140625 2.953125 -0.953125 C 2.023438 -1.773438 1.457031 -2.9375 1.25 -4.4375 L 4.4375 -4.8125 C 4.5625 -3.988281 4.785156 -3.382812 5.109375 -3 C 5.429688 -2.613281 5.898438 -2.421875 6.515625 -2.421875 C 7.296875 -2.421875 7.929688 -2.679688 8.421875 -3.203125 C 8.921875 -3.722656 9.171875 -4.367188 9.171875 -5.140625 C 9.171875 -5.847656 8.960938 -6.40625 8.546875 -6.8125 C 8.140625 -7.21875 7.601562 -7.421875 6.9375 -7.421875 L 6.40625 -7.34375 L 6.96875 -10.125 C 7.0625 -10.101562 7.195312 -10.09375 7.375 -10.09375 C 8.195312 -10.09375 8.835938 -10.3125 9.296875 -10.75 C 9.765625 -11.1875 10 -11.804688 10 -12.609375 C 10 -13.160156 9.84375 -13.585938 9.53125 -13.890625 C 9.226562 -14.203125 8.820312 -14.359375 8.3125 -14.359375 C 7.8125 -14.359375 7.378906 -14.175781 7.015625 -13.8125 C 6.648438 -13.457031 6.359375 -12.867188 6.140625 -12.046875 L 3.109375 -12.65625 C 3.578125 -14.125 4.273438 -15.222656 5.203125 -15.953125 C 6.128906 -16.679688 7.25 -17.046875 8.5625 -17.046875 Z M 8.5625 -17.046875 "/></g></g></g><g fill="#000000" fill-opacity="1"><g transform="translate(517.202984, 282.322656)"><g><path d="M 7.234375 -12.28125 L 9.265625 -12.28125 L 8.75 -9.859375 L 6.703125 -9.859375 L 5.625 -4.53125 C 5.457031 -3.832031 5.375 -3.347656 5.375 -3.078125 C 5.375 -2.796875 5.460938 -2.585938 5.640625 -2.453125 C 5.816406 -2.316406 6.09375 -2.25 6.46875 -2.25 C 6.71875 -2.25 7.082031 -2.28125 7.5625 -2.34375 L 7.046875 0.125 C 6.648438 0.21875 6.085938 0.265625 5.359375 0.265625 C 3.066406 0.265625 1.921875 -0.570312 1.921875 -2.25 C 1.921875 -2.582031 2.007812 -3.210938 2.1875 -4.140625 L 2.296875 -4.6875 L 3.390625 -9.859375 L 1.78125 -9.859375 L 2.296875 -12.28125 L 3.90625 -12.28125 L 4.3125 -14.25 L 8.109375 -16.546875 Z M 7.234375 -12.28125 "/></g></g></g><g fill="#000000" fill-opacity="1"><g transform="translate(525.094493, 282.322656)"><g><path d="M 8.515625 -12.5625 C 9.953125 -12.5625 11.101562 -12.1875 11.96875 -11.4375 C 12.84375 -10.6875 13.332031 -9.695312 13.4375 -8.46875 L 10.265625 -8.125 C 10.148438 -9.40625 9.492188 -10.046875 8.296875 -10.046875 C 7.597656 -10.046875 6.984375 -9.789062 6.453125 -9.28125 C 5.929688 -8.769531 5.519531 -8.097656 5.21875 -7.265625 C 4.925781 -6.429688 4.78125 -5.554688 4.78125 -4.640625 C 4.78125 -3.890625 4.953125 -3.316406 5.296875 -2.921875 C 5.640625 -2.523438 6.085938 -2.328125 6.640625 -2.328125 C 7.191406 -2.328125 7.707031 -2.523438 8.1875 -2.921875 C 8.664062 -3.316406 9.039062 -3.890625 9.3125 -4.640625 L 12.5625 -4.09375 C 12.039062 -2.6875 11.265625 -1.601562 10.234375 -0.84375 C 9.210938 -0.09375 8.003906 0.28125 6.609375 0.28125 C 5.003906 0.28125 3.742188 -0.191406 2.828125 -1.140625 C 1.910156 -2.085938 1.453125 -3.34375 1.453125 -4.90625 C 1.453125 -6.375 1.75 -7.6875 2.34375 -8.84375 C 2.945312 -10.007812 3.78125 -10.921875 4.84375 -11.578125 C 5.914062 -12.234375 7.140625 -12.5625 8.515625 -12.5625 Z M 8.515625 -12.5625 "/></g></g></g><path stroke-linecap="round" transform="matrix(0.241502, 0.708587, -0.708587, 0.241502, 520.220693, 301.955448)" fill="none" stroke-linejoin="miter" d="M 1.497653 1.499953 L 31.024788 1.497189 " stroke="#000000" stroke-width="3" stroke-opacity="1" stroke-miterlimit="4"/><path stroke-linecap="round" transform="matrix(0.241502, 0.708587, -0.708587, 0.241502, 520.220693, 301.955448)" fill-opacity="1" fill="#000000" fill-rule="nonzero" stroke-linejoin="round" d="M 32.525295 -3.002479 L 38.526172 1.501427 L 32.527461 6.00055 Z M 32.525295 -3.002479 " stroke="#000000" stroke-width="3" stroke-opacity="1" stroke-miterlimit="4"/><g clip-path="url(#7504b5178b)"><g clip-path="url(#ce24dac139)"><path stroke-linecap="butt" transform="matrix(0.748611, 0, 0, 0.748611, 582.653228, 213.852303)" fill="none" stroke-linejoin="miter" d="M 55.069554 -0.00098883 C 24.653852 -0.00098883 -0.00118104 22.024174 -0.00118104 49.189064 C -0.00118104 76.353954 24.653852 98.373899 55.069554 98.373899 C 85.480037 98.373899 110.135071 76.353954 110.135071 49.189064 C 110.135071 22.024174 85.480037 -0.00098883 55.069554 -0.00098883 Z M 55.069554 -0.00098883 " stroke="#7257b0" stroke-width="8" stroke-opacity="1" stroke-miterlimit="4"/></g></g><g fill="#000000" fill-opacity="1"><g transform="translate(602.504741, 263.494941)"><g><path d="M 14.96875 -18.671875 C 16.945312 -18.671875 18.492188 -17.984375 19.609375 -16.609375 C 20.722656 -15.234375 21.28125 -13.328125 21.28125 -10.890625 C 21.28125 -8.847656 20.875 -6.960938 20.0625 -5.234375 C 19.25 -3.503906 18.144531 -2.128906 16.75 -1.109375 C 15.351562 -0.0859375 13.8125 0.421875 12.125 0.421875 C 10.832031 0.421875 9.726562 0.140625 8.8125 -0.421875 C 7.894531 -0.984375 7.1875 -1.664062 6.6875 -2.46875 L 6.65625 -2.46875 L 4.6875 6.96875 L -0.25 6.96875 L 5.03125 -18.25 L 9.6875 -18.25 L 9.34375 -16.421875 C 10.300781 -17.191406 11.210938 -17.757812 12.078125 -18.125 C 12.953125 -18.488281 13.914062 -18.671875 14.96875 -18.671875 Z M 8 -7.78125 C 8 -6.351562 8.335938 -5.25 9.015625 -4.46875 C 9.703125 -3.695312 10.535156 -3.3125 11.515625 -3.3125 C 12.484375 -3.3125 13.347656 -3.6875 14.109375 -4.4375 C 14.867188 -5.1875 15.453125 -6.160156 15.859375 -7.359375 C 16.273438 -8.554688 16.484375 -9.78125 16.484375 -11.03125 C 16.484375 -12.269531 16.164062 -13.265625 15.53125 -14.015625 C 14.90625 -14.773438 14.0625 -15.15625 13 -15.15625 C 11.96875 -15.15625 11.066406 -14.769531 10.296875 -14 C 9.535156 -13.238281 8.960938 -12.28125 8.578125 -11.125 C 8.191406 -9.976562 8 -8.863281 8 -7.78125 Z M 8 -7.78125 "/></g></g></g><g fill="#000000" fill-opacity="1"><g transform="translate(622.782974, 274.473058)"><g><path d="M 7.234375 -12.28125 L 9.265625 -12.28125 L 8.75 -9.859375 L 6.703125 -9.859375 L 5.625 -4.53125 C 5.457031 -3.832031 5.375 -3.347656 5.375 -3.078125 C 5.375 -2.796875 5.460938 -2.585938 5.640625 -2.453125 C 5.816406 -2.316406 6.09375 -2.25 6.46875 -2.25 C 6.71875 -2.25 7.082031 -2.28125 7.5625 -2.34375 L 7.046875 0.125 C 6.648438 0.21875 6.085938 0.265625 5.359375 0.265625 C 3.066406 0.265625 1.921875 -0.570312 1.921875 -2.25 C 1.921875 -2.582031 2.007812 -3.210938 2.1875 -4.140625 L 2.296875 -4.6875 L 3.390625 -9.859375 L 1.78125 -9.859375 L 2.296875 -12.28125 L 3.90625 -12.28125 L 4.3125 -14.25 L 8.109375 -16.546875 Z M 7.234375 -12.28125 "/></g></g></g><g fill="#000000" fill-opacity="1"><g transform="translate(630.674484, 274.473058)"><g><path d="M 8.515625 -12.5625 C 9.953125 -12.5625 11.101562 -12.1875 11.96875 -11.4375 C 12.84375 -10.6875 13.332031 -9.695312 13.4375 -8.46875 L 10.265625 -8.125 C 10.148438 -9.40625 9.492188 -10.046875 8.296875 -10.046875 C 7.597656 -10.046875 6.984375 -9.789062 6.453125 -9.28125 C 5.929688 -8.769531 5.519531 -8.097656 5.21875 -7.265625 C 4.925781 -6.429688 4.78125 -5.554688 4.78125 -4.640625 C 4.78125 -3.890625 4.953125 -3.316406 5.296875 -2.921875 C 5.640625 -2.523438 6.085938 -2.328125 6.640625 -2.328125 C 7.191406 -2.328125 7.707031 -2.523438 8.1875 -2.921875 C 8.664062 -3.316406 9.039062 -3.890625 9.3125 -4.640625 L 12.5625 -4.09375 C 12.039062 -2.6875 11.265625 -1.601562 10.234375 -0.84375 C 9.210938 -0.09375 8.003906 0.28125 6.609375 0.28125 C 5.003906 0.28125 3.742188 -0.191406 2.828125 -1.140625 C 1.910156 -2.085938 1.453125 -3.34375 1.453125 -4.90625 C 1.453125 -6.375 1.75 -7.6875 2.34375 -8.84375 C 2.945312 -10.007812 3.78125 -10.921875 4.84375 -11.578125 C 5.914062 -12.234375 7.140625 -12.5625 8.515625 -12.5625 Z M 8.515625 -12.5625 "/></g></g></g><path stroke-linecap="round" transform="matrix(-0.415133, 0.622963, -0.622963, -0.415133, 612.625508, 292.40747)" fill="none" stroke-linejoin="miter" d="M 1.498039 1.498178 L 55.739538 1.501531 " stroke="#000000" stroke-width="3" stroke-opacity="1" stroke-miterlimit="4"/><path stroke-linecap="round" transform="matrix(-0.415133, 0.622963, -0.622963, -0.415133, 612.625508, 292.40747)" fill-opacity="1" fill="#000000" fill-rule="nonzero" stroke-linejoin="round" d="M 57.242622 -2.999004 L 63.238989 1.501548 L 57.239418 6.001205 Z M 57.242622 -2.999004 " stroke="#000000" stroke-width="3" stroke-opacity="1" stroke-miterlimit="4"/></svg>