<svg xmlns="http://www.w3.org/2000/svg" xmlns:xlink="http://www.w3.org/1999/xlink" width="547" zoomAndPan="magnify" viewBox="0 0 410.25 195.000001" height="260" preserveAspectRatio="xMidYMid meet" version="1.0"><defs><g/><clipPath id="70eb364188"><path d="M 0.675781 25.664062 L 408.085938 25.664062 L 408.085938 193.550781 L 0.675781 193.550781 Z M 0.675781 25.664062 " clip-rule="nonzero"/></clipPath><clipPath id="efd6f1499e"><path d="M 10.375 25.664062 L 398.628906 25.664062 C 401.199219 25.664062 403.667969 26.683594 405.488281 28.503906 C 407.304688 30.324219 408.328125 32.789062 408.328125 35.363281 L 408.328125 183.664062 C 408.328125 186.238281 407.304688 188.703125 405.488281 190.523438 C 403.667969 192.34375 401.199219 193.363281 398.628906 193.363281 L 10.375 193.363281 C 7.800781 193.363281 5.335938 192.34375 3.515625 190.523438 C 1.695312 188.703125 0.675781 186.238281 0.675781 183.664062 L 0.675781 35.363281 C 0.675781 32.789062 1.695312 30.324219 3.515625 28.503906 C 5.335938 26.683594 7.800781 25.664062 10.375 25.664062 Z M 10.375 25.664062 " clip-rule="nonzero"/></clipPath><clipPath id="5a558dad19"><path d="M 37.429688 113.730469 L 177.085938 113.730469 L 177.085938 164.441406 L 37.429688 164.441406 Z M 37.429688 113.730469 " clip-rule="nonzero"/></clipPath><clipPath id="fdec992cad"><path d="M 44.144531 113.730469 L 170.371094 113.730469 C 174.082031 113.730469 177.085938 116.738281 177.085938 120.445312 L 177.085938 157.726562 C 177.085938 161.4375 174.082031 164.441406 170.371094 164.441406 L 44.144531 164.441406 C 40.433594 164.441406 37.429688 161.4375 37.429688 157.726562 L 37.429688 120.445312 C 37.429688 116.738281 40.433594 113.730469 44.144531 113.730469 Z M 44.144531 113.730469 " clip-rule="nonzero"/></clipPath><clipPath id="d84e62d231"><path d="M 37.4375 113.730469 L 176.964844 113.730469 L 176.964844 164.46875 L 37.4375 164.46875 Z M 37.4375 113.730469 " clip-rule="nonzero"/></clipPath><clipPath id="284cda1f04"><path d="M 44.152344 113.730469 L 170.359375 113.730469 C 174.066406 113.730469 177.070312 116.734375 177.070312 120.445312 L 177.070312 157.71875 C 177.070312 161.429688 174.066406 164.433594 170.359375 164.433594 L 44.152344 164.433594 C 40.441406 164.433594 37.4375 161.429688 37.4375 157.71875 L 37.4375 120.445312 C 37.4375 116.734375 40.441406 113.730469 44.152344 113.730469 Z M 44.152344 113.730469 " clip-rule="nonzero"/></clipPath></defs><g clip-path="url(#70eb364188)"><g clip-path="url(#efd6f1499e)"><path stroke-linecap="butt" transform="matrix(0.746173, 0, 0, 0.746173, 0.674171, 25.662399)" fill="none" stroke-linejoin="miter" d="M 13.00077 0.00222893 L 533.327391 0.00222893 C 536.77205 0.00222893 540.080597 1.368575 542.520127 3.808105 C 544.954422 6.247635 546.326003 9.550947 546.326003 13.000841 L 546.326003 211.749245 C 546.326003 215.199139 544.954422 218.502451 542.520127 220.941981 C 540.080597 223.381511 536.77205 224.747857 533.327391 224.747857 L 13.00077 224.747857 C 9.550876 224.747857 6.247564 223.381511 3.808034 220.941981 C 1.368504 218.502451 0.0021582 215.199139 0.0021582 211.749245 L 0.0021582 13.000841 C 0.0021582 9.550947 1.368504 6.247635 3.808034 3.808105 C 6.247564 1.368575 9.550876 0.00222893 13.00077 0.00222893 Z M 13.00077 0.00222893 " stroke="#9b0e34" stroke-width="8" stroke-opacity="1" stroke-miterlimit="4"/></g></g><g clip-path="url(#5a558dad19)"><g clip-path="url(#fdec992cad)"><path fill="#9b0e34" d="M 37.429688 113.730469 L 177.085938 113.730469 L 177.085938 164.441406 L 37.429688 164.441406 Z M 37.429688 113.730469 " fill-opacity="1" fill-rule="nonzero"/></g></g><g clip-path="url(#d84e62d231)"><g clip-path="url(#284cda1f04)"><path stroke-linecap="butt" transform="matrix(0.746173, 0, 0, 0.746173, 37.436268, 113.729841)" fill="none" stroke-linejoin="miter" d="M 9.00069 0.000840667 L 178.139692 0.000840667 C 183.107748 0.000840667 187.133496 4.026589 187.133496 8.999879 L 187.133496 58.952659 C 187.133496 63.92595 183.107748 67.951698 178.139692 67.951698 L 9.00069 67.951698 C 4.027399 67.951698 0.00165124 63.92595 0.00165124 58.952659 L 0.00165124 8.999879 C 0.00165124 4.026589 4.027399 0.000840667 9.00069 0.000840667 Z M 9.00069 0.000840667 " stroke="#9b0e34" stroke-width="8" stroke-opacity="1" stroke-miterlimit="4"/></g></g><path fill="#ffffff" d="M 57.335938 52.445312 L 57.335938 15.632812 C 57.335938 10.824219 61.234375 6.929688 66.042969 6.929688 L 191.363281 6.929688 C 193.671875 6.929688 195.886719 7.84375 197.519531 9.476562 C 199.152344 11.109375 200.070312 13.324219 200.070312 15.632812 L 200.070312 52.445312 C 200.070312 54.753906 199.152344 56.96875 197.519531 58.601562 C 195.886719 60.234375 193.671875 61.148438 191.363281 61.148438 L 66.042969 61.148438 C 61.234375 61.148438 57.335938 57.253906 57.335938 52.445312 Z M 57.335938 52.445312 " fill-opacity="1" fill-rule="nonzero"/><g fill="#9b0e34" fill-opacity="1"><g transform="translate(65.296085, 32.546986)"><g><path d="M 8.53125 -9.328125 C 8.53125 -9.992188 8.335938 -10.507812 7.953125 -10.875 C 7.566406 -11.238281 6.988281 -11.421875 6.21875 -11.421875 L 4.78125 -11.421875 L 4.78125 -7.15625 L 6.296875 -7.15625 C 7.015625 -7.15625 7.566406 -7.34375 7.953125 -7.71875 C 8.335938 -8.09375 8.53125 -8.628906 8.53125 -9.328125 Z M 11.796875 -9.359375 C 11.796875 -8.460938 11.59375 -7.675781 11.1875 -7 C 10.789062 -6.332031 10.207031 -5.8125 9.4375 -5.4375 C 8.664062 -5.070312 7.75 -4.890625 6.6875 -4.890625 L 4.78125 -4.890625 L 4.78125 0 L 1.53125 0 L 1.53125 -13.6875 L 6.578125 -13.6875 C 8.265625 -13.6875 9.554688 -13.3125 10.453125 -12.5625 C 11.347656 -11.820312 11.796875 -10.753906 11.796875 -9.359375 Z M 11.796875 -9.359375 "/></g></g></g><g fill="#9b0e34" fill-opacity="1"><g transform="translate(77.513787, 32.546986)"><g><path d="M 14.171875 -6.90625 C 14.171875 -4.664062 13.585938 -2.921875 12.421875 -1.671875 C 11.265625 -0.429688 9.632812 0.1875 7.53125 0.1875 C 5.394531 0.1875 3.753906 -0.421875 2.609375 -1.640625 C 1.472656 -2.867188 0.90625 -4.625 0.90625 -6.90625 C 0.90625 -9.15625 1.472656 -10.878906 2.609375 -12.078125 C 3.753906 -13.285156 5.398438 -13.890625 7.546875 -13.890625 C 9.679688 -13.890625 11.316406 -13.285156 12.453125 -12.078125 C 13.597656 -10.878906 14.171875 -9.15625 14.171875 -6.90625 Z M 10.890625 -6.90625 C 10.890625 -9.875 9.773438 -11.359375 7.546875 -11.359375 C 6.421875 -11.359375 5.582031 -10.992188 5.03125 -10.265625 C 4.476562 -9.546875 4.203125 -8.425781 4.203125 -6.90625 C 4.203125 -3.851562 5.3125 -2.328125 7.53125 -2.328125 C 8.664062 -2.328125 9.507812 -2.691406 10.0625 -3.421875 C 10.613281 -4.160156 10.890625 -5.320312 10.890625 -6.90625 Z M 10.890625 -6.90625 "/></g></g></g><g fill="#9b0e34" fill-opacity="1"><g transform="translate(92.596531, 32.546986)"><g><path d="M 8.53125 -9.328125 C 8.53125 -9.992188 8.335938 -10.507812 7.953125 -10.875 C 7.566406 -11.238281 6.988281 -11.421875 6.21875 -11.421875 L 4.78125 -11.421875 L 4.78125 -7.15625 L 6.296875 -7.15625 C 7.015625 -7.15625 7.566406 -7.34375 7.953125 -7.71875 C 8.335938 -8.09375 8.53125 -8.628906 8.53125 -9.328125 Z M 11.796875 -9.359375 C 11.796875 -8.460938 11.59375 -7.675781 11.1875 -7 C 10.789062 -6.332031 10.207031 -5.8125 9.4375 -5.4375 C 8.664062 -5.070312 7.75 -4.890625 6.6875 -4.890625 L 4.78125 -4.890625 L 4.78125 0 L 1.53125 0 L 1.53125 -13.6875 L 6.578125 -13.6875 C 8.265625 -13.6875 9.554688 -13.3125 10.453125 -12.5625 C 11.347656 -11.820312 11.796875 -10.753906 11.796875 -9.359375 Z M 11.796875 -9.359375 "/></g></g></g><g fill="#9b0e34" fill-opacity="1"><g transform="translate(104.814233, 32.546986)"><g><path d="M 12.96875 -5.3125 C 12.96875 -3.5 12.476562 -2.128906 11.5 -1.203125 C 10.519531 -0.273438 9.066406 0.1875 7.140625 0.1875 C 5.242188 0.1875 3.816406 -0.265625 2.859375 -1.171875 C 1.898438 -2.078125 1.421875 -3.421875 1.421875 -5.203125 L 1.421875 -13.6875 L 4.65625 -13.6875 L 4.65625 -5.40625 C 4.65625 -4.320312 4.875 -3.535156 5.3125 -3.046875 C 5.757812 -2.566406 6.398438 -2.328125 7.234375 -2.328125 C 8.085938 -2.328125 8.71875 -2.582031 9.125 -3.09375 C 9.53125 -3.601562 9.734375 -4.414062 9.734375 -5.53125 L 9.734375 -13.6875 L 12.96875 -13.6875 Z M 12.96875 -5.3125 "/></g></g></g><g fill="#9b0e34" fill-opacity="1"><g transform="translate(119.197712, 32.546986)"><g><path d="M 1.53125 0 L 1.53125 -13.6875 L 4.796875 -13.6875 L 4.796875 -2.53125 L 9.828125 -2.53125 L 9.828125 0 Z M 1.53125 0 "/></g></g></g><g fill="#9b0e34" fill-opacity="1"><g transform="translate(129.366181, 32.546986)"><g><path d="M 10.578125 0 L 9.453125 -3.296875 L 4.46875 -3.296875 L 3.359375 0 L 0.15625 0 L 5.0625 -13.6875 L 8.875 -13.6875 L 13.78125 0 Z M 6.953125 -11.359375 C 6.804688 -10.710938 6.628906 -10.070312 6.421875 -9.4375 L 5.171875 -5.6875 L 8.796875 -5.6875 L 7.53125 -9.4375 C 7.320312 -10.070312 7.144531 -10.710938 7 -11.359375 Z M 6.953125 -11.359375 "/></g></g></g><g fill="#9b0e34" fill-opacity="1"><g transform="translate(143.351468, 32.546986)"><g><path d="M 7.453125 -11.125 L 7.453125 0 L 4.203125 0 L 4.203125 -11.125 L 0.28125 -11.125 L 0.28125 -13.6875 L 11.375 -13.6875 L 11.375 -11.125 Z M 7.453125 -11.125 "/></g></g></g><g fill="#9b0e34" fill-opacity="1"><g transform="translate(155.005873, 32.546986)"><g><path d="M 1.53125 0 L 1.53125 -13.6875 L 4.796875 -13.6875 L 4.796875 0 Z M 1.53125 0 "/></g></g></g><g fill="#9b0e34" fill-opacity="1"><g transform="translate(161.308964, 32.546986)"><g><path d="M 14.171875 -6.90625 C 14.171875 -4.664062 13.585938 -2.921875 12.421875 -1.671875 C 11.265625 -0.429688 9.632812 0.1875 7.53125 0.1875 C 5.394531 0.1875 3.753906 -0.421875 2.609375 -1.640625 C 1.472656 -2.867188 0.90625 -4.625 0.90625 -6.90625 C 0.90625 -9.15625 1.472656 -10.878906 2.609375 -12.078125 C 3.753906 -13.285156 5.398438 -13.890625 7.546875 -13.890625 C 9.679688 -13.890625 11.316406 -13.285156 12.453125 -12.078125 C 13.597656 -10.878906 14.171875 -9.15625 14.171875 -6.90625 Z M 10.890625 -6.90625 C 10.890625 -9.875 9.773438 -11.359375 7.546875 -11.359375 C 6.421875 -11.359375 5.582031 -10.992188 5.03125 -10.265625 C 4.476562 -9.546875 4.203125 -8.425781 4.203125 -6.90625 C 4.203125 -3.851562 5.3125 -2.328125 7.53125 -2.328125 C 8.664062 -2.328125 9.507812 -2.691406 10.0625 -3.421875 C 10.613281 -4.160156 10.890625 -5.320312 10.890625 -6.90625 Z M 10.890625 -6.90625 "/></g></g></g><g fill="#9b0e34" fill-opacity="1"><g transform="translate(176.391708, 32.546986)"><g><path d="M 10.25 0 L 4.328125 -10.203125 C 4.390625 -8.878906 4.421875 -8.046875 4.421875 -7.703125 L 4.421875 0 L 1.53125 0 L 1.53125 -13.6875 L 5.40625 -13.6875 L 11.421875 -3.40625 C 11.398438 -3.675781 11.375 -4.03125 11.34375 -4.46875 C 11.320312 -4.90625 11.3125 -5.453125 11.3125 -6.109375 L 11.3125 -13.6875 L 14.1875 -13.6875 L 14.1875 0 Z M 10.25 0 "/></g></g></g><g fill="#9b0e34" fill-opacity="1"><g transform="translate(71.137224, 51.947496)"><g><path d="M 10.609375 -4 C 10.609375 -2.65625 10.164062 -1.617188 9.28125 -0.890625 C 8.40625 -0.171875 7.140625 0.1875 5.484375 0.1875 C 4.023438 0.1875 2.875 -0.117188 2.03125 -0.734375 C 1.195312 -1.359375 0.65625 -2.34375 0.40625 -3.6875 L 3.421875 -4.15625 C 3.523438 -3.53125 3.769531 -3.046875 4.15625 -2.703125 C 4.550781 -2.367188 5.0625 -2.203125 5.6875 -2.203125 C 6.894531 -2.203125 7.5 -2.738281 7.5 -3.8125 C 7.5 -4.15625 7.414062 -4.429688 7.25 -4.640625 C 7.09375 -4.859375 6.878906 -5.039062 6.609375 -5.1875 C 6.335938 -5.332031 6.03125 -5.453125 5.6875 -5.546875 C 5.34375 -5.648438 4.988281 -5.75 4.625 -5.84375 C 3.875 -6.0625 3.332031 -6.242188 3 -6.390625 C 2.664062 -6.535156 2.367188 -6.707031 2.109375 -6.90625 C 1.847656 -7.113281 1.625 -7.363281 1.4375 -7.65625 C 1.25 -7.945312 1.101562 -8.285156 1 -8.671875 C 0.894531 -9.054688 0.84375 -9.5 0.84375 -10 C 0.84375 -11.25 1.25 -12.207031 2.0625 -12.875 C 2.882812 -13.550781 4.039062 -13.890625 5.53125 -13.890625 C 6.914062 -13.890625 7.972656 -13.613281 8.703125 -13.0625 C 9.441406 -12.519531 9.953125 -11.617188 10.234375 -10.359375 L 7.140625 -9.984375 C 7.066406 -10.492188 6.882812 -10.890625 6.59375 -11.171875 C 6.300781 -11.460938 5.9375 -11.609375 5.5 -11.609375 C 5.039062 -11.609375 4.671875 -11.472656 4.390625 -11.203125 C 4.109375 -10.941406 3.96875 -10.601562 3.96875 -10.1875 C 3.96875 -9.789062 4.09375 -9.46875 4.34375 -9.21875 C 4.601562 -8.96875 5 -8.765625 5.53125 -8.609375 L 7.5 -8.015625 C 8.613281 -7.691406 9.410156 -7.207031 9.890625 -6.5625 C 10.367188 -5.925781 10.609375 -5.070312 10.609375 -4 Z M 10.609375 -4 "/></g></g></g><g fill="#9b0e34" fill-opacity="1"><g transform="translate(82.286606, 51.947496)"><g><path d="M 1.53125 0 L 1.53125 -13.6875 L 4.796875 -13.6875 L 4.796875 0 Z M 1.53125 0 "/></g></g></g><g fill="#9b0e34" fill-opacity="1"><g transform="translate(88.589697, 51.947496)"><g><path d="M 11.640625 0 L 0.4375 0 L 0.4375 -2.25 L 7.453125 -11.140625 L 1.1875 -11.140625 L 1.1875 -13.6875 L 11.078125 -13.6875 L 11.078125 -11.453125 L 4.0625 -2.53125 L 11.640625 -2.53125 Z M 11.640625 0 "/></g></g></g><g fill="#9b0e34" fill-opacity="1"><g transform="translate(100.661719, 51.947496)"><g><path d="M 1.53125 0 L 1.53125 -13.6875 L 9.65625 -13.6875 L 9.65625 -11.140625 L 4.796875 -11.140625 L 4.796875 -8.15625 L 9.046875 -8.15625 L 9.046875 -5.6875 L 4.796875 -5.6875 L 4.796875 -2.53125 L 10.046875 -2.53125 L 10.046875 0 Z M 1.53125 0 "/></g></g></g><g fill="#9b0e34" fill-opacity="1"><g transform="translate(111.247804, 51.947496)"><g/></g></g><g fill="#9b0e34" fill-opacity="1"><g transform="translate(116.735087, 51.947496)"><g><path d="M 14.625 0 L 14.625 -7.9375 C 14.625 -8.414062 14.628906 -8.898438 14.640625 -9.390625 C 14.660156 -9.878906 14.675781 -10.367188 14.6875 -10.859375 C 14.550781 -10.472656 14.414062 -10.078125 14.28125 -9.671875 C 14.15625 -9.273438 14.019531 -8.878906 13.875 -8.484375 L 10.6875 0 L 8.421875 0 L 5.15625 -8.484375 C 4.84375 -9.296875 4.578125 -10.085938 4.359375 -10.859375 C 4.367188 -10.367188 4.378906 -9.882812 4.390625 -9.40625 C 4.410156 -8.925781 4.421875 -8.441406 4.421875 -7.953125 L 4.421875 0 L 1.53125 0 L 1.53125 -13.6875 L 5.890625 -13.6875 L 8.171875 -7.765625 C 8.460938 -7.023438 8.753906 -6.234375 9.046875 -5.390625 C 9.335938 -4.546875 9.503906 -4.003906 9.546875 -3.765625 C 10.046875 -5.203125 10.535156 -6.566406 11.015625 -7.859375 L 13.1875 -13.6875 L 17.5 -13.6875 L 17.5 0 Z M 14.625 0 "/></g></g></g><g fill="#9b0e34" fill-opacity="1"><g transform="translate(135.770616, 51.947496)"><g><path d="M 14.171875 -6.90625 C 14.171875 -4.664062 13.585938 -2.921875 12.421875 -1.671875 C 11.265625 -0.429688 9.632812 0.1875 7.53125 0.1875 C 5.394531 0.1875 3.753906 -0.421875 2.609375 -1.640625 C 1.472656 -2.867188 0.90625 -4.625 0.90625 -6.90625 C 0.90625 -9.15625 1.472656 -10.878906 2.609375 -12.078125 C 3.753906 -13.285156 5.398438 -13.890625 7.546875 -13.890625 C 9.679688 -13.890625 11.316406 -13.285156 12.453125 -12.078125 C 13.597656 -10.878906 14.171875 -9.15625 14.171875 -6.90625 Z M 10.890625 -6.90625 C 10.890625 -9.875 9.773438 -11.359375 7.546875 -11.359375 C 6.421875 -11.359375 5.582031 -10.992188 5.03125 -10.265625 C 4.476562 -9.546875 4.203125 -8.425781 4.203125 -6.90625 C 4.203125 -3.851562 5.3125 -2.328125 7.53125 -2.328125 C 8.664062 -2.328125 9.507812 -2.691406 10.0625 -3.421875 C 10.613281 -4.160156 10.890625 -5.320312 10.890625 -6.90625 Z M 10.890625 -6.90625 "/></g></g></g><g fill="#9b0e34" fill-opacity="1"><g transform="translate(150.853359, 51.947496)"><g><path d="M 10.46875 -6.921875 C 10.46875 -8.296875 10.117188 -9.34375 9.421875 -10.0625 C 8.734375 -10.789062 7.734375 -11.15625 6.421875 -11.15625 L 4.78125 -11.15625 L 4.78125 -2.53125 L 6.8125 -2.53125 C 7.945312 -2.53125 8.835938 -2.914062 9.484375 -3.6875 C 10.140625 -4.46875 10.46875 -5.546875 10.46875 -6.921875 Z M 13.734375 -6.921875 C 13.734375 -5.515625 13.457031 -4.285156 12.90625 -3.234375 C 12.351562 -2.191406 11.570312 -1.390625 10.5625 -0.828125 C 9.5625 -0.273438 8.398438 0 7.078125 0 L 1.53125 0 L 1.53125 -13.6875 L 6.484375 -13.6875 C 8.796875 -13.6875 10.582031 -13.097656 11.84375 -11.921875 C 13.101562 -10.753906 13.734375 -9.085938 13.734375 -6.921875 Z M 13.734375 -6.921875 "/></g></g></g><g fill="#9b0e34" fill-opacity="1"><g transform="translate(165.518486, 51.947496)"><g><path d="M 1.53125 0 L 1.53125 -13.6875 L 9.65625 -13.6875 L 9.65625 -11.140625 L 4.796875 -11.140625 L 4.796875 -8.15625 L 9.046875 -8.15625 L 9.046875 -5.6875 L 4.796875 -5.6875 L 4.796875 -2.53125 L 10.046875 -2.53125 L 10.046875 0 Z M 1.53125 0 "/></g></g></g><g fill="#9b0e34" fill-opacity="1"><g transform="translate(176.104572, 51.947496)"><g><path d="M 1.53125 0 L 1.53125 -13.6875 L 4.796875 -13.6875 L 4.796875 -2.53125 L 9.828125 -2.53125 L 9.828125 0 Z M 1.53125 0 "/></g></g></g><g fill="#ffffff" fill-opacity="1"><g transform="translate(69.208537, 132.747923)"><g><path d="M 7.09375 -8.890625 C 7.09375 -9.816406 6.46875 -10.28125 5.21875 -10.28125 L 4.296875 -10.28125 L 4.296875 -7.359375 L 5.234375 -7.359375 C 5.890625 -7.359375 6.363281 -7.492188 6.65625 -7.765625 C 6.945312 -8.046875 7.09375 -8.421875 7.09375 -8.890625 Z M 7.8125 -3.78125 C 7.8125 -4.300781 7.609375 -4.703125 7.203125 -4.984375 C 6.804688 -5.273438 6.226562 -5.421875 5.46875 -5.421875 L 4.296875 -5.421875 L 4.296875 -2.03125 L 5.59375 -2.03125 C 7.070312 -2.03125 7.8125 -2.613281 7.8125 -3.78125 Z M 10.75 -3.453125 C 10.75 -2.347656 10.328125 -1.492188 9.484375 -0.890625 C 8.648438 -0.296875 7.457031 0 5.90625 0 L 1.375 0 L 1.375 -12.3125 L 5.390625 -12.3125 C 8.484375 -12.3125 10.03125 -11.304688 10.03125 -9.296875 C 10.03125 -8.554688 9.828125 -7.941406 9.421875 -7.453125 C 9.015625 -6.960938 8.4375 -6.632812 7.6875 -6.46875 C 8.6875 -6.351562 9.445312 -6.035156 9.96875 -5.515625 C 10.488281 -4.992188 10.75 -4.304688 10.75 -3.453125 Z M 10.75 -3.453125 "/></g></g><g transform="translate(80.689698, 132.747923)"><g><path d="M 5.9375 -7.0625 C 5.34375 -7.0625 4.859375 -6.785156 4.484375 -6.234375 C 4.109375 -5.679688 3.921875 -4.96875 3.921875 -4.09375 L 3.921875 0 L 1.15625 0 L 1.15625 -6.78125 C 1.15625 -7.53125 1.128906 -8.273438 1.078125 -9.015625 L 3.734375 -9.015625 C 3.804688 -7.960938 3.84375 -7.285156 3.84375 -6.984375 L 3.875 -6.984375 C 4.144531 -7.785156 4.460938 -8.351562 4.828125 -8.6875 C 5.191406 -9.03125 5.65625 -9.203125 6.21875 -9.203125 C 6.5 -9.203125 6.738281 -9.15625 6.9375 -9.0625 L 6.9375 -6.953125 C 6.625 -7.023438 6.289062 -7.0625 5.9375 -7.0625 Z M 5.9375 -7.0625 "/></g></g><g transform="translate(87.816237, 132.747923)"><g><path d="M 3.546875 -3.9375 C 3.609375 -3.144531 3.769531 -2.554688 4.03125 -2.171875 C 4.300781 -1.785156 4.679688 -1.59375 5.171875 -1.59375 C 5.484375 -1.59375 5.757812 -1.691406 6 -1.890625 C 6.25 -2.097656 6.503906 -2.484375 6.765625 -3.046875 L 8.953125 -2.109375 C 8.523438 -1.441406 8.132812 -0.960938 7.78125 -0.671875 C 7.425781 -0.390625 7.015625 -0.175781 6.546875 -0.03125 C 6.078125 0.101562 5.519531 0.171875 4.875 0.171875 C 3.507812 0.171875 2.460938 -0.234375 1.734375 -1.046875 C 1.003906 -1.859375 0.640625 -3.023438 0.640625 -4.546875 C 0.640625 -6.054688 1.007812 -7.207031 1.75 -8 C 2.488281 -8.800781 3.578125 -9.203125 5.015625 -9.203125 C 6.347656 -9.203125 7.359375 -8.769531 8.046875 -7.90625 C 8.734375 -7.039062 9.078125 -5.757812 9.078125 -4.0625 L 9.078125 -3.9375 Z M 4.953125 -7.484375 C 4.566406 -7.484375 4.25 -7.328125 4 -7.015625 C 3.75 -6.703125 3.601562 -6.207031 3.5625 -5.53125 L 6.234375 -5.53125 C 6.179688 -6.21875 6.054688 -6.710938 5.859375 -7.015625 C 5.660156 -7.328125 5.359375 -7.484375 4.953125 -7.484375 Z M 4.953125 -7.484375 "/></g></g><g transform="translate(97.504833, 132.747923)"><g><path d="M 3.546875 -3.9375 C 3.609375 -3.144531 3.769531 -2.554688 4.03125 -2.171875 C 4.300781 -1.785156 4.679688 -1.59375 5.171875 -1.59375 C 5.484375 -1.59375 5.757812 -1.691406 6 -1.890625 C 6.25 -2.097656 6.503906 -2.484375 6.765625 -3.046875 L 8.953125 -2.109375 C 8.523438 -1.441406 8.132812 -0.960938 7.78125 -0.671875 C 7.425781 -0.390625 7.015625 -0.175781 6.546875 -0.03125 C 6.078125 0.101562 5.519531 0.171875 4.875 0.171875 C 3.507812 0.171875 2.460938 -0.234375 1.734375 -1.046875 C 1.003906 -1.859375 0.640625 -3.023438 0.640625 -4.546875 C 0.640625 -6.054688 1.007812 -7.207031 1.75 -8 C 2.488281 -8.800781 3.578125 -9.203125 5.015625 -9.203125 C 6.347656 -9.203125 7.359375 -8.769531 8.046875 -7.90625 C 8.734375 -7.039062 9.078125 -5.757812 9.078125 -4.0625 L 9.078125 -3.9375 Z M 4.953125 -7.484375 C 4.566406 -7.484375 4.25 -7.328125 4 -7.015625 C 3.75 -6.703125 3.601562 -6.207031 3.5625 -5.53125 L 6.234375 -5.53125 C 6.179688 -6.21875 6.054688 -6.710938 5.859375 -7.015625 C 5.660156 -7.328125 5.359375 -7.484375 4.953125 -7.484375 Z M 4.953125 -7.484375 "/></g></g><g transform="translate(107.193429, 132.747923)"><g><path d="M 3.53125 -4.5 C 3.53125 -3.539062 3.675781 -2.835938 3.96875 -2.390625 C 4.269531 -1.941406 4.710938 -1.71875 5.296875 -1.71875 C 5.898438 -1.71875 6.363281 -1.960938 6.6875 -2.453125 C 7.007812 -2.953125 7.171875 -3.65625 7.171875 -4.5625 C 7.171875 -5.4375 7.015625 -6.109375 6.703125 -6.578125 C 6.390625 -7.054688 5.925781 -7.296875 5.3125 -7.296875 C 4.707031 -7.296875 4.257812 -7.070312 3.96875 -6.625 C 3.675781 -6.175781 3.53125 -5.46875 3.53125 -4.5 Z M 0.625 -4.5 C 0.625 -6.019531 0.945312 -7.179688 1.59375 -7.984375 C 2.238281 -8.785156 3.171875 -9.1875 4.390625 -9.1875 C 5.679688 -9.1875 6.601562 -8.640625 7.15625 -7.546875 L 7.1875 -7.546875 C 7.15625 -7.984375 7.140625 -8.507812 7.140625 -9.125 L 7.140625 -12.71875 L 9.921875 -12.71875 L 9.921875 -2.09375 C 9.921875 -1.46875 9.953125 -0.769531 10.015625 0 L 7.28125 0 C 7.25 -0.0820312 7.21875 -0.300781 7.1875 -0.65625 C 7.15625 -1.019531 7.140625 -1.296875 7.140625 -1.484375 L 7.109375 -1.484375 C 6.585938 -0.390625 5.640625 0.15625 4.265625 0.15625 C 3.078125 0.15625 2.171875 -0.238281 1.546875 -1.03125 C 0.929688 -1.832031 0.625 -2.988281 0.625 -4.5 Z M 0.625 -4.5 "/></g></g><g transform="translate(118.2811, 132.747923)"><g><path d="M 1.15625 -10.640625 L 1.15625 -12.71875 L 3.921875 -12.71875 L 3.921875 -10.640625 Z M 1.15625 0 L 1.15625 -9.015625 L 3.9375 -9.015625 L 3.9375 0 Z M 1.15625 0 "/></g></g><g transform="translate(123.370236, 132.747923)"><g><path d="M 7.015625 0 L 7.015625 -4.921875 C 7.015625 -6.390625 6.554688 -7.125 5.640625 -7.125 C 5.128906 -7.125 4.71875 -6.882812 4.40625 -6.40625 C 4.09375 -5.9375 3.9375 -5.304688 3.9375 -4.515625 L 3.9375 0 L 1.15625 0 L 1.15625 -6.875 C 1.15625 -7.4375 1.125 -8.148438 1.0625 -9.015625 L 3.734375 -9.015625 C 3.734375 -8.941406 3.738281 -8.832031 3.75 -8.6875 C 3.769531 -8.539062 3.785156 -8.378906 3.796875 -8.203125 C 3.816406 -8.023438 3.828125 -7.84375 3.828125 -7.65625 C 3.835938 -7.46875 3.84375 -7.296875 3.84375 -7.140625 L 3.875 -7.140625 C 4.207031 -7.867188 4.609375 -8.394531 5.078125 -8.71875 C 5.554688 -9.039062 6.128906 -9.203125 6.796875 -9.203125 C 7.773438 -9.203125 8.519531 -8.898438 9.03125 -8.296875 C 9.539062 -7.691406 9.796875 -6.78125 9.796875 -5.5625 L 9.796875 0 Z M 7.015625 0 "/></g></g><g transform="translate(134.204325, 132.747923)"><g><path d="M 0.625 -4.609375 C 0.625 -6.117188 0.953125 -7.257812 1.609375 -8.03125 C 2.273438 -8.800781 3.238281 -9.1875 4.5 -9.1875 C 5.082031 -9.1875 5.609375 -9.046875 6.078125 -8.765625 C 6.546875 -8.492188 6.910156 -8.082031 7.171875 -7.53125 L 7.21875 -7.53125 C 7.21875 -7.71875 7.226562 -7.984375 7.25 -8.328125 C 7.28125 -8.679688 7.316406 -8.910156 7.359375 -9.015625 L 10 -9.015625 C 9.945312 -8.554688 9.921875 -7.863281 9.921875 -6.9375 L 9.921875 -0.265625 C 9.921875 1.078125 9.515625 2.117188 8.703125 2.859375 C 7.898438 3.597656 6.753906 3.96875 5.265625 3.96875 C 2.765625 3.96875 1.359375 3.117188 1.046875 1.421875 L 3.796875 1.015625 C 3.972656 1.765625 4.492188 2.140625 5.359375 2.140625 C 6.578125 2.140625 7.1875 1.335938 7.1875 -0.265625 L 7.1875 -1 C 7.1875 -1.125 7.1875 -1.253906 7.1875 -1.390625 C 7.195312 -1.523438 7.207031 -1.660156 7.21875 -1.796875 L 7.171875 -1.796875 C 6.609375 -0.628906 5.648438 -0.046875 4.296875 -0.046875 C 3.109375 -0.046875 2.195312 -0.429688 1.5625 -1.203125 C 0.9375 -1.972656 0.625 -3.109375 0.625 -4.609375 Z M 3.53125 -4.609375 C 3.53125 -2.847656 4.117188 -1.96875 5.296875 -1.96875 C 5.898438 -1.96875 6.359375 -2.195312 6.671875 -2.65625 C 6.992188 -3.125 7.15625 -3.789062 7.15625 -4.65625 C 7.15625 -5.488281 7 -6.132812 6.6875 -6.59375 C 6.375 -7.0625 5.914062 -7.296875 5.3125 -7.296875 C 4.125 -7.296875 3.53125 -6.398438 3.53125 -4.609375 Z M 3.53125 -4.609375 "/></g></g></g><g fill="#ffffff" fill-opacity="1"><g transform="translate(58.260773, 150.656086)"><g><path d="M 0.625 -4.484375 C 0.625 -6.003906 0.960938 -7.171875 1.640625 -7.984375 C 2.328125 -8.804688 3.289062 -9.21875 4.53125 -9.21875 C 6.675781 -9.21875 7.914062 -8.160156 8.25 -6.046875 L 5.515625 -5.828125 C 5.484375 -6.296875 5.378906 -6.660156 5.203125 -6.921875 C 5.023438 -7.179688 4.800781 -7.3125 4.53125 -7.3125 C 4.132812 -7.3125 3.847656 -7.09375 3.671875 -6.65625 C 3.503906 -6.21875 3.421875 -5.519531 3.421875 -4.5625 C 3.421875 -3.601562 3.519531 -2.890625 3.71875 -2.421875 C 3.914062 -1.960938 4.1875 -1.734375 4.53125 -1.734375 C 5.101562 -1.734375 5.457031 -2.285156 5.59375 -3.390625 L 8.25 -3.140625 C 8.125 -2.046875 7.75 -1.21875 7.125 -0.65625 C 6.5 -0.101562 5.644531 0.171875 4.5625 0.171875 C 3.3125 0.171875 2.34375 -0.238281 1.65625 -1.0625 C 0.96875 -1.882812 0.625 -3.023438 0.625 -4.484375 Z M 0.625 -4.484375 "/></g></g><g transform="translate(66.856342, 150.656086)"><g><path d="M 3.546875 -3.9375 C 3.609375 -3.144531 3.769531 -2.554688 4.03125 -2.171875 C 4.300781 -1.785156 4.679688 -1.59375 5.171875 -1.59375 C 5.484375 -1.59375 5.757812 -1.691406 6 -1.890625 C 6.25 -2.097656 6.503906 -2.484375 6.765625 -3.046875 L 8.953125 -2.109375 C 8.523438 -1.441406 8.132812 -0.960938 7.78125 -0.671875 C 7.425781 -0.390625 7.015625 -0.175781 6.546875 -0.03125 C 6.078125 0.101562 5.519531 0.171875 4.875 0.171875 C 3.507812 0.171875 2.460938 -0.234375 1.734375 -1.046875 C 1.003906 -1.859375 0.640625 -3.023438 0.640625 -4.546875 C 0.640625 -6.054688 1.007812 -7.207031 1.75 -8 C 2.488281 -8.800781 3.578125 -9.203125 5.015625 -9.203125 C 6.347656 -9.203125 7.359375 -8.769531 8.046875 -7.90625 C 8.734375 -7.039062 9.078125 -5.757812 9.078125 -4.0625 L 9.078125 -3.9375 Z M 4.953125 -7.484375 C 4.566406 -7.484375 4.25 -7.328125 4 -7.015625 C 3.75 -6.703125 3.601562 -6.207031 3.5625 -5.53125 L 6.234375 -5.53125 C 6.179688 -6.21875 6.054688 -6.710938 5.859375 -7.015625 C 5.660156 -7.328125 5.359375 -7.484375 4.953125 -7.484375 Z M 4.953125 -7.484375 "/></g></g><g transform="translate(76.544938, 150.656086)"><g><path d="M 7.015625 0 L 7.015625 -4.921875 C 7.015625 -6.390625 6.554688 -7.125 5.640625 -7.125 C 5.128906 -7.125 4.71875 -6.882812 4.40625 -6.40625 C 4.09375 -5.9375 3.9375 -5.304688 3.9375 -4.515625 L 3.9375 0 L 1.15625 0 L 1.15625 -6.875 C 1.15625 -7.4375 1.125 -8.148438 1.0625 -9.015625 L 3.734375 -9.015625 C 3.734375 -8.941406 3.738281 -8.832031 3.75 -8.6875 C 3.769531 -8.539062 3.785156 -8.378906 3.796875 -8.203125 C 3.816406 -8.023438 3.828125 -7.84375 3.828125 -7.65625 C 3.835938 -7.46875 3.84375 -7.296875 3.84375 -7.140625 L 3.875 -7.140625 C 4.207031 -7.867188 4.609375 -8.394531 5.078125 -8.71875 C 5.554688 -9.039062 6.128906 -9.203125 6.796875 -9.203125 C 7.773438 -9.203125 8.519531 -8.898438 9.03125 -8.296875 C 9.539062 -7.691406 9.796875 -6.78125 9.796875 -5.5625 L 9.796875 0 Z M 7.015625 0 "/></g></g><g transform="translate(87.379026, 150.656086)"><g><path d="M 7.46875 -2.6875 C 7.46875 -1.78125 7.15625 -1.078125 6.53125 -0.578125 C 5.90625 -0.078125 5.046875 0.171875 3.953125 0.171875 C 2.785156 0.171875 1.941406 -0.00390625 1.421875 -0.359375 C 0.898438 -0.710938 0.550781 -1.296875 0.375 -2.109375 L 2.703125 -2.453125 C 2.796875 -1.816406 3.195312 -1.5 3.90625 -1.5 C 4.207031 -1.5 4.453125 -1.566406 4.640625 -1.703125 C 4.835938 -1.835938 4.9375 -2.050781 4.9375 -2.34375 C 4.9375 -2.550781 4.878906 -2.726562 4.765625 -2.875 C 4.648438 -3.03125 4.484375 -3.164062 4.265625 -3.28125 C 4.046875 -3.40625 3.632812 -3.550781 3.03125 -3.71875 C 2.375 -3.914062 1.898438 -4.125 1.609375 -4.34375 C 1.316406 -4.5625 1.09375 -4.835938 0.9375 -5.171875 C 0.78125 -5.503906 0.703125 -5.921875 0.703125 -6.421875 C 0.703125 -7.296875 0.984375 -7.976562 1.546875 -8.46875 C 2.117188 -8.957031 2.9375 -9.203125 4 -9.203125 C 5.007812 -9.203125 5.769531 -9.019531 6.28125 -8.65625 C 6.800781 -8.289062 7.117188 -7.738281 7.234375 -7 L 4.90625 -6.765625 C 4.863281 -7.035156 4.769531 -7.226562 4.625 -7.34375 C 4.488281 -7.457031 4.296875 -7.515625 4.046875 -7.515625 C 3.492188 -7.515625 3.21875 -7.265625 3.21875 -6.765625 C 3.21875 -6.492188 3.328125 -6.269531 3.546875 -6.09375 C 3.765625 -5.914062 4.234375 -5.726562 4.953125 -5.53125 C 5.679688 -5.320312 6.195312 -5.101562 6.5 -4.875 C 6.8125 -4.644531 7.050781 -4.351562 7.21875 -4 C 7.382812 -3.644531 7.46875 -3.207031 7.46875 -2.6875 Z M 7.46875 -2.6875 "/></g></g><g transform="translate(95.257569, 150.656086)"><g><path d="M 3.8125 -9.015625 L 3.8125 -4.09375 C 3.8125 -2.625 4.269531 -1.890625 5.1875 -1.890625 C 5.695312 -1.890625 6.109375 -2.125 6.421875 -2.59375 C 6.734375 -3.070312 6.890625 -3.710938 6.890625 -4.515625 L 6.890625 -9.015625 L 9.671875 -9.015625 L 9.671875 -2.15625 C 9.671875 -1.78125 9.679688 -1.359375 9.703125 -0.890625 C 9.722656 -0.429688 9.738281 -0.132812 9.75 0 L 7.09375 0 C 7.070312 -0.125 7.046875 -0.40625 7.015625 -0.84375 C 6.992188 -1.289062 6.984375 -1.632812 6.984375 -1.875 L 6.9375 -1.875 C 6.601562 -1.144531 6.203125 -0.617188 5.734375 -0.296875 C 5.265625 0.0234375 4.695312 0.1875 4.03125 0.1875 C 3.039062 0.1875 2.289062 -0.113281 1.78125 -0.71875 C 1.28125 -1.332031 1.03125 -2.242188 1.03125 -3.453125 L 1.03125 -9.015625 Z M 3.8125 -9.015625 "/></g></g><g transform="translate(106.091657, 150.656086)"><g><path d="M 7.46875 -2.6875 C 7.46875 -1.78125 7.15625 -1.078125 6.53125 -0.578125 C 5.90625 -0.078125 5.046875 0.171875 3.953125 0.171875 C 2.785156 0.171875 1.941406 -0.00390625 1.421875 -0.359375 C 0.898438 -0.710938 0.550781 -1.296875 0.375 -2.109375 L 2.703125 -2.453125 C 2.796875 -1.816406 3.195312 -1.5 3.90625 -1.5 C 4.207031 -1.5 4.453125 -1.566406 4.640625 -1.703125 C 4.835938 -1.835938 4.9375 -2.050781 4.9375 -2.34375 C 4.9375 -2.550781 4.878906 -2.726562 4.765625 -2.875 C 4.648438 -3.03125 4.484375 -3.164062 4.265625 -3.28125 C 4.046875 -3.40625 3.632812 -3.550781 3.03125 -3.71875 C 2.375 -3.914062 1.898438 -4.125 1.609375 -4.34375 C 1.316406 -4.5625 1.09375 -4.835938 0.9375 -5.171875 C 0.78125 -5.503906 0.703125 -5.921875 0.703125 -6.421875 C 0.703125 -7.296875 0.984375 -7.976562 1.546875 -8.46875 C 2.117188 -8.957031 2.9375 -9.203125 4 -9.203125 C 5.007812 -9.203125 5.769531 -9.019531 6.28125 -8.65625 C 6.800781 -8.289062 7.117188 -7.738281 7.234375 -7 L 4.90625 -6.765625 C 4.863281 -7.035156 4.769531 -7.226562 4.625 -7.34375 C 4.488281 -7.457031 4.296875 -7.515625 4.046875 -7.515625 C 3.492188 -7.515625 3.21875 -7.265625 3.21875 -6.765625 C 3.21875 -6.492188 3.328125 -6.269531 3.546875 -6.09375 C 3.765625 -5.914062 4.234375 -5.726562 4.953125 -5.53125 C 5.679688 -5.320312 6.195312 -5.101562 6.5 -4.875 C 6.8125 -4.644531 7.050781 -4.351562 7.21875 -4 C 7.382812 -3.644531 7.46875 -3.207031 7.46875 -2.6875 Z M 7.46875 -2.6875 "/></g></g><g transform="translate(113.970199, 150.656086)"><g/></g><g transform="translate(118.910684, 150.656086)"><g><path d="M 3.53125 -4.5 C 3.53125 -3.539062 3.675781 -2.835938 3.96875 -2.390625 C 4.269531 -1.941406 4.710938 -1.71875 5.296875 -1.71875 C 5.898438 -1.71875 6.363281 -1.960938 6.6875 -2.453125 C 7.007812 -2.953125 7.171875 -3.65625 7.171875 -4.5625 C 7.171875 -5.4375 7.015625 -6.109375 6.703125 -6.578125 C 6.390625 -7.054688 5.925781 -7.296875 5.3125 -7.296875 C 4.707031 -7.296875 4.257812 -7.070312 3.96875 -6.625 C 3.675781 -6.175781 3.53125 -5.46875 3.53125 -4.5 Z M 0.625 -4.5 C 0.625 -6.019531 0.945312 -7.179688 1.59375 -7.984375 C 2.238281 -8.785156 3.171875 -9.1875 4.390625 -9.1875 C 5.679688 -9.1875 6.601562 -8.640625 7.15625 -7.546875 L 7.1875 -7.546875 C 7.15625 -7.984375 7.140625 -8.507812 7.140625 -9.125 L 7.140625 -12.71875 L 9.921875 -12.71875 L 9.921875 -2.09375 C 9.921875 -1.46875 9.953125 -0.769531 10.015625 0 L 7.28125 0 C 7.25 -0.0820312 7.21875 -0.300781 7.1875 -0.65625 C 7.15625 -1.019531 7.140625 -1.296875 7.140625 -1.484375 L 7.109375 -1.484375 C 6.585938 -0.390625 5.640625 0.15625 4.265625 0.15625 C 3.078125 0.15625 2.171875 -0.238281 1.546875 -1.03125 C 0.929688 -1.832031 0.625 -2.988281 0.625 -4.5 Z M 0.625 -4.5 "/></g></g><g transform="translate(129.998355, 150.656086)"><g><path d="M 4.40625 -1.5625 C 4.832031 -1.5625 5.179688 -1.769531 5.453125 -2.1875 C 5.722656 -2.613281 5.859375 -3.128906 5.859375 -3.734375 L 5.859375 -4.21875 L 4.96875 -4.1875 C 4.394531 -4.15625 3.992188 -4.023438 3.765625 -3.796875 C 3.535156 -3.578125 3.421875 -3.25 3.421875 -2.8125 C 3.421875 -2.425781 3.503906 -2.117188 3.671875 -1.890625 C 3.835938 -1.671875 4.082031 -1.5625 4.40625 -1.5625 Z M 8.609375 0 L 5.9375 0 L 5.84375 -1.328125 C 5.570312 -0.785156 5.242188 -0.398438 4.859375 -0.171875 C 4.472656 0.0546875 3.9375 0.171875 3.25 0.171875 C 2.375 0.171875 1.703125 -0.0664062 1.234375 -0.546875 C 0.765625 -1.035156 0.53125 -1.710938 0.53125 -2.578125 C 0.53125 -4.453125 1.703125 -5.421875 4.046875 -5.484375 L 5.84375 -5.546875 L 5.84375 -6 C 5.84375 -6.5625 5.769531 -6.96875 5.625 -7.21875 C 5.476562 -7.476562 5.238281 -7.609375 4.90625 -7.609375 C 4.59375 -7.609375 4.351562 -7.523438 4.1875 -7.359375 C 4.03125 -7.191406 3.921875 -6.925781 3.859375 -6.5625 L 1.171875 -6.90625 C 1.359375 -7.71875 1.765625 -8.300781 2.390625 -8.65625 C 3.015625 -9.019531 3.867188 -9.203125 4.953125 -9.203125 C 6.140625 -9.203125 7.046875 -8.925781 7.671875 -8.375 C 8.296875 -7.820312 8.609375 -7 8.609375 -5.90625 Z M 8.609375 0 "/></g></g><g transform="translate(139.634485, 150.656086)"><g><path d="M 4.046875 0.171875 C 3.265625 0.171875 2.648438 -0.0546875 2.203125 -0.515625 C 1.765625 -0.972656 1.546875 -1.601562 1.546875 -2.40625 L 1.546875 -7.140625 L 0.28125 -7.140625 L 0.28125 -9.015625 L 1.59375 -9.015625 L 2.453125 -11.28125 L 4.296875 -11.28125 L 4.296875 -9.015625 L 6.40625 -9.015625 L 6.40625 -7.140625 L 4.296875 -7.140625 L 4.296875 -3.09375 C 4.296875 -2.195312 4.664062 -1.75 5.40625 -1.75 C 5.78125 -1.75 6.144531 -1.785156 6.5 -1.859375 L 6.5 -0.140625 C 5.9375 -0.00390625 5.476562 0.078125 5.125 0.109375 C 4.769531 0.148438 4.410156 0.171875 4.046875 0.171875 Z M 4.046875 0.171875 "/></g></g><g transform="translate(146.603629, 150.656086)"><g><path d="M 4.40625 -1.5625 C 4.832031 -1.5625 5.179688 -1.769531 5.453125 -2.1875 C 5.722656 -2.613281 5.859375 -3.128906 5.859375 -3.734375 L 5.859375 -4.21875 L 4.96875 -4.1875 C 4.394531 -4.15625 3.992188 -4.023438 3.765625 -3.796875 C 3.535156 -3.578125 3.421875 -3.25 3.421875 -2.8125 C 3.421875 -2.425781 3.503906 -2.117188 3.671875 -1.890625 C 3.835938 -1.671875 4.082031 -1.5625 4.40625 -1.5625 Z M 8.609375 0 L 5.9375 0 L 5.84375 -1.328125 C 5.570312 -0.785156 5.242188 -0.398438 4.859375 -0.171875 C 4.472656 0.0546875 3.9375 0.171875 3.25 0.171875 C 2.375 0.171875 1.703125 -0.0664062 1.234375 -0.546875 C 0.765625 -1.035156 0.53125 -1.710938 0.53125 -2.578125 C 0.53125 -4.453125 1.703125 -5.421875 4.046875 -5.484375 L 5.84375 -5.546875 L 5.84375 -6 C 5.84375 -6.5625 5.769531 -6.96875 5.625 -7.21875 C 5.476562 -7.476562 5.238281 -7.609375 4.90625 -7.609375 C 4.59375 -7.609375 4.351562 -7.523438 4.1875 -7.359375 C 4.03125 -7.191406 3.921875 -6.925781 3.859375 -6.5625 L 1.171875 -6.90625 C 1.359375 -7.71875 1.765625 -8.300781 2.390625 -8.65625 C 3.015625 -9.019531 3.867188 -9.203125 4.953125 -9.203125 C 6.140625 -9.203125 7.046875 -8.925781 7.671875 -8.375 C 8.296875 -7.820312 8.609375 -7 8.609375 -5.90625 Z M 8.609375 0 "/></g></g></g></svg>