<svg xmlns="http://www.w3.org/2000/svg" xmlns:xlink="http://www.w3.org/1999/xlink" width="742" zoomAndPan="magnify" viewBox="0 0 556.5 490.499985" height="654" preserveAspectRatio="xMidYMid meet" version="1.0"><defs><g/><clipPath id="e14f69c8ca"><path d="M 42.277344 32.746094 L 545.765625 32.746094 L 545.765625 489.777344 L 42.277344 489.777344 Z M 42.277344 32.746094 " clip-rule="nonzero"/></clipPath><clipPath id="2a5098c398"><path d="M 52.019531 32.746094 L 536.070312 32.746094 C 538.65625 32.746094 541.132812 33.773438 542.957031 35.597656 C 544.785156 37.425781 545.8125 39.902344 545.8125 42.484375 L 545.8125 479.917969 C 545.8125 482.503906 544.785156 484.980469 542.957031 486.808594 C 541.132812 488.632812 538.65625 489.660156 536.070312 489.660156 L 52.019531 489.660156 C 49.433594 489.660156 46.957031 488.632812 45.132812 486.808594 C 43.304688 484.980469 42.277344 482.503906 42.277344 479.917969 L 42.277344 42.484375 C 42.277344 39.902344 43.304688 37.425781 45.132812 35.597656 C 46.957031 33.773438 49.433594 32.746094 52.019531 32.746094 Z M 52.019531 32.746094 " clip-rule="nonzero"/></clipPath><clipPath id="ee9cb1f1e5"><path d="M 0.0351562 394 L 74 394 L 74 433 L 0.0351562 433 Z M 0.0351562 394 " clip-rule="nonzero"/></clipPath><clipPath id="86ad8c6d93"><path d="M 69.847656 340.53125 L 184.480469 340.53125 L 184.480469 457.414062 L 69.847656 457.414062 Z M 69.847656 340.53125 " clip-rule="nonzero"/></clipPath><clipPath id="510a367b9e"><path d="M 127.265625 340.53125 C 95.554688 340.53125 69.851562 366.632812 69.851562 398.832031 C 69.851562 431.03125 95.554688 457.132812 127.265625 457.132812 C 158.972656 457.132812 184.679688 431.03125 184.679688 398.832031 C 184.679688 366.632812 158.972656 340.53125 127.265625 340.53125 Z M 127.265625 340.53125 " clip-rule="nonzero"/></clipPath><clipPath id="c206d9ea2d"><path d="M 175.882812 153.59375 L 268.785156 153.59375 L 268.785156 218.027344 L 175.882812 218.027344 Z M 175.882812 153.59375 " clip-rule="nonzero"/></clipPath><clipPath id="0c48b3f99e"><path d="M 222.195312 153.59375 C 196.617188 153.59375 175.882812 168.050781 175.882812 185.882812 C 175.882812 203.714844 196.617188 218.167969 222.195312 218.167969 C 247.773438 218.167969 268.511719 203.714844 268.511719 185.882812 C 268.511719 168.050781 247.773438 153.59375 222.195312 153.59375 Z M 222.195312 153.59375 " clip-rule="nonzero"/></clipPath><clipPath id="741e110f0b"><path d="M 225.371094 223.285156 L 327.269531 223.285156 L 327.269531 285.472656 L 225.371094 285.472656 Z M 225.371094 223.285156 " clip-rule="nonzero"/></clipPath><clipPath id="695b226e7f"><path d="M 276.25 223.285156 C 248.148438 223.285156 225.371094 237.238281 225.371094 254.449219 C 225.371094 271.660156 248.148438 285.613281 276.25 285.613281 C 304.347656 285.613281 327.128906 271.660156 327.128906 254.449219 C 327.128906 237.238281 304.347656 223.285156 276.25 223.285156 Z M 276.25 223.285156 " clip-rule="nonzero"/></clipPath></defs><g clip-path="url(#e14f69c8ca)"><g clip-path="url(#2a5098c398)"><path stroke-linecap="butt" transform="matrix(0.749236, 0, 0, 0.749236, 42.278166, 32.746301)" fill="none" stroke-linejoin="miter" d="M 13.001728 -0.000276536 L 659.060717 -0.000276536 C 662.512149 -0.000276536 665.817599 1.370912 668.25237 3.805683 C 670.692355 6.245668 672.063543 9.551117 672.063543 12.997335 L 672.063543 596.83671 C 672.063543 600.288142 670.692355 603.593591 668.25237 606.033576 C 665.817599 608.468348 662.512149 609.839536 659.060717 609.839536 L 13.001728 609.839536 C 9.550296 609.839536 6.244847 608.468348 3.810076 606.033576 C 1.370091 603.593591 -0.00109745 600.288142 -0.00109745 596.83671 L -0.00109745 12.997335 C -0.00109745 9.551117 1.370091 6.245668 3.810076 3.805683 C 6.244847 1.370912 9.550296 -0.000276536 13.001728 -0.000276536 Z M 13.001728 -0.000276536 " stroke="#60941a" stroke-width="8" stroke-opacity="1" stroke-miterlimit="4"/></g></g><g clip-path="url(#ee9cb1f1e5)"><path stroke-linecap="round" transform="matrix(-0.728776, 0.173896, -0.173896, -0.728776, 62.611978, 407.964792)" fill="none" stroke-linejoin="miter" d="M 1.500309 1.499607 L 75.076644 1.501908 " stroke="#000000" stroke-width="3" stroke-opacity="1" stroke-miterlimit="4"/></g><path stroke-linecap="round" transform="matrix(-0.728776, 0.173896, -0.173896, -0.728776, 62.611978, 407.964792)" fill-opacity="1" fill="#000000" fill-rule="nonzero" stroke-linejoin="round" d="M 76.579884 -3.000929 L 82.580588 1.50221 L 76.581746 5.998976 Z M 76.579884 -3.000929 " stroke="#000000" stroke-width="3" stroke-opacity="1" stroke-miterlimit="4"/><path stroke-linecap="round" transform="matrix(-0.245439, 0.707895, -0.707895, -0.245439, 202.063383, 217.139873)" fill="none" stroke-linejoin="miter" d="M 1.498325 1.501386 L 161.882053 1.499809 " stroke="#000000" stroke-width="3" stroke-opacity="1" stroke-miterlimit="4"/><path stroke-linecap="round" transform="matrix(-0.245439, 0.707895, -0.707895, -0.245439, 202.063383, 217.139873)" fill-opacity="1" fill="#000000" fill-rule="nonzero" stroke-linejoin="round" d="M 163.37963 -2.997993 L 169.380862 1.498883 L 163.382068 6.001222 Z M 163.37963 -2.997993 " stroke="#000000" stroke-width="3" stroke-opacity="1" stroke-miterlimit="4"/><path stroke-linecap="round" transform="matrix(-0.500617, 0.557438, -0.557438, -0.500617, 248.854427, 284.191349)" fill="none" stroke-linejoin="miter" d="M 1.502292 1.501026 L 123.948509 1.497745 " stroke="#000000" stroke-width="3" stroke-opacity="1" stroke-miterlimit="4"/><path stroke-linecap="round" transform="matrix(-0.500617, 0.557438, -0.557438, -0.500617, 248.854427, 284.191349)" fill-opacity="1" fill="#000000" fill-rule="nonzero" stroke-linejoin="round" d="M 125.452656 -2.999452 L 131.450257 1.501883 L 125.449241 6.001252 Z M 125.452656 -2.999452 " stroke="#000000" stroke-width="3" stroke-opacity="1" stroke-miterlimit="4"/><path fill="#ffffff" d="M 336.867188 56.425781 L 336.867188 16.941406 C 336.867188 11.832031 341.007812 7.6875 346.117188 7.6875 L 480.757812 7.6875 C 485.867188 7.6875 490.011719 11.832031 490.011719 16.941406 L 490.011719 19.414062 C 490.011719 24.523438 494.152344 28.667969 499.261719 28.667969 L 517.027344 28.667969 C 522.136719 28.667969 526.277344 32.808594 526.277344 37.921875 L 526.277344 56.425781 C 526.277344 61.535156 522.136719 65.675781 517.027344 65.675781 L 346.117188 65.675781 C 341.007812 65.675781 336.867188 61.535156 336.867188 56.425781 Z M 336.867188 56.425781 " fill-opacity="1" fill-rule="nonzero"/><g fill="#60941a" fill-opacity="1"><g transform="translate(345.404195, 34.435375)"><g><path d="M 9.15625 -10.015625 C 9.15625 -10.722656 8.945312 -11.269531 8.53125 -11.65625 C 8.125 -12.050781 7.507812 -12.25 6.6875 -12.25 L 5.125 -12.25 L 5.125 -7.6875 L 6.765625 -7.6875 C 7.535156 -7.6875 8.125 -7.882812 8.53125 -8.28125 C 8.945312 -8.6875 9.15625 -9.265625 9.15625 -10.015625 Z M 12.65625 -10.03125 C 12.65625 -9.082031 12.441406 -8.242188 12.015625 -7.515625 C 11.585938 -6.796875 10.957031 -6.238281 10.125 -5.84375 C 9.300781 -5.445312 8.316406 -5.25 7.171875 -5.25 L 5.125 -5.25 L 5.125 0 L 1.640625 0 L 1.640625 -14.6875 L 7.0625 -14.6875 C 8.875 -14.6875 10.257812 -14.285156 11.21875 -13.484375 C 12.175781 -12.691406 12.65625 -11.539062 12.65625 -10.03125 Z M 12.65625 -10.03125 "/></g></g></g><g fill="#60941a" fill-opacity="1"><g transform="translate(358.513394, 34.435375)"><g><path d="M 15.203125 -7.40625 C 15.203125 -5 14.578125 -3.128906 13.328125 -1.796875 C 12.085938 -0.460938 10.335938 0.203125 8.078125 0.203125 C 5.785156 0.203125 4.03125 -0.453125 2.8125 -1.765625 C 1.59375 -3.078125 0.984375 -4.957031 0.984375 -7.40625 C 0.984375 -9.820312 1.59375 -11.675781 2.8125 -12.96875 C 4.03125 -14.257812 5.789062 -14.90625 8.09375 -14.90625 C 10.382812 -14.90625 12.140625 -14.257812 13.359375 -12.96875 C 14.585938 -11.675781 15.203125 -9.820312 15.203125 -7.40625 Z M 11.6875 -7.40625 C 11.6875 -10.59375 10.488281 -12.1875 8.09375 -12.1875 C 6.894531 -12.1875 5.992188 -11.796875 5.390625 -11.015625 C 4.796875 -10.242188 4.5 -9.039062 4.5 -7.40625 C 4.5 -4.132812 5.691406 -2.5 8.078125 -2.5 C 9.296875 -2.5 10.203125 -2.890625 10.796875 -3.671875 C 11.390625 -4.460938 11.6875 -5.707031 11.6875 -7.40625 Z M 11.6875 -7.40625 "/></g></g></g><g fill="#60941a" fill-opacity="1"><g transform="translate(374.696694, 34.435375)"><g><path d="M 9.15625 -10.015625 C 9.15625 -10.722656 8.945312 -11.269531 8.53125 -11.65625 C 8.125 -12.050781 7.507812 -12.25 6.6875 -12.25 L 5.125 -12.25 L 5.125 -7.6875 L 6.765625 -7.6875 C 7.535156 -7.6875 8.125 -7.882812 8.53125 -8.28125 C 8.945312 -8.6875 9.15625 -9.265625 9.15625 -10.015625 Z M 12.65625 -10.03125 C 12.65625 -9.082031 12.441406 -8.242188 12.015625 -7.515625 C 11.585938 -6.796875 10.957031 -6.238281 10.125 -5.84375 C 9.300781 -5.445312 8.316406 -5.25 7.171875 -5.25 L 5.125 -5.25 L 5.125 0 L 1.640625 0 L 1.640625 -14.6875 L 7.0625 -14.6875 C 8.875 -14.6875 10.257812 -14.285156 11.21875 -13.484375 C 12.175781 -12.691406 12.65625 -11.539062 12.65625 -10.03125 Z M 12.65625 -10.03125 "/></g></g></g><g fill="#60941a" fill-opacity="1"><g transform="translate(387.805892, 34.435375)"><g><path d="M 13.90625 -5.703125 C 13.90625 -3.753906 13.378906 -2.28125 12.328125 -1.28125 C 11.285156 -0.289062 9.726562 0.203125 7.65625 0.203125 C 5.625 0.203125 4.09375 -0.28125 3.0625 -1.25 C 2.03125 -2.21875 1.515625 -3.660156 1.515625 -5.578125 L 1.515625 -14.6875 L 5 -14.6875 L 5 -5.8125 C 5 -4.644531 5.234375 -3.800781 5.703125 -3.28125 C 6.179688 -2.757812 6.867188 -2.5 7.765625 -2.5 C 8.679688 -2.5 9.351562 -2.769531 9.78125 -3.3125 C 10.21875 -3.863281 10.4375 -4.738281 10.4375 -5.9375 L 10.4375 -14.6875 L 13.90625 -14.6875 Z M 13.90625 -5.703125 "/></g></g></g><g fill="#60941a" fill-opacity="1"><g transform="translate(403.238905, 34.435375)"><g><path d="M 1.640625 0 L 1.640625 -14.6875 L 5.140625 -14.6875 L 5.140625 -2.703125 L 10.546875 -2.703125 L 10.546875 0 Z M 1.640625 0 "/></g></g></g><g fill="#60941a" fill-opacity="1"><g transform="translate(414.149349, 34.435375)"><g><path d="M 11.34375 0 L 10.15625 -3.546875 L 4.796875 -3.546875 L 3.609375 0 L 0.171875 0 L 5.4375 -14.6875 L 9.515625 -14.6875 L 14.78125 0 Z M 7.46875 -12.1875 C 7.300781 -11.5 7.109375 -10.8125 6.890625 -10.125 L 5.546875 -6.109375 L 9.4375 -6.109375 L 8.09375 -10.125 C 7.863281 -10.8125 7.664062 -11.5 7.5 -12.1875 Z M 7.46875 -12.1875 "/></g></g></g><g fill="#60941a" fill-opacity="1"><g transform="translate(429.155108, 34.435375)"><g><path d="M 8 -11.9375 L 8 0 L 4.515625 0 L 4.515625 -11.9375 L 0.296875 -11.9375 L 0.296875 -14.6875 L 12.203125 -14.6875 L 12.203125 -11.9375 Z M 8 -11.9375 "/></g></g></g><g fill="#60941a" fill-opacity="1"><g transform="translate(441.659908, 34.435375)"><g><path d="M 1.640625 0 L 1.640625 -14.6875 L 5.140625 -14.6875 L 5.140625 0 Z M 1.640625 0 "/></g></g></g><g fill="#60941a" fill-opacity="1"><g transform="translate(448.422926, 34.435375)"><g><path d="M 15.203125 -7.40625 C 15.203125 -5 14.578125 -3.128906 13.328125 -1.796875 C 12.085938 -0.460938 10.335938 0.203125 8.078125 0.203125 C 5.785156 0.203125 4.03125 -0.453125 2.8125 -1.765625 C 1.59375 -3.078125 0.984375 -4.957031 0.984375 -7.40625 C 0.984375 -9.820312 1.59375 -11.675781 2.8125 -12.96875 C 4.03125 -14.257812 5.789062 -14.90625 8.09375 -14.90625 C 10.382812 -14.90625 12.140625 -14.257812 13.359375 -12.96875 C 14.585938 -11.675781 15.203125 -9.820312 15.203125 -7.40625 Z M 11.6875 -7.40625 C 11.6875 -10.59375 10.488281 -12.1875 8.09375 -12.1875 C 6.894531 -12.1875 5.992188 -11.796875 5.390625 -11.015625 C 4.796875 -10.242188 4.5 -9.039062 4.5 -7.40625 C 4.5 -4.132812 5.691406 -2.5 8.078125 -2.5 C 9.296875 -2.5 10.203125 -2.890625 10.796875 -3.671875 C 11.390625 -4.460938 11.6875 -5.707031 11.6875 -7.40625 Z M 11.6875 -7.40625 "/></g></g></g><g fill="#60941a" fill-opacity="1"><g transform="translate(464.606227, 34.435375)"><g><path d="M 11 0 L 4.640625 -10.953125 C 4.703125 -9.523438 4.734375 -8.628906 4.734375 -8.265625 L 4.734375 0 L 1.640625 0 L 1.640625 -14.6875 L 5.8125 -14.6875 L 12.25 -3.640625 C 12.226562 -3.941406 12.203125 -4.328125 12.171875 -4.796875 C 12.148438 -5.265625 12.140625 -5.851562 12.140625 -6.5625 L 12.140625 -14.6875 L 15.21875 -14.6875 L 15.21875 0 Z M 11 0 "/></g></g></g><g fill="#60941a" fill-opacity="1"><g transform="translate(345.404195, 55.413989)"><g><path d="M 9.15625 -10.015625 C 9.15625 -10.722656 8.945312 -11.269531 8.53125 -11.65625 C 8.125 -12.050781 7.507812 -12.25 6.6875 -12.25 L 5.125 -12.25 L 5.125 -7.6875 L 6.765625 -7.6875 C 7.535156 -7.6875 8.125 -7.882812 8.53125 -8.28125 C 8.945312 -8.6875 9.15625 -9.265625 9.15625 -10.015625 Z M 12.65625 -10.03125 C 12.65625 -9.082031 12.441406 -8.242188 12.015625 -7.515625 C 11.585938 -6.796875 10.957031 -6.238281 10.125 -5.84375 C 9.300781 -5.445312 8.316406 -5.25 7.171875 -5.25 L 5.125 -5.25 L 5.125 0 L 1.640625 0 L 1.640625 -14.6875 L 7.0625 -14.6875 C 8.875 -14.6875 10.257812 -14.285156 11.21875 -13.484375 C 12.175781 -12.691406 12.65625 -11.539062 12.65625 -10.03125 Z M 12.65625 -10.03125 "/></g></g></g><g fill="#60941a" fill-opacity="1"><g transform="translate(358.513394, 55.413989)"><g><path d="M 9.578125 -10.21875 C 9.578125 -10.875 9.363281 -11.375 8.9375 -11.71875 C 8.519531 -12.070312 7.914062 -12.25 7.125 -12.25 L 5.125 -12.25 L 5.125 -8.09375 L 7.203125 -8.09375 C 7.941406 -8.09375 8.519531 -8.28125 8.9375 -8.65625 C 9.363281 -9.03125 9.578125 -9.550781 9.578125 -10.21875 Z M 13.0625 -10.25 C 13.0625 -9.207031 12.789062 -8.332031 12.25 -7.625 C 11.707031 -6.914062 10.941406 -6.40625 9.953125 -6.09375 L 13.859375 0 L 9.953125 0 L 6.71875 -5.6875 L 5.125 -5.6875 L 5.125 0 L 1.640625 0 L 1.640625 -14.6875 L 7.484375 -14.6875 C 9.285156 -14.6875 10.664062 -14.300781 11.625 -13.53125 C 12.582031 -12.769531 13.0625 -11.675781 13.0625 -10.25 Z M 13.0625 -10.25 "/></g></g></g><g fill="#60941a" fill-opacity="1"><g transform="translate(372.44583, 55.413989)"><g><path d="M 15.203125 -7.40625 C 15.203125 -5 14.578125 -3.128906 13.328125 -1.796875 C 12.085938 -0.460938 10.335938 0.203125 8.078125 0.203125 C 5.785156 0.203125 4.03125 -0.453125 2.8125 -1.765625 C 1.59375 -3.078125 0.984375 -4.957031 0.984375 -7.40625 C 0.984375 -9.820312 1.59375 -11.675781 2.8125 -12.96875 C 4.03125 -14.257812 5.789062 -14.90625 8.09375 -14.90625 C 10.382812 -14.90625 12.140625 -14.257812 13.359375 -12.96875 C 14.585938 -11.675781 15.203125 -9.820312 15.203125 -7.40625 Z M 11.6875 -7.40625 C 11.6875 -10.59375 10.488281 -12.1875 8.09375 -12.1875 C 6.894531 -12.1875 5.992188 -11.796875 5.390625 -11.015625 C 4.796875 -10.242188 4.5 -9.039062 4.5 -7.40625 C 4.5 -4.132812 5.691406 -2.5 8.078125 -2.5 C 9.296875 -2.5 10.203125 -2.890625 10.796875 -3.671875 C 11.390625 -4.460938 11.6875 -5.707031 11.6875 -7.40625 Z M 11.6875 -7.40625 "/></g></g></g><g fill="#60941a" fill-opacity="1"><g transform="translate(388.629131, 55.413989)"><g><path d="M 7.28125 0.203125 C 5.269531 0.203125 3.71875 -0.457031 2.625 -1.78125 C 1.53125 -3.113281 0.984375 -4.988281 0.984375 -7.40625 C 0.984375 -9.820312 1.507812 -11.675781 2.5625 -12.96875 C 3.625 -14.257812 5.164062 -14.90625 7.1875 -14.90625 C 8.5625 -14.90625 9.703125 -14.585938 10.609375 -13.953125 C 11.523438 -13.316406 12.253906 -12.269531 12.796875 -10.8125 L 9.8125 -9.8125 C 9.570312 -10.59375 9.238281 -11.179688 8.8125 -11.578125 C 8.382812 -11.984375 7.882812 -12.1875 7.3125 -12.1875 C 6.394531 -12.1875 5.695312 -11.78125 5.21875 -10.96875 C 4.738281 -10.164062 4.5 -8.976562 4.5 -7.40625 C 4.5 -5.851562 4.738281 -4.644531 5.21875 -3.78125 C 5.695312 -2.925781 6.378906 -2.5 7.265625 -2.5 C 7.796875 -2.5 8.265625 -2.703125 8.671875 -3.109375 C 9.078125 -3.515625 9.429688 -4.175781 9.734375 -5.09375 L 12.84375 -3.984375 C 12.28125 -2.503906 11.539062 -1.4375 10.625 -0.78125 C 9.707031 -0.125 8.59375 0.203125 7.28125 0.203125 Z M 7.28125 0.203125 "/></g></g></g><g fill="#60941a" fill-opacity="1"><g transform="translate(401.946743, 55.413989)"><g><path d="M 1.640625 0 L 1.640625 -14.6875 L 10.359375 -14.6875 L 10.359375 -11.953125 L 5.140625 -11.953125 L 5.140625 -8.75 L 9.71875 -8.75 L 9.71875 -6.109375 L 5.140625 -6.109375 L 5.140625 -2.703125 L 10.78125 -2.703125 L 10.78125 0 Z M 1.640625 0 "/></g></g></g><g fill="#60941a" fill-opacity="1"><g transform="translate(413.305269, 55.413989)"><g><path d="M 11.390625 -4.296875 C 11.390625 -2.847656 10.914062 -1.734375 9.96875 -0.953125 C 9.019531 -0.179688 7.65625 0.203125 5.875 0.203125 C 4.320312 0.203125 3.09375 -0.128906 2.1875 -0.796875 C 1.28125 -1.460938 0.695312 -2.515625 0.4375 -3.953125 L 3.671875 -4.453125 C 3.773438 -3.785156 4.035156 -3.269531 4.453125 -2.90625 C 4.878906 -2.539062 5.429688 -2.359375 6.109375 -2.359375 C 7.398438 -2.359375 8.046875 -2.9375 8.046875 -4.09375 C 8.046875 -4.457031 7.957031 -4.753906 7.78125 -4.984375 C 7.613281 -5.222656 7.382812 -5.421875 7.09375 -5.578125 C 6.800781 -5.734375 6.472656 -5.863281 6.109375 -5.96875 C 5.742188 -6.070312 5.363281 -6.175781 4.96875 -6.28125 C 4.15625 -6.507812 3.570312 -6.703125 3.21875 -6.859375 C 2.863281 -7.015625 2.546875 -7.203125 2.265625 -7.421875 C 1.984375 -7.640625 1.738281 -7.90625 1.53125 -8.21875 C 1.332031 -8.53125 1.175781 -8.894531 1.0625 -9.3125 C 0.957031 -9.726562 0.90625 -10.203125 0.90625 -10.734375 C 0.90625 -12.066406 1.34375 -13.09375 2.21875 -13.8125 C 3.09375 -14.539062 4.332031 -14.90625 5.9375 -14.90625 C 7.425781 -14.90625 8.5625 -14.613281 9.34375 -14.03125 C 10.132812 -13.445312 10.675781 -12.476562 10.96875 -11.125 L 7.65625 -10.71875 C 7.582031 -11.257812 7.390625 -11.6875 7.078125 -12 C 6.765625 -12.3125 6.375 -12.46875 5.90625 -12.46875 C 5.40625 -12.46875 5.003906 -12.320312 4.703125 -12.03125 C 4.410156 -11.738281 4.265625 -11.375 4.265625 -10.9375 C 4.265625 -10.507812 4.398438 -10.160156 4.671875 -9.890625 C 4.941406 -9.628906 5.363281 -9.410156 5.9375 -9.234375 L 8.046875 -8.609375 C 9.242188 -8.253906 10.097656 -7.734375 10.609375 -7.046875 C 11.128906 -6.359375 11.390625 -5.441406 11.390625 -4.296875 Z M 11.390625 -4.296875 "/></g></g></g><g fill="#60941a" fill-opacity="1"><g transform="translate(425.268194, 55.413989)"><g><path d="M 11.390625 -4.296875 C 11.390625 -2.847656 10.914062 -1.734375 9.96875 -0.953125 C 9.019531 -0.179688 7.65625 0.203125 5.875 0.203125 C 4.320312 0.203125 3.09375 -0.128906 2.1875 -0.796875 C 1.28125 -1.460938 0.695312 -2.515625 0.4375 -3.953125 L 3.671875 -4.453125 C 3.773438 -3.785156 4.035156 -3.269531 4.453125 -2.90625 C 4.878906 -2.539062 5.429688 -2.359375 6.109375 -2.359375 C 7.398438 -2.359375 8.046875 -2.9375 8.046875 -4.09375 C 8.046875 -4.457031 7.957031 -4.753906 7.78125 -4.984375 C 7.613281 -5.222656 7.382812 -5.421875 7.09375 -5.578125 C 6.800781 -5.734375 6.472656 -5.863281 6.109375 -5.96875 C 5.742188 -6.070312 5.363281 -6.175781 4.96875 -6.28125 C 4.15625 -6.507812 3.570312 -6.703125 3.21875 -6.859375 C 2.863281 -7.015625 2.546875 -7.203125 2.265625 -7.421875 C 1.984375 -7.640625 1.738281 -7.90625 1.53125 -8.21875 C 1.332031 -8.53125 1.175781 -8.894531 1.0625 -9.3125 C 0.957031 -9.726562 0.90625 -10.203125 0.90625 -10.734375 C 0.90625 -12.066406 1.34375 -13.09375 2.21875 -13.8125 C 3.09375 -14.539062 4.332031 -14.90625 5.9375 -14.90625 C 7.425781 -14.90625 8.5625 -14.613281 9.34375 -14.03125 C 10.132812 -13.445312 10.675781 -12.476562 10.96875 -11.125 L 7.65625 -10.71875 C 7.582031 -11.257812 7.390625 -11.6875 7.078125 -12 C 6.765625 -12.3125 6.375 -12.46875 5.90625 -12.46875 C 5.40625 -12.46875 5.003906 -12.320312 4.703125 -12.03125 C 4.410156 -11.738281 4.265625 -11.375 4.265625 -10.9375 C 4.265625 -10.507812 4.398438 -10.160156 4.671875 -9.890625 C 4.941406 -9.628906 5.363281 -9.410156 5.9375 -9.234375 L 8.046875 -8.609375 C 9.242188 -8.253906 10.097656 -7.734375 10.609375 -7.046875 C 11.128906 -6.359375 11.390625 -5.441406 11.390625 -4.296875 Z M 11.390625 -4.296875 "/></g></g></g><g fill="#60941a" fill-opacity="1"><g transform="translate(437.231119, 55.413989)"><g/></g></g><g fill="#60941a" fill-opacity="1"><g transform="translate(443.118801, 55.413989)"><g><path d="M 15.6875 0 L 15.6875 -8.515625 C 15.6875 -9.035156 15.691406 -9.554688 15.703125 -10.078125 C 15.722656 -10.609375 15.738281 -11.132812 15.75 -11.65625 C 15.601562 -11.238281 15.460938 -10.816406 15.328125 -10.390625 C 15.191406 -9.960938 15.039062 -9.535156 14.875 -9.109375 L 11.46875 0 L 9.03125 0 L 5.53125 -9.109375 C 5.1875 -9.972656 4.898438 -10.820312 4.671875 -11.65625 C 4.691406 -11.132812 4.707031 -10.613281 4.71875 -10.09375 C 4.726562 -9.570312 4.734375 -9.050781 4.734375 -8.53125 L 4.734375 0 L 1.640625 0 L 1.640625 -14.6875 L 6.328125 -14.6875 L 8.78125 -8.328125 C 9.082031 -7.546875 9.390625 -6.695312 9.703125 -5.78125 C 10.015625 -4.875 10.195312 -4.289062 10.25 -4.03125 C 10.78125 -5.582031 11.304688 -7.050781 11.828125 -8.4375 L 14.15625 -14.6875 L 18.78125 -14.6875 L 18.78125 0 Z M 15.6875 0 "/></g></g></g><g fill="#60941a" fill-opacity="1"><g transform="translate(463.543308, 55.413989)"><g><path d="M 15.203125 -7.40625 C 15.203125 -5 14.578125 -3.128906 13.328125 -1.796875 C 12.085938 -0.460938 10.335938 0.203125 8.078125 0.203125 C 5.785156 0.203125 4.03125 -0.453125 2.8125 -1.765625 C 1.59375 -3.078125 0.984375 -4.957031 0.984375 -7.40625 C 0.984375 -9.820312 1.59375 -11.675781 2.8125 -12.96875 C 4.03125 -14.257812 5.789062 -14.90625 8.09375 -14.90625 C 10.382812 -14.90625 12.140625 -14.257812 13.359375 -12.96875 C 14.585938 -11.675781 15.203125 -9.820312 15.203125 -7.40625 Z M 11.6875 -7.40625 C 11.6875 -10.59375 10.488281 -12.1875 8.09375 -12.1875 C 6.894531 -12.1875 5.992188 -11.796875 5.390625 -11.015625 C 4.796875 -10.242188 4.5 -9.039062 4.5 -7.40625 C 4.5 -4.132812 5.691406 -2.5 8.078125 -2.5 C 9.296875 -2.5 10.203125 -2.890625 10.796875 -3.671875 C 11.390625 -4.460938 11.6875 -5.707031 11.6875 -7.40625 Z M 11.6875 -7.40625 "/></g></g></g><g fill="#60941a" fill-opacity="1"><g transform="translate(479.726608, 55.413989)"><g><path d="M 11.234375 -7.4375 C 11.234375 -8.90625 10.859375 -10.023438 10.109375 -10.796875 C 9.367188 -11.578125 8.300781 -11.96875 6.90625 -11.96875 L 5.125 -11.96875 L 5.125 -2.703125 L 7.3125 -2.703125 C 8.519531 -2.703125 9.472656 -3.117188 10.171875 -3.953125 C 10.878906 -4.796875 11.234375 -5.957031 11.234375 -7.4375 Z M 14.734375 -7.4375 C 14.734375 -5.925781 14.4375 -4.609375 13.84375 -3.484375 C 13.257812 -2.359375 12.425781 -1.492188 11.34375 -0.890625 C 10.257812 -0.296875 9.007812 0 7.59375 0 L 1.640625 0 L 1.640625 -14.6875 L 6.96875 -14.6875 C 9.445312 -14.6875 11.359375 -14.054688 12.703125 -12.796875 C 14.054688 -11.546875 14.734375 -9.757812 14.734375 -7.4375 Z M 14.734375 -7.4375 "/></g></g></g><g fill="#60941a" fill-opacity="1"><g transform="translate(495.461814, 55.413989)"><g><path d="M 1.640625 0 L 1.640625 -14.6875 L 10.359375 -14.6875 L 10.359375 -11.953125 L 5.140625 -11.953125 L 5.140625 -8.75 L 9.71875 -8.75 L 9.71875 -6.109375 L 5.140625 -6.109375 L 5.140625 -2.703125 L 10.78125 -2.703125 L 10.78125 0 Z M 1.640625 0 "/></g></g></g><g fill="#60941a" fill-opacity="1"><g transform="translate(506.82034, 55.413989)"><g><path d="M 1.640625 0 L 1.640625 -14.6875 L 5.140625 -14.6875 L 5.140625 -2.703125 L 10.546875 -2.703125 L 10.546875 0 Z M 1.640625 0 "/></g></g></g><g clip-path="url(#86ad8c6d93)"><g clip-path="url(#510a367b9e)"><path stroke-linecap="butt" transform="matrix(0.749236, 0, 0, 0.749236, 69.849696, 340.531628)" fill="none" stroke-linejoin="miter" d="M 76.632615 -0.000504954 C 34.308262 -0.000504954 0.00249111 34.837057 0.00249111 77.813116 C 0.00249111 120.789174 34.308262 155.626736 76.632615 155.626736 C 118.951754 155.626736 153.262738 120.789174 153.262738 77.813116 C 153.262738 34.837057 118.951754 -0.000504954 76.632615 -0.000504954 Z M 76.632615 -0.000504954 " stroke="#60941a" stroke-width="8" stroke-opacity="1" stroke-miterlimit="4"/></g></g><g fill="#000000" fill-opacity="1"><g transform="translate(98.771757, 410.22113)"><g><path d="M 18.625 -8.359375 L 22.140625 -25.25 L 26.984375 -25.25 L 21.71875 0 L 16.859375 0 L 10.046875 -16.96875 L 6.484375 0 L 1.65625 0 L 6.953125 -25.25 L 11.78125 -25.25 Z M 18.625 -8.359375 "/></g></g></g><g fill="#000000" fill-opacity="1"><g transform="translate(123.904292, 413.866925)"><g><path d="M 8.015625 -12.578125 C 10.941406 -12.578125 12.648438 -11.507812 13.140625 -9.375 L 10.0625 -8.828125 C 9.695312 -9.785156 8.84375 -10.265625 7.5 -10.265625 C 6.894531 -10.265625 6.414062 -10.164062 6.0625 -9.96875 C 5.71875 -9.769531 5.546875 -9.515625 5.546875 -9.203125 C 5.546875 -8.890625 5.65625 -8.648438 5.875 -8.484375 C 6.101562 -8.316406 6.429688 -8.171875 6.859375 -8.046875 C 8.117188 -7.691406 9.117188 -7.351562 9.859375 -7.03125 C 10.609375 -6.71875 11.195312 -6.320312 11.625 -5.84375 C 12.050781 -5.363281 12.265625 -4.757812 12.265625 -4.03125 C 12.265625 -3.269531 12.050781 -2.5625 11.625 -1.90625 C 11.195312 -1.25 10.5625 -0.71875 9.71875 -0.3125 C 8.882812 0.0820312 7.867188 0.28125 6.671875 0.28125 C 3.328125 0.28125 1.289062 -0.957031 0.5625 -3.4375 L 3.796875 -3.96875 C 4.066406 -3.3125 4.410156 -2.832031 4.828125 -2.53125 C 5.242188 -2.238281 5.832031 -2.09375 6.59375 -2.09375 C 7.257812 -2.09375 7.8125 -2.222656 8.25 -2.484375 C 8.695312 -2.742188 8.921875 -3.0625 8.921875 -3.4375 C 8.921875 -3.769531 8.769531 -4.019531 8.46875 -4.1875 C 8.164062 -4.363281 7.632812 -4.566406 6.875 -4.796875 C 5.832031 -5.128906 5.003906 -5.441406 4.390625 -5.734375 C 3.773438 -6.023438 3.289062 -6.398438 2.9375 -6.859375 C 2.59375 -7.316406 2.421875 -7.898438 2.421875 -8.609375 C 2.421875 -9.347656 2.640625 -10.019531 3.078125 -10.625 C 3.523438 -11.226562 4.171875 -11.703125 5.015625 -12.046875 C 5.859375 -12.398438 6.859375 -12.578125 8.015625 -12.578125 Z M 8.015625 -12.578125 "/></g></g></g><g fill="#000000" fill-opacity="1"><g transform="translate(137.091517, 413.866925)"><g><path d="M 7.234375 -12.28125 L 9.28125 -12.28125 L 8.75 -9.859375 L 6.71875 -9.859375 L 5.625 -4.53125 C 5.46875 -3.832031 5.390625 -3.347656 5.390625 -3.078125 C 5.390625 -2.796875 5.472656 -2.585938 5.640625 -2.453125 C 5.816406 -2.316406 6.09375 -2.25 6.46875 -2.25 C 6.726562 -2.25 7.09375 -2.28125 7.5625 -2.34375 L 7.046875 0.125 C 6.648438 0.21875 6.085938 0.265625 5.359375 0.265625 C 3.066406 0.265625 1.921875 -0.570312 1.921875 -2.25 C 1.921875 -2.582031 2.007812 -3.21875 2.1875 -4.15625 L 2.296875 -4.703125 L 3.390625 -9.859375 L 1.78125 -9.859375 L 2.296875 -12.28125 L 3.90625 -12.28125 L 4.3125 -14.25 L 8.109375 -16.5625 Z M 7.234375 -12.28125 "/></g></g></g><g fill="#000000" fill-opacity="1"><g transform="translate(144.989616, 413.866925)"><g><path d="M 9.75 -12.578125 C 10.289062 -12.578125 10.804688 -12.460938 11.296875 -12.234375 L 10.015625 -9.515625 C 9.691406 -9.609375 9.378906 -9.65625 9.078125 -9.65625 C 8.546875 -9.65625 8.03125 -9.492188 7.53125 -9.171875 C 7.03125 -8.859375 6.644531 -8.5 6.375 -8.09375 C 5.726562 -7.144531 5.269531 -5.835938 5 -4.171875 L 4.125 0 L 0.8125 0 L 3.375 -12.28125 L 6.46875 -12.28125 L 5.984375 -9.921875 C 6.535156 -10.785156 7.117188 -11.441406 7.734375 -11.890625 C 8.347656 -12.347656 9.019531 -12.578125 9.75 -12.578125 Z M 9.75 -12.578125 "/></g></g></g><g clip-path="url(#c206d9ea2d)"><g clip-path="url(#0c48b3f99e)"><path stroke-linecap="butt" transform="matrix(0.749236, 0, 0, 0.749236, 175.881792, 153.593728)" fill="none" stroke-linejoin="miter" d="M 61.814316 0.0000299475 C 27.67538 0.0000299475 0.00136169 19.295724 0.00136169 43.096005 C 0.00136169 66.896287 27.67538 86.186767 61.814316 86.186767 C 95.953252 86.186767 123.632484 66.896287 123.632484 43.096005 C 123.632484 19.295724 95.953252 0.0000299475 61.814316 0.0000299475 Z M 61.814316 0.0000299475 " stroke="#60941a" stroke-width="8" stroke-opacity="1" stroke-miterlimit="4"/></g></g><g fill="#000000" fill-opacity="1"><g transform="translate(201.360887, 195.933899)"><g><path d="M 20.453125 -18.765625 C 19.648438 -12.023438 17.144531 -5.632812 12.9375 0.40625 L 12.78125 7.296875 L 7.796875 7.296875 C 7.960938 4.679688 8.046875 2.644531 8.046875 1.1875 C 8.046875 -0.457031 7.753906 -2.382812 7.171875 -4.59375 C 6.597656 -6.800781 5.890625 -8.820312 5.046875 -10.65625 C 4.191406 -12.507812 3.488281 -13.726562 2.9375 -14.3125 C 2.394531 -14.90625 1.796875 -15.203125 1.140625 -15.203125 C 0.910156 -15.203125 0.675781 -15.164062 0.4375 -15.09375 L 0.4375 -18.71875 C 1.28125 -18.96875 2 -19.09375 2.59375 -19.09375 C 4.164062 -19.09375 5.429688 -18.515625 6.390625 -17.359375 C 8.546875 -14.722656 10.3125 -10.472656 11.6875 -4.609375 L 11.796875 -4.609375 C 13.753906 -8.835938 14.972656 -13.554688 15.453125 -18.765625 Z M 20.453125 -18.765625 "/></g></g></g><g fill="#000000" fill-opacity="1"><g transform="translate(219.979317, 201.269296)"><g><path d="M 8.875 -17.046875 C 10.3125 -17.046875 11.457031 -16.535156 12.3125 -15.515625 C 13.164062 -14.503906 13.59375 -13.054688 13.59375 -11.171875 C 13.59375 -9.734375 13.335938 -8.117188 12.828125 -6.328125 C 12.328125 -4.546875 11.523438 -3 10.421875 -1.6875 C 9.328125 -0.375 7.957031 0.28125 6.3125 0.28125 C 4.757812 0.28125 3.582031 -0.257812 2.78125 -1.34375 C 1.988281 -2.4375 1.59375 -3.832031 1.59375 -5.53125 C 1.59375 -7.3125 1.890625 -9.09375 2.484375 -10.875 C 3.078125 -12.664062 3.925781 -14.140625 5.03125 -15.296875 C 6.132812 -16.460938 7.414062 -17.046875 8.875 -17.046875 Z M 5.546875 -9.625 C 5.304688 -8.675781 5.125 -7.71875 5 -6.75 C 4.875 -5.789062 4.8125 -5.15625 4.8125 -4.84375 C 4.8125 -3.207031 5.34375 -2.390625 6.40625 -2.390625 C 7.019531 -2.390625 7.53125 -2.625 7.9375 -3.09375 C 8.351562 -3.570312 8.726562 -4.265625 9.0625 -5.171875 C 9.375 -5.972656 9.625 -6.863281 9.8125 -7.84375 C 10.007812 -8.832031 10.148438 -9.710938 10.234375 -10.484375 C 10.316406 -11.253906 10.359375 -11.753906 10.359375 -11.984375 C 10.359375 -12.703125 10.222656 -13.28125 9.953125 -13.71875 C 9.691406 -14.15625 9.300781 -14.375 8.78125 -14.375 C 7.414062 -14.375 6.335938 -12.789062 5.546875 -9.625 Z M 5.546875 -9.625 "/></g></g></g><g fill="#000000" fill-opacity="1"><g transform="translate(233.166542, 201.269296)"><g><path d="M 7.234375 -12.28125 L 9.28125 -12.28125 L 8.75 -9.859375 L 6.71875 -9.859375 L 5.625 -4.53125 C 5.46875 -3.832031 5.390625 -3.347656 5.390625 -3.078125 C 5.390625 -2.796875 5.472656 -2.585938 5.640625 -2.453125 C 5.816406 -2.316406 6.09375 -2.25 6.46875 -2.25 C 6.726562 -2.25 7.09375 -2.28125 7.5625 -2.34375 L 7.046875 0.125 C 6.648438 0.21875 6.085938 0.265625 5.359375 0.265625 C 3.066406 0.265625 1.921875 -0.570312 1.921875 -2.25 C 1.921875 -2.582031 2.007812 -3.21875 2.1875 -4.15625 L 2.296875 -4.703125 L 3.390625 -9.859375 L 1.78125 -9.859375 L 2.296875 -12.28125 L 3.90625 -12.28125 L 4.3125 -14.25 L 8.109375 -16.5625 Z M 7.234375 -12.28125 "/></g></g></g><g clip-path="url(#741e110f0b)"><g clip-path="url(#695b226e7f)"><path stroke-linecap="butt" transform="matrix(0.749236, 0, 0, 0.749236, 225.371478, 223.286962)" fill="none" stroke-linejoin="miter" d="M 67.907186 -0.00240995 C 30.400239 -0.00240995 -0.000512979 18.620723 -0.000512979 41.592033 C -0.000512979 64.563344 30.400239 83.186476 67.907186 83.186476 C 105.40892 83.186476 135.814885 64.563344 135.814885 41.592033 C 135.814885 18.620723 105.40892 -0.00240995 67.907186 -0.00240995 Z M 67.907186 -0.00240995 " stroke="#60941a" stroke-width="8" stroke-opacity="1" stroke-miterlimit="4"/></g></g><g fill="#000000" fill-opacity="1"><g transform="translate(270.438841, 273.305414)"><g><path d="M 10.125 -17.046875 L 12.140625 -17.046875 L 8.5625 0 L 5.21875 0 L 7.6875 -11.734375 C 6.957031 -11.265625 6.15625 -10.851562 5.28125 -10.5 C 4.414062 -10.144531 3.601562 -9.882812 2.84375 -9.71875 L 3.46875 -12.6875 C 6.28125 -13.875 8.5 -15.328125 10.125 -17.046875 Z M 10.125 -17.046875 "/></g></g></g><g fill="#000000" fill-opacity="1"><g transform="translate(283.626066, 273.305414)"><g><path d="M 7.234375 -12.28125 L 9.28125 -12.28125 L 8.75 -9.859375 L 6.71875 -9.859375 L 5.625 -4.53125 C 5.46875 -3.832031 5.390625 -3.347656 5.390625 -3.078125 C 5.390625 -2.796875 5.472656 -2.585938 5.640625 -2.453125 C 5.816406 -2.316406 6.09375 -2.25 6.46875 -2.25 C 6.726562 -2.25 7.09375 -2.28125 7.5625 -2.34375 L 7.046875 0.125 C 6.648438 0.21875 6.085938 0.265625 5.359375 0.265625 C 3.066406 0.265625 1.921875 -0.570312 1.921875 -2.25 C 1.921875 -2.582031 2.007812 -3.21875 2.1875 -4.15625 L 2.296875 -4.703125 L 3.390625 -9.859375 L 1.78125 -9.859375 L 2.296875 -12.28125 L 3.90625 -12.28125 L 4.3125 -14.25 L 8.109375 -16.5625 Z M 7.234375 -12.28125 "/></g></g></g><g fill="#000000" fill-opacity="1"><g transform="translate(253.990237, 263.798691)"><g><path d="M 20.453125 -18.765625 C 19.648438 -12.023438 17.144531 -5.632812 12.9375 0.40625 L 12.78125 7.296875 L 7.796875 7.296875 C 7.960938 4.679688 8.046875 2.644531 8.046875 1.1875 C 8.046875 -0.457031 7.753906 -2.382812 7.171875 -4.59375 C 6.597656 -6.800781 5.890625 -8.820312 5.046875 -10.65625 C 4.191406 -12.507812 3.488281 -13.726562 2.9375 -14.3125 C 2.394531 -14.90625 1.796875 -15.203125 1.140625 -15.203125 C 0.910156 -15.203125 0.675781 -15.164062 0.4375 -15.09375 L 0.4375 -18.71875 C 1.28125 -18.96875 2 -19.09375 2.59375 -19.09375 C 4.164062 -19.09375 5.429688 -18.515625 6.390625 -17.359375 C 8.546875 -14.722656 10.3125 -10.472656 11.6875 -4.609375 L 11.796875 -4.609375 C 13.753906 -8.835938 14.972656 -13.554688 15.453125 -18.765625 Z M 20.453125 -18.765625 "/></g></g></g></svg>