<svg xmlns="http://www.w3.org/2000/svg" xmlns:xlink="http://www.w3.org/1999/xlink" width="369" zoomAndPan="magnify" viewBox="0 0 276.75 591.000005" height="788" preserveAspectRatio="xMidYMid meet" version="1.0"><defs><g/><clipPath id="49e441f191"><path d="M 4.910156 34.15625 L 275.953125 34.15625 L 275.953125 387.554688 L 4.910156 387.554688 Z M 4.910156 34.15625 " clip-rule="nonzero"/></clipPath><clipPath id="db5c247099"><path d="M 14.644531 34.15625 L 265.9375 34.15625 C 268.519531 34.15625 270.996094 35.183594 272.820312 37.007812 C 274.644531 38.832031 275.671875 41.308594 275.671875 43.890625 L 275.671875 378.132812 C 275.671875 380.714844 274.644531 383.191406 272.820312 385.015625 C 270.996094 386.839844 268.519531 387.867188 265.9375 387.867188 L 14.644531 387.867188 C 12.0625 387.867188 9.585938 386.839844 7.761719 385.015625 C 5.9375 383.191406 4.910156 380.714844 4.910156 378.132812 L 4.910156 43.890625 C 4.910156 41.308594 5.9375 38.832031 7.761719 37.007812 C 9.585938 35.183594 12.0625 34.15625 14.644531 34.15625 Z M 14.644531 34.15625 " clip-rule="nonzero"/></clipPath><clipPath id="5b56681581"><path d="M 18.570312 66.109375 L 222.273438 66.109375 L 222.273438 117.335938 L 18.570312 117.335938 Z M 18.570312 66.109375 " clip-rule="nonzero"/></clipPath><clipPath id="ff4d1e250e"><path d="M 25.308594 66.109375 L 215.378906 66.109375 C 219.101562 66.109375 222.117188 69.125 222.117188 72.847656 L 222.117188 110.597656 C 222.117188 114.320312 219.101562 117.335938 215.378906 117.335938 L 25.308594 117.335938 C 21.585938 117.335938 18.570312 114.320312 18.570312 110.597656 L 18.570312 72.847656 C 18.570312 69.125 21.585938 66.109375 25.308594 66.109375 Z M 25.308594 66.109375 " clip-rule="nonzero"/></clipPath><clipPath id="cfb0496efd"><path d="M 18.582031 66.109375 L 222.222656 66.109375 L 222.222656 117.023438 L 18.582031 117.023438 Z M 18.582031 66.109375 " clip-rule="nonzero"/></clipPath><clipPath id="02f77f0622"><path d="M 25.320312 66.109375 L 215.359375 66.109375 C 219.078125 66.109375 222.097656 69.125 222.097656 72.847656 L 222.097656 110.589844 C 222.097656 114.3125 219.078125 117.328125 215.359375 117.328125 L 25.320312 117.328125 C 21.597656 117.328125 18.582031 114.3125 18.582031 110.589844 L 18.582031 72.847656 C 18.582031 69.125 21.597656 66.109375 25.320312 66.109375 Z M 25.320312 66.109375 " clip-rule="nonzero"/></clipPath><clipPath id="9371959862"><path d="M 64 360 L 117 360 L 117 590 L 64 590 Z M 64 360 " clip-rule="nonzero"/></clipPath><clipPath id="ff321e0207"><path d="M 56.035156 298.496094 L 158.609375 298.496094 L 158.609375 367.234375 L 56.035156 367.234375 Z M 56.035156 298.496094 " clip-rule="nonzero"/></clipPath><clipPath id="f744a38b9d"><path d="M 107.496094 298.496094 C 79.074219 298.496094 56.035156 313.847656 56.035156 332.785156 C 56.035156 351.722656 79.074219 367.074219 107.496094 367.074219 C 135.914062 367.074219 158.957031 351.722656 158.957031 332.785156 C 158.957031 313.847656 135.914062 298.496094 107.496094 298.496094 Z M 107.496094 298.496094 " clip-rule="nonzero"/></clipPath><clipPath id="db9a776112"><path d="M 24.105469 186.5 L 126.679688 186.5 L 126.679688 255.238281 L 24.105469 255.238281 Z M 24.105469 186.5 " clip-rule="nonzero"/></clipPath><clipPath id="bc3fe6cc18"><path d="M 75.566406 186.5 C 47.148438 186.5 24.105469 201.851562 24.105469 220.789062 C 24.105469 239.726562 47.148438 255.078125 75.566406 255.078125 C 103.988281 255.078125 127.027344 239.726562 127.027344 220.789062 C 127.027344 201.851562 103.988281 186.5 75.566406 186.5 Z M 75.566406 186.5 " clip-rule="nonzero"/></clipPath><clipPath id="6c2805b30d"><path d="M 60.273438 204.382812 L 78.242188 204.382812 L 78.242188 214.117188 L 60.273438 214.117188 Z M 60.273438 204.382812 " clip-rule="nonzero"/></clipPath><clipPath id="86c009981e"><path d="M 149.941406 178.183594 L 252.515625 178.183594 L 252.515625 246.921875 L 149.941406 246.921875 Z M 149.941406 178.183594 " clip-rule="nonzero"/></clipPath><clipPath id="e8fc2a4e5f"><path d="M 201.402344 178.183594 C 172.980469 178.183594 149.941406 193.535156 149.941406 212.472656 C 149.941406 231.410156 172.980469 246.761719 201.402344 246.761719 C 229.824219 246.761719 252.863281 231.410156 252.863281 212.472656 C 252.863281 193.535156 229.824219 178.183594 201.402344 178.183594 Z M 201.402344 178.183594 " clip-rule="nonzero"/></clipPath><clipPath id="15f9092a48"><path d="M 184.644531 193.0625 L 202.613281 193.0625 L 202.613281 202.796875 L 184.644531 202.796875 Z M 184.644531 193.0625 " clip-rule="nonzero"/></clipPath></defs><g clip-path="url(#49e441f191)"><g clip-path="url(#db5c247099)"><path stroke-linecap="butt" transform="matrix(0.748733, 0, 0, 0.748733, 4.9109, 34.156543)" fill="none" stroke-linejoin="miter" d="M 13.000134 -0.000391667 L 348.624348 -0.000391667 C 352.072882 -0.000391667 355.380552 1.371718 357.816959 3.808125 C 360.253366 6.244532 361.625476 9.552203 361.625476 13.000736 L 361.625476 459.411044 C 361.625476 462.859577 360.253366 466.167248 357.816959 468.603655 C 355.380552 471.040062 352.072882 472.412171 348.624348 472.412171 L 13.000134 472.412171 C 9.551601 472.412171 6.24393 471.040062 3.807523 468.603655 C 1.371116 466.167248 -0.000993676 462.859577 -0.000993676 459.411044 L -0.000993676 13.000736 C -0.000993676 9.552203 1.371116 6.244532 3.807523 3.808125 C 6.24393 1.371718 9.551601 -0.000391667 13.000134 -0.000391667 Z M 13.000134 -0.000391667 " stroke="#004aad" stroke-width="8" stroke-opacity="1" stroke-miterlimit="4"/></g></g><g clip-path="url(#5b56681581)"><g clip-path="url(#ff4d1e250e)"><path fill="#004aad" d="M 18.570312 66.109375 L 222.074219 66.109375 L 222.074219 117.335938 L 18.570312 117.335938 Z M 18.570312 66.109375 " fill-opacity="1" fill-rule="nonzero"/></g></g><g clip-path="url(#cfb0496efd)"><g clip-path="url(#02f77f0622)"><path stroke-linecap="butt" transform="matrix(0.748733, 0, 0, 0.748733, 18.580939, 66.109677)" fill="none" stroke-linejoin="miter" d="M 9.001036 -0.000403475 L 262.815201 -0.000403475 C 267.781925 -0.000403475 271.814779 4.027233 271.814779 8.999174 L 271.814779 59.407241 C 271.814779 64.379181 267.781925 68.406818 262.815201 68.406818 L 9.001036 68.406818 C 4.029096 68.406818 0.00145885 64.379181 0.00145885 59.407241 L 0.00145885 8.999174 C 0.00145885 4.027233 4.029096 -0.000403475 9.001036 -0.000403475 Z M 9.001036 -0.000403475 " stroke="#004aad" stroke-width="8" stroke-opacity="1" stroke-miterlimit="4"/></g></g><g fill="#9b0e34" fill-opacity="1"><g transform="translate(117.717807, 99.053933)"><g/></g></g><path stroke-linecap="round" transform="matrix(0.162389, -0.730911, 0.730911, 0.162389, 77.271409, 184.992939)" fill="none" stroke-linejoin="miter" d="M 1.499944 1.502643 L 71.676294 1.500843 " stroke="#000000" stroke-width="3" stroke-opacity="1" stroke-miterlimit="4"/><path stroke-linecap="round" transform="matrix(0.162389, -0.730911, 0.730911, 0.162389, 77.271409, 184.992939)" fill-opacity="1" fill="#000000" fill-rule="nonzero" stroke-linejoin="round" d="M 73.177216 -3.00122 L 79.174756 1.502326 L 73.177925 5.998519 Z M 73.177216 -3.00122 " stroke="#000000" stroke-width="3" stroke-opacity="1" stroke-miterlimit="4"/><path stroke-linecap="round" transform="matrix(-0.243116, -0.708164, 0.708164, -0.243116, 106.430386, 298.856859)" fill="none" stroke-linejoin="miter" d="M 1.499906 1.501308 L 48.138518 1.499559 " stroke="#000000" stroke-width="3" stroke-opacity="1" stroke-miterlimit="4"/><path stroke-linecap="round" transform="matrix(-0.243116, -0.708164, 0.708164, -0.243116, 106.430386, 298.856859)" fill-opacity="1" fill="#000000" fill-rule="nonzero" stroke-linejoin="round" d="M 49.633977 -3.001111 L 55.635559 1.497347 L 49.637559 6.002275 Z M 49.633977 -3.001111 " stroke="#000000" stroke-width="3" stroke-opacity="1" stroke-miterlimit="4"/><g clip-path="url(#9371959862)"><path stroke-linecap="round" transform="matrix(-0.0964014, 0.742501, -0.742501, -0.0964014, 105.120527, 372.612128)" fill="none" stroke-linejoin="miter" d="M 1.500808 1.498403 L 282.340176 1.499631 " stroke="#000000" stroke-width="3" stroke-opacity="1" stroke-miterlimit="4"/></g><path stroke-linecap="round" transform="matrix(-0.0964014, 0.742501, -0.742501, -0.0964014, 105.120527, 372.612128)" fill-opacity="1" fill="#000000" fill-rule="nonzero" stroke-linejoin="round" d="M 283.844676 -2.999148 L 289.842173 1.498894 L 283.840252 6.002886 Z M 283.844676 -2.999148 " stroke="#000000" stroke-width="3" stroke-opacity="1" stroke-miterlimit="4"/><path fill="#ffffff" d="M 59.5 52.625 L 59.5 50.628906 C 59.5 45.804688 55.589844 41.894531 50.765625 41.894531 L 29.3125 41.894531 C 24.488281 41.894531 20.578125 37.980469 20.578125 33.15625 L 20.578125 15.6875 C 20.578125 10.863281 24.488281 6.953125 29.3125 6.953125 L 175.457031 6.953125 C 177.773438 6.953125 179.996094 7.871094 181.632812 9.511719 C 183.269531 11.148438 184.191406 13.371094 184.191406 15.6875 L 184.191406 33.15625 C 184.191406 35.472656 183.269531 37.695312 181.632812 39.335938 C 179.996094 40.972656 177.773438 41.894531 175.457031 41.894531 L 153.992188 41.894531 C 151.675781 41.894531 149.453125 42.8125 147.816406 44.453125 C 146.175781 46.089844 145.257812 48.3125 145.257812 50.628906 L 145.257812 52.625 C 145.257812 54.941406 144.335938 57.164062 142.699219 58.800781 C 141.058594 60.441406 138.839844 61.359375 136.523438 61.359375 L 68.234375 61.359375 C 63.410156 61.359375 59.5 57.449219 59.5 52.625 Z M 59.5 52.625 " fill-opacity="1" fill-rule="nonzero"/><g fill="#004aad" fill-opacity="1"><g transform="translate(28.563755, 32.658644)"><g><path d="M 8.953125 -9.5625 C 8.953125 -10.175781 8.753906 -10.644531 8.359375 -10.96875 C 7.972656 -11.300781 7.40625 -11.46875 6.65625 -11.46875 L 4.796875 -11.46875 L 4.796875 -7.5625 L 6.734375 -7.5625 C 7.429688 -7.5625 7.972656 -7.738281 8.359375 -8.09375 C 8.753906 -8.445312 8.953125 -8.9375 8.953125 -9.5625 Z M 12.234375 -9.578125 C 12.234375 -8.609375 11.976562 -7.789062 11.46875 -7.125 C 10.957031 -6.46875 10.238281 -5.988281 9.3125 -5.6875 L 12.96875 0 L 9.3125 0 L 6.28125 -5.3125 L 4.796875 -5.3125 L 4.796875 0 L 1.546875 0 L 1.546875 -13.734375 L 7 -13.734375 C 8.6875 -13.734375 9.976562 -13.375 10.875 -12.65625 C 11.78125 -11.945312 12.234375 -10.921875 12.234375 -9.578125 Z M 12.234375 -9.578125 "/></g></g></g><g fill="#004aad" fill-opacity="1"><g transform="translate(41.593249, 32.658644)"><g><path d="M 1.546875 0 L 1.546875 -13.734375 L 9.6875 -13.734375 L 9.6875 -11.1875 L 4.8125 -11.1875 L 4.8125 -8.1875 L 9.09375 -8.1875 L 9.09375 -5.71875 L 4.8125 -5.71875 L 4.8125 -2.53125 L 10.09375 -2.53125 L 10.09375 0 Z M 1.546875 0 "/></g></g></g><g fill="#004aad" fill-opacity="1"><g transform="translate(52.215648, 32.658644)"><g><path d="M 8.578125 -9.375 C 8.578125 -10.03125 8.378906 -10.539062 7.984375 -10.90625 C 7.597656 -11.28125 7.019531 -11.46875 6.25 -11.46875 L 4.796875 -11.46875 L 4.796875 -7.1875 L 6.328125 -7.1875 C 7.046875 -7.1875 7.597656 -7.375 7.984375 -7.75 C 8.378906 -8.125 8.578125 -8.664062 8.578125 -9.375 Z M 11.84375 -9.390625 C 11.84375 -8.492188 11.640625 -7.707031 11.234375 -7.03125 C 10.835938 -6.363281 10.25 -5.84375 9.46875 -5.46875 C 8.695312 -5.101562 7.773438 -4.921875 6.703125 -4.921875 L 4.796875 -4.921875 L 4.796875 0 L 1.546875 0 L 1.546875 -13.734375 L 6.609375 -13.734375 C 8.296875 -13.734375 9.585938 -13.359375 10.484375 -12.609375 C 11.390625 -11.867188 11.84375 -10.796875 11.84375 -9.390625 Z M 11.84375 -9.390625 "/></g></g></g><g fill="#004aad" fill-opacity="1"><g transform="translate(64.475261, 32.658644)"><g><path d="M 8.953125 -9.5625 C 8.953125 -10.175781 8.753906 -10.644531 8.359375 -10.96875 C 7.972656 -11.300781 7.40625 -11.46875 6.65625 -11.46875 L 4.796875 -11.46875 L 4.796875 -7.5625 L 6.734375 -7.5625 C 7.429688 -7.5625 7.972656 -7.738281 8.359375 -8.09375 C 8.753906 -8.445312 8.953125 -8.9375 8.953125 -9.5625 Z M 12.234375 -9.578125 C 12.234375 -8.609375 11.976562 -7.789062 11.46875 -7.125 C 10.957031 -6.46875 10.238281 -5.988281 9.3125 -5.6875 L 12.96875 0 L 9.3125 0 L 6.28125 -5.3125 L 4.796875 -5.3125 L 4.796875 0 L 1.546875 0 L 1.546875 -13.734375 L 7 -13.734375 C 8.6875 -13.734375 9.976562 -13.375 10.875 -12.65625 C 11.78125 -11.945312 12.234375 -10.921875 12.234375 -9.578125 Z M 12.234375 -9.578125 "/></g></g></g><g fill="#004aad" fill-opacity="1"><g transform="translate(77.504755, 32.658644)"><g><path d="M 14.21875 -6.9375 C 14.21875 -4.6875 13.632812 -2.9375 12.46875 -1.6875 C 11.3125 -0.4375 9.675781 0.1875 7.5625 0.1875 C 5.414062 0.1875 3.769531 -0.421875 2.625 -1.640625 C 1.488281 -2.867188 0.921875 -4.632812 0.921875 -6.9375 C 0.921875 -9.195312 1.488281 -10.925781 2.625 -12.125 C 3.769531 -13.332031 5.421875 -13.9375 7.578125 -13.9375 C 9.722656 -13.9375 11.363281 -13.332031 12.5 -12.125 C 13.644531 -10.925781 14.21875 -9.195312 14.21875 -6.9375 Z M 10.9375 -6.9375 C 10.9375 -9.90625 9.816406 -11.390625 7.578125 -11.390625 C 6.453125 -11.390625 5.609375 -11.023438 5.046875 -10.296875 C 4.492188 -9.578125 4.21875 -8.457031 4.21875 -6.9375 C 4.21875 -3.875 5.332031 -2.34375 7.5625 -2.34375 C 8.695312 -2.34375 9.539062 -2.707031 10.09375 -3.4375 C 10.65625 -4.175781 10.9375 -5.34375 10.9375 -6.9375 Z M 10.9375 -6.9375 "/></g></g></g><g fill="#004aad" fill-opacity="1"><g transform="translate(92.639237, 32.658644)"><g><path d="M 10.515625 -6.953125 C 10.515625 -8.328125 10.164062 -9.378906 9.46875 -10.109375 C 8.769531 -10.835938 7.765625 -11.203125 6.453125 -11.203125 L 4.796875 -11.203125 L 4.796875 -2.53125 L 6.828125 -2.53125 C 7.972656 -2.53125 8.875 -2.921875 9.53125 -3.703125 C 10.1875 -4.492188 10.515625 -5.578125 10.515625 -6.953125 Z M 13.78125 -6.953125 C 13.78125 -5.546875 13.503906 -4.3125 12.953125 -3.25 C 12.398438 -2.195312 11.617188 -1.390625 10.609375 -0.828125 C 9.597656 -0.273438 8.425781 0 7.09375 0 L 1.546875 0 L 1.546875 -13.734375 L 6.515625 -13.734375 C 8.835938 -13.734375 10.628906 -13.144531 11.890625 -11.96875 C 13.148438 -10.800781 13.78125 -9.128906 13.78125 -6.953125 Z M 13.78125 -6.953125 "/></g></g></g><g fill="#004aad" fill-opacity="1"><g transform="translate(107.354671, 32.658644)"><g><path d="M 13.015625 -5.328125 C 13.015625 -3.515625 12.523438 -2.140625 11.546875 -1.203125 C 10.566406 -0.273438 9.109375 0.1875 7.171875 0.1875 C 5.265625 0.1875 3.828125 -0.265625 2.859375 -1.171875 C 1.898438 -2.078125 1.421875 -3.425781 1.421875 -5.21875 L 1.421875 -13.734375 L 4.6875 -13.734375 L 4.6875 -5.4375 C 4.6875 -4.34375 4.90625 -3.550781 5.34375 -3.0625 C 5.78125 -2.582031 6.421875 -2.34375 7.265625 -2.34375 C 8.117188 -2.34375 8.75 -2.597656 9.15625 -3.109375 C 9.5625 -3.617188 9.765625 -4.429688 9.765625 -5.546875 L 9.765625 -13.734375 L 13.015625 -13.734375 Z M 13.015625 -5.328125 "/></g></g></g><g fill="#004aad" fill-opacity="1"><g transform="translate(121.78749, 32.658644)"><g><path d="M 6.8125 0.1875 C 4.9375 0.1875 3.484375 -0.429688 2.453125 -1.671875 C 1.429688 -2.921875 0.921875 -4.675781 0.921875 -6.9375 C 0.921875 -9.195312 1.414062 -10.925781 2.40625 -12.125 C 3.394531 -13.332031 4.835938 -13.9375 6.734375 -13.9375 C 8.015625 -13.9375 9.082031 -13.640625 9.9375 -13.046875 C 10.789062 -12.460938 11.46875 -11.488281 11.96875 -10.125 L 9.171875 -9.1875 C 8.953125 -9.914062 8.640625 -10.460938 8.234375 -10.828125 C 7.835938 -11.203125 7.367188 -11.390625 6.828125 -11.390625 C 5.972656 -11.390625 5.320312 -11.015625 4.875 -10.265625 C 4.4375 -9.515625 4.21875 -8.40625 4.21875 -6.9375 C 4.21875 -5.488281 4.4375 -4.359375 4.875 -3.546875 C 5.320312 -2.742188 5.960938 -2.34375 6.796875 -2.34375 C 7.296875 -2.34375 7.734375 -2.53125 8.109375 -2.90625 C 8.492188 -3.289062 8.828125 -3.910156 9.109375 -4.765625 L 12.015625 -3.734375 C 11.484375 -2.347656 10.789062 -1.347656 9.9375 -0.734375 C 9.082031 -0.117188 8.039062 0.1875 6.8125 0.1875 Z M 6.8125 0.1875 "/></g></g></g><g fill="#004aad" fill-opacity="1"><g transform="translate(134.24201, 32.658644)"><g><path d="M 7.484375 -11.171875 L 7.484375 0 L 4.21875 0 L 4.21875 -11.171875 L 0.28125 -11.171875 L 0.28125 -13.734375 L 11.421875 -13.734375 L 11.421875 -11.171875 Z M 7.484375 -11.171875 "/></g></g></g><g fill="#004aad" fill-opacity="1"><g transform="translate(145.936394, 32.658644)"><g><path d="M 1.546875 0 L 1.546875 -13.734375 L 4.8125 -13.734375 L 4.8125 0 Z M 1.546875 0 "/></g></g></g><g fill="#004aad" fill-opacity="1"><g transform="translate(152.261107, 32.658644)"><g><path d="M 8.3125 0 L 5.03125 0 L 0 -13.734375 L 3.359375 -13.734375 L 6.015625 -5.1875 C 6.191406 -4.601562 6.332031 -4.085938 6.4375 -3.640625 C 6.539062 -3.203125 6.628906 -2.847656 6.703125 -2.578125 C 6.828125 -3.253906 7.046875 -4.09375 7.359375 -5.09375 L 9.984375 -13.734375 L 13.34375 -13.734375 Z M 8.3125 0 "/></g></g></g><g fill="#004aad" fill-opacity="1"><g transform="translate(165.573215, 32.658644)"><g><path d="M 1.546875 0 L 1.546875 -13.734375 L 9.6875 -13.734375 L 9.6875 -11.1875 L 4.8125 -11.1875 L 4.8125 -8.1875 L 9.09375 -8.1875 L 9.09375 -5.71875 L 4.8125 -5.71875 L 4.8125 -2.53125 L 10.09375 -2.53125 L 10.09375 0 Z M 1.546875 0 "/></g></g></g><g fill="#004aad" fill-opacity="1"><g transform="translate(67.486177, 52.125704)"><g><path d="M 14.6875 0 L 14.6875 -7.96875 C 14.6875 -8.457031 14.691406 -8.945312 14.703125 -9.4375 C 14.710938 -9.925781 14.726562 -10.414062 14.75 -10.90625 C 14.601562 -10.507812 14.460938 -10.109375 14.328125 -9.703125 C 14.203125 -9.304688 14.066406 -8.910156 13.921875 -8.515625 L 10.71875 0 L 8.453125 0 L 5.171875 -8.515625 C 4.859375 -9.328125 4.59375 -10.125 4.375 -10.90625 C 4.382812 -10.414062 4.394531 -9.925781 4.40625 -9.4375 C 4.425781 -8.957031 4.4375 -8.472656 4.4375 -7.984375 L 4.4375 0 L 1.546875 0 L 1.546875 -13.734375 L 5.921875 -13.734375 L 8.203125 -7.796875 C 8.492188 -7.054688 8.785156 -6.257812 9.078125 -5.40625 C 9.367188 -4.5625 9.535156 -4.015625 9.578125 -3.765625 C 10.078125 -5.222656 10.570312 -6.597656 11.0625 -7.890625 L 13.234375 -13.734375 L 17.5625 -13.734375 L 17.5625 0 Z M 14.6875 0 "/></g></g></g><g fill="#004aad" fill-opacity="1"><g transform="translate(86.587005, 52.125704)"><g><path d="M 14.21875 -6.9375 C 14.21875 -4.6875 13.632812 -2.9375 12.46875 -1.6875 C 11.3125 -0.4375 9.675781 0.1875 7.5625 0.1875 C 5.414062 0.1875 3.769531 -0.421875 2.625 -1.640625 C 1.488281 -2.867188 0.921875 -4.632812 0.921875 -6.9375 C 0.921875 -9.195312 1.488281 -10.925781 2.625 -12.125 C 3.769531 -13.332031 5.421875 -13.9375 7.578125 -13.9375 C 9.722656 -13.9375 11.363281 -13.332031 12.5 -12.125 C 13.644531 -10.925781 14.21875 -9.195312 14.21875 -6.9375 Z M 10.9375 -6.9375 C 10.9375 -9.90625 9.816406 -11.390625 7.578125 -11.390625 C 6.453125 -11.390625 5.609375 -11.023438 5.046875 -10.296875 C 4.492188 -9.578125 4.21875 -8.457031 4.21875 -6.9375 C 4.21875 -3.875 5.332031 -2.34375 7.5625 -2.34375 C 8.695312 -2.34375 9.539062 -2.707031 10.09375 -3.4375 C 10.65625 -4.175781 10.9375 -5.34375 10.9375 -6.9375 Z M 10.9375 -6.9375 "/></g></g></g><g fill="#004aad" fill-opacity="1"><g transform="translate(101.721487, 52.125704)"><g><path d="M 10.515625 -6.953125 C 10.515625 -8.328125 10.164062 -9.378906 9.46875 -10.109375 C 8.769531 -10.835938 7.765625 -11.203125 6.453125 -11.203125 L 4.796875 -11.203125 L 4.796875 -2.53125 L 6.828125 -2.53125 C 7.972656 -2.53125 8.875 -2.921875 9.53125 -3.703125 C 10.1875 -4.492188 10.515625 -5.578125 10.515625 -6.953125 Z M 13.78125 -6.953125 C 13.78125 -5.546875 13.503906 -4.3125 12.953125 -3.25 C 12.398438 -2.195312 11.617188 -1.390625 10.609375 -0.828125 C 9.597656 -0.273438 8.425781 0 7.09375 0 L 1.546875 0 L 1.546875 -13.734375 L 6.515625 -13.734375 C 8.835938 -13.734375 10.628906 -13.144531 11.890625 -11.96875 C 13.148438 -10.800781 13.78125 -9.128906 13.78125 -6.953125 Z M 13.78125 -6.953125 "/></g></g></g><g fill="#004aad" fill-opacity="1"><g transform="translate(116.436921, 52.125704)"><g><path d="M 1.546875 0 L 1.546875 -13.734375 L 9.6875 -13.734375 L 9.6875 -11.1875 L 4.8125 -11.1875 L 4.8125 -8.1875 L 9.09375 -8.1875 L 9.09375 -5.71875 L 4.8125 -5.71875 L 4.8125 -2.53125 L 10.09375 -2.53125 L 10.09375 0 Z M 1.546875 0 "/></g></g></g><g fill="#004aad" fill-opacity="1"><g transform="translate(127.05932, 52.125704)"><g><path d="M 1.546875 0 L 1.546875 -13.734375 L 4.8125 -13.734375 L 4.8125 -2.53125 L 9.875 -2.53125 L 9.875 0 Z M 1.546875 0 "/></g></g></g><g fill="#ffffff" fill-opacity="1"><g transform="translate(46.989878, 98.459956)"><g><path d="M 7.71875 -8.4375 C 7.71875 -9.03125 7.539062 -9.488281 7.1875 -9.8125 C 6.84375 -10.144531 6.320312 -10.3125 5.625 -10.3125 L 4.3125 -10.3125 L 4.3125 -6.46875 L 5.6875 -6.46875 C 6.34375 -6.46875 6.84375 -6.632812 7.1875 -6.96875 C 7.539062 -7.3125 7.71875 -7.800781 7.71875 -8.4375 Z M 10.65625 -8.453125 C 10.65625 -7.648438 10.472656 -6.941406 10.109375 -6.328125 C 9.753906 -5.722656 9.226562 -5.253906 8.53125 -4.921875 C 7.832031 -4.585938 7 -4.421875 6.03125 -4.421875 L 4.3125 -4.421875 L 4.3125 0 L 1.390625 0 L 1.390625 -12.359375 L 5.953125 -12.359375 C 7.472656 -12.359375 8.632812 -12.023438 9.4375 -11.359375 C 10.25 -10.691406 10.65625 -9.722656 10.65625 -8.453125 Z M 10.65625 -8.453125 "/></g></g></g><g fill="#ffffff" fill-opacity="1"><g transform="translate(58.081751, 98.459956)"><g><path d="M 5.953125 -7.078125 C 5.367188 -7.078125 4.882812 -6.800781 4.5 -6.25 C 4.125 -5.707031 3.9375 -4.992188 3.9375 -4.109375 L 3.9375 0 L 1.15625 0 L 1.15625 -6.8125 C 1.15625 -7.5625 1.132812 -8.304688 1.09375 -9.046875 L 3.75 -9.046875 C 3.820312 -7.984375 3.859375 -7.304688 3.859375 -7.015625 L 3.890625 -7.015625 C 4.160156 -7.816406 4.476562 -8.382812 4.84375 -8.71875 C 5.207031 -9.0625 5.671875 -9.234375 6.234375 -9.234375 C 6.523438 -9.234375 6.769531 -9.1875 6.96875 -9.09375 L 6.96875 -6.96875 C 6.65625 -7.039062 6.316406 -7.078125 5.953125 -7.078125 Z M 5.953125 -7.078125 "/></g></g></g><g fill="#ffffff" fill-opacity="1"><g transform="translate(65.286646, 98.459956)"><g><path d="M 10.359375 -4.5625 C 10.359375 -3.082031 9.925781 -1.921875 9.0625 -1.078125 C 8.195312 -0.242188 6.992188 0.171875 5.453125 0.171875 C 3.941406 0.171875 2.757812 -0.25 1.90625 -1.09375 C 1.050781 -1.945312 0.625 -3.101562 0.625 -4.5625 C 0.625 -6.007812 1.050781 -7.148438 1.90625 -7.984375 C 2.757812 -8.816406 3.957031 -9.234375 5.5 -9.234375 C 7.050781 -9.234375 8.25 -8.832031 9.09375 -8.03125 C 9.9375 -7.226562 10.359375 -6.070312 10.359375 -4.5625 Z M 7.4375 -4.5625 C 7.4375 -6.40625 6.800781 -7.328125 5.53125 -7.328125 C 4.207031 -7.328125 3.546875 -6.40625 3.546875 -4.5625 C 3.546875 -3.644531 3.707031 -2.945312 4.03125 -2.46875 C 4.351562 -1.988281 4.820312 -1.75 5.4375 -1.75 C 6.113281 -1.75 6.613281 -1.976562 6.9375 -2.4375 C 7.269531 -2.894531 7.4375 -3.601562 7.4375 -4.5625 Z M 7.4375 -4.5625 "/></g></g></g><g fill="#ffffff" fill-opacity="1"><g transform="translate(76.325875, 98.459956)"><g><path d="M 3.53125 -4.515625 C 3.53125 -3.554688 3.679688 -2.851562 3.984375 -2.40625 C 4.285156 -1.957031 4.726562 -1.734375 5.3125 -1.734375 C 5.925781 -1.734375 6.390625 -1.976562 6.703125 -2.46875 C 7.023438 -2.96875 7.1875 -3.671875 7.1875 -4.578125 C 7.1875 -5.453125 7.03125 -6.125 6.71875 -6.59375 C 6.40625 -7.070312 5.941406 -7.3125 5.328125 -7.3125 C 4.722656 -7.3125 4.269531 -7.085938 3.96875 -6.640625 C 3.675781 -6.191406 3.53125 -5.484375 3.53125 -4.515625 Z M 0.625 -4.515625 C 0.625 -6.035156 0.945312 -7.195312 1.59375 -8 C 2.25 -8.8125 3.1875 -9.21875 4.40625 -9.21875 C 5.695312 -9.21875 6.617188 -8.671875 7.171875 -7.578125 L 7.21875 -7.578125 C 7.1875 -8.015625 7.171875 -8.539062 7.171875 -9.15625 L 7.171875 -12.75 L 9.953125 -12.75 L 9.953125 -2.109375 C 9.953125 -1.484375 9.984375 -0.78125 10.046875 0 L 7.3125 0 C 7.269531 -0.0820312 7.234375 -0.300781 7.203125 -0.65625 C 7.179688 -1.019531 7.171875 -1.296875 7.171875 -1.484375 L 7.140625 -1.484375 C 6.617188 -0.390625 5.664062 0.15625 4.28125 0.15625 C 3.082031 0.15625 2.171875 -0.238281 1.546875 -1.03125 C 0.929688 -1.832031 0.625 -2.992188 0.625 -4.515625 Z M 0.625 -4.515625 "/></g></g></g><g fill="#ffffff" fill-opacity="1"><g transform="translate(87.505488, 98.459956)"><g><path d="M 3.828125 -9.046875 L 3.828125 -4.109375 C 3.828125 -2.640625 4.285156 -1.90625 5.203125 -1.90625 C 5.710938 -1.90625 6.125 -2.140625 6.4375 -2.609375 C 6.75 -3.085938 6.90625 -3.726562 6.90625 -4.53125 L 6.90625 -9.046875 L 9.703125 -9.046875 L 9.703125 -2.15625 C 9.703125 -1.789062 9.710938 -1.375 9.734375 -0.90625 C 9.753906 -0.4375 9.773438 -0.132812 9.796875 0 L 7.109375 0 C 7.097656 -0.125 7.078125 -0.40625 7.046875 -0.84375 C 7.015625 -1.289062 7 -1.640625 7 -1.890625 L 6.96875 -1.890625 C 6.632812 -1.160156 6.226562 -0.628906 5.75 -0.296875 C 5.28125 0.0234375 4.710938 0.1875 4.046875 0.1875 C 3.054688 0.1875 2.304688 -0.113281 1.796875 -0.71875 C 1.285156 -1.332031 1.03125 -2.25 1.03125 -3.46875 L 1.03125 -9.046875 Z M 3.828125 -9.046875 "/></g></g></g><g fill="#ffffff" fill-opacity="1"><g transform="translate(98.430649, 98.459956)"><g><path d="M 0.625 -4.5 C 0.625 -6.019531 0.960938 -7.191406 1.640625 -8.015625 C 2.328125 -8.835938 3.296875 -9.25 4.546875 -9.25 C 6.703125 -9.25 7.945312 -8.191406 8.28125 -6.078125 L 5.53125 -5.84375 C 5.507812 -6.3125 5.40625 -6.675781 5.21875 -6.9375 C 5.039062 -7.195312 4.816406 -7.328125 4.546875 -7.328125 C 4.148438 -7.328125 3.863281 -7.109375 3.6875 -6.671875 C 3.519531 -6.242188 3.4375 -5.546875 3.4375 -4.578125 C 3.4375 -3.609375 3.535156 -2.894531 3.734375 -2.4375 C 3.929688 -1.976562 4.203125 -1.75 4.546875 -1.75 C 5.117188 -1.75 5.472656 -2.296875 5.609375 -3.390625 L 8.28125 -3.15625 C 8.15625 -2.0625 7.773438 -1.234375 7.140625 -0.671875 C 6.515625 -0.109375 5.660156 0.171875 4.578125 0.171875 C 3.316406 0.171875 2.34375 -0.238281 1.65625 -1.0625 C 0.96875 -1.882812 0.625 -3.03125 0.625 -4.5 Z M 0.625 -4.5 "/></g></g></g><g fill="#ffffff" fill-opacity="1"><g transform="translate(107.109611, 98.459956)"><g><path d="M 4.0625 0.171875 C 3.269531 0.171875 2.648438 -0.0546875 2.203125 -0.515625 C 1.765625 -0.972656 1.546875 -1.609375 1.546875 -2.421875 L 1.546875 -7.171875 L 0.28125 -7.171875 L 0.28125 -9.046875 L 1.609375 -9.046875 L 2.46875 -11.3125 L 4.3125 -11.3125 L 4.3125 -9.046875 L 6.421875 -9.046875 L 6.421875 -7.171875 L 4.3125 -7.171875 L 4.3125 -3.109375 C 4.3125 -2.210938 4.6875 -1.765625 5.4375 -1.765625 C 5.800781 -1.765625 6.164062 -1.800781 6.53125 -1.875 L 6.53125 -0.140625 C 5.957031 -0.00390625 5.492188 0.078125 5.140625 0.109375 C 4.785156 0.148438 4.425781 0.171875 4.0625 0.171875 Z M 4.0625 0.171875 "/></g></g></g><g fill="#ffffff" fill-opacity="1"><g transform="translate(114.156569, 98.459956)"><g><path d="M 1.15625 -10.671875 L 1.15625 -12.75 L 3.9375 -12.75 L 3.9375 -10.671875 Z M 1.15625 0 L 1.15625 -9.046875 L 3.953125 -9.046875 L 3.953125 0 Z M 1.15625 0 "/></g></g></g><g fill="#ffffff" fill-opacity="1"><g transform="translate(119.31707, 98.459956)"><g><path d="M 6.5 0 L 3.15625 0 L -0.046875 -9.046875 L 2.890625 -9.046875 L 4.21875 -4.390625 C 4.613281 -2.992188 4.820312 -2.226562 4.84375 -2.09375 C 4.914062 -2.351562 5.140625 -3.113281 5.515625 -4.375 L 6.875 -9.046875 L 9.796875 -9.046875 Z M 6.5 0 "/></g></g></g><g fill="#ffffff" fill-opacity="1"><g transform="translate(129.110357, 98.459956)"><g><path d="M 1.15625 -10.671875 L 1.15625 -12.75 L 3.9375 -12.75 L 3.9375 -10.671875 Z M 1.15625 0 L 1.15625 -9.046875 L 3.953125 -9.046875 L 3.953125 0 Z M 1.15625 0 "/></g></g></g><g fill="#ffffff" fill-opacity="1"><g transform="translate(134.270859, 98.459956)"><g><path d="M 4.0625 0.171875 C 3.269531 0.171875 2.648438 -0.0546875 2.203125 -0.515625 C 1.765625 -0.972656 1.546875 -1.609375 1.546875 -2.421875 L 1.546875 -7.171875 L 0.28125 -7.171875 L 0.28125 -9.046875 L 1.609375 -9.046875 L 2.46875 -11.3125 L 4.3125 -11.3125 L 4.3125 -9.046875 L 6.421875 -9.046875 L 6.421875 -7.171875 L 4.3125 -7.171875 L 4.3125 -3.109375 C 4.3125 -2.210938 4.6875 -1.765625 5.4375 -1.765625 C 5.800781 -1.765625 6.164062 -1.800781 6.53125 -1.875 L 6.53125 -0.140625 C 5.957031 -0.00390625 5.492188 0.078125 5.140625 0.109375 C 4.785156 0.148438 4.425781 0.171875 4.0625 0.171875 Z M 4.0625 0.171875 "/></g></g></g><g fill="#ffffff" fill-opacity="1"><g transform="translate(141.317816, 98.459956)"><g><path d="M 2.09375 3.984375 C 1.675781 3.984375 1.1875 3.941406 0.625 3.859375 L 0.625 1.875 C 0.695312 1.882812 0.835938 1.898438 1.046875 1.921875 C 1.253906 1.953125 1.414062 1.96875 1.53125 1.96875 C 1.957031 1.96875 2.316406 1.84375 2.609375 1.59375 C 2.898438 1.351562 3.164062 0.957031 3.40625 0.40625 L 3.59375 0 L -0.09375 -9.046875 L 2.84375 -9.046875 L 4.375 -4.40625 C 4.476562 -4.101562 4.679688 -3.378906 4.984375 -2.234375 C 5.054688 -2.503906 5.128906 -2.765625 5.203125 -3.015625 C 5.273438 -3.273438 5.351562 -3.535156 5.4375 -3.796875 L 6.953125 -9.046875 L 9.875 -9.046875 L 6.34375 0.359375 C 6 1.265625 5.632812 1.972656 5.25 2.484375 C 4.875 3.003906 4.441406 3.382812 3.953125 3.625 C 3.472656 3.863281 2.851562 3.984375 2.09375 3.984375 Z M 2.09375 3.984375 "/></g></g></g><g fill="#ffffff" fill-opacity="1"><g transform="translate(151.040916, 98.459956)"><g/></g></g><g fill="#ffffff" fill-opacity="1"><g transform="translate(156.052261, 98.459956)"><g><path d="M 3.53125 -4.515625 C 3.53125 -3.554688 3.679688 -2.851562 3.984375 -2.40625 C 4.285156 -1.957031 4.726562 -1.734375 5.3125 -1.734375 C 5.925781 -1.734375 6.390625 -1.976562 6.703125 -2.46875 C 7.023438 -2.96875 7.1875 -3.671875 7.1875 -4.578125 C 7.1875 -5.453125 7.03125 -6.125 6.71875 -6.59375 C 6.40625 -7.070312 5.941406 -7.3125 5.328125 -7.3125 C 4.722656 -7.3125 4.269531 -7.085938 3.96875 -6.640625 C 3.675781 -6.191406 3.53125 -5.484375 3.53125 -4.515625 Z M 0.625 -4.515625 C 0.625 -6.035156 0.945312 -7.195312 1.59375 -8 C 2.25 -8.8125 3.1875 -9.21875 4.40625 -9.21875 C 5.695312 -9.21875 6.617188 -8.671875 7.171875 -7.578125 L 7.21875 -7.578125 C 7.1875 -8.015625 7.171875 -8.539062 7.171875 -9.15625 L 7.171875 -12.75 L 9.953125 -12.75 L 9.953125 -2.109375 C 9.953125 -1.484375 9.984375 -0.78125 10.046875 0 L 7.3125 0 C 7.269531 -0.0820312 7.234375 -0.300781 7.203125 -0.65625 C 7.179688 -1.019531 7.171875 -1.296875 7.171875 -1.484375 L 7.140625 -1.484375 C 6.617188 -0.390625 5.664062 0.15625 4.28125 0.15625 C 3.082031 0.15625 2.171875 -0.238281 1.546875 -1.03125 C 0.929688 -1.832031 0.625 -2.992188 0.625 -4.515625 Z M 0.625 -4.515625 "/></g></g></g><g fill="#ffffff" fill-opacity="1"><g transform="translate(167.23188, 98.459956)"><g><path d="M 4.421875 -1.5625 C 4.859375 -1.5625 5.207031 -1.773438 5.46875 -2.203125 C 5.738281 -2.628906 5.875 -3.144531 5.875 -3.75 L 5.875 -4.234375 L 4.984375 -4.203125 C 4.410156 -4.171875 4.007812 -4.039062 3.78125 -3.8125 C 3.550781 -3.59375 3.4375 -3.265625 3.4375 -2.828125 C 3.4375 -2.429688 3.519531 -2.117188 3.6875 -1.890625 C 3.851562 -1.671875 4.097656 -1.5625 4.421875 -1.5625 Z M 8.640625 0 L 5.953125 0 L 5.875 -1.328125 C 5.59375 -0.785156 5.257812 -0.398438 4.875 -0.171875 C 4.488281 0.0546875 3.945312 0.171875 3.25 0.171875 C 2.382812 0.171875 1.710938 -0.0664062 1.234375 -0.546875 C 0.765625 -1.035156 0.53125 -1.71875 0.53125 -2.59375 C 0.53125 -4.46875 1.703125 -5.4375 4.046875 -5.5 L 5.875 -5.5625 L 5.875 -6.015625 C 5.875 -6.585938 5.800781 -7 5.65625 -7.25 C 5.507812 -7.507812 5.269531 -7.640625 4.9375 -7.640625 C 4.613281 -7.640625 4.367188 -7.554688 4.203125 -7.390625 C 4.046875 -7.222656 3.9375 -6.953125 3.875 -6.578125 L 1.171875 -6.921875 C 1.367188 -7.742188 1.773438 -8.332031 2.390625 -8.6875 C 3.015625 -9.050781 3.875 -9.234375 4.96875 -9.234375 C 6.15625 -9.234375 7.0625 -8.957031 7.6875 -8.40625 C 8.320312 -7.851562 8.640625 -7.03125 8.640625 -5.9375 Z M 8.640625 0 "/></g></g></g><g fill="#ffffff" fill-opacity="1"><g transform="translate(176.954979, 98.459956)"><g><path d="M 4.0625 0.171875 C 3.269531 0.171875 2.648438 -0.0546875 2.203125 -0.515625 C 1.765625 -0.972656 1.546875 -1.609375 1.546875 -2.421875 L 1.546875 -7.171875 L 0.28125 -7.171875 L 0.28125 -9.046875 L 1.609375 -9.046875 L 2.46875 -11.3125 L 4.3125 -11.3125 L 4.3125 -9.046875 L 6.421875 -9.046875 L 6.421875 -7.171875 L 4.3125 -7.171875 L 4.3125 -3.109375 C 4.3125 -2.210938 4.6875 -1.765625 5.4375 -1.765625 C 5.800781 -1.765625 6.164062 -1.800781 6.53125 -1.875 L 6.53125 -0.140625 C 5.957031 -0.00390625 5.492188 0.078125 5.140625 0.109375 C 4.785156 0.148438 4.425781 0.171875 4.0625 0.171875 Z M 4.0625 0.171875 "/></g></g></g><g fill="#ffffff" fill-opacity="1"><g transform="translate(184.001943, 98.459956)"><g><path d="M 4.421875 -1.5625 C 4.859375 -1.5625 5.207031 -1.773438 5.46875 -2.203125 C 5.738281 -2.628906 5.875 -3.144531 5.875 -3.75 L 5.875 -4.234375 L 4.984375 -4.203125 C 4.410156 -4.171875 4.007812 -4.039062 3.78125 -3.8125 C 3.550781 -3.59375 3.4375 -3.265625 3.4375 -2.828125 C 3.4375 -2.429688 3.519531 -2.117188 3.6875 -1.890625 C 3.851562 -1.671875 4.097656 -1.5625 4.421875 -1.5625 Z M 8.640625 0 L 5.953125 0 L 5.875 -1.328125 C 5.59375 -0.785156 5.257812 -0.398438 4.875 -0.171875 C 4.488281 0.0546875 3.945312 0.171875 3.25 0.171875 C 2.382812 0.171875 1.710938 -0.0664062 1.234375 -0.546875 C 0.765625 -1.035156 0.53125 -1.71875 0.53125 -2.59375 C 0.53125 -4.46875 1.703125 -5.4375 4.046875 -5.5 L 5.875 -5.5625 L 5.875 -6.015625 C 5.875 -6.585938 5.800781 -7 5.65625 -7.25 C 5.507812 -7.507812 5.269531 -7.640625 4.9375 -7.640625 C 4.613281 -7.640625 4.367188 -7.554688 4.203125 -7.390625 C 4.046875 -7.222656 3.9375 -6.953125 3.875 -6.578125 L 1.171875 -6.921875 C 1.367188 -7.742188 1.773438 -8.332031 2.390625 -8.6875 C 3.015625 -9.050781 3.875 -9.234375 4.96875 -9.234375 C 6.15625 -9.234375 7.0625 -8.957031 7.6875 -8.40625 C 8.320312 -7.851562 8.640625 -7.03125 8.640625 -5.9375 Z M 8.640625 0 "/></g></g></g><g clip-path="url(#ff321e0207)"><g clip-path="url(#f744a38b9d)"><path stroke-linecap="butt" transform="matrix(0.748733, 0, 0, 0.748733, 56.033941, 298.49618)" fill="none" stroke-linejoin="miter" d="M 68.732312 -0.000115718 C 30.772353 -0.000115718 0.00162289 20.50327 0.00162289 45.795997 C 0.00162289 71.088724 30.772353 91.59211 68.732312 91.59211 C 106.687053 91.59211 137.463001 71.088724 137.463001 45.795997 C 137.463001 20.50327 106.687053 -0.000115718 68.732312 -0.000115718 Z M 68.732312 -0.000115718 " stroke="#004aad" stroke-width="8" stroke-opacity="1" stroke-miterlimit="4"/></g></g><g fill="#000000" fill-opacity="1"><g transform="translate(86.21281, 347.492689)"><g><path d="M 16.671875 -25.65625 C 19.367188 -25.65625 21.570312 -24.929688 23.28125 -23.484375 C 25 -22.035156 26.007812 -20.03125 26.3125 -17.46875 L 21.359375 -16.984375 C 21.046875 -18.367188 20.519531 -19.410156 19.78125 -20.109375 C 19.039062 -20.816406 17.988281 -21.171875 16.625 -21.171875 C 15.007812 -21.171875 13.585938 -20.664062 12.359375 -19.65625 C 11.140625 -18.644531 10.195312 -17.300781 9.53125 -15.625 C 8.863281 -13.945312 8.53125 -12.15625 8.53125 -10.25 C 8.53125 -8.320312 8.992188 -6.78125 9.921875 -5.625 C 10.847656 -4.476562 12.070312 -3.90625 13.59375 -3.90625 C 14.882812 -3.90625 16.085938 -4.328125 17.203125 -5.171875 C 18.328125 -6.023438 19.179688 -7.332031 19.765625 -9.09375 L 24.984375 -8.3125 C 23.992188 -5.519531 22.484375 -3.363281 20.453125 -1.84375 C 18.421875 -0.332031 16.007812 0.421875 13.21875 0.421875 C 10.0625 0.421875 7.628906 -0.515625 5.921875 -2.390625 C 4.222656 -4.273438 3.375 -6.976562 3.375 -10.5 C 3.375 -13.363281 3.945312 -15.945312 5.09375 -18.25 C 6.25 -20.550781 7.835938 -22.359375 9.859375 -23.671875 C 11.878906 -24.992188 14.148438 -25.65625 16.671875 -25.65625 Z M 16.671875 -25.65625 "/></g></g></g><g fill="#000000" fill-opacity="1"><g transform="translate(110.236488, 351.632919)"><g><path d="M 7.234375 -12.28125 L 9.265625 -12.28125 L 8.75 -9.859375 L 6.703125 -9.859375 L 5.625 -4.53125 C 5.457031 -3.832031 5.375 -3.347656 5.375 -3.078125 C 5.375 -2.796875 5.460938 -2.585938 5.640625 -2.453125 C 5.816406 -2.316406 6.09375 -2.25 6.46875 -2.25 C 6.71875 -2.25 7.082031 -2.28125 7.5625 -2.34375 L 7.046875 0.125 C 6.648438 0.21875 6.085938 0.265625 5.359375 0.265625 C 3.066406 0.265625 1.921875 -0.570312 1.921875 -2.25 C 1.921875 -2.582031 2.007812 -3.210938 2.1875 -4.140625 L 2.296875 -4.6875 L 3.390625 -9.859375 L 1.78125 -9.859375 L 2.296875 -12.28125 L 3.90625 -12.28125 L 4.3125 -14.25 L 8.109375 -16.546875 Z M 7.234375 -12.28125 "/></g></g></g><g fill="#000000" fill-opacity="1"><g transform="translate(118.129283, 351.632919)"><g><path d="M 9.734375 -12.5625 C 10.273438 -12.5625 10.789062 -12.453125 11.28125 -12.234375 L 10 -9.5 C 9.6875 -9.59375 9.378906 -9.640625 9.078125 -9.640625 C 8.535156 -9.640625 8.015625 -9.484375 7.515625 -9.171875 C 7.023438 -8.859375 6.644531 -8.492188 6.375 -8.078125 C 5.726562 -7.128906 5.269531 -5.828125 5 -4.171875 L 4.125 0 L 0.8125 0 L 3.359375 -12.28125 L 6.46875 -12.28125 L 5.96875 -9.90625 C 6.519531 -10.78125 7.101562 -11.441406 7.71875 -11.890625 C 8.34375 -12.335938 9.015625 -12.5625 9.734375 -12.5625 Z M 9.734375 -12.5625 "/></g></g></g><g clip-path="url(#db9a776112)"><g clip-path="url(#bc3fe6cc18)"><path stroke-linecap="butt" transform="matrix(0.748733, 0, 0, 0.748733, 24.107227, 186.498815)" fill="none" stroke-linejoin="miter" d="M 68.728341 0.00158325 C 30.7736 0.00158325 -0.00234819 20.504969 -0.00234819 45.797696 C -0.00234819 71.090423 30.7736 91.593809 68.728341 91.593809 C 106.6883 91.593809 137.45903 71.090423 137.45903 45.797696 C 137.45903 20.504969 106.6883 0.00158325 68.728341 0.00158325 Z M 68.728341 0.00158325 " stroke="#004aad" stroke-width="8" stroke-opacity="1" stroke-miterlimit="4"/></g></g><g fill="#000000" fill-opacity="1"><g transform="translate(58.033904, 234.692671)"><g><path d="M 1.015625 8.453125 C 1.296875 6.992188 1.695312 5.539062 2.21875 4.09375 C 2.738281 2.65625 3.382812 1.207031 4.15625 -0.25 L 1.765625 -19.234375 L 6.828125 -19.234375 L 7.5 -10.640625 C 7.570312 -9.722656 7.613281 -8.796875 7.625 -7.859375 C 7.632812 -6.921875 7.640625 -6.039062 7.640625 -5.21875 L 7.78125 -5.21875 C 8.09375 -6.039062 8.46875 -6.9375 8.90625 -7.90625 C 9.351562 -8.882812 9.800781 -9.820312 10.25 -10.71875 L 14.515625 -19.234375 L 20.078125 -19.234375 L 10.609375 -1.828125 C 9.484375 0.234375 8.609375 2.066406 7.984375 3.671875 C 7.359375 5.285156 6.878906 6.878906 6.546875 8.453125 Z M 1.015625 8.453125 "/></g></g></g><g fill="#000000" fill-opacity="1"><g transform="translate(75.449984, 238.832887)"><g><path d="M 7.234375 -12.28125 L 9.265625 -12.28125 L 8.75 -9.859375 L 6.703125 -9.859375 L 5.625 -4.53125 C 5.457031 -3.832031 5.375 -3.347656 5.375 -3.078125 C 5.375 -2.796875 5.460938 -2.585938 5.640625 -2.453125 C 5.816406 -2.316406 6.09375 -2.25 6.46875 -2.25 C 6.71875 -2.25 7.082031 -2.28125 7.5625 -2.34375 L 7.046875 0.125 C 6.648438 0.21875 6.085938 0.265625 5.359375 0.265625 C 3.066406 0.265625 1.921875 -0.570312 1.921875 -2.25 C 1.921875 -2.582031 2.007812 -3.210938 2.1875 -4.140625 L 2.296875 -4.6875 L 3.390625 -9.859375 L 1.78125 -9.859375 L 2.296875 -12.28125 L 3.90625 -12.28125 L 4.3125 -14.25 L 8.109375 -16.546875 Z M 7.234375 -12.28125 "/></g></g></g><g fill="#000000" fill-opacity="1"><g transform="translate(83.34278, 238.832887)"><g><path d="M 9.734375 -12.5625 C 10.273438 -12.5625 10.789062 -12.453125 11.28125 -12.234375 L 10 -9.5 C 9.6875 -9.59375 9.378906 -9.640625 9.078125 -9.640625 C 8.535156 -9.640625 8.015625 -9.484375 7.515625 -9.171875 C 7.023438 -8.859375 6.644531 -8.492188 6.375 -8.078125 C 5.726562 -7.128906 5.269531 -5.828125 5 -4.171875 L 4.125 0 L 0.8125 0 L 3.359375 -12.28125 L 6.46875 -12.28125 L 5.96875 -9.90625 C 6.519531 -10.78125 7.101562 -11.441406 7.71875 -11.890625 C 8.34375 -12.335938 9.015625 -12.5625 9.734375 -12.5625 Z M 9.734375 -12.5625 "/></g></g></g><g clip-path="url(#6c2805b30d)"><path fill="#000000" d="M 69.257812 204.378906 L 60.28125 214.117188 L 69.257812 208.933594 L 78.230469 214.117188 Z M 69.257812 204.378906 " fill-opacity="1" fill-rule="nonzero"/></g><g clip-path="url(#86c009981e)"><g clip-path="url(#e8fc2a4e5f)"><path stroke-linecap="butt" transform="matrix(0.748733, 0, 0, 0.748733, 149.940883, 178.18333)" fill="none" stroke-linejoin="miter" d="M 68.731388 0.000352479 C 30.771429 0.000352479 0.000698817 20.503739 0.000698817 45.796465 C 0.000698817 71.089192 30.771429 91.592578 68.731388 91.592578 C 106.691347 91.592578 137.462077 71.089192 137.462077 45.796465 C 137.462077 20.503739 106.691347 0.000352479 68.731388 0.000352479 Z M 68.731388 0.000352479 " stroke="#004aad" stroke-width="8" stroke-opacity="1" stroke-miterlimit="4"/></g></g><g fill="#000000" fill-opacity="1"><g transform="translate(177.516123, 229.091228)"><g><path d="M 9.09375 -11.484375 C 8.832031 -10.335938 8.664062 -9.632812 8.59375 -9.375 C 8.5 -8.945312 8.421875 -8.566406 8.359375 -8.234375 C 8.304688 -7.910156 8.28125 -7.597656 8.28125 -7.296875 C 8.28125 -6.304688 8.660156 -5.492188 9.421875 -4.859375 C 10.191406 -4.222656 11.253906 -3.90625 12.609375 -3.90625 C 14.085938 -3.90625 15.238281 -4.210938 16.0625 -4.828125 C 16.882812 -5.441406 17.476562 -6.242188 17.84375 -7.234375 C 18.207031 -8.234375 18.578125 -9.613281 18.953125 -11.375 L 21.84375 -25.234375 L 27.03125 -25.234375 L 24.09375 -11.3125 C 23.625 -9.03125 23.0625 -7.085938 22.40625 -5.484375 C 21.75 -3.890625 20.613281 -2.503906 19 -1.328125 C 17.394531 -0.160156 15.1875 0.421875 12.375 0.421875 C 10.414062 0.421875 8.753906 0.09375 7.390625 -0.5625 C 6.035156 -1.21875 5.015625 -2.125 4.328125 -3.28125 C 3.648438 -4.445312 3.3125 -5.773438 3.3125 -7.265625 C 3.3125 -7.796875 3.363281 -8.398438 3.46875 -9.078125 C 3.570312 -9.765625 3.671875 -10.328125 3.765625 -10.765625 C 3.859375 -11.203125 3.921875 -11.5 3.953125 -11.65625 L 6.765625 -25.234375 L 11.984375 -25.234375 Z M 9.09375 -11.484375 "/></g></g></g><g fill="#000000" fill-opacity="1"><g transform="translate(201.283617, 230.517403)"><g><path d="M 7.234375 -12.28125 L 9.265625 -12.28125 L 8.75 -9.859375 L 6.703125 -9.859375 L 5.625 -4.53125 C 5.457031 -3.832031 5.375 -3.347656 5.375 -3.078125 C 5.375 -2.796875 5.460938 -2.585938 5.640625 -2.453125 C 5.816406 -2.316406 6.09375 -2.25 6.46875 -2.25 C 6.71875 -2.25 7.082031 -2.28125 7.5625 -2.34375 L 7.046875 0.125 C 6.648438 0.21875 6.085938 0.265625 5.359375 0.265625 C 3.066406 0.265625 1.921875 -0.570312 1.921875 -2.25 C 1.921875 -2.582031 2.007812 -3.210938 2.1875 -4.140625 L 2.296875 -4.6875 L 3.390625 -9.859375 L 1.78125 -9.859375 L 2.296875 -12.28125 L 3.90625 -12.28125 L 4.3125 -14.25 L 8.109375 -16.546875 Z M 7.234375 -12.28125 "/></g></g></g><g fill="#000000" fill-opacity="1"><g transform="translate(209.176412, 230.517403)"><g><path d="M 9.734375 -12.5625 C 10.273438 -12.5625 10.789062 -12.453125 11.28125 -12.234375 L 10 -9.5 C 9.6875 -9.59375 9.378906 -9.640625 9.078125 -9.640625 C 8.535156 -9.640625 8.015625 -9.484375 7.515625 -9.171875 C 7.023438 -8.859375 6.644531 -8.492188 6.375 -8.078125 C 5.726562 -7.128906 5.269531 -5.828125 5 -4.171875 L 4.125 0 L 0.8125 0 L 3.359375 -12.28125 L 6.46875 -12.28125 L 5.96875 -9.90625 C 6.519531 -10.78125 7.101562 -11.441406 7.71875 -11.890625 C 8.34375 -12.335938 9.015625 -12.5625 9.734375 -12.5625 Z M 9.734375 -12.5625 "/></g></g></g><g clip-path="url(#15f9092a48)"><path fill="#000000" d="M 193.625 193.058594 L 184.652344 202.796875 L 193.625 197.613281 L 202.601562 202.796875 Z M 193.625 193.058594 " fill-opacity="1" fill-rule="nonzero"/></g><path stroke-linecap="round" transform="matrix(-0.392018, -0.637905, 0.637905, -0.392018, 200.447812, 178.771098)" fill="none" stroke-linejoin="miter" d="M 1.499769 1.499485 L 69.029978 1.500083 " stroke="#000000" stroke-width="3" stroke-opacity="1" stroke-miterlimit="4"/><path stroke-linecap="round" transform="matrix(-0.392018, -0.637905, 0.637905, -0.392018, 200.447812, 178.771098)" fill-opacity="1" fill="#000000" fill-rule="nonzero" stroke-linejoin="round" d="M 70.534495 -3.000803 L 76.531852 1.499239 L 70.532841 5.999808 Z M 70.534495 -3.000803 " stroke="#000000" stroke-width="3" stroke-opacity="1" stroke-miterlimit="4"/><path stroke-linecap="round" transform="matrix(0.598107, -0.45041, 0.45041, 0.598107, 106.821477, 297.595712)" fill="none" stroke-linejoin="miter" d="M 1.500982 1.499316 L 98.967893 1.502021 " stroke="#000000" stroke-width="3" stroke-opacity="1" stroke-miterlimit="4"/><path stroke-linecap="round" transform="matrix(0.598107, -0.45041, 0.45041, 0.598107, 106.821477, 297.595712)" fill-opacity="1" fill="#000000" fill-rule="nonzero" stroke-linejoin="round" d="M 100.468795 -2.997451 L 106.467038 1.499985 L 100.465815 6.000051 Z M 100.468795 -2.997451 " stroke="#000000" stroke-width="3" stroke-opacity="1" stroke-miterlimit="4"/></svg>