<svg xmlns="http://www.w3.org/2000/svg" xmlns:xlink="http://www.w3.org/1999/xlink" width="928" zoomAndPan="magnify" viewBox="0 0 696 388.499989" height="518" preserveAspectRatio="xMidYMid meet" version="1.0"><defs><g/><clipPath id="01042c7645"><path d="M 141.949219 24.429688 L 695.484375 24.429688 L 695.484375 387.714844 L 141.949219 387.714844 Z M 141.949219 24.429688 " clip-rule="nonzero"/></clipPath><clipPath id="eaaf07cc03"><path d="M 151.6875 24.429688 L 685.589844 24.429688 C 688.171875 24.429688 690.648438 25.457031 692.472656 27.28125 C 694.300781 29.109375 695.328125 31.585938 695.328125 34.167969 L 695.328125 378.152344 C 695.328125 380.734375 694.300781 383.210938 692.472656 385.035156 C 690.648438 386.863281 688.171875 387.890625 685.589844 387.890625 L 151.6875 387.890625 C 149.105469 387.890625 146.628906 386.863281 144.800781 385.035156 C 142.976562 383.210938 141.949219 380.734375 141.949219 378.152344 L 141.949219 34.167969 C 141.949219 31.585938 142.976562 29.109375 144.800781 27.28125 C 146.628906 25.457031 149.105469 24.429688 151.6875 24.429688 Z M 151.6875 24.429688 " clip-rule="nonzero"/></clipPath><clipPath id="14e6c221f6"><path d="M 403.0625 324.566406 L 633.339844 324.566406 L 633.339844 375.472656 L 403.0625 375.472656 Z M 403.0625 324.566406 " clip-rule="nonzero"/></clipPath><clipPath id="bc29b16daa"><path d="M 409.804688 324.566406 L 626.507812 324.566406 C 630.230469 324.566406 633.25 327.585938 633.25 331.308594 L 633.25 368.730469 C 633.25 372.457031 630.230469 375.472656 626.507812 375.472656 L 409.804688 375.472656 C 406.082031 375.472656 403.0625 372.457031 403.0625 368.730469 L 403.0625 331.308594 C 403.0625 327.585938 406.082031 324.566406 409.804688 324.566406 Z M 409.804688 324.566406 " clip-rule="nonzero"/></clipPath><clipPath id="35e010bfe6"><path d="M 403.078125 324.566406 L 633.019531 324.566406 L 633.019531 375.5 L 403.078125 375.5 Z M 403.078125 324.566406 " clip-rule="nonzero"/></clipPath><clipPath id="772c077aed"><path d="M 409.820312 324.566406 L 626.484375 324.566406 C 630.207031 324.566406 633.226562 327.582031 633.226562 331.304688 L 633.226562 368.726562 C 633.226562 372.449219 630.207031 375.464844 626.484375 375.464844 L 409.820312 375.464844 C 406.097656 375.464844 403.078125 372.449219 403.078125 368.726562 L 403.078125 331.304688 C 403.078125 327.582031 406.097656 324.566406 409.820312 324.566406 Z M 409.820312 324.566406 " clip-rule="nonzero"/></clipPath><clipPath id="ffe442a899"><path d="M 0.449219 145 L 197 145 L 197 275 L 0.449219 275 Z M 0.449219 145 " clip-rule="nonzero"/></clipPath><clipPath id="8acb69f675"><path d="M 189.683594 119.90625 L 291.550781 119.90625 L 291.550781 182.074219 L 189.683594 182.074219 Z M 189.683594 119.90625 " clip-rule="nonzero"/></clipPath><clipPath id="bc4dc1410b"><path d="M 240.546875 119.90625 C 212.453125 119.90625 189.683594 133.851562 189.683594 151.058594 C 189.683594 168.265625 212.453125 182.214844 240.546875 182.214844 C 268.636719 182.214844 291.410156 168.265625 291.410156 151.058594 C 291.410156 133.851562 268.636719 119.90625 240.546875 119.90625 Z M 240.546875 119.90625 " clip-rule="nonzero"/></clipPath><clipPath id="ce1af3d022"><path d="M 174.890625 206.050781 L 286.496094 206.050781 L 286.496094 284.699219 L 174.890625 284.699219 Z M 174.890625 206.050781 " clip-rule="nonzero"/></clipPath><clipPath id="45969c4a43"><path d="M 230.824219 206.050781 C 199.933594 206.050781 174.890625 223.648438 174.890625 245.355469 C 174.890625 267.066406 199.933594 284.664062 230.824219 284.664062 C 261.714844 284.664062 286.753906 267.066406 286.753906 245.355469 C 286.753906 223.648438 261.714844 206.050781 230.824219 206.050781 Z M 230.824219 206.050781 " clip-rule="nonzero"/></clipPath><clipPath id="b03e5c1af4"><path d="M 533.984375 180.039062 L 616.375 180.039062 L 616.375 253.445312 L 533.984375 253.445312 Z M 533.984375 180.039062 " clip-rule="nonzero"/></clipPath><clipPath id="94f574df44"><path d="M 575.230469 180.039062 C 552.453125 180.039062 533.984375 196.535156 533.984375 216.882812 C 533.984375 237.230469 552.453125 253.726562 575.230469 253.726562 C 598.011719 253.726562 616.480469 237.230469 616.480469 216.882812 C 616.480469 196.535156 598.011719 180.039062 575.230469 180.039062 Z M 575.230469 180.039062 " clip-rule="nonzero"/></clipPath><clipPath id="1653f5dd74"><path d="M 458.347656 68.796875 L 569.203125 68.796875 L 569.203125 145.863281 L 458.347656 145.863281 Z M 458.347656 68.796875 " clip-rule="nonzero"/></clipPath><clipPath id="73b24bece7"><path d="M 513.851562 68.796875 C 483.199219 68.796875 458.347656 86.015625 458.347656 107.25 C 458.347656 128.488281 483.199219 145.703125 513.851562 145.703125 C 544.503906 145.703125 569.351562 128.488281 569.351562 107.25 C 569.351562 86.015625 544.503906 68.796875 513.851562 68.796875 Z M 513.851562 68.796875 " clip-rule="nonzero"/></clipPath><clipPath id="97cb7a1676"><path d="M 493.316406 84.980469 L 511.292969 84.980469 L 511.292969 94.714844 L 493.316406 94.714844 Z M 493.316406 84.980469 " clip-rule="nonzero"/></clipPath><clipPath id="e6d7282a68"><path d="M 600.753906 80 L 683.144531 80 L 683.144531 153.402344 L 600.753906 153.402344 Z M 600.753906 80 " clip-rule="nonzero"/></clipPath><clipPath id="be8fe51812"><path d="M 642 80 C 619.21875 80 600.753906 96.492188 600.753906 116.839844 C 600.753906 137.191406 619.21875 153.683594 642 153.683594 C 664.78125 153.683594 683.246094 137.191406 683.246094 116.839844 C 683.246094 96.492188 664.78125 80 642 80 Z M 642 80 " clip-rule="nonzero"/></clipPath><clipPath id="360d81e4a6"><path d="M 382.753906 167.015625 L 493.609375 167.015625 L 493.609375 244 L 382.753906 244 Z M 382.753906 167.015625 " clip-rule="nonzero"/></clipPath><clipPath id="313a45d6c8"><path d="M 438.257812 167.015625 C 407.605469 167.015625 382.753906 184.230469 382.753906 205.46875 C 382.753906 226.703125 407.605469 243.917969 438.257812 243.917969 C 468.910156 243.917969 493.757812 226.703125 493.757812 205.46875 C 493.757812 184.230469 468.910156 167.015625 438.257812 167.015625 Z M 438.257812 167.015625 " clip-rule="nonzero"/></clipPath><clipPath id="e5d3280d5e"><path d="M 418.835938 183.824219 L 436.8125 183.824219 L 436.8125 193.5625 L 418.835938 193.5625 Z M 418.835938 183.824219 " clip-rule="nonzero"/></clipPath></defs><g clip-path="url(#01042c7645)"><g clip-path="url(#eaaf07cc03)"><path stroke-linecap="butt" transform="matrix(0.749036, 0, 0, 0.749036, 141.949166, 24.430705)" fill="none" stroke-linejoin="miter" d="M 13.001156 -0.00135835 L 725.78713 -0.00135835 C 729.234269 -0.00135835 732.540602 1.370196 734.981239 3.805618 C 737.416662 6.246255 738.788216 9.552589 738.788216 12.999728 L 738.788216 472.235842 C 738.788216 475.682981 737.416662 478.989314 734.981239 481.424736 C 732.540602 483.865373 729.234269 485.236928 725.78713 485.236928 L 13.001156 485.236928 C 9.554017 485.236928 6.247684 483.865373 3.807047 481.424736 C 1.371625 478.989314 0.000070105 475.682981 0.000070105 472.235842 L 0.000070105 12.999728 C 0.000070105 9.552589 1.371625 6.246255 3.807047 3.805618 C 6.247684 1.370196 9.554017 -0.00135835 13.001156 -0.00135835 Z M 13.001156 -0.00135835 " stroke="#7257b0" stroke-width="8" stroke-opacity="1" stroke-miterlimit="4"/></g></g><g clip-path="url(#14e6c221f6)"><g clip-path="url(#bc29b16daa)"><path fill="#7257b0" d="M 403.0625 324.566406 L 633.339844 324.566406 L 633.339844 375.472656 L 403.0625 375.472656 Z M 403.0625 324.566406 " fill-opacity="1" fill-rule="nonzero"/></g></g><g clip-path="url(#35e010bfe6)"><g clip-path="url(#772c077aed)"><path stroke-linecap="butt" transform="matrix(0.749036, 0, 0, 0.749036, 403.078623, 324.565814)" fill="none" stroke-linejoin="miter" d="M 9.000488 0.000790813 L 298.257721 0.000790813 C 303.227652 0.000790813 307.258875 4.026799 307.258875 8.996729 L 307.258875 58.956782 C 307.258875 63.926712 303.227652 67.952721 298.257721 67.952721 L 9.000488 67.952721 C 4.030558 67.952721 -0.000665288 63.926712 -0.000665288 58.956782 L -0.000665288 8.996729 C -0.000665288 4.026799 4.030558 0.000790813 9.000488 0.000790813 Z M 9.000488 0.000790813 " stroke="#7257b0" stroke-width="8" stroke-opacity="1" stroke-miterlimit="4"/></g></g><path stroke-linecap="round" transform="matrix(-0.729899, 0.168232, -0.168232, -0.729899, 173.387053, 252.83831)" fill="none" stroke-linejoin="miter" d="M 1.501119 1.499867 L 216.10126 1.501175 " stroke="#000000" stroke-width="3" stroke-opacity="1" stroke-miterlimit="4"/><path stroke-linecap="round" transform="matrix(-0.729899, 0.168232, -0.168232, -0.729899, 173.387053, 252.83831)" fill-opacity="1" fill="#000000" fill-rule="nonzero" stroke-linejoin="round" d="M 217.60456 -3.001035 L 223.60427 1.501893 L 217.601117 5.999841 Z M 217.60456 -3.001035 " stroke="#000000" stroke-width="3" stroke-opacity="1" stroke-miterlimit="4"/><path stroke-linecap="round" transform="matrix(0.712273, -0.231779, 0.231779, 0.712273, 290.426217, 244.638457)" fill="none" stroke-linejoin="miter" d="M 1.501774 1.500825 L 117.541496 1.502254 " stroke="#000000" stroke-width="3" stroke-opacity="1" stroke-miterlimit="4"/><path stroke-linecap="round" transform="matrix(0.712273, -0.231779, 0.231779, 0.712273, 290.426217, 244.638457)" fill-opacity="1" fill="#000000" fill-rule="nonzero" stroke-linejoin="round" d="M 119.039737 -3.00083 L 125.043629 1.503032 L 119.039772 5.998753 Z M 119.039737 -3.00083 " stroke="#000000" stroke-width="3" stroke-opacity="1" stroke-miterlimit="4"/><path stroke-linecap="round" transform="matrix(-0.0121751, 0.748937, -0.748937, -0.0121751, 441.519891, 253.573214)" fill="none" stroke-linejoin="miter" d="M 1.501762 1.499058 L 74.56367 1.50051 " stroke="#000000" stroke-width="3" stroke-opacity="1" stroke-miterlimit="4"/><path stroke-linecap="round" transform="matrix(-0.0121751, 0.748937, -0.748937, -0.0121751, 441.519891, 253.573214)" fill-opacity="1" fill="#000000" fill-rule="nonzero" stroke-linejoin="round" d="M 76.060459 -2.998915 L 82.063852 1.498545 L 76.06068 5.998208 Z M 76.060459 -2.998915 " stroke="#000000" stroke-width="3" stroke-opacity="1" stroke-miterlimit="4"/><path stroke-linecap="round" transform="matrix(0.00397876, 0.749025, -0.749025, 0.00397876, 575.534692, 258.247694)" fill="none" stroke-linejoin="miter" d="M 1.502283 1.498882 L 71.11358 1.498379 " stroke="#000000" stroke-width="3" stroke-opacity="1" stroke-miterlimit="4"/><path stroke-linecap="round" transform="matrix(0.00397876, 0.749025, -0.749025, 0.00397876, 575.534692, 258.247694)" fill-opacity="1" fill="#000000" fill-rule="nonzero" stroke-linejoin="round" d="M 72.613349 -2.99951 L 78.612891 1.501708 L 72.612471 6.001766 Z M 72.613349 -2.99951 " stroke="#000000" stroke-width="3" stroke-opacity="1" stroke-miterlimit="4"/><g clip-path="url(#ffe442a899)"><path stroke-linecap="round" transform="matrix(-0.64449, 0.38169, -0.38169, -0.64449, 185.740909, 158.326243)" fill="none" stroke-linejoin="miter" d="M 1.499348 1.497207 L 274.067105 1.499113 " stroke="#000000" stroke-width="3" stroke-opacity="1" stroke-miterlimit="4"/></g><path stroke-linecap="round" transform="matrix(-0.64449, 0.38169, -0.38169, -0.64449, 185.740909, 158.326243)" fill-opacity="1" fill="#000000" fill-rule="nonzero" stroke-linejoin="round" d="M 275.563559 -3.002856 L 281.56297 1.501784 L 275.565938 5.999127 Z M 275.563559 -3.002856 " stroke="#000000" stroke-width="3" stroke-opacity="1" stroke-miterlimit="4"/><path stroke-linecap="round" transform="matrix(-0.00620357, 0.74901, -0.74901, -0.00620357, 513.069649, 153.062831)" fill="none" stroke-linejoin="miter" d="M 1.498311 1.499117 L 205.147283 1.502153 " stroke="#000000" stroke-width="3" stroke-opacity="1" stroke-miterlimit="4"/><path stroke-linecap="round" transform="matrix(-0.00620357, 0.74901, -0.74901, -0.00620357, 513.069649, 153.062831)" fill-opacity="1" fill="#000000" fill-rule="nonzero" stroke-linejoin="round" d="M 206.648478 -3.000581 L 212.651981 1.502579 L 206.650018 6.000868 Z M 206.648478 -3.000581 " stroke="#000000" stroke-width="3" stroke-opacity="1" stroke-miterlimit="4"/><path fill="#ffffff" d="M 471.496094 6.953125 L 641.1875 6.953125 C 643.507812 6.953125 645.730469 7.875 647.367188 9.515625 C 649.007812 11.152344 649.925781 13.375 649.925781 15.695312 L 649.925781 33.171875 C 649.925781 35.488281 649.007812 37.710938 647.367188 39.351562 C 645.730469 40.988281 643.507812 41.910156 641.1875 41.910156 L 471.496094 41.910156 C 466.671875 41.910156 462.757812 37.996094 462.757812 33.171875 L 462.757812 15.695312 C 462.757812 10.867188 466.671875 6.953125 471.496094 6.953125 Z M 471.496094 6.953125 " fill-opacity="1" fill-rule="nonzero"/><g fill="#7257b0" fill-opacity="1"><g transform="translate(470.747584, 32.671834)"><g><path d="M 10.65625 -4.015625 C 10.65625 -2.660156 10.210938 -1.617188 9.328125 -0.890625 C 8.441406 -0.171875 7.164062 0.1875 5.5 0.1875 C 4.039062 0.1875 2.890625 -0.117188 2.046875 -0.734375 C 1.203125 -1.359375 0.65625 -2.347656 0.40625 -3.703125 L 3.4375 -4.171875 C 3.539062 -3.546875 3.785156 -3.0625 4.171875 -2.71875 C 4.566406 -2.382812 5.082031 -2.21875 5.71875 -2.21875 C 6.925781 -2.21875 7.53125 -2.753906 7.53125 -3.828125 C 7.53125 -4.171875 7.445312 -4.453125 7.28125 -4.671875 C 7.125 -4.890625 6.910156 -5.070312 6.640625 -5.21875 C 6.367188 -5.363281 6.0625 -5.484375 5.71875 -5.578125 C 5.375 -5.671875 5.019531 -5.769531 4.65625 -5.875 C 3.894531 -6.082031 3.347656 -6.257812 3.015625 -6.40625 C 2.679688 -6.5625 2.378906 -6.738281 2.109375 -6.9375 C 1.847656 -7.144531 1.625 -7.394531 1.4375 -7.6875 C 1.25 -7.976562 1.101562 -8.316406 1 -8.703125 C 0.894531 -9.097656 0.84375 -9.546875 0.84375 -10.046875 C 0.84375 -11.296875 1.253906 -12.253906 2.078125 -12.921875 C 2.898438 -13.597656 4.054688 -13.9375 5.546875 -13.9375 C 6.941406 -13.9375 8.007812 -13.664062 8.75 -13.125 C 9.488281 -12.582031 9.992188 -11.675781 10.265625 -10.40625 L 7.171875 -10.015625 C 7.097656 -10.535156 6.914062 -10.9375 6.625 -11.21875 C 6.332031 -11.507812 5.960938 -11.65625 5.515625 -11.65625 C 5.054688 -11.65625 4.6875 -11.519531 4.40625 -11.25 C 4.125 -10.988281 3.984375 -10.648438 3.984375 -10.234375 C 3.984375 -9.835938 4.109375 -9.507812 4.359375 -9.25 C 4.617188 -9 5.019531 -8.796875 5.5625 -8.640625 L 7.53125 -8.046875 C 8.65625 -7.722656 9.457031 -7.238281 9.9375 -6.59375 C 10.414062 -5.945312 10.65625 -5.085938 10.65625 -4.015625 Z M 10.65625 -4.015625 "/></g></g></g><g fill="#7257b0" fill-opacity="1"><g transform="translate(481.939738, 32.671834)"><g><path d="M 13.015625 -5.328125 C 13.015625 -3.515625 12.523438 -2.140625 11.546875 -1.203125 C 10.566406 -0.273438 9.109375 0.1875 7.171875 0.1875 C 5.265625 0.1875 3.828125 -0.265625 2.859375 -1.171875 C 1.898438 -2.078125 1.421875 -3.425781 1.421875 -5.21875 L 1.421875 -13.734375 L 4.6875 -13.734375 L 4.6875 -5.4375 C 4.6875 -4.34375 4.90625 -3.550781 5.34375 -3.0625 C 5.78125 -2.582031 6.421875 -2.34375 7.265625 -2.34375 C 8.117188 -2.34375 8.75 -2.597656 9.15625 -3.109375 C 9.5625 -3.617188 9.765625 -4.429688 9.765625 -5.546875 L 9.765625 -13.734375 L 13.015625 -13.734375 Z M 13.015625 -5.328125 "/></g></g></g><g fill="#7257b0" fill-opacity="1"><g transform="translate(496.378395, 32.671834)"><g><path d="M 8.953125 -9.5625 C 8.953125 -10.175781 8.753906 -10.644531 8.359375 -10.96875 C 7.972656 -11.300781 7.40625 -11.46875 6.65625 -11.46875 L 4.796875 -11.46875 L 4.796875 -7.5625 L 6.734375 -7.5625 C 7.429688 -7.5625 7.972656 -7.738281 8.359375 -8.09375 C 8.753906 -8.445312 8.953125 -8.9375 8.953125 -9.5625 Z M 12.234375 -9.578125 C 12.234375 -8.609375 11.976562 -7.789062 11.46875 -7.125 C 10.957031 -6.46875 10.238281 -5.988281 9.3125 -5.6875 L 12.96875 0 L 9.3125 0 L 6.28125 -5.3125 L 4.796875 -5.3125 L 4.796875 0 L 1.546875 0 L 1.546875 -13.734375 L 7 -13.734375 C 8.6875 -13.734375 9.976562 -13.375 10.875 -12.65625 C 11.78125 -11.945312 12.234375 -10.921875 12.234375 -9.578125 Z M 12.234375 -9.578125 "/></g></g></g><g fill="#7257b0" fill-opacity="1"><g transform="translate(509.413159, 32.671834)"><g><path d="M 8.3125 0 L 5.03125 0 L 0 -13.734375 L 3.359375 -13.734375 L 6.015625 -5.1875 C 6.191406 -4.601562 6.332031 -4.085938 6.4375 -3.640625 C 6.539062 -3.203125 6.628906 -2.847656 6.703125 -2.578125 C 6.828125 -3.253906 7.046875 -4.09375 7.359375 -5.09375 L 9.984375 -13.734375 L 13.34375 -13.734375 Z M 8.3125 0 "/></g></g></g><g fill="#7257b0" fill-opacity="1"><g transform="translate(522.73065, 32.671834)"><g><path d="M 1.546875 0 L 1.546875 -13.734375 L 4.8125 -13.734375 L 4.8125 0 Z M 1.546875 0 "/></g></g></g><g fill="#7257b0" fill-opacity="1"><g transform="translate(529.057922, 32.671834)"><g><path d="M 8.3125 0 L 5.03125 0 L 0 -13.734375 L 3.359375 -13.734375 L 6.015625 -5.1875 C 6.191406 -4.601562 6.332031 -4.085938 6.4375 -3.640625 C 6.539062 -3.203125 6.628906 -2.847656 6.703125 -2.578125 C 6.828125 -3.253906 7.046875 -4.09375 7.359375 -5.09375 L 9.984375 -13.734375 L 13.34375 -13.734375 Z M 8.3125 0 "/></g></g></g><g fill="#7257b0" fill-opacity="1"><g transform="translate(542.375414, 32.671834)"><g><path d="M 10.625 0 L 9.5 -3.3125 L 4.484375 -3.3125 L 3.375 0 L 0.15625 0 L 5.09375 -13.734375 L 8.90625 -13.734375 L 13.828125 0 Z M 6.984375 -11.390625 C 6.828125 -10.753906 6.644531 -10.113281 6.4375 -9.46875 L 5.1875 -5.71875 L 8.828125 -5.71875 L 7.5625 -9.46875 C 7.351562 -10.113281 7.171875 -10.753906 7.015625 -11.390625 Z M 6.984375 -11.390625 "/></g></g></g><g fill="#7257b0" fill-opacity="1"><g transform="translate(556.414351, 32.671834)"><g><path d="M 1.546875 0 L 1.546875 -13.734375 L 4.8125 -13.734375 L 4.8125 -2.53125 L 9.875 -2.53125 L 9.875 0 Z M 1.546875 0 "/></g></g></g><g fill="#7257b0" fill-opacity="1"><g transform="translate(566.621829, 32.671834)"><g/></g></g><g fill="#7257b0" fill-opacity="1"><g transform="translate(572.130162, 32.671834)"><g><path d="M 14.6875 0 L 14.6875 -7.96875 C 14.6875 -8.457031 14.691406 -8.945312 14.703125 -9.4375 C 14.710938 -9.925781 14.726562 -10.414062 14.75 -10.90625 C 14.601562 -10.507812 14.460938 -10.109375 14.328125 -9.703125 C 14.203125 -9.304688 14.066406 -8.910156 13.921875 -8.515625 L 10.71875 0 L 8.453125 0 L 5.171875 -8.515625 C 4.859375 -9.328125 4.59375 -10.125 4.375 -10.90625 C 4.382812 -10.414062 4.394531 -9.925781 4.40625 -9.4375 C 4.425781 -8.957031 4.4375 -8.472656 4.4375 -7.984375 L 4.4375 0 L 1.546875 0 L 1.546875 -13.734375 L 5.921875 -13.734375 L 8.203125 -7.796875 C 8.492188 -7.054688 8.785156 -6.257812 9.078125 -5.40625 C 9.367188 -4.5625 9.535156 -4.015625 9.578125 -3.765625 C 10.078125 -5.222656 10.570312 -6.597656 11.0625 -7.890625 L 13.234375 -13.734375 L 17.5625 -13.734375 L 17.5625 0 Z M 14.6875 0 "/></g></g></g><g fill="#7257b0" fill-opacity="1"><g transform="translate(591.238716, 32.671834)"><g><path d="M 14.21875 -6.9375 C 14.21875 -4.6875 13.632812 -2.9375 12.46875 -1.6875 C 11.3125 -0.4375 9.675781 0.1875 7.5625 0.1875 C 5.414062 0.1875 3.769531 -0.421875 2.625 -1.640625 C 1.488281 -2.867188 0.921875 -4.632812 0.921875 -6.9375 C 0.921875 -9.195312 1.488281 -10.925781 2.625 -12.125 C 3.769531 -13.332031 5.421875 -13.9375 7.578125 -13.9375 C 9.722656 -13.9375 11.363281 -13.332031 12.5 -12.125 C 13.644531 -10.925781 14.21875 -9.195312 14.21875 -6.9375 Z M 10.9375 -6.9375 C 10.9375 -9.90625 9.816406 -11.390625 7.578125 -11.390625 C 6.453125 -11.390625 5.609375 -11.023438 5.046875 -10.296875 C 4.492188 -9.578125 4.21875 -8.457031 4.21875 -6.9375 C 4.21875 -3.875 5.332031 -2.34375 7.5625 -2.34375 C 8.695312 -2.34375 9.539062 -2.707031 10.09375 -3.4375 C 10.65625 -4.175781 10.9375 -5.34375 10.9375 -6.9375 Z M 10.9375 -6.9375 "/></g></g></g><g fill="#7257b0" fill-opacity="1"><g transform="translate(606.37932, 32.671834)"><g><path d="M 10.515625 -6.953125 C 10.515625 -8.328125 10.164062 -9.378906 9.46875 -10.109375 C 8.769531 -10.835938 7.765625 -11.203125 6.453125 -11.203125 L 4.796875 -11.203125 L 4.796875 -2.53125 L 6.828125 -2.53125 C 7.972656 -2.53125 8.875 -2.921875 9.53125 -3.703125 C 10.1875 -4.492188 10.515625 -5.578125 10.515625 -6.953125 Z M 13.78125 -6.953125 C 13.78125 -5.546875 13.503906 -4.3125 12.953125 -3.25 C 12.398438 -2.195312 11.617188 -1.390625 10.609375 -0.828125 C 9.597656 -0.273438 8.425781 0 7.09375 0 L 1.546875 0 L 1.546875 -13.734375 L 6.515625 -13.734375 C 8.835938 -13.734375 10.628906 -13.144531 11.890625 -11.96875 C 13.148438 -10.800781 13.78125 -9.128906 13.78125 -6.953125 Z M 13.78125 -6.953125 "/></g></g></g><g fill="#7257b0" fill-opacity="1"><g transform="translate(621.100706, 32.671834)"><g><path d="M 1.546875 0 L 1.546875 -13.734375 L 9.6875 -13.734375 L 9.6875 -11.1875 L 4.8125 -11.1875 L 4.8125 -8.1875 L 9.09375 -8.1875 L 9.09375 -5.71875 L 4.8125 -5.71875 L 4.8125 -2.53125 L 10.09375 -2.53125 L 10.09375 0 Z M 1.546875 0 "/></g></g></g><g fill="#7257b0" fill-opacity="1"><g transform="translate(631.727402, 32.671834)"><g><path d="M 1.546875 0 L 1.546875 -13.734375 L 4.8125 -13.734375 L 4.8125 -2.53125 L 9.875 -2.53125 L 9.875 0 Z M 1.546875 0 "/></g></g></g><g fill="#ffffff" fill-opacity="1"><g transform="translate(429.930122, 356.855701)"><g><path d="M 13.21875 0 L 13.21875 -7.171875 C 13.21875 -7.609375 13.222656 -8.046875 13.234375 -8.484375 C 13.253906 -8.929688 13.269531 -9.375 13.28125 -9.8125 C 13.15625 -9.46875 13.03125 -9.113281 12.90625 -8.75 C 12.789062 -8.382812 12.671875 -8.023438 12.546875 -7.671875 L 9.65625 0 L 7.609375 0 L 4.65625 -7.671875 C 4.375 -8.398438 4.132812 -9.113281 3.9375 -9.8125 C 3.945312 -9.375 3.957031 -8.9375 3.96875 -8.5 C 3.988281 -8.0625 4 -7.625 4 -7.1875 L 4 0 L 1.390625 0 L 1.390625 -12.375 L 5.328125 -12.375 L 7.390625 -7.015625 C 7.648438 -6.359375 7.910156 -5.644531 8.171875 -4.875 C 8.441406 -4.113281 8.59375 -3.617188 8.625 -3.390625 C 9.082031 -4.703125 9.53125 -5.941406 9.96875 -7.109375 L 11.921875 -12.375 L 15.828125 -12.375 L 15.828125 0 Z M 13.21875 0 "/></g></g><g transform="translate(447.134541, 356.855701)"><g><path d="M 4.421875 -1.5625 C 4.859375 -1.5625 5.210938 -1.773438 5.484375 -2.203125 C 5.753906 -2.628906 5.890625 -3.148438 5.890625 -3.765625 L 5.890625 -4.234375 L 4.984375 -4.203125 C 4.410156 -4.171875 4.007812 -4.039062 3.78125 -3.8125 C 3.550781 -3.59375 3.4375 -3.265625 3.4375 -2.828125 C 3.4375 -2.429688 3.519531 -2.117188 3.6875 -1.890625 C 3.851562 -1.671875 4.097656 -1.5625 4.421875 -1.5625 Z M 8.640625 0 L 5.96875 0 L 5.875 -1.328125 C 5.601562 -0.785156 5.269531 -0.398438 4.875 -0.171875 C 4.488281 0.0546875 3.953125 0.171875 3.265625 0.171875 C 2.390625 0.171875 1.710938 -0.0664062 1.234375 -0.546875 C 0.765625 -1.035156 0.53125 -1.71875 0.53125 -2.59375 C 0.53125 -4.46875 1.707031 -5.4375 4.0625 -5.5 L 5.875 -5.5625 L 5.875 -6.03125 C 5.875 -6.59375 5.800781 -7.003906 5.65625 -7.265625 C 5.507812 -7.523438 5.269531 -7.65625 4.9375 -7.65625 C 4.625 -7.65625 4.382812 -7.566406 4.21875 -7.390625 C 4.0625 -7.222656 3.945312 -6.957031 3.875 -6.59375 L 1.171875 -6.921875 C 1.367188 -7.753906 1.78125 -8.347656 2.40625 -8.703125 C 3.03125 -9.066406 3.882812 -9.25 4.96875 -9.25 C 6.164062 -9.25 7.078125 -8.96875 7.703125 -8.40625 C 8.328125 -7.851562 8.640625 -7.03125 8.640625 -5.9375 Z M 8.640625 0 "/></g></g><g transform="translate(456.807638, 356.855701)"><g><path d="M 5.96875 -7.09375 C 5.375 -7.09375 4.882812 -6.816406 4.5 -6.265625 C 4.125 -5.710938 3.9375 -5 3.9375 -4.125 L 3.9375 0 L 1.15625 0 L 1.15625 -6.8125 C 1.15625 -7.5625 1.132812 -8.3125 1.09375 -9.0625 L 3.75 -9.0625 C 3.820312 -8 3.859375 -7.316406 3.859375 -7.015625 L 3.890625 -7.015625 C 4.160156 -7.816406 4.476562 -8.390625 4.84375 -8.734375 C 5.207031 -9.078125 5.675781 -9.25 6.25 -9.25 C 6.53125 -9.25 6.769531 -9.195312 6.96875 -9.09375 L 6.96875 -6.984375 C 6.65625 -7.054688 6.320312 -7.09375 5.96875 -7.09375 Z M 5.96875 -7.09375 "/></g></g><g transform="translate(463.961517, 356.855701)"><g><path d="M 6.921875 0 L 4.71875 -3.578125 L 3.953125 -3.0625 L 3.953125 0 L 1.15625 0 L 1.15625 -12.765625 L 3.953125 -12.765625 L 3.953125 -5.296875 L 6.8125 -9.0625 L 9.859375 -9.0625 L 6.734375 -5.34375 L 10.09375 0 Z M 6.921875 0 "/></g></g><g transform="translate(474.012057, 356.855701)"><g><path d="M 1.09375 -3.390625 L 1.09375 -5.8125 L 6.1875 -5.8125 L 6.1875 -3.390625 Z M 1.09375 -3.390625 "/></g></g><g transform="translate(481.280047, 356.855701)"><g><path d="M 5.96875 -7.09375 C 5.375 -7.09375 4.882812 -6.816406 4.5 -6.265625 C 4.125 -5.710938 3.9375 -5 3.9375 -4.125 L 3.9375 0 L 1.15625 0 L 1.15625 -6.8125 C 1.15625 -7.5625 1.132812 -8.3125 1.09375 -9.0625 L 3.75 -9.0625 C 3.820312 -8 3.859375 -7.316406 3.859375 -7.015625 L 3.890625 -7.015625 C 4.160156 -7.816406 4.476562 -8.390625 4.84375 -8.734375 C 5.207031 -9.078125 5.675781 -9.25 6.25 -9.25 C 6.53125 -9.25 6.769531 -9.195312 6.96875 -9.09375 L 6.96875 -6.984375 C 6.65625 -7.054688 6.320312 -7.09375 5.96875 -7.09375 Z M 5.96875 -7.09375 "/></g></g><g transform="translate(488.433925, 356.855701)"><g><path d="M 3.5625 -3.953125 C 3.625 -3.148438 3.785156 -2.554688 4.046875 -2.171875 C 4.316406 -1.785156 4.703125 -1.59375 5.203125 -1.59375 C 5.503906 -1.59375 5.78125 -1.695312 6.03125 -1.90625 C 6.28125 -2.113281 6.535156 -2.5 6.796875 -3.0625 L 9 -2.109375 C 8.5625 -1.441406 8.164062 -0.960938 7.8125 -0.671875 C 7.457031 -0.390625 7.046875 -0.175781 6.578125 -0.03125 C 6.109375 0.101562 5.546875 0.171875 4.890625 0.171875 C 3.523438 0.171875 2.476562 -0.234375 1.75 -1.046875 C 1.019531 -1.867188 0.65625 -3.039062 0.65625 -4.5625 C 0.65625 -6.082031 1.023438 -7.242188 1.765625 -8.046875 C 2.503906 -8.847656 3.597656 -9.25 5.046875 -9.25 C 6.378906 -9.25 7.390625 -8.8125 8.078125 -7.9375 C 8.773438 -7.070312 9.125 -5.785156 9.125 -4.078125 L 9.125 -3.953125 Z M 4.96875 -7.515625 C 4.59375 -7.515625 4.273438 -7.351562 4.015625 -7.03125 C 3.765625 -6.71875 3.617188 -6.226562 3.578125 -5.5625 L 6.265625 -5.5625 C 6.210938 -6.25 6.082031 -6.742188 5.875 -7.046875 C 5.675781 -7.359375 5.375 -7.515625 4.96875 -7.515625 Z M 4.96875 -7.515625 "/></g></g><g transform="translate(498.159689, 356.855701)"><g><path d="M 0.625 -4.5 C 0.625 -6.019531 0.960938 -7.191406 1.640625 -8.015625 C 2.328125 -8.847656 3.296875 -9.265625 4.546875 -9.265625 C 6.703125 -9.265625 7.945312 -8.203125 8.28125 -6.078125 L 5.546875 -5.84375 C 5.515625 -6.320312 5.40625 -6.691406 5.21875 -6.953125 C 5.039062 -7.210938 4.820312 -7.34375 4.5625 -7.34375 C 4.15625 -7.34375 3.863281 -7.125 3.6875 -6.6875 C 3.519531 -6.25 3.4375 -5.546875 3.4375 -4.578125 C 3.4375 -3.617188 3.535156 -2.90625 3.734375 -2.4375 C 3.941406 -1.976562 4.21875 -1.75 4.5625 -1.75 C 5.132812 -1.75 5.484375 -2.296875 5.609375 -3.390625 L 8.28125 -3.15625 C 8.15625 -2.0625 7.773438 -1.234375 7.140625 -0.671875 C 6.515625 -0.109375 5.660156 0.171875 4.578125 0.171875 C 3.328125 0.171875 2.351562 -0.238281 1.65625 -1.0625 C 0.96875 -1.882812 0.625 -3.03125 0.625 -4.5 Z M 0.625 -4.5 "/></g></g><g transform="translate(506.788232, 356.855701)"><g><path d="M 4.421875 -1.5625 C 4.859375 -1.5625 5.210938 -1.773438 5.484375 -2.203125 C 5.753906 -2.628906 5.890625 -3.148438 5.890625 -3.765625 L 5.890625 -4.234375 L 4.984375 -4.203125 C 4.410156 -4.171875 4.007812 -4.039062 3.78125 -3.8125 C 3.550781 -3.59375 3.4375 -3.265625 3.4375 -2.828125 C 3.4375 -2.429688 3.519531 -2.117188 3.6875 -1.890625 C 3.851562 -1.671875 4.097656 -1.5625 4.421875 -1.5625 Z M 8.640625 0 L 5.96875 0 L 5.875 -1.328125 C 5.601562 -0.785156 5.269531 -0.398438 4.875 -0.171875 C 4.488281 0.0546875 3.953125 0.171875 3.265625 0.171875 C 2.390625 0.171875 1.710938 -0.0664062 1.234375 -0.546875 C 0.765625 -1.035156 0.53125 -1.71875 0.53125 -2.59375 C 0.53125 -4.46875 1.707031 -5.4375 4.0625 -5.5 L 5.875 -5.5625 L 5.875 -6.03125 C 5.875 -6.59375 5.800781 -7.003906 5.65625 -7.265625 C 5.507812 -7.523438 5.269531 -7.65625 4.9375 -7.65625 C 4.625 -7.65625 4.382812 -7.566406 4.21875 -7.390625 C 4.0625 -7.222656 3.945312 -6.957031 3.875 -6.59375 L 1.171875 -6.921875 C 1.367188 -7.753906 1.78125 -8.347656 2.40625 -8.703125 C 3.03125 -9.066406 3.882812 -9.25 4.96875 -9.25 C 6.164062 -9.25 7.078125 -8.96875 7.703125 -8.40625 C 8.328125 -7.851562 8.640625 -7.03125 8.640625 -5.9375 Z M 8.640625 0 "/></g></g><g transform="translate(516.461329, 356.855701)"><g><path d="M 10.5 -4.578125 C 10.5 -3.046875 10.171875 -1.875 9.515625 -1.0625 C 8.867188 -0.25 7.914062 0.15625 6.65625 0.15625 C 6.007812 0.15625 5.453125 0.015625 4.984375 -0.265625 C 4.523438 -0.554688 4.175781 -0.957031 3.9375 -1.46875 L 3.890625 -1.46875 C 3.921875 -1.226562 3.9375 -0.707031 3.9375 0.09375 L 3.9375 3.8125 L 1.15625 3.8125 L 1.15625 -6.96875 C 1.15625 -7.582031 1.125 -8.28125 1.0625 -9.0625 L 3.765625 -9.0625 C 3.796875 -8.9375 3.828125 -8.695312 3.859375 -8.34375 C 3.890625 -7.988281 3.90625 -7.722656 3.90625 -7.546875 L 3.9375 -7.546875 C 4.457031 -8.679688 5.40625 -9.25 6.78125 -9.25 C 8 -9.25 8.921875 -8.847656 9.546875 -8.046875 C 10.179688 -7.253906 10.5 -6.097656 10.5 -4.578125 Z M 7.578125 -4.578125 C 7.578125 -5.535156 7.425781 -6.238281 7.125 -6.6875 C 6.832031 -7.132812 6.390625 -7.359375 5.796875 -7.359375 C 5.179688 -7.359375 4.710938 -7.109375 4.390625 -6.609375 C 4.066406 -6.117188 3.90625 -5.421875 3.90625 -4.515625 C 3.90625 -3.617188 4.0625 -2.929688 4.375 -2.453125 C 4.695312 -1.984375 5.164062 -1.75 5.78125 -1.75 C 6.382812 -1.75 6.832031 -1.976562 7.125 -2.4375 C 7.425781 -2.894531 7.578125 -3.609375 7.578125 -4.578125 Z M 7.578125 -4.578125 "/></g></g><g transform="translate(527.60909, 356.855701)"><g><path d="M 4.0625 0.171875 C 3.269531 0.171875 2.648438 -0.0546875 2.203125 -0.515625 C 1.765625 -0.972656 1.546875 -1.609375 1.546875 -2.421875 L 1.546875 -7.171875 L 0.28125 -7.171875 L 0.28125 -9.0625 L 1.609375 -9.0625 L 2.46875 -11.328125 L 4.328125 -11.328125 L 4.328125 -9.0625 L 6.421875 -9.0625 L 6.421875 -7.171875 L 4.328125 -7.171875 L 4.328125 -3.109375 C 4.328125 -2.210938 4.695312 -1.765625 5.4375 -1.765625 C 5.800781 -1.765625 6.164062 -1.800781 6.53125 -1.875 L 6.53125 -0.140625 C 5.96875 -0.00390625 5.507812 0.078125 5.15625 0.109375 C 4.800781 0.148438 4.4375 0.171875 4.0625 0.171875 Z M 4.0625 0.171875 "/></g></g><g transform="translate(534.604969, 356.855701)"><g><path d="M 3.828125 -9.0625 L 3.828125 -4.125 C 3.828125 -2.644531 4.285156 -1.90625 5.203125 -1.90625 C 5.722656 -1.90625 6.140625 -2.140625 6.453125 -2.609375 C 6.765625 -3.085938 6.921875 -3.726562 6.921875 -4.53125 L 6.921875 -9.0625 L 9.71875 -9.0625 L 9.71875 -2.15625 C 9.71875 -1.789062 9.726562 -1.375 9.75 -0.90625 C 9.769531 -0.4375 9.785156 -0.132812 9.796875 0 L 7.125 0 C 7.101562 -0.125 7.078125 -0.40625 7.046875 -0.84375 C 7.015625 -1.289062 7 -1.640625 7 -1.890625 L 6.96875 -1.890625 C 6.632812 -1.160156 6.226562 -0.628906 5.75 -0.296875 C 5.28125 0.0234375 4.710938 0.1875 4.046875 0.1875 C 3.054688 0.1875 2.304688 -0.113281 1.796875 -0.71875 C 1.285156 -1.332031 1.03125 -2.25 1.03125 -3.46875 L 1.03125 -9.0625 Z M 3.828125 -9.0625 "/></g></g><g transform="translate(545.480619, 356.855701)"><g><path d="M 5.96875 -7.09375 C 5.375 -7.09375 4.882812 -6.816406 4.5 -6.265625 C 4.125 -5.710938 3.9375 -5 3.9375 -4.125 L 3.9375 0 L 1.15625 0 L 1.15625 -6.8125 C 1.15625 -7.5625 1.132812 -8.3125 1.09375 -9.0625 L 3.75 -9.0625 C 3.820312 -8 3.859375 -7.316406 3.859375 -7.015625 L 3.890625 -7.015625 C 4.160156 -7.816406 4.476562 -8.390625 4.84375 -8.734375 C 5.207031 -9.078125 5.675781 -9.25 6.25 -9.25 C 6.53125 -9.25 6.769531 -9.195312 6.96875 -9.09375 L 6.96875 -6.984375 C 6.65625 -7.054688 6.320312 -7.09375 5.96875 -7.09375 Z M 5.96875 -7.09375 "/></g></g><g transform="translate(552.634498, 356.855701)"><g><path d="M 3.5625 -3.953125 C 3.625 -3.148438 3.785156 -2.554688 4.046875 -2.171875 C 4.316406 -1.785156 4.703125 -1.59375 5.203125 -1.59375 C 5.503906 -1.59375 5.78125 -1.695312 6.03125 -1.90625 C 6.28125 -2.113281 6.535156 -2.5 6.796875 -3.0625 L 9 -2.109375 C 8.5625 -1.441406 8.164062 -0.960938 7.8125 -0.671875 C 7.457031 -0.390625 7.046875 -0.175781 6.578125 -0.03125 C 6.109375 0.101562 5.546875 0.171875 4.890625 0.171875 C 3.523438 0.171875 2.476562 -0.234375 1.75 -1.046875 C 1.019531 -1.867188 0.65625 -3.039062 0.65625 -4.5625 C 0.65625 -6.082031 1.023438 -7.242188 1.765625 -8.046875 C 2.503906 -8.847656 3.597656 -9.25 5.046875 -9.25 C 6.378906 -9.25 7.390625 -8.8125 8.078125 -7.9375 C 8.773438 -7.070312 9.125 -5.785156 9.125 -4.078125 L 9.125 -3.953125 Z M 4.96875 -7.515625 C 4.59375 -7.515625 4.273438 -7.351562 4.015625 -7.03125 C 3.765625 -6.71875 3.617188 -6.226562 3.578125 -5.5625 L 6.265625 -5.5625 C 6.210938 -6.25 6.082031 -6.742188 5.875 -7.046875 C 5.675781 -7.359375 5.375 -7.515625 4.96875 -7.515625 Z M 4.96875 -7.515625 "/></g></g><g transform="translate(562.360261, 356.855701)"><g/></g><g transform="translate(567.319699, 356.855701)"><g><path d="M 3.53125 -4.515625 C 3.53125 -3.554688 3.679688 -2.851562 3.984375 -2.40625 C 4.285156 -1.957031 4.734375 -1.734375 5.328125 -1.734375 C 5.929688 -1.734375 6.394531 -1.976562 6.71875 -2.46875 C 7.039062 -2.96875 7.203125 -3.671875 7.203125 -4.578125 C 7.203125 -5.460938 7.046875 -6.140625 6.734375 -6.609375 C 6.421875 -7.085938 5.957031 -7.328125 5.34375 -7.328125 C 4.726562 -7.328125 4.269531 -7.097656 3.96875 -6.640625 C 3.675781 -6.191406 3.53125 -5.484375 3.53125 -4.515625 Z M 0.625 -4.515625 C 0.625 -6.046875 0.945312 -7.210938 1.59375 -8.015625 C 2.25 -8.828125 3.191406 -9.234375 4.421875 -9.234375 C 5.703125 -9.234375 6.625 -8.6875 7.1875 -7.59375 L 7.21875 -7.59375 C 7.1875 -8.03125 7.171875 -8.554688 7.171875 -9.171875 L 7.171875 -12.765625 L 9.96875 -12.765625 L 9.96875 -2.109375 C 9.96875 -1.484375 10 -0.78125 10.0625 0 L 7.3125 0 C 7.28125 -0.0820312 7.25 -0.304688 7.21875 -0.671875 C 7.1875 -1.035156 7.171875 -1.3125 7.171875 -1.5 L 7.140625 -1.5 C 6.617188 -0.394531 5.664062 0.15625 4.28125 0.15625 C 3.09375 0.15625 2.1875 -0.238281 1.5625 -1.03125 C 0.9375 -1.832031 0.625 -2.992188 0.625 -4.515625 Z M 0.625 -4.515625 "/></g></g><g transform="translate(578.449905, 356.855701)"><g><path d="M 4.421875 -1.5625 C 4.859375 -1.5625 5.210938 -1.773438 5.484375 -2.203125 C 5.753906 -2.628906 5.890625 -3.148438 5.890625 -3.765625 L 5.890625 -4.234375 L 4.984375 -4.203125 C 4.410156 -4.171875 4.007812 -4.039062 3.78125 -3.8125 C 3.550781 -3.59375 3.4375 -3.265625 3.4375 -2.828125 C 3.4375 -2.429688 3.519531 -2.117188 3.6875 -1.890625 C 3.851562 -1.671875 4.097656 -1.5625 4.421875 -1.5625 Z M 8.640625 0 L 5.96875 0 L 5.875 -1.328125 C 5.601562 -0.785156 5.269531 -0.398438 4.875 -0.171875 C 4.488281 0.0546875 3.953125 0.171875 3.265625 0.171875 C 2.390625 0.171875 1.710938 -0.0664062 1.234375 -0.546875 C 0.765625 -1.035156 0.53125 -1.71875 0.53125 -2.59375 C 0.53125 -4.46875 1.707031 -5.4375 4.0625 -5.5 L 5.875 -5.5625 L 5.875 -6.03125 C 5.875 -6.59375 5.800781 -7.003906 5.65625 -7.265625 C 5.507812 -7.523438 5.269531 -7.65625 4.9375 -7.65625 C 4.625 -7.65625 4.382812 -7.566406 4.21875 -7.390625 C 4.0625 -7.222656 3.945312 -6.957031 3.875 -6.59375 L 1.171875 -6.921875 C 1.367188 -7.753906 1.78125 -8.347656 2.40625 -8.703125 C 3.03125 -9.066406 3.882812 -9.25 4.96875 -9.25 C 6.164062 -9.25 7.078125 -8.96875 7.703125 -8.40625 C 8.328125 -7.851562 8.640625 -7.03125 8.640625 -5.9375 Z M 8.640625 0 "/></g></g><g transform="translate(588.123001, 356.855701)"><g><path d="M 4.0625 0.171875 C 3.269531 0.171875 2.648438 -0.0546875 2.203125 -0.515625 C 1.765625 -0.972656 1.546875 -1.609375 1.546875 -2.421875 L 1.546875 -7.171875 L 0.28125 -7.171875 L 0.28125 -9.0625 L 1.609375 -9.0625 L 2.46875 -11.328125 L 4.328125 -11.328125 L 4.328125 -9.0625 L 6.421875 -9.0625 L 6.421875 -7.171875 L 4.328125 -7.171875 L 4.328125 -3.109375 C 4.328125 -2.210938 4.695312 -1.765625 5.4375 -1.765625 C 5.800781 -1.765625 6.164062 -1.800781 6.53125 -1.875 L 6.53125 -0.140625 C 5.96875 -0.00390625 5.507812 0.078125 5.15625 0.109375 C 4.800781 0.148438 4.4375 0.171875 4.0625 0.171875 Z M 4.0625 0.171875 "/></g></g><g transform="translate(595.11888, 356.855701)"><g><path d="M 4.421875 -1.5625 C 4.859375 -1.5625 5.210938 -1.773438 5.484375 -2.203125 C 5.753906 -2.628906 5.890625 -3.148438 5.890625 -3.765625 L 5.890625 -4.234375 L 4.984375 -4.203125 C 4.410156 -4.171875 4.007812 -4.039062 3.78125 -3.8125 C 3.550781 -3.59375 3.4375 -3.265625 3.4375 -2.828125 C 3.4375 -2.429688 3.519531 -2.117188 3.6875 -1.890625 C 3.851562 -1.671875 4.097656 -1.5625 4.421875 -1.5625 Z M 8.640625 0 L 5.96875 0 L 5.875 -1.328125 C 5.601562 -0.785156 5.269531 -0.398438 4.875 -0.171875 C 4.488281 0.0546875 3.953125 0.171875 3.265625 0.171875 C 2.390625 0.171875 1.710938 -0.0664062 1.234375 -0.546875 C 0.765625 -1.035156 0.53125 -1.71875 0.53125 -2.59375 C 0.53125 -4.46875 1.707031 -5.4375 4.0625 -5.5 L 5.875 -5.5625 L 5.875 -6.03125 C 5.875 -6.59375 5.800781 -7.003906 5.65625 -7.265625 C 5.507812 -7.523438 5.269531 -7.65625 4.9375 -7.65625 C 4.625 -7.65625 4.382812 -7.566406 4.21875 -7.390625 C 4.0625 -7.222656 3.945312 -6.957031 3.875 -6.59375 L 1.171875 -6.921875 C 1.367188 -7.753906 1.78125 -8.347656 2.40625 -8.703125 C 3.03125 -9.066406 3.882812 -9.25 4.96875 -9.25 C 6.164062 -9.25 7.078125 -8.96875 7.703125 -8.40625 C 8.328125 -7.851562 8.640625 -7.03125 8.640625 -5.9375 Z M 8.640625 0 "/></g></g></g><g clip-path="url(#8acb69f675)"><g clip-path="url(#bc4dc1410b)"><path stroke-linecap="butt" transform="matrix(0.749036, 0, 0, 0.749036, 189.681732, 119.905323)" fill="none" stroke-linejoin="miter" d="M 67.90748 0.0012379 C 30.400936 0.0012379 0.00248583 18.618919 0.00248583 41.591157 C 0.00248583 64.563394 30.400936 83.18629 67.90748 83.18629 C 105.40881 83.18629 135.812475 64.563394 135.812475 41.591157 C 135.812475 18.618919 105.40881 0.0012379 67.90748 0.0012379 Z M 67.90748 0.0012379 " stroke="#7257b0" stroke-width="8" stroke-opacity="1" stroke-miterlimit="4"/></g></g><g fill="#000000" fill-opacity="1"><g transform="translate(212.944197, 158.926056)"><g><path d="M 14.28125 -25.65625 C 17.09375 -25.65625 19.335938 -25 21.015625 -23.6875 C 22.703125 -22.375 23.628906 -20.492188 23.796875 -18.046875 L 18.828125 -17.796875 C 18.585938 -20.285156 17.046875 -21.53125 14.203125 -21.53125 C 12.867188 -21.53125 11.867188 -21.296875 11.203125 -20.828125 C 10.546875 -20.359375 10.21875 -19.710938 10.21875 -18.890625 C 10.21875 -18.304688 10.421875 -17.789062 10.828125 -17.34375 C 11.242188 -16.894531 11.757812 -16.515625 12.375 -16.203125 C 12.988281 -15.898438 13.867188 -15.515625 15.015625 -15.046875 C 16.492188 -14.441406 17.707031 -13.863281 18.65625 -13.3125 C 19.613281 -12.757812 20.425781 -12.015625 21.09375 -11.078125 C 21.769531 -10.148438 22.109375 -9.007812 22.109375 -7.65625 C 22.109375 -6.164062 21.707031 -4.8125 20.90625 -3.59375 C 20.101562 -2.375 18.945312 -1.398438 17.4375 -0.671875 C 15.9375 0.0546875 14.15625 0.421875 12.09375 0.421875 C 8.914062 0.421875 6.46875 -0.28125 4.75 -1.6875 C 3.039062 -3.101562 2.1875 -5.234375 2.1875 -8.078125 L 2.1875 -8.171875 L 7.125 -8.421875 C 7.164062 -7.367188 7.320312 -6.519531 7.59375 -5.875 C 7.863281 -5.226562 8.347656 -4.738281 9.046875 -4.40625 C 9.753906 -4.070312 10.769531 -3.90625 12.09375 -3.90625 C 13.707031 -3.90625 14.921875 -4.1875 15.734375 -4.75 C 16.546875 -5.320312 16.953125 -6.078125 16.953125 -7.015625 C 16.953125 -7.597656 16.785156 -8.085938 16.453125 -8.484375 C 16.128906 -8.890625 15.609375 -9.273438 14.890625 -9.640625 C 14.171875 -10.003906 13.050781 -10.515625 11.53125 -11.171875 C 10.1875 -11.734375 9.078125 -12.296875 8.203125 -12.859375 C 7.335938 -13.429688 6.628906 -14.144531 6.078125 -15 C 5.523438 -15.851562 5.25 -16.914062 5.25 -18.1875 C 5.25 -19.664062 5.59375 -20.960938 6.28125 -22.078125 C 6.976562 -23.203125 8.007812 -24.078125 9.375 -24.703125 C 10.738281 -25.335938 12.375 -25.65625 14.28125 -25.65625 Z M 14.28125 -25.65625 "/></g></g></g><g fill="#000000" fill-opacity="1"><g transform="translate(234.112509, 163.067933)"><g><path d="M 8.875 -17.046875 C 10.3125 -17.046875 11.457031 -16.535156 12.3125 -15.515625 C 13.164062 -14.503906 13.59375 -13.054688 13.59375 -11.171875 C 13.59375 -9.734375 13.335938 -8.117188 12.828125 -6.328125 C 12.328125 -4.546875 11.523438 -3 10.421875 -1.6875 C 9.328125 -0.375 7.957031 0.28125 6.3125 0.28125 C 4.757812 0.28125 3.582031 -0.257812 2.78125 -1.34375 C 1.988281 -2.4375 1.59375 -3.832031 1.59375 -5.53125 C 1.59375 -7.3125 1.890625 -9.09375 2.484375 -10.875 C 3.078125 -12.664062 3.925781 -14.140625 5.03125 -15.296875 C 6.132812 -16.460938 7.414062 -17.046875 8.875 -17.046875 Z M 5.546875 -9.625 C 5.304688 -8.675781 5.125 -7.71875 5 -6.75 C 4.875 -5.789062 4.8125 -5.15625 4.8125 -4.84375 C 4.8125 -3.207031 5.34375 -2.390625 6.40625 -2.390625 C 7.019531 -2.390625 7.53125 -2.625 7.9375 -3.09375 C 8.351562 -3.570312 8.726562 -4.265625 9.0625 -5.171875 C 9.375 -5.972656 9.625 -6.863281 9.8125 -7.84375 C 10.007812 -8.832031 10.148438 -9.710938 10.234375 -10.484375 C 10.316406 -11.253906 10.359375 -11.753906 10.359375 -11.984375 C 10.359375 -12.703125 10.222656 -13.28125 9.953125 -13.71875 C 9.691406 -14.15625 9.300781 -14.375 8.78125 -14.375 C 7.414062 -14.375 6.335938 -12.789062 5.546875 -9.625 Z M 5.546875 -9.625 "/></g></g></g><g fill="#000000" fill-opacity="1"><g transform="translate(247.296208, 163.067933)"><g><path d="M 7.234375 -12.28125 L 9.28125 -12.28125 L 8.75 -9.859375 L 6.71875 -9.859375 L 5.625 -4.53125 C 5.46875 -3.832031 5.390625 -3.347656 5.390625 -3.078125 C 5.390625 -2.796875 5.472656 -2.585938 5.640625 -2.453125 C 5.816406 -2.316406 6.09375 -2.25 6.46875 -2.25 C 6.726562 -2.25 7.09375 -2.28125 7.5625 -2.34375 L 7.046875 0.125 C 6.648438 0.21875 6.085938 0.265625 5.359375 0.265625 C 3.066406 0.265625 1.921875 -0.570312 1.921875 -2.25 C 1.921875 -2.582031 2.007812 -3.21875 2.1875 -4.15625 L 2.296875 -4.703125 L 3.390625 -9.859375 L 1.78125 -9.859375 L 2.296875 -12.28125 L 3.90625 -12.28125 L 4.3125 -14.25 L 8.109375 -16.5625 Z M 7.234375 -12.28125 "/></g></g></g><g fill="#000000" fill-opacity="1"><g transform="translate(255.192197, 163.067933)"><g><path d="M 9.75 -12.578125 C 10.289062 -12.578125 10.804688 -12.460938 11.296875 -12.234375 L 10.015625 -9.515625 C 9.691406 -9.609375 9.378906 -9.65625 9.078125 -9.65625 C 8.546875 -9.65625 8.03125 -9.492188 7.53125 -9.171875 C 7.03125 -8.859375 6.644531 -8.5 6.375 -8.09375 C 5.726562 -7.144531 5.269531 -5.835938 5 -4.171875 L 4.125 0 L 0.8125 0 L 3.375 -12.28125 L 6.46875 -12.28125 L 5.984375 -9.921875 C 6.535156 -10.785156 7.117188 -11.441406 7.734375 -11.890625 C 8.347656 -12.347656 9.019531 -12.578125 9.75 -12.578125 Z M 9.75 -12.578125 "/></g></g></g><g clip-path="url(#ce1af3d022)"><g clip-path="url(#45969c4a43)"><path stroke-linecap="butt" transform="matrix(0.749036, 0, 0, 0.749036, 174.891256, 206.050759)" fill="none" stroke-linejoin="miter" d="M 74.673275 0.0000292283 C 33.432761 0.0000292283 -0.000842662 23.493772 -0.000842662 52.473733 C -0.000842662 81.45891 33.432761 104.952652 74.673275 104.952652 C 115.913788 104.952652 149.342177 81.45891 149.342177 52.473733 C 149.342177 23.493772 115.913788 0.0000292283 74.673275 0.0000292283 Z M 74.673275 0.0000292283 " stroke="#7257b0" stroke-width="8" stroke-opacity="1" stroke-miterlimit="4"/></g></g><g fill="#000000" fill-opacity="1"><g transform="translate(204.499345, 259.413117)"><g><path d="M 14.28125 -25.65625 C 17.09375 -25.65625 19.335938 -25 21.015625 -23.6875 C 22.703125 -22.375 23.628906 -20.492188 23.796875 -18.046875 L 18.828125 -17.796875 C 18.585938 -20.285156 17.046875 -21.53125 14.203125 -21.53125 C 12.867188 -21.53125 11.867188 -21.296875 11.203125 -20.828125 C 10.546875 -20.359375 10.21875 -19.710938 10.21875 -18.890625 C 10.21875 -18.304688 10.421875 -17.789062 10.828125 -17.34375 C 11.242188 -16.894531 11.757812 -16.515625 12.375 -16.203125 C 12.988281 -15.898438 13.867188 -15.515625 15.015625 -15.046875 C 16.492188 -14.441406 17.707031 -13.863281 18.65625 -13.3125 C 19.613281 -12.757812 20.425781 -12.015625 21.09375 -11.078125 C 21.769531 -10.148438 22.109375 -9.007812 22.109375 -7.65625 C 22.109375 -6.164062 21.707031 -4.8125 20.90625 -3.59375 C 20.101562 -2.375 18.945312 -1.398438 17.4375 -0.671875 C 15.9375 0.0546875 14.15625 0.421875 12.09375 0.421875 C 8.914062 0.421875 6.46875 -0.28125 4.75 -1.6875 C 3.039062 -3.101562 2.1875 -5.234375 2.1875 -8.078125 L 2.1875 -8.171875 L 7.125 -8.421875 C 7.164062 -7.367188 7.320312 -6.519531 7.59375 -5.875 C 7.863281 -5.226562 8.347656 -4.738281 9.046875 -4.40625 C 9.753906 -4.070312 10.769531 -3.90625 12.09375 -3.90625 C 13.707031 -3.90625 14.921875 -4.1875 15.734375 -4.75 C 16.546875 -5.320312 16.953125 -6.078125 16.953125 -7.015625 C 16.953125 -7.597656 16.785156 -8.085938 16.453125 -8.484375 C 16.128906 -8.890625 15.609375 -9.273438 14.890625 -9.640625 C 14.171875 -10.003906 13.050781 -10.515625 11.53125 -11.171875 C 10.1875 -11.734375 9.078125 -12.296875 8.203125 -12.859375 C 7.335938 -13.429688 6.628906 -14.144531 6.078125 -15 C 5.523438 -15.851562 5.25 -16.914062 5.25 -18.1875 C 5.25 -19.664062 5.59375 -20.960938 6.28125 -22.078125 C 6.976562 -23.203125 8.007812 -24.078125 9.375 -24.703125 C 10.738281 -25.335938 12.375 -25.65625 14.28125 -25.65625 Z M 14.28125 -25.65625 "/></g></g></g><g fill="#000000" fill-opacity="1"><g transform="translate(225.667657, 263.555025)"><g><path d="M 10.125 -17.046875 L 12.140625 -17.046875 L 8.5625 0 L 5.21875 0 L 7.6875 -11.734375 C 6.957031 -11.265625 6.15625 -10.851562 5.28125 -10.5 C 4.414062 -10.144531 3.601562 -9.882812 2.84375 -9.71875 L 3.46875 -12.6875 C 6.28125 -13.875 8.5 -15.328125 10.125 -17.046875 Z M 10.125 -17.046875 "/></g></g></g><g fill="#000000" fill-opacity="1"><g transform="translate(238.851357, 263.555025)"><g><path d="M 7.234375 -12.28125 L 9.28125 -12.28125 L 8.75 -9.859375 L 6.71875 -9.859375 L 5.625 -4.53125 C 5.46875 -3.832031 5.390625 -3.347656 5.390625 -3.078125 C 5.390625 -2.796875 5.472656 -2.585938 5.640625 -2.453125 C 5.816406 -2.316406 6.09375 -2.25 6.46875 -2.25 C 6.726562 -2.25 7.09375 -2.28125 7.5625 -2.34375 L 7.046875 0.125 C 6.648438 0.21875 6.085938 0.265625 5.359375 0.265625 C 3.066406 0.265625 1.921875 -0.570312 1.921875 -2.25 C 1.921875 -2.582031 2.007812 -3.21875 2.1875 -4.15625 L 2.296875 -4.703125 L 3.390625 -9.859375 L 1.78125 -9.859375 L 2.296875 -12.28125 L 3.90625 -12.28125 L 4.3125 -14.25 L 8.109375 -16.5625 Z M 7.234375 -12.28125 "/></g></g></g><g fill="#000000" fill-opacity="1"><g transform="translate(246.747345, 263.555025)"><g><path d="M 9.75 -12.578125 C 10.289062 -12.578125 10.804688 -12.460938 11.296875 -12.234375 L 10.015625 -9.515625 C 9.691406 -9.609375 9.378906 -9.65625 9.078125 -9.65625 C 8.546875 -9.65625 8.03125 -9.492188 7.53125 -9.171875 C 7.03125 -8.859375 6.644531 -8.5 6.375 -8.09375 C 5.726562 -7.144531 5.269531 -5.835938 5 -4.171875 L 4.125 0 L 0.8125 0 L 3.375 -12.28125 L 6.46875 -12.28125 L 5.984375 -9.921875 C 6.535156 -10.785156 7.117188 -11.441406 7.734375 -11.890625 C 8.347656 -12.347656 9.019531 -12.578125 9.75 -12.578125 Z M 9.75 -12.578125 "/></g></g></g><g clip-path="url(#b03e5c1af4)"><g clip-path="url(#94f574df44)"><path stroke-linecap="butt" transform="matrix(0.749036, 0, 0, 0.749036, 533.984674, 180.038877)" fill="none" stroke-linejoin="miter" d="M 55.065175 0.000247742 C 24.656295 0.000247742 -0.000398862 22.023348 -0.000398862 49.188475 C -0.000398862 76.353602 24.656295 98.376703 55.065175 98.376703 C 85.47927 98.376703 110.135964 76.353602 110.135964 49.188475 C 110.135964 22.023348 85.47927 0.000247742 55.065175 0.000247742 Z M 55.065175 0.000247742 " stroke="#7257b0" stroke-width="8" stroke-opacity="1" stroke-miterlimit="4"/></g></g><g fill="#000000" fill-opacity="1"><g transform="translate(551.127697, 224.800095)"><g><path d="M 14.984375 -18.6875 C 16.953125 -18.6875 18.492188 -18 19.609375 -16.625 C 20.734375 -15.25 21.296875 -13.335938 21.296875 -10.890625 C 21.296875 -8.847656 20.890625 -6.960938 20.078125 -5.234375 C 19.265625 -3.503906 18.15625 -2.128906 16.75 -1.109375 C 15.351562 -0.0859375 13.8125 0.421875 12.125 0.421875 C 10.832031 0.421875 9.726562 0.140625 8.8125 -0.421875 C 7.894531 -0.984375 7.191406 -1.664062 6.703125 -2.46875 L 6.65625 -2.46875 L 4.6875 6.984375 L -0.25 6.984375 L 5.046875 -18.265625 L 9.6875 -18.265625 L 9.34375 -16.421875 C 10.300781 -17.203125 11.210938 -17.773438 12.078125 -18.140625 C 12.953125 -18.503906 13.921875 -18.6875 14.984375 -18.6875 Z M 8 -7.796875 C 8 -6.359375 8.335938 -5.25 9.015625 -4.46875 C 9.703125 -3.695312 10.539062 -3.3125 11.53125 -3.3125 C 12.488281 -3.3125 13.347656 -3.6875 14.109375 -4.4375 C 14.878906 -5.1875 15.46875 -6.160156 15.875 -7.359375 C 16.289062 -8.566406 16.5 -9.789062 16.5 -11.03125 C 16.5 -12.28125 16.179688 -13.28125 15.546875 -14.03125 C 14.910156 -14.78125 14.0625 -15.15625 13 -15.15625 C 11.96875 -15.15625 11.070312 -14.769531 10.3125 -14 C 9.550781 -13.238281 8.972656 -12.28125 8.578125 -11.125 C 8.191406 -9.976562 8 -8.867188 8 -7.796875 Z M 8 -7.796875 "/></g></g></g><g fill="#000000" fill-opacity="1"><g transform="translate(571.417439, 235.784428)"><g><path d="M 10.125 -17.046875 L 12.140625 -17.046875 L 8.5625 0 L 5.21875 0 L 7.6875 -11.734375 C 6.957031 -11.265625 6.15625 -10.851562 5.28125 -10.5 C 4.414062 -10.144531 3.601562 -9.882812 2.84375 -9.71875 L 3.46875 -12.6875 C 6.28125 -13.875 8.5 -15.328125 10.125 -17.046875 Z M 10.125 -17.046875 "/></g></g></g><g fill="#000000" fill-opacity="1"><g transform="translate(584.601139, 235.784428)"><g><path d="M 7.234375 -12.28125 L 9.28125 -12.28125 L 8.75 -9.859375 L 6.71875 -9.859375 L 5.625 -4.53125 C 5.46875 -3.832031 5.390625 -3.347656 5.390625 -3.078125 C 5.390625 -2.796875 5.472656 -2.585938 5.640625 -2.453125 C 5.816406 -2.316406 6.09375 -2.25 6.46875 -2.25 C 6.726562 -2.25 7.09375 -2.28125 7.5625 -2.34375 L 7.046875 0.125 C 6.648438 0.21875 6.085938 0.265625 5.359375 0.265625 C 3.066406 0.265625 1.921875 -0.570312 1.921875 -2.25 C 1.921875 -2.582031 2.007812 -3.21875 2.1875 -4.15625 L 2.296875 -4.703125 L 3.390625 -9.859375 L 1.78125 -9.859375 L 2.296875 -12.28125 L 3.90625 -12.28125 L 4.3125 -14.25 L 8.109375 -16.5625 Z M 7.234375 -12.28125 "/></g></g></g><g fill="#000000" fill-opacity="1"><g transform="translate(592.497127, 235.784428)"><g><path d="M 9.75 -12.578125 C 10.289062 -12.578125 10.804688 -12.460938 11.296875 -12.234375 L 10.015625 -9.515625 C 9.691406 -9.609375 9.378906 -9.65625 9.078125 -9.65625 C 8.546875 -9.65625 8.03125 -9.492188 7.53125 -9.171875 C 7.03125 -8.859375 6.644531 -8.5 6.375 -8.09375 C 5.726562 -7.144531 5.269531 -5.835938 5 -4.171875 L 4.125 0 L 0.8125 0 L 3.375 -12.28125 L 6.46875 -12.28125 L 5.984375 -9.921875 C 6.535156 -10.785156 7.117188 -11.441406 7.734375 -11.890625 C 8.347656 -12.347656 9.019531 -12.578125 9.75 -12.578125 Z M 9.75 -12.578125 "/></g></g></g><g clip-path="url(#1653f5dd74)"><g clip-path="url(#73b24bece7)"><path stroke-linecap="butt" transform="matrix(0.749036, 0, 0, 0.749036, 458.348918, 68.798177)" fill="none" stroke-linejoin="miter" d="M 74.098773 -0.00173766 C 33.176379 -0.00173766 -0.0016851 22.986145 -0.0016851 51.335085 C -0.0016851 79.68924 33.176379 102.671908 74.098773 102.671908 C 115.021167 102.671908 148.194017 79.68924 148.194017 51.335085 C 148.194017 22.986145 115.021167 -0.00173766 74.098773 -0.00173766 Z M 74.098773 -0.00173766 " stroke="#7257b0" stroke-width="8" stroke-opacity="1" stroke-miterlimit="4"/></g></g><g clip-path="url(#97cb7a1676)"><path fill="#000000" d="M 502.300781 84.976562 L 493.324219 94.714844 L 502.300781 89.53125 L 511.277344 94.714844 Z M 502.300781 84.976562 " fill-opacity="1" fill-rule="nonzero"/></g><g fill="#000000" fill-opacity="1"><g transform="translate(487.592935, 116.138782)"><g><path d="M 6.84375 8.453125 L 8.640625 0.171875 C 6.566406 -0.109375 4.863281 -0.9375 3.53125 -2.3125 C 2.207031 -3.6875 1.546875 -5.5625 1.546875 -7.9375 C 1.546875 -10.5 2.097656 -12.675781 3.203125 -14.46875 C 4.304688 -16.269531 5.820312 -17.976562 7.75 -19.59375 L 11.140625 -16.671875 C 9.796875 -15.328125 8.742188 -13.972656 7.984375 -12.609375 C 7.222656 -11.253906 6.84375 -9.753906 6.84375 -8.109375 C 6.84375 -6.859375 7.082031 -5.882812 7.5625 -5.1875 C 8.039062 -4.5 8.671875 -4.0625 9.453125 -3.875 L 11.34375 -12.765625 C 11.84375 -15.015625 12.660156 -16.710938 13.796875 -17.859375 C 14.941406 -19.015625 16.570312 -19.59375 18.6875 -19.59375 C 20.84375 -19.59375 22.492188 -18.921875 23.640625 -17.578125 C 24.796875 -16.242188 25.375 -14.453125 25.375 -12.203125 C 25.375 -9.773438 24.890625 -7.644531 23.921875 -5.8125 C 22.960938 -3.976562 21.597656 -2.523438 19.828125 -1.453125 C 18.054688 -0.390625 15.945312 0.195312 13.5 0.3125 L 11.84375 8.453125 Z M 14.375 -3.90625 C 15.71875 -4.125 16.8125 -4.675781 17.65625 -5.5625 C 18.5 -6.457031 19.117188 -7.539062 19.515625 -8.8125 C 19.921875 -10.082031 20.125 -11.363281 20.125 -12.65625 C 20.125 -13.550781 20 -14.285156 19.75 -14.859375 C 19.507812 -15.429688 19.09375 -15.71875 18.5 -15.71875 C 18.0625 -15.71875 17.640625 -15.488281 17.234375 -15.03125 C 16.835938 -14.570312 16.519531 -13.789062 16.28125 -12.6875 Z M 14.375 -3.90625 "/></g></g></g><g fill="#000000" fill-opacity="1"><g transform="translate(506.653227, 128.520053)"><g><path d="M 8.875 -17.046875 C 10.3125 -17.046875 11.457031 -16.535156 12.3125 -15.515625 C 13.164062 -14.503906 13.59375 -13.054688 13.59375 -11.171875 C 13.59375 -9.734375 13.335938 -8.117188 12.828125 -6.328125 C 12.328125 -4.546875 11.523438 -3 10.421875 -1.6875 C 9.328125 -0.375 7.957031 0.28125 6.3125 0.28125 C 4.757812 0.28125 3.582031 -0.257812 2.78125 -1.34375 C 1.988281 -2.4375 1.59375 -3.832031 1.59375 -5.53125 C 1.59375 -7.3125 1.890625 -9.09375 2.484375 -10.875 C 3.078125 -12.664062 3.925781 -14.140625 5.03125 -15.296875 C 6.132812 -16.460938 7.414062 -17.046875 8.875 -17.046875 Z M 5.546875 -9.625 C 5.304688 -8.675781 5.125 -7.71875 5 -6.75 C 4.875 -5.789062 4.8125 -5.15625 4.8125 -4.84375 C 4.8125 -3.207031 5.34375 -2.390625 6.40625 -2.390625 C 7.019531 -2.390625 7.53125 -2.625 7.9375 -3.09375 C 8.351562 -3.570312 8.726562 -4.265625 9.0625 -5.171875 C 9.375 -5.972656 9.625 -6.863281 9.8125 -7.84375 C 10.007812 -8.832031 10.148438 -9.710938 10.234375 -10.484375 C 10.316406 -11.253906 10.359375 -11.753906 10.359375 -11.984375 C 10.359375 -12.703125 10.222656 -13.28125 9.953125 -13.71875 C 9.691406 -14.15625 9.300781 -14.375 8.78125 -14.375 C 7.414062 -14.375 6.335938 -12.789062 5.546875 -9.625 Z M 5.546875 -9.625 "/></g></g></g><g fill="#000000" fill-opacity="1"><g transform="translate(519.836927, 128.520053)"><g><path d="M 7.234375 -12.28125 L 9.28125 -12.28125 L 8.75 -9.859375 L 6.71875 -9.859375 L 5.625 -4.53125 C 5.46875 -3.832031 5.390625 -3.347656 5.390625 -3.078125 C 5.390625 -2.796875 5.472656 -2.585938 5.640625 -2.453125 C 5.816406 -2.316406 6.09375 -2.25 6.46875 -2.25 C 6.726562 -2.25 7.09375 -2.28125 7.5625 -2.34375 L 7.046875 0.125 C 6.648438 0.21875 6.085938 0.265625 5.359375 0.265625 C 3.066406 0.265625 1.921875 -0.570312 1.921875 -2.25 C 1.921875 -2.582031 2.007812 -3.21875 2.1875 -4.15625 L 2.296875 -4.703125 L 3.390625 -9.859375 L 1.78125 -9.859375 L 2.296875 -12.28125 L 3.90625 -12.28125 L 4.3125 -14.25 L 8.109375 -16.5625 Z M 7.234375 -12.28125 "/></g></g></g><g fill="#000000" fill-opacity="1"><g transform="translate(527.732915, 128.520053)"><g><path d="M 9.75 -12.578125 C 10.289062 -12.578125 10.804688 -12.460938 11.296875 -12.234375 L 10.015625 -9.515625 C 9.691406 -9.609375 9.378906 -9.65625 9.078125 -9.65625 C 8.546875 -9.65625 8.03125 -9.492188 7.53125 -9.171875 C 7.03125 -8.859375 6.644531 -8.5 6.375 -8.09375 C 5.726562 -7.144531 5.269531 -5.835938 5 -4.171875 L 4.125 0 L 0.8125 0 L 3.375 -12.28125 L 6.46875 -12.28125 L 5.984375 -9.921875 C 6.535156 -10.785156 7.117188 -11.441406 7.734375 -11.890625 C 8.347656 -12.347656 9.019531 -12.578125 9.75 -12.578125 Z M 9.75 -12.578125 "/></g></g></g><g clip-path="url(#e6d7282a68)"><g clip-path="url(#be8fe51812)"><path stroke-linecap="butt" transform="matrix(0.749036, 0, 0, 0.749036, 600.752683, 79.998354)" fill="none" stroke-linejoin="miter" d="M 55.067208 0.00219759 C 24.653113 0.00219759 0.00163377 22.020083 0.00163377 49.18521 C 0.00163377 76.355552 24.653113 98.373437 55.067208 98.373437 C 85.481303 98.373437 110.132782 76.355552 110.132782 49.18521 C 110.132782 22.020083 85.481303 0.00219759 55.067208 0.00219759 Z M 55.067208 0.00219759 " stroke="#7257b0" stroke-width="8" stroke-opacity="1" stroke-miterlimit="4"/></g></g><g fill="#000000" fill-opacity="1"><g transform="translate(617.027304, 125.502119)"><g><path d="M 14.984375 -18.6875 C 16.953125 -18.6875 18.492188 -18 19.609375 -16.625 C 20.734375 -15.25 21.296875 -13.335938 21.296875 -10.890625 C 21.296875 -8.847656 20.890625 -6.960938 20.078125 -5.234375 C 19.265625 -3.503906 18.15625 -2.128906 16.75 -1.109375 C 15.351562 -0.0859375 13.8125 0.421875 12.125 0.421875 C 10.832031 0.421875 9.726562 0.140625 8.8125 -0.421875 C 7.894531 -0.984375 7.191406 -1.664062 6.703125 -2.46875 L 6.65625 -2.46875 L 4.6875 6.984375 L -0.25 6.984375 L 5.046875 -18.265625 L 9.6875 -18.265625 L 9.34375 -16.421875 C 10.300781 -17.203125 11.210938 -17.773438 12.078125 -18.140625 C 12.953125 -18.503906 13.921875 -18.6875 14.984375 -18.6875 Z M 8 -7.796875 C 8 -6.359375 8.335938 -5.25 9.015625 -4.46875 C 9.703125 -3.695312 10.539062 -3.3125 11.53125 -3.3125 C 12.488281 -3.3125 13.347656 -3.6875 14.109375 -4.4375 C 14.878906 -5.1875 15.46875 -6.160156 15.875 -7.359375 C 16.289062 -8.566406 16.5 -9.789062 16.5 -11.03125 C 16.5 -12.28125 16.179688 -13.28125 15.546875 -14.03125 C 14.910156 -14.78125 14.0625 -15.15625 13 -15.15625 C 11.96875 -15.15625 11.070312 -14.769531 10.3125 -14 C 9.550781 -13.238281 8.972656 -12.28125 8.578125 -11.125 C 8.191406 -9.976562 8 -8.867188 8 -7.796875 Z M 8 -7.796875 "/></g></g></g><g fill="#000000" fill-opacity="1"><g transform="translate(637.317046, 136.486447)"><g><path d="M 8.875 -17.046875 C 10.3125 -17.046875 11.457031 -16.535156 12.3125 -15.515625 C 13.164062 -14.503906 13.59375 -13.054688 13.59375 -11.171875 C 13.59375 -9.734375 13.335938 -8.117188 12.828125 -6.328125 C 12.328125 -4.546875 11.523438 -3 10.421875 -1.6875 C 9.328125 -0.375 7.957031 0.28125 6.3125 0.28125 C 4.757812 0.28125 3.582031 -0.257812 2.78125 -1.34375 C 1.988281 -2.4375 1.59375 -3.832031 1.59375 -5.53125 C 1.59375 -7.3125 1.890625 -9.09375 2.484375 -10.875 C 3.078125 -12.664062 3.925781 -14.140625 5.03125 -15.296875 C 6.132812 -16.460938 7.414062 -17.046875 8.875 -17.046875 Z M 5.546875 -9.625 C 5.304688 -8.675781 5.125 -7.71875 5 -6.75 C 4.875 -5.789062 4.8125 -5.15625 4.8125 -4.84375 C 4.8125 -3.207031 5.34375 -2.390625 6.40625 -2.390625 C 7.019531 -2.390625 7.53125 -2.625 7.9375 -3.09375 C 8.351562 -3.570312 8.726562 -4.265625 9.0625 -5.171875 C 9.375 -5.972656 9.625 -6.863281 9.8125 -7.84375 C 10.007812 -8.832031 10.148438 -9.710938 10.234375 -10.484375 C 10.316406 -11.253906 10.359375 -11.753906 10.359375 -11.984375 C 10.359375 -12.703125 10.222656 -13.28125 9.953125 -13.71875 C 9.691406 -14.15625 9.300781 -14.375 8.78125 -14.375 C 7.414062 -14.375 6.335938 -12.789062 5.546875 -9.625 Z M 5.546875 -9.625 "/></g></g></g><g fill="#000000" fill-opacity="1"><g transform="translate(650.500745, 136.486447)"><g><path d="M 7.234375 -12.28125 L 9.28125 -12.28125 L 8.75 -9.859375 L 6.71875 -9.859375 L 5.625 -4.53125 C 5.46875 -3.832031 5.390625 -3.347656 5.390625 -3.078125 C 5.390625 -2.796875 5.472656 -2.585938 5.640625 -2.453125 C 5.816406 -2.316406 6.09375 -2.25 6.46875 -2.25 C 6.726562 -2.25 7.09375 -2.28125 7.5625 -2.34375 L 7.046875 0.125 C 6.648438 0.21875 6.085938 0.265625 5.359375 0.265625 C 3.066406 0.265625 1.921875 -0.570312 1.921875 -2.25 C 1.921875 -2.582031 2.007812 -3.21875 2.1875 -4.15625 L 2.296875 -4.703125 L 3.390625 -9.859375 L 1.78125 -9.859375 L 2.296875 -12.28125 L 3.90625 -12.28125 L 4.3125 -14.25 L 8.109375 -16.5625 Z M 7.234375 -12.28125 "/></g></g></g><g fill="#000000" fill-opacity="1"><g transform="translate(658.396733, 136.486447)"><g><path d="M 9.75 -12.578125 C 10.289062 -12.578125 10.804688 -12.460938 11.296875 -12.234375 L 10.015625 -9.515625 C 9.691406 -9.609375 9.378906 -9.65625 9.078125 -9.65625 C 8.546875 -9.65625 8.03125 -9.492188 7.53125 -9.171875 C 7.03125 -8.859375 6.644531 -8.5 6.375 -8.09375 C 5.726562 -7.144531 5.269531 -5.835938 5 -4.171875 L 4.125 0 L 0.8125 0 L 3.375 -12.28125 L 6.46875 -12.28125 L 5.984375 -9.921875 C 6.535156 -10.785156 7.117188 -11.441406 7.734375 -11.890625 C 8.347656 -12.347656 9.019531 -12.578125 9.75 -12.578125 Z M 9.75 -12.578125 "/></g></g></g><g clip-path="url(#360d81e4a6)"><g clip-path="url(#313a45d6c8)"><path stroke-linecap="butt" transform="matrix(0.749036, 0, 0, 0.749036, 382.755224, 167.014971)" fill="none" stroke-linejoin="miter" d="M 74.098699 0.000873333 C 33.176305 0.000873333 -0.00175954 22.983541 -0.00175954 51.337696 C -0.00175954 79.686636 33.176305 102.669304 74.098699 102.669304 C 115.021093 102.669304 148.193942 79.686636 148.193942 51.337696 C 148.193942 22.983541 115.021093 0.000873333 74.098699 0.000873333 Z M 74.098699 0.000873333 " stroke="#7257b0" stroke-width="8" stroke-opacity="1" stroke-miterlimit="4"/></g></g><g fill="#000000" fill-opacity="1"><g transform="translate(411.999222, 214.355578)"><g><path d="M 6.84375 8.453125 L 8.640625 0.171875 C 6.566406 -0.109375 4.863281 -0.9375 3.53125 -2.3125 C 2.207031 -3.6875 1.546875 -5.5625 1.546875 -7.9375 C 1.546875 -10.5 2.097656 -12.675781 3.203125 -14.46875 C 4.304688 -16.269531 5.820312 -17.976562 7.75 -19.59375 L 11.140625 -16.671875 C 9.796875 -15.328125 8.742188 -13.972656 7.984375 -12.609375 C 7.222656 -11.253906 6.84375 -9.753906 6.84375 -8.109375 C 6.84375 -6.859375 7.082031 -5.882812 7.5625 -5.1875 C 8.039062 -4.5 8.671875 -4.0625 9.453125 -3.875 L 11.34375 -12.765625 C 11.84375 -15.015625 12.660156 -16.710938 13.796875 -17.859375 C 14.941406 -19.015625 16.570312 -19.59375 18.6875 -19.59375 C 20.84375 -19.59375 22.492188 -18.921875 23.640625 -17.578125 C 24.796875 -16.242188 25.375 -14.453125 25.375 -12.203125 C 25.375 -9.773438 24.890625 -7.644531 23.921875 -5.8125 C 22.960938 -3.976562 21.597656 -2.523438 19.828125 -1.453125 C 18.054688 -0.390625 15.945312 0.195312 13.5 0.3125 L 11.84375 8.453125 Z M 14.375 -3.90625 C 15.71875 -4.125 16.8125 -4.675781 17.65625 -5.5625 C 18.5 -6.457031 19.117188 -7.539062 19.515625 -8.8125 C 19.921875 -10.082031 20.125 -11.363281 20.125 -12.65625 C 20.125 -13.550781 20 -14.285156 19.75 -14.859375 C 19.507812 -15.429688 19.09375 -15.71875 18.5 -15.71875 C 18.0625 -15.71875 17.640625 -15.488281 17.234375 -15.03125 C 16.835938 -14.570312 16.519531 -13.789062 16.28125 -12.6875 Z M 14.375 -3.90625 "/></g></g></g><g fill="#000000" fill-opacity="1"><g transform="translate(431.059538, 226.736864)"><g><path d="M 10.125 -17.046875 L 12.140625 -17.046875 L 8.5625 0 L 5.21875 0 L 7.6875 -11.734375 C 6.957031 -11.265625 6.15625 -10.851562 5.28125 -10.5 C 4.414062 -10.144531 3.601562 -9.882812 2.84375 -9.71875 L 3.46875 -12.6875 C 6.28125 -13.875 8.5 -15.328125 10.125 -17.046875 Z M 10.125 -17.046875 "/></g></g></g><g fill="#000000" fill-opacity="1"><g transform="translate(444.243238, 226.736864)"><g><path d="M 7.234375 -12.28125 L 9.28125 -12.28125 L 8.75 -9.859375 L 6.71875 -9.859375 L 5.625 -4.53125 C 5.46875 -3.832031 5.390625 -3.347656 5.390625 -3.078125 C 5.390625 -2.796875 5.472656 -2.585938 5.640625 -2.453125 C 5.816406 -2.316406 6.09375 -2.25 6.46875 -2.25 C 6.726562 -2.25 7.09375 -2.28125 7.5625 -2.34375 L 7.046875 0.125 C 6.648438 0.21875 6.085938 0.265625 5.359375 0.265625 C 3.066406 0.265625 1.921875 -0.570312 1.921875 -2.25 C 1.921875 -2.582031 2.007812 -3.21875 2.1875 -4.15625 L 2.296875 -4.703125 L 3.390625 -9.859375 L 1.78125 -9.859375 L 2.296875 -12.28125 L 3.90625 -12.28125 L 4.3125 -14.25 L 8.109375 -16.5625 Z M 7.234375 -12.28125 "/></g></g></g><g fill="#000000" fill-opacity="1"><g transform="translate(452.139226, 226.736864)"><g><path d="M 9.75 -12.578125 C 10.289062 -12.578125 10.804688 -12.460938 11.296875 -12.234375 L 10.015625 -9.515625 C 9.691406 -9.609375 9.378906 -9.65625 9.078125 -9.65625 C 8.546875 -9.65625 8.03125 -9.492188 7.53125 -9.171875 C 7.03125 -8.859375 6.644531 -8.5 6.375 -8.09375 C 5.726562 -7.144531 5.269531 -5.835938 5 -4.171875 L 4.125 0 L 0.8125 0 L 3.375 -12.28125 L 6.46875 -12.28125 L 5.984375 -9.921875 C 6.535156 -10.785156 7.117188 -11.441406 7.734375 -11.890625 C 8.347656 -12.347656 9.019531 -12.578125 9.75 -12.578125 Z M 9.75 -12.578125 "/></g></g></g><g clip-path="url(#e5d3280d5e)"><path fill="#000000" d="M 427.824219 183.820312 L 418.84375 193.5625 L 427.824219 188.375 L 436.800781 193.5625 Z M 427.824219 183.820312 " fill-opacity="1" fill-rule="nonzero"/></g><path stroke-linecap="round" transform="matrix(0.731854, -0.159514, 0.159514, 0.731854, 296.658399, 147.313425)" fill="none" stroke-linejoin="miter" d="M 1.500855 1.500105 L 204.154611 1.497378 " stroke="#000000" stroke-width="3" stroke-opacity="1" stroke-miterlimit="4"/><path stroke-linecap="round" transform="matrix(0.731854, -0.159514, 0.159514, 0.731854, 296.658399, 147.313425)" fill-opacity="1" fill="#000000" fill-rule="nonzero" stroke-linejoin="round" d="M 205.652839 -3.001145 L 211.653502 1.498562 L 205.655495 5.998413 Z M 205.652839 -3.001145 " stroke="#000000" stroke-width="3" stroke-opacity="1" stroke-miterlimit="4"/><path stroke-linecap="round" transform="matrix(-0.120628, 0.739259, -0.739259, -0.120628, 643.109191, 157.679658)" fill="none" stroke-linejoin="miter" d="M 1.502129 1.498364 L 202.521952 1.500141 " stroke="#000000" stroke-width="3" stroke-opacity="1" stroke-miterlimit="4"/><path stroke-linecap="round" transform="matrix(-0.120628, 0.739259, -0.739259, -0.120628, 643.109191, 157.679658)" fill-opacity="1" fill="#000000" fill-rule="nonzero" stroke-linejoin="round" d="M 204.023036 -2.998425 L 210.020343 1.502484 L 204.022452 6.000337 Z M 204.023036 -2.998425 " stroke="#000000" stroke-width="3" stroke-opacity="1" stroke-miterlimit="4"/></svg>