<svg xmlns="http://www.w3.org/2000/svg" xmlns:xlink="http://www.w3.org/1999/xlink" width="666" zoomAndPan="magnify" viewBox="0 0 499.5 553.499967" height="738" preserveAspectRatio="xMidYMid meet" version="1.0"><defs><g/><clipPath id="1d7e38261f"><path d="M 11.082031 51.988281 L 342.519531 51.988281 L 342.519531 552.6875 L 11.082031 552.6875 Z M 11.082031 51.988281 " clip-rule="nonzero"/></clipPath><linearGradient x1="128" gradientTransform="matrix(1.294682, 0, 0, 1.294682, 11.081781, 51.986032)" y1="0.00130514" x2="128" gradientUnits="userSpaceOnUse" y2="386.736976" id="51a649f998"><stop stop-opacity="1" stop-color="rgb(59.999084%, 11.799622%, 24.699402%)" offset="0"/><stop stop-opacity="1" stop-color="rgb(60.154724%, 12.14447%, 24.993896%)" offset="0.00390625"/><stop stop-opacity="1" stop-color="rgb(60.31189%, 12.489319%, 25.288391%)" offset="0.0078125"/><stop stop-opacity="1" stop-color="rgb(60.467529%, 12.832642%, 25.58136%)" offset="0.0117187"/><stop stop-opacity="1" stop-color="rgb(60.624695%, 13.17749%, 25.875854%)" offset="0.015625"/><stop stop-opacity="1" stop-color="rgb(60.780334%, 13.522339%, 26.170349%)" offset="0.0195312"/><stop stop-opacity="1" stop-color="rgb(60.9375%, 13.867188%, 26.464844%)" offset="0.0234375"/><stop stop-opacity="1" stop-color="rgb(61.09314%, 14.21051%, 26.757812%)" offset="0.0273438"/><stop stop-opacity="1" stop-color="rgb(61.248779%, 14.555359%, 27.052307%)" offset="0.03125"/><stop stop-opacity="1" stop-color="rgb(61.404419%, 14.900208%, 27.346802%)" offset="0.0351562"/><stop stop-opacity="1" stop-color="rgb(61.561584%, 15.245056%, 27.641296%)" offset="0.0390625"/><stop stop-opacity="1" stop-color="rgb(61.717224%, 15.588379%, 27.934265%)" offset="0.0429688"/><stop stop-opacity="1" stop-color="rgb(61.87439%, 15.933228%, 28.22876%)" offset="0.046875"/><stop stop-opacity="1" stop-color="rgb(62.030029%, 16.278076%, 28.523254%)" offset="0.0507812"/><stop stop-opacity="1" stop-color="rgb(62.187195%, 16.622925%, 28.817749%)" offset="0.0546875"/><stop stop-opacity="1" stop-color="rgb(62.342834%, 16.967773%, 29.110718%)" offset="0.0585937"/><stop stop-opacity="1" stop-color="rgb(62.5%, 17.312622%, 29.405212%)" offset="0.0625"/><stop stop-opacity="1" stop-color="rgb(62.65564%, 17.655945%, 29.699707%)" offset="0.0664062"/><stop stop-opacity="1" stop-color="rgb(62.811279%, 18.000793%, 29.994202%)" offset="0.0703125"/><stop stop-opacity="1" stop-color="rgb(62.966919%, 18.345642%, 30.28717%)" offset="0.0742188"/><stop stop-opacity="1" stop-color="rgb(63.124084%, 18.690491%, 30.581665%)" offset="0.078125"/><stop stop-opacity="1" stop-color="rgb(63.279724%, 19.033813%, 30.87616%)" offset="0.0820312"/><stop stop-opacity="1" stop-color="rgb(63.43689%, 19.378662%, 31.170654%)" offset="0.0859375"/><stop stop-opacity="1" stop-color="rgb(63.592529%, 19.723511%, 31.463623%)" offset="0.0898438"/><stop stop-opacity="1" stop-color="rgb(63.749695%, 20.068359%, 31.758118%)" offset="0.09375"/><stop stop-opacity="1" stop-color="rgb(63.905334%, 20.413208%, 32.052612%)" offset="0.0976563"/><stop stop-opacity="1" stop-color="rgb(64.0625%, 20.758057%, 32.347107%)" offset="0.101562"/><stop stop-opacity="1" stop-color="rgb(64.21814%, 21.101379%, 32.641602%)" offset="0.105469"/><stop stop-opacity="1" stop-color="rgb(64.373779%, 21.446228%, 32.936096%)" offset="0.109375"/><stop stop-opacity="1" stop-color="rgb(64.529419%, 21.791077%, 33.229065%)" offset="0.113281"/><stop stop-opacity="1" stop-color="rgb(64.686584%, 22.135925%, 33.52356%)" offset="0.117188"/><stop stop-opacity="1" stop-color="rgb(64.842224%, 22.479248%, 33.818054%)" offset="0.121094"/><stop stop-opacity="1" stop-color="rgb(64.99939%, 22.824097%, 34.112549%)" offset="0.125"/><stop stop-opacity="1" stop-color="rgb(65.155029%, 23.168945%, 34.405518%)" offset="0.128906"/><stop stop-opacity="1" stop-color="rgb(65.312195%, 23.513794%, 34.700012%)" offset="0.132812"/><stop stop-opacity="1" stop-color="rgb(65.467834%, 23.857117%, 34.994507%)" offset="0.136719"/><stop stop-opacity="1" stop-color="rgb(65.625%, 24.201965%, 35.289001%)" offset="0.140625"/><stop stop-opacity="1" stop-color="rgb(65.78064%, 24.546814%, 35.58197%)" offset="0.144531"/><stop stop-opacity="1" stop-color="rgb(65.936279%, 24.891663%, 35.876465%)" offset="0.148438"/><stop stop-opacity="1" stop-color="rgb(66.091919%, 25.236511%, 36.170959%)" offset="0.152344"/><stop stop-opacity="1" stop-color="rgb(66.249084%, 25.58136%, 36.465454%)" offset="0.15625"/><stop stop-opacity="1" stop-color="rgb(66.404724%, 25.924683%, 36.758423%)" offset="0.160156"/><stop stop-opacity="1" stop-color="rgb(66.56189%, 26.269531%, 37.052917%)" offset="0.164062"/><stop stop-opacity="1" stop-color="rgb(66.717529%, 26.61438%, 37.347412%)" offset="0.167969"/><stop stop-opacity="1" stop-color="rgb(66.874695%, 26.959229%, 37.641907%)" offset="0.171875"/><stop stop-opacity="1" stop-color="rgb(67.030334%, 27.302551%, 37.934875%)" offset="0.175781"/><stop stop-opacity="1" stop-color="rgb(67.1875%, 27.6474%, 38.22937%)" offset="0.179687"/><stop stop-opacity="1" stop-color="rgb(67.34314%, 27.992249%, 38.523865%)" offset="0.183594"/><stop stop-opacity="1" stop-color="rgb(67.498779%, 28.337097%, 38.818359%)" offset="0.1875"/><stop stop-opacity="1" stop-color="rgb(67.654419%, 28.681946%, 39.111328%)" offset="0.191406"/><stop stop-opacity="1" stop-color="rgb(67.811584%, 29.026794%, 39.405823%)" offset="0.195312"/><stop stop-opacity="1" stop-color="rgb(67.967224%, 29.370117%, 39.700317%)" offset="0.199219"/><stop stop-opacity="1" stop-color="rgb(68.12439%, 29.714966%, 39.994812%)" offset="0.203125"/><stop stop-opacity="1" stop-color="rgb(68.280029%, 30.059814%, 40.287781%)" offset="0.207031"/><stop stop-opacity="1" stop-color="rgb(68.437195%, 30.404663%, 40.582275%)" offset="0.210937"/><stop stop-opacity="1" stop-color="rgb(68.592834%, 30.747986%, 40.87677%)" offset="0.214844"/><stop stop-opacity="1" stop-color="rgb(68.75%, 31.092834%, 41.171265%)" offset="0.21875"/><stop stop-opacity="1" stop-color="rgb(68.90564%, 31.437683%, 41.465759%)" offset="0.222656"/><stop stop-opacity="1" stop-color="rgb(69.061279%, 31.782532%, 41.760254%)" offset="0.226562"/><stop stop-opacity="1" stop-color="rgb(69.216919%, 32.125854%, 42.053223%)" offset="0.230469"/><stop stop-opacity="1" stop-color="rgb(69.374084%, 32.470703%, 42.347717%)" offset="0.234375"/><stop stop-opacity="1" stop-color="rgb(69.529724%, 32.815552%, 42.642212%)" offset="0.238281"/><stop stop-opacity="1" stop-color="rgb(69.68689%, 33.1604%, 42.936707%)" offset="0.242188"/><stop stop-opacity="1" stop-color="rgb(69.842529%, 33.505249%, 43.229675%)" offset="0.246094"/><stop stop-opacity="1" stop-color="rgb(69.999695%, 33.850098%, 43.52417%)" offset="0.25"/><stop stop-opacity="1" stop-color="rgb(70.155334%, 34.19342%, 43.818665%)" offset="0.253906"/><stop stop-opacity="1" stop-color="rgb(70.3125%, 34.538269%, 44.113159%)" offset="0.257812"/><stop stop-opacity="1" stop-color="rgb(70.46814%, 34.883118%, 44.406128%)" offset="0.261719"/><stop stop-opacity="1" stop-color="rgb(70.623779%, 35.227966%, 44.700623%)" offset="0.265625"/><stop stop-opacity="1" stop-color="rgb(70.779419%, 35.571289%, 44.995117%)" offset="0.269531"/><stop stop-opacity="1" stop-color="rgb(70.936584%, 35.916138%, 45.289612%)" offset="0.273438"/><stop stop-opacity="1" stop-color="rgb(71.092224%, 36.260986%, 45.582581%)" offset="0.277344"/><stop stop-opacity="1" stop-color="rgb(71.24939%, 36.605835%, 45.877075%)" offset="0.28125"/><stop stop-opacity="1" stop-color="rgb(71.405029%, 36.949158%, 46.17157%)" offset="0.285156"/><stop stop-opacity="1" stop-color="rgb(71.562195%, 37.294006%, 46.466064%)" offset="0.289062"/><stop stop-opacity="1" stop-color="rgb(71.717834%, 37.638855%, 46.759033%)" offset="0.292969"/><stop stop-opacity="1" stop-color="rgb(71.875%, 37.983704%, 47.053528%)" offset="0.296875"/><stop stop-opacity="1" stop-color="rgb(72.03064%, 38.328552%, 47.348022%)" offset="0.300781"/><stop stop-opacity="1" stop-color="rgb(72.186279%, 38.673401%, 47.642517%)" offset="0.304687"/><stop stop-opacity="1" stop-color="rgb(72.341919%, 39.016724%, 47.935486%)" offset="0.308594"/><stop stop-opacity="1" stop-color="rgb(72.499084%, 39.361572%, 48.22998%)" offset="0.3125"/><stop stop-opacity="1" stop-color="rgb(72.654724%, 39.706421%, 48.524475%)" offset="0.316406"/><stop stop-opacity="1" stop-color="rgb(72.81189%, 40.05127%, 48.81897%)" offset="0.320312"/><stop stop-opacity="1" stop-color="rgb(72.967529%, 40.394592%, 49.113464%)" offset="0.324219"/><stop stop-opacity="1" stop-color="rgb(73.124695%, 40.739441%, 49.407959%)" offset="0.328125"/><stop stop-opacity="1" stop-color="rgb(73.280334%, 41.08429%, 49.700928%)" offset="0.332031"/><stop stop-opacity="1" stop-color="rgb(73.4375%, 41.429138%, 49.995422%)" offset="0.335937"/><stop stop-opacity="1" stop-color="rgb(73.59314%, 41.773987%, 50.289917%)" offset="0.339844"/><stop stop-opacity="1" stop-color="rgb(73.748779%, 42.118835%, 50.584412%)" offset="0.34375"/><stop stop-opacity="1" stop-color="rgb(73.904419%, 42.462158%, 50.87738%)" offset="0.347656"/><stop stop-opacity="1" stop-color="rgb(74.061584%, 42.807007%, 51.171875%)" offset="0.351562"/><stop stop-opacity="1" stop-color="rgb(74.217224%, 43.151855%, 51.46637%)" offset="0.355469"/><stop stop-opacity="1" stop-color="rgb(74.37439%, 43.496704%, 51.760864%)" offset="0.359375"/><stop stop-opacity="1" stop-color="rgb(74.530029%, 43.840027%, 52.053833%)" offset="0.363281"/><stop stop-opacity="1" stop-color="rgb(74.687195%, 44.184875%, 52.348328%)" offset="0.367188"/><stop stop-opacity="1" stop-color="rgb(74.842834%, 44.529724%, 52.642822%)" offset="0.371094"/><stop stop-opacity="1" stop-color="rgb(75%, 44.874573%, 52.937317%)" offset="0.375"/><stop stop-opacity="1" stop-color="rgb(75.15564%, 45.217896%, 53.230286%)" offset="0.378906"/><stop stop-opacity="1" stop-color="rgb(75.311279%, 45.562744%, 53.52478%)" offset="0.382812"/><stop stop-opacity="1" stop-color="rgb(75.466919%, 45.907593%, 53.819275%)" offset="0.386719"/><stop stop-opacity="1" stop-color="rgb(75.624084%, 46.252441%, 54.11377%)" offset="0.390625"/><stop stop-opacity="1" stop-color="rgb(75.779724%, 46.59729%, 54.406738%)" offset="0.394531"/><stop stop-opacity="1" stop-color="rgb(75.93689%, 46.942139%, 54.701233%)" offset="0.398437"/><stop stop-opacity="1" stop-color="rgb(76.092529%, 47.285461%, 54.995728%)" offset="0.402344"/><stop stop-opacity="1" stop-color="rgb(76.249695%, 47.63031%, 55.290222%)" offset="0.40625"/><stop stop-opacity="1" stop-color="rgb(76.405334%, 47.975159%, 55.583191%)" offset="0.410156"/><stop stop-opacity="1" stop-color="rgb(76.5625%, 48.320007%, 55.877686%)" offset="0.414062"/><stop stop-opacity="1" stop-color="rgb(76.71814%, 48.66333%, 56.17218%)" offset="0.417969"/><stop stop-opacity="1" stop-color="rgb(76.873779%, 49.008179%, 56.466675%)" offset="0.421875"/><stop stop-opacity="1" stop-color="rgb(77.029419%, 49.353027%, 56.759644%)" offset="0.425781"/><stop stop-opacity="1" stop-color="rgb(77.186584%, 49.697876%, 57.054138%)" offset="0.429687"/><stop stop-opacity="1" stop-color="rgb(77.342224%, 50.042725%, 57.348633%)" offset="0.433594"/><stop stop-opacity="1" stop-color="rgb(77.49939%, 50.387573%, 57.643127%)" offset="0.4375"/><stop stop-opacity="1" stop-color="rgb(77.655029%, 50.730896%, 57.937622%)" offset="0.441406"/><stop stop-opacity="1" stop-color="rgb(77.812195%, 51.075745%, 58.232117%)" offset="0.445312"/><stop stop-opacity="1" stop-color="rgb(77.967834%, 51.420593%, 58.525085%)" offset="0.449219"/><stop stop-opacity="1" stop-color="rgb(78.125%, 51.765442%, 58.81958%)" offset="0.453125"/><stop stop-opacity="1" stop-color="rgb(78.28064%, 52.108765%, 59.114075%)" offset="0.457031"/><stop stop-opacity="1" stop-color="rgb(78.436279%, 52.453613%, 59.408569%)" offset="0.460938"/><stop stop-opacity="1" stop-color="rgb(78.591919%, 52.798462%, 59.701538%)" offset="0.464844"/><stop stop-opacity="1" stop-color="rgb(78.749084%, 53.143311%, 59.996033%)" offset="0.46875"/><stop stop-opacity="1" stop-color="rgb(78.904724%, 53.486633%, 60.290527%)" offset="0.472656"/><stop stop-opacity="1" stop-color="rgb(79.06189%, 53.831482%, 60.585022%)" offset="0.476562"/><stop stop-opacity="1" stop-color="rgb(79.217529%, 54.176331%, 60.877991%)" offset="0.480469"/><stop stop-opacity="1" stop-color="rgb(79.374695%, 54.521179%, 61.172485%)" offset="0.484375"/><stop stop-opacity="1" stop-color="rgb(79.530334%, 54.866028%, 61.46698%)" offset="0.488281"/><stop stop-opacity="1" stop-color="rgb(79.6875%, 55.210876%, 61.761475%)" offset="0.492187"/><stop stop-opacity="1" stop-color="rgb(79.84314%, 55.554199%, 62.054443%)" offset="0.496094"/><stop stop-opacity="1" stop-color="rgb(79.998779%, 55.899048%, 62.348938%)" offset="0.5"/><stop stop-opacity="1" stop-color="rgb(80.154419%, 56.243896%, 62.643433%)" offset="0.503906"/><stop stop-opacity="1" stop-color="rgb(80.311584%, 56.588745%, 62.937927%)" offset="0.507812"/><stop stop-opacity="1" stop-color="rgb(80.467224%, 56.932068%, 63.230896%)" offset="0.511719"/><stop stop-opacity="1" stop-color="rgb(80.62439%, 57.276917%, 63.525391%)" offset="0.515625"/><stop stop-opacity="1" stop-color="rgb(80.780029%, 57.621765%, 63.819885%)" offset="0.519531"/><stop stop-opacity="1" stop-color="rgb(80.937195%, 57.966614%, 64.11438%)" offset="0.523438"/><stop stop-opacity="1" stop-color="rgb(81.092834%, 58.311462%, 64.407349%)" offset="0.527344"/><stop stop-opacity="1" stop-color="rgb(81.25%, 58.656311%, 64.701843%)" offset="0.53125"/><stop stop-opacity="1" stop-color="rgb(81.40564%, 58.999634%, 64.996338%)" offset="0.535156"/><stop stop-opacity="1" stop-color="rgb(81.561279%, 59.344482%, 65.290833%)" offset="0.539062"/><stop stop-opacity="1" stop-color="rgb(81.716919%, 59.689331%, 65.583801%)" offset="0.542969"/><stop stop-opacity="1" stop-color="rgb(81.874084%, 60.03418%, 65.878296%)" offset="0.546875"/><stop stop-opacity="1" stop-color="rgb(82.029724%, 60.377502%, 66.172791%)" offset="0.550781"/><stop stop-opacity="1" stop-color="rgb(82.18689%, 60.722351%, 66.467285%)" offset="0.554688"/><stop stop-opacity="1" stop-color="rgb(82.342529%, 61.0672%, 66.76178%)" offset="0.558594"/><stop stop-opacity="1" stop-color="rgb(82.499695%, 61.412048%, 67.056274%)" offset="0.5625"/><stop stop-opacity="1" stop-color="rgb(82.655334%, 61.755371%, 67.349243%)" offset="0.566406"/><stop stop-opacity="1" stop-color="rgb(82.8125%, 62.10022%, 67.643738%)" offset="0.570313"/><stop stop-opacity="1" stop-color="rgb(82.96814%, 62.445068%, 67.938232%)" offset="0.574219"/><stop stop-opacity="1" stop-color="rgb(83.123779%, 62.789917%, 68.232727%)" offset="0.578125"/><stop stop-opacity="1" stop-color="rgb(83.279419%, 63.134766%, 68.525696%)" offset="0.582031"/><stop stop-opacity="1" stop-color="rgb(83.436584%, 63.479614%, 68.82019%)" offset="0.585937"/><stop stop-opacity="1" stop-color="rgb(83.592224%, 63.822937%, 69.114685%)" offset="0.589844"/><stop stop-opacity="1" stop-color="rgb(83.74939%, 64.167786%, 69.40918%)" offset="0.59375"/><stop stop-opacity="1" stop-color="rgb(83.905029%, 64.512634%, 69.702148%)" offset="0.597656"/><stop stop-opacity="1" stop-color="rgb(84.062195%, 64.857483%, 69.996643%)" offset="0.601562"/><stop stop-opacity="1" stop-color="rgb(84.217834%, 65.200806%, 70.291138%)" offset="0.605469"/><stop stop-opacity="1" stop-color="rgb(84.375%, 65.545654%, 70.585632%)" offset="0.609375"/><stop stop-opacity="1" stop-color="rgb(84.53064%, 65.890503%, 70.878601%)" offset="0.613281"/><stop stop-opacity="1" stop-color="rgb(84.686279%, 66.235352%, 71.173096%)" offset="0.617188"/><stop stop-opacity="1" stop-color="rgb(84.841919%, 66.5802%, 71.46759%)" offset="0.621094"/><stop stop-opacity="1" stop-color="rgb(84.999084%, 66.925049%, 71.762085%)" offset="0.625"/><stop stop-opacity="1" stop-color="rgb(85.154724%, 67.268372%, 72.055054%)" offset="0.628906"/><stop stop-opacity="1" stop-color="rgb(85.31189%, 67.61322%, 72.349548%)" offset="0.632812"/><stop stop-opacity="1" stop-color="rgb(85.467529%, 67.958069%, 72.644043%)" offset="0.636719"/><stop stop-opacity="1" stop-color="rgb(85.624695%, 68.302917%, 72.938538%)" offset="0.640625"/><stop stop-opacity="1" stop-color="rgb(85.780334%, 68.64624%, 73.231506%)" offset="0.644531"/><stop stop-opacity="1" stop-color="rgb(85.9375%, 68.991089%, 73.526001%)" offset="0.648438"/><stop stop-opacity="1" stop-color="rgb(86.09314%, 69.335938%, 73.820496%)" offset="0.652344"/><stop stop-opacity="1" stop-color="rgb(86.248779%, 69.680786%, 74.11499%)" offset="0.65625"/><stop stop-opacity="1" stop-color="rgb(86.404419%, 70.024109%, 74.409485%)" offset="0.660156"/><stop stop-opacity="1" stop-color="rgb(86.561584%, 70.368958%, 74.703979%)" offset="0.664063"/><stop stop-opacity="1" stop-color="rgb(86.717224%, 70.713806%, 74.996948%)" offset="0.667969"/><stop stop-opacity="1" stop-color="rgb(86.87439%, 71.058655%, 75.291443%)" offset="0.671875"/><stop stop-opacity="1" stop-color="rgb(87.030029%, 71.403503%, 75.585938%)" offset="0.675781"/><stop stop-opacity="1" stop-color="rgb(87.187195%, 71.748352%, 75.880432%)" offset="0.679687"/><stop stop-opacity="1" stop-color="rgb(87.342834%, 72.091675%, 76.173401%)" offset="0.683594"/><stop stop-opacity="1" stop-color="rgb(87.5%, 72.436523%, 76.467896%)" offset="0.6875"/><stop stop-opacity="1" stop-color="rgb(87.65564%, 72.781372%, 76.76239%)" offset="0.691406"/><stop stop-opacity="1" stop-color="rgb(87.811279%, 73.126221%, 77.056885%)" offset="0.695312"/><stop stop-opacity="1" stop-color="rgb(87.966919%, 73.469543%, 77.349854%)" offset="0.699219"/><stop stop-opacity="1" stop-color="rgb(88.124084%, 73.814392%, 77.644348%)" offset="0.703125"/><stop stop-opacity="1" stop-color="rgb(88.279724%, 74.159241%, 77.938843%)" offset="0.707031"/><stop stop-opacity="1" stop-color="rgb(88.43689%, 74.504089%, 78.233337%)" offset="0.710938"/><stop stop-opacity="1" stop-color="rgb(88.592529%, 74.848938%, 78.526306%)" offset="0.714844"/><stop stop-opacity="1" stop-color="rgb(88.749695%, 75.193787%, 78.820801%)" offset="0.71875"/><stop stop-opacity="1" stop-color="rgb(88.905334%, 75.537109%, 79.115295%)" offset="0.722656"/><stop stop-opacity="1" stop-color="rgb(89.0625%, 75.881958%, 79.40979%)" offset="0.726562"/><stop stop-opacity="1" stop-color="rgb(89.21814%, 76.226807%, 79.702759%)" offset="0.730469"/><stop stop-opacity="1" stop-color="rgb(89.373779%, 76.571655%, 79.997253%)" offset="0.734375"/><stop stop-opacity="1" stop-color="rgb(89.529419%, 76.914978%, 80.291748%)" offset="0.738281"/><stop stop-opacity="1" stop-color="rgb(89.686584%, 77.259827%, 80.586243%)" offset="0.742188"/><stop stop-opacity="1" stop-color="rgb(89.842224%, 77.604675%, 80.879211%)" offset="0.746094"/><stop stop-opacity="1" stop-color="rgb(89.99939%, 77.949524%, 81.173706%)" offset="0.75"/><stop stop-opacity="1" stop-color="rgb(90.155029%, 78.292847%, 81.468201%)" offset="0.753906"/><stop stop-opacity="1" stop-color="rgb(90.312195%, 78.637695%, 81.762695%)" offset="0.757813"/><stop stop-opacity="1" stop-color="rgb(90.467834%, 78.982544%, 82.055664%)" offset="0.761719"/><stop stop-opacity="1" stop-color="rgb(90.625%, 79.327393%, 82.350159%)" offset="0.765625"/><stop stop-opacity="1" stop-color="rgb(90.78064%, 79.672241%, 82.644653%)" offset="0.769531"/><stop stop-opacity="1" stop-color="rgb(90.936279%, 80.01709%, 82.939148%)" offset="0.773437"/><stop stop-opacity="1" stop-color="rgb(91.091919%, 80.360413%, 83.233643%)" offset="0.777344"/><stop stop-opacity="1" stop-color="rgb(91.249084%, 80.705261%, 83.528137%)" offset="0.78125"/><stop stop-opacity="1" stop-color="rgb(91.404724%, 81.05011%, 83.821106%)" offset="0.785156"/><stop stop-opacity="1" stop-color="rgb(91.56189%, 81.394958%, 84.115601%)" offset="0.789062"/><stop stop-opacity="1" stop-color="rgb(91.717529%, 81.738281%, 84.410095%)" offset="0.792969"/><stop stop-opacity="1" stop-color="rgb(91.874695%, 82.08313%, 84.70459%)" offset="0.796875"/><stop stop-opacity="1" stop-color="rgb(92.030334%, 82.427979%, 84.997559%)" offset="0.800781"/><stop stop-opacity="1" stop-color="rgb(92.1875%, 82.772827%, 85.292053%)" offset="0.804688"/><stop stop-opacity="1" stop-color="rgb(92.34314%, 83.117676%, 85.586548%)" offset="0.808594"/><stop stop-opacity="1" stop-color="rgb(92.498779%, 83.462524%, 85.881042%)" offset="0.8125"/><stop stop-opacity="1" stop-color="rgb(92.654419%, 83.805847%, 86.174011%)" offset="0.816406"/><stop stop-opacity="1" stop-color="rgb(92.811584%, 84.150696%, 86.468506%)" offset="0.820312"/><stop stop-opacity="1" stop-color="rgb(92.967224%, 84.495544%, 86.763%)" offset="0.824219"/><stop stop-opacity="1" stop-color="rgb(93.12439%, 84.840393%, 87.057495%)" offset="0.828125"/><stop stop-opacity="1" stop-color="rgb(93.280029%, 85.183716%, 87.350464%)" offset="0.832031"/><stop stop-opacity="1" stop-color="rgb(93.437195%, 85.528564%, 87.644958%)" offset="0.835938"/><stop stop-opacity="1" stop-color="rgb(93.592834%, 85.873413%, 87.939453%)" offset="0.839844"/><stop stop-opacity="1" stop-color="rgb(93.75%, 86.218262%, 88.233948%)" offset="0.84375"/><stop stop-opacity="1" stop-color="rgb(93.90564%, 86.561584%, 88.526917%)" offset="0.847656"/><stop stop-opacity="1" stop-color="rgb(94.061279%, 86.906433%, 88.821411%)" offset="0.851563"/><stop stop-opacity="1" stop-color="rgb(94.216919%, 87.251282%, 89.115906%)" offset="0.855469"/><stop stop-opacity="1" stop-color="rgb(94.374084%, 87.59613%, 89.4104%)" offset="0.859375"/><stop stop-opacity="1" stop-color="rgb(94.529724%, 87.940979%, 89.703369%)" offset="0.863281"/><stop stop-opacity="1" stop-color="rgb(94.68689%, 88.285828%, 89.997864%)" offset="0.867187"/><stop stop-opacity="1" stop-color="rgb(94.842529%, 88.62915%, 90.292358%)" offset="0.871094"/><stop stop-opacity="1" stop-color="rgb(94.999695%, 88.973999%, 90.586853%)" offset="0.875"/><stop stop-opacity="1" stop-color="rgb(95.155334%, 89.318848%, 90.879822%)" offset="0.878906"/><stop stop-opacity="1" stop-color="rgb(95.3125%, 89.663696%, 91.174316%)" offset="0.882812"/><stop stop-opacity="1" stop-color="rgb(95.46814%, 90.007019%, 91.468811%)" offset="0.886719"/><stop stop-opacity="1" stop-color="rgb(95.623779%, 90.351868%, 91.763306%)" offset="0.890625"/><stop stop-opacity="1" stop-color="rgb(95.779419%, 90.696716%, 92.0578%)" offset="0.894531"/><stop stop-opacity="1" stop-color="rgb(95.936584%, 91.041565%, 92.352295%)" offset="0.898438"/><stop stop-opacity="1" stop-color="rgb(96.092224%, 91.386414%, 92.645264%)" offset="0.902344"/><stop stop-opacity="1" stop-color="rgb(96.24939%, 91.731262%, 92.939758%)" offset="0.90625"/><stop stop-opacity="1" stop-color="rgb(96.405029%, 92.074585%, 93.234253%)" offset="0.910156"/><stop stop-opacity="1" stop-color="rgb(96.562195%, 92.419434%, 93.528748%)" offset="0.914062"/><stop stop-opacity="1" stop-color="rgb(96.717834%, 92.764282%, 93.821716%)" offset="0.917969"/><stop stop-opacity="1" stop-color="rgb(96.875%, 93.109131%, 94.116211%)" offset="0.921875"/><stop stop-opacity="1" stop-color="rgb(97.03064%, 93.452454%, 94.410706%)" offset="0.925781"/><stop stop-opacity="1" stop-color="rgb(97.186279%, 93.797302%, 94.7052%)" offset="0.929688"/><stop stop-opacity="1" stop-color="rgb(97.341919%, 94.142151%, 94.998169%)" offset="0.933594"/><stop stop-opacity="1" stop-color="rgb(97.499084%, 94.487%, 95.292664%)" offset="0.9375"/><stop stop-opacity="1" stop-color="rgb(97.654724%, 94.830322%, 95.587158%)" offset="0.941406"/><stop stop-opacity="1" stop-color="rgb(97.81189%, 95.175171%, 95.881653%)" offset="0.945313"/><stop stop-opacity="1" stop-color="rgb(97.967529%, 95.52002%, 96.174622%)" offset="0.949219"/><stop stop-opacity="1" stop-color="rgb(98.124695%, 95.864868%, 96.469116%)" offset="0.953125"/><stop stop-opacity="1" stop-color="rgb(98.280334%, 96.209717%, 96.763611%)" offset="0.957031"/><stop stop-opacity="1" stop-color="rgb(98.4375%, 96.554565%, 97.058105%)" offset="0.960937"/><stop stop-opacity="1" stop-color="rgb(98.59314%, 96.897888%, 97.351074%)" offset="0.964844"/><stop stop-opacity="1" stop-color="rgb(98.748779%, 97.242737%, 97.645569%)" offset="0.96875"/><stop stop-opacity="1" stop-color="rgb(98.904419%, 97.587585%, 97.940063%)" offset="0.972656"/><stop stop-opacity="1" stop-color="rgb(99.061584%, 97.932434%, 98.234558%)" offset="0.976562"/><stop stop-opacity="1" stop-color="rgb(99.217224%, 98.275757%, 98.527527%)" offset="0.980469"/><stop stop-opacity="1" stop-color="rgb(99.37439%, 98.620605%, 98.822021%)" offset="0.984375"/><stop stop-opacity="1" stop-color="rgb(99.530029%, 98.965454%, 99.116516%)" offset="0.988281"/><stop stop-opacity="1" stop-color="rgb(99.687195%, 99.310303%, 99.411011%)" offset="0.992188"/><stop stop-opacity="1" stop-color="rgb(99.842834%, 99.653625%, 99.703979%)" offset="0.996094"/><stop stop-opacity="1" stop-color="rgb(99.998474%, 99.998474%, 99.998474%)" offset="1"/></linearGradient><clipPath id="a4ac59948c"><path d="M 11.082031 22.628906 L 342.523438 22.628906 L 342.523438 125.976562 L 11.082031 125.976562 Z M 11.082031 22.628906 " clip-rule="nonzero"/></clipPath><clipPath id="d6a689a9dd"><path d="M 18.574219 22.628906 L 335.027344 22.628906 C 337.015625 22.628906 338.921875 23.417969 340.324219 24.824219 C 341.730469 26.230469 342.519531 28.132812 342.519531 30.121094 L 342.519531 118.484375 C 342.519531 120.472656 341.730469 122.378906 340.324219 123.78125 C 338.921875 125.1875 337.015625 125.976562 335.027344 125.976562 L 18.574219 125.976562 C 16.585938 125.976562 14.679688 125.1875 13.277344 123.78125 C 11.871094 122.378906 11.082031 120.472656 11.082031 118.484375 L 11.082031 30.121094 C 11.082031 28.132812 11.871094 26.230469 13.277344 24.824219 C 14.679688 23.417969 16.585938 22.628906 18.574219 22.628906 Z M 18.574219 22.628906 " clip-rule="nonzero"/></clipPath><clipPath id="a9aeab6e7e"><path d="M 433 0.0273438 L 476 0.0273438 L 476 95 L 433 95 Z M 433 0.0273438 " clip-rule="nonzero"/></clipPath><clipPath id="554c704d46"><path d="M 483 0.0273438 L 499 0.0273438 L 499 16 L 483 16 Z M 483 0.0273438 " clip-rule="nonzero"/></clipPath></defs><path stroke-linecap="butt" transform="matrix(-0.749242, -0.00354722, 0.00354722, -0.749242, 453.911839, 72.615156)" fill="none" stroke-linejoin="miter" d="M -0.00155986 2.499827 L 184.393228 2.497499 " stroke="#000000" stroke-width="5" stroke-opacity="1" stroke-miterlimit="4"/><g clip-path="url(#1d7e38261f)"><path fill="url(#51a649f998)" d="M 11.082031 51.988281 L 11.082031 552.6875 L 342.519531 552.6875 L 342.519531 51.988281 Z M 11.082031 51.988281 " fill-rule="nonzero"/></g><g clip-path="url(#a4ac59948c)"><g clip-path="url(#d6a689a9dd)"><path fill="#991e3f" d="M 11.082031 22.628906 L 342.523438 22.628906 L 342.523438 125.976562 L 11.082031 125.976562 Z M 11.082031 22.628906 " fill-opacity="1" fill-rule="nonzero"/></g></g><g fill="#ffffff" fill-opacity="1"><g transform="translate(80.087376, 73.00969)"><g><path d="M 9.453125 -17.484375 L 16.15625 0 L 14 0 L 12.015625 -5.25 L 4.390625 -5.25 L 2.421875 0 L 0.25 0 L 6.984375 -17.484375 Z M 8.21875 -15.84375 C 8.050781 -15.332031 7.890625 -14.863281 7.734375 -14.4375 C 7.585938 -14.007812 7.40625 -13.492188 7.1875 -12.890625 L 4.9375 -6.90625 L 11.484375 -6.90625 L 9.234375 -12.875 C 9.078125 -13.28125 8.738281 -14.269531 8.21875 -15.84375 Z M 8.21875 -15.84375 "/></g></g></g><g fill="#ffffff" fill-opacity="1"><g transform="translate(96.47598, 73.00969)"><g><path d="M 10.5 0 L 10.5 -7.21875 C 10.5 -8.71875 10.257812 -9.765625 9.78125 -10.359375 C 9.300781 -10.953125 8.550781 -11.25 7.53125 -11.25 C 6.445312 -11.25 5.597656 -10.875 4.984375 -10.125 C 4.367188 -9.375 4.0625 -8.328125 4.0625 -6.984375 L 4.0625 0 L 2.078125 0 L 2.078125 -9.8125 C 2.078125 -10.125 2.066406 -10.632812 2.046875 -11.34375 C 2.023438 -12.050781 2.007812 -12.488281 2 -12.65625 L 3.828125 -12.65625 C 3.859375 -12.28125 3.882812 -11.898438 3.90625 -11.515625 C 3.925781 -11.140625 3.941406 -10.753906 3.953125 -10.359375 L 4.015625 -10.359375 C 4.523438 -11.304688 5.09375 -11.96875 5.71875 -12.34375 C 6.34375 -12.71875 7.1875 -12.90625 8.25 -12.90625 C 9.664062 -12.90625 10.722656 -12.5 11.421875 -11.6875 C 12.117188 -10.882812 12.46875 -9.59375 12.46875 -7.8125 L 12.46875 0 Z M 10.5 0 "/></g></g></g><g fill="#ffffff" fill-opacity="1"><g transform="translate(110.854777, 73.00969)"><g><path d="M 10.5 0 L 10.5 -7.21875 C 10.5 -8.71875 10.257812 -9.765625 9.78125 -10.359375 C 9.300781 -10.953125 8.550781 -11.25 7.53125 -11.25 C 6.445312 -11.25 5.597656 -10.875 4.984375 -10.125 C 4.367188 -9.375 4.0625 -8.328125 4.0625 -6.984375 L 4.0625 0 L 2.078125 0 L 2.078125 -9.8125 C 2.078125 -10.125 2.066406 -10.632812 2.046875 -11.34375 C 2.023438 -12.050781 2.007812 -12.488281 2 -12.65625 L 3.828125 -12.65625 C 3.859375 -12.28125 3.882812 -11.898438 3.90625 -11.515625 C 3.925781 -11.140625 3.941406 -10.753906 3.953125 -10.359375 L 4.015625 -10.359375 C 4.523438 -11.304688 5.09375 -11.96875 5.71875 -12.34375 C 6.34375 -12.71875 7.1875 -12.90625 8.25 -12.90625 C 9.664062 -12.90625 10.722656 -12.5 11.421875 -11.6875 C 12.117188 -10.882812 12.46875 -9.59375 12.46875 -7.8125 L 12.46875 0 Z M 10.5 0 "/></g></g></g><g fill="#ffffff" fill-opacity="1"><g transform="translate(125.233575, 73.00969)"><g><path d="M 3.890625 -12.65625 L 3.890625 -5.4375 C 3.890625 -3.9375 4.128906 -2.890625 4.609375 -2.296875 C 5.085938 -1.710938 5.835938 -1.421875 6.859375 -1.421875 C 7.941406 -1.421875 8.796875 -1.796875 9.421875 -2.546875 C 10.046875 -3.296875 10.359375 -4.335938 10.359375 -5.671875 L 10.359375 -12.65625 L 12.34375 -12.65625 L 12.34375 -2.84375 C 12.34375 -2.539062 12.351562 -2.039062 12.375 -1.34375 C 12.394531 -0.65625 12.410156 -0.207031 12.421875 0 L 10.59375 0 C 10.550781 -0.382812 10.519531 -0.765625 10.5 -1.140625 C 10.488281 -1.523438 10.476562 -1.910156 10.46875 -2.296875 L 10.421875 -2.296875 C 9.910156 -1.367188 9.335938 -0.710938 8.703125 -0.328125 C 8.078125 0.0546875 7.21875 0.25 6.125 0.25 C 4.695312 0.25 3.632812 -0.15625 2.9375 -0.96875 C 2.25 -1.789062 1.90625 -3.085938 1.90625 -4.859375 L 1.90625 -12.65625 Z M 3.890625 -12.65625 "/></g></g></g><g fill="#ffffff" fill-opacity="1"><g transform="translate(139.612372, 73.00969)"><g><path d="M 11.015625 0 L 9.109375 0 L 9.03125 -2.109375 C 8.625 -1.285156 8.101562 -0.6875 7.46875 -0.3125 C 6.84375 0.0625 6.113281 0.25 5.28125 0.25 C 3.945312 0.25 2.914062 -0.0820312 2.1875 -0.75 C 1.46875 -1.414062 1.109375 -2.347656 1.109375 -3.546875 C 1.109375 -4.859375 1.613281 -5.875 2.625 -6.59375 C 3.632812 -7.320312 5.148438 -7.71875 7.171875 -7.78125 L 9.03125 -7.84375 L 9.03125 -8.03125 C 9.03125 -9.175781 8.820312 -10 8.40625 -10.5 C 7.988281 -11.007812 7.289062 -11.265625 6.3125 -11.265625 C 5.507812 -11.265625 4.898438 -11.144531 4.484375 -10.90625 C 4.066406 -10.664062 3.785156 -10.253906 3.640625 -9.671875 L 1.765625 -10.046875 C 1.984375 -11.054688 2.453125 -11.785156 3.171875 -12.234375 C 3.890625 -12.679688 4.941406 -12.90625 6.328125 -12.90625 C 8.023438 -12.90625 9.226562 -12.507812 9.9375 -11.71875 C 10.65625 -10.925781 11.015625 -9.609375 11.015625 -7.765625 Z M 5.515625 -1.40625 C 6.597656 -1.40625 7.457031 -1.710938 8.09375 -2.328125 C 8.726562 -2.941406 9.046875 -3.785156 9.046875 -4.859375 L 9.046875 -6.390625 L 7.625 -6.34375 C 5.957031 -6.28125 4.796875 -6.023438 4.140625 -5.578125 C 3.492188 -5.140625 3.171875 -4.476562 3.171875 -3.59375 C 3.171875 -2.832031 3.359375 -2.273438 3.734375 -1.921875 C 4.117188 -1.578125 4.710938 -1.40625 5.515625 -1.40625 Z M 5.515625 -1.40625 "/></g></g></g><g fill="#ffffff" fill-opacity="1"><g transform="translate(152.539643, 73.00969)"><g><path d="M 2.078125 0 L 2.078125 -18.046875 L 4.0625 -18.046875 L 4.0625 0 Z M 2.078125 0 "/></g></g></g><g fill="#ffffff" fill-opacity="1"><g transform="translate(158.693123, 73.00969)"><g/></g></g><g fill="#ffffff" fill-opacity="1"><g transform="translate(165.653007, 73.00969)"><g><path d="M 8.703125 0.25 C 6.421875 0.25 4.625 -0.554688 3.3125 -2.171875 C 2.007812 -3.785156 1.359375 -6.003906 1.359375 -8.828125 C 1.359375 -11.609375 2.003906 -13.789062 3.296875 -15.375 C 4.597656 -16.957031 6.414062 -17.75 8.75 -17.75 C 12 -17.75 14.082031 -16.382812 15 -13.65625 L 13.078125 -12.921875 C 12.753906 -14.003906 12.226562 -14.789062 11.5 -15.28125 C 10.78125 -15.78125 9.863281 -16.03125 8.75 -16.03125 C 7.09375 -16.03125 5.800781 -15.394531 4.875 -14.125 C 3.945312 -12.863281 3.484375 -11.097656 3.484375 -8.828125 C 3.484375 -6.585938 3.953125 -4.800781 4.890625 -3.46875 C 5.828125 -2.132812 7.113281 -1.46875 8.75 -1.46875 C 9.882812 -1.46875 10.84375 -1.757812 11.625 -2.34375 C 12.40625 -2.9375 12.960938 -3.789062 13.296875 -4.90625 L 15.109375 -4.078125 C 14.035156 -1.191406 11.898438 0.25 8.703125 0.25 Z M 8.703125 0.25 "/></g></g></g><g fill="#ffffff" fill-opacity="1"><g transform="translate(181.384081, 73.00969)"><g><path d="M 11.015625 0 L 9.109375 0 L 9.03125 -2.109375 C 8.625 -1.285156 8.101562 -0.6875 7.46875 -0.3125 C 6.84375 0.0625 6.113281 0.25 5.28125 0.25 C 3.945312 0.25 2.914062 -0.0820312 2.1875 -0.75 C 1.46875 -1.414062 1.109375 -2.347656 1.109375 -3.546875 C 1.109375 -4.859375 1.613281 -5.875 2.625 -6.59375 C 3.632812 -7.320312 5.148438 -7.71875 7.171875 -7.78125 L 9.03125 -7.84375 L 9.03125 -8.03125 C 9.03125 -9.175781 8.820312 -10 8.40625 -10.5 C 7.988281 -11.007812 7.289062 -11.265625 6.3125 -11.265625 C 5.507812 -11.265625 4.898438 -11.144531 4.484375 -10.90625 C 4.066406 -10.664062 3.785156 -10.253906 3.640625 -9.671875 L 1.765625 -10.046875 C 1.984375 -11.054688 2.453125 -11.785156 3.171875 -12.234375 C 3.890625 -12.679688 4.941406 -12.90625 6.328125 -12.90625 C 8.023438 -12.90625 9.226562 -12.507812 9.9375 -11.71875 C 10.65625 -10.925781 11.015625 -9.609375 11.015625 -7.765625 Z M 5.515625 -1.40625 C 6.597656 -1.40625 7.457031 -1.710938 8.09375 -2.328125 C 8.726562 -2.941406 9.046875 -3.785156 9.046875 -4.859375 L 9.046875 -6.390625 L 7.625 -6.34375 C 5.957031 -6.28125 4.796875 -6.023438 4.140625 -5.578125 C 3.492188 -5.140625 3.171875 -4.476562 3.171875 -3.59375 C 3.171875 -2.832031 3.359375 -2.273438 3.734375 -1.921875 C 4.117188 -1.578125 4.710938 -1.40625 5.515625 -1.40625 Z M 5.515625 -1.40625 "/></g></g></g><g fill="#ffffff" fill-opacity="1"><g transform="translate(194.311352, 73.00969)"><g><path d="M 10.5 0 L 10.5 -7.21875 C 10.5 -8.71875 10.257812 -9.765625 9.78125 -10.359375 C 9.300781 -10.953125 8.550781 -11.25 7.53125 -11.25 C 6.445312 -11.25 5.597656 -10.875 4.984375 -10.125 C 4.367188 -9.375 4.0625 -8.328125 4.0625 -6.984375 L 4.0625 0 L 2.078125 0 L 2.078125 -9.8125 C 2.078125 -10.125 2.066406 -10.632812 2.046875 -11.34375 C 2.023438 -12.050781 2.007812 -12.488281 2 -12.65625 L 3.828125 -12.65625 C 3.859375 -12.28125 3.882812 -11.898438 3.90625 -11.515625 C 3.925781 -11.140625 3.941406 -10.753906 3.953125 -10.359375 L 4.015625 -10.359375 C 4.523438 -11.304688 5.09375 -11.96875 5.71875 -12.34375 C 6.34375 -12.71875 7.1875 -12.90625 8.25 -12.90625 C 9.664062 -12.90625 10.722656 -12.5 11.421875 -11.6875 C 12.117188 -10.882812 12.46875 -9.59375 12.46875 -7.8125 L 12.46875 0 Z M 10.5 0 "/></g></g></g><g fill="#ffffff" fill-opacity="1"><g transform="translate(208.69015, 73.00969)"><g><path d="M 11.015625 0 L 9.109375 0 L 9.03125 -2.109375 C 8.625 -1.285156 8.101562 -0.6875 7.46875 -0.3125 C 6.84375 0.0625 6.113281 0.25 5.28125 0.25 C 3.945312 0.25 2.914062 -0.0820312 2.1875 -0.75 C 1.46875 -1.414062 1.109375 -2.347656 1.109375 -3.546875 C 1.109375 -4.859375 1.613281 -5.875 2.625 -6.59375 C 3.632812 -7.320312 5.148438 -7.71875 7.171875 -7.78125 L 9.03125 -7.84375 L 9.03125 -8.03125 C 9.03125 -9.175781 8.820312 -10 8.40625 -10.5 C 7.988281 -11.007812 7.289062 -11.265625 6.3125 -11.265625 C 5.507812 -11.265625 4.898438 -11.144531 4.484375 -10.90625 C 4.066406 -10.664062 3.785156 -10.253906 3.640625 -9.671875 L 1.765625 -10.046875 C 1.984375 -11.054688 2.453125 -11.785156 3.171875 -12.234375 C 3.890625 -12.679688 4.941406 -12.90625 6.328125 -12.90625 C 8.023438 -12.90625 9.226562 -12.507812 9.9375 -11.71875 C 10.65625 -10.925781 11.015625 -9.609375 11.015625 -7.765625 Z M 5.515625 -1.40625 C 6.597656 -1.40625 7.457031 -1.710938 8.09375 -2.328125 C 8.726562 -2.941406 9.046875 -3.785156 9.046875 -4.859375 L 9.046875 -6.390625 L 7.625 -6.34375 C 5.957031 -6.28125 4.796875 -6.023438 4.140625 -5.578125 C 3.492188 -5.140625 3.171875 -4.476562 3.171875 -3.59375 C 3.171875 -2.832031 3.359375 -2.273438 3.734375 -1.921875 C 4.117188 -1.578125 4.710938 -1.40625 5.515625 -1.40625 Z M 5.515625 -1.40625 "/></g></g></g><g fill="#ffffff" fill-opacity="1"><g transform="translate(221.617421, 73.00969)"><g><path d="M 1.21875 -6.34375 C 1.21875 -8.332031 1.710938 -9.925781 2.703125 -11.125 C 3.703125 -12.332031 5.066406 -12.9375 6.796875 -12.9375 C 7.785156 -12.9375 8.609375 -12.765625 9.265625 -12.421875 C 9.921875 -12.078125 10.46875 -11.523438 10.90625 -10.765625 L 10.953125 -10.765625 C 10.941406 -11.015625 10.929688 -11.3125 10.921875 -11.65625 C 10.910156 -12 10.90625 -12.289062 10.90625 -12.53125 L 10.90625 -18.046875 L 12.890625 -18.046875 L 12.890625 -2.734375 C 12.890625 -1.609375 12.914062 -0.695312 12.96875 0 L 11.078125 0 C 11.054688 -0.132812 11.03125 -0.460938 11 -0.984375 C 10.96875 -1.503906 10.953125 -1.90625 10.953125 -2.1875 L 10.90625 -2.1875 C 10.425781 -1.34375 9.847656 -0.726562 9.171875 -0.34375 C 8.492188 0.03125 7.710938 0.21875 6.828125 0.21875 C 5.035156 0.21875 3.648438 -0.347656 2.671875 -1.484375 C 1.703125 -2.617188 1.21875 -4.238281 1.21875 -6.34375 Z M 3.25 -6.390625 C 3.25 -4.703125 3.570312 -3.441406 4.21875 -2.609375 C 4.875 -1.773438 5.78125 -1.359375 6.9375 -1.359375 C 8.25 -1.359375 9.242188 -1.773438 9.921875 -2.609375 C 10.609375 -3.441406 10.953125 -4.671875 10.953125 -6.296875 C 10.953125 -7.941406 10.613281 -9.191406 9.9375 -10.046875 C 9.269531 -10.898438 8.285156 -11.328125 6.984375 -11.328125 C 5.734375 -11.328125 4.796875 -10.894531 4.171875 -10.03125 C 3.554688 -9.164062 3.25 -7.953125 3.25 -6.390625 Z M 3.25 -6.390625 "/></g></g></g><g fill="#ffffff" fill-opacity="1"><g transform="translate(236.57931, 73.00969)"><g><path d="M 2.078125 -16 L 2.078125 -18.046875 L 4.0625 -18.046875 L 4.0625 -16 Z M 2.078125 0 L 2.078125 -12.65625 L 4.0625 -12.65625 L 4.0625 0 Z M 2.078125 0 "/></g></g></g><g fill="#ffffff" fill-opacity="1"><g transform="translate(242.73279, 73.00969)"><g><path d="M 11.015625 0 L 9.109375 0 L 9.03125 -2.109375 C 8.625 -1.285156 8.101562 -0.6875 7.46875 -0.3125 C 6.84375 0.0625 6.113281 0.25 5.28125 0.25 C 3.945312 0.25 2.914062 -0.0820312 2.1875 -0.75 C 1.46875 -1.414062 1.109375 -2.347656 1.109375 -3.546875 C 1.109375 -4.859375 1.613281 -5.875 2.625 -6.59375 C 3.632812 -7.320312 5.148438 -7.71875 7.171875 -7.78125 L 9.03125 -7.84375 L 9.03125 -8.03125 C 9.03125 -9.175781 8.820312 -10 8.40625 -10.5 C 7.988281 -11.007812 7.289062 -11.265625 6.3125 -11.265625 C 5.507812 -11.265625 4.898438 -11.144531 4.484375 -10.90625 C 4.066406 -10.664062 3.785156 -10.253906 3.640625 -9.671875 L 1.765625 -10.046875 C 1.984375 -11.054688 2.453125 -11.785156 3.171875 -12.234375 C 3.890625 -12.679688 4.941406 -12.90625 6.328125 -12.90625 C 8.023438 -12.90625 9.226562 -12.507812 9.9375 -11.71875 C 10.65625 -10.925781 11.015625 -9.609375 11.015625 -7.765625 Z M 5.515625 -1.40625 C 6.597656 -1.40625 7.457031 -1.710938 8.09375 -2.328125 C 8.726562 -2.941406 9.046875 -3.785156 9.046875 -4.859375 L 9.046875 -6.390625 L 7.625 -6.34375 C 5.957031 -6.28125 4.796875 -6.023438 4.140625 -5.578125 C 3.492188 -5.140625 3.171875 -4.476562 3.171875 -3.59375 C 3.171875 -2.832031 3.359375 -2.273438 3.734375 -1.921875 C 4.117188 -1.578125 4.710938 -1.40625 5.515625 -1.40625 Z M 5.515625 -1.40625 "/></g></g></g><g fill="#ffffff" fill-opacity="1"><g transform="translate(255.660061, 73.00969)"><g><path d="M 10.5 0 L 10.5 -7.21875 C 10.5 -8.71875 10.257812 -9.765625 9.78125 -10.359375 C 9.300781 -10.953125 8.550781 -11.25 7.53125 -11.25 C 6.445312 -11.25 5.597656 -10.875 4.984375 -10.125 C 4.367188 -9.375 4.0625 -8.328125 4.0625 -6.984375 L 4.0625 0 L 2.078125 0 L 2.078125 -9.8125 C 2.078125 -10.125 2.066406 -10.632812 2.046875 -11.34375 C 2.023438 -12.050781 2.007812 -12.488281 2 -12.65625 L 3.828125 -12.65625 C 3.859375 -12.28125 3.882812 -11.898438 3.90625 -11.515625 C 3.925781 -11.140625 3.941406 -10.753906 3.953125 -10.359375 L 4.015625 -10.359375 C 4.523438 -11.304688 5.09375 -11.96875 5.71875 -12.34375 C 6.34375 -12.71875 7.1875 -12.90625 8.25 -12.90625 C 9.664062 -12.90625 10.722656 -12.5 11.421875 -11.6875 C 12.117188 -10.882812 12.46875 -9.59375 12.46875 -7.8125 L 12.46875 0 Z M 10.5 0 "/></g></g></g><g fill="#ffffff" fill-opacity="1"><g transform="translate(59.908613, 97.647671)"><g><path d="M 13.203125 -12.28125 C 13.203125 -11.226562 12.960938 -10.289062 12.484375 -9.46875 C 12.015625 -8.65625 11.320312 -8.023438 10.40625 -7.578125 C 9.488281 -7.128906 8.429688 -6.90625 7.234375 -6.90625 L 4.4375 -6.90625 L 4.4375 0 L 2.359375 0 L 2.359375 -17.484375 L 7.09375 -17.484375 C 9.050781 -17.484375 10.554688 -17.019531 11.609375 -16.09375 C 12.671875 -15.164062 13.203125 -13.894531 13.203125 -12.28125 Z M 11.09375 -12.25 C 11.09375 -13.40625 10.738281 -14.300781 10.03125 -14.9375 C 9.320312 -15.570312 8.265625 -15.890625 6.859375 -15.890625 L 4.4375 -15.890625 L 4.4375 -8.484375 L 6.953125 -8.484375 C 8.273438 -8.484375 9.296875 -8.8125 10.015625 -9.46875 C 10.734375 -10.132812 11.09375 -11.0625 11.09375 -12.25 Z M 11.09375 -12.25 "/></g></g></g><g fill="#ffffff" fill-opacity="1"><g transform="translate(74.138536, 97.647671)"><g><path d="M 2.078125 -16 L 2.078125 -18.046875 L 4.0625 -18.046875 L 4.0625 -16 Z M 2.078125 0 L 2.078125 -12.65625 L 4.0625 -12.65625 L 4.0625 0 Z M 2.078125 0 "/></g></g></g><g fill="#ffffff" fill-opacity="1"><g transform="translate(80.292016, 97.647671)"><g><path d="M 13.734375 -6.390625 C 13.734375 -4.390625 13.226562 -2.78125 12.21875 -1.5625 C 11.21875 -0.34375 9.859375 0.265625 8.140625 0.265625 C 7.171875 0.265625 6.359375 0.0976562 5.703125 -0.234375 C 5.054688 -0.566406 4.507812 -1.125 4.0625 -1.90625 L 4.015625 -1.90625 C 4.023438 -1.601562 4.035156 -1.300781 4.046875 -1 C 4.054688 -0.695312 4.0625 -0.394531 4.0625 -0.09375 L 4.0625 5.390625 L 2.078125 5.390625 L 2.078125 -9.9375 C 2.078125 -11.0625 2.050781 -11.96875 2 -12.65625 L 3.890625 -12.65625 C 3.921875 -12.519531 3.945312 -12.164062 3.96875 -11.59375 C 4 -11.03125 4.015625 -10.660156 4.015625 -10.484375 L 4.0625 -10.484375 C 4.914062 -12.085938 6.351562 -12.890625 8.375 -12.890625 C 10.113281 -12.890625 11.441406 -12.328125 12.359375 -11.203125 C 13.273438 -10.078125 13.734375 -8.472656 13.734375 -6.390625 Z M 11.6875 -6.34375 C 11.6875 -7.96875 11.375 -9.203125 10.75 -10.046875 C 10.125 -10.890625 9.222656 -11.3125 8.046875 -11.3125 C 6.710938 -11.3125 5.707031 -10.882812 5.03125 -10.03125 C 4.351562 -9.1875 4.015625 -7.96875 4.015625 -6.375 C 4.015625 -4.726562 4.347656 -3.476562 5.015625 -2.625 C 5.679688 -1.769531 6.660156 -1.34375 7.953125 -1.34375 C 9.171875 -1.34375 10.097656 -1.769531 10.734375 -2.625 C 11.367188 -3.488281 11.6875 -4.726562 11.6875 -6.34375 Z M 11.6875 -6.34375 "/></g></g></g><g fill="#ffffff" fill-opacity="1"><g transform="translate(95.229093, 97.647671)"><g><path d="M 2.078125 -16 L 2.078125 -18.046875 L 4.0625 -18.046875 L 4.0625 -16 Z M 2.078125 0 L 2.078125 -12.65625 L 4.0625 -12.65625 L 4.0625 0 Z M 2.078125 0 "/></g></g></g><g fill="#ffffff" fill-opacity="1"><g transform="translate(101.382573, 97.647671)"><g><path d="M 10.5 0 L 10.5 -7.21875 C 10.5 -8.71875 10.257812 -9.765625 9.78125 -10.359375 C 9.300781 -10.953125 8.550781 -11.25 7.53125 -11.25 C 6.445312 -11.25 5.597656 -10.875 4.984375 -10.125 C 4.367188 -9.375 4.0625 -8.328125 4.0625 -6.984375 L 4.0625 0 L 2.078125 0 L 2.078125 -9.8125 C 2.078125 -10.125 2.066406 -10.632812 2.046875 -11.34375 C 2.023438 -12.050781 2.007812 -12.488281 2 -12.65625 L 3.828125 -12.65625 C 3.859375 -12.28125 3.882812 -11.898438 3.90625 -11.515625 C 3.925781 -11.140625 3.941406 -10.753906 3.953125 -10.359375 L 4.015625 -10.359375 C 4.523438 -11.304688 5.09375 -11.96875 5.71875 -12.34375 C 6.34375 -12.71875 7.1875 -12.90625 8.25 -12.90625 C 9.664062 -12.90625 10.722656 -12.5 11.421875 -11.6875 C 12.117188 -10.882812 12.46875 -9.59375 12.46875 -7.8125 L 12.46875 0 Z M 10.5 0 "/></g></g></g><g fill="#ffffff" fill-opacity="1"><g transform="translate(115.761371, 97.647671)"><g><path d="M 3.3125 -6.34375 C 3.3125 -4.800781 3.625 -3.601562 4.25 -2.75 C 4.875 -1.90625 5.828125 -1.484375 7.109375 -1.484375 C 8.359375 -1.484375 9.316406 -1.90625 9.984375 -2.75 C 10.648438 -3.59375 10.984375 -4.820312 10.984375 -6.4375 C 10.984375 -8.007812 10.65625 -9.21875 10 -10.0625 C 9.351562 -10.90625 8.398438 -11.328125 7.140625 -11.328125 C 5.898438 -11.328125 4.953125 -10.910156 4.296875 -10.078125 C 3.640625 -9.253906 3.3125 -8.007812 3.3125 -6.34375 Z M 1.234375 -6.34375 C 1.234375 -8.414062 1.703125 -10.023438 2.640625 -11.171875 C 3.578125 -12.328125 4.878906 -12.90625 6.546875 -12.90625 C 7.578125 -12.90625 8.46875 -12.675781 9.21875 -12.21875 C 9.976562 -11.769531 10.554688 -11.148438 10.953125 -10.359375 L 11 -10.359375 C 11 -10.796875 11.003906 -11.210938 11.015625 -11.609375 C 11.035156 -12.003906 11.0625 -12.351562 11.09375 -12.65625 L 12.984375 -12.65625 C 12.929688 -11.96875 12.90625 -11.0625 12.90625 -9.9375 L 12.90625 -0.375 C 12.90625 1.582031 12.410156 3.070312 11.421875 4.09375 C 10.429688 5.125 8.992188 5.640625 7.109375 5.640625 C 5.523438 5.640625 4.300781 5.363281 3.4375 4.8125 C 2.570312 4.257812 2.019531 3.492188 1.78125 2.515625 L 3.75 2.203125 C 4.082031 3.453125 5.21875 4.078125 7.15625 4.078125 C 8.40625 4.078125 9.347656 3.707031 9.984375 2.96875 C 10.617188 2.226562 10.9375 1.140625 10.9375 -0.296875 L 10.9375 -1.390625 C 10.9375 -1.648438 10.945312 -2.019531 10.96875 -2.5 L 10.921875 -2.5 C 10.472656 -1.632812 9.878906 -0.976562 9.140625 -0.53125 C 8.410156 -0.09375 7.46875 0.125 6.3125 0.125 C 4.695312 0.125 3.445312 -0.445312 2.5625 -1.59375 C 1.675781 -2.738281 1.234375 -4.320312 1.234375 -6.34375 Z M 1.234375 -6.34375 "/></g></g></g><g fill="#ffffff" fill-opacity="1"><g transform="translate(130.72326, 97.647671)"><g/></g></g><g fill="#ffffff" fill-opacity="1"><g transform="translate(137.683144, 97.647671)"><g><path d="M 13.734375 -6.390625 C 13.734375 -4.390625 13.226562 -2.78125 12.21875 -1.5625 C 11.21875 -0.34375 9.859375 0.265625 8.140625 0.265625 C 7.171875 0.265625 6.359375 0.0976562 5.703125 -0.234375 C 5.054688 -0.566406 4.507812 -1.125 4.0625 -1.90625 L 4.015625 -1.90625 C 4.023438 -1.601562 4.035156 -1.300781 4.046875 -1 C 4.054688 -0.695312 4.0625 -0.394531 4.0625 -0.09375 L 4.0625 5.390625 L 2.078125 5.390625 L 2.078125 -9.9375 C 2.078125 -11.0625 2.050781 -11.96875 2 -12.65625 L 3.890625 -12.65625 C 3.921875 -12.519531 3.945312 -12.164062 3.96875 -11.59375 C 4 -11.03125 4.015625 -10.660156 4.015625 -10.484375 L 4.0625 -10.484375 C 4.914062 -12.085938 6.351562 -12.890625 8.375 -12.890625 C 10.113281 -12.890625 11.441406 -12.328125 12.359375 -11.203125 C 13.273438 -10.078125 13.734375 -8.472656 13.734375 -6.390625 Z M 11.6875 -6.34375 C 11.6875 -7.96875 11.375 -9.203125 10.75 -10.046875 C 10.125 -10.890625 9.222656 -11.3125 8.046875 -11.3125 C 6.710938 -11.3125 5.707031 -10.882812 5.03125 -10.03125 C 4.351562 -9.1875 4.015625 -7.96875 4.015625 -6.375 C 4.015625 -4.726562 4.347656 -3.476562 5.015625 -2.625 C 5.679688 -1.769531 6.660156 -1.34375 7.953125 -1.34375 C 9.171875 -1.34375 10.097656 -1.769531 10.734375 -2.625 C 11.367188 -3.488281 11.6875 -4.726562 11.6875 -6.34375 Z M 11.6875 -6.34375 "/></g></g></g><g fill="#ffffff" fill-opacity="1"><g transform="translate(152.620221, 97.647671)"><g><path d="M 2.078125 0 L 2.078125 -18.046875 L 4.0625 -18.046875 L 4.0625 0 Z M 2.078125 0 "/></g></g></g><g fill="#ffffff" fill-opacity="1"><g transform="translate(158.773701, 97.647671)"><g><path d="M 13.671875 -6.34375 C 13.671875 -4.269531 13.117188 -2.648438 12.015625 -1.484375 C 10.910156 -0.328125 9.363281 0.25 7.375 0.25 C 5.445312 0.25 3.9375 -0.335938 2.84375 -1.515625 C 1.757812 -2.703125 1.21875 -4.3125 1.21875 -6.34375 C 1.21875 -8.4375 1.765625 -10.050781 2.859375 -11.1875 C 3.953125 -12.332031 5.484375 -12.90625 7.453125 -12.90625 C 9.503906 -12.90625 11.050781 -12.347656 12.09375 -11.234375 C 13.144531 -10.128906 13.671875 -8.5 13.671875 -6.34375 Z M 11.609375 -6.34375 C 11.609375 -9.65625 10.242188 -11.3125 7.515625 -11.3125 C 6.128906 -11.3125 5.078125 -10.894531 4.359375 -10.0625 C 3.640625 -9.238281 3.28125 -8 3.28125 -6.34375 C 3.28125 -4.75 3.628906 -3.519531 4.328125 -2.65625 C 5.035156 -1.789062 6.039062 -1.359375 7.34375 -1.359375 C 10.1875 -1.359375 11.609375 -3.019531 11.609375 -6.34375 Z M 11.609375 -6.34375 "/></g></g></g><g fill="#ffffff" fill-opacity="1"><g transform="translate(173.661153, 97.647671)"><g><path d="M 7.203125 0 L 4.859375 0 L 0.078125 -12.65625 L 2.1875 -12.65625 L 5.171875 -4.3125 C 5.554688 -3.1875 5.84375 -2.296875 6.03125 -1.640625 C 6.175781 -2.078125 6.320312 -2.515625 6.46875 -2.953125 C 6.613281 -3.398438 6.769531 -3.847656 6.9375 -4.296875 L 10.03125 -12.65625 L 12.109375 -12.65625 Z M 7.203125 0 "/></g></g></g><g fill="#ffffff" fill-opacity="1"><g transform="translate(185.831645, 97.647671)"><g><path d="M 3.28125 -6 C 3.28125 -4.625 3.609375 -3.507812 4.265625 -2.65625 C 4.921875 -1.800781 5.816406 -1.375 6.953125 -1.375 C 8.597656 -1.375 9.804688 -2.0625 10.578125 -3.4375 L 12.109375 -2.5625 C 11.503906 -1.5625 10.785156 -0.84375 9.953125 -0.40625 C 9.128906 0.03125 8.113281 0.25 6.90625 0.25 C 5.113281 0.25 3.71875 -0.332031 2.71875 -1.5 C 1.71875 -2.675781 1.21875 -4.320312 1.21875 -6.4375 C 1.21875 -7.8125 1.457031 -8.976562 1.9375 -9.9375 C 2.414062 -10.90625 3.078125 -11.640625 3.921875 -12.140625 C 4.773438 -12.648438 5.769531 -12.90625 6.90625 -12.90625 C 8.632812 -12.90625 9.972656 -12.347656 10.921875 -11.234375 C 11.878906 -10.117188 12.359375 -8.535156 12.359375 -6.484375 L 12.359375 -6 Z M 6.796875 -11.328125 C 5.742188 -11.328125 4.90625 -10.988281 4.28125 -10.3125 C 3.664062 -9.632812 3.335938 -8.691406 3.296875 -7.484375 L 10.28125 -7.484375 C 10.09375 -10.046875 8.929688 -11.328125 6.796875 -11.328125 Z M 6.796875 -11.328125 "/></g></g></g><g fill="#ffffff" fill-opacity="1"><g transform="translate(199.118696, 97.647671)"><g><path d="M 2.046875 0 L 2.046875 -9.53125 C 2.046875 -11.125 2.019531 -12.164062 1.96875 -12.65625 L 3.828125 -12.65625 C 3.847656 -12.175781 3.863281 -11.695312 3.875 -11.21875 C 3.894531 -10.75 3.910156 -10.273438 3.921875 -9.796875 L 3.96875 -9.796875 C 4.363281 -10.972656 4.820312 -11.785156 5.34375 -12.234375 C 5.875 -12.679688 6.597656 -12.90625 7.515625 -12.90625 C 7.835938 -12.90625 8.144531 -12.867188 8.4375 -12.796875 L 8.4375 -10.96875 C 8.125 -11.050781 7.71875 -11.09375 7.21875 -11.09375 C 6.207031 -11.09375 5.421875 -10.671875 4.859375 -9.828125 C 4.296875 -8.992188 4.015625 -7.820312 4.015625 -6.3125 L 4.015625 0 Z M 2.046875 0 "/></g></g></g><g fill="#ffffff" fill-opacity="1"><g transform="translate(207.951918, 97.647671)"><g/></g></g><g fill="#ffffff" fill-opacity="1"><g transform="translate(214.911801, 97.647671)"><g><path d="M 6.59375 0.25 C 4.875 0.25 3.546875 -0.304688 2.609375 -1.421875 C 1.679688 -2.546875 1.21875 -4.15625 1.21875 -6.25 C 1.21875 -8.34375 1.695312 -9.972656 2.65625 -11.140625 C 3.625 -12.316406 5.003906 -12.90625 6.796875 -12.90625 C 8.242188 -12.90625 9.34375 -12.597656 10.09375 -11.984375 C 10.851562 -11.378906 11.320312 -10.515625 11.5 -9.390625 L 9.484375 -9.21875 C 9.347656 -9.945312 9.046875 -10.484375 8.578125 -10.828125 C 8.109375 -11.171875 7.53125 -11.34375 6.84375 -11.34375 C 4.425781 -11.34375 3.21875 -9.6875 3.21875 -6.375 C 3.21875 -4.6875 3.507812 -3.414062 4.09375 -2.5625 C 4.6875 -1.71875 5.546875 -1.296875 6.671875 -1.296875 C 7.492188 -1.296875 8.132812 -1.492188 8.59375 -1.890625 C 9.0625 -2.296875 9.367188 -2.882812 9.515625 -3.65625 L 11.46875 -3.40625 C 11.207031 -2.144531 10.660156 -1.21875 9.828125 -0.625 C 9.003906 -0.0390625 7.925781 0.25 6.59375 0.25 Z M 6.59375 0.25 "/></g></g></g><g fill="#ffffff" fill-opacity="1"><g transform="translate(226.648076, 97.647671)"><g><path d="M 3.28125 -6 C 3.28125 -4.625 3.609375 -3.507812 4.265625 -2.65625 C 4.921875 -1.800781 5.816406 -1.375 6.953125 -1.375 C 8.597656 -1.375 9.804688 -2.0625 10.578125 -3.4375 L 12.109375 -2.5625 C 11.503906 -1.5625 10.785156 -0.84375 9.953125 -0.40625 C 9.128906 0.03125 8.113281 0.25 6.90625 0.25 C 5.113281 0.25 3.71875 -0.332031 2.71875 -1.5 C 1.71875 -2.675781 1.21875 -4.320312 1.21875 -6.4375 C 1.21875 -7.8125 1.457031 -8.976562 1.9375 -9.9375 C 2.414062 -10.90625 3.078125 -11.640625 3.921875 -12.140625 C 4.773438 -12.648438 5.769531 -12.90625 6.90625 -12.90625 C 8.632812 -12.90625 9.972656 -12.347656 10.921875 -11.234375 C 11.878906 -10.117188 12.359375 -8.535156 12.359375 -6.484375 L 12.359375 -6 Z M 6.796875 -11.328125 C 5.742188 -11.328125 4.90625 -10.988281 4.28125 -10.3125 C 3.664062 -9.632812 3.335938 -8.691406 3.296875 -7.484375 L 10.28125 -7.484375 C 10.09375 -10.046875 8.929688 -11.328125 6.796875 -11.328125 Z M 6.796875 -11.328125 "/></g></g></g><g fill="#ffffff" fill-opacity="1"><g transform="translate(239.935127, 97.647671)"><g><path d="M 10.5 0 L 10.5 -7.21875 C 10.5 -8.71875 10.257812 -9.765625 9.78125 -10.359375 C 9.300781 -10.953125 8.550781 -11.25 7.53125 -11.25 C 6.445312 -11.25 5.597656 -10.875 4.984375 -10.125 C 4.367188 -9.375 4.0625 -8.328125 4.0625 -6.984375 L 4.0625 0 L 2.078125 0 L 2.078125 -9.8125 C 2.078125 -10.125 2.066406 -10.632812 2.046875 -11.34375 C 2.023438 -12.050781 2.007812 -12.488281 2 -12.65625 L 3.828125 -12.65625 C 3.859375 -12.28125 3.882812 -11.898438 3.90625 -11.515625 C 3.925781 -11.140625 3.941406 -10.753906 3.953125 -10.359375 L 4.015625 -10.359375 C 4.523438 -11.304688 5.09375 -11.96875 5.71875 -12.34375 C 6.34375 -12.71875 7.1875 -12.90625 8.25 -12.90625 C 9.664062 -12.90625 10.722656 -12.5 11.421875 -11.6875 C 12.117188 -10.882812 12.46875 -9.59375 12.46875 -7.8125 L 12.46875 0 Z M 10.5 0 "/></g></g></g><g fill="#ffffff" fill-opacity="1"><g transform="translate(254.313925, 97.647671)"><g><path d="M 9.828125 -3.546875 C 9.828125 -2.347656 9.429688 -1.414062 8.640625 -0.75 C 7.859375 -0.0820312 6.738281 0.25 5.28125 0.25 C 3.832031 0.25 2.75 0.0195312 2.03125 -0.4375 C 1.3125 -0.90625 0.832031 -1.660156 0.59375 -2.703125 L 2.359375 -3.015625 C 2.492188 -2.390625 2.78125 -1.929688 3.21875 -1.640625 C 3.664062 -1.359375 4.351562 -1.21875 5.28125 -1.21875 C 7.0625 -1.21875 7.953125 -1.941406 7.953125 -3.390625 C 7.953125 -3.804688 7.867188 -4.144531 7.703125 -4.40625 C 7.535156 -4.664062 7.300781 -4.878906 7 -5.046875 C 6.695312 -5.222656 6.34375 -5.363281 5.9375 -5.46875 C 5.53125 -5.582031 5.09375 -5.703125 4.625 -5.828125 C 3.6875 -6.066406 2.988281 -6.332031 2.53125 -6.625 C 2.070312 -6.925781 1.722656 -7.289062 1.484375 -7.71875 C 1.242188 -8.15625 1.125 -8.691406 1.125 -9.328125 C 1.125 -10.460938 1.46875 -11.34375 2.15625 -11.96875 C 2.84375 -12.59375 3.863281 -12.90625 5.21875 -12.90625 C 6.445312 -12.90625 7.398438 -12.679688 8.078125 -12.234375 C 8.753906 -11.785156 9.191406 -11.078125 9.390625 -10.109375 L 7.59375 -9.90625 C 7.476562 -10.476562 7.222656 -10.875 6.828125 -11.09375 C 6.429688 -11.320312 5.894531 -11.4375 5.21875 -11.4375 C 3.726562 -11.4375 2.984375 -10.796875 2.984375 -9.515625 C 2.984375 -9.128906 3.0625 -8.8125 3.21875 -8.5625 C 3.375 -8.3125 3.613281 -8.101562 3.9375 -7.9375 C 4.269531 -7.769531 4.941406 -7.550781 5.953125 -7.28125 C 7.078125 -6.96875 7.875 -6.660156 8.34375 -6.359375 C 8.8125 -6.054688 9.175781 -5.675781 9.4375 -5.21875 C 9.695312 -4.769531 9.828125 -4.210938 9.828125 -3.546875 Z M 9.828125 -3.546875 "/></g></g></g><g fill="#ffffff" fill-opacity="1"><g transform="translate(265.094921, 97.647671)"><g><path d="M 3.890625 -12.65625 L 3.890625 -5.4375 C 3.890625 -3.9375 4.128906 -2.890625 4.609375 -2.296875 C 5.085938 -1.710938 5.835938 -1.421875 6.859375 -1.421875 C 7.941406 -1.421875 8.796875 -1.796875 9.421875 -2.546875 C 10.046875 -3.296875 10.359375 -4.335938 10.359375 -5.671875 L 10.359375 -12.65625 L 12.34375 -12.65625 L 12.34375 -2.84375 C 12.34375 -2.539062 12.351562 -2.039062 12.375 -1.34375 C 12.394531 -0.65625 12.410156 -0.207031 12.421875 0 L 10.59375 0 C 10.550781 -0.382812 10.519531 -0.765625 10.5 -1.140625 C 10.488281 -1.523438 10.476562 -1.910156 10.46875 -2.296875 L 10.421875 -2.296875 C 9.910156 -1.367188 9.335938 -0.710938 8.703125 -0.328125 C 8.078125 0.0546875 7.21875 0.25 6.125 0.25 C 4.695312 0.25 3.632812 -0.15625 2.9375 -0.96875 C 2.25 -1.789062 1.90625 -3.085938 1.90625 -4.859375 L 1.90625 -12.65625 Z M 3.890625 -12.65625 "/></g></g></g><g fill="#ffffff" fill-opacity="1"><g transform="translate(279.473719, 97.647671)"><g><path d="M 9.828125 -3.546875 C 9.828125 -2.347656 9.429688 -1.414062 8.640625 -0.75 C 7.859375 -0.0820312 6.738281 0.25 5.28125 0.25 C 3.832031 0.25 2.75 0.0195312 2.03125 -0.4375 C 1.3125 -0.90625 0.832031 -1.660156 0.59375 -2.703125 L 2.359375 -3.015625 C 2.492188 -2.390625 2.78125 -1.929688 3.21875 -1.640625 C 3.664062 -1.359375 4.351562 -1.21875 5.28125 -1.21875 C 7.0625 -1.21875 7.953125 -1.941406 7.953125 -3.390625 C 7.953125 -3.804688 7.867188 -4.144531 7.703125 -4.40625 C 7.535156 -4.664062 7.300781 -4.878906 7 -5.046875 C 6.695312 -5.222656 6.34375 -5.363281 5.9375 -5.46875 C 5.53125 -5.582031 5.09375 -5.703125 4.625 -5.828125 C 3.6875 -6.066406 2.988281 -6.332031 2.53125 -6.625 C 2.070312 -6.925781 1.722656 -7.289062 1.484375 -7.71875 C 1.242188 -8.15625 1.125 -8.691406 1.125 -9.328125 C 1.125 -10.460938 1.46875 -11.34375 2.15625 -11.96875 C 2.84375 -12.59375 3.863281 -12.90625 5.21875 -12.90625 C 6.445312 -12.90625 7.398438 -12.679688 8.078125 -12.234375 C 8.753906 -11.785156 9.191406 -11.078125 9.390625 -10.109375 L 7.59375 -9.90625 C 7.476562 -10.476562 7.222656 -10.875 6.828125 -11.09375 C 6.429688 -11.320312 5.894531 -11.4375 5.21875 -11.4375 C 3.726562 -11.4375 2.984375 -10.796875 2.984375 -9.515625 C 2.984375 -9.128906 3.0625 -8.8125 3.21875 -8.5625 C 3.375 -8.3125 3.613281 -8.101562 3.9375 -7.9375 C 4.269531 -7.769531 4.941406 -7.550781 5.953125 -7.28125 C 7.078125 -6.96875 7.875 -6.660156 8.34375 -6.359375 C 8.8125 -6.054688 9.175781 -5.675781 9.4375 -5.21875 C 9.695312 -4.769531 9.828125 -4.210938 9.828125 -3.546875 Z M 9.828125 -3.546875 "/></g></g></g><g clip-path="url(#a9aeab6e7e)"><path stroke-linecap="butt" transform="matrix(0.0000887567, -0.74925, 0.74925, 0.0000887567, 452.876891, 73.700178)" fill="none" stroke-linejoin="miter" d="M 0.00157681 2.499979 L 88.329492 2.499942 " stroke="#000000" stroke-width="5" stroke-opacity="1" stroke-miterlimit="4"/></g><path stroke-linecap="butt" transform="matrix(-0.74925, -0.00000000130769, 0.00000000130769, -0.74925, 498.596699, 9.392588)" fill="none" stroke-linejoin="miter" d="M 18.751852 2.499909 L 61.633277 2.499909 " stroke="#000000" stroke-width="5" stroke-opacity="1" stroke-miterlimit="4"/><path fill="#000000" d="M 496.722656 7.519531 C 496.722656 10.621094 494.207031 13.140625 491.105469 13.140625 C 488 13.140625 485.484375 10.621094 485.484375 7.519531 C 485.484375 4.414062 488 1.898438 491.105469 1.898438 C 494.207031 1.898438 496.722656 4.414062 496.722656 7.519531 " fill-opacity="1" fill-rule="nonzero"/><g clip-path="url(#554c704d46)"><path stroke-linecap="round" transform="matrix(-0.74925, -0.00000000130769, 0.00000000130769, -0.74925, 498.596699, 9.392588)" fill="none" stroke-linejoin="round" d="M 2.501226 2.499909 C 2.501226 -1.639647 5.85875 -5.002385 9.998306 -5.002385 C 14.143076 -5.002385 17.500601 -1.639647 17.500601 2.499909 C 17.500601 6.644679 14.143076 10.002203 9.998306 10.002203 C 5.85875 10.002203 2.501226 6.644679 2.501226 2.499909 " stroke="#000000" stroke-width="5" stroke-opacity="1" stroke-miterlimit="4"/></g></svg>