<svg xmlns="http://www.w3.org/2000/svg" xmlns:xlink="http://www.w3.org/1999/xlink" width="755" zoomAndPan="magnify" viewBox="0 0 566.25 727.499982" height="970" preserveAspectRatio="xMidYMid meet" version="1.0"><defs><g/><clipPath id="5b0b71caf4"><path d="M 10 0.230469 L 137 0.230469 L 137 30 L 10 30 Z M 10 0.230469 " clip-rule="nonzero"/></clipPath><clipPath id="f6dc5ba206"><path d="M 17 0.230469 L 33 0.230469 L 33 16 L 17 16 Z M 17 0.230469 " clip-rule="nonzero"/></clipPath><clipPath id="86a02a9313"><path d="M 93 0.230469 L 138 0.230469 L 138 726.769531 L 93 726.769531 Z M 93 0.230469 " clip-rule="nonzero"/></clipPath><clipPath id="c83486f997"><path d="M 0 711 L 15 711 L 15 726.769531 L 0 726.769531 Z M 0 711 " clip-rule="nonzero"/></clipPath><clipPath id="fda585551d"><path d="M 173.929688 303.21875 L 564.851562 303.21875 L 564.851562 411.292969 L 173.929688 411.292969 Z M 173.929688 303.21875 " clip-rule="nonzero"/></clipPath><clipPath id="8e7d1d52f6"><path d="M 181.421875 303.21875 L 557.292969 303.21875 C 559.28125 303.21875 561.183594 304.011719 562.589844 305.414062 C 563.996094 306.820312 564.785156 308.722656 564.785156 310.710938 L 564.785156 403.804688 C 564.785156 405.789062 563.996094 407.695312 562.589844 409.097656 C 561.183594 410.503906 559.28125 411.292969 557.292969 411.292969 L 181.421875 411.292969 C 179.433594 411.292969 177.53125 410.503906 176.125 409.097656 C 174.71875 407.695312 173.929688 405.789062 173.929688 403.804688 L 173.929688 310.710938 C 173.929688 308.722656 174.71875 306.820312 176.125 305.414062 C 177.53125 304.011719 179.433594 303.21875 181.421875 303.21875 Z M 181.421875 303.21875 " clip-rule="nonzero"/></clipPath></defs><g clip-path="url(#5b0b71caf4)"><path stroke-linecap="butt" transform="matrix(0.749004, -0.00250475, 0.00250475, 0.749004, 17.431107, 6.177483)" fill="none" stroke-linejoin="miter" d="M 18.749034 2.501169 L 131.148339 2.501547 " stroke="#000000" stroke-width="5" stroke-opacity="1" stroke-miterlimit="4"/></g><path fill="#000000" d="M 19.308594 8.042969 C 19.300781 4.941406 21.804688 2.417969 24.910156 2.40625 C 28.011719 2.398438 30.535156 4.902344 30.546875 8.007812 C 30.554688 11.109375 28.046875 13.632812 24.945312 13.640625 C 21.84375 13.652344 19.320312 11.144531 19.308594 8.042969 " fill-opacity="1" fill-rule="nonzero"/><g clip-path="url(#f6dc5ba206)"><path stroke-linecap="round" transform="matrix(0.749004, -0.00250475, 0.00250475, 0.749004, 17.431107, 6.177483)" fill="none" stroke-linejoin="round" d="M 2.498288 2.498977 C 2.501705 -1.641928 5.855917 -4.99977 10.002055 -5.001551 C 14.142961 -4.998134 17.500803 -1.643922 17.502583 2.502216 C 17.499166 6.643122 14.13974 10.000946 9.998834 9.997529 C 5.85791 9.999327 2.500086 6.639901 2.498288 2.498977 " stroke="#000000" stroke-width="5" stroke-opacity="1" stroke-miterlimit="4"/></g><g clip-path="url(#86a02a9313)"><path stroke-linecap="butt" transform="matrix(0.00214276, 0.749005, -0.749005, 0.00214276, 116.514843, 5.99376)" fill="none" stroke-linejoin="miter" d="M 0.00117221 2.502281 L 954.674197 2.500621 " stroke="#000000" stroke-width="5" stroke-opacity="1" stroke-miterlimit="4"/></g><path stroke-linecap="butt" transform="matrix(0.749008, 0, 0, 0.749008, 0.0182838, 717.129517)" fill="none" stroke-linejoin="miter" d="M 18.750425 2.502496 L 154.403824 2.502496 " stroke="#000000" stroke-width="5" stroke-opacity="1" stroke-miterlimit="4"/><path fill="#000000" d="M 1.890625 719.003906 C 1.890625 715.898438 4.40625 713.382812 7.507812 713.382812 C 10.609375 713.382812 13.125 715.898438 13.125 719.003906 C 13.125 722.105469 10.609375 724.621094 7.507812 724.621094 C 4.40625 724.621094 1.890625 722.105469 1.890625 719.003906 " fill-opacity="1" fill-rule="nonzero"/><g clip-path="url(#c83486f997)"><path stroke-linecap="round" transform="matrix(0.749008, 0, 0, 0.749008, 0.0182838, 717.129517)" fill="none" stroke-linejoin="round" d="M 2.499762 2.502496 C 2.499762 -1.643613 5.858371 -5.002223 9.999265 -5.002223 C 14.140159 -5.002223 17.498769 -1.643613 17.498769 2.502496 C 17.498769 6.643391 14.140159 10.002 9.999265 10.002 C 5.858371 10.002 2.499762 6.643391 2.499762 2.502496 " stroke="#000000" stroke-width="5" stroke-opacity="1" stroke-miterlimit="4"/></g><path stroke-linecap="butt" transform="matrix(0.749006, 0.00182838, -0.00182838, 0.749006, 0.0228547, 356.782789)" fill="none" stroke-linejoin="miter" d="M 18.750486 2.50243 L 238.724399 2.497412 " stroke="#000000" stroke-width="5" stroke-opacity="1" stroke-miterlimit="4"/><path stroke-linecap="round" transform="matrix(0.749006, 0.00182838, -0.00182838, 0.749006, 0.0228547, 356.782789)" fill-opacity="1" fill="#000000" fill-rule="nonzero" stroke-linejoin="round" d="M 2.49977 2.500377 C 2.500092 -1.64053 5.855721 -5.002126 10.001844 -5.001816 C 14.142751 -5.001494 17.499144 -1.640637 17.498822 2.50027 C 17.498499 6.641177 14.142858 9.997558 10.001963 10.002451 C 5.855841 10.002141 2.499448 6.641285 2.49977 2.500377 " stroke="#000000" stroke-width="5" stroke-opacity="1" stroke-miterlimit="4"/><g clip-path="url(#fda585551d)"><g clip-path="url(#8e7d1d52f6)"><path fill="#6491ce" d="M 173.929688 303.21875 L 564.851562 303.21875 L 564.851562 411.292969 L 173.929688 411.292969 Z M 173.929688 303.21875 " fill-opacity="1" fill-rule="nonzero"/></g></g><g fill="#ffffff" fill-opacity="1"><g transform="translate(221.54948, 353.584852)"><g><path d="M 12.609375 -4.78125 C 12.609375 -3.15625 12.109375 -1.910156 11.109375 -1.046875 C 10.109375 -0.179688 8.644531 0.25 6.71875 0.25 C 5.0625 0.25 3.742188 -0.101562 2.765625 -0.8125 C 1.796875 -1.53125 1.144531 -2.640625 0.8125 -4.140625 L 2.765625 -4.53125 C 3.015625 -3.445312 3.46875 -2.65625 4.125 -2.15625 C 4.78125 -1.65625 5.660156 -1.40625 6.765625 -1.40625 C 9.316406 -1.40625 10.59375 -2.484375 10.59375 -4.640625 C 10.59375 -5.253906 10.46875 -5.765625 10.21875 -6.171875 C 9.976562 -6.578125 9.613281 -6.921875 9.125 -7.203125 C 8.632812 -7.492188 7.675781 -7.847656 6.25 -8.265625 C 4.957031 -8.640625 3.992188 -9.039062 3.359375 -9.46875 C 2.722656 -9.90625 2.238281 -10.4375 1.90625 -11.0625 C 1.582031 -11.695312 1.421875 -12.453125 1.421875 -13.328125 C 1.421875 -14.691406 1.878906 -15.765625 2.796875 -16.546875 C 3.710938 -17.335938 4.976562 -17.734375 6.59375 -17.734375 C 9.613281 -17.734375 11.488281 -16.488281 12.21875 -14 L 10.296875 -13.46875 C 10.003906 -14.40625 9.5625 -15.082031 8.96875 -15.5 C 8.375 -15.914062 7.578125 -16.125 6.578125 -16.125 C 5.566406 -16.125 4.789062 -15.890625 4.25 -15.421875 C 3.707031 -14.953125 3.4375 -14.273438 3.4375 -13.390625 C 3.4375 -12.804688 3.535156 -12.320312 3.734375 -11.9375 C 3.941406 -11.5625 4.253906 -11.234375 4.671875 -10.953125 C 5.097656 -10.679688 5.953125 -10.335938 7.234375 -9.921875 C 8.890625 -9.390625 10.03125 -8.910156 10.65625 -8.484375 C 11.289062 -8.066406 11.773438 -7.5625 12.109375 -6.96875 C 12.441406 -6.382812 12.609375 -5.65625 12.609375 -4.78125 Z M 12.609375 -4.78125 "/></g></g></g><g fill="#ffffff" fill-opacity="1"><g transform="translate(235.043076, 353.584852)"><g><path d="M 5.5625 0.203125 C 4.644531 0.203125 3.925781 -0.0546875 3.40625 -0.578125 C 2.882812 -1.097656 2.625 -1.832031 2.625 -2.78125 L 2.625 -11.0625 L 0.6875 -11.0625 L 0.6875 -12.65625 L 2.640625 -12.65625 L 3.28125 -15.625 L 4.59375 -15.625 L 4.59375 -12.65625 L 7.734375 -12.65625 L 7.734375 -11.0625 L 4.59375 -11.0625 L 4.59375 -3.28125 C 4.59375 -2.03125 5.128906 -1.40625 6.203125 -1.40625 C 6.773438 -1.40625 7.335938 -1.46875 7.890625 -1.59375 L 7.890625 -0.09375 C 7.128906 0.101562 6.351562 0.203125 5.5625 0.203125 Z M 5.5625 0.203125 "/></g></g></g><g fill="#ffffff" fill-opacity="1"><g transform="translate(243.650204, 353.584852)"><g><path d="M 11.015625 0 L 9.109375 0 L 9.03125 -2.109375 C 8.613281 -1.285156 8.09375 -0.6875 7.46875 -0.3125 C 6.84375 0.0625 6.109375 0.25 5.265625 0.25 C 3.941406 0.25 2.914062 -0.0820312 2.1875 -0.75 C 1.46875 -1.414062 1.109375 -2.347656 1.109375 -3.546875 C 1.109375 -4.859375 1.613281 -5.875 2.625 -6.59375 C 3.632812 -7.3125 5.148438 -7.707031 7.171875 -7.78125 L 9.03125 -7.84375 L 9.03125 -8.03125 C 9.03125 -9.175781 8.820312 -10 8.40625 -10.5 C 7.988281 -11.007812 7.285156 -11.265625 6.296875 -11.265625 C 5.503906 -11.265625 4.898438 -11.144531 4.484375 -10.90625 C 4.066406 -10.664062 3.785156 -10.25 3.640625 -9.65625 L 1.765625 -10.046875 C 1.984375 -11.054688 2.453125 -11.785156 3.171875 -12.234375 C 3.890625 -12.679688 4.941406 -12.90625 6.328125 -12.90625 C 8.023438 -12.90625 9.226562 -12.503906 9.9375 -11.703125 C 10.65625 -10.910156 11.015625 -9.59375 11.015625 -7.75 Z M 5.515625 -1.40625 C 6.597656 -1.40625 7.457031 -1.710938 8.09375 -2.328125 C 8.726562 -2.941406 9.046875 -3.785156 9.046875 -4.859375 L 9.046875 -6.390625 L 7.609375 -6.34375 C 5.953125 -6.269531 4.796875 -6.007812 4.140625 -5.5625 C 3.484375 -5.125 3.15625 -4.46875 3.15625 -3.59375 C 3.15625 -2.820312 3.34375 -2.265625 3.71875 -1.921875 C 4.101562 -1.578125 4.703125 -1.40625 5.515625 -1.40625 Z M 5.515625 -1.40625 "/></g></g></g><g fill="#ffffff" fill-opacity="1"><g transform="translate(256.573298, 353.584852)"><g><path d="M 10.5 0 L 10.5 -7.21875 C 10.5 -8.71875 10.257812 -9.757812 9.78125 -10.34375 C 9.300781 -10.9375 8.550781 -11.234375 7.53125 -11.234375 C 6.445312 -11.234375 5.597656 -10.859375 4.984375 -10.109375 C 4.367188 -9.367188 4.0625 -8.328125 4.0625 -6.984375 L 4.0625 0 L 2.078125 0 L 2.078125 -9.8125 C 2.078125 -10.113281 2.066406 -10.617188 2.046875 -11.328125 C 2.023438 -12.035156 2.007812 -12.476562 2 -12.65625 L 3.828125 -12.65625 C 3.859375 -12.269531 3.882812 -11.890625 3.90625 -11.515625 C 3.925781 -11.140625 3.941406 -10.753906 3.953125 -10.359375 L 4 -10.359375 C 4.519531 -11.296875 5.09375 -11.953125 5.71875 -12.328125 C 6.34375 -12.710938 7.1875 -12.90625 8.25 -12.90625 C 9.664062 -12.90625 10.722656 -12.5 11.421875 -11.6875 C 12.117188 -10.882812 12.46875 -9.585938 12.46875 -7.796875 L 12.46875 0 Z M 10.5 0 "/></g></g></g><g fill="#ffffff" fill-opacity="1"><g transform="translate(270.94745, 353.584852)"><g><path d="M 1.21875 -6.34375 C 1.21875 -8.332031 1.710938 -9.925781 2.703125 -11.125 C 3.703125 -12.320312 5.066406 -12.921875 6.796875 -12.921875 C 7.785156 -12.921875 8.609375 -12.75 9.265625 -12.40625 C 9.921875 -12.0625 10.46875 -11.507812 10.90625 -10.75 L 10.953125 -10.75 C 10.929688 -11 10.914062 -11.296875 10.90625 -11.640625 C 10.90625 -11.992188 10.90625 -12.285156 10.90625 -12.515625 L 10.90625 -18.03125 L 12.875 -18.03125 L 12.875 -2.734375 C 12.875 -1.609375 12.90625 -0.695312 12.96875 0 L 11.0625 0 C 11.050781 -0.132812 11.03125 -0.460938 11 -0.984375 C 10.96875 -1.503906 10.953125 -1.90625 10.953125 -2.1875 L 10.90625 -2.1875 C 10.425781 -1.34375 9.847656 -0.726562 9.171875 -0.34375 C 8.492188 0.03125 7.710938 0.21875 6.828125 0.21875 C 5.035156 0.21875 3.648438 -0.347656 2.671875 -1.484375 C 1.703125 -2.617188 1.21875 -4.238281 1.21875 -6.34375 Z M 3.25 -6.390625 C 3.25 -4.703125 3.570312 -3.441406 4.21875 -2.609375 C 4.875 -1.773438 5.78125 -1.359375 6.9375 -1.359375 C 8.25 -1.359375 9.242188 -1.773438 9.921875 -2.609375 C 10.609375 -3.441406 10.953125 -4.671875 10.953125 -6.296875 C 10.953125 -7.941406 10.613281 -9.1875 9.9375 -10.03125 C 9.269531 -10.882812 8.285156 -11.3125 6.984375 -11.3125 C 5.722656 -11.3125 4.785156 -10.878906 4.171875 -10.015625 C 3.554688 -9.160156 3.25 -7.953125 3.25 -6.390625 Z M 3.25 -6.390625 "/></g></g></g><g fill="#ffffff" fill-opacity="1"><g transform="translate(285.904506, 353.584852)"><g><path d="M 11.015625 0 L 9.109375 0 L 9.03125 -2.109375 C 8.613281 -1.285156 8.09375 -0.6875 7.46875 -0.3125 C 6.84375 0.0625 6.109375 0.25 5.265625 0.25 C 3.941406 0.25 2.914062 -0.0820312 2.1875 -0.75 C 1.46875 -1.414062 1.109375 -2.347656 1.109375 -3.546875 C 1.109375 -4.859375 1.613281 -5.875 2.625 -6.59375 C 3.632812 -7.3125 5.148438 -7.707031 7.171875 -7.78125 L 9.03125 -7.84375 L 9.03125 -8.03125 C 9.03125 -9.175781 8.820312 -10 8.40625 -10.5 C 7.988281 -11.007812 7.285156 -11.265625 6.296875 -11.265625 C 5.503906 -11.265625 4.898438 -11.144531 4.484375 -10.90625 C 4.066406 -10.664062 3.785156 -10.25 3.640625 -9.65625 L 1.765625 -10.046875 C 1.984375 -11.054688 2.453125 -11.785156 3.171875 -12.234375 C 3.890625 -12.679688 4.941406 -12.90625 6.328125 -12.90625 C 8.023438 -12.90625 9.226562 -12.503906 9.9375 -11.703125 C 10.65625 -10.910156 11.015625 -9.59375 11.015625 -7.75 Z M 5.515625 -1.40625 C 6.597656 -1.40625 7.457031 -1.710938 8.09375 -2.328125 C 8.726562 -2.941406 9.046875 -3.785156 9.046875 -4.859375 L 9.046875 -6.390625 L 7.609375 -6.34375 C 5.953125 -6.269531 4.796875 -6.007812 4.140625 -5.5625 C 3.484375 -5.125 3.15625 -4.46875 3.15625 -3.59375 C 3.15625 -2.820312 3.34375 -2.265625 3.71875 -1.921875 C 4.101562 -1.578125 4.703125 -1.40625 5.515625 -1.40625 Z M 5.515625 -1.40625 "/></g></g></g><g fill="#ffffff" fill-opacity="1"><g transform="translate(298.8276, 353.584852)"><g><path d="M 2.046875 0 L 2.046875 -9.53125 C 2.046875 -11.113281 2.019531 -12.15625 1.96875 -12.65625 L 3.828125 -12.65625 C 3.847656 -12.175781 3.863281 -11.695312 3.875 -11.21875 C 3.894531 -10.738281 3.910156 -10.257812 3.921875 -9.78125 L 3.96875 -9.78125 C 4.363281 -10.96875 4.820312 -11.785156 5.34375 -12.234375 C 5.875 -12.679688 6.59375 -12.90625 7.5 -12.90625 C 7.820312 -12.90625 8.132812 -12.867188 8.4375 -12.796875 L 8.4375 -10.96875 C 8.125 -11.050781 7.71875 -11.09375 7.21875 -11.09375 C 6.207031 -11.09375 5.421875 -10.671875 4.859375 -9.828125 C 4.296875 -8.992188 4.015625 -7.820312 4.015625 -6.3125 L 4.015625 0 Z M 2.046875 0 "/></g></g></g><g fill="#ffffff" fill-opacity="1"><g transform="translate(307.657968, 353.584852)"><g><path d="M 1.21875 -6.34375 C 1.21875 -8.332031 1.710938 -9.925781 2.703125 -11.125 C 3.703125 -12.320312 5.066406 -12.921875 6.796875 -12.921875 C 7.785156 -12.921875 8.609375 -12.75 9.265625 -12.40625 C 9.921875 -12.0625 10.46875 -11.507812 10.90625 -10.75 L 10.953125 -10.75 C 10.929688 -11 10.914062 -11.296875 10.90625 -11.640625 C 10.90625 -11.992188 10.90625 -12.285156 10.90625 -12.515625 L 10.90625 -18.03125 L 12.875 -18.03125 L 12.875 -2.734375 C 12.875 -1.609375 12.90625 -0.695312 12.96875 0 L 11.0625 0 C 11.050781 -0.132812 11.03125 -0.460938 11 -0.984375 C 10.96875 -1.503906 10.953125 -1.90625 10.953125 -2.1875 L 10.90625 -2.1875 C 10.425781 -1.34375 9.847656 -0.726562 9.171875 -0.34375 C 8.492188 0.03125 7.710938 0.21875 6.828125 0.21875 C 5.035156 0.21875 3.648438 -0.347656 2.671875 -1.484375 C 1.703125 -2.617188 1.21875 -4.238281 1.21875 -6.34375 Z M 3.25 -6.390625 C 3.25 -4.703125 3.570312 -3.441406 4.21875 -2.609375 C 4.875 -1.773438 5.78125 -1.359375 6.9375 -1.359375 C 8.25 -1.359375 9.242188 -1.773438 9.921875 -2.609375 C 10.609375 -3.441406 10.953125 -4.671875 10.953125 -6.296875 C 10.953125 -7.941406 10.613281 -9.1875 9.9375 -10.03125 C 9.269531 -10.882812 8.285156 -11.3125 6.984375 -11.3125 C 5.722656 -11.3125 4.785156 -10.878906 4.171875 -10.015625 C 3.554688 -9.160156 3.25 -7.953125 3.25 -6.390625 Z M 3.25 -6.390625 "/></g></g></g><g fill="#ffffff" fill-opacity="1"><g transform="translate(322.615023, 353.584852)"><g><path d="M 2.078125 -15.984375 L 2.078125 -18.03125 L 4.0625 -18.03125 L 4.0625 -15.984375 Z M 2.078125 0 L 2.078125 -12.65625 L 4.0625 -12.65625 L 4.0625 0 Z M 2.078125 0 "/></g></g></g><g fill="#ffffff" fill-opacity="1"><g transform="translate(328.766515, 353.584852)"><g><path d="M 0.8125 0 L 0.8125 -1.53125 L 8.1875 -11.109375 L 1.328125 -11.109375 L 1.328125 -12.65625 L 10.421875 -12.65625 L 10.421875 -11.125 L 3.046875 -1.546875 L 10.84375 -1.546875 L 10.84375 0 Z M 0.8125 0 "/></g></g></g><g fill="#ffffff" fill-opacity="1"><g transform="translate(340.250954, 353.584852)"><g><path d="M 3.28125 -5.984375 C 3.28125 -4.617188 3.609375 -3.507812 4.265625 -2.65625 C 4.921875 -1.800781 5.816406 -1.375 6.953125 -1.375 C 8.597656 -1.375 9.800781 -2.0625 10.5625 -3.4375 L 12.109375 -2.5625 C 11.503906 -1.5625 10.785156 -0.84375 9.953125 -0.40625 C 9.117188 0.03125 8.097656 0.25 6.890625 0.25 C 5.109375 0.25 3.71875 -0.332031 2.71875 -1.5 C 1.71875 -2.675781 1.21875 -4.316406 1.21875 -6.421875 C 1.21875 -7.804688 1.457031 -8.976562 1.9375 -9.9375 C 2.414062 -10.90625 3.078125 -11.640625 3.921875 -12.140625 C 4.773438 -12.648438 5.765625 -12.90625 6.890625 -12.90625 C 8.617188 -12.90625 9.960938 -12.34375 10.921875 -11.21875 C 11.878906 -10.101562 12.359375 -8.523438 12.359375 -6.484375 L 12.359375 -5.984375 Z M 6.78125 -11.3125 C 5.726562 -11.3125 4.894531 -10.972656 4.28125 -10.296875 C 3.664062 -9.628906 3.335938 -8.691406 3.296875 -7.484375 L 10.265625 -7.484375 C 10.078125 -10.035156 8.914062 -11.3125 6.78125 -11.3125 Z M 6.78125 -11.3125 "/></g></g></g><g fill="#ffffff" fill-opacity="1"><g transform="translate(353.533713, 353.584852)"><g><path d="M 1.21875 -6.34375 C 1.21875 -8.332031 1.710938 -9.925781 2.703125 -11.125 C 3.703125 -12.320312 5.066406 -12.921875 6.796875 -12.921875 C 7.785156 -12.921875 8.609375 -12.75 9.265625 -12.40625 C 9.921875 -12.0625 10.46875 -11.507812 10.90625 -10.75 L 10.953125 -10.75 C 10.929688 -11 10.914062 -11.296875 10.90625 -11.640625 C 10.90625 -11.992188 10.90625 -12.285156 10.90625 -12.515625 L 10.90625 -18.03125 L 12.875 -18.03125 L 12.875 -2.734375 C 12.875 -1.609375 12.90625 -0.695312 12.96875 0 L 11.0625 0 C 11.050781 -0.132812 11.03125 -0.460938 11 -0.984375 C 10.96875 -1.503906 10.953125 -1.90625 10.953125 -2.1875 L 10.90625 -2.1875 C 10.425781 -1.34375 9.847656 -0.726562 9.171875 -0.34375 C 8.492188 0.03125 7.710938 0.21875 6.828125 0.21875 C 5.035156 0.21875 3.648438 -0.347656 2.671875 -1.484375 C 1.703125 -2.617188 1.21875 -4.238281 1.21875 -6.34375 Z M 3.25 -6.390625 C 3.25 -4.703125 3.570312 -3.441406 4.21875 -2.609375 C 4.875 -1.773438 5.78125 -1.359375 6.9375 -1.359375 C 8.25 -1.359375 9.242188 -1.773438 9.921875 -2.609375 C 10.609375 -3.441406 10.953125 -4.671875 10.953125 -6.296875 C 10.953125 -7.941406 10.613281 -9.1875 9.9375 -10.03125 C 9.269531 -10.882812 8.285156 -11.3125 6.984375 -11.3125 C 5.722656 -11.3125 4.785156 -10.878906 4.171875 -10.015625 C 3.554688 -9.160156 3.25 -7.953125 3.25 -6.390625 Z M 3.25 -6.390625 "/></g></g></g><g fill="#ffffff" fill-opacity="1"><g transform="translate(368.490768, 353.584852)"><g/></g></g><g fill="#ffffff" fill-opacity="1"><g transform="translate(375.448403, 353.584852)"><g><path d="M 2.078125 -15.984375 L 2.078125 -18.03125 L 4.0625 -18.03125 L 4.0625 -15.984375 Z M 2.078125 0 L 2.078125 -12.65625 L 4.0625 -12.65625 L 4.0625 0 Z M 2.078125 0 "/></g></g></g><g fill="#ffffff" fill-opacity="1"><g transform="translate(381.599895, 353.584852)"><g><path d="M 10.5 0 L 10.5 -7.21875 C 10.5 -8.71875 10.257812 -9.757812 9.78125 -10.34375 C 9.300781 -10.9375 8.550781 -11.234375 7.53125 -11.234375 C 6.445312 -11.234375 5.597656 -10.859375 4.984375 -10.109375 C 4.367188 -9.367188 4.0625 -8.328125 4.0625 -6.984375 L 4.0625 0 L 2.078125 0 L 2.078125 -9.8125 C 2.078125 -10.113281 2.066406 -10.617188 2.046875 -11.328125 C 2.023438 -12.035156 2.007812 -12.476562 2 -12.65625 L 3.828125 -12.65625 C 3.859375 -12.269531 3.882812 -11.890625 3.90625 -11.515625 C 3.925781 -11.140625 3.941406 -10.753906 3.953125 -10.359375 L 4 -10.359375 C 4.519531 -11.296875 5.09375 -11.953125 5.71875 -12.328125 C 6.34375 -12.710938 7.1875 -12.90625 8.25 -12.90625 C 9.664062 -12.90625 10.722656 -12.5 11.421875 -11.6875 C 12.117188 -10.882812 12.46875 -9.585938 12.46875 -7.796875 L 12.46875 0 Z M 10.5 0 "/></g></g></g><g fill="#ffffff" fill-opacity="1"><g transform="translate(395.974047, 353.584852)"><g><path d="M 5.5625 0.203125 C 4.644531 0.203125 3.925781 -0.0546875 3.40625 -0.578125 C 2.882812 -1.097656 2.625 -1.832031 2.625 -2.78125 L 2.625 -11.0625 L 0.6875 -11.0625 L 0.6875 -12.65625 L 2.640625 -12.65625 L 3.28125 -15.625 L 4.59375 -15.625 L 4.59375 -12.65625 L 7.734375 -12.65625 L 7.734375 -11.0625 L 4.59375 -11.0625 L 4.59375 -3.28125 C 4.59375 -2.03125 5.128906 -1.40625 6.203125 -1.40625 C 6.773438 -1.40625 7.335938 -1.46875 7.890625 -1.59375 L 7.890625 -0.09375 C 7.128906 0.101562 6.351562 0.203125 5.5625 0.203125 Z M 5.5625 0.203125 "/></g></g></g><g fill="#ffffff" fill-opacity="1"><g transform="translate(404.581176, 353.584852)"><g><path d="M 3.28125 -5.984375 C 3.28125 -4.617188 3.609375 -3.507812 4.265625 -2.65625 C 4.921875 -1.800781 5.816406 -1.375 6.953125 -1.375 C 8.597656 -1.375 9.800781 -2.0625 10.5625 -3.4375 L 12.109375 -2.5625 C 11.503906 -1.5625 10.785156 -0.84375 9.953125 -0.40625 C 9.117188 0.03125 8.097656 0.25 6.890625 0.25 C 5.109375 0.25 3.71875 -0.332031 2.71875 -1.5 C 1.71875 -2.675781 1.21875 -4.316406 1.21875 -6.421875 C 1.21875 -7.804688 1.457031 -8.976562 1.9375 -9.9375 C 2.414062 -10.90625 3.078125 -11.640625 3.921875 -12.140625 C 4.773438 -12.648438 5.765625 -12.90625 6.890625 -12.90625 C 8.617188 -12.90625 9.960938 -12.34375 10.921875 -11.21875 C 11.878906 -10.101562 12.359375 -8.523438 12.359375 -6.484375 L 12.359375 -5.984375 Z M 6.78125 -11.3125 C 5.726562 -11.3125 4.894531 -10.972656 4.28125 -10.296875 C 3.664062 -9.628906 3.335938 -8.691406 3.296875 -7.484375 L 10.265625 -7.484375 C 10.078125 -10.035156 8.914062 -11.3125 6.78125 -11.3125 Z M 6.78125 -11.3125 "/></g></g></g><g fill="#ffffff" fill-opacity="1"><g transform="translate(417.863934, 353.584852)"><g><path d="M 2.046875 0 L 2.046875 -9.53125 C 2.046875 -11.113281 2.019531 -12.15625 1.96875 -12.65625 L 3.828125 -12.65625 C 3.847656 -12.175781 3.863281 -11.695312 3.875 -11.21875 C 3.894531 -10.738281 3.910156 -10.257812 3.921875 -9.78125 L 3.96875 -9.78125 C 4.363281 -10.96875 4.820312 -11.785156 5.34375 -12.234375 C 5.875 -12.679688 6.59375 -12.90625 7.5 -12.90625 C 7.820312 -12.90625 8.132812 -12.867188 8.4375 -12.796875 L 8.4375 -10.96875 C 8.125 -11.050781 7.71875 -11.09375 7.21875 -11.09375 C 6.207031 -11.09375 5.421875 -10.671875 4.859375 -9.828125 C 4.296875 -8.992188 4.015625 -7.820312 4.015625 -6.3125 L 4.015625 0 Z M 2.046875 0 "/></g></g></g><g fill="#ffffff" fill-opacity="1"><g transform="translate(426.694302, 353.584852)"><g><path d="M 10.5 0 L 10.5 -7.21875 C 10.5 -8.71875 10.257812 -9.757812 9.78125 -10.34375 C 9.300781 -10.9375 8.550781 -11.234375 7.53125 -11.234375 C 6.445312 -11.234375 5.597656 -10.859375 4.984375 -10.109375 C 4.367188 -9.367188 4.0625 -8.328125 4.0625 -6.984375 L 4.0625 0 L 2.078125 0 L 2.078125 -9.8125 C 2.078125 -10.113281 2.066406 -10.617188 2.046875 -11.328125 C 2.023438 -12.035156 2.007812 -12.476562 2 -12.65625 L 3.828125 -12.65625 C 3.859375 -12.269531 3.882812 -11.890625 3.90625 -11.515625 C 3.925781 -11.140625 3.941406 -10.753906 3.953125 -10.359375 L 4 -10.359375 C 4.519531 -11.296875 5.09375 -11.953125 5.71875 -12.328125 C 6.34375 -12.710938 7.1875 -12.90625 8.25 -12.90625 C 9.664062 -12.90625 10.722656 -12.5 11.421875 -11.6875 C 12.117188 -10.882812 12.46875 -9.585938 12.46875 -7.796875 L 12.46875 0 Z M 10.5 0 "/></g></g></g><g fill="#ffffff" fill-opacity="1"><g transform="translate(441.068454, 353.584852)"><g><path d="M 11.015625 0 L 9.109375 0 L 9.03125 -2.109375 C 8.613281 -1.285156 8.09375 -0.6875 7.46875 -0.3125 C 6.84375 0.0625 6.109375 0.25 5.265625 0.25 C 3.941406 0.25 2.914062 -0.0820312 2.1875 -0.75 C 1.46875 -1.414062 1.109375 -2.347656 1.109375 -3.546875 C 1.109375 -4.859375 1.613281 -5.875 2.625 -6.59375 C 3.632812 -7.3125 5.148438 -7.707031 7.171875 -7.78125 L 9.03125 -7.84375 L 9.03125 -8.03125 C 9.03125 -9.175781 8.820312 -10 8.40625 -10.5 C 7.988281 -11.007812 7.285156 -11.265625 6.296875 -11.265625 C 5.503906 -11.265625 4.898438 -11.144531 4.484375 -10.90625 C 4.066406 -10.664062 3.785156 -10.25 3.640625 -9.65625 L 1.765625 -10.046875 C 1.984375 -11.054688 2.453125 -11.785156 3.171875 -12.234375 C 3.890625 -12.679688 4.941406 -12.90625 6.328125 -12.90625 C 8.023438 -12.90625 9.226562 -12.503906 9.9375 -11.703125 C 10.65625 -10.910156 11.015625 -9.59375 11.015625 -7.75 Z M 5.515625 -1.40625 C 6.597656 -1.40625 7.457031 -1.710938 8.09375 -2.328125 C 8.726562 -2.941406 9.046875 -3.785156 9.046875 -4.859375 L 9.046875 -6.390625 L 7.609375 -6.34375 C 5.953125 -6.269531 4.796875 -6.007812 4.140625 -5.5625 C 3.484375 -5.125 3.15625 -4.46875 3.15625 -3.59375 C 3.15625 -2.820312 3.34375 -2.265625 3.71875 -1.921875 C 4.101562 -1.578125 4.703125 -1.40625 5.515625 -1.40625 Z M 5.515625 -1.40625 "/></g></g></g><g fill="#ffffff" fill-opacity="1"><g transform="translate(453.991548, 353.584852)"><g><path d="M 5.5625 0.203125 C 4.644531 0.203125 3.925781 -0.0546875 3.40625 -0.578125 C 2.882812 -1.097656 2.625 -1.832031 2.625 -2.78125 L 2.625 -11.0625 L 0.6875 -11.0625 L 0.6875 -12.65625 L 2.640625 -12.65625 L 3.28125 -15.625 L 4.59375 -15.625 L 4.59375 -12.65625 L 7.734375 -12.65625 L 7.734375 -11.0625 L 4.59375 -11.0625 L 4.59375 -3.28125 C 4.59375 -2.03125 5.128906 -1.40625 6.203125 -1.40625 C 6.773438 -1.40625 7.335938 -1.46875 7.890625 -1.59375 L 7.890625 -0.09375 C 7.128906 0.101562 6.351562 0.203125 5.5625 0.203125 Z M 5.5625 0.203125 "/></g></g></g><g fill="#ffffff" fill-opacity="1"><g transform="translate(462.598676, 353.584852)"><g><path d="M 2.078125 -15.984375 L 2.078125 -18.03125 L 4.0625 -18.03125 L 4.0625 -15.984375 Z M 2.078125 0 L 2.078125 -12.65625 L 4.0625 -12.65625 L 4.0625 0 Z M 2.078125 0 "/></g></g></g><g fill="#ffffff" fill-opacity="1"><g transform="translate(468.750168, 353.584852)"><g><path d="M 13.671875 -6.34375 C 13.671875 -4.257812 13.113281 -2.640625 12 -1.484375 C 10.894531 -0.328125 9.351562 0.25 7.375 0.25 C 5.445312 0.25 3.9375 -0.335938 2.84375 -1.515625 C 1.757812 -2.691406 1.21875 -4.300781 1.21875 -6.34375 C 1.21875 -8.4375 1.765625 -10.050781 2.859375 -11.1875 C 3.953125 -12.332031 5.484375 -12.90625 7.453125 -12.90625 C 9.492188 -12.90625 11.039062 -12.347656 12.09375 -11.234375 C 13.144531 -10.128906 13.671875 -8.5 13.671875 -6.34375 Z M 11.59375 -6.34375 C 11.59375 -9.644531 10.226562 -11.296875 7.5 -11.296875 C 6.125 -11.296875 5.078125 -10.878906 4.359375 -10.046875 C 3.640625 -9.222656 3.28125 -7.988281 3.28125 -6.34375 C 3.28125 -4.738281 3.628906 -3.503906 4.328125 -2.640625 C 5.035156 -1.785156 6.039062 -1.359375 7.34375 -1.359375 C 10.175781 -1.359375 11.59375 -3.019531 11.59375 -6.34375 Z M 11.59375 -6.34375 "/></g></g></g><g fill="#ffffff" fill-opacity="1"><g transform="translate(483.632811, 353.584852)"><g><path d="M 10.5 0 L 10.5 -7.21875 C 10.5 -8.71875 10.257812 -9.757812 9.78125 -10.34375 C 9.300781 -10.9375 8.550781 -11.234375 7.53125 -11.234375 C 6.445312 -11.234375 5.597656 -10.859375 4.984375 -10.109375 C 4.367188 -9.367188 4.0625 -8.328125 4.0625 -6.984375 L 4.0625 0 L 2.078125 0 L 2.078125 -9.8125 C 2.078125 -10.113281 2.066406 -10.617188 2.046875 -11.328125 C 2.023438 -12.035156 2.007812 -12.476562 2 -12.65625 L 3.828125 -12.65625 C 3.859375 -12.269531 3.882812 -11.890625 3.90625 -11.515625 C 3.925781 -11.140625 3.941406 -10.753906 3.953125 -10.359375 L 4 -10.359375 C 4.519531 -11.296875 5.09375 -11.953125 5.71875 -12.328125 C 6.34375 -12.710938 7.1875 -12.90625 8.25 -12.90625 C 9.664062 -12.90625 10.722656 -12.5 11.421875 -11.6875 C 12.117188 -10.882812 12.46875 -9.585938 12.46875 -7.796875 L 12.46875 0 Z M 10.5 0 "/></g></g></g><g fill="#ffffff" fill-opacity="1"><g transform="translate(498.006963, 353.584852)"><g><path d="M 11.015625 0 L 9.109375 0 L 9.03125 -2.109375 C 8.613281 -1.285156 8.09375 -0.6875 7.46875 -0.3125 C 6.84375 0.0625 6.109375 0.25 5.265625 0.25 C 3.941406 0.25 2.914062 -0.0820312 2.1875 -0.75 C 1.46875 -1.414062 1.109375 -2.347656 1.109375 -3.546875 C 1.109375 -4.859375 1.613281 -5.875 2.625 -6.59375 C 3.632812 -7.3125 5.148438 -7.707031 7.171875 -7.78125 L 9.03125 -7.84375 L 9.03125 -8.03125 C 9.03125 -9.175781 8.820312 -10 8.40625 -10.5 C 7.988281 -11.007812 7.285156 -11.265625 6.296875 -11.265625 C 5.503906 -11.265625 4.898438 -11.144531 4.484375 -10.90625 C 4.066406 -10.664062 3.785156 -10.25 3.640625 -9.65625 L 1.765625 -10.046875 C 1.984375 -11.054688 2.453125 -11.785156 3.171875 -12.234375 C 3.890625 -12.679688 4.941406 -12.90625 6.328125 -12.90625 C 8.023438 -12.90625 9.226562 -12.503906 9.9375 -11.703125 C 10.65625 -10.910156 11.015625 -9.59375 11.015625 -7.75 Z M 5.515625 -1.40625 C 6.597656 -1.40625 7.457031 -1.710938 8.09375 -2.328125 C 8.726562 -2.941406 9.046875 -3.785156 9.046875 -4.859375 L 9.046875 -6.390625 L 7.609375 -6.34375 C 5.953125 -6.269531 4.796875 -6.007812 4.140625 -5.5625 C 3.484375 -5.125 3.15625 -4.46875 3.15625 -3.59375 C 3.15625 -2.820312 3.34375 -2.265625 3.71875 -1.921875 C 4.101562 -1.578125 4.703125 -1.40625 5.515625 -1.40625 Z M 5.515625 -1.40625 "/></g></g></g><g fill="#ffffff" fill-opacity="1"><g transform="translate(510.930057, 353.584852)"><g><path d="M 2.078125 0 L 2.078125 -18.03125 L 4.0625 -18.03125 L 4.0625 0 Z M 2.078125 0 "/></g></g></g><g fill="#ffffff" fill-opacity="1"><g transform="translate(254.197086, 378.214874)"><g><path d="M 13.203125 -12.265625 C 13.203125 -11.210938 12.960938 -10.28125 12.484375 -9.46875 C 12.003906 -8.65625 11.304688 -8.019531 10.390625 -7.5625 C 9.484375 -7.113281 8.429688 -6.890625 7.234375 -6.890625 L 4.4375 -6.890625 L 4.4375 0 L 2.359375 0 L 2.359375 -17.484375 L 7.09375 -17.484375 C 9.050781 -17.484375 10.554688 -17.019531 11.609375 -16.09375 C 12.671875 -15.164062 13.203125 -13.890625 13.203125 -12.265625 Z M 11.09375 -12.25 C 11.09375 -13.394531 10.738281 -14.285156 10.03125 -14.921875 C 9.320312 -15.554688 8.257812 -15.875 6.84375 -15.875 L 4.4375 -15.875 L 4.4375 -8.46875 L 6.953125 -8.46875 C 8.273438 -8.46875 9.296875 -8.796875 10.015625 -9.453125 C 10.734375 -10.117188 11.09375 -11.050781 11.09375 -12.25 Z M 11.09375 -12.25 "/></g></g></g><g fill="#ffffff" fill-opacity="1"><g transform="translate(268.422412, 378.214874)"><g><path d="M 2.078125 -15.984375 L 2.078125 -18.03125 L 4.0625 -18.03125 L 4.0625 -15.984375 Z M 2.078125 0 L 2.078125 -12.65625 L 4.0625 -12.65625 L 4.0625 0 Z M 2.078125 0 "/></g></g></g><g fill="#ffffff" fill-opacity="1"><g transform="translate(274.573904, 378.214874)"><g><path d="M 13.71875 -6.390625 C 13.71875 -4.390625 13.21875 -2.78125 12.21875 -1.5625 C 11.21875 -0.34375 9.859375 0.265625 8.140625 0.265625 C 7.171875 0.265625 6.359375 0.0976562 5.703125 -0.234375 C 5.046875 -0.566406 4.5 -1.117188 4.0625 -1.890625 L 4 -1.890625 C 4.019531 -1.597656 4.035156 -1.300781 4.046875 -1 C 4.054688 -0.695312 4.0625 -0.394531 4.0625 -0.09375 L 4.0625 5.390625 L 2.078125 5.390625 L 2.078125 -9.921875 C 2.078125 -11.046875 2.050781 -11.957031 2 -12.65625 L 3.890625 -12.65625 C 3.921875 -12.507812 3.945312 -12.15625 3.96875 -11.59375 C 3.988281 -11.03125 4 -10.65625 4 -10.46875 L 4.0625 -10.46875 C 4.914062 -12.070312 6.351562 -12.875 8.375 -12.875 C 10.113281 -12.875 11.4375 -12.3125 12.34375 -11.1875 C 13.257812 -10.070312 13.71875 -8.472656 13.71875 -6.390625 Z M 11.6875 -6.34375 C 11.6875 -7.96875 11.375 -9.195312 10.75 -10.03125 C 10.125 -10.875 9.21875 -11.296875 8.03125 -11.296875 C 6.707031 -11.296875 5.703125 -10.875 5.015625 -10.03125 C 4.335938 -9.1875 4 -7.960938 4 -6.359375 C 4 -4.722656 4.332031 -3.476562 5 -2.625 C 5.664062 -1.769531 6.648438 -1.34375 7.953125 -1.34375 C 9.171875 -1.34375 10.097656 -1.769531 10.734375 -2.625 C 11.367188 -3.488281 11.6875 -4.726562 11.6875 -6.34375 Z M 11.6875 -6.34375 "/></g></g></g><g fill="#ffffff" fill-opacity="1"><g transform="translate(289.506155, 378.214874)"><g><path d="M 2.078125 -15.984375 L 2.078125 -18.03125 L 4.0625 -18.03125 L 4.0625 -15.984375 Z M 2.078125 0 L 2.078125 -12.65625 L 4.0625 -12.65625 L 4.0625 0 Z M 2.078125 0 "/></g></g></g><g fill="#ffffff" fill-opacity="1"><g transform="translate(295.657647, 378.214874)"><g><path d="M 10.5 0 L 10.5 -7.21875 C 10.5 -8.71875 10.257812 -9.757812 9.78125 -10.34375 C 9.300781 -10.9375 8.550781 -11.234375 7.53125 -11.234375 C 6.445312 -11.234375 5.597656 -10.859375 4.984375 -10.109375 C 4.367188 -9.367188 4.0625 -8.328125 4.0625 -6.984375 L 4.0625 0 L 2.078125 0 L 2.078125 -9.8125 C 2.078125 -10.113281 2.066406 -10.617188 2.046875 -11.328125 C 2.023438 -12.035156 2.007812 -12.476562 2 -12.65625 L 3.828125 -12.65625 C 3.859375 -12.269531 3.882812 -11.890625 3.90625 -11.515625 C 3.925781 -11.140625 3.941406 -10.753906 3.953125 -10.359375 L 4 -10.359375 C 4.519531 -11.296875 5.09375 -11.953125 5.71875 -12.328125 C 6.34375 -12.710938 7.1875 -12.90625 8.25 -12.90625 C 9.664062 -12.90625 10.722656 -12.5 11.421875 -11.6875 C 12.117188 -10.882812 12.46875 -9.585938 12.46875 -7.796875 L 12.46875 0 Z M 10.5 0 "/></g></g></g><g fill="#ffffff" fill-opacity="1"><g transform="translate(310.031799, 378.214874)"><g><path d="M 3.3125 -6.34375 C 3.3125 -4.800781 3.625 -3.601562 4.25 -2.75 C 4.875 -1.894531 5.828125 -1.46875 7.109375 -1.46875 C 8.359375 -1.46875 9.316406 -1.890625 9.984375 -2.734375 C 10.648438 -3.585938 10.984375 -4.816406 10.984375 -6.421875 C 10.984375 -8.003906 10.65625 -9.210938 10 -10.046875 C 9.34375 -10.890625 8.390625 -11.3125 7.140625 -11.3125 C 5.898438 -11.3125 4.953125 -10.894531 4.296875 -10.0625 C 3.640625 -9.238281 3.3125 -8 3.3125 -6.34375 Z M 1.234375 -6.34375 C 1.234375 -8.414062 1.703125 -10.023438 2.640625 -11.171875 C 3.578125 -12.328125 4.875 -12.90625 6.53125 -12.90625 C 7.570312 -12.90625 8.46875 -12.675781 9.21875 -12.21875 C 9.96875 -11.757812 10.539062 -11.140625 10.9375 -10.359375 L 10.984375 -10.359375 C 10.984375 -10.785156 10.992188 -11.195312 11.015625 -11.59375 C 11.035156 -11.988281 11.0625 -12.34375 11.09375 -12.65625 L 12.96875 -12.65625 C 12.925781 -11.96875 12.90625 -11.0625 12.90625 -9.9375 L 12.90625 -0.375 C 12.90625 1.582031 12.410156 3.070312 11.421875 4.09375 C 10.429688 5.113281 8.992188 5.625 7.109375 5.625 C 5.523438 5.625 4.300781 5.347656 3.4375 4.796875 C 2.570312 4.253906 2.019531 3.492188 1.78125 2.515625 L 3.75 2.203125 C 4.082031 3.453125 5.210938 4.078125 7.140625 4.078125 C 8.390625 4.078125 9.332031 3.707031 9.96875 2.96875 C 10.601562 2.226562 10.921875 1.140625 10.921875 -0.296875 L 10.921875 -1.390625 C 10.921875 -1.648438 10.9375 -2.019531 10.96875 -2.5 L 10.921875 -2.5 C 10.472656 -1.632812 9.878906 -0.976562 9.140625 -0.53125 C 8.398438 -0.09375 7.457031 0.125 6.3125 0.125 C 4.695312 0.125 3.445312 -0.445312 2.5625 -1.59375 C 1.675781 -2.738281 1.234375 -4.320312 1.234375 -6.34375 Z M 1.234375 -6.34375 "/></g></g></g><g fill="#ffffff" fill-opacity="1"><g transform="translate(324.988855, 378.214874)"><g/></g></g><g fill="#ffffff" fill-opacity="1"><g transform="translate(331.94649, 378.214874)"><g><path d="M 13.71875 -6.390625 C 13.71875 -4.390625 13.21875 -2.78125 12.21875 -1.5625 C 11.21875 -0.34375 9.859375 0.265625 8.140625 0.265625 C 7.171875 0.265625 6.359375 0.0976562 5.703125 -0.234375 C 5.046875 -0.566406 4.5 -1.117188 4.0625 -1.890625 L 4 -1.890625 C 4.019531 -1.597656 4.035156 -1.300781 4.046875 -1 C 4.054688 -0.695312 4.0625 -0.394531 4.0625 -0.09375 L 4.0625 5.390625 L 2.078125 5.390625 L 2.078125 -9.921875 C 2.078125 -11.046875 2.050781 -11.957031 2 -12.65625 L 3.890625 -12.65625 C 3.921875 -12.507812 3.945312 -12.15625 3.96875 -11.59375 C 3.988281 -11.03125 4 -10.65625 4 -10.46875 L 4.0625 -10.46875 C 4.914062 -12.070312 6.351562 -12.875 8.375 -12.875 C 10.113281 -12.875 11.4375 -12.3125 12.34375 -11.1875 C 13.257812 -10.070312 13.71875 -8.472656 13.71875 -6.390625 Z M 11.6875 -6.34375 C 11.6875 -7.96875 11.375 -9.195312 10.75 -10.03125 C 10.125 -10.875 9.21875 -11.296875 8.03125 -11.296875 C 6.707031 -11.296875 5.703125 -10.875 5.015625 -10.03125 C 4.335938 -9.1875 4 -7.960938 4 -6.359375 C 4 -4.722656 4.332031 -3.476562 5 -2.625 C 5.664062 -1.769531 6.648438 -1.34375 7.953125 -1.34375 C 9.171875 -1.34375 10.097656 -1.769531 10.734375 -2.625 C 11.367188 -3.488281 11.6875 -4.726562 11.6875 -6.34375 Z M 11.6875 -6.34375 "/></g></g></g><g fill="#ffffff" fill-opacity="1"><g transform="translate(346.878741, 378.214874)"><g><path d="M 2.078125 0 L 2.078125 -18.03125 L 4.0625 -18.03125 L 4.0625 0 Z M 2.078125 0 "/></g></g></g><g fill="#ffffff" fill-opacity="1"><g transform="translate(353.030233, 378.214874)"><g><path d="M 13.671875 -6.34375 C 13.671875 -4.257812 13.113281 -2.640625 12 -1.484375 C 10.894531 -0.328125 9.351562 0.25 7.375 0.25 C 5.445312 0.25 3.9375 -0.335938 2.84375 -1.515625 C 1.757812 -2.691406 1.21875 -4.300781 1.21875 -6.34375 C 1.21875 -8.4375 1.765625 -10.050781 2.859375 -11.1875 C 3.953125 -12.332031 5.484375 -12.90625 7.453125 -12.90625 C 9.492188 -12.90625 11.039062 -12.347656 12.09375 -11.234375 C 13.144531 -10.128906 13.671875 -8.5 13.671875 -6.34375 Z M 11.59375 -6.34375 C 11.59375 -9.644531 10.226562 -11.296875 7.5 -11.296875 C 6.125 -11.296875 5.078125 -10.878906 4.359375 -10.046875 C 3.640625 -9.222656 3.28125 -7.988281 3.28125 -6.34375 C 3.28125 -4.738281 3.628906 -3.503906 4.328125 -2.640625 C 5.035156 -1.785156 6.039062 -1.359375 7.34375 -1.359375 C 10.175781 -1.359375 11.59375 -3.019531 11.59375 -6.34375 Z M 11.59375 -6.34375 "/></g></g></g><g fill="#ffffff" fill-opacity="1"><g transform="translate(367.912876, 378.214874)"><g><path d="M 7.1875 0 L 4.859375 0 L 0.078125 -12.65625 L 2.1875 -12.65625 L 5.171875 -4.296875 C 5.554688 -3.179688 5.84375 -2.296875 6.03125 -1.640625 C 6.164062 -2.078125 6.304688 -2.515625 6.453125 -2.953125 C 6.609375 -3.398438 6.769531 -3.847656 6.9375 -4.296875 L 10.03125 -12.65625 L 12.109375 -12.65625 Z M 7.1875 0 "/></g></g></g><g fill="#ffffff" fill-opacity="1"><g transform="translate(380.079436, 378.214874)"><g><path d="M 3.28125 -5.984375 C 3.28125 -4.617188 3.609375 -3.507812 4.265625 -2.65625 C 4.921875 -1.800781 5.816406 -1.375 6.953125 -1.375 C 8.597656 -1.375 9.800781 -2.0625 10.5625 -3.4375 L 12.109375 -2.5625 C 11.503906 -1.5625 10.785156 -0.84375 9.953125 -0.40625 C 9.117188 0.03125 8.097656 0.25 6.890625 0.25 C 5.109375 0.25 3.71875 -0.332031 2.71875 -1.5 C 1.71875 -2.675781 1.21875 -4.316406 1.21875 -6.421875 C 1.21875 -7.804688 1.457031 -8.976562 1.9375 -9.9375 C 2.414062 -10.90625 3.078125 -11.640625 3.921875 -12.140625 C 4.773438 -12.648438 5.765625 -12.90625 6.890625 -12.90625 C 8.617188 -12.90625 9.960938 -12.34375 10.921875 -11.21875 C 11.878906 -10.101562 12.359375 -8.523438 12.359375 -6.484375 L 12.359375 -5.984375 Z M 6.78125 -11.3125 C 5.726562 -11.3125 4.894531 -10.972656 4.28125 -10.296875 C 3.664062 -9.628906 3.335938 -8.691406 3.296875 -7.484375 L 10.265625 -7.484375 C 10.078125 -10.035156 8.914062 -11.3125 6.78125 -11.3125 Z M 6.78125 -11.3125 "/></g></g></g><g fill="#ffffff" fill-opacity="1"><g transform="translate(393.362194, 378.214874)"><g><path d="M 2.046875 0 L 2.046875 -9.53125 C 2.046875 -11.113281 2.019531 -12.15625 1.96875 -12.65625 L 3.828125 -12.65625 C 3.847656 -12.175781 3.863281 -11.695312 3.875 -11.21875 C 3.894531 -10.738281 3.910156 -10.257812 3.921875 -9.78125 L 3.96875 -9.78125 C 4.363281 -10.96875 4.820312 -11.785156 5.34375 -12.234375 C 5.875 -12.679688 6.59375 -12.90625 7.5 -12.90625 C 7.820312 -12.90625 8.132812 -12.867188 8.4375 -12.796875 L 8.4375 -10.96875 C 8.125 -11.050781 7.71875 -11.09375 7.21875 -11.09375 C 6.207031 -11.09375 5.421875 -10.671875 4.859375 -9.828125 C 4.296875 -8.992188 4.015625 -7.820312 4.015625 -6.3125 L 4.015625 0 Z M 2.046875 0 "/></g></g></g><g fill="#ffffff" fill-opacity="1"><g transform="translate(402.192562, 378.214874)"><g/></g></g><g fill="#ffffff" fill-opacity="1"><g transform="translate(409.150197, 378.214874)"><g><path d="M 6.59375 0.25 C 4.863281 0.25 3.535156 -0.304688 2.609375 -1.421875 C 1.679688 -2.535156 1.21875 -4.144531 1.21875 -6.25 C 1.21875 -8.34375 1.695312 -9.972656 2.65625 -11.140625 C 3.625 -12.316406 5.003906 -12.90625 6.796875 -12.90625 C 8.234375 -12.90625 9.332031 -12.597656 10.09375 -11.984375 C 10.851562 -11.378906 11.320312 -10.515625 11.5 -9.390625 L 9.484375 -9.21875 C 9.347656 -9.945312 9.046875 -10.484375 8.578125 -10.828125 C 8.109375 -11.171875 7.523438 -11.34375 6.828125 -11.34375 C 4.421875 -11.34375 3.21875 -9.6875 3.21875 -6.375 C 3.21875 -4.6875 3.507812 -3.414062 4.09375 -2.5625 C 4.675781 -1.71875 5.53125 -1.296875 6.65625 -1.296875 C 7.488281 -1.296875 8.132812 -1.492188 8.59375 -1.890625 C 9.0625 -2.296875 9.363281 -2.882812 9.5 -3.65625 L 11.46875 -3.40625 C 11.207031 -2.144531 10.660156 -1.21875 9.828125 -0.625 C 8.992188 -0.0390625 7.914062 0.25 6.59375 0.25 Z M 6.59375 0.25 "/></g></g></g><g fill="#ffffff" fill-opacity="1"><g transform="translate(420.88268, 378.214874)"><g><path d="M 3.28125 -5.984375 C 3.28125 -4.617188 3.609375 -3.507812 4.265625 -2.65625 C 4.921875 -1.800781 5.816406 -1.375 6.953125 -1.375 C 8.597656 -1.375 9.800781 -2.0625 10.5625 -3.4375 L 12.109375 -2.5625 C 11.503906 -1.5625 10.785156 -0.84375 9.953125 -0.40625 C 9.117188 0.03125 8.097656 0.25 6.890625 0.25 C 5.109375 0.25 3.71875 -0.332031 2.71875 -1.5 C 1.71875 -2.675781 1.21875 -4.316406 1.21875 -6.421875 C 1.21875 -7.804688 1.457031 -8.976562 1.9375 -9.9375 C 2.414062 -10.90625 3.078125 -11.640625 3.921875 -12.140625 C 4.773438 -12.648438 5.765625 -12.90625 6.890625 -12.90625 C 8.617188 -12.90625 9.960938 -12.34375 10.921875 -11.21875 C 11.878906 -10.101562 12.359375 -8.523438 12.359375 -6.484375 L 12.359375 -5.984375 Z M 6.78125 -11.3125 C 5.726562 -11.3125 4.894531 -10.972656 4.28125 -10.296875 C 3.664062 -9.628906 3.335938 -8.691406 3.296875 -7.484375 L 10.265625 -7.484375 C 10.078125 -10.035156 8.914062 -11.3125 6.78125 -11.3125 Z M 6.78125 -11.3125 "/></g></g></g><g fill="#ffffff" fill-opacity="1"><g transform="translate(434.165439, 378.214874)"><g><path d="M 10.5 0 L 10.5 -7.21875 C 10.5 -8.71875 10.257812 -9.757812 9.78125 -10.34375 C 9.300781 -10.9375 8.550781 -11.234375 7.53125 -11.234375 C 6.445312 -11.234375 5.597656 -10.859375 4.984375 -10.109375 C 4.367188 -9.367188 4.0625 -8.328125 4.0625 -6.984375 L 4.0625 0 L 2.078125 0 L 2.078125 -9.8125 C 2.078125 -10.113281 2.066406 -10.617188 2.046875 -11.328125 C 2.023438 -12.035156 2.007812 -12.476562 2 -12.65625 L 3.828125 -12.65625 C 3.859375 -12.269531 3.882812 -11.890625 3.90625 -11.515625 C 3.925781 -11.140625 3.941406 -10.753906 3.953125 -10.359375 L 4 -10.359375 C 4.519531 -11.296875 5.09375 -11.953125 5.71875 -12.328125 C 6.34375 -12.710938 7.1875 -12.90625 8.25 -12.90625 C 9.664062 -12.90625 10.722656 -12.5 11.421875 -11.6875 C 12.117188 -10.882812 12.46875 -9.585938 12.46875 -7.796875 L 12.46875 0 Z M 10.5 0 "/></g></g></g><g fill="#ffffff" fill-opacity="1"><g transform="translate(448.539591, 378.214874)"><g><path d="M 9.828125 -3.546875 C 9.828125 -2.347656 9.429688 -1.414062 8.640625 -0.75 C 7.859375 -0.0820312 6.738281 0.25 5.28125 0.25 C 3.832031 0.25 2.75 0.0195312 2.03125 -0.4375 C 1.3125 -0.90625 0.832031 -1.660156 0.59375 -2.703125 L 2.359375 -3.015625 C 2.492188 -2.390625 2.78125 -1.929688 3.21875 -1.640625 C 3.664062 -1.359375 4.347656 -1.21875 5.265625 -1.21875 C 7.054688 -1.21875 7.953125 -1.941406 7.953125 -3.390625 C 7.953125 -3.796875 7.863281 -4.128906 7.6875 -4.390625 C 7.519531 -4.648438 7.285156 -4.867188 6.984375 -5.046875 C 6.679688 -5.222656 6.328125 -5.363281 5.921875 -5.46875 C 5.523438 -5.582031 5.085938 -5.703125 4.609375 -5.828125 C 3.679688 -6.066406 2.988281 -6.332031 2.53125 -6.625 C 2.070312 -6.925781 1.722656 -7.289062 1.484375 -7.71875 C 1.242188 -8.15625 1.125 -8.691406 1.125 -9.328125 C 1.125 -10.460938 1.46875 -11.34375 2.15625 -11.96875 C 2.84375 -12.59375 3.863281 -12.90625 5.21875 -12.90625 C 6.445312 -12.90625 7.398438 -12.675781 8.078125 -12.21875 C 8.753906 -11.769531 9.191406 -11.0625 9.390625 -10.09375 L 7.59375 -9.90625 C 7.476562 -10.46875 7.222656 -10.863281 6.828125 -11.09375 C 6.429688 -11.320312 5.894531 -11.4375 5.21875 -11.4375 C 3.726562 -11.4375 2.984375 -10.796875 2.984375 -9.515625 C 2.984375 -9.128906 3.0625 -8.8125 3.21875 -8.5625 C 3.375 -8.3125 3.613281 -8.097656 3.9375 -7.921875 C 4.269531 -7.753906 4.941406 -7.535156 5.953125 -7.265625 C 7.078125 -6.960938 7.875 -6.660156 8.34375 -6.359375 C 8.8125 -6.054688 9.175781 -5.675781 9.4375 -5.21875 C 9.695312 -4.769531 9.828125 -4.210938 9.828125 -3.546875 Z M 9.828125 -3.546875 "/></g></g></g><g fill="#ffffff" fill-opacity="1"><g transform="translate(459.317104, 378.214874)"><g><path d="M 3.890625 -12.65625 L 3.890625 -5.4375 C 3.890625 -3.9375 4.128906 -2.890625 4.609375 -2.296875 C 5.085938 -1.710938 5.832031 -1.421875 6.84375 -1.421875 C 7.9375 -1.421875 8.796875 -1.796875 9.421875 -2.546875 C 10.046875 -3.296875 10.359375 -4.335938 10.359375 -5.671875 L 10.359375 -12.65625 L 12.328125 -12.65625 L 12.328125 -2.84375 C 12.328125 -2.53125 12.335938 -2.03125 12.359375 -1.34375 C 12.378906 -0.65625 12.398438 -0.207031 12.421875 0 L 10.578125 0 C 10.546875 -0.382812 10.519531 -0.765625 10.5 -1.140625 C 10.488281 -1.523438 10.472656 -1.910156 10.453125 -2.296875 L 10.40625 -2.296875 C 9.90625 -1.367188 9.335938 -0.710938 8.703125 -0.328125 C 8.066406 0.0546875 7.207031 0.25 6.125 0.25 C 4.695312 0.25 3.632812 -0.15625 2.9375 -0.96875 C 2.25 -1.789062 1.90625 -3.082031 1.90625 -4.84375 L 1.90625 -12.65625 Z M 3.890625 -12.65625 "/></g></g></g><g fill="#ffffff" fill-opacity="1"><g transform="translate(473.691256, 378.214874)"><g><path d="M 9.828125 -3.546875 C 9.828125 -2.347656 9.429688 -1.414062 8.640625 -0.75 C 7.859375 -0.0820312 6.738281 0.25 5.28125 0.25 C 3.832031 0.25 2.75 0.0195312 2.03125 -0.4375 C 1.3125 -0.90625 0.832031 -1.660156 0.59375 -2.703125 L 2.359375 -3.015625 C 2.492188 -2.390625 2.78125 -1.929688 3.21875 -1.640625 C 3.664062 -1.359375 4.347656 -1.21875 5.265625 -1.21875 C 7.054688 -1.21875 7.953125 -1.941406 7.953125 -3.390625 C 7.953125 -3.796875 7.863281 -4.128906 7.6875 -4.390625 C 7.519531 -4.648438 7.285156 -4.867188 6.984375 -5.046875 C 6.679688 -5.222656 6.328125 -5.363281 5.921875 -5.46875 C 5.523438 -5.582031 5.085938 -5.703125 4.609375 -5.828125 C 3.679688 -6.066406 2.988281 -6.332031 2.53125 -6.625 C 2.070312 -6.925781 1.722656 -7.289062 1.484375 -7.71875 C 1.242188 -8.15625 1.125 -8.691406 1.125 -9.328125 C 1.125 -10.460938 1.46875 -11.34375 2.15625 -11.96875 C 2.84375 -12.59375 3.863281 -12.90625 5.21875 -12.90625 C 6.445312 -12.90625 7.398438 -12.675781 8.078125 -12.21875 C 8.753906 -11.769531 9.191406 -11.0625 9.390625 -10.09375 L 7.59375 -9.90625 C 7.476562 -10.46875 7.222656 -10.863281 6.828125 -11.09375 C 6.429688 -11.320312 5.894531 -11.4375 5.21875 -11.4375 C 3.726562 -11.4375 2.984375 -10.796875 2.984375 -9.515625 C 2.984375 -9.128906 3.0625 -8.8125 3.21875 -8.5625 C 3.375 -8.3125 3.613281 -8.097656 3.9375 -7.921875 C 4.269531 -7.753906 4.941406 -7.535156 5.953125 -7.265625 C 7.078125 -6.960938 7.875 -6.660156 8.34375 -6.359375 C 8.8125 -6.054688 9.175781 -5.675781 9.4375 -5.21875 C 9.695312 -4.769531 9.828125 -4.210938 9.828125 -3.546875 Z M 9.828125 -3.546875 "/></g></g></g></svg>